<svg width="430" height="563" viewBox="0 0 430 563" fill="none" xmlns="http://www.w3.org/2000/svg">
<g clip-path="url(#clip0_2138_965)">
<path d="M225.425 31.2393C229.382 29.7025 233.28 28.7252 237.439 27.9294C238.488 27.7243 239.532 27.5028 240.577 27.2766C241.251 27.1334 241.926 26.9903 242.6 26.8473C243.201 26.7193 243.801 26.5913 244.42 26.4595C246.064 26.2154 246.064 26.2154 247.46 26.3725C249.121 26.5139 250.142 26.0939 251.695 25.5001C254.685 24.4321 257.594 24.0256 260.747 23.719C264.449 23.3553 267.467 22.7334 270.86 21.1545C272.004 20.7009 272.004 20.7009 273.678 20.9478C274.415 20.8401 275.148 20.7013 275.876 20.5413C276.301 20.4496 276.725 20.3579 277.163 20.2634C277.604 20.1651 278.046 20.0667 278.501 19.9654C279.37 19.7759 280.24 19.5866 281.109 19.3974C281.529 19.3055 281.949 19.2137 282.382 19.1191C287.175 18.0816 287.175 18.0816 289.476 17.8594C291.767 17.6078 293.994 17.1366 296.243 16.6412C297.496 16.436 297.496 16.436 299.17 16.6829C299.825 17.6936 300.327 18.6108 300.822 19.6974C300.965 20.0046 301.108 20.3119 301.255 20.6284C302.343 23.1025 302.748 25.4175 303.018 28.1075C303.345 30.1352 303.984 31.9393 304.694 33.8595C305.715 36.6289 306.277 39.0467 306.411 42.0155C306.635 43.9533 307.362 45.6334 308.13 47.415C308.556 48.6264 308.534 49.4176 308.495 50.6831C308.836 51.7037 308.836 51.7037 309.315 52.7609C310.311 55.3246 310.643 57.8127 310.968 60.5221C311.275 62.9787 311.881 65.0534 312.745 67.3593C312.726 67.6917 312.708 68.0241 312.689 68.3666C312.704 70.1304 313.639 71.4309 314.466 72.9524C314.904 74.1239 314.904 74.1239 314.669 75.2387C314.343 76.8769 314.858 77.801 315.511 79.3193C316.642 81.9639 316.642 81.9639 316.369 83.8118C316.66 84.6124 316.983 85.4019 317.327 86.1812C318.199 88.4717 318.199 88.4717 317.789 90.2451C316.572 91.6863 315.678 92.2612 313.862 92.7822C312.085 92.2582 311.301 91.6284 310.115 90.2069C308.781 88.754 307.74 88.2935 305.956 87.5643C303.499 86.4873 301.576 84.7848 299.768 82.8319C298.956 82.0895 298.956 82.0895 297.7 81.5449C296.221 80.8184 295.092 79.975 293.821 78.9322C292.46 77.8346 291.154 76.7985 289.623 75.9533C288.432 75.2186 288.432 75.2186 287.63 73.5217C285.633 75.9385 283.766 78.3083 282.281 81.0781C281.448 82.6146 280.726 83.7102 279.378 84.8185C277.358 86.5764 276.369 88.8735 275.166 91.2174C273.727 93.9668 272.029 96.2068 270.051 98.6023C268.668 100.402 267.66 102.316 266.62 104.327C265.861 105.706 264.999 106.86 263.95 108.029C263.207 109.064 262.753 110.185 262.233 111.343C261.545 112.701 260.605 113.807 259.637 114.976C256.987 118.248 254.792 121.712 252.756 125.398C251.108 128.339 249.197 131.105 247.292 133.884C246.075 135.674 244.942 137.445 243.963 139.377C242.944 141.37 241.695 143.041 240.272 144.761C238.347 147.111 236.633 149.426 235.359 152.209C234.621 153.631 233.769 154.728 232.725 155.933C231.969 157.006 231.489 158.139 230.955 159.332C230.208 160.81 229.192 162.062 228.172 163.359C226.603 165.411 225.229 167.405 224.089 169.732C222.499 172.838 220.533 175.718 218.328 178.415C217.629 179.342 217.06 180.304 216.481 181.31C215.484 183.022 214.37 184.538 213.122 186.077C211.697 187.851 210.577 189.569 209.577 191.607C208.672 193.348 207.586 194.972 206.517 196.615C205.725 197.86 205.725 197.86 205.096 199.229C204.433 200.562 203.683 201.655 202.781 202.837C201.644 204.362 200.6 205.884 199.647 207.53C198.748 209.08 197.758 210.456 196.627 211.845C195.441 213.308 194.826 214.506 194.219 216.292C193.271 217.706 192.212 219.021 190.994 220.213C189.179 221.995 187.888 223.838 186.631 226.042C186.256 226.685 185.88 227.326 185.504 227.968C185.327 228.272 185.151 228.575 184.969 228.888C184.364 229.912 183.728 230.912 183.078 231.907C182.095 233.356 182.095 233.356 181.522 234.654C180.801 235.832 180.168 236.078 178.87 236.524C175.219 235.854 172.371 233.387 169.595 231.091C167.75 229.589 165.962 228.468 163.827 227.415C161.258 226.147 159.386 224.651 157.33 222.674C155.652 221.148 153.841 220.104 151.658 219.441C149.831 218.704 148.382 217.617 146.804 216.452C145.14 215.235 143.504 214.048 141.726 213.001C140.376 212.171 139.379 211.289 138.258 210.176C136.232 208.296 134.23 207.187 131.725 206.057C130.169 205.308 128.86 204.386 127.486 203.348C126.416 202.551 125.315 201.82 124.198 201.089C122.848 200.196 121.554 199.283 120.299 198.261C119.121 197.314 117.918 196.519 116.615 195.753C112.71 193.453 109.088 190.838 105.557 188.005C103.495 186.354 101.503 184.92 99.1102 183.773C97.7743 183.115 96.5567 182.299 95.3128 181.483C94.5848 181.008 93.8424 180.555 93.0974 180.107C92.5889 179.802 92.0805 179.496 91.5567 179.181C90.9987 178.848 90.9987 178.848 90.4294 178.508C87.3696 176.636 84.608 174.565 81.8493 172.285C80.6291 171.255 80.6291 171.255 78.9302 171.136C76.9753 171.763 76.1583 172.162 75.1936 174.005C75.0781 174.299 74.9625 174.592 74.8435 174.895C74.169 176.431 73.1985 177.75 72.2541 179.132C71.2649 180.582 70.301 182.048 69.3424 183.519C69.0271 184.001 68.7118 184.483 68.3869 184.98C67.7559 185.966 67.1444 186.965 66.5497 187.973C65.7248 189.316 65.7248 189.316 64.5967 190.498C63.0812 192.132 62.2517 194.099 61.3195 196.102C60.3694 198.141 59.4547 199.667 57.9365 201.336C55.937 203.704 54.3504 206.342 52.9951 209.12C51.6261 211.917 49.9615 214.348 47.8376 216.627C46.4864 218.139 45.584 219.805 44.6515 221.596C43.4199 223.961 42.0966 225.788 40.3165 227.797C39.5716 228.966 38.9183 230.181 38.256 231.399C36.5747 234.403 34.7008 237.139 32.5856 239.853C30.5562 242.458 28.9434 244.944 27.6119 247.984C26.8517 249.503 25.8193 250.61 24.6668 251.842C23.9073 252.681 23.9073 252.681 23.4663 254.188C22.9355 255.67 22.5951 256.186 21.5668 257.293C19.6864 259.421 18.1756 261.737 16.6481 264.125C16.374 264.546 16.1 264.966 15.8176 265.399C14.6709 267.178 13.5689 268.92 12.7097 270.857C12.1267 272.127 11.7442 272.784 10.7173 273.676C8.945 275.397 7.84419 277.388 6.63928 279.529C0.50567 290.316 0.505674 290.316 -3.3497 294.631C-5.00692 296.883 -6.44427 299.251 -7.79558 301.696C-8.92096 303.712 -10.2102 305.441 -11.668 307.225C-12.8161 308.746 -13.6952 310.389 -14.6133 312.056C-15.4428 313.497 -16.39 314.81 -17.3806 316.143C-18.5699 317.816 -19.6207 319.574 -20.6862 321.327C-21.3838 322.36 -21.3838 322.36 -22.2323 322.761C-22.2174 323.065 -22.2024 323.368 -22.187 323.681C-22.3447 325.709 -23.1195 326.691 -24.5802 328.088C-26.1086 329.601 -27.1982 331.318 -28.3255 333.135C-28.5882 333.558 -28.5882 333.558 -28.8561 333.989C-29.5928 335.198 -30.2785 336.386 -30.8452 337.684C-31.8085 339.491 -33.0278 340.882 -34.3941 342.394C-34.645 342.677 -34.8958 342.959 -35.1542 343.25C-35.7681 343.941 -36.3855 344.628 -37.0037 345.315C-39.5942 340.115 -42.1592 334.903 -44.6926 329.675C-45.8698 327.247 -47.0554 324.824 -48.261 322.411C-49.4249 320.08 -50.5654 317.739 -51.6908 315.39C-52.1235 314.497 -52.5644 313.608 -53.0136 312.723C-56.5204 305.795 -56.5204 305.795 -55.8685 302.83C-55.0932 301.37 -54.284 300.225 -53.1929 298.988C-52.9038 298.62 -52.6147 298.252 -52.3169 297.873C-51.804 297.219 -51.2819 296.573 -50.7525 295.933C-49.8556 294.731 -49.1919 293.497 -48.503 292.165C-47.3829 290.023 -46.0897 288.169 -44.5561 286.309C-42.8713 284.24 -41.7042 282.348 -40.7398 279.869C-40.034 278.064 -39.1864 276.899 -37.6579 275.717C-35.8995 274.255 -35.0654 272.248 -34.0286 270.249C-33.2486 268.844 -32.3924 267.617 -31.4162 266.344C-30.2962 264.865 -29.4724 263.523 -28.797 261.797C-27.8008 259.288 -26.2517 257.319 -24.6186 255.187C-23.8263 254.119 -23.1557 253.094 -22.5312 251.926C-21.7168 250.419 -20.8049 249.216 -19.7394 247.881C-19.1502 246.956 -18.5759 246.024 -18.0123 245.084C-17.3482 244.156 -17.3482 244.156 -16.313 243.206C-15.0259 241.927 -14.2776 240.636 -13.4047 239.048C-12.0684 236.655 -10.6554 234.358 -9.10645 232.095C-8.55901 231.283 -8.05184 230.444 -7.55498 229.6C-6.90606 228.545 -6.28202 227.688 -5.49789 226.746C-4.39357 225.376 -3.587 223.973 -2.77839 222.411C-1.4545 219.902 0.0996628 217.668 1.78463 215.388C3.9766 212.414 5.70314 209.457 7.21158 206.076C8.09362 204.418 8.68106 203.385 10.1692 202.245C11.5629 201.112 12.0813 199.816 12.7909 198.183C14.3501 194.693 16.5609 191.956 18.9776 189.02C21.3345 186.144 21.3345 186.144 22.9168 182.822C23.6141 180.947 24.6409 179.734 25.8976 178.199C27.5266 176.119 28.7792 173.811 30.059 171.506C31.2964 169.288 32.524 167.228 34.1914 165.305C34.9971 164.209 35.5157 163.019 36.1064 161.795C38.3824 157.79 40.8457 154.369 43.9754 150.983C45.2176 149.536 45.7924 148.242 46.5196 146.492C47.1505 145.641 47.8216 144.834 48.497 144.018C49.2248 143.099 49.2248 143.099 49.8702 141.502C50.5556 140.071 50.9593 139.475 52.0502 138.428C53.263 137.259 53.8755 136.167 54.5265 134.599C55.3225 132.991 56.4528 131.62 57.5232 130.186C59.7496 127.137 61.6075 124.192 62.8337 120.614C63.7194 118.987 64.6894 117.736 66.2141 116.648C68.1111 116.167 68.9423 116.523 70.6704 117.429C71.135 117.904 71.5823 118.397 72.0154 118.901C73.8003 120.916 75.9729 121.885 78.3514 123.079C81.4698 124.718 84.3905 126.694 86.9823 129.084C89.1858 131.062 91.7845 132.445 94.3267 133.937C96.1283 134.997 97.8535 136.151 99.5772 137.333C100.752 138.096 101.96 138.758 103.192 139.426C104.825 140.334 106.118 141.256 107.439 142.576C109.247 144.36 111.23 145.434 113.474 146.598C115.764 147.817 117.922 149.235 120.104 150.635C120.583 150.923 121.061 151.21 121.554 151.507C122.054 152.022 122.54 152.55 123.015 153.087C124.355 154.519 125.547 155.209 127.331 156.042C128.032 156.579 128.724 157.13 129.407 157.689C130.538 158.604 131.334 159.238 132.707 159.729C134.44 160.35 135.633 161.467 137.025 162.652C138.18 163.486 139.24 163.853 140.583 164.311C143.243 165.833 145.63 167.734 148.008 169.657C150.059 171.31 152.106 172.574 154.488 173.694C158.448 175.699 161.856 178.571 165.173 181.483C166.131 182.402 166.131 182.402 167.262 182.322C169.715 181.415 170.743 180.499 172.01 178.229C172.303 177.713 172.596 177.197 172.897 176.666C173.619 175.306 174.301 173.936 174.969 172.548C175.847 170.75 176.805 169.559 178.252 168.2C179.297 167.061 179.898 165.743 180.579 164.365C181.086 163.376 181.642 162.47 182.257 161.545C183.257 160.032 184.104 158.475 184.945 156.868C186.255 154.427 187.805 152.378 189.556 150.24C190.419 149.09 191.02 148.005 191.623 146.704C192.689 144.434 194.114 142.631 195.698 140.696C197.337 138.661 198.551 136.534 199.754 134.224C201.161 131.596 202.774 129.078 204.8 126.884C205.904 125.739 205.904 125.739 206.458 124.466C207.351 122.644 208.407 120.976 209.507 119.274C209.707 118.958 209.908 118.643 210.114 118.318C211.305 116.465 212.573 114.722 213.949 113.003C214.916 111.765 215.77 110.474 216.631 109.159C216.96 108.661 217.289 108.163 217.628 107.65C218.507 106.275 218.507 106.275 218.924 104.906C219.467 103.466 220.194 102.706 221.271 101.613C223.831 98.8715 226.096 95.9032 227.288 92.3138C227.869 90.8189 228.291 90.3956 229.465 89.3707C231.198 87.8428 231.456 86.5081 231.979 84.2574C232.518 83.6028 233.062 82.9491 233.657 82.3446C234.827 81.0484 235.718 79.5622 236.668 78.1015C237.386 77.0302 237.386 77.0302 238.478 75.703C239.405 74.5764 239.405 74.5764 239.812 73.1095C240.487 71.3269 241.398 69.9226 242.522 68.4064C243.802 66.6337 245.031 64.8758 246.118 62.9758C247.384 60.797 248.921 58.8734 250.505 56.9183C251.283 56.038 251.283 56.038 251.509 55.3022C249.87 51.8341 246.437 50.3241 243.192 48.5533C240.676 47.1794 238.691 45.7507 236.647 43.7418C235.268 42.4776 233.769 41.8589 231.993 41.3416C230.274 40.6307 228.95 39.5907 227.533 38.4135C227.132 38.0992 227.132 38.0992 226.723 37.7786C225.008 36.365 224.185 35.2873 223.873 33.072C224.32 31.8225 224.32 31.8225 225.425 31.2393Z" fill="#C8AFE7"/>
<path d="M201.084 140.835C201.549 141.531 201.549 141.531 202.023 142.242C203.704 142.36 203.704 142.36 205.308 142.242C205.462 141.778 205.617 141.313 205.777 140.835C207.922 141.092 209.847 141.5 211.877 142.242C211.877 142.707 211.877 143.171 211.877 143.65C212.342 143.34 212.806 143.031 213.285 142.712C220.589 146.649 220.589 146.649 221.672 150.131C221.692 150.47 221.711 150.809 221.731 151.158C221.576 151.313 221.421 151.468 221.262 151.627C221.62 151.869 221.978 152.111 222.347 152.36C223.897 153.766 224.305 154.845 225.016 156.789C223.938 157.328 223.103 157.402 221.907 157.522C221.524 157.561 221.14 157.601 220.745 157.641C220.451 157.67 220.157 157.698 219.854 157.727C220.009 157.727 220.164 157.727 220.323 157.727C222.2 157.727 224.077 157.727 225.954 157.727C227.245 160.321 228.081 162.708 228.493 165.582C228.711 166.692 228.711 166.692 229.496 167.609C230.51 168.964 230.272 170.165 230.177 171.805C230.487 171.805 230.797 171.805 231.116 171.805C232.47 174.813 233.669 177.644 234.095 180.933C234.378 182.038 234.733 182.813 235.262 183.812C236.486 186.174 237.204 188.644 237.949 191.19C238.086 191.645 238.222 192.099 238.363 192.568C240.82 200.81 240.82 200.81 241.41 204.27C241.768 206.165 242.395 207.632 243.314 209.315C243.843 210.4 244.165 211.466 244.489 212.629C245.004 214.449 245.664 216.024 246.55 217.69C247.433 219.454 248.142 221.292 248.878 223.122C249.404 224.431 249.404 224.431 250.355 225.767C250.583 226.696 250.811 227.625 251.029 228.555C251.51 230.316 252.292 231.829 253.434 233.246C254.355 234.567 254.63 235.955 255.047 237.499C256.829 237.248 258.607 236.979 260.385 236.707C260.883 236.637 261.381 236.567 261.894 236.495C265.788 235.886 268.846 234.623 272.175 232.542C273.314 231.887 274.407 231.451 275.635 230.988C277.507 230.264 278.966 229.41 280.546 228.189C281.367 227.615 282.156 227.252 283.085 226.882C284.596 226.376 284.596 226.376 285.313 225.416C286.017 224.829 286.017 224.829 287.748 224.976C288.517 225.135 288.517 225.135 289.302 225.298C289.738 227.331 289.738 228.896 289.302 230.929C289.796 230.687 290.289 230.445 290.798 230.196C292.35 229.53 293.302 229.385 294.933 229.991C295.243 230.3 295.552 230.61 295.871 230.929C295.725 232.249 295.725 232.249 295.402 233.745C295.315 234.19 295.228 234.635 295.138 235.094C295.071 235.423 295.003 235.752 294.933 236.091C296.705 236.231 296.705 236.231 297.748 235.622C298.687 235.603 299.626 235.601 300.564 235.622C300.886 236.677 300.886 236.677 301.033 237.968C300.359 238.994 300.359 238.994 299.625 239.845C299.625 240.154 299.625 240.464 299.625 240.783C299.945 240.715 300.264 240.648 300.593 240.578C302.152 240.28 303.675 239.994 305.256 239.845C306.195 240.783 306.195 240.783 306.299 241.65C306.058 244.986 304.621 246.788 302.441 249.23C302.172 249.554 301.903 249.879 301.625 250.214C299.038 253.301 295.855 256.744 292.059 258.263C290.05 259.075 288.405 260.339 286.652 261.595C284.267 263.266 282.332 263.925 279.448 264.245C278.82 264.39 278.192 264.541 277.571 264.715C277.881 265.489 278.19 266.263 278.509 267.061C278.159 267.152 277.808 267.242 277.446 267.336C276.984 267.458 276.522 267.58 276.046 267.706C275.36 267.886 275.36 267.886 274.66 268.069C273.381 268.417 273.381 268.417 272.391 268.954C271.291 269.495 270.271 269.692 269.066 269.906C267.399 270.197 267.399 270.197 265.84 270.815C261.219 271.707 256.585 271.971 251.893 272.102C250.794 272.135 249.696 272.18 248.598 272.225C244.261 272.374 240.482 272.024 236.278 270.815C235.618 270.662 234.958 270.513 234.298 270.365C232.155 269.776 230.127 269.001 228.066 268.175C227.487 267.947 227.487 267.948 226.896 267.714C225.956 267.343 225.016 266.967 224.077 266.592C225.055 267.033 226.035 267.47 227.017 267.9C227.868 268.277 228.714 268.666 229.554 269.066C235.607 271.825 241.884 272.492 248.478 272.222C249.423 272.191 250.368 272.16 251.314 272.129C260.215 272.14 260.215 272.14 268.655 269.876C269.671 269.61 270.689 269.399 271.718 269.193C273.464 268.809 275.167 268.28 276.876 267.759C278.515 267.437 279.402 267.697 280.826 268.533C285.089 271.738 289.446 276.105 291.307 281.191C291.668 282.225 291.668 282.225 292.645 283.572C293.569 284.958 293.975 286.12 294.464 287.708C294.785 288.451 295.108 289.194 295.432 289.936C296.283 292.018 296.604 293.901 296.727 296.139C296.754 297.124 296.754 297.124 297.279 298.031C297.389 301.097 297.389 301.097 296.81 302.254C296.683 303.142 296.568 304.032 296.458 304.923C295.57 310.787 293.713 315.745 290.241 320.554C289.986 320.923 289.732 321.292 289.471 321.673C288.259 323.379 287.449 324.338 285.548 325.247C285.219 325.864 284.907 326.491 284.61 327.124C283.31 328.692 282.416 329.245 280.386 329.47C280.976 331.237 281.741 331.626 283.202 332.755C287.953 337.242 292.269 342.295 295.595 347.919C296.317 349.139 297.055 350.35 297.798 351.559C298.28 352.349 298.762 353.139 299.244 353.929C299.488 354.324 299.732 354.719 299.984 355.126C301.232 357.183 302.295 359.163 303.07 361.443C303.412 362.456 303.412 362.456 304.136 363.917C304.928 365.965 305.153 367.857 305.344 370.03C305.402 370.612 305.402 370.612 305.461 371.206C305.554 372.153 305.64 373.101 305.726 374.048C306.139 374.117 306.552 374.186 306.977 374.257C311.989 375.225 311.989 375.225 313.409 376.776C314.172 378.271 314.172 378.271 314.231 379.738C313.414 381.825 311.959 382.684 309.962 383.611C309.483 383.794 309.005 383.977 308.512 384.166C306.567 384.898 306.567 384.899 304.841 386.016C303.748 386.79 302.96 387.023 301.655 387.286C301.018 387.42 301.018 387.42 300.369 387.557C299.92 387.648 299.472 387.739 299.01 387.832C292.1 389.296 292.1 389.296 285.548 391.879C284.512 391.913 283.476 391.919 282.439 391.909C281.882 391.904 281.324 391.9 280.749 391.896C280.32 391.89 279.89 391.885 279.448 391.879C278.212 390.045 277.481 388.703 277.336 386.483C276.636 376.374 271.644 364.925 264.344 357.889C261.435 355.433 258.181 353.51 254.914 351.576C254.109 351.055 254.109 351.055 252.859 349.952C251.826 349.051 251.826 349.051 250.591 349.255C250.204 349.385 249.816 349.514 249.416 349.648C248.828 349.798 248.828 349.798 248.227 349.952C247.835 350.064 247.444 350.177 247.041 350.293C246.452 350.458 246.452 350.458 245.851 350.626C244.696 351.003 244.696 351.003 243.775 351.79C242.684 352.581 242.037 352.657 240.706 352.727C239.072 352.818 238.651 352.914 237.216 353.871C231.174 355.218 224.959 355.324 218.798 355.366C218.015 355.376 218.015 355.376 217.215 355.385C213.665 355.389 210.549 354.992 207.185 353.871C206.354 353.823 205.523 353.785 204.692 353.753C201.744 353.532 199.249 352.7 196.502 351.641C195.304 351.18 194.133 350.793 192.902 350.439C184.143 347.498 174.196 340.491 169.176 332.755C168.798 332.387 168.421 332.02 168.032 331.641C166.55 330.123 165.552 328.476 164.483 326.655C164.242 326.258 164 325.861 163.75 325.452C163.223 324.558 162.707 323.657 162.196 322.754C161.528 321.574 160.821 320.432 160.084 319.293C157.264 314.74 155.55 310.379 154.203 305.21C153.566 302.778 153.566 302.777 152.468 300.531C151.576 299.041 151.476 297.727 151.286 296.007C151.231 295.517 151.231 295.517 151.175 295.017C149.095 275.596 149.095 275.596 152.283 270.815C152.463 269.576 152.463 269.576 152.518 268.234C152.615 266.431 152.664 265.786 153.691 264.245C153.786 263.275 153.88 262.305 153.968 261.335C154.362 258.643 155.26 256.055 156.037 253.453C156.648 251.29 157.062 249.136 157.386 246.913C157.671 245.106 158.04 243.623 158.853 241.986C159.931 239.797 160.153 237.648 160.466 235.248C160.787 233.418 161.419 231.879 162.161 230.187C162.774 228.625 163.072 227.054 163.36 225.405C163.545 224.36 163.545 224.36 163.791 223.489C164.225 221.535 164.205 219.508 164.306 217.514C164.476 215.98 164.846 214.98 165.422 213.567C165.735 212.209 165.948 210.839 166.155 209.461C166.216 209.055 166.277 208.649 166.34 208.231C167.005 203.444 167.118 198.645 167.253 193.82C167.319 191.856 167.439 189.896 167.563 187.935C168.297 181.805 168.297 181.805 167.299 176.028C167.334 169.993 167.754 163.132 171.638 158.308C172.463 157.255 173.018 156.228 173.604 155.029C174.83 152.761 176.433 151.608 178.561 150.219C179.374 149.654 180.185 149.087 180.995 148.518C181.557 148.132 181.557 148.132 182.13 147.738C182.91 147.18 183.67 146.593 184.412 145.985C187.606 143.491 191.299 142.095 195.19 141.098C195.664 140.975 195.664 140.975 196.148 140.848C197.925 140.427 199.347 140.201 201.084 140.835Z" fill="#F2F4F3"/>
<path d="M434.12 442.221C434.12 482.018 434.12 521.814 434.12 562.817C388.285 562.817 342.449 562.817 295.225 562.817C295.529 560.079 295.868 557.42 296.368 554.722C296.815 552.282 297.213 549.849 297.541 547.39C298.1 543.714 299.292 540.473 301.061 537.214C302.158 535.108 302.74 533.018 303.319 530.732C304.486 526.189 306.346 522.062 308.355 517.836C308.958 516.568 309.542 515.293 310.123 514.015C310.393 513.426 310.393 513.426 310.669 512.826C311.017 512.038 311.346 511.241 311.659 510.439C314.468 503.257 317.894 496.512 323.848 491.492C324.135 491.246 324.421 490.999 324.715 490.746C325.358 490.205 326.011 489.674 326.664 489.145C327.013 488.792 327.362 488.439 327.722 488.075C329.12 486.69 330.585 485.427 332.089 484.16C339.837 477.613 339.837 477.613 346.251 469.82C348.848 466.581 352.227 464.568 355.757 462.457C356.239 462.168 356.72 461.879 357.217 461.581C358.604 460.753 359.995 459.932 361.388 459.114C361.722 458.916 362.057 458.719 362.401 458.515C373.509 452.019 387.324 447.351 399.866 444.567C400.19 444.489 400.515 444.411 400.85 444.331C403.934 443.638 406.832 443.525 409.984 443.587C411.016 443.596 412.049 443.606 413.082 443.615C414.688 443.636 416.294 443.658 417.9 443.684C419.465 443.706 421.03 443.72 422.595 443.733C423.306 443.749 423.306 443.749 424.032 443.764C426.808 443.784 429.114 443.445 431.74 442.525C432.713 442.221 432.713 442.221 434.12 442.221Z" fill="#C8AFE7"/>
<path d="M124.539 381.469C126.22 382.108 126.197 382.241 126.915 383.757C128.216 386.169 130.37 386.784 132.841 387.579C135.007 388.304 135.949 389.107 137.267 390.942C138.083 391.534 138.083 391.534 138.968 391.91C139.292 392.062 139.616 392.215 139.949 392.372C140.698 392.684 141.459 392.971 142.225 393.237C142.631 393.38 143.037 393.522 143.455 393.67C143.83 393.789 144.204 393.908 144.59 394.031C145.759 394.723 146.076 395.151 146.795 396.261C148.119 398.241 149.712 399.139 151.784 400.239C154.425 401.711 156.927 403.242 159.351 405.049C161.674 406.761 164.056 408.287 166.566 409.712C166.871 409.887 167.176 410.063 167.49 410.243C168.985 411.073 170.253 411.627 171.92 412.087C173.399 412.527 173.399 412.527 174.337 413.935C174.506 415.106 174.506 415.106 174.337 416.281C173.582 417.031 173.582 417.031 172.578 417.718C170.376 419.481 169.943 421.221 169.196 423.87C168.687 425.249 168.28 425.784 167.182 426.722C165.53 428.185 164.632 429.831 163.692 431.796C162.136 435.046 160.505 438.243 158.794 441.415C158.448 442.068 158.448 442.068 158.096 442.734C156.704 445.304 155.187 447.444 153.222 449.597C148.411 455.575 144.773 462.153 141.179 468.906C139.887 471.314 138.5 473.589 136.96 475.845C136.074 477.205 135.404 478.598 134.716 480.069C133.176 483.261 131.456 486.469 128.858 488.93C127.573 490.276 126.686 491.758 125.742 493.354C125.56 493.65 125.379 493.946 125.193 494.251C124.301 495.742 123.564 497.172 123.005 498.818C122.168 501.176 120.779 503.119 119.377 505.173C117.37 508.179 115.508 511.191 113.864 514.412C112.103 517.85 110.291 521.199 107.494 523.916C104.582 526.908 102.631 530.774 101.187 534.657C99.2403 539.448 96.7424 543.467 93.1585 547.2C91.3402 549.236 90.249 551.024 89.4632 553.652C88.4383 556.913 87.1881 559.795 84.7121 562.216C82.4432 563.005 80.2394 562.932 77.8677 562.855C77.1784 562.853 76.489 562.854 75.7996 562.857C73.9366 562.859 72.0757 562.826 70.2132 562.787C68.2637 562.751 66.3142 562.748 64.3645 562.741C60.6765 562.724 56.9894 562.678 53.3018 562.621C49.1021 562.558 44.9022 562.527 40.7021 562.499C32.0658 562.44 23.4304 562.341 14.7949 562.216C15.4032 560.286 15.9554 558.963 17.2878 557.435C18.5076 555.933 19.3604 554.558 20.1032 552.772C21.3559 549.815 23.1135 547.295 24.9203 544.658C25.8573 543.288 26.7211 541.892 27.5525 540.455C28.4265 538.955 29.3703 537.649 30.4852 536.319C32.7276 533.531 34.0069 530.271 35.4416 527.022C36.6578 524.375 38.1141 521.959 39.6996 519.515C40.6626 518.014 41.5865 516.494 42.5096 514.969C43.5371 513.287 44.5714 511.675 45.7943 510.13C47.3557 508.129 48.446 505.912 49.6179 503.668C50.3811 502.29 51.2005 501.047 52.129 499.777C53.6411 497.695 54.755 495.527 55.8683 493.211C56.7203 491.503 57.7019 489.899 58.7039 488.275C59.3672 487.147 59.93 486.004 60.4874 484.82C61.5873 482.564 62.9857 480.647 64.4907 478.645C65.4958 477.251 66.3813 475.825 67.2621 474.35C68.659 472.036 70.1611 469.858 71.7786 467.693C74.8454 463.575 77.7841 459.412 79.9903 454.759C81.211 452.202 82.7481 450.03 84.4225 447.761C86.3784 445.084 87.818 442.305 89.0471 439.226C90.0888 436.792 91.463 434.541 92.8065 432.265C93.1921 431.596 93.1921 431.596 93.5855 430.913C95.0431 428.436 96.5848 426.317 98.5234 424.202C99.6781 422.817 100.375 421.29 101.106 419.654C102.455 416.795 103.991 414.319 105.914 411.798C107.704 409.388 108.975 406.855 110.022 404.052C110.759 402.15 111.641 400.721 112.911 399.137C114.148 397.537 115.276 395.868 116.415 394.197C116.846 393.566 117.277 392.935 117.708 392.304C117.915 391.999 118.122 391.693 118.336 391.379C118.758 390.773 119.192 390.176 119.638 389.587C120.814 388.032 121.585 386.934 121.606 384.959C121.628 383.699 121.638 383.153 122.413 382.142C123.19 381.557 123.19 381.557 124.539 381.469Z" fill="#C8AFE7"/>
<path d="M423.328 489.614C426.889 489.768 430.451 489.923 434.12 490.083C434.12 514.085 434.12 538.086 434.12 562.816C404.544 562.816 374.968 562.816 344.495 562.816C344.495 554.088 344.495 554.088 346.59 549.618C348.236 546.012 349.082 543.09 349.367 539.152C350.021 535.372 351.803 533.268 354.701 530.907C357.484 528.498 359.064 526.185 360.558 522.847C361.935 519.797 363.807 517.408 366.08 514.953C366.349 514.657 366.619 514.361 366.896 514.056C369.228 511.613 371.899 509.557 374.527 507.445C375.368 506.751 376.208 506.057 377.049 505.363C378.973 503.794 380.904 502.235 382.856 500.7C383.337 500.318 383.819 499.937 384.315 499.545C386.955 497.726 389.634 496.931 392.739 496.3C395.68 495.657 398.426 494.791 401.215 493.661C415.283 488.005 415.283 488.005 423.328 489.614Z" fill="#DED0F1"/>
<path d="M428.667 107.988C428.9 108.22 428.9 108.22 429.137 108.457C429.81 108.508 430.485 108.545 431.16 108.575C438.408 109.256 444.893 114.156 449.783 119.25C450.853 120.595 451.746 121.983 452.599 123.473C452.915 124.003 452.915 124.003 453.239 124.544C457.488 131.864 459.22 140.869 457.086 149.164C455.35 154.55 453.189 160.723 448.795 164.475C447.833 165.298 447.09 166.188 446.293 167.171C441.592 172.507 434.066 175.028 427.1 175.507C425.117 175.588 423.143 175.595 421.16 175.559C420.647 175.558 420.135 175.557 419.607 175.555C412.15 175.231 405.476 170.491 400.044 165.705C399.516 164.737 399.516 164.737 399.105 163.828C398.834 163.567 398.563 163.305 398.284 163.036C392.76 157.359 390.71 149.511 390.6 141.803C390.615 141.011 390.634 140.219 390.659 139.427C390.662 138.852 390.662 138.852 390.666 138.265C390.963 131.248 394.234 124.604 398.636 119.25C399.253 118.921 399.878 118.604 400.513 118.311C400.831 117.689 401.144 117.063 401.451 116.434C404.292 113.589 407.294 111.703 411.056 110.321C412.331 109.882 412.331 109.882 413.652 108.927C418.385 107.885 423.875 106.923 428.667 107.988Z" fill="#C8AFE7"/>
<path d="M290.241 279.262C294.301 279.364 297.903 279.539 301.699 281.121C302.969 281.632 304.223 281.978 305.55 282.312C308.548 283.102 311.263 284.245 313.908 285.861C315.219 286.644 316.485 287.068 317.955 287.474C319.972 288.041 321.382 288.811 323.088 290.055C323.848 290.498 324.611 290.938 325.375 291.375C327.323 292.53 328.94 293.825 330.601 295.356C331.551 296.17 332.52 296.795 333.587 297.445C335.909 298.933 337.573 300.872 339.376 302.939C340.221 303.878 341.01 304.656 342.004 305.423C343.567 306.731 344.511 308.048 345.611 309.763C345.611 310.073 345.611 310.382 345.611 310.701C346.115 310.674 346.619 310.647 347.138 310.619C353.219 310.389 353.219 310.389 355.202 311.816C356.569 313.216 356.83 313.538 357.016 315.456C356.841 317.678 356.163 319.068 355.055 320.966C354.866 321.295 354.677 321.624 354.482 321.963C352.744 324.855 350.655 326.972 347.958 329.002C347.422 329.412 347.422 329.412 346.876 329.83C346.256 330.299 345.63 330.761 344.997 331.213C344.185 331.802 344.185 331.802 343.487 332.547C342.589 333.428 341.539 333.931 340.444 334.534C339.443 335.143 338.572 335.829 337.664 336.569C335.65 338.164 333.547 339.582 331.387 340.968C331.062 341.182 330.736 341.397 330.401 341.619C330.089 341.815 329.778 342.012 329.457 342.214C329.179 342.392 328.902 342.57 328.615 342.754C327.518 343.181 326.983 343.048 325.903 342.61C324.998 341.448 324.998 341.448 324.085 339.971C322.829 338.001 321.565 336.223 320.001 334.495C319.233 333.573 318.621 332.6 317.985 331.583C316.761 329.693 315.379 328.34 313.644 326.918C312.764 326.187 312.764 326.187 311.562 324.925C310.476 323.895 309.421 323.209 308.103 322.511C307.133 321.963 307.133 321.963 305.973 321.166C303.226 319.281 300.86 318.245 297.6 317.562C296.063 317.207 294.881 316.654 293.525 315.863C293.992 313.64 294.498 311.485 295.197 309.323C295.832 307.284 296.101 305.336 296.242 303.208C296.341 302.255 296.341 302.255 296.81 301.317C296.953 299.133 296.953 299.133 296.341 297.093C296.204 296.049 296.079 295.002 295.96 293.955C295.585 291.197 295.027 289.539 293.525 287.239C293.371 286.678 293.216 286.117 293.056 285.538C292.549 283.828 291.823 282.973 290.71 281.608C290.528 280.832 290.368 280.05 290.241 279.262Z" fill="#915FD0"/>
<path d="M279.976 189.49C280.404 189.483 280.833 189.475 281.274 189.467C284.142 189.465 286.686 189.81 289.302 191.045C289.767 191.509 289.767 191.509 290.241 191.983C290.065 193.684 290.065 193.684 289.771 195.268C288.533 195.732 287.294 196.197 286.018 196.676C286.018 196.985 286.018 197.295 286.018 197.614C286.55 197.759 287.082 197.904 287.631 198.054C289.302 198.552 289.302 198.552 289.771 199.022C289.947 200.136 289.947 200.136 289.771 201.368C288.598 202.218 288.598 202.218 287.425 202.776C287.44 203.909 287.44 203.909 287.894 205.122C289.255 205.939 289.255 205.939 290.71 206.53C291.02 206.839 291.329 207.149 291.648 207.468C291.56 208.641 291.56 208.641 291.179 209.814C289.81 210.727 289.009 210.965 287.425 211.222C287.448 212.104 287.448 212.104 287.894 213.099C288.591 213.564 288.591 213.564 289.302 214.037C290.71 214.976 290.71 214.976 291.209 215.944C291.179 216.853 291.179 216.853 290.616 217.573C289.584 218.413 288.779 218.61 287.484 218.906C284.383 219.688 281.476 220.833 278.51 222.015C277.851 222.255 277.851 222.255 277.179 222.5C275.076 223.28 273.498 224.023 271.828 225.569C269.871 227.153 267.555 228.282 265.371 229.523C261.939 231.504 258.665 234.185 256.455 237.5C255.991 237.5 255.526 237.5 255.047 237.5C254.894 237.183 254.741 236.866 254.584 236.539C254.276 235.911 254.276 235.911 253.962 235.271C253.761 234.857 253.56 234.443 253.352 234.017C252.747 232.892 252.072 231.939 251.294 230.93C250.652 229.571 250.299 228.328 249.974 226.854C249.497 224.853 248.626 223.164 247.679 221.347C246.275 218.557 245.237 215.596 244.158 212.668C243.564 211.108 242.915 209.57 242.27 208.031C241.909 206.999 241.909 206.999 241.909 205.591C242.192 205.444 242.475 205.296 242.767 205.144C243.142 204.943 243.517 204.742 243.903 204.535C244.273 204.339 244.643 204.143 245.025 203.941C246.151 203.297 246.151 203.297 246.953 202.372C248.486 200.914 250.261 200.021 252.115 199.022C252.478 198.822 252.841 198.622 253.215 198.417C255.219 197.321 257.242 196.285 259.296 195.286C260.252 194.776 261.113 194.187 262.004 193.572C264.212 192.162 266.478 191.814 269.037 191.426C269.91 191.285 270.784 191.142 271.656 190.995C272.228 190.907 272.228 190.907 272.812 190.817C278.353 189.485 278.353 189.485 279.976 189.49Z" fill="#915FD0"/>
<path d="M331.094 152.595C331.564 152.649 332.034 152.703 332.518 152.758C333.851 153.029 334.973 153.453 336.226 153.974C336.965 154.156 337.709 154.323 338.455 154.472C340.399 154.862 340.399 154.862 340.919 155.381C341.6 155.523 342.285 155.647 342.972 155.763C349.469 157.025 349.469 157.025 351.625 158.963C352.963 161.64 352.099 164.736 351.359 167.494C351.275 167.822 351.191 168.149 351.104 168.487C350.613 170.343 350.037 172.127 349.336 173.916C348.386 176.357 347.937 178.813 347.548 181.392C347.319 182.805 347.082 183.902 346.33 185.131C345.294 186.889 345.063 188.7 344.702 190.692C344.156 193.505 343.583 196.055 342.264 198.621C341.815 199.579 341.602 200.48 341.388 201.514C340.794 203.702 339.991 204.509 338.133 205.708C336.941 206.141 336.08 206.186 334.819 206.06C334.525 205.911 334.231 205.763 333.928 205.61C332.933 205.117 332.092 204.892 331.006 204.681C327.872 204.024 324.848 203.064 321.826 202.012C320.486 201.551 319.45 201.327 318.014 201.162C316.235 200.848 315.673 200.49 314.641 199.021C313.629 195.308 314.078 192.129 315.521 188.668C316.694 185.759 317.802 182.964 318.102 179.811C318.253 178.374 318.606 177.379 319.304 176.116C320.35 174.206 320.676 172.359 320.98 170.216C321.222 168.93 321.65 167.849 322.149 166.643C322.275 166.053 322.401 165.462 322.53 164.854C322.992 162.73 323.542 160.638 324.143 158.549C324.228 158.227 324.312 157.905 324.4 157.574C325.4 154.206 327.325 152.094 331.094 152.595Z" fill="#915FD0"/>
<path d="M325.903 161.951C326.773 162.165 327.643 162.38 328.513 162.596C328.998 162.716 329.482 162.835 329.981 162.959C333.199 163.787 336.363 164.771 339.529 165.772C341.034 166.246 342.537 166.702 344.057 167.127C345.401 167.52 346.669 167.974 347.957 168.52C347.821 168.981 347.821 168.981 347.682 169.451C346.874 172.286 346.287 175.064 345.904 177.987C345.611 179.313 345.611 179.313 344.922 180.673C344.114 182.31 343.813 183.764 343.5 185.559C342.793 189.377 341.828 192.774 339.98 196.205C337.437 195.731 335.166 195.066 332.766 194.094C330.379 193.14 328.136 192.545 325.593 192.197C324.452 191.974 323.644 191.578 322.618 191.044C321.959 190.849 321.294 190.672 320.624 190.516C319.753 190.313 319.753 190.313 318.864 190.105C318.186 187.938 318.704 186.337 319.422 184.269C319.642 183.605 319.861 182.94 320.08 182.275C320.191 181.94 320.302 181.605 320.417 181.259C321.093 179.159 321.659 177.028 322.244 174.901C322.618 173.682 322.618 173.682 323.087 173.213C323.161 172.539 323.217 171.864 323.263 171.189C323.444 169.336 323.854 168.593 324.964 167.112C325.158 166.02 325.258 164.945 325.335 163.839C325.434 162.889 325.434 162.889 325.903 161.951Z" fill="#F0F4F3"/>
<path d="M211.877 157.729C212.109 158.194 212.109 158.194 212.346 158.668C212.192 158.977 212.037 159.287 211.877 159.606C211.574 163.296 211.998 166.468 213.285 169.929C213.053 170.162 213.053 170.162 212.816 170.399C212.753 171.444 212.707 172.49 212.669 173.537C212.496 176.169 212.283 177.769 210.469 179.783C210.131 180.248 209.792 180.713 209.443 181.191C207.482 183.431 205.403 185.171 202.403 185.656C199.27 185.758 196.572 185.498 194.046 183.537C193.159 182.646 192.46 181.735 191.7 180.722C191.361 180.403 191.022 180.083 190.673 179.754C189.665 178.677 189.251 177.931 188.884 176.499C189.002 175.003 189.002 175.003 189.354 173.214C189.401 172.849 189.449 172.485 189.498 172.109C190.046 168.466 191.538 165.841 194.16 163.265C196.887 161.487 201.416 161.591 204.575 162.245C207.275 163.288 209.884 164.542 211.408 167.114C211.176 166.417 211.176 166.417 210.939 165.706C210.882 164.612 210.856 163.517 210.851 162.421C210.844 161.841 210.837 161.26 210.831 160.662C210.939 159.137 210.939 159.137 211.877 157.729Z" fill="#E3E7E5"/>
<path d="M220.892 151.885C222.2 152.098 222.2 152.098 223.432 153.124C224.023 154.333 224.579 155.517 225.016 156.79C223.938 157.329 223.103 157.404 221.907 157.523C221.524 157.563 221.14 157.602 220.745 157.642C220.451 157.671 220.157 157.699 219.854 157.729C220.009 157.729 220.164 157.729 220.323 157.729C222.2 157.729 224.077 157.729 225.954 157.729C227.245 160.322 228.081 162.709 228.493 165.583C228.817 166.823 229.414 167.505 230.178 168.521C230.499 169.916 230.364 170.806 230.178 172.275C228.064 174.321 224.372 174.645 221.526 174.827C218.691 174.767 216.101 173.407 213.917 171.652C211.561 168.729 211.119 164.456 211.256 160.837C211.454 159.228 211.918 158.137 212.816 156.79C213.116 156.306 213.416 155.822 213.725 155.324C215.913 152.273 217.152 151.758 220.892 151.885Z" fill="#EAEDEC"/>
<path d="M223.021 150.953C226.153 151.002 229.311 152.779 231.6 154.826C232.293 155.613 232.9 156.373 233.462 157.258C233.643 157.517 233.824 157.776 234.01 158.043C234.622 159.755 234.394 161.39 234.254 163.182C234.231 163.546 234.209 163.911 234.185 164.286C234.001 166.973 234.001 166.973 233.462 168.051C233.152 168.051 232.843 168.051 232.524 168.051C232.398 168.409 232.272 168.767 232.142 169.136C231.603 170.356 231.131 170.914 230.177 171.805C230.121 171.511 230.064 171.217 230.005 170.914C229.926 170.53 229.848 170.147 229.767 169.752C229.691 169.371 229.614 168.99 229.536 168.597C229.301 167.494 229.301 167.494 228.3 166.643C228.053 165.657 228.053 165.657 227.86 164.473C227.456 162.246 226.807 160.29 225.954 158.197C225.564 158.197 225.174 158.197 224.772 158.197C222.82 158.197 220.868 158.197 218.916 158.197C220.041 157.072 220.479 157.097 222.024 156.965C222.6 156.912 222.6 156.912 223.186 156.858C223.48 156.836 223.774 156.813 224.077 156.789C224.077 154.783 223.55 154.044 222.2 152.566C220.636 152.183 219.115 152.103 217.508 152.096C217.508 151.942 217.508 151.787 217.508 151.627C219.342 151.365 221.181 151.167 223.021 150.953Z" fill="#DED0F1"/>
<path d="M251.763 310.701C252.545 310.855 253.327 311.012 254.109 311.17C254.905 311.331 254.905 311.331 255.716 311.494C261.224 312.729 266.299 314.712 270.888 318.056C272.343 319.198 272.343 319.198 273.964 319.734C276.1 320.561 277.582 322.192 279.201 323.766C280.46 324.841 281.698 325.505 283.202 326.186C283.202 326.495 283.202 326.805 283.202 327.124C279.958 325.919 277.826 324.277 275.513 321.71C274.647 320.926 273.873 320.577 272.791 320.144C271.334 319.527 270.012 318.864 268.685 318.003C265.005 315.655 261.515 314.175 257.257 313.249C255.251 312.803 253.563 312.16 251.763 311.17C251.763 311.015 251.763 310.86 251.763 310.701Z" fill="#DED0F1"/>
<path d="M327.516 195.18C329.188 195.268 329.188 195.268 330.126 196.207C330.283 197.679 330.374 198.631 329.569 199.902C328.411 200.621 327.712 200.631 326.372 200.43C325.492 199.931 325.492 199.931 324.964 199.022C325.221 195.305 325.221 195.305 327.516 195.18Z" fill="#DED0F1"/>
<path d="M211.877 157.729C212.032 158.039 212.187 158.348 212.346 158.668C212.192 158.977 212.037 159.287 211.877 159.606C211.574 163.296 211.999 166.468 213.285 169.929C213.13 170.084 212.975 170.239 212.816 170.399C212.682 172.083 212.605 173.768 212.524 175.456C212.346 176.968 212.346 176.968 211.408 177.906C211.416 177.025 211.416 177.025 211.424 176.125C211.429 175.35 211.433 174.575 211.437 173.801C211.441 173.413 211.445 173.026 211.449 172.627C211.451 172.065 211.451 172.065 211.454 171.491C211.456 171.147 211.459 170.803 211.461 170.449C211.44 169.442 211.44 169.442 211.141 168.424C211.074 168.147 211.008 167.869 210.939 167.583C211.094 167.428 211.248 167.273 211.408 167.114C211.253 166.649 211.098 166.185 210.939 165.706C210.882 164.612 210.856 163.517 210.851 162.421C210.844 161.841 210.837 161.26 210.831 160.662C210.939 159.137 210.939 159.137 211.877 157.729Z" fill="#6D837C"/>
<path d="M217.508 152.096C216.905 153.441 216.301 154.431 215.162 155.381C214.852 155.381 214.542 155.381 214.223 155.381C214.068 155.691 213.913 156 213.754 156.319C213.97 154.373 215.404 152.096 217.508 152.096Z" fill="#98A8A2"/>
<path d="M189.309 173.781C189.081 174.042 188.853 174.303 188.619 174.572C188.274 174.546 187.928 174.521 187.573 174.494C184.045 175.614 181.272 177.212 178.559 179.717C178.357 179.632 178.155 179.548 177.947 179.461C176.338 179.976 174.751 180.545 173.159 181.112C171.693 181.521 171.693 181.521 170.469 181.009C171.287 180.682 171.287 180.682 172.123 180.348C172.841 180.058 173.559 179.768 174.277 179.477C174.637 179.334 174.996 179.191 175.367 179.043C175.888 178.831 175.888 178.831 176.42 178.615C176.739 178.487 177.058 178.359 177.387 178.227C178.309 177.824 178.309 177.824 179.137 177.162C179.369 176.994 179.6 176.827 179.838 176.655C180.04 176.739 180.242 176.824 180.45 176.911C180.821 176.591 181.192 176.272 181.574 175.942C182.564 175.475 183.568 175.035 184.579 174.613C185.113 174.387 185.648 174.16 186.199 173.927C187.65 173.448 187.65 173.448 189.309 173.781Z" fill="#6D837C"/>
<path d="M197.569 196.412C199.374 198.216 201.179 200.021 202.984 201.826C204.178 202.161 204.178 202.161 205.506 202.38C205.954 202.463 206.402 202.545 206.864 202.63C207.207 202.69 207.551 202.749 207.906 202.811C207.906 202.973 207.906 203.136 207.906 203.303C205.704 203.587 203.784 203.788 201.832 202.605C200.21 201.188 198.752 199.696 197.569 197.888C197.569 197.401 197.569 196.914 197.569 196.412Z" fill="#284A40"/>
<path d="M199.099 167.701C201.544 167.856 203.259 168.83 205.22 170.226C205.839 171.508 205.839 171.508 206.044 172.545C205.738 172.654 205.432 172.763 205.117 172.875C204.692 172.315 204.692 172.315 204.258 171.744C203.054 170.194 203.054 170.194 201.613 168.896C199.756 168.754 198.014 169.487 196.347 170.246C195.143 171.669 195.143 171.669 194.224 173.091C193.918 173.2 193.612 173.308 193.296 173.421C193.578 174.699 193.86 175.978 194.151 177.296C193.845 177.405 193.539 177.514 193.223 177.626C192.075 174.393 192.075 174.393 192.891 172.608C194.687 169.926 195.909 168.597 199.099 167.701Z" fill="#34534B"/>
<path d="M222.073 159.627C224.518 159.782 226.233 160.757 228.194 162.153C228.813 163.435 228.813 163.435 229.018 164.472C228.712 164.581 228.406 164.689 228.09 164.802C227.665 164.242 227.665 164.242 227.231 163.67C226.028 162.121 226.028 162.121 224.587 160.823C222.73 160.68 220.988 161.413 219.321 162.173C218.117 163.596 218.117 163.596 217.197 165.018C216.891 165.126 216.585 165.235 216.27 165.347C216.552 166.626 216.834 167.905 217.125 169.223C216.819 169.332 216.512 169.44 216.197 169.553C215.048 166.32 215.048 166.32 215.865 164.534C217.661 161.852 218.882 160.524 222.073 159.627Z" fill="#34534B"/>
<path d="M203.629 141.107C203.415 143.679 203.415 143.679 202.367 144.895C202.282 145.149 202.197 145.402 202.11 145.664C201.569 146.832 200.919 147.36 199.842 148.051C198.691 148.051 197.978 147.952 197.001 147.341C196.685 146.789 196.685 146.789 196.725 146.039C197.275 144.389 197.973 143.484 199.487 142.626C199.886 142.395 199.886 142.395 200.293 142.159C201.434 141.567 202.332 141.107 203.629 141.107Z" fill="#EFF1F0"/>
<path d="M196.922 127.495C197.143 127.498 197.363 127.5 197.589 127.503C198.13 127.511 198.67 127.522 199.211 127.534C199.211 127.638 199.211 127.742 199.211 127.85C198.838 127.84 198.838 127.84 198.457 127.83C195.126 127.893 192.766 129.066 190.323 131.319C189.004 132.763 187.95 134.411 186.901 136.057C186.693 136.369 186.485 136.682 186.27 137.004C185.405 139.503 185.009 142.685 186.004 145.179C186.429 145.934 186.429 145.934 186.903 146.588C187.058 146.844 187.058 146.844 187.217 147.104C187.113 147.313 187.009 147.521 186.901 147.736C186.59 147.343 186.281 146.948 185.974 146.552C185.802 146.332 185.63 146.113 185.453 145.886C184.199 143.983 184.533 141.401 184.692 139.213C185.228 136.947 186.492 135.076 187.848 133.216C188.097 132.854 188.097 132.854 188.35 132.485C189.698 130.61 191.243 129.357 193.214 128.165C193.403 128.042 193.592 127.919 193.787 127.792C194.818 127.406 195.838 127.468 196.922 127.495Z" fill="#1F403A"/>
<path d="M203.213 130.155C204.572 131.734 205.172 133.546 205.231 135.622C205.126 136.867 204.856 137.795 204.261 138.897C204.272 138.638 204.282 138.378 204.294 138.111C204.431 134.205 204.431 134.205 202.618 130.904C202.111 130.46 201.593 130.029 201.061 129.615C200.867 129.449 200.673 129.283 200.473 129.112C200.473 128.904 200.473 128.695 200.473 128.481C198.702 128.377 196.932 128.272 195.107 128.165C195.107 128.061 195.107 127.957 195.107 127.849C195.758 127.779 196.409 127.714 197.06 127.652C197.423 127.616 197.785 127.579 198.159 127.541C200.357 127.526 201.66 128.714 203.213 130.155Z" fill="#36514F"/>
<path d="M203.314 141.738C203.945 142.685 203.945 142.685 203.886 143.434C203.602 144.353 203.206 145.036 202.683 145.841C202.478 146.242 202.478 146.242 202.269 146.65C201.392 147.916 200.41 148.576 198.895 148.86C197.499 148.598 196.995 148.182 196.055 147.104C196.073 146.003 196.194 145.246 196.686 144.263C196.894 144.263 197.103 144.263 197.317 144.263C197.213 145.096 197.109 145.93 197.002 146.788C197.5 147.328 197.5 147.328 198.264 147.735C199.464 147.714 200.204 147.614 201.184 146.906C202.326 145.356 202.827 143.574 203.314 141.738Z" fill="#3A5950"/>
<path d="M204.576 137.635C204.681 137.635 204.785 137.635 204.892 137.635C204.892 138.573 204.892 139.51 204.892 140.476C206.038 140.476 207.184 140.476 208.364 140.476C208.364 140.58 208.364 140.684 208.364 140.792C206.489 140.948 206.489 140.948 204.576 141.107C204.368 141.628 204.16 142.149 203.945 142.686C203.841 142.686 203.737 142.686 203.63 142.686C203.63 142.165 203.63 141.644 203.63 141.107C201.433 141.955 199.482 142.793 197.633 144.264C197.424 144.16 197.216 144.056 197.001 143.948C197.746 143.133 198.54 142.597 199.487 142.035C199.886 141.795 199.886 141.795 200.293 141.55C201.656 140.806 202.697 140.387 204.261 140.476C204.365 139.539 204.469 138.601 204.576 137.635Z" fill="#2A4A44"/>
<path d="M185.323 137.635C185.658 138.227 185.658 138.227 185.954 138.898C185.85 139.106 185.746 139.315 185.639 139.529C185.411 142.159 185.335 144.358 186.902 146.588C187.006 146.759 187.11 146.929 187.217 147.105C187.113 147.313 187.009 147.521 186.901 147.736C186.59 147.343 186.281 146.948 185.974 146.552C185.802 146.333 185.63 146.113 185.453 145.887C184.555 144.524 184.641 143.208 184.633 141.601C184.626 140.986 184.626 140.986 184.619 140.359C184.687 139.291 184.859 138.588 185.323 137.635Z" fill="#304E4A"/>
<path d="M203.314 141.738C203.945 142.685 203.945 142.685 203.886 143.434C203.601 144.353 203.206 145.036 202.682 145.841C202.539 146.115 202.396 146.388 202.248 146.67C201.657 147.534 201.08 147.892 200.157 148.366C200.053 148.158 199.949 147.95 199.842 147.735C200.281 147.413 200.281 147.413 200.729 147.084C202.368 145.715 202.786 143.727 203.314 141.738Z" fill="#304F47"/>
<path d="M202.682 129.743C202.474 129.952 202.266 130.16 202.051 130.375C201.512 129.97 200.986 129.548 200.473 129.112C200.473 128.904 200.473 128.695 200.473 128.481C198.702 128.377 196.932 128.272 195.107 128.165C195.107 128.061 195.107 127.957 195.107 127.849C195.758 127.779 196.409 127.714 197.06 127.652C197.423 127.616 197.785 127.579 198.159 127.541C200.182 127.527 201.237 128.466 202.682 129.743Z" fill="#465E5F"/>
<path d="M208.364 140.477C210.125 141.148 211.319 142.261 212.151 143.949C212.044 144.66 212.044 144.66 211.836 145.212C211.654 144.932 211.471 144.652 211.283 144.363C210.351 142.971 209.45 141.744 208.048 140.792C208.152 140.688 208.257 140.584 208.364 140.477Z" fill="#294843"/>
<path d="M188.164 132.9C188.372 133.004 188.581 133.108 188.795 133.215C188.669 133.395 188.544 133.574 188.414 133.759C187.41 135.222 186.589 136.609 185.955 138.266C185.85 138.266 185.746 138.266 185.639 138.266C185.532 137.114 185.517 136.546 186.191 135.583C186.426 135.322 186.66 135.062 186.901 134.794C187.338 134.172 187.749 133.537 188.164 132.9Z" fill="#1F403A"/>
<path d="M190.689 129.744C190.897 129.744 191.106 129.744 191.32 129.744C190.794 130.988 189.986 131.887 189.111 132.9C188.798 132.796 188.486 132.692 188.164 132.585C188.57 132.109 188.978 131.636 189.387 131.164C189.728 130.769 189.728 130.769 190.075 130.365C190.278 130.16 190.48 129.955 190.689 129.744Z" fill="#314E4B"/>
</g>
<defs>
<clipPath id="clip0_2138_965">
<rect width="430" height="563" fill="white"/>
</clipPath>
</defs>
</svg>
