<svg id="list-cube" width="16" height="18" viewBox="0 0 16 18" fill="none" xmlns="http://www.w3.org/2000/svg">
<path d="M8.82792 4.24248L14.1422 4.46057H15L12.7114 8.66091L11.1985 10.5391L8.2971 16.7396L7.76132 17L6.15024 13.513L3.35074 7.83855L1.6949 5.74993L1 4.99171L6.64127 4L8.82792 4.24248Z" fill="#A8E6A5"/>
<path d="M15.1765 4.3536C15.1803 3.88356 14.6431 4.19226 14.2389 3.9547C13.8346 3.71714 13.7574 3.84799 13.3519 3.61043C12.9477 3.37287 13.1783 2.97778 12.7728 2.73895C12.3674 2.50139 12.3674 2.50266 11.9619 2.2651C11.5564 2.02754 11.5501 2.03898 11.1446 1.80142C10.7404 1.56386 10.5149 1.95005 10.1094 1.71249C9.70392 1.47493 9.85724 1.21323 9.45177 0.974404C9.0463 0.736844 8.89678 0.99219 8.49131 0.75463C8.08584 0.51707 8.27211 0.00256874 7.80201 2.79954e-05C7.33319 -0.00378312 7.43836 0.38241 7.03035 0.614888C6.62235 0.847367 6.50704 0.642837 6.09777 0.875315C5.6885 1.10779 5.68216 1.09509 5.27416 1.32757C4.86616 1.56005 4.95992 1.7252 4.55192 1.95767C4.14391 2.19015 4.02988 1.98943 3.62187 2.22191C3.21387 2.45439 3.24934 2.51664 2.84134 2.75039C2.43334 2.98286 2.48402 3.07179 2.07475 3.30554C1.66674 3.53802 1.77952 3.73747 1.37024 3.97121C0.96224 4.20369 0.3477 3.78828 0.343899 4.25959C0.340098 4.72963 0.737964 4.70295 1.14217 4.94051C1.54764 5.17807 1.55524 5.1641 1.96071 5.40166C2.36618 5.63922 2.50049 5.41055 2.9047 5.64811C3.31017 5.88567 3.27849 5.93902 3.68396 6.17658C4.08943 6.41414 4.06028 6.46496 4.46449 6.70252C4.86996 6.94008 4.93965 6.82066 5.34385 7.05822C5.74932 7.29578 5.65429 7.70484 6.05849 7.9424C6.46396 8.18123 6.34359 8.25872 6.74906 8.49628C7.15453 8.73511 7.30658 8.35782 7.71332 8.5941C7.71458 8.59537 7.63729 8.354 7.63856 8.35273C8.0453 8.11898 8.14793 8.29938 8.55593 8.0669C8.96394 7.83442 9.07924 8.03768 9.48725 7.8052C9.89525 7.57272 9.71026 7.24751 10.1183 7.01503C10.5263 6.78255 10.6935 7.07601 11.1003 6.84353C11.5083 6.61105 11.3524 6.33792 11.7604 6.10417C12.1684 5.87169 12.3243 6.14736 12.7323 5.91489C13.1403 5.68241 13.0529 5.52742 13.4609 5.29494C13.8689 5.06246 13.784 4.81601 14.2376 4.69533C14.7812 4.55432 15.1727 4.82491 15.1765 4.3536Z" fill="#DECFF1"/>
<path d="M7.92357 8.44425C7.69169 8.03519 7.40659 8.20034 7.00112 7.96151C6.59565 7.72395 6.59819 7.72014 6.19272 7.48258C5.78725 7.24502 5.78218 7.25391 5.37671 7.01635C4.97124 6.77879 4.95857 6.80166 4.5531 6.56283C4.14763 6.32527 4.20718 6.22364 3.80171 5.98608C3.39624 5.74852 3.30248 5.90985 2.89701 5.67229C2.49154 5.43473 2.54349 5.34581 2.13802 5.10825C1.73255 4.86942 1.71227 4.90499 1.3068 4.66616C0.901332 4.42733 0.794896 3.90648 0.385624 4.13895C-0.0223798 4.37143 0.550348 4.73095 0.547814 5.20099C0.54528 5.67102 0.578223 5.67102 0.575689 6.14233C0.573154 6.61237 0.480658 6.61237 0.478124 7.08241C0.475589 7.55244 0.565553 7.55372 0.563019 8.02375C0.560485 8.49379 0.423639 8.4938 0.421105 8.96383C0.418571 9.43514 0.57569 9.43514 0.573156 9.90645C0.570622 10.3765 0.557951 10.3765 0.555416 10.8478C0.552882 11.3191 0.223438 11.3166 0.220904 11.7879C0.21837 12.2592 0.0637836 12.3837 0.295662 12.7927C0.52754 13.2018 0.739145 13.0887 1.14335 13.3263C1.54755 13.5639 1.53741 13.5829 1.94162 13.8205C2.34582 14.058 2.54982 13.7099 2.95402 13.9488C3.35949 14.1863 3.27967 14.3235 3.68387 14.5611C4.08934 14.7987 4.04753 14.8698 4.45173 15.1074C4.85593 15.3449 4.77991 15.4758 5.18538 15.7133C5.59085 15.9509 5.67194 15.8111 6.07741 16.0487C6.48288 16.2863 6.58045 16.1186 6.98592 16.3574C7.39139 16.595 7.31663 17.3013 7.7259 17.0701C8.13391 16.8376 7.71957 16.5416 7.7221 16.0716C7.72463 15.6015 7.53837 15.6003 7.54217 15.1302C7.54597 14.6602 7.93117 14.6627 7.9337 14.1914C7.93624 13.7214 7.93624 13.7214 7.94004 13.2501C7.94258 12.78 7.57512 12.7775 7.57765 12.3062C7.58019 11.8361 7.56118 11.8349 7.56371 11.3648C7.56625 10.8948 7.77532 10.8961 7.77912 10.4248C7.78165 9.95345 7.76645 9.97632 7.88809 9.52153C8.03127 8.99178 8.15545 8.85331 7.92357 8.44425Z" fill="#915FD0"/>
<path d="M14.9902 4.52895C14.586 4.29012 14.6379 4.50354 14.2299 4.73602C13.8219 4.9685 13.9943 5.27212 13.5863 5.5046C13.1782 5.73708 13.0313 5.47792 12.6233 5.7104C12.2153 5.94287 12.3255 6.13597 11.9175 6.36845C11.5095 6.60093 11.4246 6.45102 11.0166 6.6835C10.6086 6.91598 10.6149 6.92741 10.2069 7.15989C9.79891 7.39237 9.91041 7.58928 9.50241 7.82176C9.09441 8.05423 8.9753 7.8459 8.56729 8.07837C8.15929 8.31085 8.15169 8.29815 7.74368 8.53063C7.74242 8.5319 7.63345 8.54079 7.63345 8.54206C7.62965 9.0121 7.50927 9.0121 7.50547 9.48213C7.50293 9.95217 7.65625 9.95344 7.65245 10.4235C7.64992 10.8935 7.33314 10.952 7.32934 11.422C7.32681 11.892 7.00877 11.8908 7.00623 12.3608C7.0037 12.8308 7.61571 12.7749 7.61317 13.2463C7.61064 13.7163 7.91221 13.7188 7.90841 14.1889C7.90587 14.6589 7.46492 14.6564 7.46239 15.1277C7.45985 15.599 7.58276 15.6091 7.57896 16.0805C7.57643 16.5518 7.4041 16.5746 7.80957 16.8135C8.21378 17.051 8.04652 16.6851 8.45452 16.4527C8.86253 16.2202 8.82958 16.1618 9.23759 15.9293C9.64559 15.6968 9.82679 16.0157 10.2348 15.7832C10.6428 15.5507 10.5478 15.383 10.9558 15.1505C11.3638 14.9181 11.3422 14.88 11.7502 14.6475C12.1582 14.415 12.2545 14.5852 12.6625 14.3527C13.0705 14.1203 12.9286 13.8687 13.3366 13.6363C13.7446 13.4038 13.9296 13.729 14.3376 13.4965C14.7456 13.264 14.8204 13.2437 15.0586 12.8372C15.2956 12.4319 15.0764 12.3544 15.0802 11.8844C15.0827 11.4144 15.2474 11.4144 15.2499 10.9443C15.2525 10.4743 15.0029 10.4718 15.0054 10.0017C15.0079 9.53168 14.8204 9.53041 14.8229 9.0591C14.8255 8.58906 14.9243 8.58906 14.9268 8.11902C14.9294 7.64771 14.8217 7.64772 14.8255 7.17641C14.828 6.7051 15.013 6.70637 15.0168 6.23633C15.0193 5.76502 15.1777 5.79551 15.2766 5.33564C15.3665 4.9126 15.3957 4.76778 14.9902 4.52895Z" fill="#C8AFE7"/>
</svg>
