<svg width="68" height="129" viewBox="0 0 78 139" fill="none" xmlns="http://www.w3.org/2000/svg">
<g id="Virto_Ilustraciones p&#195;&#161;gina web_Dat&#195;&#161;fono 1" clip-path="url(#clip0_41_20880)">
<g id="Group">
<g id="Group_2">
<path id="Vector" d="M55.2205 123.175C53.9718 123.175 53.9718 123.109 52.723 123.109C51.4743 123.109 51.4743 123.118 50.2273 123.118C48.9786 123.118 48.9786 123.255 47.7316 123.255C46.4829 123.255 46.4829 122.966 45.2342 122.966C43.9855 122.966 43.9855 123.109 42.7385 123.109C41.4897 123.109 41.4897 122.801 40.241 122.801C38.9923 122.801 38.9923 123.179 37.7436 123.179C36.4949 123.179 36.4949 122.954 35.2461 122.954C33.9974 122.954 33.9974 123.109 32.7487 123.109C31.5 123.109 31.5 122.891 30.2512 122.891C29.0025 122.891 29.0025 122.954 27.7538 122.954C26.5051 122.954 26.5051 123.213 25.2564 123.213C24.0076 123.213 24.0076 122.843 22.7589 122.843C21.5102 122.843 21.5102 122.95 20.2615 122.95C19.0127 122.95 19.0127 122.836 17.764 122.836C16.5153 122.836 16.5153 123.101 15.2648 123.101C14.0144 123.101 14.0196 122.903 12.7691 122.903C11.932 122.903 11.0742 123.134 10.2838 122.978C9.46919 122.817 8.73413 122.346 7.98525 122.034C7.22252 121.718 6.45807 121.399 5.78009 120.944C5.09693 120.487 4.34458 120.066 3.76519 119.486C3.1858 118.906 2.97652 118.011 2.5182 117.329C2.06506 116.651 1.46664 116.054 1.15014 115.29C0.838823 114.541 0.726403 113.719 0.565557 112.903C0.409899 112.112 0.373579 111.311 0.373579 110.473C0.373579 109.24 0.255971 109.24 0.255971 108.008C0.255971 106.775 0.25943 106.775 0.25943 105.543C0.25943 104.31 0.150469 104.31 0.150469 103.078C0.150469 101.845 0.390874 102.711 0.390874 101.478C0.390874 100.246 0.162576 100.246 0.162576 99.0134C0.162576 97.7809 0.266348 97.7809 0.266348 96.5484C0.266348 95.3159 0.105501 95.3159 0.105501 94.0834C0.105501 92.8509 0.235216 92.8509 0.235216 91.6184C0.235216 90.3859 0.216191 90.3859 0.216191 89.1535C0.216191 87.921 0.25943 87.921 0.25943 86.6867C0.25943 85.4542 0.255971 85.4542 0.255971 84.2217C0.255971 82.9892 0.0933947 82.9892 0.0933947 81.755C0.0933947 80.5225 0.485998 80.5225 0.485998 79.29C0.485998 78.0575 0.342447 78.0575 0.342447 76.825C0.342447 75.5925 0.413358 75.5925 0.413358 74.36C0.413358 73.1275 0.0224839 73.1275 0.0224839 71.8951C0.0224839 70.6626 0.155658 70.6626 0.155658 69.4301C0.155658 68.1976 0.0588041 68.1976 0.0588041 66.9633C0.0588041 65.7308 0.349365 65.7308 0.349365 64.4984C0.349365 63.2659 0.18506 63.2659 0.18506 62.0334C0.18506 60.8009 0.344177 60.8009 0.344177 59.5684C0.344177 58.3359 0.290561 58.3359 0.290561 57.1034C0.290561 55.8709 0.0778289 55.8709 0.0778289 54.6367C0.0778289 53.4042 0.271536 53.4042 0.271536 52.1717C0.271536 50.9392 0.143551 50.9392 0.143551 49.7067C0.143551 48.4742 0.140092 48.4742 0.140092 47.24C0.140092 46.0075 0.435842 46.0075 0.435842 44.775C0.435842 43.5425 0.22311 43.5425 0.22311 42.31C0.22311 41.0775 0 41.0775 0 39.8433C0 38.6108 0.081288 38.6108 0.081288 37.3765C0.081288 36.144 0.326881 36.144 0.326881 34.9098C0.326881 33.6773 0.472162 33.6773 0.472162 32.4431C0.472162 31.2106 0.335529 31.2106 0.335529 29.9764C0.335529 28.7439 0.159117 28.7439 0.159117 27.5096C0.159117 26.2771 0.204085 26.2771 0.204085 25.0429C0.204085 23.8087 0.235216 23.8087 0.235216 22.5762C0.235216 21.3437 0.224839 21.3437 0.224839 20.1095C0.224839 18.8753 0.435842 18.8753 0.435842 17.641C0.435842 16.4068 0.373579 16.4068 0.373579 15.1726C0.373579 14.3676 0.461785 13.6233 0.697001 12.8963C0.940865 12.1433 1.1069 11.3383 1.56177 10.7117C2.02182 10.0799 2.66002 9.56576 3.2913 9.10531C3.91739 8.65005 4.57807 8.13074 5.32869 7.88666C6.05336 7.65124 6.89045 7.76376 7.69296 7.76376C8.94514 7.76376 8.94514 7.85723 10.1973 7.85723C11.4495 7.85723 11.4495 7.51795 12.7017 7.51795C13.9539 7.51795 13.9539 7.70663 15.206 7.70663C16.4582 7.70663 16.4582 7.74125 17.7104 7.74125C18.9626 7.74125 18.9626 7.78453 20.2148 7.78453C21.4669 7.78453 21.4669 7.66855 22.7191 7.66855C23.9713 7.66855 23.9713 7.91263 25.2235 7.91263C26.4757 7.91263 26.4757 7.74645 27.7279 7.74645C28.98 7.74645 28.98 7.57161 30.2322 7.57161C31.4844 7.57161 31.4844 7.72914 32.7366 7.72914C33.9888 7.72914 33.9888 7.82781 35.2409 7.82781C36.4931 7.82781 36.4931 7.89878 37.7453 7.89878C38.9975 7.89878 38.9975 7.62527 40.2497 7.62527C41.5018 7.62527 41.5018 7.46948 42.754 7.46948C44.0062 7.46948 44.0062 7.75683 45.2584 7.75683C46.5106 7.75683 46.5106 7.81396 47.7628 7.81396C49.0149 7.81396 49.0149 7.77068 50.2671 7.77068C51.5193 7.77068 51.5193 7.53526 52.7732 7.53526C54.0254 7.53526 54.0254 7.58892 55.2776 7.58892C56.5315 7.58892 56.5315 7.47121 57.7837 7.47121C59.0358 7.47121 59.0376 7.82607 60.2897 7.82607C61.094 7.82607 61.8757 7.81223 62.6021 8.04765C63.3545 8.29172 64.0238 8.7089 64.6482 9.16416C65.2794 9.62462 66.0128 10.0401 66.4728 10.6719C66.9277 11.2985 67.284 12.0619 67.5278 12.8149C67.7631 13.5402 67.8288 14.3642 67.8288 15.1691C67.8288 16.4016 67.5209 16.4016 67.5209 17.6341C67.5209 18.8666 67.6558 18.8666 67.6558 20.0991C67.6558 21.3316 67.5036 21.3316 67.5036 22.5641C67.5036 23.7966 67.8876 23.7966 67.8876 25.0291C67.8876 26.2616 67.9256 26.2616 67.9256 27.4941C67.9256 28.7266 67.7319 28.7266 67.7319 29.9591C67.7319 31.1916 67.7319 31.1916 67.7319 32.424C67.7319 33.6565 67.6143 33.6565 67.6143 34.889C67.6143 36.1215 67.7855 36.1215 67.7855 37.354C67.7855 38.5865 67.5953 38.5865 67.5953 39.8207C67.5953 41.0532 67.6351 41.0532 67.6351 42.2857C67.6351 43.5182 67.6714 43.5182 67.6714 44.7525C67.6714 45.985 67.5209 45.985 67.5209 47.2175C67.5209 48.4499 67.9758 48.4499 67.9758 49.6824C67.9758 50.9149 67.9602 50.9149 67.9602 52.1474C67.9602 53.3799 67.9983 53.3799 67.9983 54.6124C67.9983 55.8449 67.9377 55.8449 67.9377 57.0774C67.9377 58.3099 67.661 58.3099 67.661 59.5441C67.661 60.7766 67.6039 60.7766 67.6039 62.0091C67.6039 63.2416 67.789 63.2416 67.789 64.4741C67.789 65.7066 67.9741 65.7066 67.9741 66.9391C67.9741 68.1716 67.5365 68.1716 67.5365 69.4041C67.5365 70.6366 67.5244 70.6366 67.5244 71.8708C67.5244 73.1033 67.7354 73.1033 67.7354 74.3358C67.7354 75.5683 67.6039 75.5683 67.6039 76.8008C67.6039 78.0333 67.5555 78.0333 67.5555 79.2675C67.5555 80.5 67.7094 80.5 67.7094 81.7325C67.7094 82.965 67.6212 82.965 67.6212 84.1975C67.6212 85.43 67.8668 85.43 67.8668 86.6642C67.8668 87.8967 67.5002 87.8967 67.5002 89.1309C67.5002 90.3634 68 90.3634 68 91.5977C68 92.8302 67.6454 92.8302 67.6454 94.0644C67.6454 95.2969 67.5313 95.2969 67.5313 96.5311C67.5313 97.7636 67.6091 97.7636 67.6091 98.9978C67.6091 100.23 67.7337 100.23 67.7337 101.465C67.7337 102.699 67.6143 101.833 67.6143 103.066C67.6143 104.298 67.5572 104.298 67.5572 105.532C67.5572 106.767 67.9481 106.767 67.9481 108.001C67.9481 109.235 67.7042 109.235 67.7042 110.469C67.7042 111.307 67.5866 112.109 67.431 112.9C67.2701 113.715 67.1646 114.541 66.8533 115.29C66.5368 116.054 66.1442 116.791 65.6911 117.47C65.2345 118.153 64.7295 118.825 64.1501 119.405C63.5707 119.985 62.9013 120.492 62.2182 120.949C61.5402 121.403 60.7619 121.699 59.9992 122.015C59.2503 122.327 58.4651 122.535 57.6505 122.696C56.8601 122.857 56.0576 123.175 55.2205 123.175Z" fill="#DECFF1"/>
</g>
<g id="Group_3">
<path id="Vector_2" d="M57.9947 69.3972C57.0918 70.2921 56.8843 69.7624 55.6131 69.7624C54.3419 69.7624 54.3419 69.3037 53.0707 69.3037C51.7995 69.3037 51.7995 69.3314 50.5283 69.3314C49.2571 69.3314 49.2571 69.6949 47.9859 69.6949C46.7147 69.6949 46.7146 69.5928 45.4434 69.5928C44.1722 69.5928 44.1722 69.4526 42.901 69.4526C41.6298 69.4526 41.6298 69.6949 40.3586 69.6949C39.0874 69.6949 39.0874 69.6811 37.8162 69.6811C36.545 69.6811 36.545 69.5409 35.2738 69.5409C34.0026 69.5409 34.0026 69.8144 32.7297 69.8144C31.4585 69.8144 31.4585 69.4249 30.1872 69.4249C28.916 69.4249 28.916 69.3124 27.6448 69.3124C26.3736 69.3124 26.3736 69.5374 25.1024 69.5374C23.8312 69.5374 23.8312 69.7953 22.5583 69.7953C21.2871 69.7953 21.2871 69.5616 20.0159 69.5616C18.7447 69.5616 18.7447 69.5859 17.4717 69.5859C16.2005 69.5859 16.2005 69.7157 14.9293 69.7157C13.6564 69.7157 13.6564 69.3314 12.3852 69.3314C11.1122 69.3314 10.6314 70.5725 9.72689 69.6776C8.83272 68.793 9.6923 68.3032 9.6923 67.0447C9.6923 65.7862 9.86179 65.7862 9.86179 64.5278C9.86179 63.2693 9.75283 63.2693 9.75283 62.0109C9.75283 60.7524 9.99324 60.7524 9.99324 59.4922C9.99324 58.2337 10.0088 58.2337 10.0088 56.9736C10.0088 55.7151 9.64387 55.7151 9.64387 54.4549C9.64387 53.1964 9.76667 53.1964 9.76667 51.9363C9.76667 50.6778 9.65079 50.6778 9.65079 49.4176C9.65079 48.1591 9.88601 48.1591 9.88601 46.8989C9.88601 45.6405 10.0192 45.6405 10.0192 44.382C10.0192 43.1236 9.99324 43.1236 9.99324 41.8634C9.99324 40.6049 9.78051 40.6049 9.78051 39.3447C9.78051 38.0845 9.95865 38.0845 9.95865 36.8243C9.95865 35.5641 9.06102 35.3062 9.95519 34.4199C10.858 33.525 11.1122 34.2295 12.3835 34.2295C13.6547 34.2295 13.6547 34.368 14.9259 34.368C16.1971 34.368 16.1971 34.4771 17.4683 34.4771C18.7395 34.4771 18.7395 34.1205 20.0107 34.1205C21.2819 34.1205 21.2819 34.4442 22.5531 34.4442C23.8243 34.4442 23.8243 34.1464 25.0955 34.1464C26.3667 34.1464 26.3667 34.5584 27.6379 34.5584C28.9091 34.5584 28.9091 34.1966 30.1803 34.1966C31.4515 34.1966 31.4515 34.439 32.7227 34.439C33.9939 34.439 33.9939 34.0945 35.2669 34.0945C36.5381 34.0945 36.5381 34.2434 37.8093 34.2434C39.0805 34.2434 39.0805 34.4546 40.3517 34.4546C41.6229 34.4546 41.6229 34.3074 42.8941 34.3074C44.1653 34.3074 44.1653 34.072 45.4383 34.072C46.7095 34.072 46.7095 34.4234 47.9807 34.4234C49.2519 34.4234 49.2519 34.5013 50.5248 34.5013C51.796 34.5013 51.796 34.3732 53.0672 34.3732C54.3402 34.3732 54.3402 34.3542 55.6114 34.3542C56.8843 34.3542 57.2925 33.3727 58.197 34.2676C59.0912 35.1522 58.3907 35.5676 58.3907 36.8261C58.3907 38.0845 58.2057 38.0845 58.2057 39.343C58.2057 40.6015 58.012 40.6015 58.012 41.8599C58.012 43.1184 58.1313 43.1184 58.1313 44.3786C58.1313 45.637 57.9428 45.637 57.9428 46.8972C57.9428 48.1557 58.3181 48.1557 58.3181 49.4159C58.3181 50.6743 57.9929 50.6743 57.9929 51.9345C57.9929 53.193 58.3388 53.193 58.3388 54.4532C58.3388 55.7116 58.2472 55.7116 58.2472 56.9718C58.2472 58.2303 58.0673 58.2303 58.0673 59.4887C58.0673 60.7472 58.2835 60.7472 58.2835 62.0074C58.2835 63.2659 58.3371 63.2659 58.3371 64.5261C58.3371 65.7862 57.9877 65.7966 58.2143 67.0343C58.4409 68.2685 58.8888 68.5109 57.9947 69.3972Z" fill="#915FD0"/>
</g>
<g id="Group_4">
<path id="Vector_3" d="M55.2204 121.086C53.9717 121.086 53.9717 120.817 52.723 120.817C51.4743 120.817 51.4743 120.835 50.2273 120.835C48.9786 120.835 48.9786 120.831 47.7316 120.831C46.4828 120.831 46.4828 121.222 45.2341 121.222C43.9854 121.222 43.9854 120.712 42.7384 120.712C41.4897 120.712 41.4897 120.881 40.241 120.881C38.9922 120.881 38.9922 120.952 37.7435 120.952C36.4948 120.952 36.4948 120.788 35.2461 120.788C33.9973 120.788 33.9973 120.942 32.7486 120.942C31.4999 120.942 31.4999 121.2 30.2512 121.2C29.0025 121.2 29.0025 120.772 27.7537 120.772C26.505 120.772 26.505 121.049 25.2563 121.049C24.0076 121.049 24.0076 121.184 22.7589 121.184C21.5101 121.184 21.5101 120.812 20.2614 120.812C19.0127 120.812 19.0127 120.888 17.764 120.888C16.5152 120.888 16.5152 120.807 15.2648 120.807C14.0161 120.807 14.0161 121.132 12.7656 121.132C11.9285 121.132 11.1139 120.876 10.3235 120.719C9.50891 120.558 8.65452 120.487 7.90563 120.177C7.14291 119.86 6.52547 119.251 5.84749 118.797C5.16433 118.34 4.61088 117.755 4.03148 117.175C3.45209 116.595 2.91075 116.012 2.45415 115.33C2.00101 114.651 1.40605 114.039 1.08955 113.275C0.778234 112.526 0.818013 111.66 0.657166 110.845C0.501509 110.054 0.392548 109.271 0.392548 108.434C0.392548 109.886 0.12793 109.886 0.12793 111.338C0.12793 112.176 0.231702 113.012 0.387359 113.803C0.548206 114.619 1.07052 115.309 1.38184 116.059C1.69834 116.822 1.96988 117.579 2.42302 118.257C2.87961 118.941 3.49187 119.465 4.07126 120.044C4.65066 120.624 5.12973 121.3 5.8129 121.757C6.49088 122.211 7.27954 122.445 8.04054 122.761C8.78942 123.073 9.50545 123.488 10.3201 123.649C11.1105 123.805 11.9303 123.952 12.7673 123.952C13.3917 123.952 13.94 123.21 14.2305 123.762C14.7823 124.813 13.786 125.062 13.786 126.248C13.786 127.433 13.2949 127.657 14.1544 128.474C15.059 129.334 15.2631 128.877 16.5118 128.877C17.7605 128.877 17.7605 128.849 19.0075 128.849C20.2562 128.849 20.2562 128.486 21.5049 128.486C22.7537 128.486 22.7537 128.588 24.0007 128.588C25.2494 128.588 25.2494 128.728 26.4981 128.728C27.7468 128.728 27.7468 128.486 28.9955 128.486C30.2443 128.486 30.2443 128.5 31.493 128.5C32.7417 128.5 32.7417 128.64 33.9904 128.64C35.2392 128.64 35.2392 128.366 36.4879 128.366C37.7366 128.366 37.7366 128.756 38.9853 128.756C40.234 128.756 40.234 128.868 41.4828 128.868C42.7315 128.868 42.7315 128.643 43.9802 128.643C45.2289 128.643 45.2289 128.385 46.4777 128.385C47.7264 128.385 47.7264 128.619 48.9751 128.619C50.2238 128.619 50.2238 128.595 51.4743 128.595C52.723 128.595 52.9599 129.369 53.8662 128.508C54.7258 127.691 54.2035 127.433 54.2035 126.248C54.2035 125.062 53.2782 124.849 53.8299 123.8C54.1204 123.248 54.5978 123.726 55.2222 123.726C56.0593 123.726 56.8808 123.814 57.6712 123.656C58.4858 123.495 59.2347 123.153 59.9836 122.841C60.7463 122.524 61.5886 122.342 62.2665 121.889C62.9497 121.432 63.619 120.901 64.1984 120.321C64.7778 119.741 65.0182 118.877 65.4748 118.193C65.928 117.515 66.4122 116.871 66.7287 116.107C67.0401 115.358 67.1628 114.561 67.3237 113.746C67.4794 112.955 67.7941 112.174 67.7941 111.337C67.7941 109.884 67.9273 109.884 67.9273 108.432C67.9273 109.27 67.5157 110.057 67.36 110.848C67.1992 111.664 67.1646 112.503 66.8533 113.253C66.5368 114.016 65.9937 114.653 65.5406 115.33C65.084 116.014 64.5443 116.601 63.9649 117.181C63.3856 117.76 62.9065 118.461 62.225 118.918C61.5471 119.372 60.7567 119.642 59.9939 119.959C59.2451 120.27 58.4495 120.4 57.6349 120.561C56.841 120.72 56.0575 121.086 55.2204 121.086Z" fill="#C8AFE7"/>
</g>
<g id="Group_5">
<g id="Group_6">
<path id="Vector_4" d="M17.4955 85.7416C16.399 85.6325 16.425 85.3728 15.3284 85.2655C14.2319 85.1565 14.206 85.4196 13.1077 85.3123C12.0112 85.2032 12.0302 85.0024 10.9337 84.8951C10.2799 84.831 10.0205 84.2771 10.0205 83.6193C10.0205 82.5322 9.65039 82.5322 9.65039 81.4469C9.65039 80.6904 10.4564 79.882 11.2087 79.9564C12.3052 80.0655 12.2845 80.2784 13.3793 80.3875C14.4758 80.4965 14.4896 80.358 15.5861 80.4671C16.6827 80.5762 16.6481 80.9224 17.7463 81.0297C18.4001 81.0937 18.8705 81.4399 18.8705 82.0977C18.8705 83.1848 18.9553 83.1848 18.9553 84.2702C18.9553 85.0249 18.2479 85.816 17.4955 85.7416Z" fill="#F3F5F4"/>
</g>
<g id="Group_7">
<path id="Vector_5" d="M30.5868 87.1507C29.4903 87.0417 29.5335 86.6141 28.437 86.505C27.3405 86.396 27.3232 86.5674 26.2266 86.4583C25.1301 86.3493 25.1526 86.1208 24.0561 86.0117C23.4023 85.9477 22.7797 85.6326 22.7797 84.9748C22.7797 83.8877 22.7676 83.8877 22.7676 82.8024C22.7676 82.0459 23.5372 81.3881 24.2896 81.4625C25.3861 81.5716 25.3653 81.7811 26.4619 81.8901C27.5584 81.9992 27.5497 82.0926 28.6463 82.2017C29.7428 82.3108 29.748 82.2571 30.8462 82.3661C31.5 82.4302 31.8563 82.7972 31.8563 83.455C31.8563 84.5421 32.0396 84.5421 32.0396 85.6274C32.0379 86.3821 31.3391 87.2252 30.5868 87.1507Z" fill="#F3F5F4"/>
</g>
<g id="Group_8">
<path id="Vector_6" d="M43.9557 86.2108C42.8592 86.3198 42.8488 86.2177 41.754 86.325C40.6575 86.4341 40.6869 86.737 39.5904 86.8443C38.4939 86.9534 38.48 86.8166 37.3835 86.9257C36.6311 87.0001 35.9134 86.3821 35.9134 85.6257C35.9134 84.5386 35.7231 84.5386 35.7231 83.4532C35.7231 82.7954 36.4634 82.129 37.1189 82.0632C38.2154 81.9542 38.2413 82.2173 39.3379 82.1082C40.4344 81.9992 40.3946 81.5976 41.4929 81.4885C42.5894 81.3794 42.6378 81.8728 43.7361 81.7655C44.4884 81.691 45.0453 82.0442 45.0453 82.8006C45.0453 83.8877 45.2875 83.8877 45.2875 84.9731C45.2805 85.6326 44.6095 86.145 43.9557 86.2108Z" fill="#F3F5F4"/>
</g>
<g id="Group_9">
<path id="Vector_7" d="M57.0382 84.7149C55.9416 84.824 55.9762 85.1788 54.8814 85.2862C53.7849 85.3952 53.778 85.3208 52.6797 85.4298C51.5832 85.5389 51.5953 85.6705 50.4988 85.7778C49.7465 85.8522 49.0477 85.0248 49.0477 84.2683C49.0477 83.1812 48.873 83.1812 48.873 82.0959C48.873 81.4381 49.5891 81.0711 50.2428 81.0071C51.3394 80.898 51.3446 80.9482 52.4393 80.8391C53.5359 80.7301 53.4978 80.3389 54.5943 80.2298C55.6909 80.1208 55.722 80.4324 56.8185 80.325C57.5709 80.2506 58.0119 80.6885 58.0119 81.4467C58.0119 82.5338 58.4495 82.5338 58.4495 83.6192C58.4495 84.277 57.6937 84.6509 57.0382 84.7149Z" fill="#F3F5F4"/>
</g>
<g id="Group_10">
<path id="Vector_8" d="M17.5373 93.455C16.4408 93.3459 16.4097 93.6731 15.3131 93.564C14.2166 93.455 14.2235 93.3857 13.1253 93.2767C12.0288 93.1676 12.0115 93.3338 10.9149 93.2248C10.2612 93.1607 9.60742 92.4094 9.60742 91.7517C9.60742 90.6646 9.95506 90.6646 9.95506 89.5792C9.95506 88.8227 10.4549 88.0109 11.2072 88.0853C12.3038 88.1944 12.2726 88.499 13.3692 88.6081C14.4657 88.7172 14.4518 88.8695 15.5484 88.9785C16.6449 89.0876 16.6812 88.7275 17.7777 88.8366C18.4315 88.9006 18.9019 89.5723 18.9019 90.2318C18.9019 91.3189 18.7895 91.3189 18.7895 92.4043C18.7895 93.1607 18.2897 93.5294 17.5373 93.455Z" fill="#F3F5F4"/>
</g>
<g id="Group_11">
<path id="Vector_9" d="M30.6352 94.7879C29.5386 94.6788 29.5075 94.9973 28.411 94.89C27.3145 94.7809 27.3041 94.8813 26.2076 94.7723C25.111 94.6632 25.118 94.5923 24.0214 94.4849C23.3677 94.4209 22.752 93.7683 22.752 93.1105C22.752 92.0234 22.8505 92.0234 22.8505 90.938C22.8505 90.1816 23.5406 89.4909 24.293 89.5653C25.3895 89.6744 25.386 89.7021 26.4826 89.8111C27.5791 89.9202 27.5687 90.0241 28.667 90.1331C29.7635 90.2422 29.7911 89.9617 30.8894 90.0691C31.5432 90.1331 31.9721 90.9294 31.9721 91.5889C31.9721 92.676 31.7697 92.676 31.7697 93.7614C31.768 94.5178 31.3875 94.8623 30.6352 94.7879Z" fill="#F3F5F4"/>
</g>
<g id="Group_12">
<path id="Vector_10" d="M43.975 94.5351C42.8785 94.6442 42.8715 94.5645 41.775 94.6736C40.6785 94.7826 40.6508 94.4987 39.5526 94.6078C38.4543 94.7169 38.4543 94.6961 37.3561 94.8034C36.6037 94.8778 36.0814 94.5178 36.0814 93.7613C36.0814 92.6742 35.8877 92.6742 35.8877 91.5889C35.8877 90.9311 36.4533 90.1746 37.1087 90.1088C38.2053 89.9998 38.2329 90.2906 39.3295 90.1833C40.426 90.0742 40.4087 89.8907 41.5052 89.7817C42.6017 89.6726 42.626 89.9219 43.7242 89.8146C44.4766 89.7401 45.113 90.1816 45.113 90.938C45.113 92.0251 45.3067 92.0251 45.3067 93.1105C45.305 93.7683 44.6287 94.4693 43.975 94.5351Z" fill="#F3F5F4"/>
</g>
<g id="Group_13">
<path id="Vector_11" d="M57.0571 93.0448C55.9606 93.1539 55.9658 93.1971 54.8692 93.3045C53.7727 93.4135 53.7848 93.5381 52.6883 93.6455C51.5918 93.7545 51.5918 93.7545 50.4935 93.8618C49.7412 93.9363 49.3261 93.1608 49.3261 92.4043C49.3261 91.3172 49.1064 91.3172 49.1064 90.2319C49.1064 89.5741 49.5838 89.1604 50.2376 89.0963C51.3341 88.9873 51.3081 88.7276 52.4047 88.6203C53.5012 88.5112 53.496 88.461 54.5943 88.352C55.6908 88.2429 55.6856 88.1823 56.7821 88.075C57.5345 88.0006 58.2003 88.8263 58.2003 89.5827C58.2003 90.6698 58.1813 90.6698 58.1813 91.7552C58.1796 92.413 57.7126 92.979 57.0571 93.0448Z" fill="#F3F5F4"/>
</g>
<g id="Group_14">
<path id="Vector_12" d="M17.4908 102.053C16.3943 101.944 16.4392 101.485 15.3444 101.378C14.2479 101.269 14.2324 101.42 13.1358 101.31C12.0393 101.201 12.0168 101.416 10.9203 101.309C10.2665 101.245 9.98635 100.549 9.98635 99.8893C9.98635 98.8022 9.77881 98.8022 9.77881 97.7168C9.77881 96.9604 10.4118 96.583 11.1642 96.6574C12.2607 96.7665 12.2659 96.7059 13.3624 96.8132C14.4589 96.9223 14.4676 96.8461 15.5641 96.9552C16.6606 97.0642 16.6917 96.7596 17.7883 96.8686C18.442 96.9327 18.9851 97.7099 18.9851 98.3677C18.9851 99.4548 18.7724 99.4548 18.7724 100.54C18.7724 101.297 18.2431 102.127 17.4908 102.053Z" fill="#F3F5F4"/>
</g>
<g id="Group_15">
<path id="Vector_13" d="M30.59 103.388C29.4935 103.279 29.5315 102.891 28.4367 102.782C27.3402 102.673 27.3316 102.752 26.235 102.645C25.1385 102.536 25.1437 102.476 24.0472 102.366C23.3934 102.302 22.9541 101.904 22.9541 101.246C22.9541 100.159 22.7466 100.159 22.7466 99.074C22.7466 98.3176 23.5283 97.7325 24.2824 97.8069C25.3789 97.916 25.3841 97.8554 26.4806 97.9644C27.5772 98.0735 27.5841 97.9991 28.6823 98.1081C29.7789 98.2172 29.7564 98.4561 30.8529 98.5651C31.5067 98.6292 32.0151 99.0688 32.0151 99.7266C32.0151 100.814 32.259 100.814 32.259 101.899C32.259 102.654 31.3424 103.462 30.59 103.388Z" fill="#F3F5F4"/>
</g>
<g id="Group_16">
<path id="Vector_14" d="M43.9541 102.472C42.8575 102.581 42.8437 102.444 41.7489 102.553C40.6524 102.662 40.6956 103.097 39.5974 103.206C38.5009 103.315 38.4922 103.235 37.3957 103.344C36.6433 103.419 36.1124 102.654 36.1124 101.897C36.1124 100.81 36.0864 100.81 36.0864 99.7249C36.0864 99.0671 36.4773 98.5547 37.1311 98.4889C38.2276 98.3799 38.2068 98.1669 39.3016 98.0579C40.3982 97.9488 40.4051 98.0129 41.5016 97.9038C42.5981 97.7948 42.5895 97.7013 43.686 97.5922C44.4383 97.5178 45.1941 98.3158 45.1941 99.0723C45.1941 100.159 44.9831 100.159 44.9831 101.245C44.9849 101.904 44.6096 102.406 43.9541 102.472Z" fill="#F3F5F4"/>
</g>
<g id="Group_17">
<path id="Vector_15" d="M57.0728 101.343C55.9763 101.453 55.9728 101.409 54.8763 101.518C53.7798 101.627 53.7659 101.496 52.6694 101.603C51.5729 101.712 51.5867 101.865 50.4902 101.974C49.7379 102.048 49.0547 101.298 49.0547 100.542C49.0547 99.4549 49.2761 99.4549 49.2761 98.3695C49.2761 97.7118 49.5459 96.9345 50.1996 96.8705C51.2962 96.7614 51.3065 96.867 52.4031 96.758C53.4996 96.6489 53.5117 96.7735 54.6099 96.6645C55.7065 96.5554 55.6995 96.4775 56.7961 96.3685C57.5484 96.294 58.0483 96.9622 58.0483 97.7187C58.0483 98.8058 58.2852 98.8058 58.2852 99.8911C58.2852 100.549 57.7283 101.278 57.0728 101.343Z" fill="#F3F5F4"/>
</g>
<g id="Group_18">
<path id="Vector_16" d="M17.5079 110.018C16.4113 109.909 16.4096 109.935 15.3131 109.825C14.2166 109.716 14.2027 109.848 13.1062 109.741C12.0097 109.632 12.0322 109.401 10.9356 109.294C10.2819 109.23 10.0155 108.685 10.0155 108.027C10.0155 106.94 9.5918 106.94 9.5918 105.855C9.5918 105.098 10.4548 104.298 11.2072 104.373C12.3037 104.482 12.2622 104.896 13.3587 105.005C14.4552 105.114 14.4829 104.83 15.5812 104.939C16.6777 105.048 16.6604 105.231 17.7569 105.34C18.4107 105.404 18.8759 105.848 18.8759 106.505C18.8759 107.592 18.677 107.592 18.677 108.678C18.6753 109.433 18.2602 110.092 17.5079 110.018Z" fill="#C8AFE7"/>
</g>
<g id="Group_19">
<path id="Vector_17" d="M30.602 111.397C29.5055 111.288 29.5228 111.108 28.428 111.001C27.3315 110.892 27.309 111.106 26.2125 110.999C25.1159 110.892 25.1108 110.944 24.0125 110.835C23.3587 110.771 22.8191 110.04 22.8191 109.382C22.8191 108.295 22.6929 108.295 22.6929 107.21C22.6929 106.453 23.5507 105.642 24.3031 105.716C25.3996 105.825 25.3615 106.201 26.4581 106.308C27.5546 106.417 27.5892 106.064 28.6874 106.171C29.7839 106.28 29.7788 106.343 30.8753 106.45C31.529 106.514 32.1534 107.201 32.1534 107.859C32.1534 108.946 32.143 108.946 32.143 110.031C32.143 110.79 31.3544 111.472 30.602 111.397Z" fill="#C8AFE7"/>
</g>
<g id="Group_20">
<path id="Vector_18" d="M43.9402 110.464C42.8437 110.573 42.8558 110.701 41.761 110.809C40.6645 110.918 40.6662 110.935 39.5697 111.044C38.4732 111.153 38.4835 111.255 37.3853 111.363C36.6329 111.437 35.7388 110.788 35.7388 110.032C35.7388 108.944 35.9238 108.944 35.9238 107.859C35.9238 107.201 36.4877 106.793 37.1414 106.729C38.2379 106.62 38.2258 106.5 39.3224 106.393C40.4189 106.284 40.4379 106.473 41.5344 106.363C42.631 106.254 42.5946 105.882 43.6912 105.773C44.4435 105.699 44.9485 106.452 44.9485 107.21C44.9485 108.297 45.2944 108.297 45.2944 109.382C45.2962 110.04 44.594 110.4 43.9402 110.464Z" fill="#C8AFE7"/>
</g>
<g id="Group_21">
<path id="Vector_19" d="M57.0742 109.484C55.9776 109.593 55.9465 109.271 54.85 109.379C53.7535 109.488 53.7829 109.782 52.6846 109.891C51.5881 110 51.5466 109.59 50.4501 109.699C49.6977 109.773 48.9609 109.432 48.9609 108.676C48.9609 107.589 49.2031 107.589 49.2031 106.504C49.2031 105.846 49.549 105.082 50.2027 105.017C51.2993 104.907 51.3131 105.056 52.4096 104.947C53.5061 104.838 53.5269 105.048 54.6234 104.94C55.7199 104.831 55.7061 104.684 56.8026 104.577C57.555 104.502 58.4457 105.096 58.4457 105.853C58.4457 106.94 58.0946 106.94 58.0946 108.025C58.0946 108.685 57.7279 109.42 57.0742 109.484Z" fill="#F3F5F4"/>
</g>
</g>
<g id="Group_22">
<path id="Vector_20" d="M56.6041 24.9633C55.9711 25.2853 55.9728 25.2662 55.2637 25.2662C54.5546 25.2662 54.5546 24.8716 53.8455 24.8716C53.1364 24.8716 53.1364 25.2697 52.4273 25.2697C51.7182 25.2697 51.7182 24.9841 51.0091 24.9841C50.3 24.9841 50.3 24.9391 49.5909 24.9391C48.8817 24.9391 48.8817 25.3372 48.1726 25.3372C47.4635 25.3372 47.4635 24.8923 46.7544 24.8923C46.0453 24.8923 46.0453 25.2991 45.3362 25.2991C44.6271 25.2991 44.6271 25.081 43.918 25.081C43.2089 25.081 43.2089 25.1849 42.4998 25.1849C41.7907 25.1849 41.7907 25.0256 41.0816 25.0256C40.3724 25.0256 40.3724 25.0014 39.6633 25.0014C38.9542 25.0014 38.9542 25.261 38.2451 25.261C37.536 25.261 37.536 25.2039 36.8269 25.2039C36.1178 25.2039 36.1178 25.358 35.4087 25.358C34.6996 25.358 34.6996 25.3061 33.9905 25.3061C33.2814 25.3061 33.2814 24.9893 32.5723 24.9893C31.8631 24.9893 31.8631 25.1104 31.154 25.1104C30.4449 25.1104 30.4449 24.9391 29.7358 24.9391C29.0267 24.9391 29.0267 25.0637 28.3176 25.0637C27.6085 25.0637 27.6085 24.9252 26.8994 24.9252C26.1903 24.9252 26.1903 24.8923 25.4812 24.8923C24.7721 24.8923 24.7721 25.1208 24.063 25.1208C23.3539 25.1208 23.3539 25.0412 22.6447 25.0412C21.9356 25.0412 21.9356 25.2957 21.2265 25.2957C20.5174 25.2957 20.5174 25.2732 19.8083 25.2732C19.0992 25.2732 19.0992 25.1381 18.3901 25.1381C17.681 25.1381 17.681 25.1658 16.9719 25.1658C16.2628 25.1658 16.2628 24.9096 15.5537 24.9096C14.8446 24.9096 14.8446 25.2126 14.1354 25.2126C13.4263 25.2126 13.4263 25.2835 12.7172 25.2835C12.0081 25.2835 11.8819 25.5346 11.2506 25.2143C10.9289 25.0516 11.4668 24.7573 11.4668 24.3973C11.4668 24.0372 11.5048 24.0372 11.5048 23.6772C11.5048 23.3171 11.0776 23.3171 11.0776 22.957C11.0776 22.597 11.2264 22.597 11.2264 22.2369C11.2264 21.8769 11.0776 21.8769 11.0776 21.5168C11.0776 21.1568 11.446 21.1568 11.446 20.7967C11.446 20.4367 11.4789 20.4367 11.4789 20.0766C11.4789 19.7166 11.1537 19.7166 11.1537 19.3565C11.1537 18.9964 11.2644 18.9964 11.2644 18.6364C11.2644 18.2763 11.4184 18.2763 11.4184 17.9163C11.4184 17.5562 11.5083 17.5562 11.5083 17.1962C11.5083 16.8361 11.4945 16.8361 11.4945 16.4761C11.4945 16.116 11.1883 16.116 11.1883 15.7559C11.1883 15.3959 11.1382 15.3959 11.1382 15.0358C11.1382 14.6758 11.5273 14.6758 11.5273 14.3157C11.5273 13.9557 11.1728 13.9557 11.1728 13.5956C11.1728 13.2356 11.1589 13.2356 11.1589 12.8755C11.1589 12.5155 11.4754 12.5155 11.4754 12.1554C11.4754 11.7953 11.3474 11.7953 11.3474 11.4353C11.3474 11.0752 11.491 11.0752 11.491 10.7152C11.491 10.3551 11.4962 10.3551 11.4962 9.99507C11.4962 9.63502 11.5308 9.63502 11.5308 9.27496C11.5308 8.91491 11.1728 8.91491 11.1728 8.55485C11.1728 8.1948 11.2385 8.1948 11.2385 7.83474C11.2385 7.47469 11.4426 7.47469 11.4426 7.11463C11.4426 6.75458 11.0915 6.75458 11.0915 6.39452C11.0915 6.03447 11.4633 6.03447 11.4633 5.67441C11.4633 5.31436 11.2731 5.31436 11.2731 4.95431C11.2731 3.69065 11.4945 3.69065 11.4945 2.42527C11.4945 2.06521 11.2886 2.06521 11.2886 1.70516C11.2886 1.3451 11.3163 1.3451 11.3163 0.985047C11.3163 0.624993 10.941 0.193965 11.2679 0.341103C12.1621 0.742703 11.7383 1.68438 12.719 1.68438C13.6996 1.68438 13.1565 0.121262 14.1372 0.121262C15.1178 0.121262 14.5747 1.76574 15.5554 1.76574C16.536 1.76574 15.993 0.522862 16.9736 0.522862C17.9543 0.522862 17.4112 1.38838 18.3918 1.38838C19.3725 1.38838 18.8294 0.5194 19.81 0.5194C20.7907 0.5194 20.2476 1.80729 21.2283 1.80729C22.2089 1.80729 21.6658 0.259745 22.6465 0.259745C23.6271 0.259745 23.084 1.80383 24.0647 1.80383C25.0453 1.80383 24.5023 0.148959 25.4829 0.148959C26.4636 0.148959 25.9205 1.67573 26.9011 1.67573C27.8818 1.67573 27.3387 0.334179 28.3193 0.334179C29.3 0.334179 28.7569 1.84537 29.7376 1.84537C30.7182 1.84537 30.1751 0.344565 31.1558 0.344565C32.1364 0.344565 31.5933 1.88172 32.574 1.88172C33.5546 1.88172 33.0116 0.116069 33.9922 0.116069C34.9728 0.116069 34.4298 1.58572 35.4104 1.58572C36.3911 1.58572 35.848 0.252821 36.8286 0.252821C37.8093 0.252821 37.2662 1.64976 38.2468 1.64976C39.2275 1.64976 38.6844 0.012207 39.6651 0.012207C40.6457 0.012207 40.1026 1.66881 41.0833 1.66881C42.0639 1.66881 41.5209 0.0745242 42.5015 0.0745242C43.4821 0.0745242 42.9391 1.66188 43.9197 1.66188C44.9004 1.66188 44.3573 0.0918345 45.3379 0.0918345C46.3186 0.0918345 45.7755 1.64284 46.7561 1.64284C47.7368 1.64284 47.1937 0.254552 48.1744 0.254552C49.155 0.254552 48.6119 1.45416 49.5926 1.45416C50.5732 1.45416 50.0302 0.290903 51.0108 0.290903C51.9914 0.290903 51.4484 1.56841 52.429 1.56841C53.4097 1.56841 52.8666 0.275324 53.8472 0.275324C54.8279 0.275324 54.2848 1.42127 55.2654 1.42127C56.2461 1.42127 55.6874 0.448427 56.5816 0.0468277C56.9102 -0.10031 56.5903 0.633648 56.5903 0.993702C56.5903 1.35376 56.4623 1.35376 56.4623 1.71381C56.4623 2.07387 56.8082 2.07387 56.8082 2.43392C56.8082 3.69758 56.4502 3.69758 56.4502 4.96296C56.4502 5.32302 56.6491 5.32302 56.6491 5.68307C56.6491 6.04313 56.6404 6.04313 56.6404 6.40318C56.6404 6.76323 56.4467 6.76323 56.4467 7.12329C56.4467 7.48334 56.6197 7.48334 56.6197 7.8434C56.6197 8.20345 56.5505 8.20345 56.5505 8.56351C56.5505 8.92356 56.6837 8.92356 56.6837 9.28362C56.6837 9.64367 56.5436 9.64367 56.5436 10.0037C56.5436 10.3638 56.8203 10.3638 56.8203 10.7238C56.8203 11.0839 56.5816 11.0839 56.5816 11.4439C56.5816 11.804 56.6698 11.804 56.6698 12.1641C56.6698 12.5241 56.8618 12.5241 56.8618 12.8842C56.8618 13.2442 56.9292 13.2442 56.9292 13.6043C56.9292 13.9643 56.4675 13.9643 56.4675 14.3244C56.4675 14.6844 56.8393 14.6844 56.8393 15.0445C56.8393 15.4045 56.6681 15.4045 56.6681 15.7646C56.6681 16.1247 56.4277 16.1247 56.4277 16.4847C56.4277 16.8448 56.9292 16.8448 56.9292 17.2048C56.9292 17.5649 56.4588 17.5649 56.4588 17.9249C56.4588 18.285 56.912 18.285 56.912 18.645C56.912 19.0051 56.8998 19.0051 56.8998 19.3652C56.8998 19.7252 56.7511 19.7252 56.7511 20.0853C56.7511 20.4453 56.8756 20.4453 56.8756 20.8054C56.8756 21.1654 56.483 21.1654 56.483 21.5255C56.483 21.8855 56.8826 21.8855 56.8826 22.2456C56.8826 22.6056 56.573 22.6056 56.573 22.9657C56.573 23.3258 56.8099 23.3258 56.8099 23.6858C56.8099 24.0459 56.3845 24.1013 56.4606 24.4544C56.5315 24.7608 56.9258 24.7989 56.6041 24.9633Z" fill="#F3F5F4"/>
</g>
</g>
<g id="Group_23">
<g id="Group_24">
<path id="Vector_21" d="M44.8069 40.0388H44.001V41.2678H44.8069V40.0388Z" fill="#7DB8B5"/>
<path id="Vector_22" fill-rule="evenodd" clip-rule="evenodd" d="M46.5539 42.2321L43.209 40.1877L39.9229 42.2321V47.4598H46.5539V42.2321Z" fill="#9CDAD7"/>
<path id="Vector_23" fill-rule="evenodd" clip-rule="evenodd" d="M39.9229 42.3221L43.0568 40.2812L43.209 40.1877L44.2795 40.8421L46.5539 42.3221V42.9003L43.2384 40.7417L39.9229 42.9003V42.3221Z" fill="#7DB8B5"/>
<path id="Vector_24" d="M46.5731 47.4597H39.9058V47.844H46.5731V47.4597Z" fill="#007976"/>
<path id="Vector_25" fill-rule="evenodd" clip-rule="evenodd" d="M39.1152 42.5679L43.2384 39.8831L47.3616 42.5679L46.9172 42.857L43.2384 40.4595L39.5597 42.857L39.1152 42.5679Z" fill="#007976"/>
<g id="Group_25">
<path id="Vector_26" d="M44.9716 43.2793H41.5073V46.2047H44.9716V43.2793Z" fill="#2C4B5F"/>
<path id="Vector_27" d="M44.7641 43.48H41.7114V46.0073H44.7641V43.48Z" fill="#EBFDFF"/>
<path id="Vector_28" d="M44.8403 44.3577H41.6372V44.5498H44.8403V44.3577Z" fill="#2C4B5F"/>
</g>
</g>
<g id="Group_26">
<path id="Vector_29" d="M46.0436 43.887H45.7046V47.6277H46.0436V43.887Z" fill="#2C4B5F"/>
<path id="Vector_30" d="M46.0436 43.887H45.7046V44.4911H46.0436V43.887Z" fill="#182F3B"/>
<path id="Vector_31" fill-rule="evenodd" clip-rule="evenodd" d="M43.1467 41.6504H48.6034C48.7625 41.6504 48.8922 41.7802 48.8922 41.9395V43.8696C48.8922 44.0288 48.7625 44.1587 48.6034 44.1587H43.1467C42.9876 44.1587 42.8579 44.0288 42.8579 43.8696V41.9395C42.8579 41.7802 42.9876 41.6504 43.1467 41.6504Z" fill="#007976"/>
<path id="Vector_32" d="M46.8513 47.541H44.897V47.9357H46.8513V47.541Z" fill="#2C4B5F"/>
<path id="Vector_33" d="M48.6344 41.8772H43.1138V43.9319H48.6344V41.8772Z" fill="#EBFDFF"/>
<path id="Vector_34" fill-rule="evenodd" clip-rule="evenodd" d="M44.4854 42.6215C44.456 42.4121 44.2727 42.3221 44.098 42.3221C43.9665 42.3221 43.8282 42.374 43.7521 42.4744C43.7036 42.5384 43.6829 42.6146 43.6898 42.6908V42.689C43.7071 42.9279 43.9164 42.966 44.0945 42.9851C44.2087 42.9972 44.3263 43.011 44.3453 43.0976C44.3488 43.1114 44.3505 43.1253 44.3505 43.1374C44.3505 43.2551 44.2173 43.3243 44.0945 43.3243C43.989 43.3243 43.8593 43.2689 43.8489 43.1633V43.1703L43.8472 43.146L43.6812 43.1495L43.6829 43.1807C43.7036 43.3849 43.9181 43.4888 44.0945 43.4888C44.3003 43.4888 44.5182 43.3607 44.5182 43.1408C44.5182 43.1183 44.5148 43.0906 44.5096 43.0664C44.4664 42.8829 44.2709 42.8431 44.1153 42.8223C43.9925 42.8102 43.8645 42.7964 43.8558 42.6787C43.8524 42.6388 43.861 42.6025 43.8835 42.5731C43.9285 42.5142 44.0132 42.4882 44.0911 42.4865C44.1914 42.4848 44.3021 42.5298 44.3245 42.6319L44.4854 42.6215ZM45.722 42.9037C45.722 43.0214 45.6753 43.1235 45.6009 43.1997C45.5248 43.2759 45.4176 43.3243 45.3052 43.3243C45.1928 43.3243 45.089 43.2776 45.0129 43.1997C44.9385 43.1253 44.8901 43.0197 44.8901 42.9037C44.8901 42.7877 44.9368 42.6839 45.0129 42.6077C45.0873 42.5315 45.1928 42.4831 45.3052 42.4831C45.4176 42.4831 45.5231 42.5298 45.6009 42.6077C45.6753 42.6839 45.722 42.786 45.722 42.9037ZM44.7258 42.9037C44.7258 43.0647 44.7932 43.2101 44.8953 43.3174C44.9991 43.4247 45.1461 43.4905 45.3069 43.4905C45.4678 43.4905 45.613 43.4247 45.7203 43.3174C45.8223 43.2118 45.8898 43.0664 45.8898 42.9037C45.8898 42.7427 45.8223 42.5973 45.7203 42.4917C45.6148 42.3861 45.4695 42.3186 45.3069 42.3186C45.1478 42.3186 45.0008 42.3861 44.8953 42.4917C44.7932 42.5973 44.7258 42.7427 44.7258 42.9037ZM46.3031 42.3342H46.1388V43.4749H46.8393V43.3105H46.3031V42.3342ZM47.2301 43.3105V42.4986H47.474C47.7386 42.4986 47.8718 42.7029 47.8718 42.9054C47.8718 43.108 47.7386 43.3105 47.474 43.3105H47.2301ZM47.0641 42.3342V43.4749H47.474C47.8476 43.4749 48.0344 43.191 48.0344 42.9054C48.0344 42.6198 47.8476 42.3342 47.474 42.3342H47.0641Z" fill="#007976"/>
</g>
</g>
</g>
<defs>
<clipPath id="clip0_41_20880">
<rect width="68" height="129" fill="white"/>
</clipPath>
</defs>
</svg>
