<?xml version="1.0" encoding="utf-8"?>
<!-- Generator: Adobe Illustrator 27.8.1, SVG Export Plug-In . SVG Version: 6.00 Build 0)  -->
<svg version="1.1" id="Capa_1" xmlns="http://www.w3.org/2000/svg" xmlns:xlink="http://www.w3.org/1999/xlink" x="0px" y="0px"
	 viewBox="0 0 652.59 669.53" style="enable-background:new 0 0 652.59 669.53;" xml:space="preserve">
<style type="text/css">
	.st0{fill:#10352B;}
	.st1{fill:#51CB59;}
	.st2{fill:#A8E6A5;}
	.st3{fill:#DECFF1;}
	.st4{fill:#915FD0;}
	.st5{fill:#C8AFE7;}
	.st6{fill:#80D4F1;}
	.st7{fill:#F3F5F4;}
	.st8{fill:#F2E770;}
	.st9{fill:#FFFFFF;}
	.st10{fill:#F2D54C;}
	.st11{fill-rule:evenodd;clip-rule:evenodd;fill:#F2E770;}
	.st12{fill-rule:evenodd;clip-rule:evenodd;fill:#C8AFE7;}
	.st13{fill-rule:evenodd;clip-rule:evenodd;fill:#915FD0;}
	.st14{fill-rule:evenodd;clip-rule:evenodd;fill:#FD6085;}
	.st15{fill-rule:evenodd;clip-rule:evenodd;fill:#DECFF1;}
	.st16{fill:#00A8E3;}
	.st17{fill:#59A57C;}
	.st18{fill:#7ED4A7;}
	.st19{fill:#EDDFCE;}
	.st20{fill:#DBCBB9;}
	.st21{fill:#FDCE5E;}
	.st22{fill-rule:evenodd;clip-rule:evenodd;fill:#A8E6A5;}
	.st23{fill-rule:evenodd;clip-rule:evenodd;fill:#51CB59;}
	.st24{fill-rule:evenodd;clip-rule:evenodd;fill:#EBFDFF;}
	.st25{fill-rule:evenodd;clip-rule:evenodd;fill:#7DB8B5;}
	.st26{fill-rule:evenodd;clip-rule:evenodd;fill:#9CDAD7;}
	.st27{fill-rule:evenodd;clip-rule:evenodd;fill:#007976;}
	.st28{fill-rule:evenodd;clip-rule:evenodd;fill:#2C4B5F;}
	.st29{fill-rule:evenodd;clip-rule:evenodd;fill:#182F3B;}
</style>
<g>
	<g>
		<g>
			<path class="st5" d="M529.37,160.06c-7.1,0-7.1,1.49-14.19,1.49c-7.1,0-7.1-0.01-14.19-0.01c-7.1,0-7.1,0-14.19,0
				c-7.1,0-7.1-2.14-14.19-2.14c-7.1,0-7.1,1.15-14.19,1.15c-7.1,0-7.1,1.5-14.19,1.5c-7.1,0-7.1-1.83-14.19-1.83
				c-7.1,0-7.1-0.63-14.19-0.63c-7.1,0-7.1,0.34-14.19,0.34c-7.1,0-7.1-0.17-14.19-0.17c-7.1,0-7.1,1.09-14.19,1.09
				c-7.1,0-7.1-1.13-14.19-1.13c-7.1,0-7.1,2.05-14.19,2.05c-7.1,0-7.1-1.29-14.19-1.29c-7.1,0-7.1-0.64-14.19-0.64
				c-7.1,0-7.1,0.06-14.19,0.06c-7.09,0-7.09,2.11-14.19,2.11c-7.1,0-7.1-1.37-14.19-1.37c-7.1,0-7.1,1.67-14.19,1.67
				c-7.1,0-7.1-1.54-14.19-1.54c-7.1,0-7.1-0.94-14.19-0.94c-7.1,0-7.1-0.05-14.19-0.05c-7.1,0-7.1-0.24-14.2-0.24
				c-7.1,0-7.1,1.28-14.19,1.28c-7.1,0-7.1-0.11-14.2-0.11c-7.1,0-7.1-0.34-14.2-0.34c-7.1,0-7.1,0.87-14.2,0.87
				c-7.1,0-7.1-0.55-14.19-0.55c-7.1,0-7.1,1.56-14.2,1.56c-7.1,0-7.1-0.64-14.19-0.64c-7.1,0-7.1-0.05-14.2-0.05
				c-7.1,0-7.1-0.56-14.2-0.56c-4.93,0-9.6,1.11-14.26,2.03c-4.8,0.95-9.27,2.38-13.69,4.21c-4.49,1.86-8.27,4.61-12.27,7.28
				c-4.03,2.7-9.35,3.8-12.76,7.21c-3.41,3.41-5,8.41-7.7,12.43c-2.67,4-6.3,7.53-8.17,12.02c-1.83,4.42-4.04,9.03-4.99,13.83
				c-0.92,4.66-0.64,9.75-0.64,14.68c0,7.22,0.61,7.22,0.61,14.43c0,7.22-0.58,7.22-0.58,14.43c0,7.22,1.73,7.22,1.73,14.43
				c0,7.22-0.38,7.22-0.38,14.43c0,7.22-1.7,7.22-1.7,14.43c0,7.22,1.96,7.22,1.96,14.43c0,7.21-0.02,7.21-0.02,14.43
				c0,7.21,0.37,7.21,0.37,14.43c0,7.22-1.78,7.22-1.78,14.43c0,7.21,0.87,7.21,0.87,14.43c0,7.21-1.72,7.21-1.72,14.43
				c0,7.22,2.75,7.22,2.75,14.43c0,7.22-2.52,7.22-2.52,14.43c0,7.22,0.07,7.22,0.07,14.43c0,7.22,1.33,7.22,1.33,14.43
				c0,7.22-1.54,7.22-1.54,14.43c0,7.22,2.45,7.22,2.45,14.43c0,7.22-1.32,7.22-1.32,14.43c0,7.22,0.78,7.22,0.78,14.44
				c0,7.22,0.05,7.22,0.05,14.43c0,7.22-1.19,7.22-1.19,14.44c0,7.22,0.33,7.22,0.33,14.44c0,4.93,0.97,9.67,1.89,14.33
				c0.95,4.8,2.82,9.16,4.65,13.58c1.86,4.49,2.2,9.86,4.88,13.86c2.7,4.03,6.14,7.78,9.55,11.2c3.41,3.41,7.65,6.14,11.67,8.83
				c4,2.67,8.87,3.76,13.36,5.63c4.42,1.83,8.92,3.01,13.73,3.96c4.66,0.92,9.27,3.4,14.2,3.4c7.1,0,7.1-1.49,14.19-1.49
				c7.1,0,7.1-0.64,14.19-0.64c7.1,0,7.1,2.62,14.19,2.62c7.1,0,7.1-1.88,14.19-1.88c7.1,0,7.1,1.03,14.19,1.03
				c7.1,0,7.1-0.79,14.19-0.79c7.1,0,7.1,0.24,14.19,0.24c7.1,0,7.1,1.25,14.19,1.25c7.1,0,7.1-1.45,14.19-1.45
				c7.1,0,7.1,0.45,14.19,0.45c7.1,0,7.1,0.61,14.19,0.61c7.1,0,7.1-1.56,14.19-1.56c7.1,0,7.1,1.41,14.19,1.41
				c7.1,0,7.1,0.01,14.19,0.01c7.1,0,7.1-2.01,14.19-2.01c7.1,0,7.1,1.81,14.19,1.81c7.09,0,7.09,0.65,14.19,0.65
				c7.1,0,7.1,0.02,14.19,0.02c7.1,0,7.1-0.89,14.19-0.89c7.1,0,7.1-1.82,14.19-1.82c7.1,0,7.1,0.44,14.19,0.44
				c7.1,0,7.1,0.18,14.19,0.18c7.1,0,7.1,1.54,14.2,1.54c7.1,0,7.1-1.5,14.19-1.5c7.1,0,7.1-0.28,14.2-0.28c7.1,0,7.1,2.3,14.2,2.3
				c7.1,0,7.1-2.06,14.2-2.06c7.1,0,7.1,1.36,14.19,1.36c7.1,0,7.1,0.1,14.2,0.1c7.1,0,7.1,0.46,14.19,0.46
				c7.1,0,7.1-0.75,14.2-0.75s7.1,0.12,14.2,0.12c4.93,0,9.79-0.72,14.45-1.64c4.8-0.95,9.13-3.21,13.54-5.04
				c4.49-1.86,8.95-3.64,12.95-6.31c4.03-2.7,8.37-5.14,11.78-8.55s6.06-7.62,8.76-11.64c2.67-4,4.48-8.49,6.35-12.98
				c1.83-4.42,2.88-9.03,3.83-13.84c0.92-4.66,2.07-9.32,2.07-14.25c0-7.22,0.65-7.22,0.65-14.43c0-7.22-0.22-7.22-0.22-14.43
				c0-7.22,1.07-7.22,1.07-14.43c0-7.22-1.52-7.22-1.52-14.43c0-7.22-0.2-7.22-0.2-14.43c0-7.22,0.47-7.22,0.47-14.43
				c0-7.21-1.61-7.21-1.61-14.43c0-7.21,0.03-7.21,0.03-14.43c0-7.22,1.33-7.22,1.33-14.43c0-7.21-0.13-7.21-0.13-14.43
				c0-7.21-0.05-7.21-0.05-14.43c0-7.22-0.8-7.22-0.8-14.43c0-7.22,0.42-7.22,0.42-14.43c0-7.22,1.75-7.22,1.75-14.43
				c0-7.22-2.49-7.22-2.49-14.43c0-7.22,2.07-7.22,2.07-14.43c0-7.22-1.46-7.22-1.46-14.43c0-7.22,2.08-7.22,2.08-14.43
				c0-7.22,0.06-7.22,0.06-14.44c0-7.22-1.79-7.22-1.79-14.43c0-7.22,0.26-7.22,0.26-14.44c0-7.22,0.34-7.22,0.34-14.44
				c0-4.93-1.12-9.65-2.04-14.32c-0.95-4.8-2.9-9.11-4.73-13.53c-1.86-4.49-2.3-9.75-4.98-13.75c-2.7-4.03-6.02-7.81-9.43-11.23
				c-3.41-3.41-8.23-5.19-12.26-7.89c-4-2.67-7.24-7.02-11.73-8.89c-4.42-1.83-9.46-2.7-14.26-3.65
				C539.28,160.57,534.3,160.06,529.37,160.06z"/>
		</g>
		<g>
			<g>
				<path class="st1" d="M510.28,1.46c-6.22-3.71-6.32,0.6-13.34,2.36c-7.02,1.77-7.34,0.49-14.37,2.26
					c-7.02,1.77-6.6,3.45-13.62,5.22c-7.02,1.77-7.19,1.1-14.21,2.86c-7.02,1.77-7.03,1.76-14.05,3.53
					c-7.02,1.77-6.89,2.29-13.91,4.06c-7.02,1.77-7.23,0.94-14.26,2.71c-7.02,1.77-6.71,3.03-13.73,4.79
					c-7.02,1.77-7.24,0.91-14.27,2.67c-7.02,1.77-7.2,1.06-14.22,2.83c-7.02,1.77-7.07,1.57-14.1,3.34
					c-7.02,1.77-6.78,2.75-13.8,4.52c-7.02,1.77-6.92,2.17-13.94,3.94c-7.02,1.77-7.17,1.18-14.2,2.95
					c-7.03,1.77-7.32,0.58-14.35,2.35c-7.02,1.77-6.45,4.04-13.48,5.81c-7.02,1.77-6.96,2.03-13.98,3.8
					c-7.02,1.77-7.02,1.79-14.04,3.56c-7.02,1.77-7.36,0.43-14.38,2.2c-7.02,1.77-7.27,0.79-14.3,2.55
					c-7.02,1.77-6.43,4.11-13.45,5.88c-7.02,1.77-7.53-0.26-14.56,1.5c-7.03,1.77-7.02,1.78-14.05,3.55
					c-7.02,1.77-7.15,1.25-14.18,3.01c-7.02,1.77-6.85,2.48-13.87,4.24c-7.02,1.77-6.89,2.32-13.91,4.08
					c-7.03,1.77-6.65,3.26-13.68,5.03c-7.02,1.77-7.07,1.58-14.1,3.35c-7.03,1.77-7.2,1.08-14.22,2.85c-7.03,1.77-7.47,0-14.5,1.77
					c-7.03,1.77-6.87,2.41-13.89,4.17c-7.02,1.77-7.14,1.31-14.17,3.07c-7.03,1.77-6.53,3.73-13.56,5.5
					c-7.02,1.77-7.32,0.61-14.34,2.38c-7.03,1.77-7.03,1.75-14.06,3.52S9.1,121.4,5.37,127.62c-3.72,6.19,1.7,6.88,3.46,13.89
					c1.76,7.01,2.32,6.87,4.09,13.87c1.76,7.01,0.82,7.24,2.58,14.25c1.76,7.01,2.14,6.91,3.9,13.92c1.76,7,0.8,7.25,2.57,14.25
					c1.76,7.01,1.29,7.12,3.06,14.13c1.76,7.01,4.17,6.4,5.93,13.41c1.76,7.01,0.06,7.43,1.82,14.44c1.76,7.01,2.09,6.92,3.85,13.93
					c1.76,7.01,1.33,7.12,3.09,14.12c1.76,7.01,2.98,6.7,4.74,13.71c1.76,7.01,1.62,7.04,3.38,14.05c1.76,7.01,0.54,7.31,2.3,14.32
					c1.76,7.01,2.17,6.91,3.93,13.91c1.76,7.01,1,7.2,2.77,14.21c1.76,7.01,3.29,6.62,5.05,13.63c1.76,7.01,0.75,7.26,2.52,14.27
					c1.76,7.01,3.69,6.52,5.45,13.53c1.76,7.01,1.81,7,3.57,14.01s-3.21,9.43,2.99,13.13c6.22,3.71,6.24-0.82,13.26-2.59
					c7.02-1.77,6.84-2.5,13.86-4.26c7.02-1.77,7.02-1.77,14.05-3.53c7.02-1.77,7.49,0.1,14.52-1.66c7.02-1.77,6.74-2.89,13.77-4.65
					c7.02-1.77,7.27-0.8,14.29-2.56c7.02-1.77,7.03-1.73,14.06-3.5c7.02-1.77,6.61-3.42,13.63-5.18c7.02-1.77,6.9-2.26,13.92-4.03
					c7.02-1.77,7.18-1.14,14.2-2.91c7.02-1.77,7.32-0.61,14.34-2.37c7.02-1.77,6.63-3.32,13.66-5.08c7.02-1.77,7.41-0.23,14.43-2
					c7.02-1.77,7.2-1.08,14.22-2.85c7.03-1.77,6.5-3.86,13.52-5.63c7.02-1.77,7.28-0.76,14.3-2.52c7.02-1.77,7.34-0.5,14.37-2.27
					c7.02-1.77,6.96-2.01,13.99-3.77c7.02-1.77,7.08-1.56,14.1-3.33c7.02-1.77,6.55-3.67,13.57-5.44c7.02-1.77,7.02-1.76,14.05-3.52
					c7.02-1.77,7.52,0.21,14.54-1.56c7.03-1.77,6.38-4.34,13.4-6.11c7.02-1.77,7.52,0.19,14.54-1.57c7.02-1.77,6.73-2.92,13.76-4.69
					c7.02-1.77,7.34-0.51,14.37-2.27c7.03-1.77,7.08-1.56,14.1-3.33c7.02-1.77,6.99-1.91,14.01-3.68c7.03-1.77,7.02-1.8,14.04-3.57
					c7.03-1.77,6.81-2.61,13.84-4.37c7.03-1.77,6.75-2.86,13.78-4.62c7.02-1.77,7.01-1.82,14.04-3.58
					c7.03-1.77,7.53,0.24,14.56-1.53c7.02-1.77,6.58-3.54,13.6-5.31c7.03-1.77,7.18-1.16,14.21-2.92c7.03-1.77,10.14,2.82,13.88-3.4
					c3.72-6.19-2.02-6.72-3.78-13.73c-1.76-7.01-1.17-7.16-2.93-14.16c-1.76-7.01-0.92-7.22-2.68-14.23
					c-1.76-7.01-3.34-6.61-5.11-13.62c-1.76-7,0.28-7.52-1.48-14.52c-1.76-7.01-4.33-6.36-6.09-13.37
					c-1.76-7.01,0.86-7.67-0.9-14.67c-1.76-7.01-3.16-6.66-4.92-13.66c-1.76-7.01-2.68-6.78-4.44-13.78
					c-1.76-7.01,0.35-7.54-1.41-14.54c-1.76-7.01-1.67-7.03-3.44-14.04c-1.76-7.01-3.5-6.57-5.26-13.58
					c-1.76-7.01-0.31-7.37-2.07-14.38c-1.76-7.01-2.42-6.84-4.18-13.85c-1.76-7.01-3.3-6.62-5.06-13.63
					c-1.76-7.01,0.02-7.45-1.74-14.46c-1.76-7.01-1.63-7.04-3.4-14.05c-1.76-7.01-1.93-6.96-3.7-13.97
					c-1.76-7.01-3.66-6.66-4.14-13.87C514.02,7.13,516.49,5.17,510.28,1.46z"/>
			</g>
			<g>
				<path class="st2" d="M99.35,368.24c-6.27-3.92,0.12-8.7-1.68-15.86c-1.8-7.17-3.09-6.84-4.9-14.01
					c-1.8-7.17-0.94-7.38-2.75-14.55c-1.8-7.17-1.24-7.31-3.05-14.48c-1.8-7.17-4.08-6.6-5.88-13.76c-1.8-7.17-0.35-7.53-2.15-14.7
					c-1.8-7.17-1.44-7.26-3.25-14.43c-1.8-7.17-2.35-7.03-4.15-14.2c-1.8-7.17-2.34-7.03-4.14-14.2c-1.8-7.17-1.68-7.2-3.49-14.37
					c-1.8-7.17-1.05-7.36-2.86-14.52c-1.8-7.17-1.08-7.35-2.89-14.52c-1.8-7.17-3.15-6.83-4.96-14c-1.8-7.17-0.4-7.53-2.2-14.7
					c-1.8-7.17-9.11-7.83-5.45-14.26c3.52-6.17,7.64-0.26,14.53-1.99c6.88-1.73,6.39-3.69,13.27-5.43c6.88-1.73,7.07-0.97,13.96-2.7
					c6.88-1.73,6.93-1.55,13.81-3.28c6.88-1.73,7.07-0.99,13.95-2.72c6.88-1.73,6.43-3.54,13.31-5.27
					c6.88-1.73,7.19-0.51,14.07-2.24c6.88-1.73,6.43-3.51,13.32-5.25c6.88-1.73,7.53,0.83,14.41-0.91
					c6.88-1.73,6.36-3.81,13.24-5.55c6.88-1.73,7.27-0.18,14.16-1.91c6.88-1.73,6.52-3.17,13.4-4.9c6.88-1.73,6.91-1.62,13.79-3.35
					c6.88-1.73,6.7-2.45,13.59-4.18c6.88-1.73,7.02-1.19,13.9-2.92c6.88-1.73,6.75-2.26,13.63-3.99c6.88-1.73,7.47,0.6,14.35-1.13
					c6.88-1.73,6.59-2.9,13.47-4.63c6.88-1.73,7.01-1.23,13.89-2.97c6.88-1.73,6.71-2.44,13.59-4.17c6.88-1.73,7.12-0.81,14-2.54
					c6.88-1.73,6.55-3.05,13.44-4.78c6.88-1.73,7.23-0.35,14.12-2.08c6.88-1.73,6.9-1.68,13.78-3.41c6.88-1.73,6.53-3.14,13.41-4.87
					c6.88-1.73,7.28-0.17,14.16-1.91c6.88-1.73,7.06-1.01,13.95-2.74c6.88-1.73,6.75-2.25,13.64-3.98
					c6.89-1.73,6.95-1.47,13.84-3.21c6.88-1.73,6.23-4.33,13.12-6.06c6.89-1.73,7.48,0.63,14.37-1.11
					c6.89-1.73,7.22-7.72,13.24-3.95c6.27,3.92,2.04,6.71,3.84,13.88c1.8,7.17,3.13,6.83,4.94,14c1.8,7.17-0.73,7.8,1.07,14.97
					c1.8,7.17,3.3,6.79,5.1,13.96c1.8,7.17,0.28,7.55,2.08,14.72c1.8,7.17,3.78,6.67,5.58,13.84c1.8,7.17,1.62,7.22,3.42,14.38
					c1.8,7.17,2.1,7.09,3.9,14.26c1.8,7.17,0.68,7.45,2.49,14.62c1.8,7.17,3.01,6.87,4.81,14.04c1.8,7.17,2,7.12,3.8,14.29
					c1.8,7.17-0.44,7.73,1.36,14.91c1.8,7.17,3.67,6.7,5.47,13.87c1.8,7.17,1.26,7.31,3.06,14.48c1.8,7.17,6.02,7.33,2.36,13.76
					c-3.52,6.17-5.44,3.71-12.33,5.44c-6.88,1.73-7.05,1.06-13.93,2.79c-6.88,1.73-6.86,1.82-13.75,3.55
					c-6.88,1.73-7.17,0.6-14.05,2.33c-6.88,1.73-6.8,2.05-13.69,3.78c-6.88,1.73-6.72,2.38-13.6,4.11
					c-6.88,1.73-6.81,2.02-13.69,3.75c-6.88,1.73-7,1.28-13.88,3.01c-6.88,1.73-6.93,1.52-13.82,3.26
					c-6.88,1.73-6.91,1.64-13.79,3.37c-6.88,1.73-6.65,2.68-13.53,4.41c-6.88,1.73-6.9,1.66-13.78,3.4
					c-6.88,1.73-7.4-0.31-14.28,1.42c-6.88,1.73-6.75,2.27-13.63,4c-6.88,1.73-6.47,3.39-13.35,5.13
					c-6.88,1.73-6.97,1.39-13.85,3.12c-6.88,1.73-7.36-0.17-14.24,1.56c-6.88,1.73-6.64,2.71-13.52,4.44
					c-6.88,1.73-7.01,1.23-13.9,2.96c-6.88,1.73-6.67,2.6-13.55,4.33c-6.88,1.73-6.63,2.73-13.51,4.47
					c-6.88,1.73-7.06,1.04-13.94,2.77c-6.88,1.73-7.31,0.02-14.2,1.76c-6.88,1.73-6.73,2.36-13.61,4.09
					c-6.88,1.73-7.06,1.02-13.95,2.75c-6.88,1.73-6.43,3.54-13.32,5.27c-6.88,1.73-6.71,2.4-13.6,4.13c-6.88,1.73-7,1.28-13.88,3.01
					c-6.89,1.73-7.07,0.99-13.96,2.72c-6.88,1.73-6.84,1.92-13.72,3.65c-6.89,1.73-6.92,1.09-13.19,4.44
					C107.34,368.62,105.37,372.01,99.35,368.24z"/>
			</g>
			<g>
				<path class="st17" d="M486.38,41.44c6.7,3.95,1.3,7.4,3.19,14.94c1.9,7.54,2.17,7.47,4.06,15.01c1.9,7.54,3.59,7.12,5.48,14.66
					c1.9,7.54,1.01,7.77,2.66,15.37c-0.47,0.13-1.15-0.42-1.63-0.3c-4.56,1.15-8.94,3.02-13.45,3.13c-4.66,0.11-9.15-1.46-13.6-2.38
					c-4.53-0.93-8.78-2.37-12.94-4.26c-4.19-1.91-7.96-4.31-11.62-7.09c-3.64-2.77-7.22-5.55-10.19-9.09
					c-2.92-3.49-4.84-7.59-6.94-11.74c-2.04-4.02-4.16-7.99-5.31-12.55c-0.07-0.26-0.18,0.67-0.22,0.41
					c7.59-2.04,7.04-4.18,14.66-6.09c7.62-1.92,8.28,0.69,15.9-1.23c7.62-1.92,8.08-1.3,15.16-4.71
					C479.02,41.94,479.61,37.44,486.38,41.44z"/>
			</g>
			<g>
				<path class="st17" d="M524.3,191.01c1.88,6.45,0.27,6.86,1.9,13.37c1.64,6.52,2.89,6.2,4.53,12.72
					c1.64,6.51,1.67,6.51,3.31,13.02c1.64,6.52,1.59,6.53,3.23,13.05c1.64,6.52,8.02,8.03,4.14,13.52
					c-4.52,6.39-7.97,2.79-15.57,4.7c-7.59,1.91-7.8,1.08-15.4,2.99c-7.59,1.91-7.98,0.36-15.58,2.27
					c-7.59,1.91-7.04,4.84-14.81,5.83c-0.64-1.8-2.32-4.42-2.8-6.31c-1.15-4.56-1.28-9.36-1.39-13.87
					c-0.11-4.66,1.24-9.18,2.16-13.63c0.93-4.53,2.96-8.55,4.86-12.71c1.91-4.19,3.35-8.55,6.14-12.21
					c2.77-3.64,5.26-7.8,8.81-10.76c3.49-2.92,8.1-4.45,12.25-6.56c4.02-2.04,7.87-5.26,12.42-6.41
					C522.99,189.89,523.82,191.12,524.3,191.01z"/>
			</g>
			<g>
				<path class="st17" d="M157.92,346.51c0.48,1.89,0.95,3.02,1.24,4.91c-7.13,2.75-7.43,1.44-14.84,3.31
					c-7.41,1.86-7.16,2.85-14.57,4.72c-7.41,1.87-7.29,2.37-14.7,4.24s-7.91,6.39-14.71,2.9c-5.98-3.07-1.34-6.22-2.98-12.73
					c-1.64-6.52-1.37-6.59-3.01-13.1c-1.64-6.52-3.26-6.11-4.9-12.63c-1.64-6.52-0.7-6.76-2.35-13.28
					c-1.64-6.52-5.05-6.41-4.44-13.11c4.56-1.15,10.21-0.62,14.71-0.72c4.65-0.11,9.51-2.12,13.97-1.2
					c4.53,0.93,8.13,4.86,12.29,6.76c4.18,1.91,9.03,2.69,12.68,5.47c3.64,2.77,5.61,7.29,8.57,10.84
					c2.91,3.49,6.78,6.34,8.89,10.49C155.82,337.39,156.77,341.95,157.92,346.51z"/>
			</g>
			<g>
				<path class="st1" d="M105.68,137.46c0.08,0.25,0.69-0.17,0.76,0.09c1.15,4.56,2.02,9.27,2.13,13.78
					c0.11,4.65-2.63,8.99-3.54,13.44c-0.93,4.53-0.3,9.52-2.19,13.68c-1.91,4.18-3.95,8.61-6.73,12.27
					c-2.77,3.64-7.5,5.58-11.05,8.54c-3.49,2.92-6.18,7.33-10.33,9.44c-4.02,2.04-8.6,2.21-13.15,3.36c-4-6.67-2.61-7.24-4.51-14.78
					c-1.9-7.54-1.47-7.65-3.37-15.19c-1.9-7.54-2.23-7.46-4.13-15.01s-7.87-8.67-3.92-15.38c3.89-6.61,8.03-0.82,15.48-2.69
					c7.44-1.87,7.26-2.58,14.7-4.45c7.45-1.87,7.64-1.04,15.11-2.78C98.4,140.03,98.2,139.21,105.68,137.46z"/>
			</g>
			<g>
				<path class="st1" d="M485.9,42.25c6.7,3.95,3.7,6.11,5.59,13.65c1.9,7.54,0.23,7.96,2.12,15.5c1.9,7.54,1.56,7.63,3.46,15.17
					c1.9,7.54,4.29,6.99,5.95,14.58c-0.47,0.13-1.98,1.52-2.46,1.64c-4.56,1.15-9.36,1.37-13.87,1.47
					c-4.66,0.11-9.47,0.11-13.93-0.81c-4.53-0.93-8.61-3.61-12.77-5.5c-4.19-1.91-8.25-4.05-11.91-6.84
					c-3.64-2.77-7.69-5.37-10.65-8.92c-2.92-3.49-5.9-7.34-8.01-11.49c-2.04-4.02-3.78-8.6-4.92-13.16
					c-0.07-0.26,1.34-0.03,1.29-0.28c7.59-2.04,7.32-3.07,14.94-4.99c7.62-1.92,8.03-0.31,15.65-2.23
					c7.62-1.92,7.84-1.71,14.99-4.97C478.55,41.79,479.13,38.25,485.9,42.25z"/>
			</g>
			<g>
				<path class="st1" d="M522.61,190.42c0.48-0.12,1.12,0.72,1.6,0.62c1.88,6.45,1.82,6.46,3.46,12.98
					c1.64,6.52,1.73,6.49,3.37,13.01c1.64,6.51,0.39,6.83,2.03,13.34c1.64,6.52,3.53,6.04,5.17,12.56
					c1.64,6.52,6.15,7.64,2.27,13.13c-4.52,6.39-7.24,2.76-14.83,4.67c-7.59,1.91-7.42,2.61-15.01,4.52
					c-7.59,1.91-7.63,1.76-15.23,3.67c-7.59,1.91-7.65,2.25-15.42,3.24c-0.64-1.8-1.15-4.38-1.63-6.27
					c-1.15-4.56-2.64-9.07-2.74-13.58c-0.11-4.66,1.31-9.22,2.22-13.67c0.93-4.53,1.37-9.31,3.27-13.47
					c1.91-4.19,5.86-7.17,8.65-10.83c2.77-3.64,4.31-8.59,7.86-11.56c3.49-2.92,8.54-3.73,12.69-5.84
					C514.37,194.89,518.06,191.57,522.61,190.42z"/>
			</g>
			<g>
				<path class="st7" d="M378.61,187.22c-1.19-4.74-2.62-9.25-4.48-13.62c-1.91-4.48-3.79-8.87-6.33-12.9
					c-2.58-4.11-6.36-7.15-9.51-10.75c-3.18-3.64-5.2-8.39-8.88-11.46c-3.7-3.09-7.26-6.68-11.39-9.15
					c-4.13-2.47-8.93-4.03-13.4-5.83c-4.45-1.79-9.62-1.29-14.33-2.38c-4.66-1.07-9.19-2.32-14.03-2.65
					c-4.75-0.32-9.61-1.88-14.46-1.44c-4.72,0.43-9.22,2.81-13.97,4.01c-4.74,1.19-8.92,3.37-13.28,5.23
					c-4.48,1.91-8.58,3.99-12.61,6.52c-4.11,2.58-7.85,5.27-11.45,8.42c-3.64,3.18-6.76,6.58-9.83,10.26
					c-3.09,3.7-7.93,6.15-10.39,10.28c-2.47,4.13-4.38,8.73-6.18,13.2c-1.79,4.45-3.83,9.04-4.91,13.75
					c-1.07,4.66-1.29,9.67-1.62,14.51c-0.32,4.75,1.01,9.59,1.45,14.43c0.43,4.72,1.44,9.35,2.63,14.09
					c1.19,4.74,1.77,9.6,3.62,13.97c1.91,4.48,4.79,8.4,7.32,12.44c2.58,4.11,5.79,7.6,8.93,11.2c3.18,3.64,5.84,7.74,9.52,10.81
					c3.7,3.09,7.22,6.63,11.35,9.1c4.13,2.47,8.94,3.83,13.41,5.63c4.45,1.79,9.32,2.15,14.03,3.24c4.66,1.07,9.2,2.91,14.03,3.23
					c4.75,0.32,9.61,0.48,14.46,0.04c4.72-0.43,9.33-2.02,14.08-3.22c4.74-1.19,9.88-1.21,14.24-3.07
					c4.48-1.91,8.41-5.03,12.44-7.57c4.11-2.58,7.68-5.84,11.28-8.99c3.64-3.18,7.6-6.09,10.67-9.77c3.09-3.7,5.57-7.92,8.04-12.05
					c2.47-4.13,5.67-8.05,7.47-12.52c1.79-4.45,0.66-9.85,1.74-14.56c1.07-4.66,2-9.19,2.32-14.02c0.32-4.75,0.87-9.44,0.43-14.29
					C380.62,196.62,379.8,191.97,378.61,187.22z"/>
			</g>
			<g>
				<path class="st17" d="M182.06,236.67c-1.11-4.4-3.71-7.92-6.26-11.35c-2.64-3.55-5.83-6.18-9.57-8.42
					c-3.74-2.24-7.65-3.21-12.03-3.86c-4.22-0.62-8.51-1.98-12.91-0.87c-4.4,1.11-8.03,3.65-11.46,6.2
					c-3.55,2.64-7.27,5.29-9.5,9.03c-2.24,3.74-1.8,8.41-2.45,12.79c-0.62,4.22-0.84,8.15,0.27,12.55c1.11,4.4,0.89,9.44,3.44,12.87
					c2.64,3.55,7.75,4.5,11.49,6.74c3.74,2.24,7.41,3.48,11.78,4.13c4.22,0.62,8.61,2.69,13.01,1.58c4.4-1.11,8.31-3.63,11.73-6.18
					c3.55-2.64,6.62-5.98,8.85-9.72c2.24-3.74,3.41-8.07,4.06-12.45C183.13,245.49,183.16,241.07,182.06,236.67z"/>
			</g>
			<g>
				<path class="st1" d="M460.13,166.72c-1.11-4.4-1.41-9.01-3.95-12.44c-2.64-3.55-5.94-6.96-9.68-9.2
					c-3.74-2.24-8.45-2.56-12.82-3.21c-4.22-0.62-8.85-1.91-13.25-0.8c-4.4,1.11-8.09,4.14-11.51,6.68
					c-3.55,2.64-7.63,5.27-9.86,9.01c-2.24,3.74-3.56,8.44-4.21,12.81c-0.62,4.22,0.63,8.73,1.73,13.13
					c1.11,4.4,2.97,8.35,5.51,11.77c2.64,3.55,6.43,5.62,10.17,7.86c3.74,2.24,7.33,4.8,11.71,5.45c4.22,0.62,8.96,1.58,13.36,0.48
					s7.6-4.89,11.03-7.44c3.55-2.64,5.88-5.98,8.11-9.72c2.24-3.74,5.21-7.2,5.86-11.58C462.95,175.29,461.23,171.12,460.13,166.72z
					"/>
			</g>
		</g>
		<g>
			<path class="st4" d="M529.37,203.32c-7.1,0-7.1,1.19-14.19,1.19c-7.1,0-7.1-2.98-14.19-2.98c-7.1,0-7.1,1.6-14.19,1.6
				c-7.1,0-7.1-1.11-14.19-1.11c-7.1,0-7.1,0.19-14.19,0.19c-7.1,0-7.1,2.25-14.19,2.25c-7.1,0-7.1-1.66-14.19-1.66
				c-7.1,0-7.1-1.19-14.19-1.19c-7.1,0-7.1,1.59-14.19,1.59c-7.1,0-7.1,0.03-14.19,0.03c-7.1,0-7.1-1.2-14.19-1.2
				c-7.1,0-7.1-0.46-14.19-0.46c-7.1,0-7.1,1.89-14.19,1.89c-7.1,0-7.1,0.28-14.19,0.28c-7.1,0-7.1-0.06-14.19-0.06
				c-7.1,0-7.1,0.56-14.19,0.56c-7.09,0-7.09-2.27-14.19-2.27c-7.1,0-7.1,1.08-14.19,1.08c-7.1,0-7.1,0.19-14.19,0.19
				c-7.1,0-7.1,0.76-14.19,0.76c-7.1,0-7.1,0.08-14.19,0.08c-7.1,0-7.1-1.53-14.19-1.53c-7.1,0-7.1-0.72-14.2-0.72
				c-7.1,0-7.1,2.61-14.19,2.61c-7.1,0-7.1-1.43-14.2-1.43c-7.1,0-7.1-1.28-14.2-1.28c-7.1,0-7.1,1.33-14.2,1.33
				c-7.1,0-7.1,0.6-14.19,0.6c-7.1,0-7.1-1.14-14.2-1.14c-7.1,0-7.1,1.3-14.19,1.3c-7.1,0-7.1,0.08-14.2,0.08
				c-7.1,0-7.1,0.23-14.2,0.23c-4.93,0-10.02-2-14.68-1.08c-4.8,0.95-9.13,3.84-13.55,5.67c-4.49,1.86-8.99,3.79-12.99,6.47
				c-4.03,2.7-8.24,5.4-11.66,8.81c-3.41,3.41-5.03,8.36-7.72,12.38c-2.67,4-5.71,7.76-7.57,12.25c-1.83,4.42-2.15,9.26-3.1,14.06
				c-0.92,4.66-1.68,9.25-1.68,14.18c0,7.22-0.74,7.22-0.74,14.43c0,7.22-1.14,7.22-1.14,14.43c0,7.22,1.14,7.22,1.14,14.43
				c0,7.22,0.33,7.22,0.33,14.43c0,7.22-0.32,7.22-0.32,14.43c0,7.22,1.26,7.22,1.26,14.43c0,7.21-0.53,7.21-0.53,14.43
				c0,7.21,0.08,7.21,0.08,14.43c0,7.22,0.48,7.22,0.48,14.43c0,7.21-0.5,7.21-0.5,14.43c0,7.21-0.28,7.21-0.28,14.43
				c0,7.22-0.63,7.22-0.63,14.43c0,7.22,0.15,7.22,0.15,14.43c0,7.22-1.2,7.22-1.2,14.43c0,7.22,1.44,7.22,1.44,14.43
				c0,7.22,0.43,7.22,0.43,14.43c0,7.22-1.47,7.22-1.47,14.43c0,7.22-0.68,7.22-0.68,14.43c0,7.22,1.56,7.22,1.56,14.44
				c0,7.22,0.86,7.22,0.86,14.43c0,7.22-2.02,7.22-2.02,14.44c0,7.22,0.58,7.22,0.58,14.44c0,4.93-0.64,10.04,0.28,14.7
				c0.95,4.8,4.87,8.72,6.7,13.13c1.86,4.49,3.25,9.11,5.92,13.11c2.7,4.03,4.89,8.62,8.3,12.03c3.41,3.41,7.87,5.81,11.9,8.5
				c4,2.67,8.87,3.57,13.36,5.44c4.42,1.83,8.63,3.93,13.43,4.88c4.66,0.92,9.35,2.53,14.28,2.53c7.1,0,7.1-0.83,14.19-0.83
				c7.1,0,7.1-0.56,14.19-0.56c7.1,0,7.1,2.23,14.19,2.23c7.1,0,7.1-0.76,14.19-0.76c7.1,0,7.1,0.45,14.19,0.45
				c7.1,0,7.1,0.07,14.19,0.07c7.1,0,7.1-2.55,14.19-2.55c7.1,0,7.1,0.46,14.19,0.46c7.1,0,7.1,1.79,14.19,1.79
				c7.1,0,7.1-1.02,14.19-1.02c7.1,0,7.1-0.22,14.19-0.22c7.1,0,7.1-1.04,14.19-1.04c7.1,0,7.1,0.45,14.19,0.45
				c7.1,0,7.1,1.44,14.19,1.44c7.1,0,7.1,0.06,14.19,0.06c7.1,0,7.1,0.29,14.19,0.29c7.09,0,7.09-1.32,14.19-1.32
				c7.1,0,7.1-0.83,14.19-0.83c7.1,0,7.1,2.59,14.19,2.59c7.1,0,7.1-1.09,14.19-1.09c7.1,0,7.1,0.85,14.19,0.85
				c7.1,0,7.1-1.31,14.19-1.31c7.1,0,7.1,0.14,14.2,0.14c7.1,0,7.1,0.17,14.19,0.17c7.1,0,7.1-1.29,14.2-1.29
				c7.1,0,7.1,1.32,14.2,1.32c7.1,0,7.1-0.45,14.2-0.45c7.1,0,7.1,1.48,14.19,1.48c7.1,0,7.1-0.95,14.2-0.95
				c7.1,0,7.1-0.49,14.19-0.49c7.1,0,7.1-1.02,14.2-1.02s7.1,0.61,14.2,0.61c4.93,0,9.8,0.59,14.46-0.34
				c4.8-0.95,9.71-1.83,14.13-3.66c4.49-1.86,8.12-5.43,12.11-8.1c4.03-2.7,7.7-5.68,11.12-9.1s8.06-5.98,10.76-10.01
				c2.67-4,3.84-9.03,5.7-13.53c1.83-4.42,2.74-9.16,3.69-13.96c0.92-4.66,1.39-9.38,1.39-14.32c0-7.22,0.99-7.22,0.99-14.43
				c0-7.22-1.69-7.22-1.69-14.43c0-7.22,1.09-7.22,1.09-14.43s0.53-7.22,0.53-14.43c0-7.22-0.58-7.22-0.58-14.43
				c0-7.22-0.15-7.22-0.15-14.43c0-7.21-0.6-7.21-0.6-14.43c0-7.21,1.91-7.21,1.91-14.43c0-7.22-0.15-7.22-0.15-14.43
				c0-7.21,0.61-7.21,0.61-14.43c0-7.21-0.84-7.21-0.84-14.43c0-7.22-0.34-7.22-0.34-14.43c0-7.22-0.94-7.22-0.94-14.43
				c0-7.22,0.47-7.22,0.47-14.43c0-7.22,1.18-7.22,1.18-14.43c0-7.22,0-7.22,0-14.43c0-7.22-1.06-7.22-1.06-14.43
				c0-7.22,0.7-7.22,0.7-14.43c0-7.22-2.05-7.22-2.05-14.44c0-7.22,0.39-7.22,0.39-14.43c0-7.22-0.18-7.22-0.18-14.44
				c0-7.22,1.31-7.22,1.31-14.44c0-4.93-1.23-9.62-2.15-14.28c-0.95-4.8-2-9.45-3.84-13.87c-1.86-4.49-3.68-9.02-6.35-13.02
				c-2.7-4.03-6.77-6.85-10.19-10.26c-3.41-3.41-6.54-7.04-10.56-9.73c-4-2.67-8.55-4.14-13.04-6c-4.42-1.83-8.88-2.96-13.68-3.91
				C538.85,204.86,534.3,203.32,529.37,203.32z"/>
		</g>
		<g>
			<path class="st3" d="M529.37,626c-5.96,0-6.28,2.77-11.71,0.33c-2.44-1.1-2.87-4.31-0.43-5.4c5.44-2.44,6.19,1.16,12.15,1.16
				c2.23,0,3.26-0.04,5.4-0.58c1.59,2.15,3.55,1.8,2.98,4.42C535.18,626.57,532.04,626,529.37,626z M498.02,626.03
				c-9.26,2.58-9.62,2.85-18.88,0.28c-2.58-0.72-2.86-4.69-0.28-5.4c9.26-2.58,9.8-0.52,19.26,1.17
				C500.75,622.55,500.59,625.31,498.02,626.03z M459.57,626.03c-9.26,2.58-9.62,2.85-18.88,0.28c-2.58-0.72-2.86-4.69-0.28-5.4
				c9.26-2.58,9.8-0.52,19.26,1.17C462.3,622.55,462.14,625.31,459.57,626.03z M421.11,626.03c-9.26,2.58-9.62,2.85-18.88,0.28
				c-2.58-0.72-2.86-4.69-0.28-5.4c9.26-2.58,9.8-0.52,19.26,1.17C423.85,622.55,423.69,625.31,421.11,626.03z M382.66,626.03
				c-9.26,2.58-9.62,2.85-18.88,0.28c-2.58-0.72-2.86-4.69-0.28-5.4c9.26-2.58,9.8-0.52,19.26,1.17
				C385.4,622.55,385.24,625.31,382.66,626.03z M344.21,626.03c-9.26,2.58-9.62,2.85-18.88,0.28c-2.58-0.72-2.86-4.69-0.28-5.4
				c9.26-2.58,9.8-0.52,19.26,1.17C346.95,622.55,346.79,625.31,344.21,626.03z M305.76,626.03c-9.26,2.58-9.62,2.85-18.88,0.28
				c-2.58-0.72-2.86-4.69-0.28-5.4c9.26-2.58,9.8-0.52,19.26,1.17C308.5,622.55,308.34,625.31,305.76,626.03z M267.31,626.03
				c-9.26,2.58-9.62,2.85-18.88,0.28c-2.58-0.72-2.86-4.69-0.28-5.4c9.26-2.58,9.8-0.52,19.26,1.17
				C270.05,622.55,269.89,625.31,267.31,626.03z M228.86,626.03c-9.26,2.58-9.62,2.85-18.88,0.28c-2.58-0.72-2.86-4.69-0.28-5.4
				c9.26-2.58,9.8-0.52,19.26,1.17C231.6,622.55,231.44,625.31,228.86,626.03z M190.41,626.03c-9.26,2.58-9.62,2.85-18.88,0.28
				c-2.58-0.72-2.86-4.69-0.28-5.4c9.26-2.58,9.8-0.52,19.26,1.17C193.15,622.55,192.99,625.31,190.41,626.03z M151.96,626.03
				c-9.26,2.58-9.62,2.85-18.88,0.28c-2.58-0.72-2.86-4.69-0.28-5.4c9.26-2.58,9.8-0.52,19.26,1.17
				C154.7,622.55,154.53,625.31,151.96,626.03z M113.51,626.03c-9.26,2.58-9.62,2.85-18.88,0.28c-2.58-0.72-2.86-4.69-0.28-5.4
				c9.26-2.58,9.8-0.52,19.26,1.17C116.25,622.55,116.08,625.31,113.51,626.03z M74.48,626.77c0,0.06,0.73-0.48,0.67-0.48
				c-7.1,0-14.39-1.61-20.06-5.89c-0.73-2.57,1.16-3.55,3.82-3.78c4.73,3.57,10.31,6.3,16.24,6.3c0.06,0,0.63-1.42,0.61-1.36
				C75.16,624.19,74.54,624.1,74.48,626.77z M554.4,613.96c-2.59,0.65-3.32,0.05-3.47-2.63c3.73-4.62,4.9-10.55,5.09-16.46
				c1.86-1.93,3.68-1.25,5.22,0.93C561.02,602.89,558.87,608.43,554.4,613.96z M44.15,602.51c-0.83-2.88-0.93-5.12-0.93-8.14
				c0-5.47-3.41-6.27-1-11.19c1.17-2.4,4.1-1.87,5.27,0.53c2.4,4.91-0.9,5.19-0.9,10.66c0,2.53,2.29,5.24,2.98,7.65
				C48.53,604.35,46.75,603.13,44.15,602.51z M561.03,575.91c-0.72,2.58-3.39,2.65-4.11,0.08c-2.58-9.26-3.6-9.98-1.02-19.24
				c0.72-2.58,3.78-1.62,5.37,0.53C566.95,565,563.61,566.65,561.03,575.91z M47.31,563.99c-0.72,2.58-3.39,2.65-4.11,0.08
				c-2.58-9.26-3.6-9.98-1.02-19.24c0.72-2.58,3.78-1.62,5.37,0.53C53.23,553.08,49.89,554.73,47.31,563.99z M561.03,537.46
				c-0.72,2.58-3.39,2.65-4.11,0.08c-2.58-9.26-3.6-9.98-1.02-19.24c0.72-2.58,3.78-1.62,5.37,0.53
				C566.95,526.55,563.61,528.2,561.03,537.46z M47.31,525.54c-0.72,2.58-3.39,2.65-4.11,0.08c-2.58-9.26-3.6-9.98-1.02-19.24
				c0.72-2.58,3.78-1.62,5.37,0.53C53.23,514.63,49.89,516.28,47.31,525.54z M561.03,499.01c-0.72,2.58-3.39,2.65-4.11,0.08
				c-2.58-9.26-3.6-9.98-1.02-19.24c0.72-2.58,3.78-1.62,5.37,0.53C566.95,488.1,563.61,489.74,561.03,499.01z M47.31,487.09
				c-0.72,2.58-3.39,2.65-4.11,0.08c-2.58-9.26-3.6-9.98-1.02-19.24c0.72-2.58,3.78-1.62,5.37,0.53
				C53.23,476.18,49.89,477.83,47.31,487.09z M561.03,460.55c-0.72,2.58-3.39,2.65-4.11,0.08c-2.58-9.26-3.6-9.98-1.02-19.24
				c0.72-2.58,3.78-1.62,5.37,0.53C566.95,449.65,563.61,451.29,561.03,460.55z M47.31,448.64c-0.72,2.58-3.39,2.65-4.11,0.08
				c-2.58-9.26-3.6-9.98-1.02-19.24c0.72-2.58,3.78-1.62,5.37,0.53C53.23,437.73,49.89,439.38,47.31,448.64z M561.03,422.1
				c-0.72,2.58-3.39,2.65-4.11,0.08c-2.58-9.26-3.6-9.98-1.02-19.24c0.72-2.58,3.78-1.62,5.37,0.53
				C566.95,411.2,563.61,412.84,561.03,422.1z M47.31,410.19c-0.72,2.58-3.39,2.65-4.11,0.08c-2.58-9.26-3.6-9.98-1.02-19.24
				c0.72-2.58,3.78-1.62,5.37,0.53C53.23,399.28,49.89,400.93,47.31,410.19z M561.03,383.65c-0.72,2.58-3.39,2.65-4.11,0.08
				c-2.58-9.26-3.6-9.98-1.02-19.24c0.72-2.58,3.78-1.62,5.37,0.53C566.95,372.75,563.61,374.39,561.03,383.65z M47.31,371.74
				c-0.72,2.58-3.39,2.65-4.11,0.08c-2.58-9.26-3.6-9.98-1.02-19.24c0.72-2.58,3.78-1.62,5.37,0.53
				C53.23,360.83,49.89,362.48,47.31,371.74z M561.03,345.2c-0.72,2.58-3.39,2.65-4.11,0.08c-2.58-9.26-3.6-9.98-1.02-19.24
				c0.72-2.58,3.78-1.62,5.37,0.53C566.95,334.3,563.61,335.94,561.03,345.2z M47.31,333.29c-0.72,2.58-3.39,2.65-4.11,0.08
				c-2.58-9.26-3.6-9.98-1.02-19.24c0.72-2.58,3.78-1.62,5.37,0.53C53.23,322.38,49.89,324.02,47.31,333.29z M561.03,306.75
				c-0.72,2.58-3.39,2.65-4.11,0.08c-2.58-9.26-3.6-9.98-1.02-19.24c0.72-2.58,3.78-1.62,5.37,0.53
				C566.95,295.84,563.61,297.49,561.03,306.75z M47.32,294.82c-0.75,2.57-3.36,2.65-4.11,0.08c-2.57-8.73-1.04-8.95-1.04-18.05
				c0-0.38,0.59-0.11,0.6-0.48c2.67-0.1,2.52,0.76,5.19,1c-0.01,0.31,0.62-0.94,0.62-0.62C50.26,285.67,49.88,286.1,47.32,294.82z
				 M555.8,268.69c-1.61-5.6-5-10.04-9.69-13.57c-0.5-2.63,0.05-4.72,2.72-4.74c5.61,4.22,9.12,10.76,11.05,17.46
				C559.74,270.41,558.08,270.08,555.8,268.69z M54,259.04c-2.64,0.4-3.62,0.1-3.53-2.58c4.43-5.45,10.31-9.91,17.08-11.59
				c2.45,1.07,2,3.12,0.53,5.35C62.43,251.63,57.7,254.49,54,259.04z M529.1,249.02c-9.26,2.58-9.62,2.85-18.88,0.28
				c-2.58-0.72-2.86-4.69-0.28-5.4c9.26-2.58,9.8-0.52,19.26,1.17C531.84,245.54,531.67,248.31,529.1,249.02z M490.65,249.02
				c-9.26,2.58-9.62,2.85-18.88,0.28c-2.58-0.72-2.86-4.69-0.28-5.4c9.26-2.58,9.8-0.52,19.26,1.17
				C493.38,245.54,493.22,248.31,490.65,249.02z M452.2,249.02c-9.26,2.58-9.62,2.85-18.88,0.28c-2.58-0.72-2.86-4.69-0.28-5.4
				c9.26-2.58,9.8-0.52,19.26,1.17C454.93,245.54,454.77,248.31,452.2,249.02z M413.75,249.02c-9.26,2.58-9.62,2.85-18.88,0.28
				c-2.58-0.72-2.86-4.69-0.28-5.4c9.26-2.58,9.8-0.52,19.26,1.17C416.48,245.54,416.32,248.31,413.75,249.02z M375.3,249.02
				c-9.26,2.58-9.62,2.85-18.88,0.28c-2.58-0.72-2.86-4.69-0.28-5.4c9.26-2.58,9.8-0.52,19.26,1.17
				C378.03,245.54,377.87,248.31,375.3,249.02z M336.84,249.02c-9.26,2.58-9.62,2.85-18.88,0.28c-2.58-0.72-2.86-4.69-0.28-5.4
				c9.26-2.58,9.8-0.52,19.26,1.17C339.58,245.54,339.42,248.31,336.84,249.02z M298.39,249.02c-9.26,2.58-9.62,2.85-18.88,0.28
				c-2.58-0.72-2.86-4.69-0.28-5.4c9.26-2.58,9.8-0.52,19.26,1.17C301.13,245.54,300.97,248.31,298.39,249.02z M259.94,249.02
				c-9.26,2.58-9.62,2.85-18.88,0.28c-2.58-0.72-2.86-4.69-0.28-5.4c9.26-2.58,9.8-0.52,19.26,1.17
				C262.68,245.54,262.52,248.31,259.94,249.02z M221.49,249.02c-9.26,2.58-9.62,2.85-18.88,0.28c-2.58-0.72-2.86-4.69-0.28-5.4
				c9.26-2.58,9.8-0.52,19.26,1.17C224.23,245.54,224.07,248.31,221.49,249.02z M183.04,249.02c-9.26,2.58-9.62,2.85-18.88,0.28
				c-2.58-0.72-2.86-4.69-0.28-5.4c9.26-2.58,9.8-0.52,19.26,1.17C185.78,245.54,185.62,248.31,183.04,249.02z M144.59,249.02
				c-9.26,2.58-9.62,2.85-18.88,0.28c-2.58-0.72-2.86-4.69-0.28-5.4c9.26-2.58,9.8-0.52,19.26,1.17
				C147.33,245.54,147.17,248.31,144.59,249.02z M106.14,249.02c-9.26,2.58-9.62,2.85-18.88,0.28c-2.58-0.72-2.86-4.69-0.28-5.4
				c9.26-2.58,9.8-0.52,19.26,1.17C108.88,245.54,108.72,248.31,106.14,249.02z"/>
		</g>
		<g>
			<path class="st3" d="M600.2,361.36c-7.16,0-7.16,0.31-14.32,0.31c-7.16,0-7.16-1.52-14.33-1.52c-7.16,0-7.16,0.08-14.33,0.08
				c-7.16,0-7.16,1.47-14.33,1.47c-7.16,0-7.16-1.33-14.33-1.33c-7.16,0-7.16,1.23-14.33,1.23c-7.16,0-7.16,0.44-14.33,0.44
				c-7.16,0-7.16-0.11-14.33-0.11c-7.17,0-7.17-0.38-14.33-0.38c-7.16,0-7.16,0.29-14.33,0.29c-7.17,0-7.17,0.32-14.34,0.32
				c-7.17,0-7.17-2.76-14.34-2.76c-4.63,0-9.33,1.08-13.61,2.23c-4.42,1.18-7.74,4.86-11.61,7.1c-3.93,2.27-7.61,4.48-10.8,7.67
				c-3.19,3.19-7.83,5.46-10.1,9.39c-2.24,3.87-2.67,8.81-3.86,13.23c-1.14,4.27-2.28,8.76-2.28,13.39c0,7.74-0.76,7.74-0.76,15.47
				c0,7.74,2.02,7.74,2.02,15.47c0,7.74-1.97,7.74-1.97,15.47c0,4.63,1.1,9.31,2.25,13.59c1.18,4.42,2.88,8.86,5.12,12.73
				c2.27,3.93,5.81,7.08,9,10.27c3.19,3.19,6.64,6.2,10.57,8.48c3.87,2.24,8.51,2.57,12.93,3.75c4.27,1.14,8.45,3.56,13.08,3.56
				c7.16,0,7.16-1.69,14.32-1.69c7.16,0,7.16-0.1,14.33-0.1c7.16,0,7.16,2.27,14.33,2.27c7.16,0,7.16-2.61,14.33-2.61
				c7.16,0,7.16,0.14,14.33,0.14c7.16,0,7.16,0.14,14.33,0.14c7.16,0,7.16,0.42,14.33,0.42c7.16,0,7.16,0.27,14.33,0.27
				c7.17,0,7.17-0.98,14.33-0.98c7.16,0,7.16,2.92,14.33,2.92c7.17,0,7.17-2.15,14.34-2.15c7.17,0,7.17-0.15,14.34-0.15
				c4.63,0,9.24,0.72,13.52-0.42c4.42-1.18,8.33-3.66,12.2-5.9c3.93-2.27,8.29-4.17,11.47-7.35c3.19-3.19,6.6-6.67,8.87-10.59
				c2.24-3.87,1.92-9,3.1-13.42c1.14-4.27,3.1-8.54,3.1-13.17c0-7.74-1.13-7.74-1.13-15.47c0-7.74,0.33-7.74,0.33-15.47
				c0-7.74,0.94-7.74,0.94-15.47c0-4.63-1.76-8.99-2.91-13.26c-1.18-4.42-2.81-8.52-5.05-12.39c-2.27-3.93-4.41-8-7.6-11.18
				s-7.32-5.22-11.24-7.5c-3.87-2.24-8.06-3.43-12.48-4.61C609.04,362.32,604.83,361.36,600.2,361.36z"/>
		</g>
		<g>
			<path class="st8" d="M490.93,435.61c0,4.6-0.56,8.63-1.9,12.78c-1.4,4.3-1.92,8.93-4.52,12.51c-2.63,3.61-5.53,7.4-9.14,10.03
				c-3.58,2.6-8.42,3.12-12.71,4.52c-4.15,1.35-8.35,3.86-12.94,3.86c-4.6,0-8.62-3.06-12.77-4.4c-4.3-1.4-7.95-3.25-11.53-5.85
				c-3.61-2.63-7.91-4.52-10.54-8.13c-2.6-3.58-4.1-7.9-5.49-12.2c-1.35-4.15-2.89-8.5-2.89-13.1c0-4.6,2.58-8.62,3.93-12.76
				c1.4-4.3,3.37-7.85,5.98-11.43c2.63-3.61,5.4-6.62,9.01-9.25c3.58-2.6,6.69-6.11,10.99-7.51c4.15-1.35,8.71-1.9,13.31-1.9
				c4.6,0,8.62,2.23,12.76,3.57c4.3,1.4,8.99,1.8,12.57,4.41c3.61,2.63,6.23,6.41,8.86,10.03c2.6,3.58,5.33,7.25,6.72,11.55
				C491.97,426.46,490.93,431.01,490.93,435.61z"/>
		</g>
		<g>
			<path class="st10" d="M466.93,435.61c0,4.86-1.21,9.64-4.4,12.83c-3.19,3.19-7.97,5.72-12.83,5.72c-4.86,0-10.31-1.87-13.5-5.05
				c-3.19-3.19-3.19-8.63-3.19-13.5c0-4.86,0.82-9.49,4.01-12.67c3.19-3.19,7.81-5.4,12.67-5.4c4.86,0,8.67,3.03,11.85,6.22
				C464.74,426.95,466.93,430.75,466.93,435.61z"/>
		</g>
	</g>
</g>
</svg>
