<svg width="1565" height="741" viewBox="0 0 1565 741" fill="none" xmlns="http://www.w3.org/2000/svg">
<path d="M0 0C194.764 0 389.529 0 590.195 0C593.419 5.64667 593.419 5.64667 596.708 11.4074C598.387 13.6605 600.018 15.7668 601.847 17.875C602.767 18.9721 603.685 20.0713 604.6 21.1725C605.052 21.715 605.503 22.2575 605.969 22.8164C608.049 25.3778 609.989 28.0342 611.921 30.7083C612.473 31.4678 612.473 31.4678 613.037 32.2427C614.743 34.5877 616.44 36.9388 618.125 39.2989C622.105 44.7073 626.432 49.358 631.255 54.0324C641.272 63.8309 647.812 75.1212 654.929 87.1215C658.824 93.6611 662.917 99.8739 667.531 105.926C667.914 106.432 668.297 106.939 668.692 107.46C670.851 110.314 673.024 113.156 675.208 115.99C677.298 118.706 679.368 121.437 681.427 124.177C686.861 131.392 692.249 138.474 698.466 145.037C700.407 147.175 702.293 149.356 704.164 151.556C704.512 151.96 704.859 152.364 705.217 152.78C711.903 160.596 717.734 168.851 723.452 177.396C727.62 183.603 731.987 189.577 736.583 195.47C739.429 199.121 742.144 202.864 744.867 206.606C749.701 213.223 754.766 219.613 759.989 225.925C761.035 227.196 762.066 228.478 763.094 229.762C766.762 234.337 770.617 238.668 774.625 242.942C777.22 245.725 779.648 248.585 782.009 251.574C785.499 255.939 789.453 259.582 793.711 263.185C793.121 263.656 792.531 264.126 791.924 264.611C789.827 266.294 787.748 267.995 785.672 269.704C784.882 270.345 784.092 270.987 783.278 271.648C781.498 273.099 779.752 274.581 778.018 276.085C770.229 282.724 761.809 287.51 752.743 292.205C750.097 293.576 747.468 294.974 744.838 296.374C743.134 297.28 741.428 298.183 739.722 299.085C739.208 299.357 738.693 299.629 738.163 299.909C736.89 300.58 735.616 301.249 734.342 301.918C726.14 306.29 718.272 311.279 710.598 316.519C703.425 321.413 695.971 325.805 688.467 330.166C676.088 337.405 663.903 345.18 657.406 358.468C655.533 368.676 658.726 376.628 664.065 385.255C670.76 394.396 681.777 400.26 692.767 402.519C712.927 405.535 736.361 406.1 756.468 402.926C768.36 401.093 780.037 400.605 791.936 402.745C792.504 402.846 793.071 402.948 793.656 403.053C796.097 403.495 798.537 403.94 800.976 404.399C810.443 406.142 819.74 406.791 829.355 406.879C830.495 406.894 831.636 406.908 832.776 406.923C839.624 407.004 839.624 407.004 846.471 406.944C861.06 406.671 870.851 407.77 881.68 418.108C882.2 418.61 882.721 419.112 883.258 419.63C884.415 420.675 885.575 421.717 886.74 422.754C890.529 426.143 894.161 429.665 897.669 433.345C902.736 438.657 908.138 442.933 914.131 447.163C922.539 453.141 929.77 460.346 937.027 467.639C938.364 468.981 939.704 470.318 941.045 471.655C945.135 475.746 949.133 479.87 952.888 484.276C954.634 486.257 956.571 488.014 958.508 489.806C964.779 495.874 968.262 503.258 971.94 511.093C974.422 516.164 977.801 519.951 981.759 523.926C982.179 524.369 982.598 524.813 983.03 525.27C986.412 528.789 989.976 531.553 994.021 534.264C1003.12 540.537 1011.24 547.534 1018.92 555.484C1020.78 557.284 1022.7 558.73 1024.8 560.236C1029.17 563.614 1031.93 567.771 1034.99 572.293C1037.74 576.348 1040.65 580.129 1043.88 583.815C1044.29 584.283 1044.7 584.751 1045.12 585.234C1045.9 586.123 1046.68 587.011 1047.46 587.9C1050.88 591.843 1053.92 595.956 1056.7 600.366C1058.74 603.499 1060.83 605.002 1063.98 607.037C1067.24 610.762 1070.24 614.553 1070.8 619.565C1070.43 623.083 1069.49 624.713 1067.24 627.407C1064.48 629.23 1062.15 629.232 1058.89 629.19C1058.01 629.185 1057.14 629.179 1056.23 629.174C1053.4 629.037 1053.4 629.037 1050.46 628.63C1047.62 628.248 1044.84 628.16 1041.98 628.136C1024.92 627.974 1009.41 625.136 993.579 618.756C989.898 617.309 986.162 616.149 982.37 615.032C980.642 614.521 978.931 613.949 977.231 613.352C973.112 612.452 968.852 612.149 964.664 612.741C961.71 617.176 962.397 623.057 963.036 628.222C964.735 636.182 968.141 643.634 971.655 650.93C975.534 659.011 977.886 666.765 974.84 675.532C971.396 683.251 965.396 688.384 957.846 691.851C943.971 696.666 927.147 687.111 914.51 681.96C909.525 679.939 904.512 678.029 899.437 676.245C898.753 675.992 898.068 675.738 897.363 675.477C892.541 673.825 888.252 673.412 883.258 674.667C880.254 676.329 877.73 678.649 876.745 682C876.417 686.566 877.362 689.953 879.187 694.069C879.439 694.659 879.69 695.248 879.949 695.856C882.188 701.072 884.506 706.257 886.857 711.423C887.12 712.004 887.382 712.585 887.652 713.183C887.885 713.692 888.117 714.201 888.356 714.726C890.221 719.378 890.695 724.681 889.185 729.495C886.902 734.416 883.564 737.41 878.464 739.419C870.874 741.33 862.679 739.259 855.223 737.662C854.132 737.433 853.041 737.205 851.95 736.977C849.79 736.522 847.632 736.061 845.475 735.593C843.051 735.07 840.625 734.568 838.195 734.075C823.846 731.032 809.989 725.917 796.153 721.111C795.621 720.927 795.089 720.743 794.541 720.554C785.344 717.364 785.344 717.364 781.296 715.458C775.349 712.718 768.994 710.911 762.776 708.889C745.327 703.214 745.327 703.214 740.797 700.741C739.726 698.203 740.063 696.365 740.743 693.751C741.027 692.649 741.027 692.649 741.317 691.524C741.531 690.734 741.746 689.944 741.967 689.13C742.186 688.307 742.406 687.485 742.631 686.638C745.891 674.68 749.53 662.619 754.709 651.336C757.816 643.248 757.269 632.837 753.822 624.963C748.532 614.325 741.147 608.775 730.214 604.593C723.384 602.475 716.161 601.763 709.048 601.333C709.285 600.128 709.522 598.923 709.761 597.718C709.893 597.046 710.025 596.375 710.161 595.684C710.448 594.296 710.745 592.909 711.088 591.534C712.182 587.044 712.591 582.83 712.559 578.213C712.555 577.201 712.555 577.201 712.55 576.169C712.458 570.955 711.754 566.296 709.862 561.407C709.56 560.55 709.258 559.693 708.947 558.81C704.587 552.265 698.4 548.562 691.139 545.926C690.442 545.665 689.745 545.405 689.028 545.137C674.297 540.561 657.197 543.91 642.295 545.926C642.234 545.256 642.174 544.586 642.111 543.895C640.878 533.419 636.505 526.659 628.399 520.122C624.121 516.951 619.552 514.373 614.872 511.857C614.291 511.543 613.711 511.229 613.113 510.905C607.132 507.766 601.753 506.513 595.029 506.56C594.347 506.564 593.666 506.568 592.964 506.572C586.925 506.685 581.367 507.646 575.542 509.259C575.007 509.399 574.473 509.539 573.922 509.683C558.024 513.847 544.69 520.945 531.023 529.977C525.222 533.804 519.355 537.09 513.107 540.133C509.174 542.049 505.289 544.053 501.412 546.079C500.772 546.408 500.133 546.737 499.474 547.076C496.477 548.647 493.754 550.244 491.086 552.333C488.437 554.074 488.437 554.074 486.456 554.186C483.339 552.804 480.612 550.956 477.804 549.032C468.076 542.38 458.151 538.332 446.903 534.943C434.072 530.887 426.29 523.946 418.835 512.926C414.491 506.508 410.107 500.781 403.54 496.528C402.68 495.966 401.821 495.404 400.935 494.826C400.473 494.526 400.012 494.226 399.536 493.917C397.473 492.569 395.427 491.196 393.379 489.824C391.158 488.338 388.93 486.861 386.702 485.384C385.565 484.629 384.429 483.872 383.295 483.112C373.037 476.242 363.058 471.584 351.282 467.807C343.828 465.317 337.424 461.883 331.68 456.449C331.287 456.082 330.895 455.714 330.491 455.336C327.327 452.342 324.285 449.229 321.233 446.122C315.964 440.77 310.957 435.709 304.459 431.852C303.553 431.3 302.646 430.749 301.712 430.181C299.65 428.933 297.583 427.695 295.511 426.463C283.299 419.192 272.669 411.295 262.128 401.704C259.975 399.782 257.798 397.889 255.616 396C254.876 395.349 254.136 394.698 253.374 394.027C246.587 388.114 239.397 382.873 232.071 377.655C221.998 370.445 212.522 362.563 203.147 354.479C200.842 352.494 198.518 350.532 196.187 348.577C189.024 342.561 182.072 336.34 175.519 329.656C174.182 328.343 172.79 327.137 171.36 325.926C169.149 324.031 167.077 322.053 165.054 319.961C157.337 311.982 149.115 305.325 140.176 298.774C129.079 290.583 119.325 280.747 110.334 270.307C108.721 268.476 106.987 266.799 105.218 265.12C97.6109 257.564 91.5529 248.761 85.3472 240.054C81.9832 235.373 78.3903 230.975 74.6234 226.617C71.1784 222.621 67.9737 218.434 64.7426 214.264C63.382 212.519 62.0061 210.788 60.6286 209.057C55.0964 202.076 50.0441 195.135 45.5875 187.407C44.741 186.015 43.8931 184.623 43.0436 183.231C41.4181 180.526 39.9236 177.78 38.4644 174.981C33.589 166.027 27.5276 158.557 20.5002 151.237C15.7605 146.244 12.034 140.951 8.14062 135.259C5.45422 131.495 2.76781 127.73 0 123.852C0 82.9807 0 42.1096 0 0Z" fill="#51CB59"/>
<path d="M1157.6 0C1291.38 0 1425.16 0 1563 0C1563.3 59.9958 1563.3 59.9958 1563.61 121.204C1563.7 133.834 1563.79 146.464 1563.88 159.477C1563.92 174.898 1563.92 174.898 1563.93 182.116C1563.94 187.159 1563.98 192.201 1564.03 197.244C1564.09 203.064 1564.12 208.882 1564.11 214.702C1564.1 217.678 1564.11 220.652 1564.16 223.628C1564.5 243.101 1564.5 243.101 1559.56 248.555C1557.57 250.381 1555.46 251.875 1553.23 253.407C1551.69 255.042 1551.69 255.042 1550.58 256.571C1550.07 257.233 1550.07 257.233 1549.56 257.909C1549.24 258.339 1548.93 258.769 1548.6 259.213C1547.86 260.181 1547.12 261.148 1546.38 262.113C1545.84 262.802 1545.84 262.802 1545.3 263.506C1538.62 272.035 1530.49 279.107 1522.33 286.169C1520.35 287.911 1518.43 289.708 1516.5 291.5C1505.38 301.632 1492.98 310.175 1480.56 318.623C1477.55 320.679 1474.65 322.812 1471.77 325.06C1467.38 328.32 1462.59 330.685 1457.73 333.157C1446.14 339.082 1437.03 345.866 1427.64 354.833C1416.66 365.298 1404.96 373.346 1391.89 380.977C1379.46 388.246 1368.74 397.126 1358.11 406.796C1355.64 409.016 1353.09 410.985 1350.38 412.907C1343.67 417.691 1337.08 423.022 1331.45 429.051C1324.13 436.62 1314.39 442.216 1305.63 447.968C1304.16 448.939 1302.7 449.922 1301.25 450.911C1293.31 456.287 1285.19 461.359 1277.02 466.361C1275.57 467.247 1274.12 468.134 1272.68 469.024C1257.84 478.159 1243.56 485.544 1226.64 490.009C1217.58 492.727 1210.03 497.991 1202.83 503.953C1195.26 510.209 1187.48 515.455 1177.95 518.222C1177.06 518.504 1176.18 518.785 1175.27 519.075C1171.95 519.93 1168.79 520.237 1165.38 520.514C1151.84 521.873 1140.7 526.498 1129.87 534.795C1127.48 536.148 1127.48 536.148 1125.11 536.123C1122.07 535.171 1119.27 533.929 1116.44 532.481C1115.86 532.191 1115.29 531.9 1114.7 531.601C1107.96 528.091 1101.89 523.733 1095.89 519.101C1085.34 510.973 1074.64 505.101 1062.5 499.634C1049.62 493.808 1038.3 486.431 1026.94 478.068C1023.12 475.255 1019.23 472.615 1015.24 470.046C1009.47 466.292 1004.61 461.876 999.669 457.111C989.275 447.37 978.959 440.575 965.603 435.709C950.54 430.218 939.203 422.689 928.947 410.208C925.478 406.116 921.202 403.067 916.911 399.894C911.301 395.743 905.979 391.599 901.778 385.968C896.089 378.852 889.116 372.047 880.002 369.926C873.633 369.528 867.307 370.122 860.973 370.741C852.98 371.45 845.03 371.712 837.009 371.708C835.504 371.709 835.504 371.709 833.969 371.71C828.667 371.678 823.451 371.416 818.172 370.931C806.313 370.021 793.799 369.755 782.133 372.315C770.662 374.699 758.47 372.938 746.953 371.708C744.02 371.405 741.085 371.106 738.151 370.808C737.419 370.732 736.687 370.657 735.933 370.579C731.079 370.084 726.223 369.634 721.361 369.222C720.731 369.169 720.1 369.115 719.45 369.06C717.053 368.857 714.656 368.656 712.258 368.463C705.931 367.955 699.768 367.305 693.581 365.852C693.581 365.314 693.581 364.776 693.581 364.222C695.032 363.106 695.032 363.106 697.07 361.825C698.188 361.117 698.188 361.117 699.328 360.395C700.135 359.894 700.942 359.392 701.773 358.875C703.003 358.104 703.003 358.104 704.259 357.317C705.91 356.284 707.564 355.254 709.219 354.227C711.114 353.049 713.001 351.858 714.884 350.66C723.848 345.026 733.399 340.843 743.271 337.063C752.627 333.458 759.766 328.249 767.393 321.889C771.824 318.242 776.466 315.138 781.322 312.094C785.106 309.701 788.652 307.147 792.134 304.333C796.164 301.089 800.261 297.985 804.497 295.014C805.261 294.466 805.261 294.466 806.04 293.906C813.199 288.954 821.026 286.975 829.433 285.203C839.415 282.98 848.139 278.931 856.903 273.727C857.816 273.19 858.729 272.653 859.669 272.1C862.383 270.496 865.087 268.879 867.791 267.259C868.944 266.578 868.944 266.578 870.12 265.883C881.487 259.151 889.513 251.923 897.841 241.583C902.187 236.394 907.329 232.938 913.071 229.453C917.02 227.04 920.874 224.509 924.696 221.9C935.59 214.476 946.383 207.613 958.19 201.692C969.496 196.003 979.046 188.319 988.221 179.667C997.016 171.401 1005.99 165.165 1017.25 160.63C1023.88 157.951 1029.94 155.437 1035.6 150.954C1038.58 148.598 1041.68 146.446 1044.8 144.273C1050.46 140.286 1056.07 136.247 1061.54 132C1062.14 131.556 1062.74 131.111 1063.35 130.654C1069.39 125.872 1072.75 119.08 1076.34 112.406C1080 105.646 1083.72 99.9774 1089.22 94.5185C1090.32 93.3873 1090.32 93.3873 1091.44 92.2332C1095.2 88.3833 1099.07 84.714 1103.15 81.1982C1113.26 72.3361 1120.1 61.6969 1126.99 50.2796C1130.05 45.2232 1133.19 40.245 1136.5 35.349C1136.86 34.8259 1137.21 34.3028 1137.57 33.7639C1139.28 31.2441 1141 28.7329 1142.73 26.2318C1148.53 17.7077 1152.71 9.34603 1157.6 0Z" fill="#8D52CB"/>
<path d="M607.506 538.169C610.429 540.912 611.388 543.528 612.085 547.437C611.554 557.512 602.898 566.851 597.092 574.45C593.424 579.328 590.704 583.022 591.225 589.4C597.962 589.529 604.527 589.2 611.22 588.433C612.166 588.324 613.113 588.216 614.088 588.104C630.893 586.081 647.123 582.621 663.323 577.729C668.812 576.202 674.282 575.692 679.957 576.363C682.552 578.298 682.552 578.298 684.028 580.437C684.565 580.975 685.102 581.513 685.656 582.067C686.475 587.802 685.267 591.107 682.015 595.839C678.078 600.669 673.556 604.926 669.091 609.261C666.575 611.739 664.29 614.379 662.048 617.104C661.42 617.852 660.791 618.6 660.143 619.37C654.177 626.283 654.177 626.283 653.093 635.03C653.354 636.932 653.624 638.834 653.907 640.733C661.353 640.52 668.472 639.745 675.785 638.34C688.395 635.959 700.497 634.881 713.334 634.826C713.926 634.822 714.518 634.817 715.127 634.813C716.819 634.803 718.511 634.806 720.203 634.813C721.192 634.815 722.182 634.817 723.201 634.819C725.545 635.03 725.545 635.03 727.173 636.659C726.513 644.493 720.248 651.625 714.781 656.785C708.337 662.128 700.789 665.863 693.401 669.716C689.93 671.527 686.505 673.397 683.11 675.347C672.423 681.48 661.771 686.451 649.837 689.622C648.408 690.015 648.408 690.015 646.95 690.415C639.515 692.131 632.208 692.317 624.601 692.372C623.581 692.384 622.561 692.395 621.51 692.407C614.853 692.372 609.607 692.096 604.351 687.636C600.818 683.371 600.593 680.025 600.685 674.555C601.53 666.723 606.099 659.68 609.948 652.956C609.368 653.203 608.788 653.451 608.19 653.706C605.938 654.563 603.8 655.117 601.445 655.613C600.578 655.8 599.712 655.986 598.819 656.178C597.891 656.375 596.963 656.572 596.007 656.775C587.908 658.535 579.861 660.441 571.84 662.53C570.919 662.769 569.998 663.008 569.049 663.254C564.122 664.545 564.122 664.545 559.289 666.139C556.207 667.053 553.313 667.107 550.114 667.113C549.517 667.133 548.92 667.153 548.305 667.174C544.075 667.196 541.625 666.396 538.311 663.548C535.906 660.035 536.254 656.234 536.682 652.141C538.046 645.482 540.806 639.328 543.551 633.145C543.853 632.464 544.155 631.783 544.467 631.082C546.447 626.741 548.704 622.712 551.336 618.733C548.167 619.207 545.107 619.868 542.012 620.696C529.187 624.113 512.606 627.85 499.926 622.209C497.304 620.412 496.16 618.461 495.165 615.474C493.962 605.033 499.52 594.902 505.748 586.956C518.025 571.871 540.11 563.435 557.155 554.936C559.903 553.565 562.646 552.184 565.388 550.8C567.54 549.715 569.696 548.637 571.852 547.56C572.864 547.053 573.875 546.545 574.884 546.035C597.732 534.5 597.732 534.5 607.506 538.169Z" fill="#915FD0"/>
</svg>
