<svg width="606" height="341" viewBox="0 0 1444 813" fill="none" xmlns="http://www.w3.org/2000/svg"><g clip-path="url(#clip0_774_20131)"><path d="M0 0C476.52 0 953.04 0 1444 0C1444 268.29 1444 536.58 1444 813C967.48 813 490.96 813 0 813C0 544.71 0 276.42 0 0Z" fill="#B9EABD" /><path d="M1030.35 289.819C1033.5 290.869 1034.77 293.11 1036.65 295.7C1037.21 296.465 1037.21 296.465 1037.78 297.245C1040.82 301.555 1043 305.87 1044.64 310.897C1044.88 311.567 1045.12 312.236 1045.36 312.926C1047.64 320.055 1047.79 327.16 1045.4 334.233C1045.19 335.953 1045.03 337.68 1044.93 339.409C1044.84 340.71 1044.84 340.71 1044.76 342.037C1044.72 342.691 1044.68 343.345 1044.64 344.019C1045.49 343.651 1046.34 343.282 1047.21 342.902C1050.77 341.571 1053.94 341.472 1057.71 341.573C1058.69 341.59 1058.69 341.59 1059.68 341.608C1061.03 341.635 1062.37 341.669 1063.71 341.709C1065.62 341.759 1067.52 341.772 1069.43 341.779C1075.55 341.873 1079.83 342.403 1084.95 346.037C1088.65 348.066 1092.49 347.614 1096.54 347.03C1098.05 346.458 1099.54 345.836 1101.01 345.172C1106.64 342.924 1111.92 342.577 1117.92 342.373C1124.64 342.083 1131.2 341.65 1137.84 340.595C1144.88 339.561 1149.94 339.983 1155.95 344.019C1160.95 347.749 1165.04 353.632 1165.96 359.881C1166.26 363.972 1166.11 368.059 1165.96 372.154C1165.92 373.98 1165.88 375.806 1165.85 377.632C1165.83 378.758 1165.8 379.884 1165.76 381.01C1165.67 384.093 1165.88 386.915 1166.48 389.939C1167.14 395.324 1166.85 398.876 1163.85 403.489C1160.89 408.088 1160.26 411.654 1161.22 417.039C1161.9 418.974 1162.71 420.815 1163.54 422.688C1165.58 428.293 1164.31 433.053 1161.93 438.258C1160.75 441.771 1160.77 445.346 1160.67 449.02C1160.46 451.667 1160.46 451.667 1159.72 453.801C1158.68 457.069 1158.61 460.203 1158.49 463.617C1158.45 464.664 1158.45 464.664 1158.42 465.733C1158.37 467.15 1158.33 468.568 1158.28 469.985C1158.2 472.242 1158.03 474.485 1157.83 476.734C1157.7 481.7 1158.18 484.457 1161.21 488.441C1165.3 494.432 1164.96 500.26 1164.7 507.278C1164.68 508.458 1164.66 509.638 1164.65 510.818C1164.63 511.957 1164.61 513.096 1164.58 514.235C1164.57 514.754 1164.56 515.272 1164.55 515.806C1164.42 519.222 1163.71 522.18 1162.72 525.439C1162.58 527.497 1162.51 529.456 1162.53 531.508C1162.53 532.021 1162.52 532.534 1162.52 533.062C1162.53 536.364 1163.19 538.899 1164.22 542C1164.37 544.011 1164.44 545.922 1164.41 547.928C1164.42 548.432 1164.42 548.935 1164.43 549.454C1164.42 552.118 1164.18 554.474 1163.47 557.047C1162.62 560.181 1162.52 563.089 1162.58 566.324C1162.59 566.898 1162.59 567.472 1162.6 568.064C1162.66 572.537 1162.83 577.005 1163.05 581.474C1163.09 582.389 1163.09 582.389 1163.14 583.323C1163.27 585.758 1163.45 587.853 1164.22 590.178C1164.73 597.281 1165.09 603.155 1161.31 609.382C1159.38 613.663 1159.72 619.166 1160.98 623.629C1161.39 624.691 1161.8 625.751 1162.21 626.811C1163.68 631.839 1163.43 637.272 1161.26 642.025C1159.05 646.916 1159.06 651.883 1158.96 657.175C1158.95 657.832 1158.93 658.49 1158.91 659.167C1158.87 661.295 1158.84 663.422 1158.82 665.55C1158.8 666.567 1158.8 666.567 1158.79 667.604C1158.79 671.071 1159.02 673.554 1160.46 676.747C1161.17 680.661 1161.31 684.409 1161.26 688.365C1161.26 688.964 1161.26 689.563 1161.26 690.18C1161.24 692.714 1161.22 695.248 1161.2 697.781C1161.15 704.301 1161.14 710.813 1161.47 717.327C1161.52 718.267 1161.57 719.208 1161.62 720.177C1161.97 722.698 1162.61 724.303 1163.9 726.477C1166.63 731.165 1166.38 736.217 1165.73 741.486C1165.36 742.481 1164.97 743.471 1164.57 744.456C1163.42 747.667 1163.33 750.666 1163.41 754.039C1163.42 754.563 1163.44 755.088 1163.45 755.628C1163.51 757.813 1163.59 759.996 1163.69 762.18C1163.98 768.99 1163.67 774.158 1159.99 780.17C1158.25 783.492 1158.27 786.785 1158.96 790.417C1160.11 792.632 1161.39 794.26 1163.01 796.136C1165.46 799.208 1166.23 801.402 1166.01 805.36C1165.47 808.504 1164.2 810.769 1161.97 813C1159.92 813.148 1157.95 813.2 1155.91 813.187C1154.95 813.19 1154.95 813.19 1153.97 813.193C1151.81 813.197 1149.64 813.191 1147.48 813.185C1145.91 813.186 1144.35 813.188 1142.79 813.19C1138.45 813.195 1134.11 813.19 1129.78 813.184C1125.08 813.179 1120.37 813.182 1115.67 813.185C1107.42 813.188 1099.16 813.185 1090.91 813.179C1082.05 813.173 1073.19 813.169 1064.33 813.17C1063.77 813.17 1063.21 813.17 1062.64 813.17C1059.79 813.171 1056.94 813.171 1054.09 813.171C1033.45 813.173 1012.81 813.168 992.163 813.159C971.715 813.15 951.266 813.144 930.818 813.143C930.183 813.143 929.549 813.143 928.895 813.143C923.099 813.142 917.303 813.142 911.508 813.141C897.099 813.14 882.69 813.139 868.281 813.137C867.624 813.137 866.968 813.137 866.292 813.137C834.355 813.133 802.419 813.123 770.482 813.113C759.396 813.11 748.311 813.107 737.225 813.103C736.538 813.103 735.85 813.103 735.142 813.103C703.193 813.093 671.245 813.087 639.296 813.083C637.223 813.083 635.149 813.082 633.075 813.082C619.334 813.08 605.592 813.078 591.85 813.076C564.506 813.072 537.163 813.068 509.819 813.064C508.517 813.064 507.215 813.064 505.912 813.063C447.274 813.054 388.635 813.04 329.997 813.024C329.448 813.024 328.898 813.023 328.333 813.023C300.865 813.016 273.398 813.008 245.931 813C246.038 811.917 246.148 810.835 246.26 809.754C246.352 808.85 246.352 808.85 246.445 807.927C246.683 806.225 246.683 806.225 247.435 803.967C247.546 802.291 247.602 800.611 247.623 798.932C247.643 798.044 247.662 797.157 247.682 796.242C247.474 793.864 247.186 792.591 246.307 790.469C245.003 787.262 244.889 784.484 244.991 781.054C245.001 780.472 245.011 779.89 245.021 779.291C245.059 777.478 245.117 775.667 245.179 773.855C245.195 773.278 245.21 772.7 245.227 772.105C245.528 761.717 245.528 761.717 247.059 757.341C250.373 747.763 249.129 735.711 248.94 725.678C248.93 725.051 248.921 724.423 248.911 723.777C248.788 717.232 248.671 711.596 245.84 705.594C244.268 701.44 244.245 696.898 246.063 692.841C249.107 688.047 252.743 685.009 257.965 682.769C260.688 682.496 260.688 682.496 263.558 682.534C264.503 682.537 265.449 682.54 266.423 682.543C269.246 682.769 269.246 682.769 271.887 683.525C274.727 684.337 277.109 684.475 280.057 684.463C280.978 684.467 281.899 684.471 282.848 684.475C285.08 684.323 286.754 684.07 288.871 683.52C292.734 682.639 296.433 682.565 300.381 682.596C301.46 682.596 301.46 682.596 302.561 682.597C304.069 682.599 305.577 682.605 307.085 682.614C309.397 682.628 311.709 682.63 314.021 682.63C315.491 682.633 316.961 682.638 318.431 682.643C319.122 682.644 319.813 682.645 320.525 682.645C321.165 682.65 321.806 682.655 322.466 682.66C323.028 682.663 323.591 682.666 324.17 682.669C325.652 682.769 325.652 682.769 327.908 683.522C329.74 683.595 331.574 683.62 333.408 683.616C334.382 683.618 335.357 683.62 336.36 683.622C339.088 683.591 339.088 683.591 341.335 683.145C343.702 682.769 345.904 682.675 348.299 682.674C349.204 682.672 350.109 682.67 351.042 682.667C352.025 682.669 353.009 682.67 354.022 682.672C355.076 682.671 356.131 682.67 357.185 682.668C360.043 682.664 362.901 682.666 365.759 682.668C368.764 682.67 371.768 682.668 374.772 682.667C379.825 682.666 384.879 682.668 389.932 682.671C395.744 682.675 401.555 682.674 407.367 682.67C412.377 682.666 417.386 682.666 422.396 682.668C425.379 682.669 428.362 682.669 431.344 682.667C463.006 682.644 463.006 682.644 468.548 684.275C468.522 683.43 468.496 682.584 468.469 681.714C468.249 671.463 468.249 671.463 469.676 667.996C471.557 663.316 470.996 658.363 470.804 653.411C470.769 652.374 470.769 652.374 470.733 651.317C470.654 649.066 470.567 646.816 470.475 644.566C470.446 643.839 470.416 643.113 470.386 642.364C470.354 641.682 470.323 640.999 470.29 640.296C470.262 639.686 470.235 639.076 470.206 638.447C470.098 636.709 470.098 636.709 469.3 634.592C469.23 633.48 469.202 632.365 469.2 631.251C469.199 630.585 469.197 629.919 469.195 629.232C469.199 628.517 469.202 627.801 469.206 627.064C469.209 626.322 469.211 625.579 469.214 624.814C469.258 618.389 469.474 611.99 469.924 605.58C470.013 604.285 470.097 602.989 470.175 601.693C471.238 584.474 471.238 584.474 477.197 578.51C482.368 575.404 487.714 575.065 493.61 576.216C494.135 576.352 494.659 576.488 495.2 576.628C501.395 578.2 507.702 577.695 513.864 576.257C517.424 575.598 521.03 575.491 524.64 575.307C527.094 575.19 527.094 575.19 528.997 574.74C531.953 574.185 534.878 574.17 537.881 574.134C538.482 574.112 539.084 574.09 539.703 574.068C543.133 574.032 545.599 574.4 548.712 575.866C553.498 577.963 558.332 577.833 563.457 577.773C565.089 577.757 566.719 577.773 568.352 577.792C574.18 577.802 579.111 577.142 584.609 575.046C587.672 574.018 590.522 573.98 593.723 574.087C594.296 574.088 594.87 574.089 595.46 574.09C597.859 574.128 599.723 574.182 601.946 575.131C605.185 576.35 608.485 576.061 611.914 576.016C612.677 576.011 613.44 576.005 614.226 576C622.293 575.915 630.45 575.805 638.454 574.725C641.971 574.263 645.459 574.256 649.001 574.275C649.686 574.278 650.371 574.28 651.077 574.283C655.528 574.316 659.973 574.423 664.419 574.652C664.929 574.675 665.439 574.698 665.965 574.722C668.224 574.859 670.141 575.134 672.28 575.89C675.43 576.884 678.34 576.876 681.622 576.863C682.529 576.881 682.529 576.881 683.454 576.9C687.896 576.903 691.557 576.004 695.677 574.369C695.485 570.403 695.188 567.83 693.024 564.492C689.982 558.606 690.74 552.07 690.883 545.623C690.895 544.323 690.906 543.024 690.915 541.725C690.971 536.465 691.115 531.403 691.917 526.192C691.984 524.311 692.015 522.428 692.011 520.546C692.014 519.137 692.014 519.137 692.017 517.699C691.972 514.943 691.972 514.943 691.541 512.418C691.05 508.778 691.055 505.206 691.071 501.538C691.068 500.827 691.065 500.116 691.062 499.383C691.063 498.7 691.064 498.018 691.065 497.315C691.066 496.39 691.066 496.39 691.067 495.446C691.165 493.822 691.165 493.822 691.917 491.564C691.975 489.792 692.02 488.02 692.058 486.247C692.349 480.168 694.038 475.666 698.544 471.477C703.404 467.777 708.17 468.013 714.08 467.687C716.563 467.565 716.563 467.565 718.237 467.09C724.895 465.466 731.774 466.423 737.952 469.057C742.782 470.614 748.322 470.394 753.159 468.978C756.075 468.163 758.764 467.969 761.766 467.992C762.565 467.995 762.565 467.995 763.379 467.997C766.909 468.065 769.636 468.645 772.877 469.933C779.576 472.027 787.601 471.318 794.576 471.38C795.277 471.39 795.977 471.4 796.699 471.41C797.371 471.411 798.043 471.411 798.736 471.412C799.33 471.415 799.924 471.418 800.535 471.422C802.595 471.292 802.595 471.292 804.967 470.483C807.941 469.678 810.629 469.553 813.678 469.613C814.237 469.617 814.797 469.621 815.374 469.626C816.568 469.635 817.761 469.648 818.955 469.663C822.082 469.702 825.21 469.709 828.338 469.719C828.958 469.721 829.578 469.723 830.218 469.726C835.544 469.742 840.864 469.702 846.188 469.545C846.906 469.534 847.625 469.524 848.366 469.512C852.908 469.351 856.461 468.305 860.676 466.64C863.552 465.658 866.162 465.579 869.173 465.687C869.695 465.688 870.217 465.689 870.755 465.69C873.443 465.735 875.601 466.017 878.231 466.737C881.472 467.574 884.445 467.609 887.773 467.49C888.977 467.467 890.181 467.445 891.385 467.423C893.248 467.382 895.11 467.334 896.973 467.274C905.23 467.022 911.508 467.48 919.046 471.239C919.297 466.689 919.518 462.14 919.704 457.587C919.764 456.22 919.83 454.852 919.906 453.485C920.286 446.547 920.192 441.61 916.302 435.585C914.059 431.204 914.568 426.162 915.973 421.564C916.507 420.175 917.054 418.791 917.615 417.412C918.985 413.62 918.708 410.636 917.307 406.829C916.678 405.548 916.678 405.548 916.037 404.242C913.432 398.891 913.387 394.012 913.404 388.136C913.405 386.427 913.374 384.721 913.341 383.012C913.291 376.8 913.793 371.988 916.686 366.335C917.957 363.376 917.998 360.523 918.041 357.337C918.346 354.895 919.116 353.53 920.55 351.547C923.869 349.002 926.07 348.413 930.233 348.254C935.106 348.01 937.871 346.265 941.608 343.267C944.836 340.716 947.651 340.626 951.656 340.744C954.46 341.117 955.985 342.234 958.154 344.019C961.761 346.754 964.591 348.367 969.2 348.11C971.058 347.761 972.515 347.162 974.23 346.372C979.576 343.976 985.445 343.874 991.216 343.442C992.763 343.299 992.763 343.299 994.289 342.881C996.618 342.299 998.911 342.354 1001.3 342.326C1002.76 342.296 1002.76 342.296 1004.24 342.267C1007.21 342.529 1008.97 343.326 1011.55 344.772C1012.05 344.772 1012.54 344.772 1013.06 344.772C1016.14 331.022 1014.18 320.721 1006.82 308.858C1004.68 305.562 1002.92 303.092 998.955 302.099C998.396 302.021 997.838 301.944 997.263 301.864C997.263 301.615 997.263 301.367 997.263 301.111C997.992 301.055 998.721 300.998 999.472 300.94C1009.64 300 1020.9 297.136 1029.08 290.713C1029.5 290.418 1029.92 290.123 1030.35 289.819Z" fill="#51CC5A" /><path d="M1042.39 80.5475C1041.64 81.1763 1041.64 81.1763 1040.88 81.8178C1039.19 83.4386 1039.19 83.4386 1039.19 85.6287C1039.25 86.1876 1039.32 86.7466 1039.38 87.3225C1043.2 87.4077 1043.2 87.4077 1046.9 86.5697C1047.7 85.2152 1047.7 85.2152 1048.4 83.5586C1049.15 82.2989 1049.9 81.0431 1050.66 79.7947C1053.9 80.4182 1055.56 80.8935 1057.81 83.3704C1058.93 85.8169 1058.93 85.8169 1059.07 88.1693C1057.77 91.3377 1055.97 91.9004 1052.92 93.3447C1054.48 92.395 1055.5 91.8099 1057.35 91.9362C1061.69 93.7329 1064.69 100.039 1066.74 104.119C1068.55 108.623 1069.01 113.384 1069.46 118.186C1069.58 119.227 1069.58 119.227 1069.71 120.289C1070.14 127.046 1067.95 133.283 1066.09 139.696C1064.89 143.867 1064.04 148.022 1063.32 152.302C1062.69 155.072 1062.69 155.072 1061.98 156.82C1059.13 163.984 1059.33 170.719 1059.44 178.291C1059.45 179.66 1059.46 181.028 1059.47 182.397C1059.49 185.985 1059.52 189.573 1059.57 193.161C1059.63 198.879 1059.68 204.598 1059.71 210.316C1059.73 212.286 1059.75 214.255 1059.78 216.224C1059.9 228.533 1059.31 240.71 1055.41 252.463C1055.01 253.708 1055.01 253.708 1054.6 254.979C1049.28 271.109 1039.97 285.48 1025.09 294.336C1021.44 296.123 1017.65 297.556 1013.81 298.853C1012.98 299.141 1012.98 299.141 1012.14 299.434C1007.6 300.922 1003.56 301.445 998.79 301.411C997.753 301.415 997.753 301.415 996.694 301.418C995.238 301.419 993.782 301.415 992.326 301.406C990.144 301.394 987.963 301.406 985.782 301.42C974.066 301.434 963.023 300.025 951.715 296.877C950.793 296.632 950.793 296.632 949.854 296.383C945.48 295.2 945.48 295.2 944.617 294.336C941.487 295.562 938.653 296.962 935.78 298.712C935.13 299.106 934.481 299.5 933.812 299.906C932.551 300.673 931.293 301.445 930.039 302.223C918.444 309.027 906.95 311.716 893.593 311.579C891.924 311.652 890.543 311.862 888.963 312.403C887.623 313.968 887.623 313.968 886.424 315.838C884.001 319.089 884.001 319.089 881.301 319.884C878.981 319.11 878.104 318.302 876.816 316.244C875.382 312.69 875.589 308.751 875.519 304.969C875.494 304.065 875.469 303.161 875.443 302.229C875.125 285.904 875.125 285.904 877.681 280.786C878.131 280.779 878.581 280.772 879.045 280.765C887.857 280.592 895.733 280.285 904.004 277.022C904.604 276.826 905.205 276.63 905.823 276.428C908.973 275.383 910.785 274.152 913.029 271.753C912.73 271.188 912.43 270.623 912.122 270.042C909.608 265.182 907.548 260.513 906.261 255.192C906.134 254.704 906.007 254.216 905.877 253.713C904.842 249.492 904.492 245.511 904.521 241.171C904.528 240.189 904.528 240.189 904.534 239.186C904.771 226.389 908.337 214.891 916.425 204.838C917.802 203.113 919.062 201.409 920.303 199.592C925.403 192.311 925.403 192.311 928.764 191.294C930.659 191.299 932.264 191.46 934.088 191.959C932.102 191.71 930.117 191.462 928.071 191.206C928.071 190.957 928.071 190.709 928.071 190.453C918.615 190.16 918.615 190.16 909.328 191.703C907.395 192.019 905.891 191.678 904.004 191.206C904.446 188.555 905.025 186.905 906.261 184.431C904.027 184.431 901.793 184.431 899.492 184.431C900.259 181.357 900.486 181.178 902.5 179.161C903.038 177.578 903.038 177.578 903.252 176.15C901.763 176.399 900.274 176.647 898.74 176.903C897.236 174.645 897.236 174.645 897.424 173.092C897.988 171.634 897.988 171.634 899.492 170.128C896.886 169.755 896.886 169.755 894.227 169.375C893.998 167.107 893.906 166.01 895.364 164.197C906.936 155.235 923.773 155.221 937.772 156.828C945.616 158.026 953.091 159.876 960.111 163.653C960.768 164.004 961.426 164.355 962.103 164.717C962.681 165.048 963.258 165.379 963.854 165.72C966.305 166.587 967.697 166.321 970.188 165.611C985.519 156.974 991.822 140.372 996.616 124.365C997.834 119.818 998.603 115.197 999.243 110.537C1000.85 99.2562 1006.26 90.4741 1015.31 83.5586C1018.52 81.5691 1021.31 80.7655 1025.09 80.5475C1025.83 81.2927 1025.83 81.2927 1026.59 82.053C1026.59 81.3078 1026.59 80.5625 1026.59 79.7947C1031.53 78.6978 1038.06 77.6619 1042.39 80.5475Z" fill="#F2F4F3" /><path d="M348.967 564.584C350.108 564.967 351.251 565.345 352.398 565.713C355.26 566.963 356.819 568.154 358.744 570.606C359.552 573.53 359.583 576.326 359.569 579.348C359.566 580.756 359.566 580.756 359.562 582.193C359.553 583.654 359.553 583.654 359.543 585.144C359.539 586.132 359.536 587.121 359.533 588.139C359.524 590.575 359.511 593.011 359.496 595.448C359.94 595.444 360.384 595.44 360.841 595.436C362.852 595.42 364.864 595.41 366.876 595.401C367.574 595.394 368.273 595.388 368.992 595.381C369.664 595.379 370.335 595.377 371.027 595.374C371.645 595.37 372.264 595.366 372.901 595.362C374.538 595.448 374.538 595.448 376.794 596.2C378.171 596.296 379.551 596.372 380.93 596.436C387.995 596.991 393.9 599.197 399.356 603.728C401.003 606.201 401.063 607 401.115 609.879C401.132 610.673 401.148 611.467 401.166 612.286C401.175 613.144 401.183 614.003 401.192 614.887C401.203 615.772 401.213 616.657 401.224 617.569C401.241 619.444 401.254 621.319 401.263 623.194C401.283 626.052 401.34 628.909 401.397 631.768C401.409 633.59 401.419 635.413 401.427 637.236C401.45 638.087 401.472 638.938 401.495 639.814C401.467 644.986 400.681 647.799 397.022 651.52C394.7 653.374 392.296 654.361 389.485 655.246C388.966 655.428 388.448 655.61 387.913 655.798C383.126 657.442 378.107 658.85 373.055 657.545C371.001 657.047 369.01 657.17 366.91 657.225C355.891 657.5 347.482 655.565 338.963 648.139C336.962 644.607 337.399 641.159 337.544 637.18C337.584 635.626 337.62 634.073 337.653 632.519C337.676 631.833 337.699 631.148 337.723 630.441C337.688 628.679 337.438 627.24 336.933 625.559C337.43 625.559 337.926 625.559 338.438 625.559C338.438 624.565 338.438 623.571 338.438 622.548C337.954 622.559 337.47 622.571 336.972 622.583C310.134 623.151 310.134 623.151 300.833 615.773C300.283 615.371 299.732 614.969 299.165 614.555C297.113 611.808 297.313 609.199 297.261 605.845C297.241 605.142 297.222 604.438 297.202 603.713C297.163 602.12 297.134 600.527 297.111 598.934C297.084 596.977 297.048 595.021 297.002 593.064C296.938 590.275 296.893 587.486 296.86 584.697C296.845 583.589 296.826 582.481 296.802 581.373C296.771 579.799 296.759 578.226 296.753 576.652C296.742 575.74 296.731 574.828 296.719 573.889C297.242 570.147 298.887 567.751 301.87 565.481C304.053 564.488 305.934 564.099 308.307 563.784C311.496 563.316 314.332 562.636 317.379 561.573C328.404 559.629 338.72 559.996 348.967 564.584Z" fill="#64D06C" /><path d="M847.871 363.974C854.924 369.813 860.398 377.894 861.312 387.222C861.978 399.976 860.272 410.505 852.11 420.803C843.574 429.894 833.426 434.891 820.933 435.5C808.926 435.715 797.644 429.858 788.962 421.735C781.215 413.207 777.783 403.01 778.124 391.621C778.886 379.745 785.837 369.379 794.2 361.334C809.962 348.191 832.664 352.227 847.871 363.974Z" fill="#62D06A" /><path d="M1100.3 174.644C1100.67 176.449 1101.03 178.224 1101.24 180.055C1101.72 181.642 1101.72 181.642 1103.73 182.36C1104.33 182.546 1104.94 182.733 1105.56 182.925C1105.31 184.912 1105.07 186.899 1104.81 188.947C1106.67 189.692 1106.67 189.692 1108.57 190.452C1108.2 192.316 1108.2 192.316 1107.82 194.216C1106.83 194.465 1105.83 194.713 1104.81 194.969C1104.81 195.714 1104.81 196.46 1104.81 197.227C1105.26 197.29 1105.71 197.352 1106.17 197.416C1108.31 198.149 1108.98 199.038 1110.07 200.991C1109.32 203.25 1109.32 203.25 1107.88 204.1C1104.54 205.044 1101.22 205.216 1097.76 205.461C1087.81 206.28 1078.59 208.011 1069.19 211.392C1066.05 212.414 1062.91 213.128 1059.69 213.789C1059.22 204.54 1058.85 195.29 1058.75 186.03C1058.73 185.288 1058.71 184.546 1058.7 183.782C1058.69 183.097 1058.69 182.413 1058.69 181.707C1058.68 181.105 1058.67 180.502 1058.67 179.882C1058.75 179.395 1058.84 178.909 1058.93 178.408C1063.46 175.39 1069.09 175.022 1074.4 174.503C1075.07 174.437 1075.74 174.371 1076.43 174.303C1084.4 173.627 1092.33 174.09 1100.3 174.644Z" fill="#52CC5A" /><path d="M349.719 566.088C350.243 566.275 350.768 566.461 351.308 566.653C354.474 567.847 356.284 569.171 357.992 572.111C358.44 574.803 358.272 576.117 356.958 578.509C351.289 583.913 343.918 587.2 336.04 587.354C333.997 587.22 332.044 587.026 330.024 586.743C327.379 586.439 325.928 586.61 323.396 587.166C315.877 588.03 307.339 585.033 301.256 580.532C299.032 578.312 298.531 576.044 298.421 572.952C298.647 570.645 299.311 569.328 300.833 567.594C303.479 565.929 306.357 565.521 309.388 565.006C313.416 564.297 317.391 563.494 321.375 562.56C331.765 560.314 339.998 562.32 349.719 566.088Z" fill="#B8E9BC" /><path d="M828.044 356.063C838.281 357.477 847.803 364.107 854.22 372.045C859.746 380.26 861.706 391.324 859.86 400.945C857.002 412.88 851.261 422.06 840.735 428.707C832.453 433.261 832.453 433.261 828.602 432.52C828.169 432.38 827.737 432.239 827.292 432.094C827.619 431.782 827.947 431.469 828.284 431.147C834.008 425.22 837.065 417.593 838.329 409.502C838.573 408.005 838.573 408.005 839.325 405.747C839.44 403.857 839.518 401.984 839.563 400.092C839.578 399.544 839.594 398.996 839.61 398.431C839.659 396.682 839.704 394.934 839.748 393.185C839.78 391.998 839.813 390.812 839.846 389.625C839.927 386.719 840.002 383.812 840.077 380.905C845.289 380.905 850.501 380.905 855.871 380.905C855.871 380.408 855.871 379.911 855.871 379.4C850.411 379.4 844.95 379.4 839.325 379.4C838.906 377.94 838.487 376.481 838.056 374.977C835.833 367.787 832.784 361.9 828.044 356.063Z" fill="#B7E9BB" /><path d="M396.985 603.119C398.926 604.759 399.382 606.105 399.92 608.574C399.256 611.734 398.548 612.795 396.022 614.711C391.671 617.104 386.836 618.294 382.058 619.536C381.106 619.788 380.154 620.039 379.173 620.298C373.051 621.767 368.348 622.078 362.316 620.336C359.73 619.603 357.311 619.198 354.654 618.831C349.261 618.03 344.299 617.236 340.694 612.761C339.621 610.613 339.708 609.122 339.942 606.739C342.211 602.713 346.525 599.969 350.471 597.706C363.952 594.292 385.104 595.451 396.985 603.119Z" fill="#B8E9BC" /><path d="M339.19 630.828C340.985 631.705 342.732 632.632 344.478 633.607C350.357 636.781 355.023 638.363 361.752 638.356C363.037 638.407 364.322 638.462 365.606 638.518C373.209 638.771 380.326 638.428 387.746 636.662C388.394 636.508 389.042 636.354 389.71 636.196C393.466 635.206 396.259 633.932 399.356 631.581C399.544 633.619 399.714 635.657 399.873 637.697C399.928 638.27 399.983 638.842 400.039 639.432C400.316 643.217 400.057 645.647 397.852 648.895C391.729 654.947 382.139 656.606 373.862 656.596C371.767 656.569 369.674 656.505 367.581 656.423C367.071 656.403 366.56 656.384 366.035 656.364C356.434 655.959 347.203 654.203 339.942 647.389C336.858 642.76 338.507 636.127 339.19 630.828Z" fill="#B7E9BB" /><path d="M339.19 612.761C340.004 613.599 340.004 613.599 340.835 614.454C346.3 618.987 354.275 619.835 361.094 620.671C363.256 621.041 363.256 621.041 364.995 621.882C369.822 623.469 375.623 621.522 380.46 620.43C381.047 620.298 381.634 620.166 382.238 620.03C388.348 618.611 394.01 616.857 399.356 613.514C399.444 616.07 399.497 618.625 399.544 621.182C399.569 621.905 399.595 622.627 399.621 623.372C399.695 628.734 399.695 628.734 398.022 631.636C395.402 633.905 392.891 634.491 389.579 635.344C388.897 635.555 388.214 635.765 387.511 635.982C381.277 637.659 375.231 637.819 368.803 637.838C367.526 637.844 367.526 637.844 366.224 637.85C351.156 637.724 351.156 637.724 345.112 633.462C344.109 632.775 344.109 632.775 343.085 632.074C340.02 629.743 340.02 629.743 339.63 627.655C339.245 622.679 339.103 617.751 339.19 612.761Z" fill="#B8E9BC" /><path d="M357.992 578.134C358.932 580.016 358.766 581.147 358.653 583.244C358.616 583.953 358.58 584.661 358.543 585.391C358.5 586.132 358.458 586.874 358.415 587.638C358.376 588.385 358.336 589.132 358.296 589.902C358.198 591.751 358.097 593.599 357.992 595.448C357.428 595.541 356.863 595.634 356.282 595.73C350.751 596.846 347.378 598.516 343.288 602.417C336.863 606.991 322.382 605.133 314.82 604.108C308.711 602.932 304.304 600.971 299.752 596.765C296.895 591.732 297.828 585.919 298.577 580.392C300.951 581.31 303.275 582.313 305.593 583.362C306.496 583.762 306.496 583.762 307.417 584.171C308.661 584.722 309.901 585.283 311.136 585.853C315.717 587.855 319.951 588.823 324.887 587.529C326.569 587.128 327.998 587.117 329.724 587.173C341.318 587.441 347.982 586.387 357.24 578.887C357.488 578.638 357.736 578.39 357.992 578.134Z" fill="#B7E9BB" /><path d="M529.796 435.059C530.422 435.086 531.049 435.114 531.695 435.142C535.66 435.409 538.6 435.93 541.5 438.87C541.845 440.535 541.845 440.535 541.992 442.374C542.071 443.292 542.071 443.292 542.153 444.229C542.185 444.696 542.218 445.163 542.252 445.645C542.964 445.641 542.964 445.641 543.69 445.638C555.233 445.588 566.776 445.551 578.319 445.528C583.901 445.516 589.483 445.5 595.065 445.474C599.93 445.452 604.794 445.437 609.659 445.432C612.235 445.429 614.812 445.422 617.388 445.406C620.262 445.388 623.136 445.387 626.01 445.388C626.867 445.38 627.724 445.372 628.607 445.364C629.779 445.368 629.779 445.368 630.975 445.373C631.995 445.37 631.995 445.37 633.036 445.367C634.758 445.645 634.758 445.645 636.109 446.637C637.62 448.749 637.217 450.65 637.014 453.172C636.436 455.754 636.436 455.754 635.651 458.348C635.377 459.259 635.103 460.17 634.82 461.109C634.551 461.968 634.283 462.826 634.006 463.711C633.685 464.755 633.685 464.755 633.357 465.82C632.517 468.454 631.795 470.418 630.246 472.745C629.996 474.227 629.799 475.719 629.635 477.214C628.872 482.663 627.487 489.056 623.477 493.07C621.491 493.203 619.585 493.243 617.6 493.217C616.993 493.214 616.387 493.212 615.762 493.21C614.442 493.204 613.123 493.195 611.803 493.183C609.718 493.164 607.632 493.154 605.547 493.146C600.367 493.126 595.187 493.09 590.007 493.054C585.631 493.024 581.256 493.001 576.88 492.985C574.821 492.976 572.762 492.957 570.703 492.938C569.446 492.932 568.189 492.927 566.931 492.922C566.355 492.915 565.779 492.907 565.186 492.899C563.807 492.899 562.429 492.977 561.054 493.07C559.104 495.022 559.341 496.448 559.277 499.112C559.653 501.157 560.092 501.652 561.806 502.856C563.909 503.051 565.84 503.11 567.94 503.064C568.878 503.057 568.878 503.057 569.834 503.051C571.192 503.039 572.55 503.023 573.908 503.002C576.058 502.97 578.207 502.952 580.357 502.939C586.468 502.898 592.58 502.826 598.692 502.753C602.43 502.708 606.167 502.679 609.905 502.658C612.023 502.641 614.139 502.607 616.256 502.572C617.556 502.564 618.857 502.556 620.157 502.55C620.745 502.535 621.332 502.521 621.938 502.506C624.704 502.511 626.33 502.76 628.708 504.222C630.246 505.867 630.246 505.867 631.092 508.407C630.963 512.141 629.869 513.08 627.237 515.653C624.805 516.87 622.141 516.516 619.468 516.515C618.82 516.518 618.172 516.52 617.504 516.523C615.35 516.53 613.197 516.531 611.044 516.532C609.547 516.534 608.049 516.537 606.552 516.54C603.406 516.544 600.26 516.546 597.114 516.545C593.096 516.545 589.079 516.555 585.062 516.568C581.964 516.577 578.867 516.578 575.77 516.578C574.29 516.579 572.81 516.582 571.33 516.588C569.25 516.595 567.17 516.593 565.089 516.588C564.486 516.593 563.882 516.597 563.26 516.601C552.577 516.543 552.577 516.543 548.645 513.395C547.326 510.754 546.821 508.323 546.383 505.417C546.005 503.574 545.348 502.268 544.508 500.597C544.073 498.708 543.753 496.816 543.427 494.904C543.09 493.098 543.09 493.098 542.296 491.699C540.903 488.829 540.384 485.646 539.686 482.545C539.109 480.102 538.532 478.09 537.361 475.85C535.541 472.045 535.088 467.971 534.385 463.838C534.266 463.188 534.148 462.539 534.026 461.87C533.876 460.991 533.876 460.991 533.723 460.094C533.146 458.173 532.202 456.997 530.971 455.431C530.586 453.655 530.586 453.655 530.454 451.855C530.38 450.952 530.38 450.952 530.304 450.032C530.276 449.578 530.248 449.124 530.219 448.656C529.719 448.691 529.22 448.725 528.706 448.761C525.534 448.891 523.265 448.917 520.348 447.574C518.577 445.152 518.489 443.55 518.438 440.613C520.156 434.616 524.562 434.611 529.796 435.059ZM522.134 436.846C520.375 437.969 520.375 437.969 519.69 439.622C519.478 442.056 519.404 443.618 520.591 445.783C521.844 447.32 521.844 447.32 523.758 447.418C524.417 447.376 525.075 447.334 525.753 447.291C529.357 447.095 529.357 447.095 530.971 447.903C531.429 449.737 531.691 451.575 531.978 453.443C532.366 455.459 532.366 455.459 533.538 457.054C535.659 460.859 536.148 465.217 537.001 469.457C537.874 473.585 539.012 477.213 540.821 481.024C541.731 483.043 542.243 485.077 542.722 487.235C543.209 489.404 543.695 491.413 544.526 493.475C545.516 495.974 545.892 498.48 546.341 501.121C546.707 503.047 546.707 503.047 548.269 505.114C548.515 506.835 548.599 508.531 548.689 510.266C548.929 511.899 548.929 511.899 549.799 513.183C553.626 515.68 559.743 515.019 564.2 515.033C564.862 515.038 565.524 515.043 566.207 515.048C568.378 515.063 570.549 515.072 572.72 515.079C573.465 515.083 574.21 515.086 574.977 515.089C578.912 515.104 582.847 515.115 586.782 515.122C590.843 515.131 594.904 515.157 598.966 515.186C602.094 515.206 605.223 515.212 608.352 515.215C609.849 515.219 611.347 515.227 612.845 515.241C614.937 515.26 617.027 515.259 619.119 515.254C619.736 515.263 620.353 515.273 620.989 515.283C623.949 515.256 625.416 515.094 628.003 513.514C629.691 511.97 629.691 511.97 629.87 509.631C629.447 507.091 629.065 506.152 627.237 504.361C624.919 503.894 624.919 503.894 622.213 503.95C621.451 503.939 621.451 503.939 620.674 503.927C618.99 503.904 617.306 503.903 615.621 503.902C614.441 503.891 613.261 503.879 612.081 503.865C608.962 503.832 605.844 503.817 602.726 503.805C599.6 503.791 596.475 503.759 593.35 503.729C589.264 503.692 585.178 503.658 581.091 503.638C580.024 503.633 578.956 503.625 577.888 503.616C575.093 503.597 572.307 503.624 569.513 503.711C568.929 503.724 568.344 503.738 567.742 503.752C566.622 503.778 565.503 503.817 564.384 503.87C562.862 503.9 562.862 503.9 560.302 503.608C558.734 502.089 558.163 501.194 557.746 499.065C557.794 494.952 557.794 494.952 558.903 493.293C564.441 489.43 576.648 491.466 583.376 491.49C584.541 491.492 585.706 491.493 586.872 491.494C589.901 491.497 592.93 491.504 595.959 491.512C599.065 491.52 602.171 491.523 605.277 491.527C611.344 491.535 617.41 491.548 623.477 491.564C624.349 489.524 625.214 487.481 626.074 485.436C626.444 484.575 626.444 484.575 626.821 483.696C628.352 480.036 629.323 476.818 629.294 472.803C629.494 471.239 629.494 471.239 630.51 469.601C632.22 466.669 632.907 463.648 633.724 460.371C633.887 459.743 634.05 459.116 634.218 458.47C634.668 456.708 635.094 454.942 635.51 453.172C635.718 452.325 635.925 451.478 636.139 450.605C636.451 448.689 636.451 448.689 635.487 447.421C633.274 445.891 631.079 446.095 628.485 446.129C627.642 446.127 627.642 446.127 626.782 446.124C624.909 446.122 623.035 446.136 621.162 446.15C619.836 446.153 618.51 446.154 617.184 446.155C614.382 446.158 611.579 446.169 608.777 446.186C605.281 446.206 601.785 446.215 598.289 446.219C586.535 446.232 574.785 446.277 563.036 446.631C562.35 446.651 561.664 446.672 560.958 446.692C557.684 446.791 554.412 446.899 551.14 447.024C549.979 447.063 548.819 447.101 547.658 447.139C546.864 447.175 546.864 447.175 546.054 447.211C544.787 447.249 543.518 447.207 542.252 447.15C540.322 445.218 540.481 443.749 540.328 441.107C539.888 439.142 539.399 438.51 537.74 437.364C535.465 436.953 535.465 436.953 532.945 436.893C528.203 436.664 528.203 436.664 525.9 436.155C524.085 435.669 524.085 435.669 522.134 436.846Z" fill="#64D06C" /><path d="M299.329 598.458C300.056 598.821 300.783 599.184 301.532 599.558C302.521 600.039 303.51 600.519 304.5 600.999C304.975 601.237 305.45 601.476 305.939 601.722C313.479 605.345 320.878 605.438 329.13 605.327C330.101 605.32 331.071 605.314 332.071 605.307C334.444 605.289 336.817 605.264 339.189 605.233C339.07 605.666 338.951 606.099 338.828 606.545C338.453 608.176 338.288 609.669 338.199 611.338C338.152 612.189 338.152 612.189 338.104 613.058C338.074 613.643 338.045 614.228 338.014 614.831C337.966 615.726 337.966 615.726 337.916 616.639C337.836 618.107 337.761 619.574 337.685 621.041C308.654 621.592 308.654 621.592 299.846 613.402C298.054 610.371 298.404 608.039 298.765 604.621C298.814 604.028 298.864 603.435 298.915 602.823C299.038 601.367 299.182 599.912 299.329 598.458Z" fill="#B8E9BC" /><path d="M1048.22 61.0691C1050.87 63.2797 1052.69 65.2707 1053.15 68.8056C1053.24 72.497 1052.86 75.6003 1051.41 79.0417C1052.44 79.1115 1052.44 79.1115 1053.48 79.1828C1056.51 79.9397 1057.25 80.9997 1058.93 83.5583C1059.99 85.6651 1059.88 87.2507 1059.69 89.5805C1057.56 92.6062 1054.34 93.9759 1050.8 94.6147C1050.01 94.6924 1049.22 94.77 1048.4 94.85C1051 92.2558 1054.61 91.0473 1058.18 90.3333C1058.45 87.4625 1058.24 85.9426 1056.96 83.3231C1055.33 81.1005 1055.33 81.1005 1052.73 80.6413C1052.05 80.6103 1051.36 80.5792 1050.66 80.5472C1050.42 80.9645 1050.17 81.3817 1049.92 81.8116C1049.59 82.357 1049.26 82.9023 1048.92 83.4642C1048.6 84.0057 1048.28 84.5472 1047.94 85.105C1046.9 86.5694 1046.9 86.5694 1044.64 88.075C1041.87 87.7927 1041.87 87.7927 1039.38 87.3222C1038.86 85.6285 1038.86 85.6285 1038.63 83.5583C1039.71 81.8175 1039.71 81.8175 1040.88 80.5472C1040.15 79.6488 1040.15 79.6488 1038.8 79.709C1038.24 79.7129 1037.68 79.7169 1037.1 79.7209C1036.49 79.7233 1035.88 79.7258 1035.25 79.7283C1034.29 79.7377 1034.29 79.7377 1033.32 79.7474C1032.67 79.7508 1032.03 79.7542 1031.37 79.7577C1029.78 79.7666 1028.19 79.7801 1026.59 79.7944C1026.84 81.0365 1027.09 82.2786 1027.35 83.5583C1025.92 82.3586 1025.17 81.6576 1024.76 79.8091C1024.76 75.5499 1025.46 71.9593 1028.1 68.5028C1028.84 68.2543 1029.59 68.0059 1030.35 67.75C1030.57 67.2997 1030.79 66.8495 1031.01 66.3856C1032.5 63.483 1034.81 62.0876 1037.73 60.7868C1041.41 59.9211 1044.62 59.5985 1048.22 61.0691Z" fill="#9ECDA6" /><path d="M782.167 380.905C788.123 381.154 794.08 381.402 800.217 381.658C800.217 390.104 800.217 398.55 800.217 407.252C794.012 407.004 787.807 406.756 781.415 406.5C779.69 397.869 779.69 397.869 779.675 393.702C779.663 392.88 779.65 392.057 779.637 391.209C779.91 388.433 779.91 388.433 782.167 380.905Z" fill="#B7E9BB" /><path d="M814.6 380.858C815.44 380.865 816.279 380.872 817.144 380.879C817.763 380.888 818.381 380.896 819.019 380.905C820.131 383.132 819.862 385.388 819.844 387.827C819.843 388.36 819.842 388.892 819.841 389.441C819.837 391.144 819.827 392.847 819.818 394.549C819.814 395.703 819.811 396.857 819.807 398.01C819.799 400.84 819.786 403.67 819.771 406.5C818.455 406.63 817.139 406.754 815.822 406.876C815.089 406.946 814.356 407.016 813.601 407.088C809.647 407.316 805.681 407.253 801.721 407.253C801.721 398.806 801.721 390.36 801.721 381.658C806.187 381.211 810.19 380.811 814.6 380.858Z" fill="#B8E9BB" /><path d="M820.523 380.905C826.479 380.905 832.436 380.905 838.573 380.905C838.573 389.6 838.573 398.294 838.573 407.252C826.54 407.252 826.54 407.252 820.523 406.5C820.523 398.054 820.523 389.607 820.523 380.905Z" fill="#B7E9BB" /><path d="M614.452 526.945C617.895 528.475 620.609 529.79 622.725 532.967C623.221 536.694 623.332 540.105 621.55 543.459C618.353 546.166 615.629 548.164 611.397 548.399C607.342 547.883 605.229 546.449 602.513 543.459C601.185 539.989 601.168 536.631 601.667 532.967C602.842 531.132 602.842 531.132 604.675 529.956C605.276 529.541 605.276 529.541 605.888 529.118C608.787 527.246 610.948 526.313 614.452 526.945Z" fill="#B7E9BA" /><path d="M569.436 528.518C572.056 530.073 573.627 531.142 575.344 533.72C575.686 537.201 575.711 538.992 574.169 542.141C571.14 545.64 568.471 548.189 563.687 548.54C560.324 548.344 558.427 547.079 556.072 544.738C553.618 541.815 553.178 538.89 553.304 535.166C553.696 532.694 554.704 531.611 556.542 529.956C560.906 526.981 564.473 525.993 569.436 528.518Z" fill="#A4E3A9" /><path d="M782.919 408.006C788.875 408.006 794.832 408.006 800.969 408.006C801.341 409.403 801.714 410.801 802.097 412.24C804.419 419.834 808.58 426.297 813.002 432.848C802.01 431.014 793.564 425.202 786.641 416.636C784.507 413.583 783.672 411.773 782.919 408.006Z" fill="#B7E9BB" /><path d="M813.002 356.064C812.169 356.626 812.169 356.626 811.319 357.199C808.737 359.532 807.556 361.89 806.093 365.003C805.835 365.526 805.578 366.049 805.313 366.588C803.036 371.288 801.594 375.689 800.969 380.906C794.899 380.993 788.953 380.831 782.919 380.153C785.452 371.278 792.025 363.745 799.747 358.887C803.747 356.761 808.535 354.553 813.002 356.064Z" fill="#B6E9BA" /><path d="M820.523 355.311C825.388 355.066 825.388 355.066 827.621 357.005C832.943 362.014 836.463 369.246 837.821 376.389C837.821 377.383 837.821 378.376 837.821 379.4C831.864 379.4 825.908 379.4 819.771 379.4C819.704 371.313 819.866 363.371 820.523 355.311Z" fill="#B7E9BB" /><path d="M820.523 408.006C826.231 408.006 831.939 408.006 837.821 408.006C833.757 426.31 833.757 426.31 826.299 432.083C824.66 433.075 823.182 433.485 821.275 433.6C820.288 428.367 820.44 423.148 820.476 417.839C820.479 416.893 820.483 415.948 820.486 414.973C820.495 412.651 820.508 410.328 820.523 408.006Z" fill="#B7E9BB" /><path d="M819.019 355.312C819.019 363.261 819.019 371.21 819.019 379.4C816.203 379.773 816.203 379.773 813.331 380.153C812.461 380.271 812.461 380.271 811.573 380.391C808.258 380.817 805.062 380.976 801.721 380.906C803.225 370.964 806.289 362.8 813.898 356.061C815.258 355.312 815.258 355.312 819.019 355.312Z" fill="#B6E9BA" /><path d="M802.473 408.006C807.933 408.006 813.393 408.006 819.019 408.006C819.267 416.452 819.515 424.898 819.771 433.6C814.445 432.712 813.099 431.768 809.994 427.578C808.691 425.519 807.495 423.413 806.328 421.274C806.032 420.741 805.736 420.209 805.431 419.661C805.155 419.131 804.879 418.602 804.594 418.057C804.348 417.59 804.102 417.122 803.848 416.641C802.923 413.878 802.795 410.903 802.473 408.006Z" fill="#B8E9BB" /><path d="M837.069 371.119C838.573 373.377 838.573 373.377 839.325 379.4C844.785 379.4 850.245 379.4 855.871 379.4C855.871 379.897 855.871 380.393 855.871 380.905C850.659 380.905 845.447 380.905 840.077 380.905C840.077 389.103 840.077 397.301 840.077 405.747C839.829 405.747 839.581 405.747 839.325 405.747C838.625 402.786 838.486 400.043 838.5 397.005C838.502 396.066 838.504 395.127 838.507 394.16C838.513 393.186 838.519 392.212 838.526 391.209C838.529 390.221 838.533 389.232 838.536 388.214C838.545 385.778 838.559 383.341 838.573 380.905C832.616 380.905 826.66 380.905 820.523 380.905C820.523 380.408 820.523 379.912 820.523 379.4C826.231 379.4 831.94 379.4 837.821 379.4C837.573 378.406 837.324 377.412 837.069 376.389C837.04 374.632 837.035 372.875 837.069 371.119Z" fill="#6BD373" /><path d="M337.685 626.312C338.182 626.312 338.678 626.312 339.19 626.312C339.19 627.305 339.19 628.299 339.19 629.323C339.837 629.627 339.837 629.627 340.497 629.937C342.198 630.828 342.198 630.828 343.687 631.884C349.518 635.943 355.619 636.692 362.504 637.603C362.504 637.852 362.504 638.1 362.504 638.356C353.232 639.327 346.451 636.603 339.19 630.828C339.088 633.135 339.013 635.437 338.955 637.744C338.923 638.395 338.892 639.046 338.859 639.716C338.795 643.075 338.791 644.612 340.894 647.348C343.388 649.225 343.388 649.225 346.005 650.918C346.495 651.216 346.984 651.514 347.489 651.821C347.977 652.097 348.464 652.374 348.967 652.659C349.431 652.928 349.895 653.196 350.374 653.473C354.916 655.434 360.175 655.149 365.042 655.341C365.811 655.373 366.58 655.406 367.372 655.439C369.259 655.518 371.146 655.595 373.033 655.67C373.033 655.918 373.033 656.167 373.033 656.423C360.941 657.69 350.676 657.7 340.694 649.648C338.002 646.814 337.315 645.132 337.392 641.235C337.401 640.364 337.411 639.493 337.421 638.596C337.446 637.694 337.471 636.792 337.497 635.862C337.511 634.946 337.525 634.029 337.539 633.085C337.574 630.827 337.623 628.569 337.685 626.312Z" fill="#61CF69" /><path d="M838.573 401.983C838.821 401.983 839.069 401.983 839.325 401.983C839.325 403.722 839.325 405.461 839.325 407.253C844.785 407.253 850.245 407.253 855.871 407.253C855.871 407.501 855.871 407.75 855.871 408.006C850.163 408.006 844.454 408.006 838.573 408.006C838.325 410.49 838.077 412.974 837.821 415.533C835.728 422.441 832.484 427.861 827.292 432.847C827.788 433.344 828.285 433.841 828.796 434.353C826.192 435.156 823.802 435.182 821.087 435.153C820.277 435.146 819.466 435.139 818.631 435.132C818.015 435.123 817.398 435.115 816.763 435.106C816.763 434.609 816.763 434.112 816.763 433.6C817.755 433.6 818.748 433.6 819.771 433.6C819.771 428.632 819.771 423.663 819.771 418.545C820.019 418.545 820.267 418.545 820.523 418.545C820.771 423.513 821.019 428.481 821.275 433.6C829.927 429.27 832.352 424.452 835.565 415.533C836.379 413.035 837.114 410.537 837.821 408.006C834.098 408.006 830.375 408.006 826.54 408.006C826.54 407.757 826.54 407.509 826.54 407.253C830.511 407.253 834.482 407.253 838.573 407.253C838.573 405.514 838.573 403.775 838.573 401.983Z" fill="#5BCE64" /><path d="M614.452 526.945C617.895 528.475 620.609 529.79 622.725 532.967C623.221 536.694 623.332 540.105 621.55 543.459C618.353 546.166 615.629 548.164 611.397 548.399C607.342 547.883 605.229 546.449 602.513 543.459C601.185 539.989 601.168 536.631 601.667 532.967C602.842 531.132 602.842 531.132 604.675 529.956C605.276 529.541 605.276 529.541 605.888 529.118C608.787 527.246 610.948 526.313 614.452 526.945ZM603.923 532.214C602.04 535.04 602.078 536.39 602.419 539.742C603.706 542.208 603.706 542.208 605.427 544.259C605.892 544.934 605.892 544.934 606.367 545.623C608.661 547.181 611.005 547.505 613.7 547.27C617.046 545.976 619.207 544.255 621.221 541.295C622.196 538.304 622.529 535.918 621.382 532.938C619.779 530.347 617.229 529.479 614.452 528.45C610.184 527.649 607.179 529.608 603.923 532.214Z" fill="#62D06A" /><path d="M1029.6 119.691C1031.79 120.5 1033.2 121.03 1034.87 122.703C1035.28 127.259 1035.28 127.259 1034.02 129.43C1031.94 130.61 1030.44 130.524 1028.1 130.23C1026.69 129.43 1026.69 129.43 1025.84 127.972C1025.47 125.384 1025.47 125.384 1025.84 122.703C1027.72 120.868 1027.72 120.868 1029.6 119.691Z" fill="#163A30" /><path d="M1048.83 123.55C1051.41 124.209 1051.41 124.209 1052.92 126.467C1052.78 129.149 1052.78 129.149 1052.16 131.736C1049.91 133.242 1049.91 133.242 1047.23 133.148C1044.64 132.489 1044.64 132.489 1043.52 131.172C1042.92 128.494 1043.33 126.643 1044.74 124.303C1046.15 123.456 1046.15 123.456 1048.83 123.55Z" fill="#193D33" /><path d="M820.523 384.67C820.771 384.67 821.019 384.67 821.275 384.67C821.297 387.603 821.31 390.535 821.322 393.468C821.328 394.298 821.334 395.128 821.341 395.984C821.343 396.787 821.346 397.59 821.348 398.417C821.352 399.154 821.356 399.891 821.36 400.651C821.277 402.68 820.978 404.525 820.523 406.5C822.508 406.5 824.494 406.5 826.539 406.5C826.539 406.997 826.539 407.494 826.539 408.006C824.554 408.006 822.568 408.006 820.523 408.006C820.531 408.688 820.54 409.37 820.549 410.073C820.587 415.229 820.475 420.212 819.771 425.32C819.522 425.32 819.274 425.32 819.019 425.32C819.019 419.606 819.019 413.893 819.019 408.006C816.288 408.006 813.558 408.006 810.746 408.006C810.746 407.509 810.746 407.012 810.746 406.5C813.724 406.5 816.702 406.5 819.771 406.5C819.758 404.326 819.758 404.326 819.744 402.107C819.737 400.216 819.73 398.324 819.724 396.432C819.717 395.475 819.711 394.518 819.705 393.533C819.702 392.621 819.7 391.708 819.697 390.769C819.693 389.925 819.689 389.081 819.685 388.212C819.771 386.175 819.771 386.175 820.523 384.67Z" fill="#6CD374" /><path d="M822.779 353.053C821.786 353.301 820.794 353.55 819.771 353.806C820.143 360.14 820.143 360.14 820.523 366.603C819.023 363.601 818.848 362.484 818.925 359.263C818.938 358.522 818.952 357.781 818.966 357.017C818.983 356.454 819.001 355.891 819.019 355.311C814.255 356.007 812.139 358.083 809.092 361.736C807.255 364.252 805.973 366.761 804.729 369.614C803.977 367.356 803.977 367.356 804.758 365.43C808.708 358.254 808.708 358.254 812.25 356.064C804.293 357.594 804.293 357.594 797.349 361.522C796.806 361.956 796.263 362.391 795.704 362.839C794.959 362.591 794.215 362.342 793.448 362.086C802.029 355.416 811.861 352.556 822.779 353.053Z" fill="#6CD374" /><path d="M1049.16 79.7949C1048.07 82.8885 1046.52 85.39 1044.64 88.0755C1042.91 87.8271 1041.17 87.5786 1039.38 87.3227C1039.13 86.0806 1038.88 84.8385 1038.63 83.5588C1042.45 80.8656 1044.52 79.7949 1049.16 79.7949Z" fill="#C9D6CF" /><path d="M1050.66 79.7949C1053.9 80.4184 1055.56 80.8937 1057.81 83.3706C1059.09 86.1589 1059.01 87.4261 1058.18 90.3338C1055.59 89.2218 1053.93 87.7458 1051.98 85.723C1051.45 85.1777 1050.91 84.6323 1050.37 84.0705C1049.77 83.4446 1049.77 83.4446 1049.16 82.806C1049.65 81.8124 1050.15 80.8187 1050.66 79.7949Z" fill="#B7E6BB" /><path d="M357.992 579.639C358.24 579.639 358.488 579.639 358.744 579.639C358.992 584.855 359.24 590.072 359.496 595.447C364.46 595.447 369.423 595.447 374.538 595.447C372.054 597.104 371.171 597.161 368.271 597.238C367.091 597.276 367.091 597.276 365.887 597.316C364.655 597.346 364.655 597.346 363.397 597.376C361.779 597.421 360.16 597.469 358.541 597.52C357.464 597.547 357.464 597.547 356.365 597.575C354.109 597.713 351.941 598.05 349.719 598.458C349.471 597.961 349.223 597.464 348.967 596.953C352.207 595.935 354.547 595.447 357.992 595.447C357.992 590.23 357.992 585.014 357.992 579.639Z" fill="#73D57A" /><path d="M532.475 435.858C532.475 436.106 532.475 436.355 532.475 436.611C531.922 436.593 531.368 436.576 530.798 436.558C529.697 436.537 529.697 436.537 528.574 436.517C527.487 436.49 527.487 436.49 526.379 436.464C524.106 436.617 522.497 437.161 520.442 438.116C520.411 439.063 520.38 440.01 520.348 440.986C520.33 441.519 520.313 442.052 520.295 442.601C520.342 444.375 520.342 444.375 521.946 446.397C523.705 446.614 523.705 446.614 525.659 446.444C529.23 446.239 529.23 446.239 531.723 447.902C532.22 449.643 532.22 449.643 532.522 451.666C532.906 454.643 532.906 454.643 534.731 456.936C534.825 459.288 534.825 459.288 534.731 461.452C534.53 461.018 534.328 460.583 534.12 460.135C533.309 458.42 533.309 458.42 532.052 457.171C530.406 454.52 530.409 451.724 530.219 448.655C529.72 448.69 529.22 448.725 528.706 448.761C525.535 448.891 523.265 448.916 520.348 447.573C518.561 445.129 518.382 443.507 518.594 440.525C518.938 438.869 518.938 438.869 520.207 436.517C524.176 434.268 528.084 435.208 532.475 435.858Z" fill="#5ACD62" /><path d="M534.731 459.194C534.979 459.194 535.228 459.194 535.483 459.194C535.582 459.661 535.68 460.127 535.781 460.607C536.238 462.757 536.707 464.904 537.176 467.051C537.33 467.785 537.484 468.518 537.643 469.273C538.563 473.447 539.706 477.192 541.602 481.028C542.694 483.552 542.908 485.81 543.004 488.553C542.508 489.05 542.011 489.546 541.5 490.058C541.309 489.241 541.118 488.424 540.921 487.582C540.66 486.494 540.399 485.406 540.137 484.318C540.012 483.782 539.888 483.245 539.759 482.692C538.948 479.352 537.805 476.572 536.235 473.497C535.742 471.882 535.303 470.249 534.919 468.604C534.722 467.789 534.524 466.974 534.32 466.134C533.964 463.602 534.178 461.677 534.731 459.194Z" fill="#6DD374" /><path d="M779.158 385.422C780.851 388.119 780.796 390.281 780.709 393.42C780.64 397.859 780.881 402.095 781.414 406.5C785.137 406.5 788.86 406.5 792.696 406.5C792.696 406.748 792.696 406.996 792.696 407.252C787.856 407.625 787.856 407.625 782.919 408.005C782.67 408.75 782.422 409.496 782.166 410.264C777.76 403.648 777.967 396.086 778.406 388.433C778.794 386.569 778.794 386.569 779.158 385.422Z" fill="#6FD477" /><path d="M635.511 451.667C636.007 451.667 636.503 451.667 637.015 451.667C632.879 468.791 632.879 468.791 630.246 472.745C629.907 474.287 629.907 474.287 629.776 475.897C629.683 476.844 629.59 477.791 629.494 478.767C629.246 478.767 628.998 478.767 628.742 478.767C628.68 477.591 628.637 476.415 628.601 475.238C628.575 474.583 628.548 473.928 628.521 473.253C628.742 471.239 628.742 471.239 629.755 469.563C631.516 466.605 632.161 463.508 632.972 460.183C633.294 458.894 633.617 457.605 633.942 456.316C634.081 455.749 634.22 455.181 634.364 454.597C634.758 453.173 634.758 453.173 635.511 451.667Z" fill="#68D26F" /><path d="M539.479 436.941C542.022 439.368 542.082 440.869 542.246 444.268C542.249 444.95 542.249 444.95 542.252 445.645C544.237 446.141 546.223 446.638 548.269 447.15C548.269 447.399 548.269 447.647 548.269 447.903C542.775 448.173 542.775 448.173 540.795 447.15C539.532 444.77 539.54 442.291 539.244 439.622C537.16 437.537 535.66 437.817 532.757 437.646C531.863 437.59 530.969 437.534 530.048 437.476C529.36 437.439 528.672 437.402 527.962 437.364C527.962 437.116 527.962 436.867 527.962 436.611C532.187 435.806 535.449 435.19 539.479 436.941Z" fill="#6DD375" /><path d="M326.404 561.572C326.404 561.821 326.404 562.069 326.404 562.325C324.258 562.814 322.112 563.299 319.965 563.783C319.363 563.921 318.761 564.058 318.142 564.2C308.014 566.475 308.014 566.475 303.842 565.336C303.842 565.088 303.842 564.839 303.842 564.583C304.441 564.492 305.04 564.401 305.657 564.307C309.717 563.664 313.493 562.929 317.379 561.572C320.645 560.941 323.181 560.692 326.404 561.572Z" fill="#6ED476" /><path d="M388.951 654.126C389.406 654.387 389.862 654.648 390.331 654.917C388.689 655.427 387.043 655.927 385.396 656.422C384.48 656.702 383.564 656.981 382.62 657.269C379.172 658.075 376.037 658.544 372.704 657.175C372.317 656.927 371.929 656.678 371.529 656.422C374.018 655.841 376.462 655.555 379.003 655.34C381.367 655.129 383.083 654.821 385.349 654.023C387.323 653.411 387.323 653.411 388.951 654.126Z" fill="#70D477" /><path d="M321.454 620.306C322.397 620.345 323.34 620.384 324.311 620.424C325.296 620.472 326.282 620.521 327.297 620.571C328.301 620.615 329.306 620.658 330.31 620.7C332.769 620.807 335.227 620.921 337.685 621.041C337.685 621.29 337.685 621.538 337.685 621.794C334.928 621.944 332.17 622.082 329.413 622.218C328.638 622.26 327.863 622.302 327.065 622.345C322.713 622.554 318.674 622.493 314.371 621.794C317.106 619.969 318.217 620.16 321.454 620.306Z" fill="#78D77F" /><path d="M307.602 565.336C307.602 565.585 307.602 565.833 307.602 566.089C306.895 566.281 306.895 566.281 306.174 566.477C305.56 566.66 304.945 566.842 304.312 567.03C303.701 567.205 303.09 567.379 302.461 567.559C300.752 568.222 300.752 568.222 299.87 569.735C299.297 571.456 299.175 572.751 299.235 574.558C299.266 575.489 299.297 576.421 299.329 577.381C298.833 577.629 298.337 577.878 297.825 578.134C296.656 575.793 296.858 573.946 297.073 571.359C299.838 566.301 301.905 565.121 307.602 565.336Z" fill="#5ECF66" /><path d="M394.844 601.47C397.814 602.434 399.406 603.178 400.86 605.986C401.028 608.452 400.83 610.866 400.625 613.326C400.579 613.995 400.533 614.663 400.486 615.352C400.371 616.999 400.245 618.644 400.108 620.289C399.86 620.289 399.612 620.289 399.356 620.289C399.346 619.309 399.335 618.329 399.324 617.319C399.289 616.019 399.252 614.72 399.215 613.42C399.209 612.454 399.209 612.454 399.202 611.468C399.042 606.841 398.171 604.71 394.844 601.47Z" fill="#5BCD63" /><path d="M800.969 404.994C801.217 405.739 801.465 406.485 801.721 407.252C804.699 407.252 807.677 407.252 810.746 407.252C810.746 407.501 810.746 407.749 810.746 408.005C807.767 408.005 804.789 408.005 801.721 408.005C801.472 408.502 801.224 408.999 800.969 409.511C800.969 409.014 800.969 408.517 800.969 408.005C795.757 408.005 790.545 408.005 785.175 408.005C785.175 407.757 785.175 407.508 785.175 407.252C790.387 407.252 795.599 407.252 800.969 407.252C800.969 406.507 800.969 405.762 800.969 404.994Z" fill="#51CB5A" /><path d="M819.019 353.806C816.808 354.953 814.616 356.028 812.25 356.817C811.506 356.568 810.761 356.32 809.994 356.064C808.741 356.035 807.486 356.03 806.233 356.064C810.133 353.462 814.442 353.712 819.019 353.806Z" fill="#59CD61" /><path d="M631.75 465.97C632.267 467.24 632.267 467.24 632.502 468.981C632.161 469.54 631.82 470.099 631.468 470.675C629.845 473.423 629.762 475.601 629.494 478.767C629.246 478.767 628.997 478.767 628.742 478.767C628.361 473.508 628.717 470.334 631.75 465.97Z" fill="#5DCE65" /><path d="M540.748 480.272C542.708 483.215 542.781 485.038 543.004 488.553C542.508 489.05 542.011 489.547 541.5 490.059C541.228 488.711 540.963 487.362 540.701 486.012C540.553 485.261 540.404 484.51 540.251 483.736C539.996 481.778 539.996 481.778 540.748 480.272Z" fill="#73D57A" /><path d="M803.225 368.861C803.721 369.11 804.218 369.358 804.729 369.614C803.985 372.347 803.24 375.079 802.473 377.895C801.977 377.895 801.48 377.895 800.969 377.895C801.202 376.812 801.438 375.73 801.674 374.648C801.805 374.046 801.936 373.443 802.07 372.822C802.473 371.12 802.473 371.12 803.225 368.861Z" fill="#6DD374" /><path d="M400.108 622.547C400.357 622.547 400.605 622.547 400.86 622.547C400.86 625.031 400.86 627.515 400.86 630.075C400.116 630.323 399.371 630.571 398.604 630.827C399.101 628.095 399.597 625.362 400.108 622.547Z" fill="#54CC5C" /><path d="M297.073 571.358C298.248 572.629 298.248 572.629 299.329 574.37C299.094 576.44 299.094 576.44 298.577 578.133C297.073 576.628 297.073 576.628 296.979 573.899C297.01 573.061 297.041 572.222 297.073 571.358Z" fill="#6ED376" /><path d="M529.467 446.397C529.467 446.894 529.467 447.391 529.467 447.903C526.116 448.276 526.116 448.276 522.698 448.656C524.941 446.411 526.299 446.397 529.467 446.397Z" fill="#70D478" /><path d="M1014.33 156.864C1012.65 156.153 1012.65 156.153 1010.52 154.352C1009.04 151.416 1009.48 150.212 1010.64 147.517C1011.27 147.267 1011.89 147.017 1012.54 146.759C1012.4 147.1 1012.26 147.441 1012.12 147.792C1011.06 150.813 1011.06 150.813 1012.37 153.973C1015.43 155.973 1017.33 156.146 1021.07 156.458C1021.43 156.14 1021.79 155.822 1022.17 155.494C1022.64 155.823 1023.12 156.152 1023.61 156.491C1020.53 158.347 1018.24 158.033 1014.33 156.864Z" fill="#3A5950" /></g><defs><clipPath id="clip0_774_20131"><rect width="1444" height="813" fill="white" /></clipPath></defs></svg>