<svg width="381" height="216" viewBox="0 0 381 216" fill="none" xmlns="http://www.w3.org/2000/svg">
<g clip-path="url(#clip0_1566_14388)">
<path d="M0 0.835449C125.73 0.835449 251.46 0.835449 381 0.835449C381 71.564 381 142.293 381 215.164C255.27 215.164 129.54 215.164 0 215.164C0 144.436 0 73.7073 0 0.835449Z" fill="#BEE8F8"/>
<path d="M160.933 152.652C161.508 152.958 161.896 153.354 162.322 153.843C162.485 154.029 162.485 154.029 162.652 154.219C162.882 154.485 163.112 154.752 163.34 155.02C164.32 156.105 165.479 157.007 166.613 157.923C168.035 159.082 169.188 160.318 170.338 161.745C170.942 162.489 171.567 163.214 172.194 163.939C172.302 164.064 172.41 164.189 172.521 164.318C173.643 165.807 173.643 165.807 175.206 166.583C176.661 166.608 177.978 166.326 179.388 165.985C181.962 165.388 184.516 164.905 187.14 164.585C189.274 164.324 191.399 164.004 193.526 163.691C194.373 163.566 195.221 163.442 196.068 163.318C196.274 163.288 196.48 163.257 196.692 163.226C197.867 163.054 199.042 162.884 200.218 162.718C200.47 162.682 200.722 162.647 200.981 162.61C201.424 162.548 201.867 162.486 202.31 162.424C203.237 162.294 204.154 162.147 205.072 161.962C206.286 161.738 207.475 161.713 208.707 161.719C208.952 161.72 209.197 161.721 209.449 161.722C226.46 161.926 226.46 161.926 232.37 166.147C232.699 166.348 233.029 166.548 233.363 166.742C233.369 167.382 233.369 167.382 233.164 168.131C232.659 168.546 232.082 168.76 231.477 168.999C231.215 169.11 231.215 169.11 230.947 169.223C228.928 170.059 226.865 170.787 224.802 171.506C224.297 171.682 223.792 171.859 223.288 172.038C221.115 172.809 221.115 172.809 220.031 173.175C218.509 173.694 217.023 174.263 215.553 174.916C215.404 174.982 215.255 175.048 215.101 175.116C214.345 175.458 213.626 175.821 212.923 176.268C213.498 176.327 214.073 176.385 214.647 176.441C214.832 176.46 215.016 176.478 215.206 176.496C216.54 176.624 217.873 176.715 219.211 176.794C224.067 177.087 228.7 177.865 233.214 179.716C233.389 179.785 233.564 179.855 233.744 179.927C235.076 180.498 236.011 181.229 236.575 182.593C236.628 182.733 236.681 182.872 236.736 183.015C236.932 183.081 237.129 183.146 237.331 183.214C237.381 184.33 237.381 184.33 236.934 185C236.484 185.188 236.484 185.188 235.924 185.348C235.719 185.407 235.514 185.466 235.304 185.526C235.089 185.586 234.874 185.645 234.652 185.707C234.444 185.767 234.235 185.827 234.02 185.889C232.075 186.442 230.25 186.824 228.228 186.873C226.013 186.959 224.193 187.366 222.189 188.332C221.374 188.697 220.531 188.937 219.67 189.167C219.67 189.298 219.67 189.429 219.67 189.564C220.013 189.708 220.013 189.708 220.363 189.856C220.513 189.919 220.664 189.982 220.819 190.048C221.159 190.191 221.499 190.334 221.84 190.477C222.672 190.826 223.502 191.177 224.328 191.541C226.112 192.32 227.91 192.987 229.757 193.604C236.708 195.93 236.708 195.93 238.522 198.693C238.658 199.263 238.658 199.263 238.522 199.884C236.42 202.459 231.557 202.804 228.526 203.146C222.851 203.792 217.978 205.494 213.928 209.608C212.93 210.619 211.848 211.499 210.741 212.386C210.449 212.623 210.16 212.863 209.873 213.105C209.698 213.251 209.698 213.251 209.521 213.399C209.1 213.789 209.1 213.789 208.82 214.483C208.434 215.019 208.232 215.149 207.578 215.293C206.78 215.341 205.993 215.343 205.194 215.331C204.884 215.332 204.574 215.333 204.263 215.335C203.41 215.338 202.557 215.333 201.704 215.326C200.785 215.32 199.865 215.322 198.945 215.323C197.352 215.323 195.758 215.319 194.165 215.311C191.861 215.3 189.557 215.296 187.253 215.295C183.515 215.292 179.777 215.282 176.039 215.269C172.407 215.256 168.776 215.247 165.145 215.241C164.921 215.24 164.697 215.24 164.466 215.24C163.344 215.238 162.221 215.236 161.098 215.234C151.783 215.22 142.467 215.195 133.152 215.164C133.342 214.94 133.533 214.716 133.725 214.493C133.831 214.368 133.937 214.243 134.047 214.115C134.349 213.767 134.664 213.446 135 213.13C135.822 212.318 136.534 211.427 137.256 210.525C137.531 210.186 137.812 209.851 138.093 209.517C140.776 206.311 143.082 202.845 145.25 199.275C145.726 198.494 146.22 197.729 146.726 196.968C149.585 192.654 151.279 187.884 152.658 182.92C153.027 181.591 153.41 180.277 153.926 178.996C153.987 178.845 154.048 178.693 154.111 178.537C154.229 178.246 154.35 177.956 154.474 177.668C155.589 174.949 155.738 171.969 155.984 169.074C156.032 168.526 156.081 167.979 156.129 167.431C156.161 167.069 156.193 166.707 156.225 166.345C156.329 165.166 156.449 163.989 156.579 162.812C156.782 160.95 156.893 159.087 156.985 157.217C157.005 156.808 157.028 156.399 157.051 155.99C157.063 155.753 157.075 155.516 157.087 155.272C157.198 154.334 157.425 153.799 158.043 153.086C158.907 152.421 159.898 152.442 160.933 152.652Z" fill="#F2F4F4"/>
<path d="M256.381 24.8481C256.578 24.8481 256.774 24.8481 256.977 24.8481C256.959 25.1923 256.959 25.1923 256.778 25.642C256.348 25.9526 255.933 26.2201 255.476 26.4854C253.964 27.4099 252.862 28.4854 251.718 29.8343C250.919 30.76 250.005 31.4438 248.966 32.0831C247.734 32.8487 247.267 33.4505 246.676 34.7801C245.876 36.5021 244.803 37.0404 243.067 37.6863C241.833 38.2424 241.378 38.8728 240.854 40.1042C240.261 41.3886 239.624 42.127 238.324 42.7089C238.052 42.8032 237.779 42.8943 237.505 42.9818C236.228 43.4158 235.515 44.5853 234.851 45.6981C234.077 46.9768 233.119 47.7977 231.85 48.5757C230.95 49.1282 230.402 49.5926 229.791 50.4485C229.58 50.7301 229.37 51.0113 229.158 51.292C229.013 51.49 229.013 51.49 228.864 51.692C228.6 52.0362 228.6 52.0362 228.203 52.4331C228.007 52.4331 227.81 52.4331 227.608 52.4331C228.573 50.3418 230.149 48.5576 232.098 47.3601C233.341 46.5933 234.005 45.7572 234.714 44.495C235.521 43.1289 236.489 42.4543 237.964 41.9151C239.318 41.4058 239.789 40.6066 240.37 39.3476C240.973 38.1069 241.752 37.2564 243.043 36.7274C243.423 36.5988 243.802 36.4711 244.182 36.3444C245.352 35.9054 245.721 35.074 246.224 34.0018C247.031 32.3216 248.244 31.4755 249.798 30.5149C250.451 30.0484 250.976 29.4715 251.529 28.8932C254.054 26.2606 254.054 26.2606 255.609 25.4466C256.017 25.251 256.017 25.251 256.381 24.8481Z" fill="#0FADE3"/>
<path d="M104.775 74.2632C108.828 74.4851 108.828 74.4851 110.716 75.4291C113.241 76.6372 115.977 76.8817 118.737 77.084C120.891 77.2522 123 77.657 125.087 78.2105C126.425 78.5641 127.671 78.669 129.047 78.7036C132.132 78.7909 135.183 79.3499 138.025 80.5734C139.583 81.1176 141.251 81.3343 142.875 81.6059C142.941 81.8024 143.006 81.9989 143.074 82.2013C138.817 82.0162 138.817 82.0162 136.991 81.023C135.977 80.4997 134.923 80.2949 133.809 80.0803C133.59 80.0371 133.372 79.9939 133.146 79.9493C131.621 79.6649 130.146 79.543 128.598 79.5123C126.154 79.4369 123.724 78.8841 121.352 78.3131C120.341 78.0706 119.393 77.9818 118.356 77.9594C116.838 77.902 115.46 77.6424 114 77.2338C113.446 77.0798 112.906 76.9584 112.341 76.8555C111.698 76.72 111.207 76.4852 110.635 76.164C109.469 75.5685 108.32 75.3742 107.033 75.1934C106.814 75.16 106.596 75.1267 106.371 75.0923C105.84 75.0114 105.308 74.9335 104.775 74.8585C104.775 74.6621 104.775 74.4656 104.775 74.2632Z" fill="#966ED4"/>
<path d="M133.549 24.6499C133.921 24.7089 133.921 24.7089 134.342 24.8484C134.645 25.3375 134.905 25.8118 135.161 26.3243C135.842 27.617 136.583 28.5802 137.66 29.5825C138.88 30.7299 139.597 32.0986 140.333 33.5896C140.899 34.5127 141.64 34.9757 142.59 35.4532C143.618 36.01 144.185 36.6851 144.661 37.7478C144.718 38.0317 144.767 38.3172 144.81 38.6036C145.029 39.6203 145.456 40.2544 146.249 40.923C146.699 41.2057 147.151 41.4549 147.628 41.6889C148.049 41.9231 148.33 42.1337 148.63 42.5106C148.63 42.7071 148.63 42.9036 148.63 43.106C144.936 41.3266 144.936 41.3266 144.264 39.7323C144.104 39.1784 143.965 38.6213 143.825 38.0617C143.551 37.1632 143.08 36.589 142.264 36.123C142.114 36.0452 141.964 35.9674 141.809 35.8873C140.461 35.182 139.662 34.1805 139.03 32.8113C138.471 31.6139 137.62 30.7648 136.724 29.8097C133.549 26.2521 133.549 26.2521 133.549 24.6499Z" fill="#0FADE3"/>
<path d="M190.103 23.856C190.3 23.856 190.496 23.856 190.699 23.856C191.071 25.8744 191.342 27.8056 191.297 29.8604C191.277 31.0119 191.322 32.1297 191.899 33.1579C192.14 33.6972 192.142 34.127 192.149 34.7166C192.156 35.0485 192.156 35.0485 192.164 35.3871C192.171 35.8481 192.177 36.3091 192.183 36.7701C192.212 38.0268 192.347 39.0791 192.749 40.2687C192.959 40.9936 192.953 41.687 192.931 42.4361C192.93 42.5747 192.929 42.7134 192.928 42.8563C192.914 43.8116 192.815 44.7398 192.683 45.6858C192.487 45.6858 192.29 45.6858 192.088 45.6858C192.091 45.5579 192.094 45.43 192.097 45.2983C192.11 44.708 192.117 44.1179 192.125 43.5276C192.13 43.3265 192.135 43.1254 192.14 42.9183C192.149 41.9308 192.113 41.084 191.793 40.1454C191.313 38.7267 191.406 37.2604 191.405 35.7782C191.383 34.419 191.193 33.4011 190.682 32.1465C190.348 31.1332 190.374 30.0989 190.364 29.0405C190.353 28.5868 190.342 28.133 190.331 27.6793C190.327 27.4648 190.322 27.2503 190.318 27.0293C190.289 25.968 190.204 24.9128 190.103 23.856Z" fill="#956DD4"/>
<path d="M117.674 122.884C117.674 123.08 117.674 123.277 117.674 123.479C116.868 123.775 116.158 123.92 115.305 123.988C113.728 124.196 112.345 124.758 110.879 125.36C109.816 125.797 108.761 126.19 107.66 126.519C106.151 126.97 105.195 127.479 104.02 128.561C103.149 129.214 102.215 129.617 101.216 130.04C100.94 130.158 100.94 130.158 100.659 130.278C99.8482 130.61 99.3159 130.822 98.4253 130.822C98.6237 130.227 98.6237 130.227 99.0369 130.002C99.3051 129.897 99.3051 129.897 99.5787 129.79C99.8745 129.669 99.8745 129.669 100.176 129.546C100.59 129.382 101.004 129.219 101.418 129.058C102.69 128.536 103.588 127.951 104.582 127.003C105.095 126.546 105.584 126.343 106.239 126.146C106.475 126.07 106.712 125.994 106.956 125.916C107.146 125.856 107.146 125.856 107.341 125.795C108.119 125.543 108.883 125.253 109.649 124.968C109.811 124.909 109.972 124.85 110.138 124.789C111.068 124.447 111.984 124.082 112.899 123.702C113.942 123.293 114.897 123.152 116.014 123.11C116.655 123.072 116.985 122.884 117.674 122.884Z" fill="#12AEE4"/>
<path d="M141.288 113.954C141.288 114.15 141.288 114.347 141.288 114.549C139.31 115.348 137.218 115.807 135.128 116.216C133.963 116.453 132.888 116.821 131.787 117.265C131.614 117.335 131.44 117.405 131.261 117.476C130.093 117.958 129.07 118.505 128.026 119.22C126.685 120.124 124.857 120.762 123.23 120.701C123.295 120.505 123.361 120.308 123.428 120.106C123.774 119.936 123.774 119.936 124.225 119.799C124.39 119.747 124.555 119.694 124.725 119.64C124.903 119.585 125.081 119.53 125.264 119.473C126.484 119.073 127.568 118.675 128.637 117.947C129.816 117.165 131.048 116.661 132.37 116.161C132.567 116.086 132.765 116.01 132.968 115.932C134.155 115.497 135.297 115.222 136.547 115.038C137.425 114.897 138.273 114.663 139.13 114.425C139.457 114.335 139.784 114.246 140.111 114.157C140.252 114.118 140.392 114.079 140.537 114.038C140.891 113.954 140.891 113.954 141.288 113.954Z" fill="#13AEE4"/>
<path d="M131.445 97.4345C131.914 97.4326 132.382 97.4264 132.85 97.4202C133.152 97.4189 133.454 97.4179 133.756 97.4171C133.894 97.4146 134.032 97.4122 134.174 97.4097C135.181 97.4142 135.833 97.6547 136.724 98.0776C137.68 98.2117 138.609 98.1297 139.539 97.8791C140.316 97.6752 140.891 97.6476 141.685 97.6807C141.685 97.8771 141.685 98.0736 141.685 98.276C141.023 98.4083 140.362 98.5406 139.7 98.6729C139.537 98.709 139.373 98.7451 139.205 98.7822C138.677 98.877 138.178 98.9118 137.641 98.921C137.464 98.9261 137.286 98.9312 137.104 98.9365C136.525 98.8714 136.525 98.8714 135.928 98.5733C134.971 98.1528 134.033 98.2015 133.004 98.2179C132.703 98.2191 132.703 98.2191 132.396 98.2204C131.759 98.2237 131.122 98.2312 130.485 98.2388C130.052 98.2418 129.618 98.2445 129.185 98.247C128.126 98.2535 127.067 98.2634 126.008 98.276C126.074 98.0796 126.139 97.8831 126.206 97.6807C127.952 97.475 129.689 97.4389 131.445 97.4345Z" fill="#1F453D"/>
<path d="M140.891 135.188C141.022 135.188 141.153 135.188 141.288 135.188C141.157 135.868 140.89 136.372 140.531 136.962C140.432 137.127 140.332 137.293 140.23 137.463C139.558 138.484 139.068 139.031 137.939 139.529C135.575 140.746 133.927 143.02 132.332 145.096C131.962 145.506 131.675 145.7 131.167 145.904C131.459 143.996 134.036 141.919 135.335 140.546C135.498 140.371 135.661 140.196 135.828 140.015C136.336 139.546 136.783 139.288 137.406 138.996C138.492 138.428 139.065 137.807 139.7 136.776C139.849 136.552 139.997 136.329 140.147 136.106C140.261 135.934 140.376 135.762 140.494 135.585C140.625 135.454 140.756 135.323 140.891 135.188Z" fill="#1D433B"/>
<path d="M213.122 34.5728C213.319 34.5728 213.515 34.5728 213.718 34.5728C213.493 35.6249 212.983 36.5512 212.515 37.5123C212.425 37.7053 212.335 37.8984 212.242 38.0972C211.681 39.2433 211.124 40.0411 210.107 40.8196C208.888 41.8487 208.52 43.5437 208.136 45.0271C208.024 45.4318 208.024 45.4318 207.764 46.083C207.337 46.2753 207.337 46.2753 206.971 46.2815C208.177 41.5572 208.177 41.5572 209.531 40.4031C211.17 38.9715 211.891 37.112 212.747 35.148C212.924 34.7712 212.924 34.7712 213.122 34.5728Z" fill="#1D433B"/>
<path d="M168.275 34.1758C169.256 34.5027 169.514 35.4263 169.975 36.3091C170.074 36.4991 170.174 36.689 170.277 36.8847C170.896 38.1109 171.247 39.1654 171.365 40.5418C171.611 42.2143 172.616 43.5481 173.749 44.7418C174.139 45.2266 174.213 45.6683 174.229 46.2814C172.816 45.8106 171.761 43.6042 171.054 42.3123C170.741 41.5934 170.65 40.9968 170.617 40.2255C170.498 38.981 169.968 38.0491 169.354 36.9789C169.15 36.6164 168.947 36.2531 168.746 35.889C168.656 35.7312 168.566 35.5734 168.473 35.4108C168.275 34.9696 168.275 34.9696 168.275 34.1758Z" fill="#1D433B"/>
<path d="M81.9548 69.897C82.885 70.0295 83.7646 70.2592 84.6585 70.5419C84.797 70.5854 84.9355 70.6288 85.0782 70.6736C86.1362 71.0127 87.1588 71.4115 88.1762 71.859C89.4317 72.3868 90.5019 72.5521 91.8519 72.6009C92.0264 72.6086 92.2008 72.6162 92.3806 72.6241C92.8079 72.6427 93.2352 72.6592 93.6626 72.6753C93.7609 72.97 93.7609 72.97 93.8611 73.2707C93.2699 73.2815 92.6788 73.2893 92.0875 73.2955C91.8403 73.3005 91.8403 73.3005 91.588 73.3056C89.992 73.318 88.6792 73.1365 87.3126 72.2792C86.6291 71.936 85.8873 71.8109 85.1453 71.6412C84.385 71.4463 83.6803 71.1686 82.9586 70.8629C82.63 70.7244 82.2932 70.6051 81.9548 70.4923C81.9548 70.2959 81.9548 70.0994 81.9548 69.897Z" fill="#956BD3"/>
<path d="M188.714 8.97217C188.911 9.03766 189.107 9.10315 189.31 9.17062C189.809 11.8726 189.747 14.5689 189.706 17.3072C189.51 17.3072 189.313 17.3072 189.111 17.3072C189.106 17.1642 189.101 17.0211 189.096 16.8738C189.073 16.2203 189.049 15.5668 189.024 14.9133C189.016 14.6884 189.009 14.4634 189.001 14.2316C188.959 13.1238 188.883 12.0514 188.714 10.9567C188.702 10.5972 188.697 10.2373 188.702 9.87761C188.704 9.70595 188.705 9.5343 188.707 9.35745C188.71 9.2303 188.712 9.10316 188.714 8.97217Z" fill="#956DD4"/>
<path d="M152.4 49.2578C152.997 49.5232 153.384 49.8097 153.827 50.2873C154.356 50.8363 154.904 51.305 155.513 51.7633C156.169 52.2589 156.689 52.745 157.163 53.4253C157.097 53.5563 157.032 53.6873 156.964 53.8222C156.268 53.5204 155.783 53.1079 155.228 52.5943C154.472 51.896 153.701 51.2296 152.896 50.5881C152.521 50.1613 152.469 49.8138 152.4 49.2578Z" fill="#16AFE4"/>
<path d="M104.775 74.2632C109.079 74.4988 109.079 74.4988 110.729 75.4539C110.663 75.5849 110.598 75.7159 110.53 75.8508C110.279 75.792 110.027 75.7331 109.768 75.6725C108.734 75.4428 107.696 75.2821 106.648 75.1314C106.467 75.1048 106.286 75.0782 106.099 75.0508C105.658 74.9861 105.217 74.922 104.775 74.8585C104.775 74.6621 104.775 74.4656 104.775 74.2632Z" fill="#9469D3"/>
<path d="M137.517 63.3481C138.499 63.6388 139.343 64.059 140.233 64.5513C141.227 65.104 141.227 65.104 142.28 65.5311C142.28 65.7276 142.28 65.9241 142.28 66.1265C141.078 66.0339 140.165 65.4904 139.13 64.9234C138.955 64.8296 138.781 64.7358 138.601 64.6393C138.173 64.4088 137.745 64.1769 137.319 63.9435C137.384 63.747 137.45 63.5506 137.517 63.3481Z" fill="#1F443D"/>
<path d="M213.122 34.5728C213.319 34.5728 213.515 34.5728 213.717 34.5728C213.599 35.2383 213.375 35.6565 212.924 36.1604C212.727 36.2259 212.531 36.2914 212.328 36.3588C212.538 35.6835 212.727 35.1654 213.122 34.5728Z" fill="#264C46"/>
<path d="M132.557 144.118C132.622 144.249 132.688 144.38 132.755 144.515C132.566 144.748 132.376 144.979 132.184 145.21C132.079 145.339 131.973 145.468 131.864 145.6C131.765 145.701 131.666 145.801 131.564 145.904C131.433 145.904 131.302 145.904 131.167 145.904C131.202 145.432 131.306 145.17 131.644 144.837C131.943 144.59 132.249 144.354 132.557 144.118Z" fill="#153A32"/>
<path d="M194.243 61.4087C194.701 61.4044 195.159 61.4 195.63 61.3956C201.354 61.3869 206.223 62.5482 211.354 65.0274C211.8 65.2346 212.245 65.4418 212.69 65.649C223.961 70.984 231.927 80.3258 236.212 92.0229C236.581 93.1328 236.915 94.2494 237.233 95.3751C237.305 95.6312 237.377 95.8873 237.451 96.1511C240.28 106.813 237.361 117.788 232.11 127.173C226.328 137.017 216.532 143.701 205.673 146.724C194.54 149.513 182.49 147.76 172.648 141.929C170.646 140.697 168.752 139.372 166.966 137.844C166.679 137.6 166.392 137.356 166.096 137.105C157.498 129.584 151.761 118.712 150.93 107.233C150.235 95.1791 155.948 83.2237 163.826 74.3225C169.153 68.4678 175.393 64.8481 182.924 62.5854C183.163 62.5131 183.402 62.4409 183.648 62.3666C187.135 61.3771 190.639 61.4105 194.243 61.4087Z" fill="#A7E4AB"/>
<path d="M213.351 87.3792C214.496 88.0795 215.094 88.8435 215.855 89.9499C216.008 90.1685 216.161 90.3872 216.319 90.6125C216.797 92.0904 216.871 93.4615 216.265 94.8909C214.711 97.5113 212.584 99.7437 210.199 101.613C209.761 102.138 209.761 102.138 209.315 102.673C208.431 103.733 208.431 103.733 207.592 104.396C206.784 105.05 206.201 105.662 205.537 106.45C204.299 107.905 202.924 109.142 201.478 110.386C200.642 111.125 200.642 111.125 200.018 111.98C199.154 113.027 198.204 113.849 197.175 114.73C195.896 115.848 194.698 117.046 193.496 118.246C193.25 118.487 193.005 118.728 192.753 118.976C191.698 120.027 190.743 120.998 189.988 122.287C189.775 122.579 189.562 122.871 189.342 123.172C188.48 123.305 188.48 123.305 187.574 123.172C187.033 122.65 187.033 122.65 186.573 121.93C185.449 120.298 184.153 118.978 182.732 117.604C182.212 117.093 181.692 116.582 181.172 116.071C180.361 115.278 179.549 114.486 178.735 113.696C177.943 112.925 177.156 112.15 176.368 111.375C176.125 111.141 175.882 110.908 175.632 110.667C174.215 109.266 173.336 108.116 172.727 106.207C172.727 103.441 173.798 101.603 175.732 99.6691C177.672 98.8376 179.49 98.8102 181.565 99.1389C182.719 99.6572 183.505 100.368 184.393 101.26C184.821 101.667 184.821 101.667 185.259 102.084C187.47 104.233 187.47 104.233 187.928 105.147C189.206 104.949 189.701 104.524 190.513 103.535C190.727 103.28 190.941 103.024 191.162 102.762C191.486 102.368 191.486 102.368 191.816 101.966C193.251 100.253 194.716 98.7384 196.423 97.2945C197.132 96.6534 197.739 95.9804 198.356 95.2513C199.368 94.0569 200.457 93.0733 201.654 92.069C202.583 91.2156 203.385 90.2839 204.211 89.3314C206.91 86.3236 209.593 85.5743 213.351 87.3792Z" fill="#11372C"/>
</g>
<defs>
<clipPath id="clip0_1566_14388">
<rect width="381" height="214.329" fill="white" transform="translate(0 0.835449)"/>
</clipPath>
</defs>
</svg>
