<svg width="64" height="64" viewBox="0 0 77 77" fill="none" xmlns="http://www.w3.org/2000/svg">
<g clip-path="url(#clip0_2833_144)">
<path d="M7.40021 -0.0772393C7.67937 -0.0780408 7.95854 -0.0791038 8.2377 -0.0804046C9.00244 -0.083202 9.76714 -0.082259 10.5319 -0.0806823C11.3576 -0.0796297 12.1832 -0.0820376 13.0089 -0.0839905C14.6256 -0.087244 16.2422 -0.0872261 17.8589 -0.0860019C19.173 -0.0850542 20.4872 -0.0852258 21.8013 -0.0861932C21.9884 -0.0863288 22.1755 -0.0864644 22.3683 -0.0866041C22.7484 -0.0868826 23.1285 -0.0871627 23.5086 -0.0874445C26.0603 -0.0892294 28.612 -0.0898929 31.1638 -0.0882062C31.3134 -0.0881074 31.3134 -0.0881074 31.466 -0.0880066C32.2758 -0.0874642 33.0856 -0.0868875 33.8954 -0.0863085C37.0537 -0.0840759 40.212 -0.0853958 43.3703 -0.0896104C46.921 -0.0943397 50.4717 -0.0965771 54.0224 -0.0950546C54.4012 -0.0949008 54.78 -0.0947512 55.1588 -0.0946059C55.4383 -0.0944984 55.4383 -0.0944984 55.7235 -0.0943888C57.0357 -0.0940635 58.3478 -0.0955369 59.6599 -0.0977297C61.2596 -0.100366 62.8593 -0.100346 64.459 -0.0969248C65.2749 -0.0952497 66.0908 -0.0947722 66.9067 -0.0975716C67.6543 -0.100103 68.4017 -0.0991376 69.1493 -0.0954335C69.4191 -0.0947006 69.6889 -0.0952239 69.9587 -0.0971611C71.978 -0.11061 73.5957 0.169013 75.2008 1.51288C76.6826 2.97703 77.0847 4.7692 77.1939 6.78278C77.2071 6.99517 77.2205 7.20754 77.2341 7.41991C77.2703 8.00053 77.3029 8.58131 77.3345 9.1622C77.3551 9.53447 77.3766 9.90668 77.3983 10.2789C77.6766 15.0545 77.8451 19.8338 77.9721 24.6157C77.993 25.4038 78.0147 26.1919 78.0369 26.98C78.0413 27.1368 78.0457 27.2936 78.0502 27.4551C78.1133 29.6464 78.2203 31.8314 78.3644 34.0188C79.1448 45.8812 79.8823 58.0611 71.6256 67.5854C65.5097 74.4761 58.5716 78.058 49.3748 78.662C44.1064 78.968 38.834 78.6876 33.5752 78.3426C31.3851 78.2006 29.1966 78.1086 27.0027 78.0482C26.8463 78.0439 26.6899 78.0396 26.5287 78.0351C25.8995 78.018 25.2702 78.0011 24.6408 77.9847C19.7361 77.8566 14.8344 77.6802 9.9362 77.3933C9.56928 77.3722 9.20231 77.3523 8.83531 77.3327C8.26745 77.3022 7.6999 77.2683 7.13241 77.2316C6.8324 77.2129 6.53223 77.197 6.23205 77.1814C4.42152 77.0555 2.81382 76.4896 1.50407 75.1955C1.14792 74.7676 0.85606 74.337 0.601724 73.842C0.527852 73.7071 0.527852 73.7071 0.452487 73.5696C-0.158162 72.2934 -0.0841588 70.9802 -0.077239 69.6001C-0.0780405 69.321 -0.0791033 69.0418 -0.0804041 68.7626C-0.0832016 67.9979 -0.082259 67.2332 -0.0806824 66.4684C-0.0796298 65.6428 -0.0820373 64.8171 -0.0839903 63.9914C-0.0872438 62.3748 -0.0872259 60.7581 -0.0860016 59.1415C-0.0850539 57.8273 -0.0852252 56.5132 -0.0861927 55.199C-0.0863283 55.0119 -0.0864643 54.8248 -0.086604 54.6321C-0.0868824 54.252 -0.0871621 53.8718 -0.0874439 53.4917C-0.0892289 50.94 -0.0898925 48.3883 -0.0882058 45.8366C-0.088107 45.687 -0.0881069 45.687 -0.0880061 45.5344C-0.0874637 44.7246 -0.0868869 43.9148 -0.086308 43.105C-0.0840754 39.9466 -0.0853955 36.7883 -0.0896102 33.63C-0.0943395 30.0793 -0.0965771 26.5286 -0.0950546 22.9779C-0.0949008 22.5991 -0.0947507 22.2203 -0.0946053 21.8415C-0.0945337 21.6552 -0.0944623 21.4688 -0.0943885 21.2768C-0.0940632 19.9647 -0.095537 18.6525 -0.0977297 17.3404C-0.100366 15.7407 -0.100346 14.141 -0.0969248 12.5413C-0.0952497 11.7254 -0.0947719 10.9095 -0.0975713 10.0936C-0.100103 9.34606 -0.0991372 8.5986 -0.0954332 7.85107C-0.0947002 7.58127 -0.095224 7.31146 -0.0971612 7.04167C-0.11061 5.0223 0.169014 3.40465 1.51288 1.79956C2.00554 1.30096 2.53572 0.921605 3.15836 0.601724C3.24825 0.552476 3.33813 0.503227 3.43073 0.452487C4.7069 -0.158162 6.02013 -0.084159 7.40021 -0.0772393ZM18.3478 18.3478C18.3478 31.6484 18.3478 44.9489 18.3478 58.6525C31.6484 58.6525 44.9489 58.6525 58.6525 58.6525C58.6525 45.352 58.6525 32.0514 58.6525 18.3478C45.352 18.3478 32.0514 18.3478 18.3478 18.3478Z" fill="#10352B"/>
<path d="M58.6526 18.1973C64.7073 18.1973 70.762 18.1973 77.0002 18.1973C77.7281 27.6971 77.7281 27.6971 77.8814 31.8035C77.9167 32.742 77.9531 33.6804 77.9916 34.6187C77.9987 34.7949 77.9987 34.7949 78.006 34.9747C78.0734 36.6011 78.1835 38.2193 78.3309 39.8403C79.237 49.8193 78.8004 58.4895 72.1589 66.5114C66.3411 73.3941 59.7749 77.8044 50.6843 78.5869C44.99 79.0294 39.2637 78.7157 33.5753 78.3424C31.3851 78.2004 29.1966 78.1084 27.0027 78.0481C26.8463 78.0438 26.6899 78.0394 26.5288 78.035C25.8995 78.0178 25.2702 78.0009 24.6409 77.9845C19.7361 77.8565 14.8345 77.68 9.93625 77.3931C9.56933 77.372 9.20236 77.3521 8.83536 77.3325C8.2675 77.302 7.69995 77.2681 7.13245 77.2314C6.83245 77.2127 6.53228 77.1969 6.2321 77.1812C4.42157 77.0553 2.81387 76.4894 1.50412 75.1953C1.14797 74.7675 0.856111 74.3369 0.601775 73.8418C0.55231 73.7562 0.502848 73.6706 0.451884 73.5824C-0.225118 72.2148 -0.0750274 70.7163 -0.058534 69.2302C-0.0576481 68.963 -0.0570353 68.6957 -0.0566982 68.4285C-0.0552553 67.8343 -0.0516461 67.2402 -0.0466562 66.6461C-0.0347556 65.2202 -0.0275521 63.7944 -0.0197982 62.3685C-0.0157191 61.6225 -0.01149 60.8766 -0.00726865 60.1306C-0.00581283 59.8723 -0.00435825 59.6141 -0.00290399 59.3558C-0.00187579 59.1733 -0.000847026 58.9908 0.000212324 58.8027C9.65228 58.7042 19.3037 58.6374 28.9563 58.6377C29.0574 58.6377 29.1585 58.6377 29.2627 58.6377C32.7241 58.6376 36.1855 58.6405 39.6469 58.6429C45.9188 58.646 52.1906 58.6491 58.6526 58.6523C58.6526 45.3022 58.6526 31.952 58.6526 18.1973Z" fill="#10352B"/>
<path d="M58.6524 18.1973C64.7071 18.1973 70.7618 18.1973 77 18.1973C77.7627 28.1508 77.7627 28.1508 77.9165 31.7782C77.9213 31.8889 77.926 31.9996 77.9309 32.1136C78.0016 33.7722 78.0626 35.431 78.1164 37.0903C78.1279 37.4462 78.1398 37.8022 78.1517 38.1582C78.849 59.39 78.849 59.39 71.79 67.024C70.5977 68.2775 69.3123 69.415 67.986 70.5238C67.8245 70.6596 67.8245 70.6596 67.6598 70.7981C60.2615 77 60.2615 77 58.8028 77C58.7034 67.381 58.6372 57.7627 58.6377 48.1432C58.6377 48.0326 58.6377 47.922 58.6377 47.808C58.6378 45.0077 58.6394 42.2074 58.6416 39.4071C58.6428 37.7868 58.6436 36.1665 58.6441 34.5462C58.6442 34.4285 58.6442 34.3109 58.6442 34.1897C58.6446 33.2676 58.6449 32.3456 58.6451 31.4235C58.6465 27.0148 58.6496 22.606 58.6524 18.1973Z" fill="#10352B"/>
<path d="M58.8027 -1.86704e-05C60.9988 -0.0155277 63.1949 -0.0310367 65.4575 -0.0470157C66.4928 -0.0572844 66.4928 -0.0572844 67.549 -0.0677606C68.4001 -0.0711568 68.4001 -0.0711568 68.8 -0.0717879C69.0759 -0.0729331 69.3518 -0.0755579 69.6277 -0.0794066C71.7797 -0.107895 73.483 0.074598 75.2006 1.5127C75.6992 2.00536 76.0786 2.53554 76.3984 3.15818C76.4479 3.24378 76.4974 3.32937 76.5483 3.41755C77.2253 4.78518 77.0752 6.2837 77.0587 7.76977C77.0579 8.03701 77.0572 8.30424 77.0569 8.57148C77.0538 9.55556 77.0454 10.5396 77.0376 11.5237C77.0252 13.7259 77.0128 15.9282 77 18.1972C70.9949 18.1972 64.9898 18.1972 58.8027 18.1972C58.8027 12.1922 58.8027 6.18705 58.8027 -1.86704e-05Z" fill="#bda0e3"/>
<path d="M0.000212907 58.8027C6.00531 58.8027 12.0104 58.8027 18.1975 58.8027C18.1975 64.8078 18.1975 70.8129 18.1975 77C16.0014 77.0155 13.8053 77.031 11.5427 77.047C10.8525 77.0538 10.1623 77.0607 9.45118 77.0677C8.60016 77.0711 8.60016 77.0711 8.20018 77.0718C7.92429 77.0729 7.64839 77.0755 7.37252 77.0794C5.22049 77.1079 3.51726 76.9254 1.79961 75.4873C1.30101 74.9946 0.921657 74.4644 0.601775 73.8418C0.552311 73.7562 0.502846 73.6706 0.451883 73.5824C-0.22512 72.2148 -0.0750269 70.7163 -0.0585334 69.2302C-0.0576475 68.963 -0.0570347 68.6957 -0.0566976 68.4285C-0.0535608 67.4444 -0.0451622 66.4604 -0.0373847 65.4763C-0.0187739 62.1729 -0.0187739 62.1729 0.000212907 58.8027Z" fill="#bda0e3"/>
<path d="M36.3944 27.9728C36.5557 28.0876 36.717 28.2024 36.8831 28.3206C38.1999 29.6074 38.8114 31.1305 38.8476 32.9545C38.8511 34.5421 38.3763 35.8283 37.2967 36.9963C36.2199 38.049 36.2199 38.049 35.7928 38.049C35.7928 38.1483 35.7928 38.2475 35.7928 38.3498C35.9264 38.3887 36.0599 38.4277 36.1976 38.4679C37.6357 38.9959 38.5757 40.1751 39.2518 41.508C39.9042 43.2832 39.8597 45.121 39.139 46.8656C38.2276 48.7652 36.6834 50.0602 34.7401 50.8322C32.351 51.6316 29.7792 51.4858 27.4931 50.4374C25.5608 49.405 24.2498 47.8089 23.4232 45.8094C23.3104 45.4181 23.3104 45.4181 23.4608 44.967C23.7768 44.7915 23.7768 44.7915 24.1886 44.6268C24.3361 44.5672 24.4835 44.5076 24.6354 44.4462C24.7906 44.3854 24.9458 44.3246 25.1057 44.262C25.2603 44.1995 25.4149 44.137 25.5742 44.0725C26.7223 43.6134 26.7223 43.6134 27.0701 43.6134C27.1066 43.7115 27.143 43.8096 27.1806 43.9107C27.7205 45.3187 28.3067 46.3448 29.7114 47.0348C31.0418 47.5186 32.2318 47.4653 33.5369 46.922C34.5158 46.368 35.059 45.7207 35.4544 44.6662C35.5978 43.5188 35.3861 42.6805 34.7965 41.7054C33.5879 40.5286 32.0881 40.2672 30.4633 40.2109C29.7515 40.1829 29.7515 40.1829 29.0252 40.1545C29.0252 38.9634 29.0252 37.7723 29.0252 36.5451C29.644 36.5265 29.644 36.5265 30.2753 36.5075C31.7204 36.4364 32.984 36.3018 34.0069 35.1822C34.7083 34.308 34.6685 33.4165 34.5897 32.3341C34.2811 31.4248 33.7483 31.0457 32.9448 30.5671C31.97 30.1772 30.5964 30.1811 29.6174 30.5577C28.7915 31.0673 28.3218 31.6969 27.8391 32.5192C27.6717 32.7853 27.6717 32.7853 27.3709 33.0861C26.8215 32.8726 26.2737 32.6555 25.726 32.4375C25.5695 32.3768 25.4129 32.316 25.2517 32.2534C25.0285 32.164 25.0285 32.164 24.8008 32.0727C24.663 32.0184 24.5251 31.964 24.3831 31.9081C24.0623 31.7326 24.0623 31.7326 23.9119 31.2814C24.4698 29.534 25.9633 28.0616 27.5436 27.1938C30.294 25.8717 33.9318 26.1707 36.3944 27.9728Z" fill="#10352B"/>
<path d="M58.8027 58.8027C64.8078 58.8027 70.8129 58.8027 77 58.8027C76.8496 59.5547 78.0527 59.4795 77 60.3066C76.9293 60.3776 76.6216 61.2111 76.5488 61.2842C76.3154 61.5182 76.1812 61.8778 75.9473 62.1113C75.7784 62.2804 75.2939 63.3709 75.1251 63.54C74.6694 63.9965 74.3737 64.5129 73.9174 64.9688C73.4395 65.4462 73.0267 66.2205 72.5491 66.6982C71.7483 67.4994 70.8082 68.5295 70.0068 69.3301C69.0793 70.2568 68.5781 70.7588 67.5254 71.5859C66.606 72.3083 66.3975 72.5635 65.4199 73.2402C64.9443 73.7156 64.8936 73.6914 64.0664 74.1426C63.6205 74.5889 63.385 74.4489 62.9385 74.8945C62.7742 75.0586 62.0497 75.407 61.8857 75.5713C61.6629 75.7945 61.3572 75.9502 61.1338 76.1729C61.0087 76.2979 60.4144 76.5704 60.2855 76.6992C60.0017 76.964 58.9531 77 58.8027 77C58.8027 70.9949 58.8027 64.9898 58.8027 58.8027Z" fill="#bda0e3"/>
<path d="M52.0352 27.0701C52.0352 34.8619 52.0352 42.6536 52.0352 50.6814C50.7448 50.6814 49.4545 50.6814 48.125 50.6814C48.125 44.6763 48.125 38.6713 48.125 32.4842C46.3179 33.7591 46.3179 33.7591 44.5156 35.0408C44.3667 35.0408 44.2179 35.0408 44.0645 35.0408C43.88 34.8295 43.88 34.8295 43.702 34.5356C43.6369 34.4298 43.5719 34.3239 43.5049 34.2148C43.4383 34.1028 43.3717 33.9907 43.3031 33.8753C43.2359 33.7656 43.1688 33.6558 43.0995 33.5428C42.7986 33.0479 42.514 32.5538 42.2598 32.033C43.3174 31.2073 44.378 30.3874 45.4823 29.6246C45.993 29.2697 46.4756 28.8989 46.9495 28.4959C47.0603 28.406 47.1712 28.3161 47.2854 28.2235C47.4976 28.0511 47.7056 27.8732 47.9075 27.6888C49.2241 26.6462 50.1486 27.0701 52.0352 27.0701Z" fill="#10352B"/>
</g>
<defs>
<clipPath id="clip0_2833_144">
<rect width="77" height="77" fill="white"/>
</clipPath>
</defs>
</svg>
