<svg width="656" height="369" viewBox="0 0 1563 880" fill="none" xmlns="http://www.w3.org/2000/svg"><g clip-path="url(#clip0_774_20718)"><path d="M0 0C515.79 0 1031.58 0 1563 0C1563 290.4 1563 580.8 1563 880C1047.21 880 531.42 880 0 880C0 589.6 0 299.2 0 0Z" fill="#10362B" /><path d="M0 0C194.764 0 389.529 0 590.195 0C593.419 5.64667 593.419 5.64667 596.708 11.4074C598.387 13.6605 600.018 15.7668 601.846 17.875C602.767 18.9721 603.685 20.0713 604.6 21.1725C605.052 21.715 605.503 22.2575 605.969 22.8164C608.049 25.3778 609.989 28.0342 611.921 30.7083C612.473 31.4678 612.473 31.4678 613.037 32.2427C614.743 34.5877 616.44 36.9388 618.125 39.2989C622.105 44.7073 626.432 49.358 631.255 54.0324C641.272 63.8309 647.812 75.1212 654.929 87.1215C658.824 93.6611 662.917 99.8739 667.531 105.926C667.914 106.432 668.297 106.939 668.692 107.46C670.851 110.314 673.024 113.156 675.208 115.99C677.298 118.706 679.368 121.437 681.427 124.177C686.861 131.392 692.249 138.474 698.466 145.037C700.407 147.175 702.293 149.356 704.164 151.556C704.512 151.96 704.859 152.364 705.217 152.78C711.903 160.596 717.734 168.851 723.452 177.396C727.62 183.603 731.987 189.577 736.583 195.47C739.429 199.121 742.144 202.864 744.867 206.606C749.701 213.223 754.766 219.613 759.989 225.925C761.035 227.196 762.066 228.478 763.094 229.762C766.762 234.337 770.617 238.668 774.625 242.942C777.22 245.725 779.648 248.585 782.009 251.574C785.499 255.939 789.453 259.582 793.711 263.185C793.121 263.656 792.531 264.126 791.924 264.611C789.828 266.294 787.748 267.995 785.672 269.704C784.882 270.345 784.092 270.987 783.278 271.648C781.498 273.099 779.752 274.581 778.018 276.085C770.229 282.724 761.809 287.51 752.743 292.205C750.097 293.576 747.468 294.974 744.838 296.374C743.134 297.28 741.428 298.183 739.722 299.085C739.208 299.357 738.693 299.629 738.163 299.909C736.89 300.58 735.616 301.249 734.342 301.918C726.14 306.29 718.272 311.279 710.598 316.519C703.425 321.413 695.971 325.805 688.467 330.166C676.088 337.405 663.903 345.18 657.406 358.468C655.533 368.676 658.726 376.628 664.065 385.255C670.76 394.396 681.777 400.26 692.767 402.519C712.927 405.535 736.361 406.1 756.468 402.926C768.36 401.093 780.037 400.605 791.936 402.745C792.504 402.846 793.071 402.948 793.656 403.053C796.097 403.495 798.537 403.94 800.976 404.399C810.443 406.142 819.74 406.791 829.355 406.879C830.495 406.894 831.636 406.908 832.776 406.923C839.624 407.004 839.624 407.004 846.471 406.944C861.06 406.671 870.851 407.77 881.68 418.108C882.2 418.61 882.721 419.112 883.258 419.63C884.415 420.675 885.575 421.717 886.74 422.754C890.529 426.143 894.161 429.665 897.669 433.345C902.736 438.657 908.138 442.933 914.131 447.163C922.539 453.141 929.77 460.346 937.027 467.639C938.364 468.981 939.704 470.318 941.045 471.655C945.135 475.746 949.133 479.87 952.888 484.276C954.634 486.257 956.571 488.014 958.508 489.806C964.779 495.874 968.262 503.258 971.94 511.093C974.422 516.164 977.801 519.951 981.759 523.926C982.179 524.369 982.598 524.813 983.03 525.27C986.412 528.789 989.976 531.553 994.021 534.264C1003.12 540.537 1011.24 547.534 1018.92 555.484C1020.78 557.284 1022.7 558.729 1024.8 560.236C1029.17 563.614 1031.93 567.771 1034.99 572.293C1037.74 576.348 1040.65 580.129 1043.88 583.815C1044.29 584.283 1044.7 584.751 1045.12 585.234C1045.9 586.123 1046.68 587.011 1047.46 587.9C1050.88 591.843 1053.92 595.956 1056.7 600.366C1058.74 603.499 1060.83 605.002 1063.98 607.037C1067.24 610.762 1070.24 614.553 1070.8 619.565C1070.43 623.083 1069.49 624.713 1067.24 627.407C1064.48 629.23 1062.15 629.232 1058.89 629.19C1058.01 629.185 1057.14 629.179 1056.23 629.174C1053.4 629.037 1053.4 629.037 1050.46 628.63C1047.62 628.248 1044.84 628.16 1041.98 628.136C1024.92 627.974 1009.41 625.136 993.579 618.756C989.898 617.309 986.162 616.149 982.37 615.032C980.642 614.521 978.931 613.949 977.231 613.352C973.112 612.452 968.852 612.149 964.664 612.741C961.71 617.176 962.397 623.057 963.036 628.222C964.735 636.182 968.141 643.634 971.655 650.93C975.534 659.011 977.886 666.765 974.84 675.532C971.396 683.251 965.396 688.384 957.846 691.851C943.971 696.666 927.147 687.111 914.51 681.96C909.525 679.939 904.512 678.029 899.437 676.245C898.753 675.992 898.068 675.738 897.363 675.477C892.541 673.825 888.252 673.412 883.258 674.667C880.254 676.329 877.73 678.649 876.745 682C876.417 686.566 877.362 689.953 879.187 694.069C879.439 694.659 879.69 695.248 879.949 695.856C882.188 701.072 884.506 706.257 886.857 711.424C887.12 712.004 887.382 712.585 887.652 713.183C887.885 713.692 888.117 714.201 888.356 714.726C890.221 719.378 890.695 724.681 889.185 729.495C886.902 734.416 883.564 737.41 878.464 739.419C870.874 741.33 862.679 739.259 855.223 737.662C854.132 737.433 853.041 737.205 851.95 736.977C849.79 736.522 847.632 736.061 845.475 735.593C843.051 735.07 840.625 734.568 838.195 734.075C823.846 731.032 809.989 725.917 796.153 721.111C795.621 720.927 795.089 720.743 794.541 720.554C785.344 717.364 785.344 717.364 781.296 715.458C775.349 712.719 768.994 710.911 762.776 708.889C745.327 703.214 745.327 703.214 740.797 700.741C739.726 698.203 740.063 696.365 740.743 693.751C741.027 692.649 741.027 692.649 741.317 691.524C741.531 690.734 741.746 689.944 741.967 689.13C742.186 688.307 742.406 687.485 742.631 686.638C745.891 674.68 749.53 662.619 754.709 651.336C757.816 643.248 757.269 632.837 753.822 624.963C748.532 614.325 741.147 608.775 730.214 604.593C723.384 602.475 716.161 601.763 709.048 601.333C709.285 600.128 709.522 598.923 709.761 597.718C709.893 597.046 710.025 596.375 710.161 595.684C710.448 594.296 710.745 592.909 711.088 591.534C712.182 587.044 712.591 582.83 712.559 578.213C712.555 577.201 712.555 577.201 712.55 576.169C712.458 570.955 711.754 566.296 709.862 561.407C709.56 560.55 709.258 559.693 708.947 558.81C704.587 552.265 698.4 548.562 691.139 545.926C690.442 545.665 689.745 545.405 689.028 545.137C674.297 540.561 657.198 543.91 642.295 545.926C642.234 545.256 642.174 544.586 642.111 543.895C640.878 533.419 636.505 526.659 628.399 520.122C624.121 516.951 619.552 514.372 614.872 511.857C614.291 511.543 613.711 511.229 613.113 510.905C607.132 507.766 601.753 506.513 595.029 506.56C594.347 506.564 593.666 506.568 592.964 506.572C586.925 506.685 581.367 507.646 575.542 509.259C575.007 509.399 574.473 509.539 573.922 509.683C558.024 513.847 544.69 520.945 531.023 529.977C525.222 533.804 519.355 537.09 513.107 540.133C509.174 542.049 505.289 544.053 501.412 546.079C500.772 546.408 500.133 546.737 499.474 547.076C496.477 548.647 493.754 550.244 491.086 552.333C488.437 554.074 488.437 554.074 486.456 554.185C483.339 552.804 480.612 550.956 477.804 549.032C468.076 542.38 458.151 538.332 446.903 534.943C434.072 530.888 426.29 523.946 418.835 512.926C414.491 506.508 410.107 500.781 403.54 496.528C402.68 495.966 401.821 495.404 400.935 494.826C400.473 494.526 400.012 494.226 399.536 493.917C397.473 492.569 395.427 491.196 393.379 489.824C391.158 488.338 388.93 486.861 386.702 485.384C385.565 484.629 384.429 483.872 383.295 483.112C373.037 476.242 363.058 471.584 351.282 467.807C343.828 465.317 337.424 461.883 331.68 456.449C331.287 456.082 330.895 455.714 330.491 455.336C327.327 452.342 324.285 449.229 321.233 446.122C315.964 440.77 310.957 435.709 304.459 431.852C303.553 431.3 302.646 430.749 301.712 430.181C299.65 428.933 297.583 427.695 295.511 426.463C283.299 419.192 272.669 411.295 262.128 401.704C259.975 399.782 257.798 397.889 255.616 396C254.876 395.349 254.136 394.698 253.374 394.027C246.587 388.114 239.397 382.873 232.071 377.655C221.998 370.445 212.522 362.563 203.147 354.479C200.842 352.494 198.518 350.532 196.187 348.577C189.024 342.561 182.072 336.34 175.519 329.656C174.182 328.343 172.79 327.137 171.36 325.926C169.149 324.031 167.077 322.053 165.054 319.961C157.337 311.982 149.115 305.325 140.176 298.774C129.079 290.583 119.325 280.747 110.334 270.307C108.721 268.476 106.987 266.799 105.218 265.12C97.6109 257.564 91.5529 248.761 85.3472 240.054C81.9832 235.373 78.3903 230.975 74.6235 226.617C71.1784 222.621 67.9736 218.434 64.7426 214.264C63.382 212.519 62.0061 210.788 60.6286 209.057C55.0964 202.076 50.0441 195.135 45.5875 187.407C44.741 186.015 43.8931 184.623 43.0435 183.231C41.4181 180.526 39.9236 177.78 38.4645 174.981C33.589 166.027 27.5276 158.557 20.5002 151.237C15.7605 146.244 12.034 140.951 8.14062 135.259C5.45422 131.495 2.76781 127.73 0 123.852C0 82.9807 0 42.1096 0 0Z" fill="#A7E4AB" /><path d="M1157.6 0C1291.38 0 1425.16 0 1563 0C1563.3 59.9958 1563.3 59.9958 1563.61 121.204C1563.7 133.834 1563.79 146.464 1563.88 159.477C1563.92 174.898 1563.92 174.898 1563.93 182.116C1563.94 187.159 1563.98 192.201 1564.03 197.244C1564.09 203.064 1564.12 208.882 1564.11 214.702C1564.1 217.678 1564.11 220.652 1564.16 223.628C1564.5 243.101 1564.5 243.101 1559.56 248.555C1557.57 250.381 1555.46 251.875 1553.23 253.407C1551.69 255.042 1551.69 255.042 1550.58 256.571C1550.07 257.233 1550.07 257.233 1549.56 257.909C1549.24 258.339 1548.93 258.769 1548.6 259.213C1547.86 260.181 1547.12 261.148 1546.38 262.113C1545.84 262.802 1545.84 262.802 1545.3 263.506C1538.62 272.035 1530.49 279.107 1522.33 286.169C1520.35 287.911 1518.43 289.708 1516.5 291.5C1505.38 301.632 1492.98 310.175 1480.56 318.623C1477.55 320.679 1474.65 322.812 1471.77 325.06C1467.38 328.32 1462.59 330.685 1457.73 333.157C1446.14 339.082 1437.03 345.866 1427.64 354.833C1416.66 365.298 1404.96 373.346 1391.89 380.977C1379.46 388.246 1368.74 397.126 1358.11 406.796C1355.64 409.016 1353.09 410.985 1350.38 412.907C1343.67 417.691 1337.08 423.022 1331.45 429.051C1324.13 436.62 1314.39 442.216 1305.63 447.968C1304.16 448.939 1302.7 449.922 1301.25 450.911C1293.31 456.287 1285.19 461.359 1277.02 466.361C1275.57 467.246 1274.12 468.134 1272.68 469.024C1257.83 478.159 1243.56 485.544 1226.64 490.009C1217.58 492.727 1210.03 497.991 1202.83 503.953C1195.26 510.209 1187.48 515.455 1177.95 518.222C1177.06 518.504 1176.18 518.785 1175.27 519.075C1171.95 519.93 1168.79 520.237 1165.38 520.514C1151.84 521.873 1140.7 526.498 1129.87 534.795C1127.48 536.148 1127.48 536.148 1125.11 536.123C1122.07 535.171 1119.27 533.929 1116.44 532.481C1115.86 532.191 1115.29 531.9 1114.7 531.601C1107.96 528.091 1101.89 523.733 1095.89 519.101C1085.34 510.973 1074.64 505.101 1062.5 499.634C1049.62 493.808 1038.3 486.431 1026.94 478.068C1023.12 475.255 1019.23 472.615 1015.24 470.046C1009.47 466.292 1004.61 461.876 999.669 457.111C989.275 447.37 978.959 440.575 965.603 435.709C950.54 430.218 939.203 422.689 928.947 410.208C925.478 406.116 921.202 403.067 916.911 399.894C911.301 395.743 905.978 391.599 901.778 385.968C896.089 378.852 889.116 372.047 880.002 369.926C873.633 369.528 867.307 370.122 860.973 370.741C852.98 371.45 845.03 371.712 837.009 371.708C835.504 371.709 835.504 371.709 833.969 371.71C828.666 371.678 823.451 371.416 818.172 370.931C806.313 370.021 793.799 369.755 782.133 372.315C770.662 374.699 758.47 372.938 746.953 371.708C744.019 371.405 741.085 371.106 738.151 370.808C737.419 370.732 736.687 370.657 735.933 370.579C731.079 370.084 726.223 369.634 721.361 369.222C720.731 369.169 720.1 369.115 719.45 369.06C717.053 368.857 714.656 368.656 712.258 368.463C705.931 367.955 699.768 367.305 693.581 365.852C693.581 365.314 693.581 364.776 693.581 364.222C695.031 363.106 695.031 363.106 697.07 361.826C698.188 361.117 698.188 361.117 699.328 360.395C700.135 359.894 700.942 359.392 701.773 358.875C703.003 358.104 703.003 358.104 704.259 357.317C705.91 356.284 707.564 355.254 709.219 354.227C711.114 353.049 713.001 351.858 714.884 350.66C723.848 345.026 733.399 340.843 743.271 337.063C752.627 333.458 759.766 328.249 767.393 321.889C771.824 318.242 776.466 315.138 781.322 312.094C785.106 309.701 788.652 307.147 792.134 304.333C796.164 301.089 800.261 297.985 804.497 295.014C805.261 294.466 805.261 294.466 806.04 293.906C813.199 288.954 821.026 286.975 829.433 285.203C839.415 282.98 848.139 278.931 856.903 273.727C857.816 273.19 858.729 272.653 859.669 272.1C862.382 270.496 865.087 268.879 867.791 267.259C868.944 266.578 868.944 266.578 870.12 265.883C881.486 259.151 889.512 251.923 897.841 241.583C902.187 236.394 907.329 232.938 913.071 229.453C917.02 227.04 920.874 224.509 924.695 221.9C935.59 214.476 946.383 207.613 958.19 201.692C969.496 196.003 979.046 188.319 988.221 179.667C997.016 171.401 1005.99 165.165 1017.25 160.63C1023.88 157.951 1029.94 155.437 1035.6 150.954C1038.58 148.598 1041.68 146.446 1044.8 144.273C1050.46 140.286 1056.07 136.247 1061.54 132C1062.14 131.556 1062.74 131.111 1063.35 130.654C1069.39 125.872 1072.75 119.08 1076.34 112.406C1080 105.646 1083.72 99.9774 1089.22 94.5185C1090.32 93.3873 1090.32 93.3873 1091.44 92.2332C1095.2 88.3833 1099.07 84.714 1103.15 81.1982C1113.26 72.3361 1120.1 61.6969 1126.99 50.2796C1130.05 45.2232 1133.19 40.245 1136.5 35.349C1136.86 34.8259 1137.21 34.3028 1137.57 33.7639C1139.28 31.2441 1141 28.7329 1142.73 26.2318C1148.53 17.7077 1152.71 9.34603 1157.6 0Z" fill="#DDCDF1" /><path d="M196.036 579.995C197.086 579.985 198.136 579.975 199.218 579.965C212.339 579.945 223.501 582.609 235.264 588.296C236.285 588.771 237.306 589.247 238.326 589.722C264.163 601.96 282.427 623.39 292.248 650.222C293.095 652.768 293.862 655.33 294.589 657.912C294.754 658.499 294.92 659.087 295.09 659.692C301.575 684.149 294.884 709.325 282.845 730.854C269.59 753.437 247.134 768.768 222.239 775.704C196.718 782.1 169.094 778.08 146.531 764.704C141.943 761.877 137.601 758.839 133.506 755.333C132.848 754.773 132.19 754.214 131.512 753.637C111.802 736.386 98.6494 711.446 96.745 685.113C95.1515 657.462 108.248 630.037 126.308 609.619C138.519 596.188 152.824 587.885 170.088 582.694C170.636 582.529 171.184 582.363 171.749 582.192C179.743 579.923 187.775 579.999 196.036 579.995Z" fill="#A7E4AB" /><path d="M1361.14 579.829C1362.79 579.842 1364.45 579.829 1366.1 579.814C1373.39 579.802 1380.11 580.768 1387.16 582.592C1388.71 582.981 1388.71 582.981 1390.29 583.378C1412.28 590.292 1434.62 604.765 1446.59 624.963C1446.87 625.425 1447.15 625.888 1447.43 626.364C1457.54 643.281 1463.86 659.831 1463.79 679.81C1463.79 680.687 1463.79 681.565 1463.8 682.469C1463.77 705.283 1454.8 726.635 1440.08 743.926C1439.57 744.544 1439.06 745.163 1438.53 745.8C1423.21 763.887 1398.9 775.88 1375.37 777.919C1363.57 778.736 1352.3 778.391 1340.76 775.703C1339.82 775.495 1338.88 775.287 1337.91 775.073C1321.05 770.818 1306.8 761.555 1294.36 749.629C1293.74 749.063 1293.13 748.497 1292.49 747.914C1276.32 732.596 1264.85 707.594 1263.97 685.332C1263.81 674.819 1264.46 665.192 1267.5 655.111C1267.77 654.157 1268.05 653.203 1268.33 652.221C1273.87 635.083 1284.31 619.08 1296.8 606.222C1297.33 605.648 1297.87 605.075 1298.41 604.484C1314.29 587.8 1338.51 579.616 1361.14 579.829Z" fill="#DDCDF1" /><path d="M602.406 537.88C605.329 540.622 606.288 543.238 606.985 547.148C606.455 557.223 597.798 566.562 591.992 574.161C588.324 579.039 585.605 582.733 586.125 589.111C592.863 589.24 599.427 588.911 606.12 588.143C607.067 588.035 608.013 587.927 608.988 587.815C625.793 585.792 642.023 582.332 658.223 577.44C663.712 575.913 669.182 575.403 674.858 576.074C677.453 578.009 677.453 578.009 678.928 580.148C679.465 580.686 680.003 581.224 680.556 581.778C681.375 587.513 680.167 590.818 676.915 595.55C672.978 600.38 668.456 604.637 663.991 608.972C661.476 611.45 659.19 614.09 656.948 616.815C656.32 617.563 655.691 618.31 655.044 619.081C649.077 625.994 649.077 625.994 647.994 634.741C648.255 636.643 648.524 638.545 648.808 640.444C656.254 640.231 663.372 639.456 670.686 638.051C683.295 635.67 695.397 634.592 708.234 634.537C708.826 634.533 709.418 634.528 710.028 634.524C711.72 634.514 713.411 634.517 715.103 634.524C716.093 634.526 717.082 634.528 718.102 634.53C720.445 634.741 720.445 634.741 722.073 636.37C721.413 644.204 715.148 651.336 709.681 656.496C703.237 661.839 695.689 665.574 688.301 669.427C684.83 671.238 681.405 673.108 678.01 675.058C667.324 681.191 656.672 686.162 644.738 689.333C643.308 689.726 643.308 689.726 641.85 690.126C634.416 691.842 627.109 692.028 619.502 692.083C618.481 692.095 617.461 692.106 616.41 692.118C609.753 692.083 604.507 691.807 599.252 687.347C595.718 683.082 595.494 679.736 595.585 674.266C596.431 666.434 601 659.391 604.848 652.667C604.268 652.914 603.688 653.162 603.09 653.417C600.838 654.273 598.701 654.828 596.345 655.324C595.479 655.51 594.612 655.697 593.719 655.888C592.791 656.086 591.864 656.283 590.908 656.486C582.808 658.246 574.761 660.152 566.74 662.241C565.819 662.48 564.898 662.719 563.949 662.965C559.022 664.256 559.022 664.256 554.189 665.85C551.107 666.764 548.213 666.818 545.015 666.824C544.418 666.844 543.821 666.864 543.205 666.884C538.975 666.907 536.525 666.107 533.211 663.259C530.806 659.746 531.154 655.944 531.583 651.852C532.946 645.193 535.706 639.038 538.451 632.856C538.754 632.175 539.056 631.494 539.367 630.793C541.347 626.452 543.604 622.423 546.236 618.444C543.068 618.918 540.007 619.579 536.913 620.407C524.088 623.824 507.506 627.561 494.826 621.92C492.205 620.123 491.06 618.172 490.066 615.185C488.862 604.744 494.421 594.612 500.648 586.667C512.925 571.582 535.011 563.146 552.055 554.647C554.803 553.276 557.546 551.895 560.288 550.511C562.441 549.426 564.596 548.348 566.753 547.271C567.764 546.764 568.775 546.256 569.785 545.746C592.633 534.211 592.633 534.211 602.406 537.88Z" fill="#DDCDF0" /><path d="M240.082 639.406C242.719 641.021 244.095 642.782 245.847 645.333C246.199 645.837 246.552 646.341 246.915 646.861C248.017 650.268 248.188 653.429 246.791 656.724C243.213 662.766 238.315 667.912 232.822 672.222C231.814 673.432 231.814 673.432 230.787 674.666C228.752 677.111 228.752 677.111 226.818 678.638C224.958 680.146 223.616 681.556 222.086 683.375C219.237 686.727 216.069 689.579 212.741 692.449C210.814 694.152 210.814 694.152 209.376 696.122C207.387 698.537 205.2 700.432 202.83 702.462C199.884 705.041 197.125 707.801 194.357 710.569C193.793 711.124 193.228 711.679 192.647 712.251C190.218 714.675 188.019 716.914 186.28 719.885C185.789 720.559 185.298 721.232 184.792 721.925C182.808 722.232 182.808 722.232 180.722 721.925C179.476 720.722 179.476 720.722 178.417 719.061C175.827 715.3 172.844 712.256 169.57 709.089C168.372 707.911 167.175 706.733 165.978 705.554C164.111 703.726 162.241 701.9 160.367 700.078C158.543 698.302 156.729 696.516 154.917 694.728C154.357 694.19 153.797 693.651 153.221 693.097C149.959 689.866 147.934 687.214 146.531 682.814C146.531 676.436 148.997 672.198 153.451 667.74C157.919 665.823 162.105 665.76 166.883 666.518C169.54 667.713 171.351 669.353 173.395 671.407C174.382 672.348 174.382 672.348 175.389 673.307C180.483 678.261 180.483 678.261 181.536 680.37C184.48 679.914 185.62 678.933 187.489 676.652C187.982 676.064 188.475 675.476 188.983 674.87C189.729 673.962 189.729 673.962 190.491 673.037C193.795 669.085 197.168 665.595 201.099 662.266C202.731 660.788 204.13 659.236 205.551 657.555C207.881 654.801 210.388 652.534 213.144 650.219C215.283 648.251 217.131 646.103 219.034 643.907C225.249 636.973 231.428 635.245 240.082 639.406Z" fill="#11372C" /><path d="M1406.5 638.815C1410.17 641.111 1412.55 643.672 1414.03 647.778C1414.8 652.728 1414.33 655.805 1411.58 660C1404.35 668.75 1395.94 676.599 1387.92 684.609C1386.39 686.139 1384.86 687.67 1383.33 689.203C1381.1 691.439 1378.87 693.671 1376.64 695.903C1375.96 696.586 1375.27 697.269 1374.57 697.973C1371.56 700.98 1368.57 703.857 1365.18 706.444C1364.24 707.436 1363.32 708.454 1362.44 709.5C1361.71 710.343 1361.71 710.343 1360.98 711.203C1360.49 711.784 1359.99 712.364 1359.48 712.963C1358.47 714.136 1357.45 715.307 1356.43 716.477C1355.98 716.995 1355.53 717.512 1355.07 718.046C1354.65 718.52 1354.22 718.993 1353.79 719.481C1353.41 719.964 1353.04 720.446 1352.65 720.942C1351.34 721.926 1351.34 721.926 1349.32 721.878C1346.8 720.933 1346.15 720.01 1344.63 717.801C1341.46 713.61 1337.89 710.111 1334.04 706.546C1333.44 705.987 1332.84 705.427 1332.22 704.851C1331.02 703.736 1329.82 702.622 1328.62 701.509C1314.07 687.974 1314.07 687.974 1313.44 680.37C1313.71 675.441 1316.62 671.814 1320.15 668.606C1323.11 666.608 1324.83 666.368 1328.4 666.315C1329.24 666.294 1330.09 666.273 1330.96 666.251C1335.87 666.781 1339.09 670.181 1342.59 673.393C1343.03 673.783 1343.47 674.172 1343.93 674.573C1347.83 678.129 1347.83 678.129 1348.09 681.185C1350.98 680.726 1352.11 679.821 1353.94 677.569C1354.43 676.983 1354.92 676.397 1355.43 675.793C1355.96 675.153 1356.49 674.512 1357.04 673.852C1360.88 669.414 1364.74 665.282 1369.23 661.502C1371.83 659.136 1374.08 656.46 1376.4 653.819C1378.51 651.526 1380.78 649.554 1383.17 647.555C1384.84 646.041 1386.23 644.421 1387.67 642.685C1392.88 636.631 1399.32 635.275 1406.5 638.815Z" fill="#11362C" /></g><defs><clipPath id="clip0_774_20718"><rect width="1563" height="880" fill="white" /></clipPath></defs></svg>