<svg width="331" height="378" viewBox="0 0 331 378" fill="none" xmlns="http://www.w3.org/2000/svg">
<path d="M283.292 281.696L253.245 280.491H248.388L261.335 257.42L269.882 247.11L286.293 213.046L289.316 211.615L298.425 230.776L314.26 261.937L323.622 273.409L327.551 277.58L295.655 283.028L283.292 281.696Z" fill="#C8AFE7"/>
<path d="M247.742 280.181C247.72 282.788 250.701 281.076 252.943 282.394C255.185 283.711 255.614 282.985 257.863 284.303C260.105 285.621 258.826 287.813 261.075 289.137C263.324 290.455 263.324 290.448 265.573 291.766C267.822 293.083 267.857 293.02 270.107 294.338C272.349 295.656 273.6 293.513 275.849 294.831C278.098 296.149 277.248 297.6 279.497 298.925C281.746 300.243 282.575 298.827 284.824 300.144C287.074 301.462 286.04 304.316 288.648 304.33C291.249 304.351 290.665 302.209 292.928 300.92C295.192 299.63 295.831 300.764 298.101 299.475C300.372 298.185 300.407 298.256 302.67 296.966C304.933 295.677 304.413 294.761 306.676 293.471C308.94 292.182 309.572 293.295 311.835 292.005C314.099 290.716 313.902 290.37 316.165 289.074C318.428 287.784 318.147 287.291 320.417 285.994C322.68 284.705 322.055 283.599 324.325 282.302C326.588 281.012 329.997 283.317 330.018 280.702C330.039 278.095 327.832 278.243 325.59 276.925C323.341 275.607 323.299 275.685 321.05 274.367C318.801 273.049 318.056 274.318 315.813 273C313.571 271.682 313.74 271.386 311.491 270.069C309.242 268.751 309.403 268.469 307.161 267.151C304.912 265.834 304.526 266.496 302.283 265.178C300.034 263.861 299.591 264.622 297.342 263.297C295.093 261.972 295.325 261.584 293.069 260.26C290.82 258.935 291.389 257.962 289.133 256.652C289.126 256.645 289.555 257.983 289.548 257.991C287.291 259.287 286.722 258.286 284.459 259.576C282.196 260.866 281.556 259.738 279.293 261.028C277.03 262.317 278.056 264.121 275.793 265.411C273.529 266.7 272.602 265.073 270.346 266.362C268.082 267.652 268.947 269.167 266.684 270.463C264.42 271.753 263.556 270.224 261.293 271.513C259.029 272.803 259.514 273.663 257.251 274.952C254.988 276.242 255.459 277.609 252.943 278.278C249.934 279.075 247.763 277.566 247.742 280.181Z" fill="#C8AFE7"/>
<path d="M287.98 257.49C289.267 259.759 290.848 258.843 293.097 260.168C295.346 261.486 295.332 261.507 297.581 262.824C299.831 264.142 299.859 264.093 302.108 265.411C304.357 266.728 304.427 266.602 306.676 267.926C308.926 269.244 308.595 269.808 310.844 271.126C313.093 272.443 313.614 271.548 315.863 272.866C318.112 274.184 317.824 274.677 320.073 275.995C322.322 277.32 322.434 277.122 324.684 278.447C326.933 279.772 327.523 282.661 329.793 281.372C332.057 280.082 328.88 278.088 328.894 275.48C328.908 272.873 328.725 272.873 328.739 270.259C328.753 267.651 329.266 267.652 329.28 265.044C329.294 262.437 328.795 262.43 328.809 259.823C328.823 257.215 329.583 257.215 329.597 254.608C329.611 251.994 328.739 251.994 328.753 249.379C328.767 246.772 328.838 246.772 328.852 244.158C328.866 241.543 330.693 241.557 330.707 238.943C330.721 236.329 331.579 235.638 330.292 233.369C329.006 231.1 327.832 231.727 325.59 230.409C323.348 229.092 323.404 228.986 321.162 227.668C318.92 226.35 317.789 228.281 315.546 226.956C313.297 225.639 313.74 224.878 311.498 223.56C309.249 222.242 309.481 221.847 307.239 220.53C304.997 219.212 305.418 218.486 303.169 217.168C300.92 215.851 300.47 216.626 298.221 215.308C295.972 213.99 295.431 214.92 293.181 213.596C290.932 212.271 291.347 208.36 289.077 209.642C286.814 210.932 289.112 212.574 289.098 215.181C289.084 217.788 290.117 217.796 290.096 220.403C290.075 223.01 287.938 222.996 287.924 225.61C287.91 228.218 287.91 228.218 287.889 230.832C287.875 233.439 289.913 233.453 289.899 236.068C289.885 238.675 289.991 238.682 289.976 241.289C289.962 243.897 288.803 243.89 288.782 246.504C288.768 249.118 288.852 248.992 288.177 251.514C287.383 254.46 286.694 255.221 287.98 257.49Z" fill="#C8AFE7"/>
<path d="M248.775 279.215C251.017 280.54 250.729 279.356 252.992 278.067C255.255 276.777 254.299 275.093 256.562 273.803C258.826 272.514 259.641 273.951 261.904 272.662C264.167 271.372 263.556 270.301 265.819 269.012C268.082 267.722 268.553 268.554 270.816 267.264C273.08 265.975 273.044 265.911 275.308 264.622C277.571 263.332 276.952 262.24 279.216 260.95C281.479 259.661 282.139 260.816 284.403 259.527C286.666 258.237 286.708 258.308 288.971 257.018C288.978 257.011 289.583 256.962 289.583 256.955C289.604 254.347 290.272 254.347 290.293 251.74C290.307 249.133 289.456 249.126 289.477 246.518C289.491 243.911 291.249 243.587 291.27 240.98C291.284 238.372 293.048 238.379 293.062 235.772C293.076 233.165 289.681 233.475 289.695 230.86C289.709 228.253 288.036 228.239 288.058 225.632C288.072 223.024 290.518 223.038 290.532 220.424C290.546 217.81 289.864 217.753 289.885 215.139C289.899 212.525 290.855 212.398 288.606 211.073C286.364 209.755 287.291 211.785 285.028 213.074C282.765 214.364 282.948 214.688 280.685 215.978C278.421 217.267 277.416 215.498 275.153 216.788C272.89 218.078 273.417 219.008 271.154 220.297C268.891 221.587 269.01 221.798 266.747 223.088C264.484 224.377 263.949 223.433 261.686 224.723C259.423 226.012 260.21 227.407 257.947 228.697C255.684 229.987 254.658 228.183 252.394 229.472C250.131 230.762 249.717 230.874 248.395 233.129C247.081 235.377 248.297 235.807 248.276 238.415C248.262 241.022 247.348 241.022 247.334 243.629C247.32 246.236 248.704 246.251 248.69 248.858C248.676 251.465 249.717 251.472 249.703 254.087C249.688 256.694 249.14 256.694 249.126 259.301C249.112 261.916 249.71 261.916 249.688 264.53C249.674 267.137 248.648 267.137 248.627 269.745C248.613 272.359 247.735 272.19 247.186 274.741C246.694 277.08 246.533 277.891 248.775 279.215Z" fill="#C8AFE7"/>
<path d="M283.292 143.008L253.245 141.803H248.388L261.335 118.732L269.882 108.422L286.293 74.3582L289.316 72.9277L298.425 92.0879L314.26 123.256L323.622 134.721L327.551 138.893L295.655 144.34L283.292 143.008Z" fill="#A8E6A5"/>
<path d="M247.082 142.399C247.061 145.007 250.041 143.294 252.283 144.612C254.525 145.93 254.954 145.204 257.203 146.522C259.445 147.839 258.166 150.031 260.415 151.356C262.664 152.674 262.664 152.667 264.914 153.984C267.163 155.302 267.198 155.239 269.447 156.556C271.689 157.874 272.94 155.732 275.189 157.05C277.439 158.367 276.588 159.819 278.837 161.144C281.086 162.462 281.916 161.045 284.165 162.363C286.414 163.681 285.381 166.535 287.988 166.549C290.589 166.57 290.006 164.428 292.269 163.138C294.532 161.848 295.172 162.983 297.442 161.693C299.712 160.404 299.747 160.474 302.011 159.185C304.274 157.895 303.754 156.979 306.017 155.69C308.28 154.4 308.913 155.513 311.176 154.224C313.439 152.934 313.242 152.589 315.505 151.292C317.769 150.003 317.487 149.51 319.758 148.213C322.021 146.923 321.395 145.817 323.666 144.52C325.929 143.231 329.338 145.535 329.359 142.921C329.38 140.313 327.173 140.461 324.931 139.144C322.682 137.826 322.639 137.904 320.39 136.586C318.141 135.268 317.396 136.536 315.154 135.219C312.905 133.901 313.081 133.605 310.831 132.287C308.582 130.969 308.744 130.688 306.502 129.37C304.253 128.052 303.866 128.714 301.624 127.397C299.375 126.079 298.932 126.84 296.683 125.515C294.434 124.19 294.666 123.803 292.409 122.478C290.16 121.153 290.73 120.181 288.473 118.87C288.466 118.863 288.895 120.202 288.888 120.209C286.632 121.506 286.063 120.505 283.799 121.795C281.536 123.084 280.897 121.957 278.633 123.246C276.37 124.536 277.396 126.34 275.133 127.629C272.87 128.919 271.942 127.291 269.686 128.581C267.423 129.87 268.287 131.385 266.024 132.682C263.761 133.971 262.896 132.442 260.633 133.732C258.37 135.021 258.855 135.881 256.592 137.171C254.329 138.46 254.799 139.827 252.283 140.497C249.275 141.293 247.103 139.785 247.082 142.399Z" fill="#A8E6A5"/>
<path d="M287.98 118.802C289.266 121.071 290.848 120.155 293.097 121.48C295.346 122.798 295.332 122.819 297.581 124.137C299.83 125.454 299.859 125.405 302.108 126.723C304.357 128.041 304.427 127.914 306.676 129.238C308.925 130.556 308.595 131.12 310.844 132.438C313.093 133.755 313.613 132.861 315.863 134.178C318.112 135.496 317.824 135.989 320.073 137.307C322.322 138.632 322.434 138.435 324.684 139.759C326.933 141.084 327.523 143.973 329.793 142.684C332.057 141.394 328.88 139.4 328.894 136.793C328.908 134.185 328.725 134.185 328.739 131.571C328.753 128.964 329.266 128.964 329.28 126.356C329.294 123.749 328.795 123.742 328.809 121.135C328.823 118.527 329.582 118.527 329.597 115.92C329.611 113.306 328.739 113.306 328.753 110.691C328.767 108.084 328.837 108.084 328.851 105.47C328.866 102.855 330.693 102.869 330.707 100.255C330.721 97.6407 331.579 96.9501 330.292 94.6811C329.006 92.412 327.832 93.0392 325.59 91.7214C323.348 90.4037 323.404 90.298 321.162 88.9802C318.92 87.6625 317.788 89.5933 315.546 88.2685C313.297 86.9507 313.74 86.1897 311.498 84.8719C309.249 83.5542 309.481 83.1596 307.239 81.8418C304.996 80.5241 305.418 79.7983 303.169 78.4805C300.92 77.1628 300.47 77.9379 298.221 76.6202C295.972 75.3024 295.431 76.2326 293.181 74.9078C290.932 73.59 291.347 69.672 289.077 70.9545C286.813 72.2441 289.112 73.886 289.098 76.4933C289.084 79.1006 290.117 79.1077 290.096 81.715C290.082 84.3223 287.938 84.3082 287.924 86.9226C287.91 89.5299 287.91 89.5299 287.889 92.1442C287.875 94.7515 289.913 94.7656 289.899 97.38C289.885 99.9873 289.99 99.9943 289.976 102.602C289.962 105.209 288.803 105.202 288.781 107.816C288.767 110.431 288.852 110.304 288.177 112.827C287.383 115.772 286.694 116.533 287.98 118.802Z" fill="#A8E6A5"/>
<path d="M248.775 140.527C251.017 141.852 250.729 140.668 252.992 139.379C255.255 138.089 254.299 136.405 256.562 135.116C258.826 133.826 259.641 135.263 261.904 133.974C264.167 132.684 263.556 131.613 265.819 130.324C268.082 129.034 268.553 129.866 270.816 128.576C273.08 127.287 273.044 127.223 275.308 125.934C277.571 124.644 276.952 123.552 279.216 122.262C281.479 120.973 282.139 122.128 284.403 120.839C286.666 119.549 286.708 119.62 288.971 118.33C288.978 118.323 289.583 118.274 289.583 118.267C289.604 115.659 290.272 115.659 290.293 113.052C290.307 110.445 289.456 110.438 289.477 107.83C289.491 105.223 291.249 104.899 291.27 102.292C291.284 99.6843 293.048 99.6913 293.062 97.084C293.076 94.4767 289.681 94.7868 289.695 92.1724C289.709 89.5651 288.036 89.551 288.058 86.9437C288.072 84.3364 290.518 84.3505 290.532 81.7361C290.546 79.1218 289.864 79.0654 289.885 76.451C289.899 73.8367 290.855 73.7099 288.606 72.3851C286.364 71.0673 287.291 73.0968 285.028 74.3863C282.765 75.6759 282.948 76.0001 280.685 77.2896C278.421 78.5792 277.416 76.8104 275.153 78.1C272.89 79.3896 273.417 80.3197 271.154 81.6093C268.891 82.8989 269.01 83.1103 266.747 84.3998C264.484 85.6894 263.949 84.7451 261.686 86.0347C259.423 87.3242 260.21 88.7195 257.947 90.0091C255.684 91.2986 254.658 89.4946 252.394 90.7842C250.131 92.0738 249.717 92.1865 248.395 94.4415C247.081 96.6894 248.297 97.1193 248.276 99.7266C248.262 102.334 247.348 102.334 247.334 104.941C247.32 107.548 248.704 107.563 248.69 110.17C248.676 112.777 249.717 112.784 249.703 115.399C249.688 118.006 249.14 118.006 249.126 120.613C249.112 123.228 249.71 123.228 249.688 125.842C249.674 128.456 248.648 128.449 248.627 131.057C248.613 133.671 247.735 133.502 247.186 136.053C246.694 138.392 246.533 139.203 248.775 140.527Z" fill="#A8E6A5"/>
<path d="M162.021 72.3075L131.974 71.1025H127.124L140.064 48.0314L148.617 37.7219L165.029 3.65779L168.051 2.22729L177.16 21.3804L192.989 52.5484L202.351 64.0205L206.28 68.1922L174.384 73.6323L162.021 72.3075Z" fill="#A8E6A5"/>
<path d="M126.477 70.7927C126.456 73.4 129.436 71.6876 131.678 73.0054C133.92 74.3231 134.349 73.5973 136.598 74.9151C138.841 76.2328 137.561 78.4244 139.81 79.7492C142.06 81.0669 142.06 81.0599 144.309 82.3776C146.558 83.6954 146.593 83.6319 148.842 84.9497C151.084 86.2674 152.335 84.1252 154.585 85.443C156.834 86.7607 155.983 88.2123 158.232 89.5371C160.482 90.8549 161.311 89.4385 163.56 90.7562C165.809 92.074 164.776 94.9279 167.384 94.942C169.984 94.9632 169.401 92.8209 171.664 91.5314C173.927 90.2418 174.567 91.3763 176.837 90.0868C179.1 88.7972 179.142 88.8677 181.406 87.5781C183.669 86.2886 183.149 85.3725 185.412 84.0829C187.675 82.7934 188.308 83.9068 190.571 82.6172C192.834 81.3276 192.637 80.9823 194.901 79.6857C197.164 78.3962 196.883 77.9029 199.153 76.6063C201.416 75.3167 200.791 74.2104 203.061 72.9138C205.324 71.6242 208.733 73.9285 208.754 71.3142C208.775 68.7068 206.568 68.8548 204.326 67.5371C202.077 66.2193 202.035 66.2969 199.785 64.9791C197.536 63.6614 196.791 64.9298 194.549 63.612C192.3 62.2943 192.476 61.9983 190.227 60.6806C187.977 59.3628 188.139 59.0809 185.897 57.7632C183.648 56.4455 183.261 57.1078 181.019 55.7901C178.77 54.4723 179.297 52.2033 177.055 50.8855C174.806 49.5607 175.474 49.1309 173.224 47.8131C170.975 46.4883 170.132 48.5812 167.876 47.2705C167.869 47.2635 168.297 48.6024 168.29 48.6094C166.034 49.906 165.465 48.9054 163.202 50.195C160.938 51.4845 160.299 50.357 158.036 51.6466C155.772 52.9362 156.799 54.7401 154.535 56.0297C152.272 57.3192 151.344 55.6914 149.088 56.981C146.825 58.2706 147.69 59.7856 145.426 61.0822C143.163 62.3718 142.299 60.8426 140.035 62.1322C137.772 63.4218 138.257 64.2815 135.994 65.571C133.731 66.8606 134.202 68.2277 131.685 68.8971C128.67 69.6864 126.498 68.1783 126.477 70.7927Z" fill="#51CB59"/>
<path d="M166.709 48.102C167.995 50.3711 169.577 49.455 171.826 50.7798C174.075 52.0975 174.061 52.1187 176.31 53.4364C178.559 54.7542 178.587 54.7048 180.836 56.0226C183.086 57.3403 183.156 57.2135 185.405 58.5383C187.654 59.856 187.324 60.4198 189.573 61.7375C191.822 63.0553 192.342 62.1603 194.591 63.4781C196.84 64.7958 196.552 65.2891 198.801 66.6068C201.051 67.9316 201.163 67.7343 203.412 69.0591C205.661 70.3839 206.252 73.2731 208.522 71.9835C210.785 70.694 207.608 68.6997 207.622 66.0924C207.636 63.4851 207.454 63.4851 207.468 60.8708C207.482 58.2635 207.995 58.2635 208.009 55.6561C208.023 53.0488 207.524 53.0418 207.538 50.4345C207.552 47.8272 208.311 47.8272 208.325 45.2199C208.339 42.6055 207.468 42.6055 207.482 39.9911C207.496 37.3838 207.566 37.3838 207.58 34.7695C207.594 32.1551 209.422 32.1692 209.436 29.5549C209.45 26.9405 210.307 26.2499 209.021 23.9809C207.735 21.7118 206.561 22.339 204.319 21.0212C202.077 19.7035 202.133 19.5978 199.891 18.28C197.649 16.9623 196.517 18.8931 194.275 17.5683C192.026 16.2505 192.469 15.4895 190.227 14.1717C187.977 12.854 188.209 12.4594 185.967 11.1416C183.725 9.82388 184.147 9.09806 181.898 7.78031C179.649 6.46256 179.199 7.23771 176.95 5.91996C174.7 4.60221 174.159 5.53239 171.91 4.20759C169.661 2.88985 170.076 -1.02817 167.805 0.254349C165.542 1.54391 167.841 3.18581 167.826 5.79312C167.812 8.40043 168.846 8.40748 168.825 11.0148C168.81 13.6221 166.667 13.608 166.653 16.2224C166.639 18.8297 166.639 18.8297 166.618 21.444C166.603 24.0513 168.642 24.0654 168.628 26.6798C168.614 29.2871 168.719 29.2941 168.705 31.9014C168.691 34.5088 167.531 34.5017 167.51 37.1161C167.496 39.7304 167.58 39.6036 166.906 42.1263C166.111 45.0719 165.423 45.8329 166.709 48.102Z" fill="#51CB59"/>
<path d="M127.51 69.8272C129.753 71.152 129.464 69.9682 131.728 68.6786C133.991 67.3891 133.035 65.7049 135.298 64.4153C137.561 63.1258 138.377 64.5633 140.64 63.2737C142.903 61.9842 142.292 60.9131 144.555 59.6235C146.818 58.334 147.289 59.1655 149.552 57.8759C151.815 56.5863 151.78 56.5229 154.043 55.2334C156.307 53.9438 155.688 52.8516 157.951 51.562C160.214 50.2724 160.875 51.4281 163.138 50.1385C165.402 48.849 165.444 48.9194 167.707 47.6299C167.714 47.6228 168.318 47.5735 168.318 47.5665C168.339 44.9592 169.007 44.9592 169.028 42.3518C169.042 39.7445 168.192 39.7375 168.213 37.1302C168.227 34.5229 169.984 34.1987 170.005 31.5914C170.019 28.9841 171.784 28.9911 171.798 26.3838C171.812 23.7765 168.417 24.0866 168.431 21.4722C168.445 18.8649 166.772 18.8508 166.793 16.2435C166.807 13.6362 169.253 13.6503 169.267 11.0359C169.281 8.42158 168.6 8.36521 168.621 5.75085C168.642 3.1365 169.591 3.00966 167.341 1.68486C165.099 0.367113 166.027 2.39659 163.764 3.68615C161.501 4.97571 161.683 5.29986 159.42 6.58942C157.157 7.87898 156.152 6.11024 153.889 7.3998C151.625 8.68936 152.153 9.61954 149.889 10.9091C147.626 12.1987 147.746 12.4101 145.483 13.6996C143.219 14.9892 142.685 14.0449 140.422 15.3345C138.159 16.624 138.946 18.0193 136.683 19.3089C134.42 20.5984 133.393 18.7944 131.13 20.084C128.867 21.3736 128.452 21.4863 127.131 23.7413C125.817 25.9892 127.032 26.4191 127.011 29.0264C126.997 31.6337 126.084 31.6337 126.07 34.241C126.055 36.8483 127.44 36.8624 127.426 39.4697C127.412 42.077 128.452 42.0841 128.438 44.6984C128.424 47.3057 127.876 47.3057 127.862 49.913C127.848 52.5274 128.445 52.5274 128.424 55.1418C128.41 57.7561 127.384 57.7491 127.363 60.3564C127.349 62.9707 126.47 62.8016 125.922 65.3525C125.423 67.6921 125.261 68.5024 127.51 69.8272Z" fill="#51CB59"/>
<path d="M47.7078 88.9876L77.7551 90.1926H82.6118L69.6652 113.264L61.1114 123.573L44.7066 157.637L41.6843 159.068L32.5753 139.908L16.7399 108.747L7.37777 97.2747L3.44879 93.103L35.3445 87.6628L47.7078 88.9876Z" fill="#A8E6A5"/>
<path d="M83.2584 90.5025C83.2795 87.8952 80.2994 89.6076 78.0573 88.2898C75.8152 86.9721 75.3864 87.6979 73.1373 86.3801C70.8952 85.0624 72.1744 82.8708 69.9252 81.5461C67.6761 80.2283 67.6761 80.2353 65.4269 78.9176C63.1778 77.5998 63.1426 77.6633 60.8935 76.3455C58.6513 75.0278 57.4003 77.17 55.1511 75.8522C52.902 74.5345 53.7524 73.0829 51.5033 71.7581C49.2541 70.4403 48.4247 71.8567 46.1756 70.539C43.9264 69.2212 44.9597 66.3673 42.352 66.3532C39.7515 66.332 40.3348 68.4743 38.0716 69.7638C35.8084 71.0534 35.1688 69.9189 32.8986 71.2084C30.6354 72.498 30.5932 72.4275 28.33 73.7171C26.0668 75.0066 26.5869 75.9227 24.3237 77.2123C22.0605 78.5018 21.4279 77.3884 19.1647 78.678C16.9015 79.9676 17.0983 80.3129 14.8351 81.6095C12.5719 82.899 12.853 83.3923 10.5828 84.6889C8.3196 85.9785 8.94514 87.0848 6.67491 88.3814C4.4117 89.671 1.00283 87.3667 0.981748 89.981C0.960662 92.5884 3.16764 92.4404 5.40976 93.7581C7.65891 95.0759 7.70108 94.9984 9.95023 96.3161C12.1994 97.6339 12.9444 96.3654 15.1865 97.6832C17.4357 99.0009 17.26 99.2969 19.5091 100.615C21.7583 101.932 21.5966 102.214 23.8387 103.532C26.0879 104.85 26.4745 104.187 28.7166 105.505C30.9657 106.823 30.4386 109.092 32.6807 110.41C34.9299 111.734 34.2621 112.164 36.5113 113.482C38.7604 114.8 39.6039 112.714 41.86 114.025C41.8671 114.032 41.4383 112.693 41.4454 112.686C43.7015 111.389 44.2708 112.39 46.5341 111.1C48.7973 109.811 49.4369 110.938 51.7001 109.649C53.9633 108.359 52.9371 106.555 55.2003 105.266C57.4635 103.976 58.3913 105.604 60.6475 104.314C62.9107 103.025 62.0462 101.51 64.3094 100.213C66.5726 98.9234 67.4371 100.453 69.7003 99.163C71.9635 97.8734 71.4785 97.0137 73.7417 95.7242C76.0049 94.4346 75.534 93.0675 78.0503 92.3981C81.0585 91.6089 83.2374 93.1169 83.2584 90.5025Z" fill="#10352B"/>
<path d="M43.0198 113.193C41.7335 110.924 40.1521 111.84 37.903 110.516C35.6538 109.198 35.6679 109.177 33.4187 107.859C31.1696 106.541 31.1414 106.591 28.8923 105.273C26.6431 103.955 26.5729 104.082 24.3237 102.757C22.0746 101.439 22.4049 100.876 20.1558 99.5579C17.9066 98.2402 17.3865 99.1351 15.1373 97.8174C12.8882 96.4996 13.1764 96.0064 10.9272 94.6886C8.67806 93.3638 8.56561 93.5611 6.31646 92.2363C4.06731 90.9115 3.4769 88.0224 1.20667 89.3119C-1.05654 90.6015 2.12039 92.5957 2.10633 95.203C2.09227 97.8103 2.27502 97.8103 2.26096 100.425C2.2469 103.039 1.73381 103.032 1.71976 105.639C1.7057 108.247 2.20473 108.254 2.19067 110.861C2.17662 113.468 1.41753 113.468 1.40347 116.076C1.38941 118.69 2.26096 118.69 2.2469 121.304C2.23284 123.912 2.16256 123.912 2.1485 126.526C2.13444 129.14 0.30701 129.126 0.292953 131.741C0.278895 134.355 -0.578593 135.046 0.70764 137.315C1.99387 139.584 3.16765 138.957 5.40977 140.274C7.65189 141.592 7.59566 141.698 9.83778 143.015C12.0799 144.333 13.2115 142.402 15.4536 143.727C17.7028 145.045 17.26 145.806 19.5021 147.124C21.7512 148.441 21.5193 148.836 23.7614 150.154C26.0035 151.472 25.5818 152.197 27.831 153.515C30.0801 154.833 30.53 154.058 32.7791 155.375C35.0283 156.693 35.5695 155.763 37.8186 157.088C40.0678 158.406 39.6531 162.324 41.9233 161.041C44.1865 159.752 41.8882 158.11 41.9022 155.502C41.9163 152.895 40.8831 152.888 40.9042 150.281C40.9182 147.673 43.0619 147.687 43.076 145.073C43.09 142.466 43.0901 142.466 43.1111 139.851C43.1252 137.244 41.0869 137.23 41.101 134.616C41.115 132.008 41.0096 132.001 41.0236 129.394C41.0377 126.787 42.1974 126.794 42.2185 124.179C42.2326 121.565 42.1482 121.692 42.823 119.169C43.6172 116.224 44.306 115.463 43.0198 113.193Z" fill="#10352B"/>
<path d="M82.2253 91.4676C79.9831 90.1428 80.2713 91.3267 78.0081 92.6162C75.7449 93.9058 76.7008 95.59 74.4376 96.8795C72.1744 98.1691 71.3591 96.7316 69.0958 98.0211C66.8326 99.3107 67.4441 100.382 65.1809 101.671C62.9177 102.961 62.4468 102.129 60.1836 103.419C57.9204 104.709 57.9555 104.772 55.6923 106.061C53.4291 107.351 54.0476 108.443 51.7844 109.733C49.5212 111.022 48.8605 109.867 46.5973 111.156C44.3341 112.446 44.2919 112.375 42.0287 113.665C42.0217 113.672 41.4172 113.721 41.4172 113.728C41.3962 116.336 40.7284 116.336 40.7074 118.943C40.6933 121.55 41.5438 121.557 41.5227 124.165C41.5086 126.772 39.7515 127.096 39.7304 129.703C39.7163 132.311 37.9522 132.304 37.9381 134.911C37.924 137.518 41.3188 137.208 41.3048 139.823C41.2907 142.43 42.9635 142.444 42.9424 145.051C42.9284 147.659 40.4824 147.645 40.4684 150.259C40.4543 152.873 41.1361 152.93 41.115 155.544C41.101 158.158 40.1451 158.285 42.3942 159.61C44.6363 160.928 43.7086 158.898 45.9718 157.609C48.235 156.319 48.0522 155.995 50.3154 154.705C52.5787 153.416 53.5837 155.185 55.8469 153.895C58.1101 152.605 57.583 151.675 59.8462 150.386C62.1094 149.096 61.9899 148.885 64.2531 147.595C66.5163 146.306 67.0505 147.25 69.3137 145.96C71.5769 144.671 70.7897 143.276 73.0529 141.986C75.3161 140.696 76.3423 142.5 78.6055 141.211C80.8687 139.921 81.2834 139.809 82.6048 137.554C83.9191 135.306 82.7032 134.876 82.7243 132.268C82.7383 129.661 83.6521 129.661 83.6661 127.054C83.6802 124.447 82.2955 124.432 82.3096 121.825C82.3237 119.218 81.2834 119.211 81.2975 116.596C81.3115 113.989 81.8598 113.989 81.8738 111.382C81.8879 108.767 81.2904 108.767 81.3115 106.153C81.3256 103.539 82.3518 103.546 82.3729 100.938C82.3869 98.3241 83.2655 98.4933 83.8137 95.9423C84.3057 93.6028 84.4674 92.7924 82.2253 91.4676Z" fill="#10352B"/>
<path d="M47.7078 235.673L77.7551 236.878H82.6118L69.6652 259.95L61.1114 270.259L44.7066 304.323L41.6843 305.754L32.5753 286.593L16.7399 255.433L7.37777 243.96L3.44879 239.789L35.3445 234.342L47.7078 235.673Z" fill="#A8E6A5"/>
<path d="M83.2584 237.188C83.2795 234.581 80.2994 236.293 78.0573 234.976C75.8152 233.658 75.3864 234.384 73.1373 233.066C70.8952 231.748 72.1744 229.557 69.9252 228.232C67.6761 226.914 67.6761 226.921 65.4269 225.603C63.1778 224.286 63.1426 224.349 60.8935 223.031C58.6513 221.714 57.4003 223.856 55.1511 222.538C52.902 221.22 53.7524 219.769 51.5033 218.444C49.2541 217.126 48.4247 218.543 46.1756 217.225C43.9264 215.907 44.9597 213.053 42.352 213.039C39.7515 213.018 40.3348 215.16 38.0716 216.45C35.8084 217.739 35.1688 216.605 32.8986 217.894C30.6354 219.184 30.5932 219.113 28.33 220.403C26.0668 221.692 26.5869 222.609 24.3237 223.898C22.0605 225.188 21.4279 224.074 19.1647 225.364C16.9015 226.653 17.0983 226.999 14.8351 228.295C12.5719 229.585 12.853 230.078 10.5828 231.375C8.3196 232.664 8.94514 233.771 6.67491 235.067C4.4117 236.357 1.00283 234.052 0.981748 236.667C0.960662 239.274 3.16764 239.126 5.40976 240.444C7.65891 241.762 7.70108 241.684 9.95023 243.002C12.1994 244.32 12.9444 243.051 15.1865 244.369C17.4357 245.687 17.26 245.983 19.5091 247.3C21.7583 248.618 21.5966 248.9 23.8387 250.218C26.0879 251.536 26.4745 250.873 28.7166 252.191C30.9657 253.509 30.4386 255.778 32.6807 257.095C34.9299 258.42 34.2621 258.85 36.5113 260.168C38.7604 261.493 39.6039 259.4 41.86 260.71C41.8671 260.718 41.4383 259.379 41.4454 259.372C43.7015 258.075 44.2708 259.076 46.5341 257.786C48.7973 256.496 49.4369 257.624 51.7001 256.334C53.9633 255.045 52.9371 253.241 55.2003 251.951C57.4635 250.662 58.3913 252.29 60.6475 251C62.9107 249.71 62.0462 248.195 64.3094 246.899C66.5726 245.609 67.4371 247.138 69.7003 245.849C71.9635 244.559 71.4785 243.7 73.7417 242.41C76.0049 241.12 75.534 239.753 78.0503 239.084C81.0585 238.295 83.2374 239.803 83.2584 237.188Z" fill="#00A8E3"/>
<path d="M43.0198 259.879C41.7335 257.61 40.1521 258.526 37.903 257.201C35.6538 255.883 35.6679 255.862 33.4187 254.544C31.1696 253.227 31.1414 253.276 28.8923 251.958C26.6431 250.64 26.5729 250.767 24.3237 249.442C22.0746 248.125 22.4049 247.561 20.1558 246.243C17.9066 244.925 17.3865 245.82 15.1373 244.503C12.8882 243.185 13.1764 242.692 10.9272 241.374C8.67806 240.049 8.56561 240.246 6.31646 238.922C4.06731 237.597 3.4769 234.708 1.20667 235.997C-1.05654 237.287 2.12039 239.281 2.10633 241.888C2.09227 244.496 2.27502 244.496 2.26096 247.11C2.2469 249.724 1.73381 249.717 1.71976 252.325C1.7057 254.932 2.20473 254.939 2.19067 257.546C2.17662 260.154 1.41753 260.154 1.40347 262.761C1.38941 265.375 2.26096 265.375 2.2469 267.99C2.23284 270.597 2.16256 270.597 2.1485 273.211C2.13444 275.826 0.30701 275.812 0.292953 278.426C0.278895 281.04 -0.578593 281.731 0.70764 284C1.99387 286.269 3.16765 285.642 5.40977 286.96C7.65189 288.277 7.59566 288.383 9.83778 289.701C12.0799 291.018 13.2115 289.088 15.4536 290.412C17.7028 291.73 17.26 292.491 19.5021 293.809C21.7512 295.127 21.5193 295.521 23.7614 296.839C26.0035 298.157 25.5818 298.883 27.831 300.2C30.0801 301.518 30.53 300.743 32.7791 302.061C35.0283 303.379 35.5695 302.448 37.8186 303.773C40.0678 305.098 39.6531 309.009 41.9233 307.726C44.1865 306.437 41.8882 304.795 41.9022 302.188C41.9163 299.58 40.8831 299.573 40.9042 296.966C40.9182 294.359 43.0619 294.373 43.076 291.758C43.09 289.151 43.0901 289.151 43.1111 286.537C43.1252 283.929 41.0869 283.915 41.101 281.301C41.115 278.694 41.0096 278.687 41.0236 276.079C41.0377 273.472 42.1974 273.479 42.2185 270.865C42.2326 268.25 42.1482 268.377 42.823 265.854C43.6172 262.909 44.306 262.148 43.0198 259.879Z" fill="#00A8E3"/>
<path d="M82.2253 238.154C79.9831 236.829 80.2713 238.013 78.0081 239.303C75.7449 240.592 76.7008 242.276 74.4376 243.566C72.1744 244.855 71.3591 243.418 69.0958 244.707C66.8326 245.997 67.4441 247.068 65.1809 248.358C62.9177 249.647 62.4468 248.816 60.1836 250.105C57.9204 251.395 57.9555 251.458 55.6923 252.748C53.4291 254.037 54.0476 255.13 51.7844 256.419C49.5212 257.709 48.8605 256.553 46.5973 257.843C44.3341 259.132 44.2919 259.062 42.0287 260.351C42.0217 260.358 41.4172 260.408 41.4172 260.415C41.3962 263.022 40.7284 263.022 40.7074 265.629C40.6933 268.237 41.5438 268.244 41.5227 270.851C41.5086 273.458 39.7515 273.782 39.7304 276.39C39.7163 278.997 37.9522 278.99 37.9381 281.597C37.924 284.205 41.3188 283.895 41.3048 286.509C41.2907 289.116 42.9635 289.13 42.9424 291.738C42.9284 294.345 40.4824 294.331 40.4684 296.945C40.4543 299.56 41.1361 299.616 41.115 302.23C41.101 304.845 40.1451 304.971 42.3942 306.296C44.6363 307.614 43.7086 305.585 45.9718 304.295C48.235 303.005 48.0522 302.681 50.3154 301.392C52.5787 300.102 53.5837 301.871 55.8469 300.581C58.1101 299.292 57.583 298.362 59.8462 297.072C62.1094 295.782 61.9899 295.571 64.2531 294.282C66.5163 292.992 67.0505 293.936 69.3137 292.647C71.5769 291.357 70.7897 289.962 73.0529 288.672C75.3161 287.383 76.3423 289.187 78.6055 287.897C80.8687 286.608 81.2834 286.495 82.6048 284.24C83.9191 281.992 82.7032 281.562 82.7243 278.955C82.7383 276.347 83.6521 276.347 83.6661 273.74C83.6802 271.133 82.2955 271.119 82.3096 268.511C82.3237 265.904 81.2834 265.897 81.2975 263.283C81.3115 260.675 81.8598 260.675 81.8738 258.068C81.8879 255.454 81.2904 255.454 81.3115 252.839C81.3256 250.225 82.3518 250.232 82.3729 247.625C82.3869 245.01 83.2655 245.18 83.8137 242.629C84.3057 240.289 84.4674 239.479 82.2253 238.154Z" fill="#00A8E3"/>
<path d="M171.643 164.155L201.69 165.353H206.54L193.6 188.424L185.046 198.741L168.642 232.798L165.612 234.228L156.503 215.075L140.675 183.907L131.313 172.435L127.384 168.27L159.28 162.823L171.643 164.155Z" fill="#915FD0"/>
<path d="M207.186 165.663C207.208 163.056 204.227 164.768 201.985 163.451C199.743 162.133 199.314 162.859 197.065 161.541C194.823 160.223 196.102 158.032 193.853 156.707C191.604 155.389 191.604 155.396 189.355 154.078C187.106 152.761 187.071 152.824 184.821 151.506C182.579 150.189 181.328 152.331 179.079 151.013C176.83 149.695 177.68 148.244 175.431 146.919C173.182 145.601 172.353 147.018 170.104 145.7C167.854 144.382 168.888 141.528 166.28 141.514C163.679 141.493 164.263 143.635 162 144.925C159.736 146.214 159.097 145.08 156.827 146.369C154.556 147.659 154.521 147.588 152.258 148.878C149.995 150.168 150.515 151.084 148.252 152.373C145.989 153.663 145.356 152.549 143.093 153.839C140.83 155.128 141.026 155.474 138.763 156.77C136.5 158.06 136.781 158.553 134.511 159.85C132.248 161.139 132.873 162.246 130.603 163.542C128.34 164.832 124.931 162.528 124.91 165.142C124.889 167.749 127.096 167.601 129.338 168.919C131.587 170.237 131.629 170.159 133.878 171.477C136.127 172.795 136.872 171.526 139.115 172.844C141.364 174.162 141.188 174.458 143.437 175.776C145.686 177.093 145.525 177.375 147.767 178.693C150.016 180.011 150.402 179.348 152.645 180.666C154.894 181.984 154.367 184.253 156.609 185.571C158.858 186.895 158.19 187.325 160.439 188.643C162.688 189.968 163.532 187.875 165.788 189.186C165.795 189.193 165.366 187.854 165.373 187.847C167.63 186.55 168.199 187.551 170.462 186.261C172.725 184.972 173.365 186.099 175.628 184.809C177.891 183.52 176.865 181.716 179.128 180.426C181.392 179.137 182.319 180.765 184.575 179.475C186.839 178.186 185.974 176.67 188.237 175.374C190.501 174.084 191.365 175.613 193.628 174.324C195.892 173.034 195.407 172.175 197.67 170.885C199.933 169.595 199.462 168.228 201.978 167.559C204.994 166.777 207.165 168.278 207.186 165.663Z" fill="#915FD0"/>
<path d="M166.955 188.354C165.669 186.085 164.087 187.001 161.838 185.676C159.589 184.358 159.603 184.337 157.354 183.019C155.105 181.702 155.076 181.751 152.827 180.433C150.578 179.116 150.508 179.242 148.259 177.918C146.01 176.6 146.34 176.036 144.091 174.718C141.842 173.401 141.322 174.296 139.072 172.978C136.823 171.66 137.111 171.167 134.862 169.849C132.613 168.524 132.501 168.722 130.252 167.397C128.002 166.072 127.412 163.183 125.142 164.472C122.879 165.762 126.055 167.756 126.041 170.363C126.027 172.971 126.21 172.971 126.196 175.585C126.182 178.192 125.669 178.192 125.655 180.8C125.641 183.407 126.14 183.414 126.126 186.021C126.112 188.629 125.353 188.629 125.339 191.236C125.324 193.85 126.196 193.85 126.182 196.465C126.168 199.072 126.098 199.072 126.084 201.686C126.07 204.301 124.242 204.287 124.228 206.901C124.214 209.515 123.356 210.206 124.643 212.475C125.929 214.744 127.103 214.117 129.345 215.435C131.587 216.752 131.531 216.858 133.773 218.176C136.015 219.494 137.147 217.563 139.389 218.888C141.638 220.205 141.195 220.966 143.437 222.284C145.686 223.602 145.454 223.996 147.696 225.314C149.939 226.632 149.517 227.358 151.766 228.676C154.015 229.993 154.465 229.218 156.714 230.536C158.963 231.854 159.505 230.923 161.754 232.248C164.003 233.566 163.588 237.484 165.858 236.202C168.122 234.912 165.823 233.27 165.837 230.663C165.851 228.055 164.818 228.048 164.839 225.441C164.86 222.834 166.997 222.848 167.011 220.234C167.025 217.626 167.025 217.626 167.046 215.012C167.06 212.405 165.022 212.39 165.036 209.776C165.05 207.169 164.945 207.162 164.959 204.554C164.973 201.947 166.132 201.954 166.154 199.34C166.168 196.725 166.083 196.852 166.758 194.33C167.552 191.391 168.241 190.623 166.955 188.354Z" fill="#915FD0"/>
<path d="M205.125 166.069C202.883 164.744 203.171 165.928 200.908 167.218C198.645 168.507 199.601 170.192 197.338 171.481C195.074 172.771 194.259 171.333 191.996 172.623C189.733 173.912 190.344 174.983 188.081 176.273C185.818 177.562 185.347 176.731 183.084 178.021C180.82 179.31 180.856 179.373 178.592 180.663C176.329 181.953 176.948 183.045 174.685 184.334C172.421 185.624 171.761 184.468 169.497 185.758C167.234 187.047 167.192 186.977 164.929 188.267C164.922 188.274 164.317 188.323 164.317 188.33C164.296 190.937 163.629 190.937 163.607 193.545C163.593 196.152 164.444 196.159 164.423 198.766C164.409 201.374 162.652 201.698 162.63 204.305C162.616 206.912 160.852 206.905 160.838 209.513C160.824 212.12 164.219 211.81 164.205 214.424C164.191 217.032 165.864 217.046 165.843 219.653C165.828 222.26 163.383 222.246 163.368 224.86C163.354 227.475 164.036 227.531 164.015 230.146C164.001 232.76 163.045 232.887 165.294 234.212C167.536 235.529 166.609 233.5 168.872 232.21C171.135 230.921 170.952 230.597 173.216 229.307C175.479 228.017 176.484 229.786 178.747 228.497C181.01 227.207 180.483 226.277 182.746 224.987C185.01 223.698 184.89 223.486 187.153 222.197C189.416 220.907 189.951 221.851 192.214 220.562C194.477 219.272 193.69 217.877 195.953 216.588C198.216 215.298 199.242 217.102 201.506 215.812C203.769 214.523 204.184 214.41 205.505 212.155C206.819 209.907 205.603 209.477 205.624 206.87C205.638 204.263 206.552 204.263 206.566 201.655C206.58 199.048 205.196 199.034 205.21 196.427C205.224 193.819 204.184 193.812 204.198 191.198C204.212 188.591 204.76 188.591 204.774 185.983C204.788 183.369 204.191 183.369 204.212 180.755C204.226 178.14 205.252 178.147 205.273 175.54C205.287 172.926 206.166 173.095 206.714 170.544C207.213 168.197 207.374 167.394 205.125 166.069Z" fill="#915FD0"/>
<path d="M171.706 305.288L201.753 306.493H206.61L193.664 329.565L185.117 339.874L168.705 373.938L165.683 375.369L156.574 356.208L140.738 325.048L131.376 313.575L127.447 309.404L159.343 303.957L171.706 305.288Z" fill="#A8E6A5"/>
<path d="M207.257 306.803C207.278 304.196 204.298 305.908 202.056 304.591C199.814 303.273 199.385 303.999 197.136 302.681C194.894 301.363 196.173 299.172 193.924 297.847C191.674 296.529 191.674 296.536 189.425 295.218C187.176 293.901 187.141 293.964 184.892 292.646C182.65 291.329 181.399 293.471 179.149 292.153C176.9 290.835 177.751 289.384 175.502 288.059C173.253 286.741 172.423 288.158 170.174 286.84C167.925 285.522 168.958 282.668 166.35 282.654C163.75 282.633 164.333 284.775 162.07 286.065C159.807 287.354 159.167 286.22 156.897 287.509C154.634 288.799 154.592 288.728 152.328 290.018C150.065 291.307 150.585 292.223 148.322 293.513C146.059 294.803 145.426 293.689 143.163 294.979C140.9 296.268 141.097 296.614 138.833 297.91C136.57 299.2 136.851 299.693 134.581 300.99C132.318 302.279 132.944 303.386 130.673 304.682C128.41 305.972 125.001 303.667 124.98 306.282C124.959 308.889 127.166 308.741 129.408 310.059C131.657 311.377 131.699 311.299 133.949 312.617C136.198 313.935 136.943 312.666 139.185 313.984C141.434 315.302 141.258 315.598 143.507 316.915C145.757 318.233 145.595 318.515 147.837 319.833C150.086 321.151 150.473 320.488 152.715 321.806C154.964 323.124 154.437 325.393 156.679 326.71C158.928 328.035 158.261 328.465 160.51 329.783C162.759 331.108 163.602 329.015 165.858 330.325C165.865 330.332 165.437 328.994 165.444 328.987C167.7 327.69 168.269 328.691 170.532 327.401C172.796 326.111 173.435 327.239 175.698 325.949C177.962 324.66 176.935 322.856 179.199 321.566C181.462 320.277 182.39 321.905 184.646 320.615C186.909 319.325 186.045 317.81 188.308 316.514C190.571 315.224 191.435 316.753 193.699 315.464C195.962 314.174 195.477 313.315 197.74 312.025C200.003 310.735 199.532 309.368 202.049 308.699C205.064 307.91 207.236 309.418 207.257 306.803Z" fill="#80D4F1"/>
<path d="M167.018 329.493C165.732 327.224 164.15 328.141 161.901 326.816C159.652 325.498 159.666 325.477 157.417 324.159C155.168 322.841 155.14 322.891 152.891 321.573C150.642 320.255 150.571 320.382 148.322 319.057C146.073 317.739 146.403 317.176 144.154 315.858C141.905 314.54 141.385 315.435 139.136 314.117C136.887 312.8 137.175 312.306 134.926 310.989C132.676 309.664 132.564 309.861 130.315 308.536C128.066 307.212 127.475 304.322 125.205 305.612C122.942 306.902 126.119 308.896 126.105 311.503C126.091 314.11 126.273 314.11 126.259 316.725C126.245 319.332 125.732 319.332 125.718 321.939C125.704 324.547 126.203 324.554 126.189 327.161C126.175 329.768 125.416 329.768 125.402 332.376C125.388 334.99 126.259 334.99 126.245 337.604C126.231 340.212 126.161 340.212 126.147 342.826C126.133 345.44 124.305 345.426 124.291 348.041C124.277 350.655 123.42 351.346 124.706 353.615C125.992 355.884 127.166 355.257 129.408 356.574C131.65 357.892 131.594 357.998 133.836 359.315C136.078 360.633 137.21 358.702 139.452 360.027C141.701 361.345 141.258 362.106 143.5 363.424C145.75 364.741 145.518 365.136 147.76 366.454C150.002 367.772 149.58 368.497 151.829 369.815C154.078 371.133 154.528 370.358 156.777 371.676C159.027 372.993 159.568 372.063 161.817 373.388C164.066 374.706 163.651 378.624 165.922 377.341C168.185 376.052 165.887 374.41 165.901 371.802C165.915 369.195 164.881 369.188 164.903 366.581C164.924 363.973 167.06 363.988 167.074 361.373C167.088 358.766 167.088 358.766 167.109 356.151C167.124 353.544 165.085 353.53 165.099 350.916C165.113 348.308 165.008 348.301 165.022 345.694C165.036 343.087 166.196 343.094 166.217 340.479C166.231 337.865 166.147 337.992 166.821 335.469C167.616 332.524 168.304 331.763 167.018 329.493Z" fill="#80D4F1"/>
<path d="M206.224 307.768C203.982 306.444 204.27 307.627 202.007 308.917C199.743 310.207 200.699 311.891 198.436 313.18C196.173 314.47 195.357 313.032 193.094 314.322C190.831 315.611 191.443 316.683 189.179 317.972C186.916 319.262 186.445 318.43 184.182 319.72C181.919 321.009 181.954 321.073 179.691 322.362C177.428 323.652 178.046 324.744 175.783 326.034C173.52 327.323 172.859 326.168 170.596 327.457C168.333 328.747 168.29 328.676 166.027 329.966C166.02 329.973 165.416 330.022 165.416 330.029C165.395 332.636 164.727 332.636 164.706 335.244C164.692 337.851 165.542 337.858 165.521 340.465C165.507 343.073 163.75 343.397 163.729 346.004C163.715 348.612 161.951 348.604 161.937 351.212C161.922 353.819 165.317 353.509 165.303 356.123C165.289 358.731 166.962 358.745 166.941 361.352C166.927 363.959 164.481 363.945 164.467 366.56C164.453 369.174 165.135 369.23 165.113 371.845C165.092 374.459 164.143 374.586 166.393 375.911C168.635 377.229 167.707 375.199 169.97 373.909C172.233 372.62 172.051 372.296 174.314 371.006C176.577 369.717 177.582 371.485 179.845 370.196C182.109 368.906 181.581 367.976 183.845 366.687C186.108 365.397 185.988 365.186 188.252 363.896C190.515 362.606 191.049 363.551 193.312 362.261C195.575 360.972 194.788 359.576 197.051 358.287C199.315 356.997 200.341 358.801 202.604 357.512C204.867 356.222 205.282 356.109 206.603 353.854C207.918 351.606 206.702 351.177 206.723 348.569C206.737 345.962 207.65 345.962 207.665 343.355C207.679 340.747 206.294 340.733 206.308 338.126C206.322 335.519 205.282 335.512 205.296 332.897C205.31 330.29 205.858 330.29 205.872 327.683C205.886 325.068 205.289 325.068 205.31 322.454C205.324 319.847 206.35 319.847 206.371 317.239C206.385 314.625 207.264 314.794 207.812 312.243C208.304 309.904 208.466 309.093 206.224 307.768Z" fill="#80D4F1"/>
</svg>
