<svg width="537" height="302" viewBox="0 0 537 302" fill="none" xmlns="http://www.w3.org/2000/svg">
<g clip-path="url(#clip0_697_319)">
<path d="M0 0C177.21 0 354.42 0 537 0C537 99.66 537 199.32 537 302C359.79 302 182.58 302 0 302C0 202.34 0 102.68 0 0Z" fill="#DDCEF1"/>
<path d="M431.02 -0.201734C431.477 -0.202469 431.934 -0.203941 432.39 -0.206086C433.644 -0.20984 434.897 -0.203129 436.151 -0.194718C437.524 -0.187381 438.897 -0.189844 440.27 -0.191057C442.934 -0.191948 445.598 -0.184208 448.262 -0.173438C451.345 -0.161351 454.427 -0.160024 457.509 -0.158699C465.646 -0.149892 473.782 -0.126469 481.919 -0.104835C500.096 -0.0702305 518.272 -0.0356264 537 2.64198e-05C537 47.4308 537 94.8616 537 143.73C535.205 143.73 533.701 143.709 531.965 143.463C531.765 143.435 531.566 143.407 531.36 143.378C530.722 143.288 530.085 143.195 529.448 143.1C529.231 143.069 529.014 143.037 528.79 143.005C520.845 141.847 520.845 141.847 518.357 140.771C517.533 140.421 516.972 140.265 516.093 140.217C515.137 140.162 514.91 140.098 514.065 139.535C513.531 139.459 513.531 139.459 512.947 139.448C511.583 139.329 510.556 138.846 509.357 138.208C508.548 137.887 507.894 137.75 507.04 137.618C505.268 137.321 503.742 136.665 502.109 135.935C499.896 134.975 497.794 134.213 495.447 133.659C494.185 133.297 493.063 132.748 491.89 132.165C490.41 131.444 488.902 130.944 487.318 130.499C486.232 130.189 485.378 129.773 484.419 129.189C483.747 128.991 483.747 128.991 483.02 128.857C481.063 128.402 479.238 127.676 477.371 126.948C475.692 126.295 474.018 125.722 472.288 125.216C471.665 125.028 471.072 124.817 470.469 124.575C469.196 124.076 467.87 123.755 466.547 123.417C465.173 123.063 465.173 123.063 464.561 122.757C464.096 122.701 463.629 122.656 463.162 122.618C461.826 122.509 461.826 122.509 461.204 122.198C460.001 121.959 458.785 121.8 457.569 121.639C457.37 121.612 457.171 121.586 456.967 121.559C449.489 120.6 441.185 120.421 433.892 122.514C432.791 122.8 431.748 122.891 430.614 122.906C429.898 123.034 429.47 123.225 428.834 123.56C427.619 124.2 426.399 124.542 425.072 124.872C423.634 125.232 422.472 125.592 421.209 126.393C420.62 126.548 420.62 126.548 420.038 126.637C418.755 126.891 417.72 127.398 416.569 128.008C415.965 128.314 415.381 128.551 414.741 128.769C413.963 129.045 413.312 129.382 412.621 129.833C411.452 130.577 410.252 131.237 409.025 131.88C408.825 131.987 408.625 132.094 408.418 132.204C407.202 132.846 405.976 133.41 404.708 133.943C404.018 134.318 403.446 134.636 402.908 135.208C402.47 135.62 402.47 135.62 401.544 135.935C400.203 136.405 399.073 137.165 397.897 137.944C396.465 138.89 395.001 139.772 393.513 140.627C392.781 141.056 392.158 141.455 391.572 142.073C390.797 142.806 389.91 143.099 388.923 143.45C387.571 143.934 386.511 144.471 385.409 145.407C384.758 145.691 384.106 145.971 383.451 146.246C383.174 146.437 382.898 146.627 382.612 146.823C381.69 147.419 380.872 147.641 379.815 147.924C379.55 148.063 379.285 148.201 379.011 148.344C378.274 148.697 377.782 148.854 377 149.001C375.794 149.258 374.696 149.655 373.552 150.11C365.752 153.198 353.088 154.995 345.047 151.559C344.179 151.141 343.418 150.695 342.617 150.161C342.137 150.039 341.653 149.935 341.166 149.847C340.788 149.776 340.788 149.776 340.402 149.705C340.21 149.671 340.018 149.637 339.82 149.602C339.82 148.345 339.82 148.345 340.473 147.567C340.61 147.4 340.746 147.233 340.886 147.062C341.031 146.891 341.175 146.72 341.323 146.543C342.625 145 342.625 145 343.456 143.17C343.271 143.17 343.087 143.17 342.897 143.17C342.836 143.363 342.775 143.555 342.712 143.753C342.231 144.801 341.569 145.573 340.816 146.439C340.679 146.601 340.542 146.763 340.401 146.931C339.777 147.659 339.224 148.228 338.422 148.763C338.232 148.621 338.042 148.479 337.847 148.333C336.134 147.066 334.397 145.907 332.548 144.848C333.104 144.193 333.664 143.541 334.226 142.891C334.425 142.655 334.624 142.42 334.829 142.177C336.035 140.785 337.056 139.799 338.701 138.976C338.794 138.791 338.886 138.607 338.981 138.417C337.233 139.161 336.023 140.124 334.639 141.419C333.714 142.264 332.728 143.004 331.709 143.73C330.144 142.533 328.7 141.396 327.514 139.815C327.961 138.645 328.825 137.923 329.734 137.106C329.895 136.959 330.056 136.813 330.222 136.661C331.498 135.508 332.813 134.411 334.159 133.339C334.682 132.909 335.151 132.467 335.625 131.985C333.746 132.914 332.294 134.019 330.8 135.481C330.61 135.663 330.419 135.845 330.223 136.032C329.214 137 328.219 137.983 327.234 138.976C325.117 138.075 323.781 135.886 322.679 133.955C322.425 133.226 322.439 132.968 322.759 132.265C323.374 131.59 323.374 131.59 324.158 130.867C324.419 130.622 324.68 130.378 324.95 130.126C325.227 129.872 325.505 129.617 325.783 129.364C325.929 129.23 326.075 129.096 326.225 128.958C327.246 128.025 328.287 127.118 329.353 126.235C329.825 125.818 329.825 125.818 330.031 124.994C328.76 126.094 327.509 127.212 326.273 128.35C325.308 129.224 324.341 130.091 323.336 130.919C323.143 131.079 322.95 131.238 322.752 131.403C322.2 131.706 322.2 131.706 321.614 131.688C320.899 131.336 320.723 130.961 320.364 130.255C320.248 130.028 320.131 129.801 320.011 129.567C319.849 129.241 319.849 129.241 319.683 128.909C319.51 128.604 319.336 128.298 319.158 127.983C318.808 127.146 318.805 126.935 319.123 126.113C319.77 125.639 320.394 125.225 321.081 124.82C322.396 124.127 322.396 124.127 323.319 123.037C323.049 123.195 322.779 123.354 322.501 123.517C322.144 123.724 321.788 123.931 321.431 124.138C321.253 124.242 321.076 124.347 320.893 124.454C320.029 124.954 319.259 125.344 318.284 125.554C318.209 125.317 318.134 125.081 318.057 124.837C317.739 123.874 317.739 123.874 317.323 122.967C316.333 120.676 315.9 118.441 315.732 115.959C315.71 115.669 315.688 115.379 315.666 115.08C315.459 112.236 315.304 109.389 315.208 106.539C315.19 106.028 315.19 106.028 315.172 105.507C315.138 103.703 315.224 102.033 316.047 100.387C316.09 99.8984 316.123 99.4088 316.152 98.919C316.258 97.6183 316.55 96.7895 317.165 95.6334C317.264 95.1812 317.35 94.7263 317.428 94.2702C317.597 93.3169 317.819 92.567 318.284 91.7185C318.727 90.9098 318.926 90.2536 319.053 89.3417C319.728 85.4374 322.543 81.5758 324.796 78.4197C325.253 77.7707 325.685 77.1107 326.115 76.4438C326.785 75.4336 327.523 74.545 328.337 73.6486C329.228 72.6181 330.05 71.5324 330.871 70.4452C331.629 69.4599 332.395 68.7125 333.387 67.95C333.555 67.6963 333.722 67.4425 333.894 67.181C335.774 64.389 338.66 62.2877 341.368 60.3563C342.095 59.8386 342.095 59.8386 342.792 59.1067C343.39 58.5086 343.92 58.124 344.627 57.6736C345.62 57.0398 346.426 56.3475 347.267 55.524C348.567 54.3077 349.911 53.6218 351.542 52.9571C352.616 52.5098 353.152 52.1226 353.804 51.1722C354.327 50.9188 354.327 50.9188 354.888 50.7528C355.646 50.5269 356.071 50.3099 356.693 49.8014C357.547 49.1312 358.36 48.7729 359.363 48.3585C361.372 47.5107 363.342 46.5935 365.307 45.6496C365.582 45.5176 365.857 45.3857 366.14 45.2497C367.203 44.7381 368.264 44.2235 369.319 43.6954C370.362 43.1751 371.438 42.7348 372.511 42.2809C376.496 40.5537 380.393 38.529 384.046 36.1771C384.95 35.5955 385.891 35.138 386.86 34.6741C388.101 34.0669 388.956 33.4746 389.884 32.4371C390.444 32.0642 391.003 31.6914 391.562 31.3185C391.799 31.0821 392.035 30.8456 392.279 30.602C392.961 29.9204 392.961 29.9204 393.677 29.5009C394.4 29.1099 394.4 29.1099 394.901 28.3999C395.562 27.5789 396.283 27.147 397.156 26.5648C397.341 26.3284 397.525 26.0919 397.715 25.8483C398.275 25.1667 398.275 25.1667 399.061 24.7822C400.246 24.1786 401.008 23.33 401.911 22.3704C402.843 21.4383 403.775 20.5062 404.708 19.5741C404.861 19.4144 405.014 19.2547 405.172 19.0902C405.902 18.3374 406.567 17.6803 407.452 17.1099C408.599 16.323 409.5 15.3645 410.471 14.3726C410.988 13.8546 411.5 13.3756 412.067 12.9154C412.838 12.3114 412.838 12.3114 413.535 11.5697C414.217 10.9056 414.217 10.9056 414.875 10.5276C415.699 10.0146 416.289 9.43778 416.961 8.73845C417.78 7.90024 418.596 7.09403 419.496 6.34412C420.68 5.34001 421.696 4.19382 422.705 3.01827C425.177 0.232742 427.392 -0.244958 431.02 -0.201734Z" fill="#E4F5FC"/>
<path d="M0 0C44.0256 0 88.0512 0 133.411 0C133.965 2.21467 134.518 4.42933 135.089 6.71111C135.577 8.3781 136.064 10.0394 136.58 11.6969C136.756 12.2663 136.925 12.8371 137.092 13.4091C137.186 13.7306 137.281 14.0522 137.379 14.3834C137.458 14.6542 137.537 14.9249 137.618 15.2038C137.903 15.9867 138.292 16.6274 138.725 17.337C138.931 17.9061 138.931 17.9061 139.092 18.473C139.674 20.3079 140.488 22.2365 141.673 23.7641C142.182 24.4662 142.441 25.1775 142.745 25.9881C143.291 27.3363 143.823 28.0764 144.878 29.0815C145.396 29.92 145.876 30.776 146.361 31.6342C146.911 32.5645 147.521 33.3056 148.234 34.1148C148.503 34.5214 148.503 34.5214 148.776 34.9362C149.457 35.9475 150.227 36.8361 151.031 37.75C151.184 37.9324 151.338 38.1148 151.496 38.3027C152.494 39.4807 153.547 40.4968 154.723 41.4966C155.353 42.0564 155.869 42.6481 156.345 43.3426C156.345 43.5271 156.345 43.7117 156.345 43.9019C156.589 43.9642 156.833 44.0266 157.085 44.0908C158.156 44.5133 158.818 45.113 159.614 45.9117C160.909 47.1613 162.219 48.144 163.792 49.0379C164.456 49.4944 164.456 49.4944 165.02 50.2055C165.618 50.9455 166.041 51.1995 166.904 51.5742C167.835 52.0089 168.623 52.4467 169.421 53.0947C170.54 53.9783 171.768 54.5788 173.046 55.1948C174.317 55.8105 175.512 56.5035 176.711 57.2476C177.268 57.5721 177.807 57.8228 178.406 58.0581C179.28 58.4426 179.28 58.4426 179.839 59.0368C180.39 59.6554 180.39 59.6554 181.36 59.6834C182.356 59.8407 182.356 59.8407 182.951 60.4699C184.005 61.4782 185.096 61.7979 186.455 62.2875C187.754 62.7727 188.962 63.3925 190.188 64.0352C192.157 65.0662 192.157 65.0662 194.243 65.8178C195.554 66.2224 196.529 66.948 197.627 67.7545C198.548 68.4062 199.514 68.876 200.536 69.3481C203.261 70.6255 203.261 70.6255 204.242 71.4803C204.986 72.1809 204.986 72.1809 205.92 72.5814C206.779 73.0302 206.867 73.2563 207.248 74.1019C207.402 74.1779 207.556 74.254 207.714 74.3323C208.598 74.7771 209.341 75.3803 210.115 75.9893C210.441 76.2444 210.768 76.4993 211.094 76.754C211.251 76.8763 211.408 76.9987 211.569 77.1248C212.099 77.5312 212.645 77.9128 213.192 78.2963C214.317 79.1336 215.198 80.1537 216.114 81.2095C216.744 81.9162 217.404 82.5694 218.086 83.2248C219.017 84.1409 219.712 85.0412 220.361 86.1707C220.672 86.6828 221.013 87.1095 221.408 87.559C222.071 88.3621 222.47 89.1014 222.911 90.0407C223.48 91.0529 224.062 92.0546 224.66 93.05C225.973 95.2631 226.953 97.2613 227.386 99.8278C227.436 100.109 227.485 100.389 227.537 100.679C227.629 101.198 227.716 101.718 227.798 102.24C227.912 102.903 227.912 102.903 228.239 103.432C228.616 104.27 228.558 104.997 228.54 105.91C228.535 106.237 228.53 106.564 228.524 106.902C228.515 107.276 228.515 107.276 228.505 107.657C228.198 107.742 227.891 107.827 227.575 107.914C227.168 108.032 226.761 108.151 226.355 108.269C226.153 108.324 225.951 108.379 225.743 108.436C224.357 108.847 223.62 109.359 222.631 110.454C222.349 110.575 222.066 110.696 221.775 110.821C220.634 111.476 220.315 112.341 219.834 113.53C220.697 113.053 220.697 113.053 221.006 112.324C221.619 111.414 222.26 111.051 223.196 110.508C223.802 110.163 223.802 110.163 224.467 109.562C225.874 108.516 227.512 108.347 229.225 108.394C230.632 108.607 231.395 109.347 232.291 110.4C233.553 112.264 233.597 114.429 233.259 116.606C232.936 117.307 232.562 117.912 232.141 118.563C231.776 118.547 231.411 118.531 231.035 118.514C227.662 118.409 225.115 118.592 222.282 120.608C221.743 121.434 221.588 122.048 221.659 123.038C221.907 124.075 222.401 124.583 223.191 125.274C223.946 125.564 224.623 125.697 225.428 125.833C224.714 128.154 223.641 130.298 222.544 132.457C222.395 132.761 222.395 132.761 222.243 133.071C221.488 134.53 220.589 135.478 219.275 136.459C219.015 136.053 219.015 136.053 218.751 135.638C218.252 134.774 218.252 134.774 217.597 134.502C217.674 134.654 217.752 134.805 217.832 134.962C217.933 135.162 218.034 135.362 218.139 135.568C218.239 135.766 218.34 135.964 218.444 136.168C218.716 136.739 218.716 136.739 218.995 137.578C218.635 138.192 218.278 138.716 217.842 139.273C217.653 139.515 217.653 139.515 217.461 139.763C216.294 141.203 214.964 142.279 213.466 143.355C212.606 143.977 211.799 144.635 210.989 145.32C209.771 146.326 208.51 147.184 207.164 148.009C206.4 148.489 205.672 149.003 204.941 149.532C203.296 150.692 201.586 151.328 199.674 151.91C199.082 152.098 199.082 152.098 198.578 152.678C197.991 152.81 197.404 152.941 196.815 153.06C195.982 153.256 195.191 153.517 194.383 153.796C193.164 154.217 191.97 154.546 190.702 154.777C190.099 154.909 190.099 154.909 189.348 155.474C183.244 156.995 170.633 158.003 165.016 155.194C164.544 155.179 164.072 155.168 163.6 155.159C161.581 155.023 159.705 154.517 157.761 153.971C157.456 153.886 157.152 153.801 156.837 153.713C155.378 153.291 154.057 152.832 152.709 152.119C152.095 151.946 152.095 151.946 151.503 151.856C150.609 151.677 149.859 151.432 149.038 151.035C147.915 150.498 146.806 150.217 145.595 149.934C143.881 149.525 142.666 148.858 141.282 147.774C140.466 147.216 139.693 147.197 138.725 147.085C138.16 146.626 137.601 146.16 137.047 145.687C136.596 145.563 136.596 145.563 136.136 145.437C135.005 145.103 134.131 144.593 133.166 143.939C133.009 143.836 132.853 143.732 132.691 143.626C131.985 143.159 131.284 142.686 130.585 142.21C129.065 141.182 127.508 140.248 125.912 139.343C125.449 139.08 124.987 138.817 124.525 138.553C124.325 138.439 124.124 138.326 123.917 138.208C123.322 137.845 122.778 137.439 122.223 137.019C121.884 136.847 121.54 136.684 121.192 136.529C120.301 136.101 119.589 135.602 118.831 134.969C117.508 133.924 116.136 133.229 114.602 132.544C114.083 132.305 113.565 132.065 113.047 131.825C112.674 131.652 112.674 131.652 112.294 131.476C110.384 130.575 108.525 129.579 106.771 128.402C105.812 127.781 104.907 127.543 103.786 127.359C103.15 127.219 102.667 126.963 102.086 126.672C101.448 126.513 100.808 126.392 100.162 126.27C99.5687 126.113 99.5687 126.113 98.7297 125.554C98.1295 125.447 98.1295 125.447 97.4886 125.414C96.5387 125.35 95.9353 125.149 95.0938 124.715C94.6827 124.616 94.2686 124.528 93.8526 124.453C93.0669 124.291 92.5855 124.161 91.8948 123.736C90.961 123.19 90.0574 123.058 88.9985 122.878C88.3812 122.757 88.3812 122.757 87.8219 122.478C87.2754 122.388 86.7274 122.308 86.1787 122.233C83.9073 121.895 81.7066 121.397 79.5361 120.643C78.4641 120.272 77.3992 120.04 76.2859 119.829C75.3911 119.658 74.5004 119.473 73.6103 119.28C73.3143 119.216 73.0183 119.153 72.7133 119.088C71.8797 118.843 71.8797 118.843 71.1674 118.412C70.399 117.955 69.8435 117.851 68.9604 117.742C67.6638 117.553 66.4555 117.267 65.2021 116.885C63.5352 116.386 61.9093 116.124 60.1863 115.904C58.9854 115.719 57.9046 115.368 56.7766 114.928C56.3862 114.782 55.9958 114.636 55.6054 114.491C55.3571 114.395 55.3571 114.395 55.1039 114.298C54.9175 114.229 54.7311 114.16 54.5391 114.089C54.2816 113.993 54.0242 113.898 53.759 113.799C52.782 113.506 51.8649 113.39 50.8507 113.285C49.2629 113.098 47.8617 112.745 46.3768 112.154C45.4609 111.803 44.5375 111.517 43.5963 111.24C43.1366 111.104 43.1366 111.104 42.6676 110.966C41.9015 110.787 41.2127 110.674 40.4356 110.598C39.2131 110.476 38.0799 110.217 36.9013 109.877C36.5823 109.787 36.5823 109.787 36.2568 109.695C34.1577 109.089 32.0917 108.388 30.0239 107.684C27.6662 106.887 25.288 106.182 22.89 105.517C21.5106 105.128 20.2953 104.685 19.0187 104.022C18.331 103.839 18.331 103.839 17.6553 103.743C16.3516 103.504 15.2089 103.12 13.9844 102.624C13.3843 102.397 12.7841 102.169 12.1839 101.942C10.7103 101.376 9.26815 100.76 7.83125 100.107C7.01531 99.7493 6.31372 99.5231 5.43643 99.3384C4.04489 99.0118 2.83615 98.3453 1.57652 97.6858C0.838441 97.2879 0.838441 97.2879 0 97.0315C0 65.0111 0 32.9907 0 0Z" fill="#DBF4DE"/>
<path d="M139.525 177.37C139.996 177.795 140.461 178.226 140.919 178.665C141.423 179.148 141.932 179.569 142.483 179.994C145.157 182.283 148.584 186.595 149.073 190.148C149.258 190.148 149.443 190.148 149.633 190.148C148.326 186.136 146.101 183.113 143.2 180.081C143.026 179.89 142.852 179.698 142.672 179.5C141.314 178.054 139.794 176.98 138.153 175.882C136.711 174.915 136.711 174.915 136.208 174.489C136.208 174.304 136.208 174.12 136.208 173.93C136.023 173.837 135.839 173.745 135.648 173.65C137.964 173.489 139.677 173.868 141.802 174.769C142.262 174.95 142.722 175.13 143.183 175.31C143.655 175.502 144.127 175.694 144.598 175.887C144.886 176.003 145.174 176.119 145.47 176.239C145.765 176.359 146.06 176.48 146.364 176.604C146.634 176.714 146.904 176.823 147.182 176.937C147.947 177.282 148.639 177.684 149.353 178.124C149.601 178.239 149.849 178.355 150.105 178.474C151.179 179.041 152.132 179.719 153.12 180.423C154.807 181.613 154.807 181.613 156.632 182.564C159.55 184.219 161.401 189.857 162.278 192.9C162.387 193.337 162.387 193.337 162.498 193.783C162.548 193.961 162.597 194.139 162.647 194.322C163.123 196.18 163.151 197.99 163.145 199.9C163.15 200.21 163.154 200.52 163.159 200.839C163.16 202.9 162.868 204.69 162.219 206.646C162.825 206.418 162.825 206.418 163.016 205.822C164.388 200.966 163.941 195.319 162.066 190.66C161.91 190.032 162.019 189.637 162.219 189.03C164.124 189.836 164.971 191.737 165.855 193.504C166.117 193.863 166.386 194.218 166.659 194.57C168.305 196.744 169.157 198.794 169.805 201.432C170.133 202.73 170.561 203.851 171.207 205.026C171.632 205.909 171.684 206.804 171.728 207.765C171.752 208.02 171.776 208.275 171.801 208.537C172.019 212.393 170.342 216.115 168.652 219.509C169.428 218.832 169.781 218.142 170.19 217.202C170.31 216.928 170.43 216.654 170.554 216.372C170.664 216.116 170.775 215.859 170.889 215.594C170.974 215.407 171.059 215.22 171.146 215.026C171.637 213.929 171.98 212.838 172.287 211.68C172.472 211.68 172.657 211.68 172.847 211.68C173.112 212.574 173.163 213.38 173.164 214.311C173.164 214.608 173.165 214.906 173.165 215.212C173.163 215.687 173.163 215.687 173.162 216.171C173.161 216.496 173.16 216.82 173.159 217.154C173.144 219.901 173.069 222.643 172.847 225.381C172.834 225.582 172.822 225.783 172.809 225.99C172.735 226.868 172.675 227.481 172.121 228.184C171.945 228.309 171.77 228.434 171.588 228.562C170.828 229.096 170.828 229.096 170.33 229.856C171.068 229.486 171.806 229.117 172.567 228.737C171.034 236 171.034 236 169.897 238.268C169.547 238.969 169.34 239.553 169.158 240.307C168.602 242.241 167.645 243.973 166.722 245.753C166.409 246.364 166.103 246.98 165.8 247.597C165.701 247.798 165.602 248 165.499 248.208C165.31 248.593 165.121 248.979 164.932 249.366C164.584 250.07 164.248 250.736 163.762 251.356C163.343 251.939 163.106 252.462 162.829 253.122C162.231 254.51 161.443 255.688 160.558 256.91C160.415 257.113 160.271 257.317 160.124 257.527C159.314 258.661 158.461 259.636 157.464 260.615C157.183 261.014 156.914 261.422 156.66 261.838C156.121 262.675 155.589 263.363 154.859 264.04C153.958 264.887 153.321 265.838 152.657 266.872C151.567 268.546 150.389 269.55 148.71 270.654C147.858 271.316 147.411 272.015 146.836 272.919C146.28 273.297 145.721 273.67 145.158 274.037C144.846 274.432 144.534 274.827 144.223 275.222C142.901 276.627 141.179 277.684 139.609 278.792C137.955 279.966 136.471 281.233 134.987 282.615C134.135 283.366 133.243 283.977 132.285 284.583C131.658 284.992 131.097 285.46 130.533 285.951C129.908 286.46 129.247 286.91 128.586 287.372C127.2 288.367 126.04 289.479 124.859 290.706C124.026 291.527 123.126 292.211 122.19 292.909C121.618 293.335 121.618 293.335 121.122 294.031C120.517 294.763 119.957 295.14 119.164 295.656C117.992 296.446 117.326 297.155 116.654 298.388C116.347 298.929 116.006 299.365 115.598 299.833C115.064 300.468 114.746 300.986 114.392 301.72C113.584 302.124 112.889 302.035 111.986 302.034C111.793 302.035 111.601 302.035 111.402 302.035C110.749 302.036 110.097 302.035 109.444 302.034C108.974 302.034 108.504 302.034 108.034 302.034C106.737 302.035 105.441 302.034 104.144 302.032C102.748 302.031 101.351 302.032 99.9551 302.032C97.5342 302.032 95.1132 302.031 92.6923 302.03C89.192 302.027 85.6917 302.027 82.1914 302.026C76.5129 302.026 70.8345 302.024 65.156 302.021C59.6386 302.019 54.1213 302.017 48.6039 302.015C48.2606 302.015 47.9172 302.015 47.5635 302.015C44.8785 302.015 42.1935 302.014 39.5085 302.013C26.339 302.011 13.1695 302.005 0 302C0 276.716 0 251.432 0 225.381C5.62227 226.006 5.62227 226.006 8.2333 226.36C9.31103 226.502 10.389 226.641 11.4672 226.78C11.805 226.823 11.805 226.823 12.1496 226.867C22.5187 228.473 22.5187 228.473 32.4437 226.78C33.3653 226.724 34.285 226.683 35.2078 226.659C36.55 226.6 37.3911 226.29 38.5969 225.661C39.578 225.477 39.578 225.477 40.5896 225.364C41.8624 225.249 41.8624 225.249 43.0477 224.829C43.6842 224.517 44.2266 224.408 44.9248 224.295C46.4416 224.009 47.8032 223.508 49.225 222.917C49.4693 222.818 49.7137 222.719 49.9654 222.616C51.437 222.011 52.8667 221.357 54.2725 220.61C54.8187 220.348 54.8187 220.348 55.8151 220.103C56.9735 219.724 57.6568 219.12 58.588 218.353C59.6045 217.602 60.7121 217.107 61.8503 216.567C62.7883 216.082 63.5659 215.495 64.3871 214.837C64.8875 214.476 64.8875 214.476 65.8489 214.091C67.0319 213.552 67.8094 212.832 68.7441 211.942C70.32 210.561 70.32 210.561 71.3203 210.561C71.395 210.393 71.4697 210.225 71.5467 210.051C71.8871 209.429 72.192 209.1 72.7319 208.648C72.8991 208.507 73.0664 208.366 73.2388 208.22C73.4133 208.075 73.5878 207.931 73.7676 207.782C73.9378 207.639 74.1079 207.496 74.2832 207.348C74.9446 206.792 75.6094 206.24 76.276 205.691C76.8953 205.178 77.49 204.672 78.0503 204.095C78.5922 203.57 78.5922 203.57 79.2914 203.186C80.0548 202.758 80.0548 202.758 80.5325 201.893C81.1094 201.054 81.1094 201.054 81.896 200.669C82.9582 200.128 83.4746 199.476 84.2253 198.57C84.9084 197.792 85.6772 197.152 86.466 196.485C86.9415 196.057 87.3361 195.627 87.7345 195.129C88.3812 194.343 88.3812 194.343 89.1154 193.766C89.8093 193.27 89.8093 193.27 90.138 192.56C90.7286 191.658 91.3449 191.284 92.2619 190.725C93.6514 189.85 93.6514 189.85 94.7791 188.68C95.4447 187.819 96.1486 187.388 97.0516 186.793C97.2304 186.556 97.4092 186.32 97.5935 186.076C98.3295 185.206 99.0864 184.994 100.128 184.556C100.353 184.331 100.578 184.106 100.81 183.874C101.522 183.162 102.176 182.804 103.081 182.382C104.992 181.422 106.827 180.241 108.554 178.98C109.894 178.019 111.114 177.972 112.714 178.124C117.016 178.892 120.776 180.922 123.902 183.996C123.902 184.181 123.902 184.365 123.902 184.556C124.178 184.556 124.455 184.556 124.741 184.556C121.845 180.865 117.553 178.542 112.994 177.565C112.994 177.38 112.994 177.196 112.994 177.006C114.92 176.046 116.715 175.186 118.861 174.886C119.511 174.788 119.511 174.788 120.266 174.209C121.459 173.94 122.674 173.789 123.884 173.615C124.212 173.564 124.541 173.513 124.879 173.461C130.511 172.633 135.061 173.773 139.525 177.37Z" fill="#F1EBF9"/>
<path d="M431.103 165.226C431.401 165.225 431.7 165.224 432.007 165.223C432.437 165.223 432.437 165.223 432.875 165.224C433.133 165.224 433.39 165.225 433.656 165.225C434.307 165.259 434.847 165.372 435.473 165.541C436.046 165.594 436.619 165.647 437.192 165.693C439.815 165.91 442.381 166.302 444.965 166.799C445.278 166.859 445.591 166.919 445.914 166.98C448.161 167.425 448.161 167.425 449.037 167.784C449.797 168.081 450.478 168.19 451.286 168.294C453.148 168.587 454.821 169.174 456.572 169.858C457.012 170.023 457.012 170.023 457.461 170.192C459.612 171.015 459.612 171.015 460.532 171.576C461.288 172.021 462.013 172.159 462.862 172.35C463.477 172.543 463.893 172.795 464.421 173.161C465.504 173.895 466.654 174.295 467.882 174.716C469.665 175.335 470.937 176.11 472.361 177.374C473.145 177.999 473.948 178.159 474.909 178.404C475.381 178.864 475.847 179.33 476.308 179.802C476.786 180.002 477.264 180.202 477.744 180.398C478.594 180.794 479.305 181.367 480.031 181.952C480.189 182.075 480.347 182.199 480.509 182.327C481.216 182.883 481.915 183.448 482.611 184.019C484.146 185.278 485.74 186.383 487.4 187.468C488.638 188.282 489.744 189.162 490.851 190.148C491.075 190.28 491.299 190.411 491.53 190.547C492.247 190.985 492.783 191.455 493.386 192.036C494.574 193.111 495.816 193.883 497.211 194.662C498.225 195.24 499.206 195.858 500.186 196.492C500.346 196.595 500.505 196.698 500.67 196.805C503.509 198.645 503.509 198.645 504.644 199.533C505.58 200.212 506.514 200.534 507.615 200.863C508.343 201.104 508.936 201.497 509.591 201.893C509.919 201.985 510.248 202.077 510.587 202.172C511.548 202.452 511.548 202.452 512.073 202.871C512.866 203.431 513.636 203.517 514.579 203.701C515.348 203.89 515.911 204.276 516.583 204.689C516.959 204.792 517.338 204.885 517.719 204.969C518.662 205.179 519.165 205.507 519.939 206.087C520.495 206.255 521.049 206.382 521.617 206.499C522.176 206.646 522.176 206.646 522.73 206.929C523.339 207.227 523.833 207.318 524.501 207.415C526.533 207.791 528.391 208.652 530.287 209.443C532.044 210.133 533.829 210.748 535.608 211.376C536.441 211.68 536.441 211.68 537 211.959C537 241.673 537 271.386 537 302C524.609 302.029 512.218 302.058 499.452 302.087C493.575 302.107 493.575 302.107 487.58 302.126C482.809 302.132 482.809 302.132 480.579 302.133C479.015 302.135 477.451 302.14 475.888 302.148C474.086 302.157 472.284 302.161 470.481 302.159C469.559 302.158 468.637 302.16 467.714 302.167C466.728 302.174 465.741 302.172 464.755 302.168C464.465 302.172 464.176 302.176 463.878 302.181C461.942 302.16 461.942 302.16 461.041 301.349C460.409 300.156 460.032 298.913 459.623 297.631C459.239 296.667 458.782 296.083 458.128 295.289C457.68 294.384 457.286 293.464 456.887 292.536C456.453 291.661 455.951 291.005 455.331 290.256C455.017 289.679 455.017 289.679 454.772 289.137C454.315 288.184 453.777 287.432 453.094 286.62C452.938 286.372 452.782 286.124 452.622 285.869C452.083 285.04 451.439 284.34 450.769 283.614C449.91 282.683 449.171 281.755 448.479 280.696C447.67 279.497 446.8 278.747 445.633 277.909C444.899 277.326 444.32 276.685 443.707 275.977C442.782 274.91 441.854 274.086 440.701 273.279C440.228 272.919 440.228 272.919 439.704 272.237C438.923 271.295 437.99 270.718 436.98 270.038C436.312 269.563 436.312 269.563 435.578 268.811C434.978 268.227 434.63 267.999 433.895 267.661C432.649 267.056 431.547 266.31 430.421 265.508C429.342 264.745 428.274 263.996 427.119 263.351C426.244 262.852 426.244 262.852 425.684 262.275C425.122 261.665 425.122 261.665 424.181 261.331C423.267 260.938 422.737 260.535 422.008 259.884C421.074 259.186 420.005 258.734 418.959 258.229C417.887 257.696 416.9 257.068 415.895 256.42C415.413 256.121 414.929 255.824 414.444 255.529C414.221 255.392 413.998 255.256 413.768 255.115C413.112 254.727 413.112 254.727 412.41 254.491C411.523 254.106 410.91 253.574 410.179 252.943C409.145 252.05 408.178 251.416 406.945 250.828C406.479 250.455 406.013 250.082 405.547 249.709C405.287 249.588 405.028 249.467 404.76 249.342C403.756 248.811 403.015 248.167 402.177 247.407C401.704 246.979 401.221 246.577 400.722 246.179C399.953 245.515 399.953 245.515 399.429 244.851C398.775 244.043 398.06 243.419 397.274 242.744C396.458 242.039 395.65 241.325 394.849 240.604C394.707 240.479 394.565 240.354 394.419 240.225C393.472 239.369 392.814 238.472 392.122 237.406C391.626 236.797 391.103 236.212 390.583 235.623C389.453 234.319 388.634 233.117 387.926 231.533C387.742 231.308 387.557 231.084 387.367 230.852C386.871 230.216 386.605 229.733 386.293 229.004C385.894 228.085 385.485 227.174 385.059 226.267C383.433 222.779 382.297 219.709 382.139 215.822C382.053 215.032 381.843 214.614 381.494 213.917C381.429 213.184 381.429 213.184 381.441 212.396C381.443 212.137 381.445 211.878 381.447 211.611C381.494 210.841 381.494 210.841 381.628 210.184C381.772 209.452 381.847 208.743 381.903 208C381.925 207.732 381.947 207.464 381.969 207.188C382.014 206.628 382.057 206.068 382.098 205.508C382.121 205.24 382.143 204.972 382.166 204.697C382.184 204.454 382.203 204.211 382.222 203.96C382.337 203.263 382.574 202.797 382.892 202.172C382.921 201.809 382.95 201.446 382.979 201.071C383.115 199.59 383.643 198.337 384.203 196.969C384.557 196.054 384.821 195.149 385.077 194.203C385.634 192.348 386.547 190.873 387.603 189.262C387.957 188.702 388.282 188.131 388.605 187.553C389.779 185.456 390.88 183.648 392.676 182.013C393.23 181.49 393.655 180.963 394.097 180.344C395.529 178.371 397.107 176.947 399.228 175.749C400.665 174.914 402.024 173.933 403.338 172.915C403.929 172.488 404.543 172.249 405.216 171.976C406.005 171.61 406.739 171.174 407.487 170.731C409.607 169.484 411.419 168.551 413.828 167.997C414.685 167.799 415.532 167.577 416.382 167.349C418.513 166.787 420.602 166.452 422.796 166.238C423.687 166.157 423.687 166.157 424.266 165.823C426.224 164.87 428.979 165.218 431.103 165.226Z" fill="#F1EBF9"/>
<path d="M218.716 0C251.389 0 284.062 0 317.725 0C317.541 0.461389 317.356 0.922778 317.166 1.39815C317.055 2.12907 316.961 2.84852 316.886 3.58275C316.616 5.98449 316.616 5.98449 316.309 7.06065C316.005 8.27877 315.928 9.44903 315.863 10.7002C315.767 11.4648 315.767 11.4648 315.492 11.9452C315.095 12.838 315.092 13.6342 315.044 14.6096C315.034 14.8151 315.024 15.0206 315.013 15.2324C314.889 17.8826 314.828 20.5355 314.772 23.1879C314.753 24.0731 314.732 24.9582 314.71 25.8433C314.697 26.4133 314.685 26.9833 314.673 27.5533C314.666 27.8144 314.659 28.0754 314.652 28.3443C314.624 29.8381 314.722 31.2376 314.928 32.7167C314.963 33.3141 314.99 33.9121 315.007 34.5102C315.017 34.8386 315.028 35.167 315.039 35.5053C315.048 35.8423 315.058 36.1794 315.068 36.5266C315.126 38.4913 315.193 40.4482 315.353 42.4076C315.526 44.7014 315.54 46.9904 315.539 49.2895C315.54 50.0158 315.545 50.742 315.55 51.4682C315.564 55.3844 315.199 59.1338 314.369 62.9691C314.041 64.5281 313.748 66.0712 313.547 67.6529C313.32 69.2286 312.821 70.5971 312.214 72.0647C311.726 73.3004 311.368 74.5632 311.01 75.8419C310.733 76.6186 310.393 77.091 309.894 77.737C309.659 78.3454 309.659 78.3454 309.492 78.9779C309.142 80.0885 308.698 80.7598 307.936 81.6518C307.679 82.0616 307.429 82.4758 307.184 82.8927C306.876 83.4115 306.567 83.9299 306.258 84.4481C306.117 84.6852 306.117 84.6852 305.972 84.9271C304.715 87.0163 303.502 88.8628 301.503 90.3204C301.113 90.6056 300.722 90.8911 300.332 91.1767C300.147 91.3119 299.961 91.4471 299.77 91.5863C299.284 91.9835 298.93 92.3753 298.549 92.872C297.775 93.7843 296.946 94.2411 295.909 94.7944C295.717 94.8973 295.525 95.0001 295.327 95.106C294.511 95.5398 293.691 95.9685 292.872 96.3974C292.025 96.8428 291.193 97.2877 290.378 97.7906C289.782 98.1349 289.325 98.2982 288.655 98.4296C287.944 98.5699 287.43 98.7552 286.779 99.0927C281.407 101.7 271.873 103.002 266.053 101.366C265.305 101.2 264.58 101.151 263.815 101.104C260.89 100.886 258.485 100.084 255.914 98.7093C254.964 98.2573 254.04 97.8904 253.012 97.6432C251.917 97.2843 251.197 96.7882 250.264 96.1303C249.101 95.3914 247.865 94.8115 246.617 94.2296C245.102 93.5044 243.945 92.6339 242.769 91.4214C242.202 90.8364 242.202 90.8364 241.388 90.3553C240.442 89.6989 239.859 88.9725 239.133 88.0833C238.724 87.7547 238.316 87.4262 237.904 87.1013C237.157 86.4091 236.592 85.5791 236.003 84.7518C235.525 84.1355 235.525 84.1355 234.831 83.7917C233.839 83.1655 233.285 82.3723 232.613 81.4247C232.478 81.2377 232.344 81.0507 232.205 80.858C231.046 79.2199 230.026 77.5334 229.077 75.7641C228.757 75.1702 228.431 74.5805 228.104 73.9904C226.488 71.034 225.158 68.0248 223.975 64.8709C223.754 64.3016 223.754 64.3016 223.452 63.7227C223.067 62.9473 222.965 62.147 222.816 61.3001C222.668 60.6607 222.668 60.6607 222.227 60.1766C221.724 59.4649 221.562 58.8871 221.363 58.0406C221.292 57.744 221.222 57.4473 221.149 57.1417C221.079 56.8327 221.008 56.5238 220.936 56.2056C220.864 55.9053 220.793 55.605 220.719 55.2957C220.298 53.4976 219.952 51.7015 219.676 49.8757C219.586 49.2124 219.586 49.2124 219.275 48.6556C219.151 47.6315 219.047 46.6075 218.95 45.5807C218.843 44.5274 218.708 43.5331 218.419 42.5135C218.069 41.2105 218.105 39.9467 218.139 38.6064C218.156 37.7606 218.162 36.9184 218.156 36.0722C218.064 35.9799 217.972 35.8877 217.877 35.7926C217.848 35.117 217.838 34.4497 217.84 33.774C217.839 33.5694 217.839 33.3647 217.839 33.1538C217.839 32.7185 217.839 32.2831 217.84 31.8477C217.842 31.1892 217.84 30.5308 217.838 29.8723C217.838 28.0568 217.843 26.266 218.088 24.464C218.186 23.467 218.204 22.4692 218.225 21.4681C218.232 21.1508 218.232 21.1508 218.239 20.8271C218.258 19.9451 218.275 19.0631 218.29 18.181C218.301 17.5289 218.315 16.877 218.33 16.2251C218.332 16.0344 218.335 15.8438 218.337 15.6473C218.388 13.5532 218.713 11.6267 218.995 9.50741C218.903 6.36996 218.811 3.23252 218.716 0Z" fill="#F1EBF9"/>
<path d="M264.025 198.817C264.302 199.094 264.302 199.094 264.585 199.376C262.728 201.715 260.755 203.912 258.711 206.087C258.912 206.05 259.113 206.013 259.32 205.975C262.094 205.501 264.853 205.361 267.661 205.248C266.359 206.85 266.359 206.85 265.494 207.538C263.213 209.372 261.601 211.997 260.11 214.476C260.386 214.476 260.663 214.476 260.949 214.476C261.023 214.269 261.098 214.063 261.175 213.85C262.496 210.787 265.791 207.421 268.5 205.528C269.794 205.093 271.16 205.259 272.503 205.336C272.732 205.345 272.96 205.355 273.195 205.366C275.756 205.502 277.972 206.251 280.369 207.144C281.079 207.387 281.739 207.581 282.465 207.747C283.669 208.036 284.754 208.507 285.876 209.023C287.155 209.605 288.412 210.142 289.756 210.561C288.881 211.144 288.131 211.404 287.134 211.732C284.456 212.673 281.937 213.764 279.967 215.874C280.25 215.713 280.532 215.551 280.823 215.385C281.002 215.282 281.182 215.18 281.367 215.075C281.717 214.874 282.067 214.673 282.417 214.472C288.609 210.917 288.609 210.917 291.994 211.68C292.473 212.133 292.937 212.601 293.392 213.078C293.788 213.311 294.191 213.531 294.599 213.742C295.964 214.465 297.019 215.388 298.147 216.433C298.525 216.767 298.903 217.099 299.283 217.43C299.468 217.591 299.652 217.752 299.842 217.918C300.359 218.369 300.878 218.817 301.398 219.265C301.558 219.402 301.717 219.539 301.881 219.68C302.308 220.039 302.744 220.387 303.181 220.733C304.749 222.104 305.962 223.64 307.097 225.382C306.926 225.37 306.754 225.359 306.578 225.347C303.023 225.122 299.706 225.084 296.189 225.661C295.444 225.76 294.698 225.851 293.952 225.941C293.952 226.218 293.952 226.494 293.952 226.78C294.151 226.722 294.351 226.665 294.556 226.606C294.824 226.531 295.092 226.455 295.368 226.378C295.631 226.303 295.893 226.228 296.164 226.152C299.673 225.296 304.567 225.023 307.936 226.5C308.821 227.314 309.321 228.248 309.894 229.296C310.198 229.753 310.502 230.21 310.81 230.665C312.094 232.578 313.141 234.578 314.138 236.653C314.48 237.361 314.849 238.041 315.247 238.719C315.764 239.636 316.053 240.454 316.326 241.459C316.587 242.11 316.881 242.587 317.269 243.166C318.133 244.515 318.578 245.929 319.036 247.455C319.16 247.848 319.16 247.848 319.286 248.249C319.725 249.67 320.101 251.08 320.378 252.541C320.517 253.152 320.517 253.152 321.081 253.904C321.234 254.616 321.367 255.318 321.483 256.036C321.696 257.275 321.902 258.448 322.375 259.619C322.904 261.027 322.894 262.5 322.933 263.988C322.969 265.076 323.085 265.816 323.599 266.767C323.643 267.468 323.643 267.468 323.616 268.2C323.56 269.2 323.56 269.2 323.878 270.122C323.921 270.498 323.948 270.875 323.967 271.253C323.979 271.484 323.99 271.716 324.002 271.955C324.019 272.319 324.019 272.319 324.036 272.691C324.048 272.92 324.06 273.15 324.072 273.386C324.142 274.837 324.159 276.282 324.148 277.736C324.142 279.886 324.277 282.013 324.438 284.156C324.62 286.687 324.756 289.203 324.717 291.741C324.698 293.057 324.683 294.314 324.98 295.604C325.436 297.695 325.438 299.863 325.556 302C293.437 302 261.318 302 228.225 302C228.225 298.644 228.225 298.644 228.505 298.085C228.54 297.095 228.476 296.104 228.435 295.114C228.416 294.647 228.416 294.647 228.397 294.17C228.26 291.073 228.037 287.982 227.806 284.89C227.787 284.644 227.769 284.398 227.75 284.144C227.697 283.433 227.642 282.723 227.587 282.012C227.571 281.8 227.555 281.589 227.539 281.371C227.44 280.129 227.291 278.905 227.106 277.672C227.063 277.301 227.021 276.93 226.983 276.558C226.798 274.855 226.58 273.157 226.358 271.458C226.309 271.078 226.261 270.698 226.213 270.318C226.143 269.762 226.07 269.206 225.998 268.65C225.955 268.322 225.913 267.994 225.87 267.656C225.743 266.782 225.743 266.782 225.421 266.068C225.08 265.192 225.03 264.419 224.972 263.481C224.96 263.3 224.948 263.119 224.936 262.933C224.9 262.347 224.867 261.76 224.834 261.174C224.822 260.975 224.81 260.776 224.798 260.571C224.649 258.034 224.539 255.501 224.537 252.96C224.536 252.599 224.536 252.599 224.536 252.231C224.551 250.624 224.551 250.624 224.869 249.989C224.925 249.353 224.966 248.715 224.999 248.077C225.021 247.689 225.043 247.301 225.065 246.913C225.098 246.301 225.131 245.69 225.162 245.078C225.193 244.487 225.227 243.897 225.261 243.306C225.28 242.952 225.299 242.599 225.318 242.234C225.421 241.381 225.582 240.937 225.988 240.202C226.09 239.767 226.176 239.328 226.248 238.887C226.291 238.636 226.335 238.384 226.38 238.125C226.467 237.604 226.553 237.081 226.638 236.559C226.895 235.096 227.249 233.909 227.964 232.607C228.362 231.823 228.546 230.98 228.785 230.135C229.092 229.426 229.441 228.741 229.798 228.055C229.935 227.789 229.935 227.789 230.074 227.516C230.295 227.084 230.519 226.652 230.742 226.22C230.835 226.22 230.927 226.22 231.022 226.22C231.039 226.541 231.056 226.861 231.073 227.191C231.097 227.619 231.121 228.047 231.144 228.475C231.155 228.685 231.166 228.896 231.178 229.112C231.25 230.399 231.333 231.666 231.581 232.932C231.766 233.024 231.951 233.116 232.141 233.211C232.096 233.062 232.052 232.914 232.006 232.76C231.688 231.294 231.773 229.76 231.756 228.265C231.746 227.918 231.735 227.571 231.725 227.213C231.694 224.035 232.646 222.216 234.815 219.981C234.946 219.842 235.077 219.703 235.212 219.559C235.778 218.96 236.354 218.374 236.941 217.797C237.425 217.302 237.823 216.791 238.242 216.241C239.458 214.827 240.996 214.025 242.594 213.112C243.755 212.446 244.798 211.674 245.846 210.841C246.03 210.933 246.215 211.025 246.405 211.12C246.31 211.411 246.216 211.701 246.119 212.001C245.07 215.263 244.392 218.313 244.167 221.746C244.444 221.746 244.721 221.746 245.006 221.746C244.993 221.539 244.98 221.332 244.967 221.118C244.75 214.775 247.519 208.48 251.601 203.703C254.971 200.262 259.223 198.517 264.025 198.817Z" fill="#DBF4DE"/>
<path d="M469.731 217.165C471.488 217.935 472.454 219.422 473.336 221.065C473.565 221.957 473.547 222.787 473.511 223.704C473.676 223.778 473.84 223.852 474.009 223.929C475.544 224.755 476.813 226.21 477.521 227.798C478.066 229.734 477.981 231.738 477.165 233.578C476.291 235.1 474.933 236.651 473.281 237.338C472.702 237.59 472.288 237.804 471.833 238.244C471.571 239.187 471.614 240.103 471.641 241.076C471.598 245.04 471.598 245.04 470.435 246.913C470.299 247.132 470.163 247.351 470.024 247.577C468.505 249.755 466.345 251.172 463.722 251.667C463.07 251.687 462.416 251.693 461.764 251.667C461.753 251.938 461.741 252.209 461.729 252.488C461.469 254.292 460.273 255.675 459.02 256.927C456.545 258.626 454.111 259.132 451.136 258.657C448.438 257.821 446.849 256.248 445.298 253.974C444.344 252.066 444.449 249.558 444.703 247.472C445.048 246.442 445.487 245.569 446.102 244.676C446.379 244.676 446.656 244.676 446.941 244.676C446.828 244.944 446.828 244.944 446.714 245.218C446.604 245.5 446.494 245.783 446.381 246.074C446.308 246.257 446.234 246.44 446.157 246.629C445.292 248.941 445.262 251.028 446.12 253.351C446.473 254.097 446.958 254.685 447.5 255.302C447.5 255.486 447.5 255.671 447.5 255.861C447.666 255.941 447.833 256.021 448.004 256.104C448.619 256.42 448.619 256.42 449.51 257.015C451.537 258.022 454.334 257.901 456.482 257.292C458.494 256.37 459.82 255.005 460.611 252.942C460.714 252.614 460.818 252.285 460.925 251.946C460.752 251.892 460.58 251.837 460.402 251.78C458.469 251.098 456.96 250.152 455.611 248.591C455.098 247.515 454.905 246.709 455.052 245.515C455.935 243.955 455.935 243.955 456.73 243.557C457.871 243.4 458.57 243.332 459.582 243.906C461.018 245.055 461.754 246.215 462.044 248.031C462.1 248.969 462.097 249.89 462.044 250.828C464.727 250.445 467.257 249.684 468.967 247.46C470.545 244.983 470.875 242.541 470.714 239.643C470.622 239.458 470.53 239.273 470.435 239.083C470.002 239.36 470.002 239.36 469.561 239.643C467.882 240.482 466.112 240.421 464.281 240.202C463.275 239.857 462.752 239.256 462.061 238.454C461.653 237.398 461.694 236.506 462.044 235.448C463.115 234.071 464.33 233.345 466.047 233.054C467.783 233.319 469.041 234.19 470.129 235.561C470.534 236.165 470.915 236.773 471.274 237.406C473.713 235.978 475.856 234.565 476.867 231.813C477.126 229.593 476.435 227.56 475.049 225.801C474.445 225.196 474.024 224.836 473.231 224.543C473.22 224.733 473.208 224.923 473.196 225.119C472.778 226.523 471.839 227.573 470.574 228.3C469.273 228.593 468.507 228.622 467.306 227.986C466.498 227.321 466.063 226.911 465.68 225.941C465.699 224.834 465.779 224.214 466.466 223.337C467.866 222.258 468.988 222.155 470.714 222.306C471.393 222.449 472.014 222.641 472.672 222.865C472.106 220.794 471.493 219.392 469.665 218.146C467.865 217.523 466.23 217.685 464.482 218.409C463.833 218.762 463.383 219.252 462.883 219.789C462.606 219.789 462.329 219.789 462.044 219.789C462.529 218.554 463.388 217.937 464.489 217.246C466.055 216.617 468.115 216.764 469.731 217.165Z" fill="#20423A"/>
<path d="M231.162 108.391C232.938 110.079 234.114 111.652 234.221 114.159C234.181 115.857 233.649 117.297 232.979 118.843C233.239 118.82 233.499 118.796 233.766 118.773C235.293 118.776 236.625 119.377 238.014 119.961C238.265 120.066 238.516 120.17 238.774 120.278C241.1 121.335 242.253 122.699 243.328 124.994C243.53 125.242 243.732 125.49 243.94 125.746C244.677 127.093 244.541 128.246 244.447 129.748C244.451 129.959 244.455 130.171 244.459 130.388C244.417 132.485 243.229 134.05 241.929 135.62C241.14 136.363 240.317 136.983 239.412 137.578C239.193 137.739 238.974 137.901 238.748 138.067C237.758 138.539 236.736 138.771 235.67 139.02C234.931 139.207 234.931 139.207 234.434 139.679C233.501 140.308 232.499 140.344 231.406 140.444C231.056 140.477 231.056 140.477 230.698 140.51C226.821 140.828 223.524 141.04 220.394 138.417C220.101 138.192 220.101 138.192 219.802 137.963C218.845 137.2 218.116 136.472 217.597 135.341C217.597 135.064 217.597 134.787 217.597 134.502C218.436 134.781 218.436 134.781 218.89 135.515C219.68 136.78 220.874 137.563 222.072 138.417C222.308 138.59 222.545 138.763 222.788 138.941C225.476 140.181 229.288 139.674 232.14 139.256C232.44 139.221 232.74 139.186 233.049 139.151C233.83 139.017 233.83 139.017 234.462 138.578C235.259 138.112 235.993 137.87 236.878 137.613C238.326 137.148 239.17 136.675 240.251 135.62C240.488 135.453 240.724 135.286 240.968 135.114C242.981 133.308 243.456 131.176 243.656 128.561C243.606 126.301 242.084 124.225 240.677 122.543C238.644 120.665 235.375 119.723 232.7 119.402C232.636 119.604 232.573 119.806 232.508 120.014C232.067 120.958 231.494 121.482 230.742 122.198C230.586 122.417 230.43 122.636 230.27 122.862C228.86 124.462 227.074 125.707 224.938 125.956C223.679 125.949 223.06 125.417 222.169 124.577C221.441 123.763 221.398 123.006 221.419 121.926C221.585 120.916 222.106 120.552 222.911 119.961C223.537 119.641 224.166 119.358 224.817 119.093C225.423 118.86 225.423 118.86 225.942 118.551C226.639 118.242 227.12 118.219 227.88 118.229C228.128 118.231 228.377 118.232 228.633 118.234C228.891 118.239 229.148 118.244 229.413 118.248C229.675 118.251 229.937 118.253 230.207 118.256C230.851 118.263 231.496 118.272 232.14 118.283C233.244 116.364 233.257 114.576 232.979 112.411C232.344 110.734 231.537 109.57 229.903 108.776C228.084 108.469 226.23 108.79 224.589 109.615C224.046 110.014 223.558 110.437 223.068 110.898C222.631 111.293 222.631 111.293 221.862 111.73C221.1 112.216 220.834 112.754 220.394 113.53C220.209 113.53 220.024 113.53 219.834 113.53C220.018 112.535 220.331 111.815 220.953 111.013C221.501 110.699 222.06 110.443 222.637 110.185C223.269 109.89 223.269 109.89 223.907 109.16C225.661 107.452 229.03 107.402 231.162 108.391Z" fill="#264640"/>
<path d="M363.104 108.811C364.512 109.771 365.554 111.081 366.111 112.691C366.205 114.36 365.933 115.734 364.852 117.033C363.629 118.234 362.638 118.631 360.954 118.703C359.489 118.638 358.308 118.392 357.161 117.444C355.928 116.023 355.823 114.266 355.88 112.448C356.211 110.664 357.376 109.769 358.804 108.776C360.309 108.294 361.61 108.294 363.104 108.811Z" fill="#13382E"/>
<path d="M189.975 102.734C191.432 104.065 192.118 105.578 192.215 107.549C192.063 109 191.238 109.754 190.171 110.667C188.728 111.74 187.779 112.111 185.992 111.852C184.334 111.309 182.918 110.509 181.972 109.003C181.639 107.507 181.453 106.126 182.143 104.709C183.752 102.262 183.752 102.262 184.843 101.879C186.77 101.572 188.348 101.559 189.975 102.734Z" fill="#13382E"/>
<path d="M154.947 225.102C156.041 226.223 156.629 227.473 156.904 229.017C156.874 230.718 156.252 231.897 155.226 233.211C153.873 234.438 153.015 234.731 151.217 234.702C149.696 234.513 148.732 233.761 147.723 232.646C146.809 231.427 146.28 230.356 146.391 228.813C146.788 227.283 147.719 226.063 148.951 225.102C150.829 224.331 153.108 224.162 154.947 225.102Z" fill="#13382E"/>
<path d="M265.072 244.308C266.617 244.86 267.472 245.384 268.22 246.913C268.782 248.597 268.793 250.475 268.045 252.086C266.996 253.19 266.151 253.838 264.619 254.062C264.235 254.068 263.85 254.067 263.466 254.061C263.178 254.071 263.178 254.071 262.884 254.081C261.809 254.078 261.108 253.914 260.282 253.251C259.067 252.014 258.667 250.838 258.606 249.133C258.677 247.104 259.63 245.85 260.948 244.396C262.195 243.773 263.756 243.98 265.072 244.308Z" fill="#12372C"/>
<path d="M275.894 53.2869C276.251 53.2815 276.609 53.2761 276.977 53.2705C278.553 53.4822 279.392 54.1468 280.352 55.3841C281.031 56.7203 281.05 58.1027 280.806 59.5611C280.453 60.4162 279.988 61.0822 279.408 61.7981C279.217 62.075 279.027 62.3518 278.831 62.637C277.502 63.5414 276.206 63.4347 274.653 63.1963C273.422 62.8157 272.515 62.3009 271.733 61.2629C270.863 59.5963 270.713 57.767 271.017 55.9259C271.982 53.9095 273.797 53.289 275.894 53.2869Z" fill="#12372D"/>
<path d="M140.59 211.2C142.05 212.23 143.014 212.956 143.48 214.756C143.538 214.948 143.596 215.141 143.656 215.34C143.892 216.397 143.873 217.037 143.398 218.025C142.518 219.359 141.716 220.47 140.124 220.907C138.529 221.167 137.352 221.046 135.963 220.191C134.674 219.214 133.885 218.308 133.577 216.667C133.478 215.224 133.807 214.201 134.633 213.02C136.124 211.382 138.447 210.168 140.59 211.2Z" fill="#13382E"/>
<path d="M297.445 52.9483C298.792 54.0681 299.388 55.0374 299.623 56.7812C299.729 58.2759 299.421 59.4158 298.637 60.6928C297.55 61.9034 296.058 62.2246 294.511 62.5147C292.984 62.2286 291.419 61.5032 290.315 60.4C289.708 58.4786 289.282 56.5774 290.228 54.72C291.995 52.6672 294.85 51.541 297.445 52.9483Z" fill="#13382E"/>
<path d="M247.985 247.327C249.192 248.107 249.644 249.203 250.04 250.548C250.317 251.949 250.164 253.014 249.481 254.271C248.653 255.426 247.781 256.056 246.405 256.42C244.818 256.642 243.303 256.733 241.912 255.844C240.772 254.846 240.326 253.791 240.174 252.314C240.114 250.56 240.27 249.242 241.473 247.877C243.358 246.204 245.808 246.398 247.985 247.327Z" fill="#12382D"/>
<path d="M196.341 85.0074C197.965 85.6164 199.242 86.7859 199.977 88.3629C200.208 89.9237 199.918 91.4649 199.138 92.837C198.299 93.7555 197.432 94.4736 196.341 95.074C195.327 95.109 195.327 95.109 194.383 94.7944C194.199 94.767 194.014 94.7396 193.825 94.7114C192.368 94.4802 191.69 93.9119 190.783 92.7682C189.967 91.5008 190.07 90.0918 190.188 88.6426C190.589 87.2272 191.215 86.2232 192.364 85.3176C193.645 84.677 194.959 84.7649 196.341 85.0074Z" fill="#12382D"/>
<path d="M372.596 124.994C373.782 125.837 375.059 126.948 375.532 128.362C375.795 129.985 375.687 131.156 374.781 132.544C373.436 133.909 372.241 134.583 370.324 134.624C368.758 134.596 368.758 134.596 367.807 133.908C367.521 133.51 367.521 133.51 367.23 133.104C366.976 132.879 366.722 132.654 366.461 132.422C365.544 131.277 365.448 129.913 365.381 128.49C365.646 126.972 366.485 126.341 367.672 125.435C369.212 124.432 370.854 124.448 372.596 124.994Z" fill="#12372D"/>
<path d="M469.731 217.165C471.488 217.935 472.455 219.422 473.336 221.065C473.565 221.957 473.547 222.787 473.511 223.704C473.676 223.778 473.84 223.852 474.009 223.929C475.544 224.755 476.813 226.21 477.521 227.798C478.066 229.734 477.981 231.738 477.165 233.578C475.868 235.831 473.895 237.223 471.553 238.244C471.461 237.968 471.369 237.691 471.274 237.406C471.476 237.287 471.679 237.168 471.888 237.046C474.11 235.698 475.944 234.327 476.867 231.813C477.126 229.593 476.435 227.56 475.049 225.801C474.445 225.196 474.024 224.836 473.231 224.543C473.22 224.733 473.208 224.923 473.196 225.119C472.778 226.523 471.839 227.573 470.574 228.3C469.273 228.593 468.507 228.622 467.306 227.986C466.498 227.321 466.063 226.911 465.68 225.941C465.699 224.834 465.779 224.214 466.467 223.337C467.866 222.258 468.988 222.155 470.714 222.306C471.393 222.449 472.014 222.641 472.672 222.865C472.106 220.794 471.493 219.392 469.665 218.146C467.865 217.523 466.23 217.685 464.482 218.409C463.833 218.762 463.383 219.252 462.883 219.789C462.606 219.789 462.329 219.789 462.044 219.789C462.529 218.554 463.388 217.937 464.489 217.246C466.056 216.617 468.115 216.764 469.731 217.165Z" fill="#25463F"/>
<path d="M113.396 161.871C115.234 163.443 116.763 165.358 116.96 167.858C116.962 168.39 116.938 168.923 116.909 169.456C116.633 169.548 116.356 169.64 116.07 169.735C116.06 169.471 116.06 169.471 116.049 169.202C115.875 166.587 114.967 164.513 112.994 162.744C108.484 159.363 102.915 158.847 97.4704 159.469C91.0681 160.398 85.4091 163.972 81.4099 169.016C80.9111 169.709 80.4455 170.412 79.9907 171.133C79.7355 171.536 79.7355 171.536 79.475 171.947C77.209 175.667 75.885 179.672 76.8257 184.047C77.6574 186.538 78.9497 188.042 81.2384 189.297C81.4515 189.442 81.4515 189.442 81.6688 189.589C81.6688 189.773 81.6688 189.958 81.6688 190.148C80.1489 190.053 79.1082 189.194 78.0329 188.191C75.982 185.782 75.3207 183.143 75.4021 180.018C75.889 175.496 78.1962 171.47 81.1095 168.057C81.289 167.838 81.4686 167.618 81.6535 167.391C89.0303 158.71 103.641 154.43 113.396 161.871Z" fill="#23433D"/>
<path d="M227.106 108.496C228.492 108.371 229.763 108.259 230.97 109.038C232.398 110.26 233.157 111.563 233.384 113.438C233.444 115.457 233.403 116.946 232.141 118.563C230.664 118.471 229.187 118.378 227.666 118.283C227.85 115.146 228.035 112.008 228.225 108.776C227.856 108.684 227.487 108.591 227.106 108.496Z" fill="#DBCDEE"/>
<path d="M229.344 119.07C229.709 119.075 229.709 119.075 230.081 119.081C230.675 119.091 231.268 119.106 231.861 119.122C231.418 121.295 228.906 123.482 227.127 124.724C226.016 125.242 224.934 125.275 223.75 124.994C222.894 124.313 222.894 124.313 222.352 123.596C222.259 123.504 222.167 123.412 222.072 123.317C221.915 122.565 221.915 122.565 222.072 121.639C224.049 119.503 226.558 118.986 229.344 119.07Z" fill="#D8F1DB"/>
<path d="M467.655 234.347C468.899 235.167 469.978 236.126 470.342 237.609C470.372 237.818 470.403 238.028 470.435 238.244C468.597 239.339 467.004 240.053 464.841 239.643C463.762 239.084 463.275 238.693 462.603 237.685C462.465 236.623 462.512 236.151 463.093 235.238C464.458 233.874 465.809 233.707 467.655 234.347Z" fill="#EDE8F5"/>
<path d="M292.212 199.177C293.567 200.221 294.435 201.406 295.07 203.011C295.123 203.955 295.123 203.955 295.07 204.689C294.793 204.689 294.517 204.689 294.231 204.689C294.187 204.506 294.143 204.324 294.097 204.136C293.605 202.294 293.138 200.937 291.455 199.875C287.456 197.759 282.939 198.984 278.848 200.215C271.805 202.502 265.027 207.415 261.35 213.921C261.218 214.104 261.085 214.287 260.948 214.476C260.672 214.476 260.395 214.476 260.109 214.476C262.426 208.014 269.698 203.265 275.578 200.393C280.388 198.193 287.362 196.209 292.212 199.177Z" fill="#20413A"/>
<path d="M146.836 175.328C149.924 175.785 152.66 177.799 154.947 179.802C155.138 179.953 155.33 180.105 155.527 180.261C159.667 183.611 161.924 188.773 163.338 193.783C163.406 194.024 163.475 194.265 163.546 194.513C164.335 197.931 164.636 203.127 163.058 206.367C162.781 206.459 162.504 206.551 162.219 206.646C162.474 205.081 162.474 205.081 162.644 204.31C163.383 200.24 163.003 195.719 161.659 191.826C161.555 191.509 161.45 191.192 161.343 190.866C158.883 183.952 154.094 179.518 147.692 176.289C147.41 176.156 147.127 176.024 146.836 175.887C146.836 175.702 146.836 175.518 146.836 175.328Z" fill="#24443E"/>
<path d="M262.644 198.205C262.913 198.209 263.182 198.213 263.459 198.216C264.114 198.226 264.769 198.24 265.423 198.257C265.423 198.442 265.423 198.627 265.423 198.817C265.255 198.826 265.086 198.836 264.912 198.846C260.456 199.12 257.049 199.737 253.397 202.452C253.114 202.654 252.832 202.856 252.54 203.064C249.047 206.125 246.862 211.16 245.845 215.594C245.786 215.817 245.727 216.039 245.666 216.268C245.209 218.068 245.115 219.898 245.006 221.746C244.729 221.746 244.453 221.746 244.167 221.746C243.749 215.818 246.128 209.389 249.806 204.769C253.297 200.787 257.207 198.057 262.644 198.205Z" fill="#23453C"/>
<path d="M457.971 244.082C459.395 244.532 460.016 245.295 460.855 246.494C461.568 247.919 461.511 249.267 461.484 250.828C459.5 250.756 458.251 250.141 456.729 248.87C456.017 248.029 455.905 247.59 455.768 246.494C455.958 244.971 456.355 244.14 457.971 244.082Z" fill="#EAE6F2"/>
<path d="M243.049 204.409C243.049 204.686 243.049 204.963 243.049 205.248C242.794 205.279 242.794 205.279 242.535 205.311C240.152 205.685 238.083 206.578 236.546 208.499C232.627 214.331 231.992 220.972 232.088 227.793C232.093 228.323 232.096 228.852 232.1 229.381C232.109 230.658 232.123 231.935 232.141 233.211C231.864 233.119 231.587 233.027 231.302 232.931C230.013 225.636 230.782 215.678 234.843 209.269C236.789 206.64 239.524 204.038 243.049 204.409Z" fill="#284742"/>
<path d="M125.02 171.972C131.144 171.601 136.409 173.692 141.042 177.705C141.293 177.935 141.543 178.166 141.802 178.404C141.948 178.538 142.094 178.672 142.244 178.81C145.374 181.718 148.062 184.997 149.633 189.03C149.633 189.399 149.633 189.768 149.633 190.148C149.448 190.148 149.264 190.148 149.074 190.148C148.875 189.722 148.875 189.722 148.673 189.287C147.454 186.728 146.134 184.511 144.319 182.319C144.047 181.983 144.047 181.983 143.77 181.641C140.649 177.948 136.532 175.304 132.013 173.65C131.763 173.549 131.514 173.448 131.258 173.344C129.985 172.995 128.747 172.961 127.433 172.916C127.173 172.905 126.914 172.894 126.647 172.883C126.012 172.857 125.376 172.833 124.741 172.811C124.833 172.534 124.925 172.257 125.02 171.972Z" fill="#24453E"/>
<path d="M446.101 244.676C446.378 244.676 446.655 244.676 446.94 244.676C446.865 244.855 446.79 245.033 446.713 245.218C446.604 245.5 446.494 245.783 446.381 246.074C446.307 246.257 446.233 246.44 446.157 246.629C445.292 248.941 445.262 251.028 446.12 253.351C446.472 254.097 446.957 254.685 447.5 255.302C447.5 255.486 447.5 255.671 447.5 255.861C447.749 255.981 447.749 255.981 448.004 256.104C448.619 256.42 448.619 256.42 449.51 257.015C451.537 258.022 454.334 257.901 456.482 257.292C458.494 256.37 459.819 255.005 460.61 252.942C460.714 252.614 460.818 252.285 460.925 251.946C461.063 252.223 461.063 252.223 461.205 252.506C461.389 252.598 461.574 252.69 461.764 252.785C460.717 255.286 459.402 256.91 457.009 258.22C454.872 259.066 452.347 259.033 450.17 258.358C447.836 257.285 446.135 255.649 444.983 253.344C444.314 251.347 444.349 248.529 445.015 246.538C445.346 245.888 445.688 245.277 446.101 244.676Z" fill="#25463E"/>
<path d="M302.622 213.078C303.963 214.349 305.089 215.586 305.174 217.499C305.163 217.701 305.151 217.903 305.139 218.111C304.724 217.973 304.724 217.973 304.3 217.831C304.123 217.332 304.123 217.332 303.985 216.695C303.456 214.988 302.407 214.055 300.944 213.078C296.805 211.012 292.438 210.767 288.007 212.125C285.747 212.938 283.303 213.874 281.42 215.385C280.806 215.874 280.806 215.874 279.967 215.874C280.549 214.129 282.792 213.332 284.366 212.545C290.128 209.798 297.261 208.903 302.622 213.078Z" fill="#294943"/>
<path d="M471.553 223.144C472.225 223.432 472.225 223.432 472.672 223.704C472.592 225.347 471.857 226.238 470.714 227.339C469.833 227.779 469.17 227.716 468.197 227.619C467.436 227.234 467.108 226.882 466.519 226.22C466.268 225.126 466.425 224.703 466.991 223.739C468.419 222.822 469.898 222.944 471.553 223.144Z" fill="#EDE8F5"/>
<path d="M168.092 194.063C169.628 194.575 170.181 196.319 170.889 197.698C173.254 202.971 173.699 208.708 171.728 214.196C171.025 216.021 170.298 217.879 169.211 219.509C169.026 219.509 168.842 219.509 168.652 219.509C168.818 218.493 169.103 217.686 169.561 216.765C171.905 211.613 172.735 206.17 171.006 200.646C170.382 199.088 169.641 197.601 168.849 196.122C168.476 195.386 168.265 194.848 168.092 194.063Z" fill="#21423B"/>
<path d="M227.386 119.122C228.862 119.122 230.339 119.122 231.861 119.122C231.268 121.492 228.923 123.332 226.992 124.736C226.547 124.994 226.547 124.994 225.987 124.994C226.113 124.225 226.242 123.456 226.372 122.687C226.425 122.361 226.425 122.361 226.479 122.029C226.515 121.818 226.551 121.607 226.588 121.39C226.62 121.197 226.653 121.003 226.686 120.804C226.826 120.241 226.826 120.241 227.386 119.122Z" fill="#D8CBEC"/>
<path d="M301.257 224.787C306.555 224.632 311.078 226.34 314.964 229.859C315.488 230.415 315.488 230.415 315.488 230.974C314.448 230.814 313.986 230.395 313.25 229.663C309.606 226.357 304.971 225.729 300.225 225.856C298.651 225.936 297.146 226.239 295.613 226.596C294.791 226.78 294.791 226.78 293.952 226.78C293.952 226.503 293.952 226.226 293.952 225.941C296.392 225.382 298.76 224.934 301.257 224.787Z" fill="#26483F"/>
<path d="M177.601 210.561C178.441 210.841 178.441 210.841 178.895 211.75C179.958 214.647 180.02 218.082 178.72 220.907C178.628 221.127 178.536 221.346 178.442 221.573C176.919 224.939 174.155 228.083 170.889 229.856C170.704 229.856 170.52 229.856 170.33 229.856C170.742 228.832 171.284 228.371 172.165 227.723C175.538 225.091 177.974 221.83 178.72 217.552C178.915 215.776 178.668 214.294 178.092 212.609C177.872 211.932 177.729 211.261 177.601 210.561Z" fill="#23433D"/>
<path d="M338.981 138.417C338.654 139.396 338.507 139.437 337.653 139.937C335.748 141.154 334.173 142.731 332.548 144.289C332.357 144.468 332.166 144.648 331.969 144.833C329.92 146.805 328.209 149.094 326.535 151.384C326.414 151.547 326.293 151.71 326.168 151.878C325.516 152.786 325.114 153.517 324.997 154.635C324.72 154.635 324.443 154.635 324.158 154.635C324.252 152.853 324.863 151.89 325.958 150.511C326.109 150.316 326.259 150.121 326.415 149.92C327.537 148.483 328.721 147.121 329.969 145.792C330.512 145.212 331.025 144.618 331.534 144.009C336.413 138.417 336.413 138.417 338.981 138.417Z" fill="#24443E"/>
<path d="M335.625 131.985C335.272 133.044 334.881 133.205 333.964 133.82C332.559 134.81 331.376 135.889 330.194 137.133C329.633 137.696 329.071 138.209 328.469 138.725C327.066 139.939 325.76 141.247 324.452 142.56C324.03 142.983 323.607 143.405 323.184 143.826C322.914 144.096 322.645 144.365 322.376 144.635C322.134 144.877 321.892 145.12 321.642 145.37C321.071 145.92 321.071 145.92 320.801 146.526C320.525 146.526 320.248 146.526 319.962 146.526C320.295 145.156 321.122 144.56 322.158 143.698C322.93 143.02 323.574 142.266 324.239 141.485C325.494 140.038 326.895 138.772 328.345 137.525C328.921 137.011 329.458 136.472 329.996 135.917C333.868 131.985 333.868 131.985 335.625 131.985Z" fill="#21433C"/>
<path d="M115.283 177.862C118.286 178.956 120.961 180.457 123.342 182.598C123.501 182.741 123.66 182.884 123.824 183.031C124.216 183.402 124.216 183.402 124.74 183.996C124.74 184.181 124.74 184.365 124.74 184.556C123.901 184.556 123.901 184.556 123.307 183.979C123.185 183.851 123.063 183.723 122.937 183.591C119.787 180.442 115.45 178.399 110.986 178.349C110.163 178.352 109.341 178.373 108.519 178.404C108.519 178.219 108.519 178.035 108.519 177.844C110.214 176.997 113.483 177.37 115.283 177.862Z" fill="#25463F"/>
<path d="M329.472 124.994C329.657 124.994 329.841 124.994 330.031 124.994C329.791 126.289 329.019 126.92 328.074 127.773C327.9 127.932 327.727 128.09 327.549 128.253C325.497 130.098 323.304 131.752 321.081 133.383C320.793 133.597 320.793 133.597 320.498 133.814C319.954 134.214 319.408 134.612 318.861 135.009C318.698 135.128 318.534 135.247 318.365 135.37C317.232 136.18 317.232 136.18 316.606 136.18C316.606 135.903 316.606 135.626 316.606 135.341C316.981 134.986 316.981 134.986 317.509 134.633C317.801 134.434 317.801 134.434 318.098 134.23C318.415 134.019 318.415 134.019 318.739 133.803C319.179 133.501 319.618 133.198 320.057 132.894C320.277 132.742 320.498 132.589 320.725 132.432C323.867 130.226 326.759 127.707 329.472 124.994Z" fill="#24463F"/>
<path d="M234.937 119.122C237.432 119.371 240.146 120.442 241.842 122.355C242.449 123.182 242.893 124.066 243.328 124.994C243.53 125.242 243.732 125.49 243.94 125.746C244.929 127.554 244.518 129.734 244.167 131.706C243.982 131.706 243.798 131.706 243.608 131.706C243.621 131.429 243.634 131.152 243.647 130.867C243.717 128.757 243.725 127.062 242.489 125.274C242.292 124.951 242.292 124.951 242.09 124.621C240.321 121.796 237.808 120.618 234.658 119.681C234.75 119.497 234.842 119.312 234.937 119.122Z" fill="#21413B"/>
<path d="M467.74 233.55C468.854 234.251 469.643 234.762 470.155 236.007C469.066 235.846 468.473 235.295 467.638 234.609C466.625 234.272 465.906 234.239 464.841 234.33C463.655 234.961 463.655 234.961 462.883 236.007C462.743 236.811 462.743 236.811 462.883 237.685C463.491 238.405 463.996 238.941 464.841 239.363C464.841 239.64 464.841 239.917 464.841 240.202C463.859 239.957 463.257 239.732 462.516 239.031C461.929 238.054 461.764 237.429 461.764 236.287C462.27 234.989 462.728 234.323 463.949 233.648C465.298 233.078 466.38 232.854 467.74 233.55Z" fill="#2C4B45"/>
<path d="M418.972 225.102C418.972 225.379 418.972 225.656 418.972 225.941C418.427 225.975 418.427 225.975 417.87 226.011C416.057 226.216 414.59 226.832 413.151 227.951C411.301 230.328 411.282 232.527 411.42 235.448C411.143 235.448 410.866 235.448 410.581 235.448C410.384 229.509 410.384 229.509 412.399 227.252C414.266 225.532 416.476 224.914 418.972 225.102Z" fill="#34514C"/>
<path d="M162.778 192.665C164.734 196.297 164.371 201.936 163.323 205.822C163.236 206.001 163.148 206.181 163.058 206.367C162.642 206.505 162.642 206.505 162.219 206.646C162.475 205.075 162.475 205.075 162.645 204.313C162.898 202.902 162.83 201.469 162.831 200.04C162.834 199.725 162.837 199.411 162.841 199.086C162.844 197.071 162.657 195.192 162.219 193.224C162.403 193.224 162.588 193.224 162.778 193.224C162.778 193.039 162.778 192.855 162.778 192.665Z" fill="#3A5752"/>
<path d="M231.197 108.444C231.416 108.646 231.635 108.848 231.861 109.056C232.121 109.272 232.121 109.272 232.385 109.492C232.7 109.894 232.7 109.894 232.7 110.733C231.664 110.388 231.217 109.829 230.463 109.056C229.089 108.369 227.224 108.673 225.795 109.09C224.689 109.5 223.921 110.095 223.068 110.898C222.631 111.293 222.631 111.293 221.862 111.73C221.101 112.216 220.834 112.754 220.394 113.53C220.209 113.53 220.025 113.53 219.834 113.53C220.019 112.535 220.332 111.815 220.953 111.013C221.501 110.699 222.061 110.443 222.637 110.185C223.269 109.89 223.269 109.89 223.907 109.16C225.54 107.57 229.26 107.177 231.197 108.444Z" fill="#26493E"/>
<path d="M433.795 201.893C433.795 202.077 433.795 202.262 433.795 202.452C433.573 202.499 433.35 202.547 433.12 202.596C430.567 203.18 428.918 203.884 427.363 206.087C426.813 207.611 426.733 208.95 426.768 210.544C426.772 210.87 426.772 210.87 426.776 211.204C426.783 211.735 426.793 212.267 426.803 212.798C426.619 212.798 426.434 212.798 426.244 212.798C425.526 210.476 425.656 207.483 426.695 205.291C427.799 203.577 429.279 202.565 431.226 202.011C432.107 201.841 432.901 201.836 433.795 201.893Z" fill="#1D4037"/>
<path d="M268.78 204.409C269.195 204.548 269.195 204.548 269.619 204.689C268.65 205.675 267.648 206.602 266.612 207.52C264.637 209.306 262.906 211.252 261.543 213.55C261.347 213.855 261.151 214.161 260.948 214.476C260.672 214.476 260.395 214.476 260.109 214.476C261.495 210.61 265.324 206.594 268.78 204.409Z" fill="#22453A"/>
<path d="M172.008 204.969C172.1 204.969 172.192 204.969 172.287 204.969C172.38 206.076 172.472 207.183 172.567 208.324C172.659 208.324 172.752 208.324 172.847 208.324C172.631 212.231 171.399 216.227 169.211 219.509C169.026 219.509 168.842 219.509 168.651 219.509C168.818 218.493 169.102 217.686 169.56 216.765C171.375 212.809 171.959 209.302 172.008 204.969Z" fill="#395553"/>
<path d="M246.964 209.722C247.148 209.722 247.333 209.722 247.523 209.722C247.352 210.705 247.087 211.575 246.719 212.501C245.609 215.507 245.16 218.557 245.006 221.746C244.729 221.746 244.452 221.746 244.167 221.746C243.882 217.713 244.872 213.605 246.684 210.002C246.776 209.91 246.869 209.817 246.964 209.722Z" fill="#2A4D42"/>
<path d="M342.897 143.17C343.082 143.17 343.266 143.17 343.456 143.17C343.307 144.344 342.951 144.975 342.198 145.879C341.996 146.121 341.795 146.364 341.587 146.613C337.034 151.894 337.034 151.894 335.346 152.957C335.161 152.957 334.976 152.957 334.786 152.957C334.786 152.118 334.786 152.118 335.167 151.717C335.347 151.572 335.527 151.428 335.713 151.28C338.161 149.212 340.232 147.066 342.01 144.406C342.293 143.986 342.594 143.577 342.897 143.17Z" fill="#24463F"/>
<path d="M75.5158 178.963C75.6081 178.963 75.7004 178.963 75.7955 178.963C75.8878 179.424 75.9801 179.886 76.0751 180.361C76.1674 180.361 76.2597 180.361 76.3548 180.361C76.379 180.611 76.4031 180.861 76.428 181.119C76.7409 183.811 77.1972 186.168 79.2916 188.033C79.8764 188.488 80.4531 188.859 81.092 189.239C81.3776 189.412 81.3776 189.412 81.6689 189.589C81.6689 189.773 81.6689 189.958 81.6689 190.148C80.149 190.053 79.1082 189.194 78.033 188.191C75.652 185.394 75.377 182.53 75.5158 178.963Z" fill="#254540"/>
<path d="M101.457 158.218C101.808 158.213 101.808 158.213 102.166 158.208C102.505 158.207 102.505 158.207 102.851 158.206C103.154 158.204 103.154 158.204 103.464 158.202C104.129 158.28 104.584 158.501 105.162 158.83C104.705 159.287 104.175 159.156 103.544 159.168C103.265 159.176 102.986 159.183 102.698 159.191C102.398 159.198 102.098 159.206 101.789 159.214C99.0106 159.303 96.402 159.595 93.6952 160.228C93.6029 159.951 93.5106 159.674 93.4155 159.389C93.8811 159.253 94.3474 159.119 94.814 158.987C95.0735 158.912 95.3331 158.838 95.6006 158.761C97.5504 158.3 99.4624 158.22 101.457 158.218Z" fill="#264540"/>
<path d="M445.263 223.144C445.447 223.144 445.632 223.144 445.822 223.144C445.995 225.433 445.5 227.385 444.118 229.246C443.109 230.399 442.176 231.406 440.788 232.093C440.419 232.093 440.049 232.093 439.669 232.093C439.669 231.908 439.669 231.723 439.669 231.533C440.09 231.251 440.09 231.251 440.665 230.939C443.1 229.457 444.232 227.533 444.983 224.822C445.196 223.859 445.196 223.859 445.263 223.144Z" fill="#2A4A43"/>
<path d="M460.925 251.946C461.063 252.223 461.063 252.223 461.205 252.506C461.389 252.598 461.574 252.69 461.764 252.785C460.567 255.645 459.026 257.271 456.165 258.482C455.611 258.657 455.611 258.657 454.772 258.657C454.772 258.473 454.772 258.288 454.772 258.098C453.757 258.098 452.741 258.098 451.695 258.098C451.695 258.006 451.695 257.914 451.695 257.819C451.946 257.815 452.196 257.811 452.454 257.806C455.208 257.698 457.427 257.289 459.369 255.214C460.154 254.205 460.542 253.159 460.925 251.946Z" fill="#264740"/>
<path d="M243.328 130.307C243.421 130.307 243.513 130.307 243.608 130.307C243.608 130.769 243.608 131.23 243.608 131.706C243.793 131.706 243.977 131.706 244.167 131.706C243.235 134.245 241.676 136.127 239.413 137.578C239.159 137.757 238.905 137.935 238.643 138.12C238.014 138.417 238.014 138.417 237.385 138.364C236.895 138.137 236.895 138.137 236.616 137.578C237.048 137.483 237.048 137.483 237.49 137.385C238.647 137.057 239.363 136.431 240.252 135.62C240.488 135.453 240.725 135.286 240.968 135.114C242.466 133.77 243.203 132.303 243.328 130.307Z" fill="#284742"/>
<path d="M119.426 237.965C119.611 238.057 119.796 238.149 119.986 238.244C119.94 238.539 119.894 238.833 119.846 239.136C119.384 242.619 119.384 242.619 120.545 245.794C120.82 246.079 121.098 246.361 121.384 246.633C121.384 246.818 121.384 247.002 121.384 247.193C120.545 247.103 120.271 246.918 119.671 246.301C118.349 244.318 118.321 242.086 118.704 239.777C119.048 238.343 119.048 238.343 119.426 237.965Z" fill="#2B4B44"/>
<path d="M374.359 84.8927C375.58 85.5791 376.67 86.4558 377.578 87.5241C377.578 87.8009 377.578 88.0777 377.578 88.363C376.436 87.8452 375.554 87.1003 374.59 86.3094C373.278 85.3713 372.24 85.2197 370.638 85.2521C370.313 85.2571 369.989 85.2622 369.654 85.2674C369.285 85.2771 369.285 85.2771 368.908 85.287C368.908 85.0102 368.908 84.7334 368.908 84.4482C370.808 83.8149 372.548 84.1006 374.359 84.8927Z" fill="#274941"/>
<path d="M261.508 31.3185C261.415 31.5954 261.323 31.8722 261.228 32.1574C260.545 32.4764 260.545 32.4764 259.672 32.7866C257.862 33.5085 256.239 34.3448 255.312 36.1356C255.043 36.8086 255.043 36.8086 254.795 37.75C254.611 37.75 254.426 37.75 254.236 37.75C254.395 35.7644 255.077 34.5879 256.508 33.241C257.954 32.0543 259.636 31.3185 261.508 31.3185Z" fill="#2C4B45"/>
<path d="M286.4 267.606C286.585 267.606 286.769 267.606 286.96 267.606C287.112 269.031 287.085 269.839 286.225 271.014C284.783 272.731 283.21 273.872 281.086 274.596C280.809 274.596 280.532 274.596 280.247 274.596C280.527 273.757 280.527 273.757 281.219 273.387C281.51 273.261 281.801 273.136 282.1 273.006C283.909 272.134 285.351 271.14 286.082 269.203C286.268 268.529 286.268 268.529 286.4 267.606Z" fill="#2A4D41"/>
<path d="M231.022 223.983C231.299 224.076 231.575 224.168 231.861 224.263C231.953 227.216 232.045 230.169 232.14 233.211C231.864 233.119 231.587 233.027 231.301 232.931C230.959 231.075 230.99 229.24 231.004 227.356C231.005 227.032 231.007 226.707 231.008 226.373C231.011 225.576 231.016 224.78 231.022 223.983Z" fill="#315449"/>
<path d="M156.345 106.819C156.53 106.819 156.715 106.819 156.905 106.819C156.872 107.176 156.838 107.534 156.804 107.902C156.767 108.38 156.731 108.857 156.695 109.335C156.672 109.57 156.65 109.805 156.626 110.046C156.507 111.751 156.759 112.954 157.744 114.369C157.895 114.51 158.046 114.652 158.202 114.798C158.583 115.207 158.583 115.207 158.583 116.046C157.322 115.551 156.658 114.684 156.037 113.502C155.687 112.373 155.705 111.314 155.716 110.139C155.714 109.912 155.712 109.686 155.709 109.452C155.71 109.234 155.711 109.016 155.712 108.791C155.712 108.594 155.713 108.396 155.714 108.193C155.786 107.657 155.786 107.657 156.345 106.819Z" fill="#204439"/>
<path d="M237.175 138.137C236.71 138.419 236.244 138.698 235.777 138.976C235.492 139.163 235.208 139.351 234.915 139.544C233.696 140.238 232.506 140.341 231.127 140.444C230.894 140.466 230.661 140.487 230.421 140.51C229.314 140.608 228.219 140.681 227.106 140.654C227.106 140.469 227.106 140.285 227.106 140.094C228.731 139.626 230.247 139.192 231.949 139.273C233.36 139.327 234.057 138.918 235.217 138.137C236.094 137.845 236.333 137.876 237.175 138.137Z" fill="#2B4945"/>
<path d="M338.981 138.417C338.651 139.408 338.448 139.483 337.583 140.007C336.361 140.785 335.32 141.668 334.266 142.658C333.635 143.197 332.985 143.594 332.269 144.009C331.797 144.376 331.33 144.747 330.87 145.128C331.473 143.763 332.484 142.93 333.562 141.929C333.754 141.746 333.946 141.563 334.144 141.374C337.307 138.417 337.307 138.417 338.981 138.417Z" fill="#264740"/>
<path d="M228.26 118.546C228.471 118.547 228.682 118.548 228.899 118.549C229.42 118.553 229.942 118.558 230.463 118.563C230.463 118.655 230.463 118.748 230.463 118.843C230.158 118.849 230.158 118.849 229.847 118.855C227.075 118.986 224.412 119.679 222.352 121.639C222.235 122.665 222.235 122.665 222.352 123.596C222.075 123.596 221.798 123.596 221.513 123.596C221.343 121.599 221.343 121.599 222.055 120.59C223.118 119.809 224.21 119.331 225.428 118.843C226.32 118.397 227.282 118.535 228.26 118.546Z" fill="#1A3E33"/>
<path d="M461.485 248.311C461.669 248.311 461.854 248.311 462.044 248.311C462.044 249.142 462.044 249.972 462.044 250.828C462.782 250.828 463.521 250.828 464.281 250.828C464.281 251.012 464.281 251.197 464.281 251.387C463.455 251.8 462.675 251.684 461.764 251.667C461.764 251.944 461.764 252.22 461.764 252.506C461.58 252.506 461.395 252.506 461.205 252.506C461.205 252.229 461.205 251.952 461.205 251.667C460.559 251.482 459.913 251.298 459.247 251.107C459.247 250.923 459.247 250.738 459.247 250.548C459.985 250.64 460.724 250.733 461.485 250.828C461.485 249.997 461.485 249.167 461.485 248.311Z" fill="#1D4037"/>
<path d="M427.363 204.969C427.455 205.153 427.547 205.338 427.642 205.528C427.51 205.857 427.377 206.185 427.24 206.524C426.514 208.531 426.738 210.697 426.803 212.798C426.619 212.798 426.434 212.798 426.244 212.798C425.505 210.441 425.669 207.43 426.803 205.248C426.988 205.156 427.172 205.064 427.363 204.969Z" fill="#173B32"/>
<path d="M291.994 199.376C293.37 199.834 294.009 200.961 294.721 202.155C295.095 203.07 295.14 203.71 295.071 204.689C294.794 204.689 294.517 204.689 294.231 204.689C294.187 204.506 294.143 204.324 294.097 204.136C293.566 202.148 292.883 201.104 291.435 199.656C291.619 199.563 291.804 199.471 291.994 199.376Z" fill="#264540"/>
<path d="M323.319 123.037C322.939 123.937 322.582 124.363 321.755 124.876C321.559 124.999 321.363 125.122 321.16 125.248C320.853 125.434 320.853 125.434 320.539 125.624C320.335 125.752 320.132 125.88 319.922 126.012C318.396 126.952 318.396 126.952 317.445 126.952C317.774 125.966 317.973 125.879 318.834 125.358C319.169 125.154 319.169 125.154 319.512 124.946C319.747 124.806 319.982 124.666 320.225 124.523C320.459 124.38 320.693 124.237 320.934 124.089C322.681 123.037 322.681 123.037 323.319 123.037Z" fill="#274942"/>
<path d="M455.051 245.515C455.89 246.074 455.89 246.074 456.135 247C456.579 248.456 457.334 249.133 458.635 249.884C458.837 250.011 459.039 250.138 459.247 250.269C459.247 250.545 459.247 250.822 459.247 251.107C457.564 250.634 456.068 249.371 455.191 247.874C455.027 247.072 455.013 246.331 455.051 245.515Z" fill="#2B4A44"/>
<path d="M177.602 210.561C178.441 210.841 178.441 210.841 178.895 211.75C179.446 213.252 179.593 214.501 179.577 216.101C179.574 216.426 179.572 216.751 179.569 217.085C179.566 217.332 179.563 217.578 179.559 217.832C179.375 217.739 179.19 217.647 179 217.552C178.887 216.883 178.804 216.233 178.738 215.56C178.565 214.029 178.291 212.779 177.602 211.4C177.602 211.123 177.602 210.846 177.602 210.561Z" fill="#1C3E37"/>
<path d="M125.02 171.972C125.743 171.965 126.465 171.959 127.188 171.955C127.392 171.952 127.596 171.95 127.806 171.948C128.792 171.943 129.666 171.985 130.614 172.252C130.522 172.529 130.43 172.806 130.334 173.091C128.489 172.998 126.643 172.906 124.741 172.811C124.833 172.534 124.925 172.257 125.02 171.972Z" fill="#1E3F38"/>
<path d="M227.106 107.937C229.017 107.815 230.346 107.73 231.861 109.056C232.034 109.2 232.207 109.344 232.385 109.492C232.7 109.894 232.7 109.894 232.7 110.733C231.664 110.388 231.217 109.829 230.463 109.056C229.744 108.696 229.13 108.684 228.33 108.619C228.049 108.595 227.769 108.572 227.48 108.548C227.264 108.531 227.049 108.514 226.827 108.496C226.919 108.312 227.011 108.127 227.106 107.937Z" fill="#173A32"/>
<path d="M465.68 224.543C465.956 224.635 466.233 224.727 466.519 224.822C466.605 225.088 466.692 225.353 466.781 225.626C467.111 226.598 467.309 226.857 468.197 227.339C468.938 227.539 468.938 227.539 469.595 227.619C469.687 227.895 469.78 228.172 469.875 228.457C468.393 228.599 467.663 228.28 466.519 227.339C465.783 226.383 465.577 225.743 465.68 224.543Z" fill="#32514B"/>
<path d="M171.169 214.196C171.261 214.381 171.353 214.565 171.448 214.756C171.199 215.495 171.199 215.495 170.819 216.381C170.696 216.671 170.574 216.961 170.447 217.26C170.078 218.052 169.706 218.789 169.211 219.509C169.026 219.509 168.842 219.509 168.651 219.509C168.826 218.345 169.22 217.428 169.753 216.381C169.899 216.089 170.046 215.796 170.197 215.495C170.609 214.756 170.609 214.756 171.169 214.196Z" fill="#284842"/>
<path d="M75.5157 178.963C75.608 178.963 75.7003 178.963 75.7954 178.963C75.8877 179.424 75.9799 179.886 76.075 180.361C76.1673 180.361 76.2596 180.361 76.3547 180.361C76.3919 180.631 76.429 180.9 76.4673 181.178C76.5167 181.531 76.566 181.885 76.6169 182.249C76.6899 182.774 76.6899 182.774 76.7644 183.31C76.8751 184.024 76.9993 184.701 77.1938 185.394C76.9169 185.487 76.64 185.579 76.3547 185.674C75.4833 183.423 75.4224 181.358 75.5157 178.963Z" fill="#395453"/>
<path d="M465.12 233.211C466.809 232.996 467.669 233.466 469.059 234.413C469.619 234.91 469.872 235.32 470.154 236.007C469.362 235.89 469.015 235.71 468.389 235.186C467.516 234.516 466.729 234.347 465.679 234.05C465.495 233.773 465.31 233.496 465.12 233.211Z" fill="#2E4E47"/>
<path d="M119.427 237.965C119.611 238.057 119.796 238.149 119.986 238.244C119.709 239.998 119.432 241.751 119.147 243.557C118.962 243.465 118.778 243.373 118.588 243.278C118.522 241.49 118.617 239.958 119.147 238.244C119.239 238.152 119.332 238.06 119.427 237.965Z" fill="#284941"/>
<path d="M418.972 225.102C418.972 225.379 418.972 225.656 418.972 225.941C418.813 225.954 418.654 225.968 418.49 225.982C417.095 226.117 415.832 226.354 414.497 226.78C414.405 226.503 414.312 226.226 414.217 225.941C415.867 225.299 417.2 225.005 418.972 225.102Z" fill="#35534D"/>
<path d="M268.78 204.409C269.057 204.502 269.334 204.594 269.619 204.689C268.593 205.73 267.536 206.729 266.455 207.712C266.224 207.923 266.224 207.923 265.989 208.138C265.614 208.48 265.239 208.821 264.864 209.163C264.864 207.978 265.396 207.642 266.193 206.786C266.439 206.518 266.686 206.25 266.94 205.973C268.094 204.812 268.094 204.812 268.78 204.409Z" fill="#1D4136"/>
<path d="M98.7295 158.27C99.5918 158.254 100.454 158.244 101.317 158.235C101.683 158.228 101.683 158.228 102.056 158.221C102.292 158.219 102.529 158.218 102.772 158.216C102.989 158.213 103.205 158.21 103.429 158.207C104.116 158.278 104.567 158.487 105.162 158.83C104.535 159.456 103.102 159.174 102.261 159.179C102.015 159.185 101.77 159.191 101.518 159.197C101.164 159.199 101.164 159.199 100.803 159.201C100.478 159.205 100.478 159.205 100.147 159.209C99.4302 159.085 99.1855 158.821 98.7295 158.27Z" fill="#3B5555"/>
<path d="M469.595 222.306C470.057 222.731 470.057 222.731 470.434 223.144C470.269 223.148 470.103 223.152 469.933 223.156C468.701 223.231 468.081 223.292 467.096 224.088C466.501 224.825 466.501 224.825 465.959 225.661C465.823 224.159 465.823 224.159 466.449 223.354C467.494 222.541 468.242 222.132 469.595 222.306Z" fill="#23443C"/>
<path d="M283.044 198.537C283.136 198.722 283.228 198.906 283.324 199.096C282.794 199.238 282.263 199.377 281.733 199.516C281.438 199.594 281.142 199.671 280.838 199.752C280.048 199.918 279.372 199.971 278.569 199.935C278.661 199.658 278.753 199.381 278.849 199.096C279.51 198.821 279.51 198.821 280.334 198.607C280.604 198.533 280.874 198.46 281.153 198.384C281.913 198.259 282.337 198.246 283.044 198.537Z" fill="#334F4D"/>
<path d="M283.883 212.798C284.068 212.89 284.252 212.983 284.442 213.078C283.42 214.233 282.153 215.13 280.806 215.874C280.529 215.874 280.253 215.874 279.967 215.874C280.333 214.779 280.795 214.616 281.768 214.022C282.044 213.851 282.321 213.68 282.606 213.504C283.024 213.256 283.448 213.016 283.883 212.798Z" fill="#23473B"/>
<path d="M273.534 202.172C272.892 202.855 272.209 203.39 271.437 203.92C271.112 204.147 271.112 204.147 270.781 204.379C270.582 204.481 270.383 204.583 270.178 204.689C269.901 204.597 269.624 204.504 269.339 204.409C271.892 201.625 271.892 201.625 273.534 202.172Z" fill="#274641"/>
<path d="M411.141 229.856C411.233 229.856 411.325 229.856 411.42 229.856C411.42 231.701 411.42 233.547 411.42 235.448C411.143 235.448 410.866 235.448 410.581 235.448C410.566 234.726 410.555 234.004 410.546 233.281C410.542 233.077 410.537 232.873 410.532 232.663C410.522 231.588 410.532 230.765 411.141 229.856Z" fill="#183B33"/>
<path d="M332.828 143.17C333.013 143.263 333.197 143.355 333.388 143.45C333.202 143.632 333.016 143.815 332.825 144.003C331.549 145.265 330.305 146.515 329.192 147.924C329.008 147.832 328.823 147.739 328.633 147.644C329.079 146.464 329.966 145.749 330.888 144.936C331.043 144.796 331.198 144.657 331.358 144.513C331.754 144.158 332.151 143.804 332.548 143.45C332.641 143.358 332.733 143.265 332.828 143.17Z" fill="#1C3E37"/>
<path d="M221.792 123.596C222.069 123.596 222.346 123.596 222.631 123.596C222.631 123.781 222.631 123.965 222.631 124.156C223.544 124.682 224.388 124.853 225.428 124.994C225.428 125.179 225.428 125.364 225.428 125.554C225.613 125.646 225.797 125.738 225.987 125.833C224.081 126.034 224.081 126.034 223.165 125.479C222.667 125.059 222.208 124.658 221.792 124.156C221.792 123.971 221.792 123.786 221.792 123.596Z" fill="#294C41"/>
<path d="M446.102 244.676C446.378 244.676 446.655 244.676 446.941 244.676C446.866 244.855 446.791 245.033 446.713 245.218C446.282 246.329 445.912 247.458 445.542 248.591C445.265 248.591 444.988 248.591 444.703 248.591C444.833 246.995 445.245 246.029 446.102 244.676Z" fill="#2D4D46"/>
<path d="M465.75 217.237C465.911 217.341 466.073 217.445 466.239 217.552C466.023 217.656 466.023 217.656 465.802 217.762C464.094 218.514 464.094 218.514 462.883 219.789C462.606 219.789 462.329 219.789 462.044 219.789C462.547 218.51 463.465 217.91 464.579 217.167C465.121 216.993 465.121 216.993 465.75 217.237Z" fill="#2A4943"/>
<path d="M111.35 177.547C111.561 177.549 111.772 177.55 111.99 177.551C112.511 177.554 113.032 177.559 113.553 177.565C113.553 177.749 113.553 177.934 113.553 178.124C111.892 178.216 110.23 178.309 108.519 178.404C108.519 178.219 108.519 178.035 108.519 177.844C109.41 177.399 110.373 177.536 111.35 177.547Z" fill="#1B3D36"/>
<path d="M231.861 218.95C231.953 218.95 232.046 218.95 232.141 218.95C232.175 220.749 232.091 222.478 231.861 224.263C231.676 224.263 231.492 224.263 231.302 224.263C231.246 222.388 231.215 220.725 231.861 218.95Z" fill="#173A32"/>
<path d="M163.337 201.893C163.43 201.893 163.522 201.893 163.617 201.893C163.714 203.664 163.42 204.997 162.778 206.646C162.594 206.646 162.409 206.646 162.219 206.646C162.386 205.588 162.576 204.535 162.778 203.483C162.824 203.242 162.87 203.001 162.918 202.752C163.058 202.172 163.058 202.172 163.337 201.893Z" fill="#1E4039"/>
<path d="M265.703 206.926C265.888 207.018 266.072 207.11 266.262 207.206C266.055 207.396 265.847 207.586 265.633 207.782C265.049 208.356 264.676 208.907 264.304 209.635C263.71 210.619 263.437 210.848 262.347 211.12C262.798 210.03 263.544 209.243 264.339 208.394C264.47 208.252 264.601 208.111 264.736 207.965C265.057 207.617 265.38 207.271 265.703 206.926Z" fill="#284B3F"/>
<path d="M467.078 249.15C467.263 249.242 467.447 249.335 467.637 249.43C467.358 250.269 467.358 250.269 466.8 250.595C466.574 250.689 466.349 250.783 466.117 250.88C465.892 250.976 465.667 251.073 465.436 251.172C464.841 251.387 464.841 251.387 464.281 251.387C464.281 251.11 464.281 250.833 464.281 250.548C464.734 250.307 465.189 250.068 465.645 249.832C465.898 249.699 466.151 249.566 466.412 249.429C466.742 249.291 466.742 249.291 467.078 249.15Z" fill="#2C4B44"/>
<path d="M231.861 139.535C230.47 140.463 228.775 140.761 227.106 140.654C227.106 140.469 227.106 140.285 227.106 140.094C228.731 139.673 230.183 139.474 231.861 139.535Z" fill="#173A32"/>
<path d="M121.944 181.759C123.101 182.204 123.967 183.047 124.741 183.996C124.741 184.181 124.741 184.365 124.741 184.556C123.902 184.556 123.902 184.556 123.185 183.891C122.96 183.649 122.735 183.407 122.503 183.157C122.319 182.973 122.134 182.788 121.944 182.598C121.944 182.321 121.944 182.044 121.944 181.759Z" fill="#22443C"/>
<path d="M243.888 127.511C244.072 127.511 244.257 127.511 244.447 127.511C244.472 128.952 244.404 130.285 244.167 131.706C243.983 131.706 243.798 131.706 243.608 131.706C243.579 130.272 243.598 128.923 243.888 127.511Z" fill="#14382F"/>
<path d="M295.35 210.841C295.35 210.933 295.35 211.025 295.35 211.12C292.997 211.259 292.997 211.259 290.596 211.4C290.596 211.215 290.596 211.031 290.596 210.841C290.411 210.748 290.226 210.656 290.036 210.561C291.927 210.204 293.48 210.425 295.35 210.841Z" fill="#395552"/>
<path d="M293.74 210.207C294.104 210.209 294.104 210.209 294.476 210.212C294.718 210.21 294.959 210.209 295.208 210.207C295.939 210.285 296.399 210.472 297.028 210.841C297.028 210.933 297.028 211.025 297.028 211.12C295.551 211.028 294.075 210.936 292.553 210.841C293.113 210.281 293.113 210.281 293.74 210.207Z" fill="#1C3E36"/>
<path d="M429.321 202.731C429.505 202.824 429.69 202.916 429.88 203.011C429.88 203.196 429.88 203.38 429.88 203.57C429.41 203.992 429.41 203.992 428.796 204.444C428.494 204.67 428.494 204.67 428.186 204.901C427.642 205.248 427.642 205.248 427.083 205.248C427.526 204.053 428.343 203.496 429.321 202.731Z" fill="#284942"/>
<path d="M153.828 180.081C155.089 180.73 155.769 181.498 156.625 182.598C155.476 182.193 154.546 181.616 153.548 180.92C153.641 180.644 153.733 180.367 153.828 180.081Z" fill="#D3C7E6"/>
<path d="M450.856 257.818C452.795 257.957 452.795 257.957 454.772 258.098C454.772 258.283 454.772 258.467 454.772 258.657C453.572 258.657 452.372 258.657 451.136 258.657C451.044 258.381 450.952 258.104 450.856 257.818Z" fill="#1B3E36"/>
<path d="M234.378 210.841C234.717 211.859 234.565 212.052 234.116 212.99C234.009 213.216 233.903 213.442 233.793 213.675C233.709 213.847 233.625 214.019 233.539 214.196C233.354 214.196 233.17 214.196 232.979 214.196C233.133 213.097 233.331 212.123 233.819 211.12C234.003 211.028 234.188 210.936 234.378 210.841Z" fill="#1F4039"/>
<path d="M243.048 204.409C243.048 204.686 243.048 204.963 243.048 205.248C242.033 205.34 241.018 205.433 239.972 205.528C240.822 204.252 241.609 204.377 243.048 204.409Z" fill="#344F4D"/>
<path d="M156.345 106.819C156.53 106.819 156.715 106.819 156.905 106.819C156.812 107.834 156.72 108.849 156.625 109.894C156.348 109.802 156.071 109.71 155.786 109.615C155.716 107.762 155.716 107.762 156.345 106.819Z" fill="#36584C"/>
<path d="M116.07 166.939C116.347 167.031 116.624 167.123 116.909 167.219C116.909 167.957 116.909 168.695 116.909 169.456C116.632 169.548 116.356 169.64 116.07 169.735C116.07 168.812 116.07 167.89 116.07 166.939Z" fill="#314D4B"/>
<path d="M261.508 31.3185C261.228 32.1574 261.228 32.1574 260.599 32.4895C259.83 32.7165 259.227 32.7622 258.431 32.7167C259.393 31.659 260.061 31.3185 261.508 31.3185Z" fill="#274740"/>
<path d="M258.431 199.096C258.524 199.281 258.616 199.465 258.711 199.656C257.465 200.071 257.465 200.071 256.194 200.494C256.194 200.125 256.194 199.756 256.194 199.376C257.487 198.782 257.487 198.782 258.431 199.096Z" fill="#33524B"/>
<path d="M460.925 251.946C461.017 252.131 461.109 252.315 461.205 252.506C461.389 252.598 461.574 252.69 461.764 252.785C461.414 253.746 461.414 253.746 460.925 254.743C460.313 255.005 460.313 255.005 459.806 255.022C459.887 254.826 459.968 254.63 460.051 254.428C460.371 253.609 460.653 252.783 460.925 251.946Z" fill="#304E48"/>
<path d="M244.167 218.391C244.259 218.391 244.352 218.391 244.447 218.391C244.447 218.852 244.447 219.314 244.447 219.789C244.631 219.789 244.816 219.789 245.006 219.789C245.006 220.435 245.006 221.081 245.006 221.746C244.729 221.746 244.452 221.746 244.167 221.746C244.167 220.639 244.167 219.532 244.167 218.391Z" fill="#436557"/>
<path d="M245.006 216.433C245.098 216.433 245.191 216.433 245.286 216.433C245.193 217.541 245.101 218.648 245.006 219.789C244.821 219.789 244.637 219.789 244.447 219.789C244.432 219.387 244.421 218.985 244.412 218.583C244.405 218.359 244.399 218.135 244.392 217.905C244.447 217.272 244.447 217.272 245.006 216.433Z" fill="#1A3E34"/>
<path d="M427.362 204.969C427.642 205.528 427.642 205.528 427.486 206.133C427.405 206.36 427.324 206.587 427.24 206.821C427.16 207.05 427.079 207.278 426.996 207.514C426.932 207.689 426.869 207.864 426.803 208.044C426.526 208.044 426.249 208.044 425.964 208.044C426.483 205.608 426.483 205.608 427.362 204.969Z" fill="#1E4038"/>
<path d="M113.553 177.565C114.799 177.842 114.799 177.842 116.07 178.124C115.978 178.401 115.886 178.678 115.79 178.963C114.775 178.778 113.76 178.594 112.714 178.404C112.991 178.311 113.268 178.219 113.553 178.124C113.553 177.94 113.553 177.755 113.553 177.565Z" fill="#35534D"/>
<path d="M371.705 84.1685C371.797 84.3531 371.889 84.5376 371.984 84.7278C370.461 85.0046 370.461 85.0046 368.908 85.287C368.908 85.0102 368.908 84.7334 368.908 84.4481C369.879 84.1244 370.687 84.1493 371.705 84.1685Z" fill="#264841"/>
<path d="M456.17 257.818C456.17 258.003 456.17 258.188 456.17 258.378C455.709 258.47 455.247 258.562 454.772 258.657C454.772 258.473 454.772 258.288 454.772 258.098C453.757 258.098 452.741 258.098 451.695 258.098C451.695 258.006 451.695 257.914 451.695 257.818C452.336 257.764 452.977 257.712 453.618 257.661C454.154 257.617 454.154 257.617 454.7 257.573C455.611 257.539 455.611 257.539 456.17 257.818Z" fill="#59706E"/>
<path d="M477.147 229.296C477.331 229.296 477.516 229.296 477.706 229.296C477.714 229.751 477.719 230.205 477.724 230.659C477.727 230.913 477.73 231.166 477.734 231.426C477.706 232.093 477.706 232.093 477.427 232.652C477.242 232.652 477.057 232.652 476.867 232.652C476.959 231.544 477.052 230.437 477.147 229.296Z" fill="#14382E"/>
<path d="M338.981 138.417C338.701 139.256 338.701 139.256 338.037 139.745C337.303 140.094 337.303 140.094 336.464 139.815C337.817 138.417 337.817 138.417 338.981 138.417Z" fill="#294C44"/>
<path d="M465.959 233.491C465.581 234.247 465.174 234.319 464.404 234.644C464.173 234.743 463.942 234.842 463.703 234.944C463.525 235.018 463.346 235.092 463.163 235.169C463.769 233.481 464.202 233.453 465.959 233.491Z" fill="#1D3F37"/>
<path d="M445.263 223.144C445.447 223.144 445.632 223.144 445.822 223.144C445.857 225.277 445.857 225.277 445.542 226.22C445.358 226.22 445.173 226.22 444.983 226.22C445.075 225.205 445.168 224.19 445.263 223.144Z" fill="#173B32"/>
<path d="M275.492 200.494C275.677 200.587 275.862 200.679 276.052 200.774C275.457 201.428 274.916 201.838 274.094 202.172C273.817 202.172 273.54 202.172 273.255 202.172C273.255 201.988 273.255 201.803 273.255 201.613C273.615 201.418 273.976 201.226 274.339 201.036C274.54 200.929 274.741 200.822 274.948 200.712C275.128 200.64 275.307 200.568 275.492 200.494Z" fill="#1C3D36"/>
<path d="M294.511 202.452C295.07 203.011 295.07 203.011 295.105 203.885C295.094 204.15 295.082 204.416 295.07 204.689C294.794 204.689 294.517 204.689 294.231 204.689C294.139 204.043 294.047 203.397 293.952 202.731C294.136 202.639 294.321 202.547 294.511 202.452Z" fill="#3E5757"/>
<path d="M125.02 171.972C125.482 171.972 125.943 171.972 126.419 171.972C126.419 172.065 126.419 172.157 126.419 172.252C127.065 172.344 127.711 172.436 128.377 172.531C128.377 172.624 128.377 172.716 128.377 172.811C127.177 172.811 125.977 172.811 124.741 172.811C124.833 172.534 124.925 172.257 125.02 171.972Z" fill="#4E6367"/>
<path d="M119.147 241.32C119.239 241.32 119.331 241.32 119.426 241.32C119.519 242.428 119.611 243.535 119.706 244.676C119.429 244.768 119.152 244.86 118.867 244.956C118.775 244.402 118.682 243.848 118.587 243.278C118.68 243.278 118.772 243.278 118.867 243.278C118.959 242.632 119.052 241.986 119.147 241.32Z" fill="#4F6864"/>
<path d="M414.497 226.22C414.114 227.104 413.94 227.337 413.098 227.898C412.821 227.806 412.545 227.714 412.259 227.619C413.553 226.22 413.553 226.22 414.497 226.22Z" fill="#1E4139"/>
<path d="M290.595 210.841C290.595 211.025 290.595 211.21 290.595 211.4C289.768 211.813 288.989 211.696 288.078 211.68C288.808 210.706 289.429 210.763 290.595 210.841Z" fill="#23483C"/>
<path d="M104.883 158.83C105.713 158.922 106.544 159.014 107.4 159.109C107.4 159.294 107.4 159.478 107.4 159.669C106.477 159.576 105.554 159.484 104.603 159.389C104.695 159.204 104.788 159.02 104.883 158.83Z" fill="#1B3E36"/>
<path d="M282.485 273.198C282.205 274.037 282.205 274.037 281.68 274.369C281.086 274.596 281.086 274.596 280.247 274.596C280.339 274.319 280.432 274.043 280.527 273.757C281.207 273.426 281.724 273.198 282.485 273.198Z" fill="#204439"/>
<path d="M305.431 225.081C306.264 225.231 306.264 225.231 307.097 225.381C306.82 225.52 306.82 225.52 306.538 225.661C306.538 225.846 306.538 226.03 306.538 226.22C305.707 226.128 304.876 226.036 304.021 225.941C304.86 225.102 304.86 225.102 305.431 225.081Z" fill="#3D5F53"/>
<path d="M171.169 212.519C171.446 212.611 171.723 212.703 172.008 212.798C171.938 213.462 171.938 213.462 171.728 214.196C171.151 214.563 171.151 214.563 170.609 214.756C170.794 214.017 170.979 213.279 171.169 212.519Z" fill="#405C57"/>
<path d="M78.5923 172.252C78.6846 172.436 78.7769 172.621 78.872 172.811C78.5224 173.667 78.5224 173.667 78.0329 174.489C77.756 174.581 77.4791 174.673 77.1938 174.768C77.4989 173.713 77.7276 172.959 78.5923 172.252Z" fill="#173A32"/>
<path d="M236.703 137.945C236.859 138.008 237.014 138.072 237.175 138.137C235.936 138.997 235.936 138.997 235.13 138.889C234.896 138.793 234.896 138.793 234.658 138.696C235.897 137.836 235.897 137.836 236.703 137.945Z" fill="#1D3F38"/>
<path d="M231.302 230.974C231.486 230.974 231.671 230.974 231.861 230.974C231.953 231.712 232.046 232.451 232.141 233.211C231.864 233.119 231.587 233.027 231.302 232.931C231.302 232.286 231.302 231.64 231.302 230.974Z" fill="#23463A"/>
<path d="M469.595 222.306C470.333 222.398 471.072 222.49 471.833 222.585C471.74 222.862 471.648 223.139 471.553 223.424C470.815 223.24 470.076 223.055 469.315 222.865C469.408 222.68 469.5 222.496 469.595 222.306Z" fill="#1C3E36"/>
<path d="M223.191 119.681C223.375 119.774 223.56 119.866 223.75 119.961C223.658 120.238 223.565 120.515 223.47 120.8C222.754 121.132 222.754 121.132 222.072 121.359C222.072 121.082 222.072 120.806 222.072 120.52C222.631 120.048 222.631 120.048 223.191 119.681Z" fill="#274B3F"/>
<path d="M220.953 111.572C221.138 111.664 221.322 111.757 221.513 111.852C221.156 112.422 220.782 112.981 220.394 113.53C220.209 113.53 220.025 113.53 219.834 113.53C219.992 112.615 220.254 112.18 220.953 111.572Z" fill="#2D5044"/>
<path d="M371.705 84.1685C372.535 84.3069 372.535 84.3069 373.383 84.4481C373.29 84.725 373.198 85.0018 373.103 85.287C372.18 85.1948 371.257 85.1025 370.306 85.0074C370.306 84.9151 370.306 84.8229 370.306 84.7278C370.768 84.6355 371.229 84.5432 371.705 84.4481C371.705 84.3559 371.705 84.2636 371.705 84.1685Z" fill="#40605A"/>
<path d="M258.151 32.1574C258.746 32.4196 258.746 32.4196 259.27 32.7167C258.524 33.0895 257.779 33.4623 257.033 33.8352C257.522 32.472 257.522 32.472 258.151 32.1574Z" fill="#36544E"/>
<path d="M306.538 225.661C307.193 225.733 307.846 225.827 308.495 225.941C308.588 226.125 308.68 226.31 308.775 226.5C307.167 226.535 307.167 226.535 306.538 226.22C306.538 226.036 306.538 225.851 306.538 225.661Z" fill="#1F4238"/>
<path d="M468.197 222.306C468.843 222.253 468.843 222.253 469.595 222.306C469.872 222.582 470.149 222.859 470.434 223.144C469.604 223.144 468.773 223.144 467.917 223.144C468.009 222.868 468.102 222.591 468.197 222.306Z" fill="#3A5751"/>
<path d="M171.169 214.196C171.448 214.756 171.448 214.756 171.186 215.629C171.088 215.895 170.99 216.16 170.889 216.433C170.612 216.433 170.335 216.433 170.05 216.433C170.539 214.825 170.539 214.825 171.169 214.196Z" fill="#21433C"/>
<path d="M172.008 203.291C172.192 203.291 172.377 203.291 172.567 203.291C172.659 204.029 172.752 204.767 172.847 205.528C172.57 205.343 172.293 205.159 172.008 204.969C171.955 204.095 171.955 204.095 172.008 203.291Z" fill="#25443F"/>
<path d="M172.008 201.333C172.416 202.074 172.567 202.422 172.567 203.291C172.382 203.291 172.198 203.291 172.008 203.291C171.915 203.475 171.823 203.66 171.728 203.85C171.553 202.906 171.553 202.906 171.448 201.893C171.633 201.708 171.817 201.524 172.008 201.333Z" fill="#415A5A"/>
<path d="M162.219 190.987C162.82 191.89 162.834 192.185 162.778 193.224C162.593 193.224 162.409 193.224 162.219 193.224C162.034 192.578 161.849 191.932 161.659 191.267C161.844 191.174 162.028 191.082 162.219 190.987Z" fill="#2B4A43"/>
<path d="M76.0751 176.726C76.1674 176.911 76.2597 177.095 76.3548 177.285C76.5394 177.377 76.724 177.47 76.9142 177.565C76.8219 178.026 76.7296 178.488 76.6345 178.963C76.3576 178.963 76.0807 178.963 75.7954 178.963C75.8877 178.225 75.98 177.487 76.0751 176.726Z" fill="#35514F"/>
<path d="M243.328 130.307C243.42 130.307 243.513 130.307 243.608 130.307C243.608 130.769 243.608 131.23 243.608 131.706C243.792 131.706 243.977 131.706 244.167 131.706C243.982 132.167 243.798 132.628 243.608 133.104C243.423 133.011 243.239 132.919 243.048 132.824C243.141 131.994 243.233 131.163 243.328 130.307Z" fill="#3E5757"/>
<path d="M469.596 238.804C469.503 239.081 469.411 239.357 469.316 239.643C468.459 239.975 468.459 239.975 467.638 240.202C468.134 239.104 468.331 238.804 469.596 238.804Z" fill="#2D4D46"/>
<path d="M178.72 217.552C178.997 217.644 179.274 217.736 179.559 217.832C179.467 218.477 179.375 219.123 179.279 219.789C179.003 219.604 178.726 219.42 178.44 219.23C178.533 218.676 178.625 218.122 178.72 217.552Z" fill="#35514F"/>
<path d="M162.778 194.622C163.055 194.714 163.332 194.807 163.617 194.902C163.617 195.363 163.617 195.825 163.617 196.3C163.34 196.3 163.064 196.3 162.778 196.3C162.778 195.746 162.778 195.193 162.778 194.622Z" fill="#32504A"/>
<path d="M225.708 139.815C226.631 139.815 227.554 139.815 228.505 139.815C228.505 139.907 228.505 139.999 228.505 140.094C228.043 140.094 227.582 140.094 227.106 140.094C227.106 140.279 227.106 140.464 227.106 140.654C226.645 140.561 226.183 140.469 225.708 140.374C225.708 140.19 225.708 140.005 225.708 139.815Z" fill="#304D4A"/>
</g>
<defs>
<clipPath id="clip0_697_319">
<rect width="537" height="302" rx="5" fill="white"/>
</clipPath>
</defs>
</svg>
