<svg id="animated-svg-3" width="267" height="294" viewBox="0 0 267 294" fill="none" xmlns="http://www.w3.org/2000/svg">
<path fill-rule="evenodd" clip-rule="evenodd" d="M128.141 251.212L120.945 248.077L107.851 280.717L70.3722 248.738L65.5147 254.374L111.226 293.378L128.141 251.212Z" fill="#51CB59"/>
<path fill-rule="evenodd" clip-rule="evenodd" d="M130.451 75.8766C130.378 56.9889 139.742 33.4487 166.405 6.19674L160.711 0.755812C133.292 28.7813 122.653 54.0102 122.736 75.4807C122.78 86.8982 125.854 97.0503 130.823 105.774C110.79 120.076 93.1809 141.447 86.7229 165.619C78.7574 195.283 83.3043 225.329 89.7223 247.786C92.9391 259.042 96.6473 268.465 99.5559 275.085C101.011 278.396 102.268 281.011 103.167 282.809C103.617 283.707 103.977 284.402 104.228 284.877C104.354 285.115 104.452 285.298 104.52 285.425L104.6 285.571L104.622 285.613L104.629 285.625L104.632 285.629C104.632 285.629 104.633 285.632 107.996 283.956C111.359 282.279 111.359 282.281 111.359 282.281L111.357 282.277L111.344 282.253L111.283 282.141C111.228 282.038 111.142 281.879 111.03 281.666C110.805 281.24 110.472 280.597 110.049 279.753C109.204 278.064 108.005 275.571 106.608 272.392C103.814 266.032 100.24 256.951 97.1398 246.105C90.9251 224.359 86.7026 195.819 94.1895 167.942L94.1907 167.937C100.107 145.792 116.414 125.832 135.109 112.351C138.791 117.332 143.097 121.737 147.748 125.527C161.674 136.873 179.017 142.967 192.686 142.479C199.535 142.235 205.862 140.312 210.203 136.084C214.662 131.742 216.523 125.458 215.335 117.695L215.333 117.684C214.114 109.87 211.401 103.482 207.331 98.5676C203.243 93.6305 197.969 90.4051 192.025 88.6751C180.302 85.2636 166.04 87.6569 152.147 93.6355C147.118 95.7996 142.054 98.4698 137.08 101.585C132.977 94.1102 130.488 85.5048 130.451 75.8766ZM141.309 108.172C146.006 105.22 150.795 102.688 155.557 100.639C168.706 94.9807 181.01 93.2835 190.227 95.9656C194.752 97.2824 198.542 99.6498 201.466 103.181C204.409 106.735 206.657 111.689 207.708 118.421C208.602 124.271 207.147 128.072 204.63 130.524C201.995 133.09 197.686 134.67 191.979 134.874C180.536 135.282 165.086 130.057 152.46 119.769C148.331 116.406 144.539 112.53 141.309 108.172Z" fill="#51CB59"/>
</svg>
