<?xml version="1.0" encoding="utf-8"?>
<!-- Generator: Adobe Illustrator 27.8.1, SVG Export Plug-In . SVG Version: 6.00 Build 0)  -->
<svg version="1.1" id="Capa_1" xmlns="http://www.w3.org/2000/svg" xmlns:xlink="http://www.w3.org/1999/xlink" x="0px" y="0px"
	 viewBox="0 0 470.92 535.86" style="enable-background:new 0 0 470.92 535.86;" xml:space="preserve">
<style type="text/css">
	.st0{fill:#10352B;}
	.st1{fill:#51CB59;}
	.st2{fill:#A8E6A5;}
	.st3{fill:#DECFF1;}
	.st4{fill:#915FD0;}
	.st5{fill:#C8AFE7;}
	.st6{fill:#80D4F1;}
	.st7{fill:#F3F5F4;}
	.st8{fill:#F2E770;}
	.st9{fill:#FFFFFF;}
	.st10{fill:#F2D54C;}
	.st11{fill-rule:evenodd;clip-rule:evenodd;fill:#F2E770;}
	.st12{fill-rule:evenodd;clip-rule:evenodd;fill:#C8AFE7;}
	.st13{fill-rule:evenodd;clip-rule:evenodd;fill:#915FD0;}
	.st14{fill-rule:evenodd;clip-rule:evenodd;fill:#FD6085;}
	.st15{fill-rule:evenodd;clip-rule:evenodd;fill:#DECFF1;}
	.st16{fill:#00A8E3;}
	.st17{fill:#59A57C;}
	.st18{fill:#7ED4A7;}
	.st19{fill:#EDDFCE;}
	.st20{fill:#DBCBB9;}
	.st21{fill:#FDCE5E;}
	.st22{fill-rule:evenodd;clip-rule:evenodd;fill:#A8E6A5;}
	.st23{fill-rule:evenodd;clip-rule:evenodd;fill:#51CB59;}
	.st24{fill-rule:evenodd;clip-rule:evenodd;fill:#EBFDFF;}
	.st25{fill-rule:evenodd;clip-rule:evenodd;fill:#7DB8B5;}
	.st26{fill-rule:evenodd;clip-rule:evenodd;fill:#9CDAD7;}
	.st27{fill-rule:evenodd;clip-rule:evenodd;fill:#007976;}
	.st28{fill-rule:evenodd;clip-rule:evenodd;fill:#2C4B5F;}
	.st29{fill-rule:evenodd;clip-rule:evenodd;fill:#182F3B;}
</style>
<g>
	<polygon class="st0" points="403.05,399.76 360.3,398.05 353.39,398.05 371.81,365.31 383.97,350.68 407.32,302.34 411.62,300.31 
		424.58,327.5 447.11,371.72 460.43,388 466.02,393.92 420.64,401.65 	"/>
	<g>
		<g>
			<path class="st0" d="M352.47,397.61c-0.03,3.7,4.21,1.27,7.4,3.14c3.19,1.87,3.8,0.84,7,2.71c3.19,1.87,1.37,4.98,4.57,6.86
				c3.2,1.87,3.2,1.86,6.4,3.73c3.2,1.87,3.25,1.78,6.45,3.65c3.19,1.87,4.97-1.17,8.17,0.7c3.2,1.87,1.99,3.93,5.19,5.81
				c3.2,1.87,4.38-0.14,7.58,1.73s1.73,5.92,5.44,5.94c3.7,0.03,2.87-3.01,6.09-4.84c3.22-1.83,4.13-0.22,7.36-2.05
				s3.28-1.73,6.5-3.56c3.22-1.83,2.48-3.13,5.7-4.96c3.22-1.83,4.12-0.25,7.34-2.08c3.22-1.83,2.94-2.32,6.16-4.16
				c3.22-1.83,2.82-2.53,6.05-4.37c3.22-1.83,2.33-3.4,5.56-5.24c3.22-1.83,8.07,1.44,8.1-2.27c0.03-3.7-3.11-3.49-6.3-5.36
				c-3.2-1.87-3.26-1.76-6.46-3.63c-3.2-1.87-4.26-0.07-7.45-1.94s-2.95-2.29-6.15-4.16c-3.2-1.87-2.97-2.27-6.16-4.14
				c-3.2-1.87-3.75-0.93-6.94-2.8c-3.2-1.87-3.83-0.79-7.03-2.67c-3.2-1.88-2.87-2.43-6.08-4.31c-3.2-1.88-2.39-3.26-5.6-5.12
				c-0.01-0.01,0.6,1.89,0.59,1.9c-3.21,1.84-4.02,0.42-7.24,2.25c-3.22,1.83-4.13,0.23-7.35,2.06c-3.22,1.83-1.76,4.39-4.98,6.22
				c-3.22,1.83-4.54-0.48-7.75,1.35c-3.22,1.83-1.99,3.98-5.21,5.82c-3.22,1.83-4.45-0.34-7.67,1.49c-3.22,1.83-2.53,3.05-5.75,4.88
				c-3.22,1.83-2.55,3.77-6.13,4.72C355.59,396.04,352.5,393.9,352.47,397.61z"/>
		</g>
		<g>
			<path class="st1" d="M409.72,365.41c1.83,3.22,4.08,1.92,7.28,3.8c3.2,1.87,3.18,1.9,6.38,3.77c3.2,1.87,3.24,1.8,6.44,3.67
				c3.2,1.87,3.3,1.69,6.5,3.57c3.2,1.87,2.73,2.67,5.93,4.54c3.2,1.87,3.94,0.6,7.14,2.47c3.2,1.87,2.79,2.57,5.99,4.44
				c3.2,1.88,3.36,1.6,6.56,3.48c3.2,1.88,4.04,5.98,7.27,4.15c3.22-1.83-1.3-4.66-1.28-8.36c0.02-3.7-0.24-3.7-0.22-7.41
				c0.02-3.7,0.75-3.7,0.77-7.4c0.02-3.7-0.69-3.71-0.67-7.41c0.02-3.7,1.1-3.7,1.12-7.4c0.02-3.71-1.22-3.71-1.2-7.42
				c0.02-3.7,0.12-3.7,0.14-7.41c0.02-3.71,2.62-3.69,2.64-7.4c0.02-3.71,1.24-4.69-0.59-7.91c-1.83-3.22-3.5-2.33-6.69-4.2
				c-3.19-1.87-3.11-2.02-6.3-3.89c-3.19-1.87-4.8,0.87-7.99-1.01c-3.2-1.87-2.57-2.95-5.76-4.82c-3.2-1.87-2.87-2.43-6.06-4.3
				c-3.19-1.87-2.59-2.9-5.79-4.77c-3.2-1.87-3.84-0.77-7.04-2.64c-3.2-1.87-3.97-0.55-7.17-2.43s-2.61-7.43-5.84-5.61
				c-3.22,1.83,0.05,4.16,0.03,7.86c-0.02,3.7,1.45,3.71,1.42,7.41s-3.07,3.68-3.09,7.39c-0.02,3.7-0.02,3.7-0.05,7.41
				c-0.02,3.7,2.88,3.72,2.86,7.43c-0.02,3.7,0.13,3.71,0.11,7.41c-0.02,3.7-1.67,3.69-1.7,7.4c-0.02,3.71,0.1,3.53-0.86,7.11
				C408.87,361.11,407.89,362.19,409.72,365.41z"/>
		</g>
	</g>
	<g>
		<path class="st2" d="M353.94,396.24c3.19,1.88,2.78,0.2,6-1.63c3.22-1.83,1.86-4.22,5.08-6.05c3.22-1.83,4.38,0.21,7.6-1.62
			c3.22-1.83,2.35-3.35,5.57-5.18c3.22-1.83,3.89-0.65,7.11-2.48c3.22-1.83,3.17-1.92,6.39-3.75c3.22-1.83,2.34-3.38,5.56-5.21
			c3.22-1.83,4.16-0.19,7.38-2.02c3.22-1.83,3.28-1.73,6.5-3.56c0.01-0.01,0.87-0.08,0.87-0.09c0.03-3.7,0.98-3.7,1.01-7.4
			c0.02-3.7-1.19-3.71-1.16-7.41c0.02-3.7,2.52-4.16,2.55-7.86c0.02-3.7,2.53-3.69,2.55-7.39c0.02-3.7-4.81-3.26-4.79-6.97
			c0.02-3.7-2.36-3.72-2.33-7.42c0.02-3.7,3.5-3.68,3.52-7.39c0.02-3.71-0.95-3.79-0.92-7.5c0.02-3.71,1.38-3.89-1.82-5.77
			c-3.19-1.87-1.87,1.01-5.09,2.84c-3.22,1.83-2.96,2.29-6.18,4.12c-3.22,1.83-4.65-0.68-7.87,1.15c-3.22,1.83-2.47,3.15-5.69,4.98
			c-3.22,1.83-3.05,2.13-6.27,3.96c-3.22,1.83-3.98,0.49-7.2,2.32c-3.22,1.83-2.1,3.81-5.32,5.64c-3.22,1.83-4.68-0.73-7.9,1.1
			s-3.81,1.99-5.69,5.19c-1.87,3.19-0.14,3.8-0.17,7.5c-0.02,3.7-1.32,3.7-1.34,7.4c-0.02,3.7,1.95,3.72,1.93,7.42
			c-0.02,3.7,1.46,3.71,1.44,7.42c-0.02,3.7-0.8,3.7-0.82,7.4c-0.02,3.71,0.83,3.71,0.8,7.42c-0.02,3.7-1.48,3.7-1.51,7.4
			c-0.02,3.71-1.27,3.47-2.05,7.09C350.98,393.21,350.75,394.36,353.94,396.24z"/>
	</g>
	<polygon class="st0" points="403.05,202.95 360.3,201.24 353.39,201.24 371.81,168.5 383.97,153.87 407.32,105.53 411.62,103.5 
		424.58,130.69 447.11,174.92 460.43,191.19 466.02,197.11 420.64,204.84 	"/>
	<g>
		<g>
			<path class="st0" d="M352.47,200.8c-0.03,3.7,4.21,1.27,7.4,3.14c3.19,1.87,3.8,0.84,7,2.71c3.19,1.87,1.37,4.98,4.57,6.86
				c3.2,1.87,3.2,1.86,6.4,3.73c3.2,1.87,3.25,1.78,6.45,3.65c3.19,1.87,4.97-1.17,8.17,0.7c3.2,1.87,1.99,3.93,5.19,5.81
				c3.2,1.87,4.38-0.14,7.58,1.73c3.2,1.87,1.73,5.92,5.44,5.94c3.7,0.03,2.87-3.01,6.09-4.84c3.22-1.83,4.13-0.22,7.36-2.05
				s3.28-1.73,6.5-3.56c3.22-1.83,2.48-3.13,5.7-4.96c3.22-1.83,4.12-0.25,7.34-2.08c3.22-1.83,2.94-2.32,6.16-4.16
				c3.22-1.83,2.82-2.53,6.05-4.37c3.22-1.83,2.33-3.4,5.56-5.24c3.22-1.83,8.07,1.44,8.1-2.27c0.03-3.7-3.11-3.49-6.3-5.36
				c-3.2-1.87-3.26-1.76-6.46-3.63c-3.2-1.87-4.26-0.07-7.45-1.94c-3.2-1.87-2.95-2.29-6.15-4.16c-3.2-1.87-2.97-2.27-6.16-4.14
				c-3.2-1.87-3.75-0.93-6.94-2.8c-3.2-1.87-3.83-0.79-7.03-2.67c-3.2-1.88-2.87-2.43-6.08-4.31c-3.2-1.88-2.39-3.26-5.6-5.12
				c-0.01-0.01,0.6,1.89,0.59,1.9c-3.21,1.84-4.02,0.42-7.24,2.25c-3.22,1.83-4.13,0.23-7.35,2.06c-3.22,1.83-1.76,4.39-4.98,6.22
				c-3.22,1.83-4.54-0.48-7.75,1.35c-3.22,1.83-1.99,3.98-5.21,5.82c-3.22,1.83-4.45-0.34-7.67,1.49c-3.22,1.83-2.53,3.05-5.75,4.88
				c-3.22,1.83-2.55,3.77-6.13,4.72C355.59,199.23,352.5,197.09,352.47,200.8z"/>
		</g>
		<g>
			<path class="st2" d="M409.72,168.6c1.83,3.22,4.08,1.92,7.28,3.8c3.2,1.87,3.18,1.9,6.38,3.77c3.2,1.87,3.24,1.8,6.44,3.67
				c3.2,1.87,3.3,1.69,6.5,3.57c3.2,1.87,2.73,2.67,5.93,4.54c3.2,1.87,3.94,0.6,7.14,2.47c3.2,1.87,2.79,2.57,5.99,4.44
				c3.2,1.88,3.36,1.6,6.56,3.48c3.2,1.88,4.04,5.98,7.27,4.15c3.22-1.83-1.3-4.66-1.28-8.36c0.02-3.7-0.24-3.7-0.22-7.41
				c0.02-3.7,0.75-3.7,0.77-7.4c0.02-3.7-0.69-3.71-0.67-7.41c0.02-3.7,1.1-3.7,1.12-7.4c0.02-3.71-1.22-3.71-1.2-7.42
				c0.02-3.7,0.12-3.7,0.14-7.41c0.02-3.71,2.62-3.69,2.64-7.4c0.02-3.71,1.24-4.69-0.59-7.91c-1.83-3.22-3.5-2.33-6.69-4.2
				c-3.19-1.87-3.11-2.02-6.3-3.89s-4.8,0.87-7.99-1.01c-3.2-1.87-2.57-2.95-5.76-4.82c-3.2-1.87-2.87-2.43-6.06-4.3
				c-3.19-1.87-2.59-2.9-5.79-4.77c-3.2-1.87-3.84-0.77-7.04-2.64c-3.2-1.87-3.97-0.55-7.17-2.43c-3.2-1.87-2.61-7.43-5.84-5.61
				c-3.22,1.83,0.05,4.16,0.03,7.86c-0.02,3.7,1.45,3.71,1.42,7.41c-0.02,3.7-3.07,3.68-3.09,7.39c-0.02,3.7-0.02,3.7-0.05,7.41
				c-0.02,3.7,2.88,3.72,2.86,7.43c-0.02,3.7,0.13,3.71,0.11,7.41c-0.02,3.7-1.67,3.69-1.7,7.4c-0.02,3.71,0.1,3.53-0.86,7.11
				C408.87,164.3,407.89,165.38,409.72,168.6z"/>
		</g>
	</g>
	<g>
		<path class="st1" d="M353.94,199.43c3.19,1.88,2.78,0.2,6-1.63c3.22-1.83,1.86-4.22,5.08-6.05c3.22-1.83,4.38,0.21,7.6-1.62
			c3.22-1.83,2.35-3.35,5.57-5.18c3.22-1.83,3.89-0.65,7.11-2.48c3.22-1.83,3.17-1.92,6.39-3.75c3.22-1.83,2.34-3.38,5.56-5.21
			c3.22-1.83,4.16-0.19,7.38-2.02c3.22-1.83,3.28-1.73,6.5-3.56c0.01-0.01,0.87-0.08,0.87-0.09c0.03-3.7,0.98-3.7,1.01-7.4
			c0.02-3.7-1.19-3.71-1.16-7.41c0.02-3.7,2.52-4.16,2.55-7.86c0.02-3.7,2.53-3.69,2.55-7.39c0.02-3.7-4.81-3.26-4.79-6.97
			c0.02-3.7-2.36-3.72-2.33-7.42c0.02-3.7,3.5-3.68,3.52-7.39c0.02-3.71-0.95-3.79-0.92-7.5c0.02-3.71,1.38-3.89-1.82-5.77
			c-3.19-1.87-1.87,1.01-5.09,2.84c-3.22,1.83-2.96,2.29-6.18,4.12c-3.22,1.83-4.65-0.68-7.87,1.15c-3.22,1.83-2.47,3.15-5.69,4.98
			c-3.22,1.83-3.05,2.13-6.27,3.96c-3.22,1.83-3.98,0.49-7.2,2.32c-3.22,1.83-2.1,3.81-5.32,5.64c-3.22,1.83-4.68-0.73-7.9,1.1
			s-3.81,1.99-5.69,5.19c-1.87,3.19-0.14,3.8-0.17,7.5c-0.02,3.7-1.32,3.7-1.34,7.4c-0.02,3.7,1.95,3.72,1.93,7.42
			c-0.02,3.7,1.46,3.71,1.44,7.42c-0.02,3.7-0.8,3.7-0.82,7.4c-0.02,3.71,0.83,3.71,0.8,7.42c-0.02,3.71-1.48,3.7-1.51,7.4
			c-0.02,3.71-1.27,3.47-2.05,7.09C350.98,196.4,350.75,197.55,353.94,199.43z"/>
	</g>
	<polygon class="st2" points="230.51,102.62 187.76,100.91 180.86,100.91 199.27,68.17 211.44,53.54 234.79,5.2 239.09,3.17 
		252.05,30.35 274.57,74.58 287.89,90.86 293.48,96.78 248.1,104.5 	"/>
	<g>
		<g>
			<path class="st2" d="M179.94,100.47c-0.03,3.7,4.21,1.27,7.4,3.14c3.19,1.87,3.8,0.84,7,2.71c3.19,1.87,1.37,4.98,4.57,6.86
				c3.2,1.87,3.2,1.86,6.4,3.73c3.2,1.87,3.25,1.78,6.45,3.65c3.19,1.87,4.97-1.17,8.17,0.7c3.2,1.87,1.99,3.93,5.19,5.81
				c3.2,1.87,4.38-0.14,7.58,1.73c3.2,1.87,1.73,5.92,5.44,5.94c3.7,0.03,2.87-3.01,6.09-4.84c3.22-1.83,4.13-0.22,7.36-2.05
				c3.22-1.83,3.28-1.73,6.5-3.56c3.22-1.83,2.48-3.13,5.7-4.96c3.22-1.83,4.12-0.25,7.34-2.08c3.22-1.83,2.94-2.32,6.16-4.16
				c3.22-1.83,2.82-2.53,6.05-4.37c3.22-1.83,2.33-3.4,5.56-5.24c3.22-1.83,8.07,1.44,8.1-2.27c0.03-3.7-3.11-3.49-6.3-5.36
				c-3.2-1.87-3.26-1.76-6.46-3.63c-3.2-1.87-4.26-0.07-7.45-1.94c-3.2-1.87-2.95-2.29-6.15-4.16c-3.2-1.87-2.97-2.27-6.16-4.14
				c-3.2-1.87-3.75-0.93-6.94-2.8c-3.2-1.87-2.45-5.09-5.64-6.96c-3.2-1.88-2.25-2.49-5.45-4.36c-3.2-1.88-4.4,1.09-7.61-0.77
				c-0.01-0.01,0.6,1.89,0.59,1.9c-3.21,1.84-4.02,0.42-7.24,2.25c-3.22,1.83-4.13,0.23-7.35,2.06s-1.76,4.39-4.98,6.22
				c-3.22,1.83-4.54-0.48-7.75,1.35c-3.22,1.83-1.99,3.98-5.21,5.82c-3.22,1.83-4.45-0.34-7.67,1.49c-3.22,1.83-2.53,3.05-5.75,4.88
				c-3.22,1.83-2.55,3.77-6.13,4.72C183.06,98.9,179.97,96.76,179.94,100.47z"/>
		</g>
		<g>
			<path class="st0" d="M237.18,68.27c1.83,3.22,4.08,1.92,7.28,3.8c3.2,1.87,3.18,1.9,6.38,3.77s3.24,1.8,6.44,3.67
				c3.2,1.87,3.3,1.69,6.5,3.57c3.2,1.87,2.73,2.67,5.93,4.54c3.2,1.87,3.94,0.6,7.14,2.47c3.2,1.87,2.79,2.57,5.99,4.44
				c3.2,1.88,3.36,1.6,6.56,3.48c3.2,1.88,4.04,5.98,7.27,4.15c3.22-1.83-1.3-4.66-1.28-8.36c0.02-3.7-0.24-3.7-0.22-7.41
				c0.02-3.7,0.75-3.7,0.77-7.4c0.02-3.7-0.69-3.71-0.67-7.41c0.02-3.7,1.1-3.7,1.12-7.4c0.02-3.71-1.22-3.71-1.2-7.42
				c0.02-3.7,0.12-3.7,0.14-7.41c0.02-3.71,2.62-3.69,2.64-7.4s1.24-4.69-0.59-7.91c-1.83-3.22-3.5-2.33-6.69-4.2
				c-3.19-1.87-3.11-2.02-6.3-3.89c-3.19-1.87-4.8,0.87-7.99-1.01c-3.2-1.87-2.57-2.95-5.76-4.82c-3.2-1.87-2.87-2.43-6.06-4.3
				c-3.19-1.87-2.59-2.9-5.79-4.77c-3.2-1.87-3.84-0.77-7.04-2.64c-3.2-1.87-3.97-0.55-7.17-2.43c-3.2-1.87-2.61-7.43-5.84-5.61
				c-3.22,1.83,0.05,4.16,0.03,7.86c-0.02,3.7,1.45,3.71,1.42,7.41c-0.02,3.7-3.07,3.68-3.09,7.39c-0.02,3.7-0.02,3.7-0.05,7.41
				c-0.02,3.7,2.88,3.72,2.86,7.43c-0.02,3.7,0.13,3.71,0.11,7.41c-0.02,3.7-1.67,3.69-1.7,7.4c-0.02,3.71,0.1,3.53-0.86,7.11
				C236.33,63.97,235.35,65.05,237.18,68.27z"/>
		</g>
	</g>
	<g>
		<path class="st1" d="M181.41,99.1c3.19,1.88,2.78,0.2,6-1.63c3.22-1.83,1.86-4.22,5.08-6.05s4.38,0.21,7.6-1.62
			c3.22-1.83,2.35-3.35,5.57-5.18c3.22-1.83,3.89-0.65,7.11-2.48c3.22-1.83,3.17-1.92,6.39-3.75c3.22-1.83,2.34-3.38,5.56-5.21
			c3.22-1.83,4.16-0.19,7.38-2.02s3.28-1.73,6.5-3.56c0.01-0.01,0.87-0.08,0.87-0.09c0.03-3.7,0.98-3.7,1.01-7.4
			c0.02-3.7-1.19-3.71-1.16-7.41c0.02-3.7,2.52-4.16,2.55-7.86c0.02-3.7,2.53-3.69,2.55-7.39c0.02-3.7-4.81-3.26-4.79-6.97
			c0.02-3.7-2.36-3.72-2.33-7.42c0.02-3.7,3.5-3.68,3.52-7.39c0.02-3.71-0.95-3.79-0.92-7.5s1.38-3.89-1.82-5.77
			c-3.19-1.87-1.87,1.01-5.09,2.84c-3.22,1.83-2.96,2.29-6.18,4.12c-3.22,1.83-4.65-0.68-7.87,1.15c-3.22,1.83-2.47,3.15-5.69,4.98
			c-3.22,1.83-3.05,2.13-6.27,3.96c-3.22,1.83-3.98,0.49-7.2,2.32c-3.22,1.83-2.1,3.81-5.32,5.64c-3.22,1.83-4.68-0.73-7.9,1.1
			s-3.81,1.99-5.69,5.19c-1.87,3.19-0.14,3.8-0.17,7.5c-0.02,3.7-1.32,3.7-1.34,7.4c-0.02,3.7,1.95,3.72,1.93,7.42
			c-0.02,3.7,1.46,3.71,1.44,7.42c-0.02,3.7-0.8,3.7-0.82,7.4c-0.02,3.71,0.83,3.71,0.8,7.42c-0.02,3.71-1.48,3.7-1.51,7.4
			c-0.02,3.71-1.27,3.47-2.05,7.09C178.44,96.07,178.21,97.22,181.41,99.1z"/>
	</g>
	<polygon class="st2" points="67.87,126.29 110.62,128 117.53,128 99.11,160.74 86.94,175.37 63.6,223.71 59.3,225.74 46.34,198.55 
		23.81,154.33 10.49,138.05 4.9,132.13 50.28,124.41 	"/>
	<g>
		<g>
			<path class="st2" d="M118.45,128.44c0.03-3.7-4.21-1.27-7.4-3.14c-3.19-1.87-3.8-0.84-7-2.71c-3.19-1.87-1.37-4.98-4.57-6.86
				c-3.2-1.87-3.2-1.86-6.4-3.73c-3.2-1.87-3.25-1.78-6.45-3.65c-3.19-1.87-4.97,1.17-8.17-0.7c-3.2-1.87-1.99-3.93-5.19-5.81
				c-3.2-1.87-4.38,0.14-7.58-1.73s-1.73-5.92-5.44-5.94c-3.7-0.03-2.87,3.01-6.09,4.84c-3.22,1.83-4.13,0.22-7.36,2.05
				c-3.22,1.83-3.28,1.73-6.5,3.56c-3.22,1.83-2.48,3.13-5.7,4.96c-3.22,1.83-4.12,0.25-7.34,2.08c-3.22,1.83-2.94,2.32-6.16,4.16
				c-3.22,1.83-2.82,2.53-6.05,4.37c-3.22,1.83-2.33,3.4-5.56,5.24c-3.22,1.83-8.07-1.44-8.1,2.27c-0.03,3.7,3.11,3.49,6.3,5.36
				c3.2,1.87,3.26,1.76,6.46,3.63c3.2,1.87,4.26,0.07,7.45,1.94c3.2,1.87,2.95,2.29,6.15,4.16c3.2,1.87,2.97,2.27,6.16,4.14
				c3.2,1.87,3.75,0.93,6.94,2.8c3.2,1.87,2.45,5.09,5.64,6.96c3.2,1.88,2.25,2.49,5.45,4.36s4.4-1.09,7.61,0.77
				c0.01,0.01-0.6-1.89-0.59-1.9c3.21-1.84,4.02-0.42,7.24-2.25c3.22-1.83,4.13-0.23,7.35-2.06c3.22-1.83,1.76-4.39,4.98-6.22
				c3.22-1.83,4.54,0.48,7.75-1.35c3.22-1.83,1.99-3.98,5.21-5.82c3.22-1.83,4.45,0.34,7.67-1.49c3.22-1.83,2.53-3.05,5.75-4.88
				c3.22-1.83,2.55-3.77,6.13-4.72C115.32,130.01,118.42,132.15,118.45,128.44z"/>
		</g>
		<g>
			<path class="st0" d="M61.2,160.64c-1.83-3.22-4.08-1.92-7.28-3.8c-3.2-1.87-3.18-1.9-6.38-3.77c-3.2-1.87-3.24-1.8-6.44-3.67
				c-3.2-1.87-3.3-1.69-6.5-3.57c-3.2-1.87-2.73-2.67-5.93-4.54c-3.2-1.87-3.94-0.6-7.14-2.47c-3.2-1.87-2.79-2.57-5.99-4.44
				c-3.2-1.88-3.36-1.6-6.56-3.48c-3.2-1.88-4.04-5.98-7.27-4.15c-3.22,1.83,1.3,4.66,1.28,8.36c-0.02,3.7,0.24,3.7,0.22,7.41
				s-0.75,3.7-0.77,7.4c-0.02,3.7,0.69,3.71,0.67,7.41c-0.02,3.7-1.1,3.7-1.12,7.4c-0.02,3.71,1.22,3.71,1.2,7.42
				c-0.02,3.7-0.12,3.7-0.14,7.41c-0.02,3.71-2.62,3.69-2.64,7.4c-0.02,3.71-1.24,4.69,0.59,7.91c1.83,3.22,3.5,2.33,6.69,4.2
				c3.19,1.87,3.11,2.02,6.3,3.89c3.19,1.87,4.8-0.87,7.99,1.01c3.2,1.87,2.57,2.95,5.76,4.82c3.2,1.87,2.87,2.43,6.06,4.3
				c3.19,1.87,2.59,2.9,5.79,4.77c3.2,1.87,3.84,0.77,7.04,2.64c3.2,1.87,3.97,0.55,7.17,2.43c3.2,1.87,2.61,7.43,5.84,5.61
				c3.22-1.83-0.05-4.16-0.03-7.86c0.02-3.7-1.45-3.71-1.42-7.41c0.02-3.7,3.07-3.68,3.09-7.39c0.02-3.7,0.02-3.7,0.05-7.41
				c0.02-3.7-2.88-3.72-2.86-7.43c0.02-3.7-0.13-3.71-0.11-7.41c0.02-3.7,1.67-3.69,1.7-7.4c0.02-3.71-0.1-3.53,0.86-7.11
				C62.05,164.94,63.03,163.86,61.2,160.64z"/>
		</g>
	</g>
	<g>
		<path class="st1" d="M116.98,129.81c-3.19-1.88-2.78-0.2-6,1.63c-3.22,1.83-1.86,4.22-5.08,6.05c-3.22,1.83-4.38-0.21-7.6,1.62
			c-3.22,1.83-2.35,3.35-5.57,5.18c-3.22,1.83-3.89,0.65-7.11,2.48c-3.22,1.83-3.17,1.92-6.39,3.75c-3.22,1.83-2.34,3.38-5.56,5.21
			c-3.22,1.83-4.16,0.19-7.38,2.02c-3.22,1.83-3.28,1.73-6.5,3.56c-0.01,0.01-0.87,0.08-0.87,0.09c-0.03,3.7-0.98,3.7-1.01,7.4
			c-0.02,3.7,1.19,3.71,1.16,7.41c-0.02,3.7-2.52,4.16-2.55,7.86c-0.02,3.7-2.53,3.69-2.55,7.39c-0.02,3.7,4.81,3.26,4.79,6.97
			c-0.02,3.7,2.36,3.72,2.33,7.42c-0.02,3.7-3.5,3.68-3.52,7.39c-0.02,3.71,0.95,3.79,0.92,7.5c-0.02,3.71-1.38,3.89,1.82,5.77
			c3.19,1.87,1.87-1.01,5.09-2.84c3.22-1.83,2.96-2.29,6.18-4.12c3.22-1.83,4.65,0.68,7.87-1.15c3.22-1.83,2.47-3.15,5.69-4.98
			c3.22-1.83,3.05-2.13,6.27-3.96c3.22-1.83,3.98-0.49,7.2-2.32c3.22-1.83,2.1-3.81,5.32-5.64c3.22-1.83,4.68,0.73,7.9-1.1
			c3.22-1.83,3.81-1.99,5.69-5.19c1.87-3.19,0.14-3.8,0.17-7.5c0.02-3.7,1.32-3.7,1.34-7.4c0.02-3.7-1.95-3.72-1.93-7.42
			c0.02-3.7-1.46-3.71-1.44-7.42c0.02-3.7,0.8-3.7,0.82-7.4c0.02-3.71-0.83-3.71-0.8-7.42c0.02-3.71,1.48-3.7,1.51-7.4
			c0.02-3.71,1.27-3.47,2.05-7.09C119.94,132.84,120.17,131.69,116.98,129.81z"/>
	</g>
	<polygon class="st2" points="67.87,334.45 110.62,336.16 117.53,336.16 99.11,368.9 86.94,383.53 63.6,431.87 59.3,433.9 
		46.34,406.71 23.81,362.49 10.49,346.21 4.9,340.29 50.28,332.56 	"/>
	<g>
		<g>
			<path class="st1" d="M118.45,336.6c0.03-3.7-4.21-1.27-7.4-3.14c-3.19-1.87-3.8-0.84-7-2.71c-3.19-1.87-1.37-4.98-4.57-6.86
				c-3.2-1.87-3.2-1.86-6.4-3.73c-3.2-1.87-3.25-1.78-6.45-3.65c-3.19-1.87-4.97,1.17-8.17-0.7c-3.2-1.87-1.99-3.93-5.19-5.81
				c-3.2-1.87-4.38,0.14-7.58-1.73c-3.2-1.87-1.73-5.92-5.44-5.94c-3.7-0.03-2.87,3.01-6.09,4.84c-3.22,1.83-4.13,0.22-7.36,2.05
				c-3.22,1.83-3.28,1.73-6.5,3.56c-3.22,1.83-2.48,3.13-5.7,4.96c-3.22,1.83-4.12,0.25-7.34,2.08c-3.22,1.83-2.94,2.32-6.16,4.16
				c-3.22,1.83-2.82,2.53-6.05,4.37c-3.22,1.83-2.33,3.4-5.56,5.24c-3.22,1.83-8.07-1.44-8.1,2.27c-0.03,3.7,3.11,3.49,6.3,5.36
				c3.2,1.87,3.26,1.76,6.46,3.63c3.2,1.87,4.26,0.07,7.45,1.94c3.2,1.87,2.95,2.29,6.15,4.16c3.2,1.87,2.97,2.27,6.16,4.14
				c3.2,1.87,3.75,0.93,6.94,2.8c3.2,1.87,2.45,5.09,5.64,6.96c3.2,1.88,2.25,2.49,5.45,4.36c3.2,1.88,4.4-1.09,7.61,0.77
				c0.01,0.01-0.6-1.89-0.59-1.9c3.21-1.84,4.02-0.42,7.24-2.25c3.22-1.83,4.13-0.23,7.35-2.06c3.22-1.83,1.76-4.39,4.98-6.22
				c3.22-1.83,4.54,0.48,7.75-1.35c3.22-1.83,1.99-3.98,5.21-5.82c3.22-1.83,4.45,0.34,7.67-1.49c3.22-1.83,2.53-3.05,5.75-4.88
				c3.22-1.83,2.55-3.77,6.13-4.72C115.32,338.17,118.42,340.31,118.45,336.6z"/>
		</g>
		<g>
			<path class="st0" d="M61.2,368.8c-1.83-3.22-4.08-1.92-7.28-3.8c-3.2-1.87-3.18-1.9-6.38-3.77c-3.2-1.87-3.24-1.8-6.44-3.67
				c-3.2-1.87-3.3-1.69-6.5-3.57c-3.2-1.87-2.73-2.67-5.93-4.54c-3.2-1.87-3.94-0.6-7.14-2.47c-3.2-1.87-2.79-2.57-5.99-4.44
				c-3.2-1.88-3.36-1.6-6.56-3.48s-4.04-5.98-7.27-4.15c-3.22,1.83,1.3,4.66,1.28,8.36c-0.02,3.7,0.24,3.7,0.22,7.41
				s-0.75,3.7-0.77,7.4c-0.02,3.7,0.69,3.71,0.67,7.41c-0.02,3.7-1.1,3.7-1.12,7.4c-0.02,3.71,1.22,3.71,1.2,7.42
				c-0.02,3.7-0.12,3.7-0.14,7.41c-0.02,3.71-2.62,3.69-2.64,7.4c-0.02,3.71-1.24,4.69,0.59,7.91c1.83,3.22,3.5,2.33,6.69,4.2
				c3.19,1.87,3.11,2.02,6.3,3.89c3.19,1.87,4.8-0.87,7.99,1.01c3.2,1.87,2.57,2.95,5.76,4.82c3.2,1.87,2.87,2.43,6.06,4.3
				c3.19,1.87,2.59,2.9,5.79,4.77c3.2,1.87,3.84,0.77,7.04,2.64c3.2,1.87,3.97,0.55,7.17,2.43s2.61,7.43,5.84,5.61
				c3.22-1.83-0.05-4.16-0.03-7.86c0.02-3.7-1.45-3.71-1.42-7.41c0.02-3.7,3.07-3.68,3.09-7.39c0.02-3.7,0.02-3.7,0.05-7.41
				c0.02-3.7-2.88-3.72-2.86-7.43c0.02-3.7-0.13-3.71-0.11-7.41c0.02-3.7,1.67-3.69,1.7-7.4c0.02-3.71-0.1-3.53,0.86-7.11
				C62.05,373.1,63.03,372.02,61.2,368.8z"/>
		</g>
	</g>
	<g>
		<path class="st2" d="M116.98,337.97c-3.19-1.88-2.78-0.2-6,1.63c-3.22,1.83-1.86,4.22-5.08,6.05c-3.22,1.83-4.38-0.21-7.6,1.62
			c-3.22,1.83-2.35,3.35-5.57,5.18c-3.22,1.83-3.89,0.65-7.11,2.48c-3.22,1.83-3.17,1.92-6.39,3.75c-3.22,1.83-2.34,3.38-5.56,5.21
			c-3.22,1.83-4.16,0.19-7.38,2.02s-3.28,1.73-6.5,3.56c-0.01,0.01-0.87,0.08-0.87,0.09c-0.03,3.7-0.98,3.7-1.01,7.4
			c-0.02,3.7,1.19,3.71,1.16,7.41c-0.02,3.7-2.52,4.16-2.55,7.86c-0.02,3.7-2.53,3.69-2.55,7.39c-0.02,3.7,4.81,3.26,4.79,6.97
			c-0.02,3.7,2.36,3.72,2.33,7.42c-0.02,3.7-3.5,3.68-3.52,7.39c-0.02,3.71,0.95,3.79,0.92,7.5c-0.02,3.71-1.38,3.89,1.82,5.77
			c3.19,1.87,1.87-1.01,5.09-2.84c3.22-1.83,2.96-2.29,6.18-4.12c3.22-1.83,4.65,0.68,7.87-1.15c3.22-1.83,2.47-3.15,5.69-4.98
			c3.22-1.83,3.05-2.13,6.27-3.96c3.22-1.83,3.98-0.49,7.2-2.32c3.22-1.83,2.1-3.81,5.32-5.64c3.22-1.83,4.68,0.73,7.9-1.1
			c3.22-1.83,3.81-1.99,5.69-5.19c1.87-3.19,0.14-3.8,0.17-7.5c0.02-3.7,1.32-3.7,1.34-7.4c0.02-3.7-1.95-3.72-1.93-7.42
			c0.02-3.7-1.46-3.71-1.44-7.42c0.02-3.7,0.8-3.7,0.82-7.4c0.02-3.71-0.83-3.71-0.8-7.42c0.02-3.71,1.48-3.7,1.51-7.4
			c0.02-3.71,1.27-3.47,2.05-7.09C119.94,341,120.17,339.85,116.98,337.97z"/>
	</g>
	<polygon class="st2" points="244.2,232.96 286.95,234.66 293.85,234.66 275.44,267.4 263.27,282.04 239.93,330.37 235.62,332.4 
		222.66,305.22 200.14,260.99 186.82,244.71 181.23,238.8 226.61,231.07 	"/>
	<g>
		<g>
			<path class="st3" d="M294.77,235.1c0.03-3.7-4.21-1.27-7.4-3.14c-3.19-1.87-3.8-0.84-7-2.71c-3.19-1.87-1.37-4.98-4.57-6.86
				c-3.2-1.87-3.2-1.86-6.4-3.73c-3.2-1.87-3.25-1.78-6.45-3.65c-3.19-1.87-4.97,1.17-8.17-0.7c-3.2-1.87-1.99-3.93-5.19-5.81
				c-3.2-1.87-4.38,0.14-7.58-1.73c-3.2-1.87-1.73-5.92-5.44-5.94c-3.7-0.03-2.87,3.01-6.09,4.84c-3.22,1.83-4.13,0.22-7.36,2.05
				s-3.28,1.73-6.5,3.56c-3.22,1.83-2.48,3.13-5.7,4.96c-3.22,1.83-4.12,0.25-7.34,2.08c-3.22,1.83-2.94,2.32-6.16,4.16
				c-3.22,1.83-2.82,2.53-6.05,4.37c-3.22,1.83-2.33,3.4-5.56,5.24c-3.22,1.83-8.07-1.44-8.1,2.27c-0.03,3.7,3.11,3.49,6.3,5.36
				c3.2,1.87,3.26,1.76,6.46,3.63c3.2,1.87,4.26,0.07,7.45,1.94c3.2,1.87,2.95,2.29,6.15,4.16c3.2,1.87,2.97,2.27,6.16,4.14
				c3.2,1.87,3.75,0.93,6.94,2.8c3.2,1.87,2.45,5.09,5.64,6.96c3.2,1.88,2.25,2.49,5.45,4.36c3.2,1.88,4.4-1.09,7.61,0.77
				c0.01,0.01-0.6-1.89-0.59-1.9c3.21-1.84,4.02-0.42,7.24-2.25c3.22-1.83,4.13-0.23,7.35-2.06c3.22-1.83,1.76-4.39,4.98-6.22
				c3.22-1.83,4.54,0.48,7.75-1.35c3.22-1.83,1.99-3.98,5.21-5.82c3.22-1.83,4.45,0.34,7.67-1.49c3.22-1.83,2.53-3.05,5.75-4.88
				c3.22-1.83,2.55-3.77,6.13-4.72C291.65,236.68,294.74,238.81,294.77,235.1z"/>
		</g>
		<g>
			<path class="st4" d="M237.53,267.3c-1.83-3.22-4.08-1.92-7.28-3.8c-3.2-1.87-3.18-1.9-6.38-3.77c-3.2-1.87-3.24-1.8-6.44-3.67
				c-3.2-1.87-3.3-1.69-6.5-3.57c-3.2-1.87-2.73-2.67-5.93-4.54c-3.2-1.87-3.94-0.6-7.14-2.47c-3.2-1.87-2.79-2.57-5.99-4.44
				c-3.2-1.88-3.36-1.6-6.56-3.48c-3.2-1.88-4.04-5.98-7.27-4.15c-3.22,1.83,1.3,4.66,1.28,8.36c-0.02,3.7,0.24,3.7,0.22,7.41
				c-0.02,3.7-0.75,3.7-0.77,7.4c-0.02,3.7,0.69,3.71,0.67,7.41c-0.02,3.7-1.1,3.7-1.12,7.4c-0.02,3.71,1.22,3.71,1.2,7.42
				c-0.02,3.7-0.12,3.7-0.14,7.41c-0.02,3.71-2.62,3.69-2.64,7.4c-0.02,3.71-1.24,4.69,0.59,7.91c1.83,3.22,3.5,2.33,6.69,4.2
				c3.19,1.87,3.11,2.02,6.3,3.89c3.19,1.87,4.8-0.87,7.99,1.01c3.2,1.87,2.57,2.95,5.76,4.82c3.2,1.87,2.87,2.43,6.06,4.3
				c3.19,1.87,2.59,2.9,5.79,4.77c3.2,1.87,3.84,0.77,7.04,2.64c3.2,1.87,3.97,0.55,7.17,2.43c3.2,1.87,2.61,7.43,5.84,5.61
				c3.22-1.83-0.05-4.16-0.03-7.86c0.02-3.7-1.45-3.71-1.42-7.41s3.07-3.68,3.09-7.39c0.02-3.7,0.02-3.7,0.05-7.41
				c0.02-3.7-2.88-3.72-2.86-7.43c0.02-3.7-0.13-3.71-0.11-7.41c0.02-3.7,1.67-3.69,1.7-7.4c0.02-3.71-0.1-3.53,0.86-7.11
				C238.38,271.61,239.36,270.52,237.53,267.3z"/>
		</g>
	</g>
	<g>
		<path class="st5" d="M293.3,236.48c-3.19-1.88-2.78-0.2-6,1.63c-3.22,1.83-1.86,4.22-5.08,6.05s-4.38-0.21-7.6,1.62
			c-3.22,1.83-2.35,3.35-5.57,5.18c-3.22,1.83-3.89,0.65-7.11,2.48c-3.22,1.83-3.17,1.92-6.39,3.75c-3.22,1.83-2.34,3.38-5.56,5.21
			c-3.22,1.83-4.16,0.19-7.38,2.02c-3.22,1.83-3.28,1.73-6.5,3.56c-0.01,0.01-0.87,0.08-0.87,0.09c-0.03,3.7-0.98,3.7-1.01,7.4
			c-0.02,3.7,1.19,3.71,1.16,7.41c-0.02,3.7-2.52,4.16-2.55,7.86c-0.02,3.7-2.53,3.69-2.55,7.39c-0.02,3.7,4.81,3.26,4.79,6.97
			c-0.02,3.7,2.36,3.72,2.33,7.42c-0.02,3.7-3.5,3.68-3.52,7.39c-0.02,3.71,0.95,3.79,0.92,7.5c-0.02,3.71-1.38,3.89,1.82,5.77
			c3.19,1.87,1.87-1.01,5.09-2.84c3.22-1.83,2.96-2.29,6.18-4.12c3.22-1.83,4.65,0.68,7.87-1.15c3.22-1.83,2.47-3.15,5.69-4.98
			c3.22-1.83,3.05-2.13,6.27-3.96c3.22-1.83,3.98-0.49,7.2-2.32c3.22-1.83,2.1-3.81,5.32-5.64c3.22-1.83,4.68,0.73,7.9-1.1
			c3.22-1.83,3.81-1.99,5.69-5.19c1.87-3.19,0.14-3.8,0.17-7.5c0.02-3.7,1.32-3.7,1.34-7.4s-1.95-3.72-1.93-7.42
			c0.02-3.7-1.46-3.71-1.44-7.42c0.02-3.7,0.8-3.7,0.82-7.4c0.02-3.71-0.83-3.71-0.8-7.42c0.02-3.71,1.48-3.7,1.51-7.4
			c0.02-3.71,1.27-3.47,2.05-7.09C296.27,239.5,296.5,238.36,293.3,236.48z"/>
	</g>
	<g>
		<polygon class="st2" points="244.29,433.24 287.04,434.95 293.95,434.95 275.53,467.69 263.37,482.32 240.02,530.66 
			235.72,532.69 222.76,505.5 200.23,461.28 186.91,445 181.32,439.08 226.7,431.35 		"/>
		<g>
			<g>
				<path class="st2" d="M294.87,435.39c0.03-3.7-4.21-1.27-7.4-3.14c-3.19-1.87-3.8-0.84-7-2.71c-3.19-1.87-1.37-4.98-4.57-6.86
					c-3.2-1.87-3.2-1.86-6.4-3.73c-3.2-1.87-3.25-1.78-6.45-3.65c-3.19-1.87-4.97,1.17-8.17-0.7c-3.2-1.87-1.99-3.93-5.19-5.81
					c-3.2-1.87-4.38,0.14-7.58-1.73c-3.2-1.87-1.73-5.92-5.44-5.94c-3.7-0.03-2.87,3.01-6.09,4.84c-3.22,1.83-4.13,0.22-7.36,2.05
					c-3.22,1.83-3.28,1.73-6.5,3.56c-3.22,1.83-2.48,3.13-5.7,4.96c-3.22,1.83-4.12,0.25-7.34,2.08c-3.22,1.83-2.94,2.32-6.16,4.16
					c-3.22,1.83-2.82,2.53-6.05,4.37c-3.22,1.83-2.33,3.4-5.56,5.24c-3.22,1.83-8.07-1.44-8.1,2.27c-0.03,3.7,3.11,3.49,6.3,5.36
					c3.2,1.87,3.26,1.76,6.46,3.63c3.2,1.87,4.26,0.07,7.45,1.94c3.2,1.87,2.95,2.29,6.15,4.16c3.2,1.87,2.97,2.27,6.16,4.14
					c3.2,1.87,3.75,0.93,6.94,2.8c3.2,1.87,2.45,5.09,5.64,6.96c3.2,1.88,2.25,2.49,5.45,4.36c3.2,1.88,4.4-1.09,7.61,0.77
					c0.01,0.01-0.6-1.89-0.59-1.9c3.21-1.84,4.02-0.42,7.24-2.25c3.22-1.83,4.13-0.23,7.35-2.06c3.22-1.83,1.76-4.39,4.98-6.22
					c3.22-1.83,4.54,0.48,7.75-1.35c3.22-1.83,1.99-3.98,5.21-5.82c3.22-1.83,4.45,0.34,7.67-1.49c3.22-1.83,2.53-3.05,5.75-4.88
					c3.22-1.83,2.55-3.77,6.13-4.72C291.75,436.96,294.84,439.1,294.87,435.39z"/>
			</g>
			<g>
				<path class="st0" d="M237.62,467.59c-1.83-3.22-4.08-1.92-7.28-3.8c-3.2-1.87-3.18-1.9-6.38-3.77c-3.2-1.87-3.24-1.8-6.44-3.67
					c-3.2-1.87-3.3-1.69-6.5-3.57c-3.2-1.87-2.73-2.67-5.93-4.54c-3.2-1.87-3.94-0.6-7.14-2.47c-3.2-1.87-2.79-2.57-5.99-4.44
					c-3.2-1.88-3.36-1.6-6.56-3.48c-3.2-1.88-4.04-5.98-7.27-4.15c-3.22,1.83,1.3,4.66,1.28,8.36c-0.02,3.7,0.24,3.7,0.22,7.41
					c-0.02,3.7-0.75,3.7-0.77,7.4c-0.02,3.7,0.69,3.71,0.67,7.41c-0.02,3.7-1.1,3.7-1.12,7.4c-0.02,3.71,1.22,3.71,1.2,7.42
					c-0.02,3.7-0.12,3.7-0.14,7.41c-0.02,3.71-2.62,3.69-2.64,7.4c-0.02,3.71-1.24,4.69,0.59,7.91c1.83,3.22,3.5,2.33,6.69,4.2
					c3.19,1.87,3.11,2.02,6.3,3.89c3.19,1.87,4.8-0.87,7.99,1.01c3.2,1.87,2.57,2.95,5.76,4.82c3.2,1.87,2.87,2.43,6.06,4.3
					c3.19,1.87,2.59,2.9,5.79,4.77c3.2,1.87,3.84,0.77,7.04,2.64c3.2,1.87,3.97,0.55,7.17,2.43c3.2,1.87,2.61,7.43,5.84,5.61
					c3.22-1.83-0.05-4.16-0.03-7.86c0.02-3.7-1.45-3.71-1.42-7.41s3.07-3.68,3.09-7.39c0.02-3.7,0.02-3.7,0.05-7.41
					c0.02-3.7-2.88-3.72-2.86-7.43c0.02-3.7-0.13-3.71-0.11-7.41c0.02-3.7,1.67-3.69,1.7-7.4c0.02-3.71-0.1-3.53,0.86-7.11
					C238.47,471.89,239.45,470.81,237.62,467.59z"/>
			</g>
		</g>
		<g>
			<path class="st1" d="M293.4,436.76c-3.19-1.88-2.78-0.2-6,1.63c-3.22,1.83-1.86,4.22-5.08,6.05c-3.22,1.83-4.38-0.21-7.6,1.62
				c-3.22,1.83-2.35,3.35-5.57,5.18c-3.22,1.83-3.89,0.65-7.11,2.48c-3.22,1.83-3.17,1.92-6.39,3.75c-3.22,1.83-2.34,3.38-5.56,5.21
				c-3.22,1.83-4.16,0.19-7.38,2.02c-3.22,1.83-3.28,1.73-6.5,3.56c-0.01,0.01-0.87,0.08-0.87,0.09c-0.03,3.7-0.98,3.7-1.01,7.4
				c-0.02,3.7,1.19,3.71,1.16,7.41c-0.02,3.7-2.52,4.16-2.55,7.86c-0.02,3.7-2.53,3.69-2.55,7.39c-0.02,3.7,4.81,3.26,4.79,6.97
				c-0.02,3.7,2.36,3.72,2.33,7.42c-0.02,3.7-3.5,3.68-3.52,7.39c-0.02,3.71,0.95,3.79,0.92,7.5s-1.38,3.89,1.82,5.77
				c3.19,1.87,1.87-1.01,5.09-2.84c3.22-1.83,2.96-2.29,6.18-4.12c3.22-1.83,4.65,0.68,7.87-1.15c3.22-1.83,2.47-3.15,5.69-4.98
				c3.22-1.83,3.05-2.13,6.27-3.96c3.22-1.83,3.98-0.49,7.2-2.32c3.22-1.83,2.1-3.81,5.32-5.64c3.22-1.83,4.68,0.73,7.9-1.1
				s3.81-1.99,5.69-5.19c1.87-3.19,0.14-3.8,0.17-7.5c0.02-3.7,1.32-3.7,1.34-7.4c0.02-3.7-1.95-3.72-1.93-7.42
				c0.02-3.7-1.46-3.71-1.44-7.42c0.02-3.7,0.8-3.7,0.82-7.4c0.02-3.71-0.83-3.71-0.8-7.42c0.02-3.7,1.48-3.7,1.51-7.4
				c0.02-3.71,1.27-3.47,2.05-7.09C296.36,439.79,296.59,438.64,293.4,436.76z"/>
		</g>
	</g>
</g>
</svg>
