<svg width="302" height="205" viewBox="0 0 302 205" fill="none" xmlns="http://www.w3.org/2000/svg">
<path d="M276.096 27.1368C276.096 29.8254 275.408 29.8254 275.408 32.5139C275.408 35.2024 275.678 35.2024 275.678 37.8909C275.678 40.5794 275.853 40.5794 275.853 43.2679C275.853 45.9564 275.83 45.9564 275.83 48.645C275.83 51.3335 276.051 51.3335 276.051 54.022C276.051 56.7105 276.226 56.7105 276.226 59.399C276.226 62.0875 275.529 62.0875 275.529 64.776C275.529 67.4645 276.199 67.4645 276.199 70.1531C276.199 72.8416 276.02 72.8416 276.02 75.5301C276.02 78.2186 275.297 78.2186 275.297 80.9071C275.297 83.5956 275.575 83.5956 275.575 86.2879C275.575 88.9764 276.07 88.9764 276.07 91.665C276.07 94.3535 276.142 94.3535 276.142 97.0458C276.142 99.7343 276.283 99.7343 276.283 102.427C276.283 105.115 276.222 105.115 276.222 107.807C276.222 110.496 275.324 110.496 275.324 113.184C275.324 115.873 275.906 115.873 275.906 118.565C275.906 121.254 275.286 121.254 275.286 123.942C275.286 126.635 275.841 126.635 275.841 129.323C275.841 132.015 275.533 132.015 275.533 134.704C275.533 136.666 275.019 138.377 274.308 140.085C273.573 141.857 273.185 143.907 271.853 145.241C270.518 146.576 268.432 146.88 266.659 147.614C264.95 148.321 263.272 149.626 261.308 149.626C258.595 149.626 258.595 149.5 255.882 149.5C253.169 149.5 253.169 148.995 250.459 148.995C247.746 148.995 247.746 148.896 245.033 148.896C242.319 148.896 242.319 149.576 239.606 149.576C236.893 149.576 236.893 148.763 234.179 148.763C231.466 148.763 231.466 149.097 228.753 149.097C226.04 149.097 226.04 148.877 223.326 148.877C220.613 148.877 220.613 149.052 217.9 149.052C215.186 149.052 215.186 149.272 212.473 149.272C209.76 149.272 209.76 149.071 207.047 149.071C204.333 149.071 204.333 149.428 201.62 149.428C198.907 149.428 198.907 148.934 196.193 148.934C193.48 148.934 193.48 149.276 190.767 149.276C188.054 149.276 188.054 148.869 185.34 148.869C182.627 148.869 182.627 149.462 179.914 149.462C177.2 149.462 177.2 149.546 174.487 149.546C171.774 149.546 171.774 148.778 169.064 148.778C166.351 148.778 166.351 149.732 163.638 149.732C160.925 149.732 160.925 149.253 158.211 149.253C155.498 149.253 155.498 149.409 152.785 149.409C150.071 149.409 150.071 149.261 147.358 149.261C144.645 149.261 144.645 149.576 141.932 149.576C139.218 149.576 139.218 149.732 136.505 149.732C133.792 149.732 133.792 149.287 131.078 149.287C128.365 149.287 128.365 149.717 125.652 149.717C122.939 149.717 122.939 149.006 120.225 149.006C117.512 149.006 117.512 149.69 114.799 149.69C112.086 149.69 112.086 149.063 109.372 149.063C106.659 149.063 106.659 149.295 103.946 149.295C101.232 149.295 101.232 149.112 98.5191 149.112C95.8058 149.112 95.8058 149.333 93.0887 149.333C90.3755 149.333 90.3755 149.698 87.6584 149.698C85.6948 149.698 83.7997 148.842 82.091 148.135C80.3177 147.401 78.9287 146.093 77.593 144.758C76.2573 143.424 74.6209 142.169 73.8865 140.4C73.1787 138.693 73.3689 136.662 73.3689 134.7C73.3689 132.012 72.8248 132.012 72.8248 129.323C72.8248 126.635 73.7228 126.635 73.7228 123.946C73.7228 121.258 73.6696 121.258 73.6696 118.569C73.6696 115.881 73.4108 115.881 73.4108 113.192C73.4108 110.504 73.525 110.504 73.525 107.815C73.525 105.127 72.977 105.127 72.977 102.438C72.977 99.7495 73.0417 99.7495 73.0417 97.061C73.0417 94.3725 73.4793 94.3725 73.4793 91.684C73.4793 88.9955 73.388 88.9955 73.388 86.307C73.388 83.6184 73.3651 83.6184 73.3651 80.9299C73.3651 78.2414 72.8019 78.2414 72.8019 75.5491C72.8019 72.8606 73.6734 72.8606 73.6734 70.1721C73.6734 67.4836 72.722 67.4836 72.722 64.7912C72.722 62.1027 72.9275 62.1027 72.9275 59.4104C72.9275 56.7219 73.3423 56.7219 73.3423 54.0296C73.3423 51.3411 73.3271 51.3411 73.3271 48.6526C73.3271 45.964 72.9465 45.964 72.9465 43.2717C72.9465 40.5832 73.2776 40.5832 73.2776 37.8947C73.2776 35.2024 73.4146 35.2024 73.4146 32.5139C73.4146 29.8254 73.3461 29.8216 73.3461 27.133C73.3461 25.1708 73.6658 23.3379 74.3736 21.6305C75.108 19.8623 75.8881 18.0294 77.2239 16.6946C78.5596 15.3599 80.2263 14.1772 81.9959 13.4433C83.7045 12.736 85.7062 12.2302 87.6698 12.2302C90.3831 12.2302 90.3831 12.523 93.0964 12.523C95.8096 12.523 95.8096 12.428 98.5191 12.428C101.232 12.428 101.232 12.7626 103.946 12.7626C106.659 12.7626 106.659 13.1771 109.372 13.1771C112.086 13.1771 112.086 12.7892 114.799 12.7892C117.512 12.7892 117.512 12.4356 120.225 12.4356C122.939 12.4356 122.939 12.0781 125.652 12.0781C128.365 12.0781 128.365 12.3709 131.078 12.3709C133.792 12.3709 133.792 12.698 136.505 12.698C139.218 12.698 139.218 12.3139 141.932 12.3139C144.645 12.3139 144.645 12.6181 147.358 12.6181C150.071 12.6181 150.071 12.5535 152.785 12.5535C155.498 12.5535 155.498 12.5002 158.211 12.5002C160.925 12.5002 160.925 13.0744 163.638 13.0744C166.351 13.0744 166.351 12.8197 169.064 12.8197C171.778 12.8197 171.778 12.6904 174.491 12.6904C177.204 12.6904 177.204 12.9147 179.914 12.9147C182.627 12.9147 182.627 12.1922 185.34 12.1922C188.054 12.1922 188.054 12.6447 190.767 12.6447C193.48 12.6447 193.48 12.6675 196.193 12.6675C198.907 12.6675 198.907 12.5421 201.62 12.5421C204.333 12.5421 204.333 13.1581 207.047 13.1581C209.76 13.1581 209.76 12.523 212.473 12.523C215.186 12.523 215.186 12.9375 217.9 12.9375C220.613 12.9375 220.613 12.4318 223.326 12.4318C226.04 12.4318 226.04 12.2949 228.753 12.2949C231.466 12.2949 231.466 12.3671 234.179 12.3671C236.893 12.3671 236.893 12.8691 239.606 12.8691C242.319 12.8691 242.319 12.2797 245.033 12.2797C247.746 12.2797 247.746 13.0402 250.459 13.0402C253.172 13.0402 253.172 13.1201 255.889 13.1201C258.603 13.1201 258.603 12.2302 261.32 12.2302C263.283 12.2302 264.962 13.5155 266.67 14.2229C268.44 14.9568 270.27 15.5196 271.606 16.8543C272.942 18.1891 273.977 19.8204 274.711 21.5925C275.404 23.2999 276.096 25.1746 276.096 27.1368Z" fill="#C8AFE7"/>
<path d="M275.602 45.8196C277.535 47.7438 275.411 48.3522 275.411 51.0788C275.411 53.8053 275.506 53.8053 275.506 56.5357C275.506 59.2622 275.8 59.2622 275.8 61.9887C275.8 64.7191 275.819 64.7191 275.819 67.4456C275.819 70.176 277.938 71.1913 276.005 73.1193C274.068 75.051 273.052 72.8873 270.316 72.8873C267.58 72.8873 267.58 72.9672 264.84 72.9672C262.104 72.9672 262.104 72.9329 259.364 72.9329C256.628 72.9329 256.628 73.0965 253.888 73.0965C251.152 73.0965 251.152 72.5907 248.412 72.5907C245.676 72.5907 245.676 72.6553 242.936 72.6553C240.2 72.6553 240.2 72.758 237.46 72.758C234.72 72.758 234.72 73.0432 231.984 73.0432C229.248 73.0432 229.248 72.8531 226.508 72.8531C223.768 72.8531 223.768 73.4349 221.032 73.4349C218.295 73.4349 218.295 72.8683 215.556 72.8683C212.819 72.8683 212.819 72.739 210.08 72.739C207.343 72.739 207.343 73.4463 204.603 73.4463C201.867 73.4463 201.867 73.3969 199.127 73.3969C196.388 73.3969 196.388 72.5527 193.651 72.5527C190.911 72.5527 190.911 73.4387 188.175 73.4387C185.435 73.4387 185.435 73.3664 182.699 73.3664C179.963 73.3664 179.963 73.2676 177.223 73.2676C174.487 73.2676 174.487 73.4463 171.747 73.4463C169.007 73.4463 169.007 72.682 166.271 72.682C163.531 72.682 163.531 73.0546 160.795 73.0546C158.059 73.0546 158.059 72.9253 155.319 72.9253C152.583 72.9253 152.583 72.8227 149.843 72.8227C147.103 72.8227 147.103 73.1839 144.367 73.1839C141.631 73.1839 141.631 72.3435 138.891 72.3435C136.155 72.3435 136.155 72.9101 133.415 72.9101C130.675 72.9101 130.675 73.066 127.939 73.066C125.199 73.066 125.199 72.9253 122.463 72.9253C119.723 72.9253 119.723 72.6744 116.987 72.6744C114.247 72.6744 114.247 73.3322 111.511 73.3322C108.771 73.3322 108.771 72.7314 106.035 72.7314C103.295 72.7314 103.295 72.4158 100.559 72.4158C97.8189 72.4158 97.8189 73.1877 95.0828 73.1877C92.3429 73.1877 92.3429 73.3588 89.603 73.3588C86.8631 73.3588 86.8631 72.469 84.1269 72.469C81.387 72.469 81.387 72.8683 78.6471 72.8683C75.9072 72.8683 75.382 74.5643 73.4374 72.6325C71.5043 70.7084 73.3766 70.1798 73.3766 67.4494C73.3766 64.7229 73.525 64.7229 73.525 61.9925C73.525 59.266 73.2776 59.266 73.2776 56.5395C73.2776 53.8091 73.2738 53.8091 73.2738 51.0826C73.2738 48.3522 71.4891 47.8085 73.426 45.8843C75.363 43.9525 75.9072 46.0592 78.6433 46.0592C81.3794 46.0592 81.3794 45.234 84.1193 45.234C86.8554 45.234 86.8554 45.8767 89.5954 45.8767C92.3315 45.8767 92.3315 45.5687 95.0714 45.5687C97.8075 45.5687 97.8075 45.0933 100.547 45.0933C103.284 45.0933 103.284 45.2644 106.023 45.2644C108.76 45.2644 108.76 45.5002 111.499 45.5002C114.239 45.5002 114.239 45.3139 116.976 45.3139C119.712 45.3139 119.712 46.1657 122.452 46.1657C125.191 46.1657 125.191 45.736 127.928 45.736C130.664 45.736 130.664 45.0743 133.404 45.0743C136.14 45.0743 136.14 45.428 138.88 45.428C141.616 45.428 141.616 45.1428 144.356 45.1428C147.092 45.1428 147.092 45.7094 149.832 45.7094C152.572 45.7094 152.572 46.12 155.308 46.12C158.048 46.12 158.048 45.7246 160.784 45.7246C163.524 45.7246 163.524 46.0554 166.26 46.0554C168.996 46.0554 168.996 45.1275 171.736 45.1275C174.472 45.1275 174.472 45.1998 177.212 45.1998C179.952 45.1998 179.952 45.8501 182.688 45.8501C185.428 45.8501 185.428 45.5649 188.164 45.5649C190.9 45.5649 190.9 45.1504 193.64 45.1504C196.376 45.1504 196.376 45.1846 199.116 45.1846C201.856 45.1846 201.856 45.8044 204.592 45.8044C207.328 45.8044 207.328 45.6599 210.068 45.6599C212.804 45.6599 212.804 45.7778 215.544 45.7778C218.284 45.7778 218.284 45.6409 221.02 45.6409C223.76 45.6409 223.76 45.2644 226.496 45.2644C229.236 45.2644 229.236 45.8767 231.972 45.8767C234.712 45.8767 234.712 45.9794 237.448 45.9794C240.188 45.9794 240.188 45.5915 242.924 45.5915C245.664 45.5915 245.664 45.4888 248.4 45.4888C251.14 45.4888 251.14 45.7626 253.876 45.7626C256.616 45.7626 256.616 45.0895 259.356 45.0895C262.096 45.0895 262.096 45.5725 264.832 45.5725C267.572 45.5725 267.572 45.8843 270.259 45.3557C273.029 44.8157 273.661 43.8841 275.602 45.8196Z" fill="#DECFF1"/>
<path d="M205.315 62.4486C202.602 62.4486 202.602 62.2698 199.889 62.2698C197.175 62.2698 197.175 62.0569 194.466 62.0569C191.752 62.0569 191.753 62.1291 189.039 62.1291C186.326 62.1291 186.326 62.0721 183.613 62.0721C180.899 62.0721 180.899 62.1291 178.186 62.1291C175.473 62.1291 175.473 61.958 172.76 61.958C170.046 61.958 170.046 62.4029 167.333 62.4029C164.62 62.4029 164.62 62.3801 161.906 62.3801C159.193 62.3801 159.193 61.8591 156.48 61.8591C153.767 61.8591 153.767 61.4561 151.053 61.4561C148.34 61.4561 148.34 61.5701 145.627 61.5701C142.913 61.5701 142.913 61.7717 140.2 61.7717C137.487 61.7717 137.487 62.0379 134.774 62.0379C132.06 62.0379 132.06 61.5473 129.347 61.5473C126.634 61.5473 126.634 61.9618 123.92 61.9618C121.207 61.9618 121.207 61.5245 118.494 61.5245C115.781 61.5245 115.781 61.7603 113.071 61.7603C110.358 61.7603 110.358 62.5588 107.645 62.5588C104.931 62.5588 104.931 61.9656 102.218 61.9656C99.5047 61.9656 99.5047 61.5473 96.7915 61.5473C94.0782 61.5473 94.0782 62.3307 91.3649 62.3307C88.6516 62.3307 88.6516 61.7717 85.9383 61.7717C83.225 61.7717 83.225 62.0493 80.5118 62.0493C77.7985 62.0493 77.7985 62.0873 75.0852 62.0873C72.3719 62.0873 72.3719 62.4219 69.6586 62.4219C66.9454 62.4219 66.9454 62.1253 64.2321 62.1253C61.5188 62.1253 61.5188 62.4752 58.8055 62.4752C56.0922 62.4752 56.0922 61.882 53.379 61.882C50.6657 61.882 50.6657 62.4105 47.9524 62.4105C45.2391 62.4105 45.2391 62.2242 42.5258 62.2242C39.8125 62.2242 39.8125 61.5587 37.0955 61.5587C34.3784 61.5587 34.3822 61.977 31.6651 61.977C29.7015 61.977 27.7873 62.3155 26.0787 63.0228C24.3092 63.7567 23.0001 65.1751 21.6644 66.506C20.3287 67.8408 18.6467 69.0387 17.9122 70.8069C17.2044 72.5143 17.486 74.5336 17.486 76.4996C17.486 79.1881 16.5993 79.1881 16.5993 81.8766C16.5993 84.5651 17.6306 84.5651 17.6306 87.2536C17.6306 89.9421 17.1169 89.9421 17.1169 92.6306C17.1169 95.3192 16.8277 95.3192 16.8277 98.0077C16.8277 100.696 17.6496 100.696 17.6496 103.385C17.6496 106.073 16.7401 106.073 16.7401 108.762C16.7401 111.45 16.9038 111.45 16.9038 114.139C16.9038 116.827 17.5697 116.827 17.5697 119.516C17.5697 122.204 17.2463 122.204 17.2463 124.893C17.2463 127.581 17.3071 127.581 17.3071 130.27C17.3071 132.958 16.6678 132.958 16.6678 135.651C16.6678 138.339 16.6488 138.339 16.6488 141.028C16.6488 143.716 17.5697 143.716 17.5697 146.409C17.5697 149.097 17.7296 149.097 17.7296 151.789C17.7296 154.478 17.2577 154.478 17.2577 157.17C17.2577 159.859 17.2501 159.859 17.2501 162.547C17.2501 165.236 16.9913 165.236 16.9913 167.928C16.9913 170.617 16.9038 170.617 16.9038 173.305C16.9038 175.997 17.3376 175.997 17.3376 178.686C17.3376 181.374 17.0255 181.378 17.0255 184.067C17.0255 186.029 17.2006 188.052 17.9084 189.759C18.6429 191.528 20.3629 192.691 21.6948 194.026C23.0305 195.361 24.5223 196.277 26.2956 197.011C28.0042 197.718 29.6939 198.696 31.6613 198.696C34.3746 198.696 34.3746 198.962 37.0878 198.962C39.8011 198.962 39.8011 198.707 42.5106 198.707C45.2239 198.707 45.2239 198.7 47.9372 198.7C50.6504 198.7 50.6504 198.528 53.3637 198.528C56.077 198.528 56.077 198.719 58.7903 198.719C61.5036 198.719 61.5036 198.285 64.2169 198.285C66.9301 198.285 66.9301 198.205 69.6434 198.205C72.3567 198.205 72.3567 198.217 75.07 198.217C77.7833 198.217 77.7833 198.642 80.4965 198.642C83.2098 198.642 83.2098 198.585 85.9231 198.585C88.6364 198.585 88.6364 198.962 91.3497 198.962C94.063 198.962 94.063 198.844 96.7762 198.844C99.4895 198.844 99.4895 198.281 102.203 198.281C104.916 198.281 104.916 198.487 107.629 198.487C110.343 198.487 110.343 198.171 113.056 198.171C115.769 198.171 115.769 198.213 118.482 198.213C121.196 198.213 121.196 199.008 123.905 199.008C126.619 199.008 126.619 198.232 129.332 198.232C132.045 198.232 132.045 199.038 134.758 199.038C137.472 199.038 137.472 198.11 140.185 198.11C142.898 198.11 142.898 198.255 145.611 198.255C148.325 198.255 148.325 199.091 151.038 199.091C153.751 199.091 153.751 198.878 156.465 198.878C159.178 198.878 159.178 198.315 161.891 198.315C164.604 198.315 164.604 198.589 167.318 198.589C170.031 198.589 170.031 198.749 172.744 198.749C175.458 198.749 175.458 199.065 178.171 199.065C180.884 199.065 180.884 199.03 183.597 199.03C186.311 199.03 186.311 198.563 189.024 198.563C191.737 198.563 191.737 198.951 194.451 198.951C197.164 198.951 197.164 198.707 199.881 198.707C202.598 198.707 202.594 198.27 205.311 198.27C207.275 198.27 209.28 198.475 210.989 197.768C212.759 197.034 213.976 195.399 215.312 194.064C216.648 192.729 218.067 191.425 218.802 189.657C219.509 187.949 220.24 186.037 220.24 184.074C220.24 181.386 220.145 181.386 220.145 178.697C220.145 176.009 219.951 176.009 219.951 173.32C219.951 170.632 219.593 170.632 219.593 167.943C219.593 165.255 220.122 165.255 220.122 162.566C220.122 159.878 219.753 159.878 219.753 157.189C219.753 154.501 220.324 154.501 220.324 151.812C220.324 149.124 219.509 149.124 219.509 146.435C219.509 143.747 219.296 143.747 219.296 141.058C219.296 138.37 220.259 138.37 220.259 135.681C220.259 132.993 219.974 132.993 219.974 130.304C219.974 127.616 219.898 127.616 219.898 124.923C219.898 122.235 220.035 122.235 220.035 119.546C220.035 116.858 219.723 116.858 219.723 114.165C219.723 111.477 220.293 111.477 220.293 108.785C220.293 106.096 219.323 106.096 219.323 103.404C219.323 100.715 219.509 100.715 219.509 98.0267C219.509 95.3382 220.175 95.3382 220.175 92.6458C220.175 89.9573 219.981 89.9573 219.981 87.2688C219.981 84.5765 219.62 84.5765 219.62 81.888C219.62 79.1995 219.859 79.1957 219.859 76.5072C219.859 74.545 219.304 72.7159 218.596 71.0085C217.862 69.2402 216.636 67.8598 215.301 66.5251C213.965 65.1903 212.412 64.3765 210.643 63.6426C208.942 62.9201 207.283 62.4486 205.315 62.4486Z" fill="#A8E6A5"/>
<path d="M79.686 87.9647C79.686 91.1475 79.6555 91.1475 79.6555 94.3304C79.6555 97.5133 79.5452 97.5133 79.5452 100.696C79.5452 103.879 79.4539 103.879 79.4539 107.062C79.4539 107.385 79.5033 107.647 79.4577 107.959C79.2217 109.553 78.6395 110.785 77.475 111.789C76.3258 112.781 75.0319 113.352 73.3956 113.352C70.4616 113.352 70.4616 113.975 67.5238 113.975C64.5898 113.975 64.5898 113.72 61.6558 113.72C58.7218 113.72 58.7218 113.093 55.784 113.093C52.85 113.093 52.85 113.736 49.9122 113.736C46.9744 113.736 46.9744 113.104 44.0404 113.104C41.1064 113.104 41.1026 113.736 38.1686 113.736C36.5323 113.736 34.953 113.116 33.8038 112.123C32.6393 111.119 31.3873 109.697 31.1552 108.104C31.1095 107.792 31.1628 107.393 31.1628 107.066C31.1628 103.883 32.0571 103.883 32.0571 100.7C32.0571 97.5171 31.2579 97.5171 31.2579 94.3342C31.2579 91.1513 31.0981 91.1513 31.0981 87.9685C31.0981 87.6452 31.2655 87.2688 31.3112 86.9532C31.5471 85.3598 32.3957 83.6372 33.5602 82.6295C34.7095 81.637 36.5285 81.732 38.1686 81.732C41.1026 81.732 41.1026 81.7282 44.0404 81.7282C46.9744 81.7282 46.9744 81.6408 49.9084 81.6408C52.8424 81.6408 52.8424 81.9412 55.7802 81.9412C58.7142 81.9412 58.7142 81.5951 61.652 81.5951C64.5898 81.5951 64.5898 81.4849 67.5238 81.4849C70.4578 81.4849 70.4616 81.8309 73.3956 81.8309C75.0319 81.8309 76.322 82.2568 77.4712 83.2493C78.6357 84.2532 79.1532 85.4929 79.3854 87.0824C79.431 87.3905 79.686 87.6376 79.686 87.9647Z" fill="#F2E770"/>
<path d="M63.3226 92.0981C63.3226 89.8431 62.9725 87.4283 61.4922 85.9491C60.0157 84.4736 57.5954 83.4697 55.3388 83.4697C53.0821 83.4697 50.8407 84.6448 49.3604 86.124C47.8839 87.5995 46.8793 89.8431 46.8793 92.0981C46.8793 94.201 48.0247 96.1099 49.33 97.5549C48.0247 99 47.5719 100.913 47.5719 103.012C47.5719 105.267 47.9676 107.423 49.4441 108.902C50.9207 110.378 53.0821 111.366 55.3388 111.366C57.5954 111.366 59.6427 110.267 61.123 108.792C62.5996 107.316 63.1171 105.267 63.1171 103.012C63.1171 100.909 62.5158 99 61.2106 97.5549C62.5158 96.1099 63.3226 94.1972 63.3226 92.0981Z" fill="#F2D54C"/>
<path d="M80.0361 87.9646C80.0361 89.3488 81.2538 90.231 80.0247 90.8622C77.6387 92.0905 77.2733 90.9801 74.5867 90.9801C71.9 90.9801 71.9 90.6759 69.2172 90.6759C66.5306 90.6759 66.5306 90.4059 63.8477 90.4059C61.1611 90.4059 61.1611 91.003 58.4782 91.003C55.7916 91.003 55.7916 91.0904 53.1088 91.0904C50.4221 91.0904 50.4221 90.5048 47.7355 90.5048C45.0488 90.5048 45.0488 91.1246 42.366 91.1246C39.6794 91.1246 39.6794 90.1854 36.9927 90.1854C34.3061 90.1854 33.9522 92.0677 31.5623 90.8394C30.3332 90.2044 31.0714 89.3488 31.0714 87.9646C31.0714 87.6414 31.6156 86.8428 31.6575 86.5272C34.3289 86.3713 34.3632 86.7287 37.0384 86.7287C39.7174 86.7287 39.7174 87.0671 42.3926 87.0671C45.0717 87.0671 45.0717 86.8466 47.7469 86.8466C50.4259 86.8466 50.4259 86.588 53.1012 86.588C55.7802 86.588 55.7802 86.9188 58.4554 86.9188C61.1344 86.9188 61.1344 86.5158 63.8135 86.5158C66.4925 86.5158 66.4925 86.5614 69.1677 86.5614C71.8468 86.5614 71.8468 87.0063 74.5258 87.0063C77.2048 87.0063 77.182 87.3067 79.8572 87.4626C79.9029 87.7783 80.0361 87.6376 80.0361 87.9646Z" fill="#F2D54C"/>
<path d="M79.6479 96.0911C81.1815 97.152 81.642 98.54 80.1122 99.6048C77.9089 101.133 77.2695 99.7645 74.5867 99.7645C71.9001 99.7645 71.9001 99.331 69.2172 99.331C66.5306 99.331 66.5306 98.8975 63.8477 98.8975C61.1611 98.8975 61.1611 99.08 58.4783 99.08C55.7916 99.08 55.7916 99.2283 53.1088 99.2283C50.4221 99.2283 50.4221 99.0572 47.7355 99.0572C45.0488 99.0572 45.0488 99.6504 42.366 99.6504C39.6794 99.6504 39.6794 99.62 36.9927 99.62C34.3061 99.62 33.6059 101.221 31.3987 99.6923C29.8651 98.6313 30.3751 97.133 31.9086 96.0683C34.112 94.5396 34.3023 96.1519 36.9889 96.1519C39.6756 96.1519 39.6756 95.669 42.3584 95.669C45.045 95.669 45.045 95.4446 47.7279 95.4446C50.4145 95.4446 50.4145 96.1139 53.0974 96.1139C55.784 96.1139 55.784 95.5587 58.4668 95.5587C61.1535 95.5587 61.1535 95.8021 63.8401 95.8021C66.5268 95.8021 66.5268 95.9124 69.2096 95.9124C71.8962 95.9124 71.9343 96.1101 74.5981 95.7565C77.2086 95.4066 77.4408 94.5586 79.6479 96.0911Z" fill="#F2D54C"/>
<path d="M80.0704 104.069C81.2995 104.704 79.5604 105.678 79.5604 107.062C79.5604 107.385 79.9105 107.339 79.8649 107.651C77.1934 107.807 77.2087 108.377 74.5334 108.377C71.8544 108.377 71.8544 107.697 69.1792 107.697C66.5001 107.697 66.5001 108.427 63.8249 108.427C61.1459 108.427 61.1459 107.735 58.4707 107.735C55.7916 107.735 55.7916 108.115 53.1164 108.115C50.4374 108.115 50.4374 107.689 47.7583 107.689C45.0793 107.689 45.0793 108.149 42.4041 108.149C39.725 108.149 39.725 107.959 37.046 107.959C34.367 107.959 34.3936 107.655 31.7184 107.503C31.6727 107.191 32.1332 107.381 32.1332 107.058C32.1332 105.674 30.1734 104.503 31.4025 103.867C33.7885 102.639 34.3061 104.742 36.9927 104.742C39.6794 104.742 39.6794 104.263 42.3622 104.263C45.0489 104.263 45.0489 104.465 47.7317 104.465C50.4183 104.465 50.4183 104.236 53.1012 104.236C55.7878 104.236 55.7878 104.83 58.4707 104.83C61.1573 104.83 61.1573 103.955 63.8439 103.955C66.5306 103.955 66.5306 104.586 69.2134 104.586C71.9001 104.586 72.0028 105.122 74.6514 104.666C77.437 104.195 77.6805 102.841 80.0704 104.069Z" fill="#F2D54C"/>
<path d="M191.243 171.373C191.243 173.176 190.66 174.773 190.01 176.34C189.336 177.963 188.586 179.496 187.361 180.72C186.136 181.945 184.922 183.462 183.297 184.135C181.729 184.785 179.807 184.162 178.007 184.162C176.203 184.162 174.658 183.88 173.091 183.23C171.466 182.557 169.917 181.903 168.692 180.678C167.466 179.454 166.157 178.176 165.484 176.553C164.833 174.986 164.247 173.172 164.247 171.369C164.247 169.567 164.791 167.734 165.442 166.167C166.115 164.544 167.725 163.543 168.95 162.319C170.176 161.095 171.146 159.406 172.771 158.733C174.339 158.083 176.207 157.752 178.007 157.752C179.811 157.752 181.581 158.315 183.148 158.965C184.773 159.638 186.052 160.882 187.277 162.106C188.503 163.331 189.454 164.73 190.131 166.354C190.778 167.924 191.243 169.575 191.243 171.373Z" fill="#51CB59"/>
<path d="M207.636 171.373C207.636 173.176 207.792 175.107 207.142 176.674C206.468 178.298 205.083 179.663 203.858 180.884C202.632 182.108 200.878 182.545 199.249 183.222C197.681 183.873 196.14 184.249 194.34 184.249C192.536 184.249 190.607 184.808 189.039 184.162C187.414 183.489 186.451 181.705 185.226 180.481C184.001 179.256 182.258 178.279 181.584 176.651C180.934 175.085 181.352 173.172 181.352 171.373C181.352 169.571 181.192 167.768 181.843 166.201C182.517 164.578 184.096 163.585 185.321 162.365C186.547 161.14 187.673 159.889 189.298 159.216C190.866 158.566 192.536 157.729 194.336 157.729C196.14 157.729 197.898 158.353 199.466 159.003C201.091 159.676 202.762 160.513 203.987 161.737C205.212 162.962 206.331 164.509 207.005 166.137C207.659 167.7 207.636 169.574 207.636 171.373Z" fill="#C8AFE7"/>
<path d="M187.966 86.706C185.991 84.5993 185.268 86.3942 182.38 86.3942C179.491 86.3942 179.491 86.938 176.599 86.938C173.711 86.938 173.711 86.3866 170.823 86.3866C167.934 86.3866 167.934 86.0292 165.042 86.0292C162.154 86.0292 162.154 86.6186 159.262 86.6186C156.369 86.6186 156.369 86.0748 153.481 86.0748C150.589 86.0748 149.995 84.7134 148.017 86.8201C145.908 89.0675 145.733 90.3034 147.841 92.5508C149.817 94.6575 150.589 93.2315 153.477 93.2315C156.366 93.2315 156.366 92.7333 159.258 92.7333C162.146 92.7333 162.146 92.8626 165.034 92.8626C167.923 92.8626 167.923 92.1781 170.815 92.1781C173.703 92.1781 173.703 93.0528 176.595 93.0528C179.488 93.0528 179.488 92.566 182.376 92.566C185.268 92.566 185.717 94.281 188.316 93.0185C191.178 91.6306 190.074 88.9496 187.966 86.706Z" fill="#51CB59"/>
<path d="M50.9283 157.429C49.1283 155.391 47.9372 158.125 45.2163 158.125C42.4954 158.125 42.4954 157.429 39.7745 157.429C37.0536 157.429 37.0536 157.109 34.3289 157.109C31.6042 157.109 31.0981 155.995 29.2943 158.033C27.2546 160.342 26.5277 161.802 28.5675 164.11C30.3674 166.148 31.6042 163.3 34.3251 163.3C37.046 163.3 37.046 163.608 39.7669 163.608C42.4878 163.608 42.4878 163.319 45.2125 163.319C47.9372 163.319 48.1503 164.913 50.5553 163.642C53.5616 162.053 52.968 159.737 50.9283 157.429Z" fill="#51CB59"/>
<path d="M107.869 172.689C105.97 170.613 104.878 173.081 102.062 173.081C99.2498 173.081 99.2498 172.488 96.4337 172.488C93.6215 172.488 93.6215 173.214 90.8055 173.214C87.9933 173.214 87.9933 173.286 85.1772 173.286C82.3612 173.286 82.3612 173.153 79.549 173.153C76.7368 173.153 76.7368 173.259 73.9207 173.259C71.1047 173.259 71.1047 172.868 68.2925 172.868C65.4765 172.868 65.4765 173.13 62.6642 173.13C59.8482 173.13 59.8482 173.244 57.036 173.244C54.2238 173.244 54.2238 172.552 51.4077 172.552C48.5917 172.552 48.5917 173.358 45.7795 173.358C42.9673 173.358 42.9673 173.001 40.1512 173.001C37.3352 173.001 37.3352 173.05 34.5192 173.05C31.7031 173.05 31.1552 171.115 29.2562 173.191C27.1785 175.465 27.1899 176.393 29.2677 178.667C31.1666 180.743 31.6993 179.511 34.5154 179.511C37.3276 179.511 37.3276 179.032 40.1436 179.032C42.9558 179.032 42.9558 179.572 45.7719 179.572C48.5841 179.572 48.5841 178.705 51.4001 178.705C54.2162 178.705 54.2162 178.45 57.0284 178.45C59.8406 178.45 59.8406 179.275 62.6566 179.275C65.4726 179.275 65.4727 178.994 68.2849 178.994C71.1009 178.994 71.1009 178.519 73.9131 178.519C76.7292 178.519 76.7292 179.317 79.5414 179.317C82.3536 179.317 82.3536 178.469 85.1696 178.469C87.9857 178.469 87.9857 178.659 90.7979 178.659C93.6101 178.659 93.6101 179.382 96.4261 179.382C99.2422 179.382 99.2422 179.45 102.058 179.45C104.874 179.45 104.981 179.91 107.485 178.625C110.472 177.077 109.947 174.963 107.869 172.689Z" fill="#51CB59"/>
<path d="M79.0429 157.828C77.2429 155.79 76.5046 158.109 73.7837 158.109C71.0628 158.109 71.0628 158.17 68.3419 158.17C65.6211 158.17 65.6211 157.512 62.8964 157.512C60.1717 157.512 59.0148 155.421 57.211 157.459C55.1713 159.767 54.9924 161.889 57.0322 164.198C58.8321 166.236 60.1717 164.084 62.8926 164.084C65.6134 164.084 65.6134 164.045 68.3343 164.045C71.0552 164.045 71.0552 163.293 73.7799 163.293C76.5046 163.293 76.8167 165.099 79.2445 163.871C82.0796 162.433 81.0826 160.136 79.0429 157.828Z" fill="#51CB59"/>
<path d="M107.374 157.706C105.574 155.668 104.699 157.923 101.978 157.923C99.2574 157.923 99.2574 157.444 96.5365 157.444C93.8156 157.444 93.8156 157.322 91.0909 157.322C88.3662 157.322 87.8182 155.953 86.0144 157.992C83.9747 160.3 83.3468 161.749 85.3865 164.057C87.1865 166.095 88.37 163.635 91.0909 163.635C93.8118 163.635 93.8118 164.213 96.5327 164.213C99.2536 164.213 99.2536 163.806 101.978 163.806C104.699 163.806 104.966 165.004 107.39 163.76C110.267 162.281 109.414 160.015 107.374 157.706Z" fill="#51CB59"/>
<path d="M135.379 157.76C133.579 155.721 132.764 158.224 130.043 158.224C127.323 158.224 127.323 157.455 124.602 157.455C121.881 157.455 121.881 157.748 119.156 157.748C116.431 157.748 115.488 155.604 113.684 157.642C111.644 159.95 111.538 161.635 113.577 163.943C115.377 165.981 116.435 163.35 119.156 163.35C121.877 163.35 121.877 164.163 124.598 164.163C127.319 164.163 127.319 163.65 130.043 163.65C132.764 163.65 133.023 164.981 135.451 163.745C138.309 162.292 137.418 160.068 135.379 157.76Z" fill="#51CB59"/>
<path d="M204.113 98.2622C202.248 96.1745 200.92 98.4676 198.119 98.4676C195.318 98.4676 195.318 98.3649 192.517 98.3649C189.717 98.3649 189.717 98.5132 186.916 98.5132C184.115 98.5132 184.115 98.0531 181.314 98.0531C178.513 98.0531 178.513 99.1444 175.713 99.1444C172.912 99.1444 172.912 98.6273 170.111 98.6273C167.31 98.6273 167.31 98.7147 164.509 98.7147C161.709 98.7147 161.709 98.5969 158.908 98.5969C156.107 98.5969 156.107 99.1673 153.302 99.1673C150.501 99.1673 149.535 96.4978 147.67 98.5893C145.577 100.932 145.87 102.32 147.959 104.662C149.824 106.75 150.501 104.909 153.298 104.909C156.099 104.909 156.099 105.335 158.9 105.335C161.701 105.335 161.701 104.868 164.502 104.868C167.303 104.868 167.303 104.89 170.103 104.89C172.904 104.89 172.904 105.366 175.705 105.366C178.506 105.366 178.506 105.214 181.307 105.214C184.107 105.214 184.107 104.613 186.908 104.613C189.709 104.613 189.709 105.293 192.51 105.293C195.311 105.293 195.311 105.449 198.115 105.449C200.916 105.449 201.141 106.016 203.614 104.704C206.731 103.046 206.202 100.605 204.113 98.2622Z" fill="#51CB59"/>
</svg>
