<svg width="12" height="12" version="1.1" viewBox="0 0 12 12" xmlns="http://www.w3.org/2000/svg">
	<path d="m4.32 0.72c0-0.398 0.322-0.72 0.72-0.72 2.65 0 4.8 2.15 4.8 4.8 0 0.398-0.322 0.72-0.72 0.72-0.398 0-0.72-0.322-0.72-0.72 0-1.86-1.5-3.36-3.36-3.36-0.398 0-0.72-0.322-0.72-0.72zm3.36 10.6c0 0.398-0.322 0.72-0.72 0.72-2.65 0-4.8-2.15-4.8-4.8 0-0.398 0.322-0.72 0.72-0.72 0.398 0 0.72 0.322 0.72 0.72 0 1.86 1.5 3.36 3.36 3.36 0.398 0 0.72 0.322 0.72 0.72zm-6.96-3.6c-0.398 0-0.72-0.322-0.72-0.72 0-2.65 2.15-4.8 4.8-4.8 0.398 0 0.72 0.322 0.72 0.72 0 0.398-0.322 0.72-0.72 0.72-1.86 0-3.36 1.5-3.36 3.36 0 0.398-0.322 0.72-0.72 0.72zm10.6-3.36c0.398 0 0.72 0.322 0.72 0.72 0 2.65-2.15 4.8-4.8 4.8-0.398 0-0.72-0.322-0.72-0.72 0-0.398 0.322-0.72 0.72-0.72 1.86 0 3.36-1.5 3.36-3.36 0-0.398 0.322-0.72 0.72-0.72z" stroke-width=".3"/>
</svg>
