<svg width="64" height="64" viewBox="0 0 168 168" fill="none" xmlns="http://www.w3.org/2000/svg">
<path d="M83.88 0C67.2901 0 51.0728 4.91947 37.2788 14.1363C23.4848 23.3532 12.7337 36.4535 6.38502 51.7805C0.0363441 67.1076 -1.62476 83.9731 1.61177 100.244C4.8483 116.515 12.8371 131.461 24.5679 143.192C36.2987 154.923 51.2447 162.912 67.5158 166.148C83.7869 169.385 100.652 167.724 115.98 161.375C131.307 155.026 144.407 144.275 153.624 130.481C162.841 116.687 167.76 100.47 167.76 83.88C167.757 61.6345 158.919 40.3008 143.189 24.5708C127.459 8.84085 106.126 0.00265159 83.88 0ZM74.66 26.21C86.8954 26.2126 98.6287 31.075 107.279 39.7276C115.93 48.3803 120.79 60.1146 120.79 72.35C120.79 74.1853 120.061 75.9454 118.763 77.2432C117.465 78.5409 115.705 79.27 113.87 79.27C112.035 79.27 110.275 78.5409 108.977 77.2432C107.679 75.9454 106.95 74.1853 106.95 72.35C106.95 63.7852 103.548 55.5711 97.4931 49.514C91.4379 43.4568 83.2248 40.0527 74.66 40.05C72.8248 40.05 71.0646 39.3209 69.7669 38.0232C68.4691 36.7254 67.74 34.9653 67.74 33.13C67.74 31.2947 68.4691 29.5346 69.7669 28.2368C71.0646 26.9391 72.8248 26.21 74.66 26.21ZM33.13 100.03C31.2947 100.03 29.5346 99.3009 28.2368 98.0032C26.9391 96.7054 26.21 94.9453 26.21 93.11C26.21 80.8729 31.0712 69.137 39.7241 60.4841C48.3771 51.8311 60.1129 46.97 72.35 46.97C74.1853 46.97 75.9454 47.6991 77.2432 48.9968C78.5409 50.2946 79.27 52.0547 79.27 53.89C79.27 55.7253 78.5409 57.4855 77.2432 58.7832C75.9454 60.081 74.1853 60.81 72.35 60.81C63.7835 60.81 55.5679 64.213 49.5104 70.2704C43.453 76.3279 40.05 84.5435 40.05 93.11C40.05 94.9453 39.321 96.7054 38.0232 98.0032C36.7255 99.3009 34.9653 100.03 33.13 100.03ZM93.13 141.55C80.8947 141.547 69.1613 136.685 60.5106 128.032C51.8598 119.38 47 107.645 47 95.41C47 93.5747 47.7291 91.8146 49.0269 90.5168C50.3246 89.2191 52.0847 88.49 53.92 88.49C55.7553 88.49 57.5154 89.2191 58.8132 90.5168C60.1109 91.8146 60.84 93.5747 60.84 95.41C60.84 103.975 64.2417 112.189 70.297 118.246C76.3522 124.303 84.5653 127.707 93.13 127.71C94.9653 127.71 96.7255 128.439 98.0232 129.737C99.321 131.035 100.05 132.795 100.05 134.63C100.05 136.465 99.321 138.225 98.0232 139.523C96.7255 140.821 94.9653 141.55 93.13 141.55ZM95.44 120.79C93.6047 120.79 91.8446 120.061 90.5468 118.763C89.2491 117.465 88.52 115.705 88.52 113.87C88.52 112.035 89.2491 110.275 90.5468 108.977C91.8446 107.679 93.6047 106.95 95.44 106.95C104.007 106.95 112.222 103.547 118.28 97.4896C124.337 91.4321 127.74 83.2165 127.74 74.65C127.74 72.8147 128.469 71.0546 129.767 69.7568C131.065 68.4591 132.825 67.73 134.66 67.73C136.495 67.73 138.255 68.4591 139.553 69.7568C140.851 71.0546 141.58 72.8147 141.58 74.65C141.58 80.7117 140.386 86.714 138.065 92.314C135.744 97.9139 132.343 103.002 128.055 107.286C123.768 111.571 118.678 114.969 113.076 117.286C107.475 119.603 101.472 120.794 95.41 120.79H95.44Z" fill="#10352B"/>
</svg>