<svg viewBox="0 0 40 40" xmlns="http://www.w3.org/2000/svg">
  <path
     d="M 14.400001,2.4000001 C 14.400001,1.0745143 15.474515,0 16.800001,0 c 8.836572,0 16.000001,7.1634289 16.000001,16.000001 0,1.325486 -1.074515,2.4 -2.4,2.4 -1.325486,0 -2.400001,-1.074514 -2.400001,-2.4 0,-6.1856005 -5.0144,-11.2000008 -11.2,-11.2000008 -1.325486,0 -2.4,-1.0745143 -2.4,-2.4000001 z m 11.2,35.2000019 c 0,1.325486 -1.074514,2.4 -2.4,2.4 -8.836572,0 -16.0000006,-7.163429 -16.0000006,-16.000001 0,-1.325486 1.0745143,-2.4 2.4000001,-2.4 1.3254855,0 2.4000005,1.074514 2.4000005,2.4 0,6.185601 5.0144,11.200001 11.2,11.200001 1.325486,0 2.4,1.074514 2.4,2.4 z M 2.4000001,25.600001 C 1.0745143,25.600001 0,24.525487 0,23.200001 0,14.363429 7.1634289,7.2000004 16.000001,7.2000004 c 1.325486,0 2.4,1.0745143 2.4,2.4000001 0,1.3254855 -1.074514,2.4000005 -2.4,2.4000005 -6.1856005,0 -11.2000008,5.0144 -11.2000008,11.2 0,1.325486 -1.0745143,2.4 -2.4000001,2.4 z m 35.2000019,-11.2 c 1.325486,0 2.4,1.074514 2.4,2.4 0,8.836572 -7.163429,16.000001 -16.000001,16.000001 -1.325486,0 -2.4,-1.074515 -2.4,-2.4 0,-1.325486 1.074514,-2.400001 2.4,-2.400001 6.185601,0 11.200001,-5.0144 11.200001,-11.2 0,-1.325486 1.074514,-2.4 2.4,-2.4 z"/>
</svg>
