<svg width="12" height="8.72" version="1.1" viewBox="0 0 12 8.72" xmlns="http://www.w3.org/2000/svg">
	<path d="m1.15 2.69c0.153 0.0985 0.608 0.394 1.37 0.884 0.763 0.49 1.35 0.867 1.75 1.13 0.0443 0.0296 0.14 0.0911 0.286 0.19 0.145 0.096 0.266 0.175 0.362 0.236 0.096 0.0591 0.212 0.128 0.347 0.202 0.135 0.0739 0.263 0.131 0.384 0.167 0.121 0.0369 0.231 0.0566 0.335 0.0566h0.0148c0.103 0 0.214-0.0197 0.335-0.0566 0.121-0.0369 0.249-0.0936 0.384-0.167 0.135-0.0739 0.251-0.14 0.347-0.202 0.096-0.0591 0.217-0.138 0.362-0.236 0.145-0.096 0.239-0.16 0.286-0.19 0.411-0.263 1.46-0.936 3.13-2.01 0.325-0.212 0.598-0.465 0.818-0.763 0.219-0.298 0.328-0.608 0.328-0.936 0-0.273-0.106-0.507-0.318-0.699-0.212-0.195-0.463-0.291-0.754-0.291h-9.85c-0.345 0-0.608 0.108-0.793 0.323-0.185 0.214-0.278 0.483-0.278 0.805 0 0.261 0.123 0.542 0.369 0.847 0.244 0.303 0.505 0.542 0.781 0.714zm10.2 0.662c-1.46 0.916-2.58 1.63-3.33 2.14-0.254 0.172-0.46 0.308-0.621 0.406-0.158 0.096-0.369 0.197-0.633 0.298-0.263 0.101-0.51 0.153-0.736 0.153h-0.0148c-0.227 0-0.473-0.0517-0.736-0.153-0.263-0.101-0.475-0.199-0.633-0.298-0.158-0.096-0.364-0.231-0.618-0.406-0.603-0.409-1.71-1.12-3.33-2.14-0.254-0.158-0.48-0.337-0.677-0.539v4.92c0 0.273 0.106 0.507 0.315 0.699 0.209 0.195 0.463 0.291 0.756 0.291h9.86c0.296 0 0.547-0.096 0.756-0.291 0.209-0.195 0.315-0.428 0.315-0.699v-4.92c-0.192 0.197-0.416 0.377-0.67 0.537z" stroke-width=".3"/>
</svg>
