<svg viewBox="0 0 40 30">
     <path d="m 3.8415111,8.9635258 c 0.5089181,0.3283343 2.0274642,1.3133372 4.5720548,2.9468002 2.5445911,1.633463 4.4899711,2.889342 5.8443501,3.767636 0.147751,0.0985 0.467876,0.303709 0.95217,0.632043 0.484293,0.320126 0.886502,0.582794 1.206628,0.788003 0.320126,0.197 0.705919,0.426834 1.157378,0.673085 0.45146,0.246251 0.878295,0.435043 1.280504,0.558168 0.40221,0.123126 0.771586,0.188792 1.116337,0.188792 h 0.02463 0.02463 c 0.344751,0 0.714127,-0.06567 1.116336,-0.188792 0.40221,-0.123125 0.829044,-0.311917 1.280504,-0.558168 0.45146,-0.246251 0.837252,-0.467876 1.157378,-0.673085 0.320126,-0.197001 0.722336,-0.459668 1.206629,-0.788003 0.484293,-0.320126 0.79621,-0.533543 0.952169,-0.632043 1.370796,-0.878294 4.851139,-3.119176 10.44103,-6.7144362 1.083503,-0.7059187 1.994631,-1.5513794 2.725175,-2.5445906 0.730544,-0.9932112 1.091711,-2.0274642 1.091711,-3.1191757 0,-0.9111276 -0.352959,-1.6909215 -1.058878,-2.33117338 C 38.226319,0.32012592 37.389066,0 36.42048,0 H 3.5788437 c -1.14917,0 -2.0274642,0.3611677 -2.643091,1.0752948 -0.61562677,0.714127 -0.92754434,1.6088379 -0.92754434,2.6841327 0,0.8700858 0.41041785,1.8058385 1.23125354,2.8236748 0.8126274,1.0096279 1.6827132,1.8058385 2.6020492,2.3804235 z M 37.766651,11.171574 c -4.875764,3.053509 -8.585942,5.433932 -11.114116,7.124854 -0.845461,0.574585 -1.534963,1.026044 -2.068506,1.354379 -0.525335,0.320126 -1.231253,0.656668 -2.109548,0.993211 -0.878294,0.336542 -1.699129,0.508918 -2.454298,0.508918 h -0.02463 -0.02463 c -0.755169,0 -1.576005,-0.172376 -2.454299,-0.508918 C 16.63834,20.307475 15.932421,19.979141 15.407086,19.650807 14.881751,19.330681 14.192249,18.879221 13.346788,18.296428 11.335741,16.93384 7.6419804,14.561625 2.2572982,11.171574 1.4118374,10.646239 0.65666856,10.047029 0,9.3739437 V 25.774241 c 0,0.911128 0.35295936,1.690922 1.0506697,2.331173 C 1.74838,28.753875 2.5938408,29.074 3.5706353,29.074 H 36.428688 c 0.985003,0 1.822256,-0.320125 2.519966,-0.968586 0.69771,-0.64846 1.05067,-1.428254 1.05067,-2.331173 V 9.382152 c -0.640252,0.656669 -1.387213,1.255879 -2.232673,1.789422 z m 0,0" />
</svg>
