<svg width="12.3" height="12" version="1.1" viewBox="0 0 12.3 12" xmlns="http://www.w3.org/2000/svg">
	<path d="m6.15 0c-3.4 0-6.15 2.75-6.15 6.15 0 2.72 1.76 5.02 4.21 5.84 0.308 0.0563 0.42-0.134 0.42-0.297 0-0.146-0.00525-0.533-0.00835-1.05-1.71 0.372-2.07-0.825-2.07-0.825-0.28-0.711-0.683-0.9-0.683-0.9-0.559-0.381 0.0423-0.374 0.0423-0.374 0.617 0.0435 0.942 0.634 0.942 0.634 0.549 0.94 1.44 0.668 1.79 0.511 0.0559-0.397 0.215-0.668 0.39-0.822-1.37-0.155-2.8-0.683-2.8-3.04 0-0.671 0.24-1.22 0.633-1.65-0.0634-0.156-0.275-0.781 0.06-1.63 0 0 0.517-0.165 1.69 0.631 0.491-0.137 1.02-0.205 1.54-0.207 0.522 0.00215 1.05 0.0702 1.54 0.207 1.17-0.796 1.69-0.631 1.69-0.631 0.336 0.847 0.125 1.47 0.0612 1.63 0.394 0.43 0.633 0.979 0.633 1.65 0 2.36-1.44 2.88-2.81 3.04 0.221 0.19 0.418 0.565 0.418 1.14 0 0.822-0.0076 1.49-0.0076 1.69 0 0.165 0.111 0.356 0.423 0.296 2.44-0.815 4.2-3.12 4.2-5.84 0-3.4-2.75-6.15-6.15-6.15" stroke-width="1.07"/>
</svg>
