<svg width="186" height="181" viewBox="0 0 186 181" fill="none" xmlns="http://www.w3.org/2000/svg">
<path d="M92.6355 0C70.6351 0.00876405 49.3554 7.83718 32.6027 22.085C15.85 36.3329 4.71709 56.0707 1.19529 77.768C-2.32651 99.4653 1.99252 121.707 13.3799 140.514C24.7673 159.321 42.4802 173.468 63.3502 180.422C67.9678 181.283 69.4702 178.414 69.4702 176.008V158.724C43.6979 164.33 38.3291 147.808 38.3291 147.808C34.1092 137.102 28.0334 134.255 28.0334 134.255C19.6267 128.504 28.6741 128.637 28.6741 128.637C37.9866 129.277 42.8804 138.173 42.8804 138.173C51.1435 152.322 64.5543 148.238 69.8458 145.899C70.6633 139.917 73.0715 135.833 75.7227 133.526C55.1424 131.175 33.5126 123.229 33.5126 87.7665C33.3835 78.5679 36.801 69.6721 43.0571 62.9222C42.096 60.5823 38.9256 51.1677 43.963 38.4199C43.963 38.4199 51.6958 35.9366 69.4481 47.9118C84.6329 43.7471 100.66 43.7471 115.845 47.9118C133.52 35.9366 141.253 38.4199 141.253 38.4199C146.29 51.1677 143.12 60.5933 142.159 62.9222C148.419 69.6689 151.833 78.5678 151.692 87.7665C151.692 123.328 130.018 131.153 109.394 133.449C112.708 136.318 115.746 141.947 115.746 150.589V175.975C115.746 178.436 117.226 181.327 121.932 180.389C142.778 173.416 160.465 159.266 171.832 140.466C183.2 121.666 187.508 99.4406 183.986 77.7598C180.465 56.0791 169.345 36.3551 152.611 22.1108C135.877 7.86643 114.619 0.0295898 92.6355 0Z" fill="#10352B"/>
</svg>
