<?xml version="1.0" encoding="utf-8"?>
<!-- Generator: Adobe Illustrator 27.8.1, SVG Export Plug-In . SVG Version: 6.00 Build 0)  -->
<svg version="1.1" id="Capa_1" xmlns="http://www.w3.org/2000/svg" xmlns:xlink="http://www.w3.org/1999/xlink" x="0px" y="0px"
	 viewBox="0 0 543.17 316.24" style="enable-background:new 0 0 543.17 316.24;" xml:space="preserve">
<style type="text/css">
	.st0{fill:#10352B;}
	.st1{fill:#51CB59;}
	.st2{fill:#A8E6A5;}
	.st3{fill:#DECFF1;}
	.st4{fill:#915FD0;}
	.st5{fill:#C8AFE7;}
	.st6{fill:#80D4F1;}
	.st7{fill:#F3F5F4;}
	.st8{fill:#F2E770;}
	.st9{fill:#FFFFFF;}
	.st10{fill:#F2D54C;}
	.st11{fill-rule:evenodd;clip-rule:evenodd;fill:#F2E770;}
	.st12{fill-rule:evenodd;clip-rule:evenodd;fill:#C8AFE7;}
	.st13{fill-rule:evenodd;clip-rule:evenodd;fill:#915FD0;}
	.st14{fill-rule:evenodd;clip-rule:evenodd;fill:#FD6085;}
	.st15{fill-rule:evenodd;clip-rule:evenodd;fill:#DECFF1;}
	.st16{fill:#00A8E3;}
	.st17{fill:#59A57C;}
	.st18{fill:#7ED4A7;}
	.st19{fill:#EDDFCE;}
	.st20{fill:#DBCBB9;}
	.st21{fill:#FDCE5E;}
	.st22{fill-rule:evenodd;clip-rule:evenodd;fill:#A8E6A5;}
	.st23{fill-rule:evenodd;clip-rule:evenodd;fill:#51CB59;}
	.st24{fill-rule:evenodd;clip-rule:evenodd;fill:#EBFDFF;}
	.st25{fill-rule:evenodd;clip-rule:evenodd;fill:#7DB8B5;}
	.st26{fill-rule:evenodd;clip-rule:evenodd;fill:#9CDAD7;}
	.st27{fill-rule:evenodd;clip-rule:evenodd;fill:#007976;}
	.st28{fill-rule:evenodd;clip-rule:evenodd;fill:#2C4B5F;}
	.st29{fill-rule:evenodd;clip-rule:evenodd;fill:#182F3B;}
</style>
<g>
	<g>
		<path class="st7" d="M502.58,315.77c-3.11,1.71-3.96-1.77-7.35-2.8c-3.4-1.03-3.21-1.64-6.61-2.67c-3.4-1.03-3.73,0.07-7.13-0.96
			c-3.4-1.03-3.06-2.16-6.46-3.19c-3.4-1.03-3.57-0.47-6.97-1.5c-3.4-1.03-3.78,0.24-7.18-0.79c-3.4-1.03-2.93-2.57-6.33-3.6
			c-3.4-1.03-3.11-1.98-6.5-3.01c-3.4-1.03-3.92,0.71-7.32-0.32c-3.4-1.03-3.35-1.19-6.75-2.22c-3.4-1.03-3.36-1.16-6.75-2.19
			c-3.4-1.03-3.52-0.61-6.92-1.64c-3.4-1.03-2.97-2.45-6.37-3.48c-3.4-1.03-3.62-0.3-7.01-1.33c-3.4-1.03-3.21-1.66-6.61-2.68
			c-3.4-1.03-3.57-0.45-6.97-1.48c-3.4-1.03-2.98-2.42-6.38-3.44c-3.4-1.03-3.64-0.22-7.04-1.24c-3.4-1.03-3.93,0.73-7.33-0.3
			c-3.4-1.03-2.79-3.05-6.18-4.08c-3.4-1.03-3.32-1.31-6.71-2.34c-3.4-1.03-3.45-0.85-6.85-1.88c-3.4-1.03-3.59-0.39-6.99-1.42
			c-3.4-1.03-3.8,0.3-7.2-0.73c-3.4-1.03-3.25-1.51-6.65-2.54c-3.4-1.03-2.85-2.85-6.25-3.88c-3.4-1.03-3.86,0.48-7.25-0.55
			c-3.4-1.03-3.65-0.2-7.05-1.22c-3.4-1.03-3.18-1.76-6.58-2.78c-3.4-1.03-3.17-1.8-6.57-2.83c-3.4-1.03-3.94,0.75-7.34-0.28
			c-3.4-1.03-2.89-2.7-6.29-3.73c-3.4-1.03-3.57-0.46-6.97-1.49c-3.4-1.03-3.14-1.9-6.55-2.93c-3.4-1.03-5.33,1.74-7.03-1.39
			c-1.7-3.14,2.41-3.04,3.39-6.48c0.98-3.43-0.43-3.84,0.55-7.27c0.98-3.44,0.47-3.58,1.45-7.02c0.98-3.44,1.1-3.4,2.08-6.84
			c0.98-3.44,2.51-3,3.5-6.43c0.98-3.44-0.67-3.91,0.31-7.34c0.98-3.44,1.5-3.29,2.48-6.72c0.98-3.44,2.14-3.1,3.13-6.54
			c0.98-3.44,1.18-3.38,2.16-6.82c0.98-3.44-0.41-3.83,0.57-7.27c0.98-3.44,0.32-3.63,1.3-7.06c0.98-3.44,0.79-3.49,1.78-6.93
			c0.98-3.43,1.86-3.18,2.84-6.62c0.98-3.44,1.63-3.25,2.61-6.69s1.16-3.39,2.14-6.82c0.98-3.44,0.44-3.59,1.42-7.03
			c0.98-3.44,0.5-3.58,1.48-7.01c0.98-3.44,0.2-3.66,1.19-7.09c0.98-3.44,1.01-3.43,1.99-6.87c0.98-3.44,1.69-3.24,2.67-6.68
			c0.98-3.44-0.45-4.21,2.69-5.94c3.11-1.71,3.09-0.39,6.48,0.63c3.4,1.03,3.41,0.97,6.81,2c3.4,1.03,3.61,0.34,7,1.37
			c3.4,1.03,3.31,1.31,6.71,2.33c3.4,1.03,2.86,2.81,6.26,3.83c3.4,1.03,4-0.96,7.4,0.07c3.4,1.03,2.98,2.39,6.38,3.42
			c3.4,1.03,3.63,0.25,7.03,1.28c3.4,1.03,3.39,1.07,6.78,2.09c3.4,1.03,2.88,2.74,6.28,3.77c3.4,1.03,3.44,0.88,6.84,1.91
			c3.4,1.03,3.31,1.32,6.71,2.35c3.4,1.03,3.95-0.8,7.35,0.23c3.4,1.03,3.46,0.83,6.85,1.86c3.4,1.03,3.15,1.85,6.55,2.87
			c3.4,1.03,3.63,0.27,7.03,1.3c3.4,1.03,3.26,1.5,6.65,2.53c3.4,1.03,3.33,1.26,6.73,2.28c3.4,1.03,3.33,1.25,6.73,2.28
			c3.4,1.03,3.81-0.33,7.21,0.7c3.4,1.03,3.35,1.2,6.75,2.23c3.4,1.03,2.7,3.36,6.1,4.39c3.4,1.03,3.56,0.51,6.96,1.54
			c3.4,1.03,4-0.95,7.4,0.07c3.4,1.03,3.21,1.67,6.61,2.7c3.4,1.03,2.96,2.5,6.36,3.53c3.4,1.03,3.89-0.59,7.29,0.44
			c3.4,1.03,2.96,2.49,6.36,3.52c3.4,1.03,3.9-0.62,7.3,0.41c3.4,1.03,3.27,1.47,6.67,2.5c3.4,1.03,2.94,2.55,6.34,3.58
			c3.4,1.03,3.42,0.97,6.82,2c3.4,1.03,3.94-0.75,7.34,0.28c3.4,1.03,3.6,0.38,7.01,1.41c3.4,1.03,3.38,1.03,5.08,4.15
			c1.7,3.14,1.31,3,0.33,6.44c-0.98,3.43-0.98,3.44-1.96,6.87c-0.98,3.44-2.71,2.94-3.7,6.38c-0.98,3.44,0.43,3.84-0.56,7.27
			c-0.98,3.44-2.99,2.86-3.97,6.3c-0.98,3.44,1.34,4.1,0.36,7.53c-0.98,3.44-0.77,3.5-1.76,6.93c-0.98,3.44-3.56,2.7-4.55,6.14
			c-0.98,3.44,0.21,3.78-0.77,7.21c-0.98,3.44-0.54,3.56-1.52,7c-0.98,3.44-0.6,3.55-1.58,6.98c-0.98,3.44-1.92,3.17-2.91,6.61
			c-0.98,3.43-1.23,3.36-2.21,6.8c-0.98,3.44,0.33,3.81-0.65,7.25c-0.98,3.44-1.33,3.34-2.31,6.77c-0.98,3.44-0.11,3.69-1.09,7.12
			c-0.98,3.44-2.08,3.12-3.07,6.56c-0.98,3.44-0.3,3.63-1.28,7.07c-0.98,3.44-0.63,3.54-1.61,6.98c-0.98,3.44-2.82,2.97-2.9,6.55
			C504.21,312.22,505.72,314.04,502.58,315.77z"/>
	</g>
	<g>
		<path class="st5" d="M420.21,247.7c-0.4,0-0.94,0.08-1.33-0.04c-3.54-1.07-3.31-1.84-6.85-2.92c-3.55-1.07-3.31-1.85-6.85-2.93
			c-3.55-1.07-4.31,1.45-7.85,0.38c-3.55-1.07-3.28-1.94-6.83-3.01c-3.55-1.07-3.33-1.78-6.88-2.85c-3.55-1.07-3.84-0.11-7.38-1.18
			c-3.55-1.07-3.61-0.86-7.16-1.94c-3.54-1.07-2.86-3.34-6.4-4.41c-3.55-1.07-3.9,0.1-7.45-0.97c-3.55-1.07-3.37-1.64-6.92-2.71
			c-3.55-1.07-3.92,0.18-7.47-0.9c-3.55-1.07-3-2.86-6.55-3.94c-3.54-1.07-3.58-0.97-7.12-2.04c-3.55-1.07-4.22,1.14-7.76,0.06
			c-3.55-1.07-3.54-1.12-7.09-2.19c-3.55-1.07-3.23-2.14-6.78-3.21c-2.18-0.66-3.25-2.97-2.59-5.15c0.66-2.18,2.68-3.02,4.86-2.36
			c3.54,1.07,3.97-0.35,7.52,0.72c3.55,1.07,3.51,1.18,7.06,2.25c3.55,1.07,3.32,1.81,6.87,2.89c3.55,1.07,3.66,0.68,7.21,1.75
			c3.55,1.07,3.22,2.14,6.77,3.21c3.55,1.07,3.99-0.38,7.53,0.69c3.55,1.07,3.52,1.17,7.06,2.24c3.54,1.07,2.99,2.91,6.53,3.98
			c3.55,1.07,3.65,0.74,7.19,1.81c3.55,1.07,4.14-0.9,7.69,0.17c3.55,1.07,3.46,1.37,7,2.44c3.55,1.07,2.88,3.27,6.43,4.34
			c3.54,1.07,3.83,0.12,7.38,1.19c3.55,1.07,3.37,1.67,6.91,2.75c3.55,1.07,3.91-0.11,7.46,0.96s3.74,0.44,7.29,1.52
			c2.18,0.66,3.03,3.89,2.37,6.08C423.53,246.2,421.98,247.7,420.21,247.7z"/>
	</g>
	<g>
		<path class="st5" d="M435.89,191.86c-0.4,0-0.74-0.43-1.14-0.55c-3.54-1.07-3.42-1.49-6.96-2.56c-3.55-1.07-3.79-0.27-7.33-1.34
			c-3.55-1.07-3.82-0.16-7.37-1.24c-3.55-1.07-3.46-1.36-7-2.43c-3.55-1.07-3.27-1.99-6.81-3.07c-3.55-1.07-3.76-0.37-7.3-1.44
			c-3.55-1.07-3.77-0.35-7.31-1.42c-3.54-1.07-3.43-1.45-6.97-2.52c-3.55-1.07-3.18-2.26-6.73-3.34s-3.47-1.32-7.01-2.4
			c-3.55-1.07-3.78-0.31-7.32-1.38c-3.55-1.07-3.17-2.31-6.72-3.38c-3.54-1.07-3.94,0.24-7.49-0.84c-3.55-1.07-3.26-2.02-6.81-3.09
			c-3.55-1.07-3.77-0.35-7.32-1.43s-3.39-1.59-6.94-2.67c-2.18-0.66-2.7-2.32-2.04-4.5c0.66-2.18,2.06-3.45,4.24-2.79
			c3.54,1.07,3.45,1.4,6.99,2.47c3.55,1.07,3.56,1.03,7.1,2.1c3.55,1.07,3.67,0.66,7.22,1.73c3.55,1.07,3.6,0.9,7.14,1.97
			c3.55,1.07,3.52,1.15,7.07,2.23c3.55,1.07,3.5,1.24,7.04,2.31c3.55,1.07,3.16,2.35,6.71,3.42c3.54,1.07,4.19-1.07,7.74,0
			c3.55,1.07,2.9,3.2,6.45,4.27c3.55,1.07,3.75,0.38,7.3,1.46c3.55,1.07,4.19-1.05,7.73,0.03c3.55,1.07,2.81,3.51,6.36,4.58
			c3.54,1.07,4.1-0.77,7.65,0.3c3.55,1.07,3.45,1.41,6.99,2.48c3.55,1.07,3.57,1,7.12,2.08c3.55,1.07,3.77,0.34,7.32,1.41
			c2.18,0.66,3.13,4.27,2.47,6.45C439.41,190.57,437.66,191.86,435.89,191.86z"/>
	</g>
	<g>
		<g>
			<path class="st5" d="M484.23,281.61c-2.95,1.58-3.95-0.46-7.15-1.43c-3.2-0.97-2.46-3.41-5.67-4.38
				c-3.2-0.97-3.97,1.54-7.17,0.57c-3.21-0.97-2.51-3.27-5.71-4.24c-3.21-0.97-3.62,0.39-6.83-0.58c-3.21-0.97-5.28,0.93-6.86-2.02
				c-1.58-2.95,0.61-3.78,1.58-6.99c0.97-3.2,1.27-3.11,2.24-6.32c0.97-3.2,2.54-2.73,3.51-5.93c0.97-3.21-0.11-3.53,0.87-6.74
				c0.97-3.21,0.9-3.23,1.87-6.44c0.97-3.21-0.26-3.77,2.7-5.35c2.95-1.58,2.3,1.2,5.5,2.17c3.2,0.97,3.73-0.76,6.94,0.21
				c3.2,0.97,3.38,0.39,6.58,1.37c3.21,0.97,3.26,0.79,6.47,1.76c3.21,0.97,2.65,2.8,5.86,3.77s4.23-1.14,5.81,1.82
				c1.58,2.95,0.16,2.9-0.82,6.1c-0.97,3.2-2.51,2.74-3.48,5.94c-0.97,3.2,0.18,3.55-0.79,6.76c-0.97,3.21-1.95,2.91-2.92,6.12
				c-0.97,3.21,0.49,3.43,0.33,6.78C486.91,278.45,487.19,280.03,484.23,281.61z M456.39,263.35c1.86,3.48,3.45,0.3,7.22,1.45
				c3.78,1.15,3.04,3.58,6.82,4.73c3.78,1.15,3.81,1.74,7.29-0.12c3.48-1.86,2.78-2.28,3.93-6.05c1.15-3.78-0.22-4.2,0.93-7.98
				c1.15-3.78,3.97-3.66,2.11-7.15c-1.86-3.48-3.5-0.53-7.28-1.67c-3.78-1.15-3.69-1.45-7.47-2.59s-4.35-5.65-7.84-3.79
				c-3.48,1.86-0.55,4.69-1.7,8.47c-1.15,3.78-0.44,4.1-2.24,7.62C456.4,259.76,454.53,259.87,456.39,263.35z"/>
		</g>
	</g>
	<g>
		<g>
			<path class="st5" d="M499.92,231.08c-2.95,1.58-3.87-1.82-7.07-2.8c-3.2-0.97-3-1.64-6.21-2.62c-3.2-0.97-3.14-1.16-6.35-2.14
				c-3.21-0.97-3.23-0.88-6.44-1.85c-3.21-0.97-3.39-0.39-6.59-1.36c-3.21-0.97-5.74,1.43-7.32-1.53c-1.58-2.95,0.82-4.02,1.8-7.23
				c0.97-3.2,2.14-2.85,3.11-6.05c0.97-3.2-0.47-3.64,0.5-6.84c0.97-3.21,3.65-2.39,4.63-5.6c0.97-3.21-1.54-3.97-0.56-7.18
				c0.97-3.21,0.22-4.41,3.17-5.99c2.95-1.58,3.52-0.26,6.73,0.71c3.2,0.97,2.66,2.78,5.86,3.75c3.2,0.97,3.78-0.91,6.98,0.06
				c3.21,0.97,3.01,1.61,6.22,2.59c3.21,0.97,3.41,0.3,6.62,1.27c3.21,0.97,4.4,0.3,5.98,3.26c1.58,2.95-1.71,2.95-2.68,6.15
				c-0.97,3.2,1.15,3.85,0.17,7.05c-0.97,3.2-3.71,2.37-4.69,5.57c-0.97,3.21,0.6,3.69-0.37,6.89c-0.97,3.21-2.05,3.01-2.14,6.36
				C501.15,227.65,502.87,229.5,499.92,231.08z M472.26,212.22c1.86,3.48,2.76,1.49,6.53,2.63c3.78,1.15,3.58,1.82,7.36,2.97
				s4.5,4.3,7.99,2.44c3.48-1.86,1.36-4.18,2.51-7.96c1.15-3.78,0.56-3.96,1.71-7.74s3.31-3.56,1.45-7.05
				c-1.86-3.48-3.18-0.57-6.96-1.71c-3.78-1.15-3.43-2.31-7.21-3.46s-3.44-2.82-6.92-0.96c-3.48,1.86-3.14,2.13-4.29,5.91
				c-1.15,3.78,1.87,4.95,0.15,8.51C472.94,209.17,470.4,208.73,472.26,212.22z"/>
		</g>
	</g>
	<g>
		<path class="st5" d="M484.88,213.99c-0.44,0-0.67-0.13-1.1-0.27c-1.18-0.39-3.23-0.34-3.67-1.5c-1.15-3.05-0.76-3.2-1.92-6.24
			c-1.16-3.05-0.28-3.38-1.43-6.43c-1.16-3.05-1.68-2.85-2.83-5.9c-0.81-2.13,0.32-4.86,2.45-5.67c2.13-0.81,5.87,0.08,6.68,2.21
			c1.28,3.39,1.42,3.34,2.7,6.72c1.28,3.39-2.33,6.38,1.07,7.61c3.27,1.18,3.54-1.4,6.47-3.27c2.93-1.87,3.21-1.43,6.13-3.3
			c2.93-1.87,1.92-3.45,4.85-5.32c2.93-1.87,3.71-0.66,6.64-2.53c2.93-1.87,2.44-2.64,5.38-4.51c1.92-1.22,3.47-0.15,4.7,1.77
			c1.22,1.92,0.87,2.71-1.05,3.93c-2.8,1.78-1.74,3.45-4.53,5.23c-2.8,1.79-2.53,2.21-5.33,3.99c-2.8,1.78-3.4,0.83-6.2,2.62
			c-2.8,1.79-3.21,1.14-6.01,2.93c-2.8,1.79-3.18,1.19-5.98,2.98c-2.8,1.79-2.45,2.33-5.25,4.12
			C485.97,213.6,485.66,213.99,484.88,213.99z"/>
	</g>
	<g>
		<path class="st8" d="M180.62,149.19c2.26,2.74,2.49,1.49,5.98,4.18c1.62,1.25,3.02,3.45,5.2,4.99c1.8,1.28,5.16,0.57,7.28,1.94
			c1.91,1.24,2.5,4.86,4.61,6.09c2.01,1.17,4.62,1.46,6.77,2.56c2.1,1.07,4.09,2.53,6.28,3.47c2.18,0.94,4.65,1.33,6.88,2.08
			c2.27,0.76,4.97-0.22,7.26,0.29c2.31,0.52,4.13,2.91,6.28,3.34c2.34,0.47,4.63,0.72,6.78,1.09c2.39,0.42,4.74,0.19,6.86,0.5
			c2.46,0.37,4.86-0.44,6.91-0.19c2.61,0.32,4.61,3.25,6.52,3.42c4.4,0.4,3.41-0.67,6.77-0.05c3.44,0.63,2.95-0.58,6.99,0.7
			c1.94,0.62,3.62,3.23,6.09,3.99c2.12,0.65,4.77,0.09,7.09,0.79c2.21,0.66,4.29,1.97,6.54,2.62c2.29,0.66,4.47,1.72,6.65,2.3
			c2.41,0.65,4.78,1.11,6.86,1.6c2.75,0.65,5.47-0.75,7.22-0.53c2.83,0.36,5.23,1.13,7.43,1.08c3.03-0.07,4.98-1.73,6.92-2.44
			c2.94-1.08,5.31-1.38,6.09-3.43c0.82-2.18,0.46-4.79-0.65-7.39c-0.53-1.24-2.16-3.02-4.35-5.25c-1.42-1.44-3.96-2.07-5.82-3.74
			c-1.61-1.45-2.21-4.24-4.02-5.78c-1.71-1.45-3.73-2.63-5.51-4.09c-1.78-1.46-3.76-2.69-5.51-4.08c-1.86-1.49-3.19-3.53-4.88-4.86
			c-2-1.56-3.48-3.45-5.06-4.66c-3.31-2.54-6.14,0.25-7.06-3.05c-1.01-3.63,1.25-3.41,2.91-7.61c0.81-2.05,1.82-4.46,2.98-6.96
			c1.01-2.18,3.79-3.6,5.05-5.86c1.22-2.19,2.5-4.24,3.94-6.27c1.49-2.12,2.61-4.28,4.31-6c1.87-1.89,3.3-4.07,5.41-5.16
			c2.29-1.19,4.88-2.35,7.42-2.19c1.75,0.53,4.03,1.67,6.76,2.49c2.05,0.62,4.08,2.19,6.54,2.94c2.15,0.65,4.34,1.66,6.71,2.38
			c2.21,0.67,4.62,0.93,6.94,1.64c2.24,0.68,5.02-0.28,7.31,0.42c2.27,0.69,4.5,1.56,6.76,2.25c2.31,0.7,4.28,2.41,6.5,3.08
			c2.35,0.71,4.7,1.16,6.88,1.82c2.41,0.73,4.98,0.5,7.09,1.14c2.56,0.77,4.15,3.82,6.1,4.41c4.23,1.28,5.75,4.32,8.26,1.8
			c2.39-2.4-2.24-3.67-3.39-7.41c-0.6-1.96,0.56-4.91-0.37-7.11c-0.88-2.09-2.02-4.4-3.19-6.24c-1.32-2.07-3.52-3.84-5.22-4.97
			c-1.17-0.78-4.41-0.35-7.12-2.1c-1.75-1.13-2.32-4.7-4.53-6.1c-1.88-1.19-5.26-0.29-7.38-1.61c-1.94-1.21-3.03-3.99-5.11-5.26
			c-1.99-1.21-5.04-0.75-7.1-1.98c-2.03-1.21-3.2-3.92-5.25-5.1c-2.08-1.2-3.86-2.92-5.9-4.05c-2.13-1.18-4.91-1.08-6.94-2.14
			c-2.21-1.16-3.86-3.23-5.88-4.18c-2.36-1.12-4.5-2.41-6.46-3.17c-2.81-1.07-5.52-1.72-7.2-1.8c-1.75-0.09-4.18-0.1-7.14-0.24
			c-2.12-0.1-4.6,1.37-7.21,1.24c-2.23-0.11-4.62-0.11-7.13-0.23c-2.28-0.11-4.57-2.15-7.03-2.27c-2.32-0.12-4.78,1.33-7.21,1.2
			c-2.34-0.12-4.7-0.75-7.1-0.88c-2.36-0.13-4.74-0.39-7.12-0.52c-2.38-0.13-4.82,0.57-7.18,0.43c-2.4-0.14-4.81,0.06-7.15-0.08
			c-2.42-0.14-4.76-1.19-7.08-1.33c-2.45-0.15-4.82-0.5-7.11-0.65c-2.49-0.17-4.78-1.6-7.02-1.76c-2.56-0.19-5.06,0.16-7.45-0.07
			c-2.58-0.24-5.17,0.65-7.53,0.38c-2.61-0.3-4.92-1.85-7.23-2.17c-2.67-0.37-5.33,0.62-7.57,0.26c-2.82-0.45-5.08-2.05-7.13-2.44
			c-4.7-0.89-3.51-1.36-6.77,0.43c-3.14,1.73-1.26,1.44-2.61,5.7c-0.61,1.95-1.66,4.15-2.43,6.74c-0.63,2.12-0.59,4.62-1.27,7.08
			c-0.61,2.2-2.57,4.16-3.18,6.56c-0.57,2.25-1.17,4.59-1.72,6.97c-0.53,2.29-0.61,4.74-1.1,7.1c-0.48,2.33-0.9,4.7-1.31,7.05
			c-0.42,2.36-0.38,4.8-0.7,7.14c-0.34,2.4-0.13,4.82-0.35,7.16c-0.23,2.44-1.85,4.75-1.92,7.07c-0.07,2.49-0.14,4.97,0,7.24
			c0.16,2.53,1.35,4.86,1.81,7.04C179.41,144.48,179.59,147.25,180.62,149.19z"/>
	</g>
	<g>
		<path class="st9" d="M184.7,50.6c3.16-2.18,2.9-0.16,6.68,0.49c3.78,0.65,3.68,1.25,7.46,1.9c3.78,0.65,4.18-1.64,7.96-0.99
			c3.78,0.65,5.73-0.96,8.03,2.12c2.2,2.95-0.74,4.23-1.34,7.85c-0.6,3.63-1.54,3.47-2.13,7.1c-0.6,3.63-0.23,3.68-0.83,7.31
			c-0.6,3.63-0.71,3.61-1.31,7.23c-0.6,3.63,0.21,3.76-0.39,7.38c-0.6,3.63-2.1,3.38-2.69,7.01c-0.59,3.62-0.94,3.57-1.53,7.19
			c-0.6,3.63-0.08,3.71-0.67,7.34c-0.6,3.63-0.29,3.68-0.88,7.3c-0.6,3.63,0.11,3.74-0.48,7.37c-0.6,3.63,0.41,3.79-0.18,7.42
			c-0.6,3.63-0.71,3.61-1.31,7.24c-0.6,3.63-1.16,3.53-1.76,7.16c-0.6,3.63-1.84,3.43-2.43,7.05c-0.6,3.63,2.84,5.84-0.15,7.98
			c-3.24,2.33-4.46-0.56-8.43-0.91c-3.97-0.35-3.86-1.66-7.83-2.01c-3.97-0.35-4.44,2.31-7.17-0.59c-2.41-2.56-0.89-2.73-0.53-6.23
			c0.36-3.5,2.01-3.33,2.37-6.83c0.36-3.5,0.11-3.52,0.47-7.02c0.36-3.5,0-3.53,0.36-7.03c0.36-3.5-0.52-3.59-0.17-7.08
			c0.36-3.5,1.37-3.39,1.73-6.89c0.36-3.5,0.02-3.53,0.38-7.03c0.36-3.5-1.06-3.64-0.7-7.14c0.36-3.5,1.81-3.35,2.17-6.85
			c0.36-3.5-1.28-3.66-0.92-7.16c0.36-3.5,2.1-3.32,2.46-6.82c0.36-3.5,0.56-3.48,0.92-6.98c0.36-3.5-1.53-3.69-1.17-7.19
			c0.36-3.5,0.02-3.53,0.38-7.03c0.36-3.5,3.19-3.39,2.98-6.91C183.8,53.13,181.8,52.59,184.7,50.6z"/>
	</g>
	<g>
		<path class="st4" d="M197.01,42.9c2.08,3.16-1.46,3.31-2,7.05c-0.54,3.74-0.64,3.73-1.18,7.47c-0.54,3.74,0.51,3.89-0.03,7.63
			c-0.54,3.74-1.06,3.67-1.6,7.41c-0.54,3.74,0.39,3.88-0.15,7.62c-0.54,3.74,0.66,3.91,0.12,7.66c-0.54,3.75-2.99,3.39-3.53,7.14
			c-0.54,3.75,0.92,3.96,0.38,7.7c-0.52,3.62-1.81,3.44-2.33,7.06c-0.52,3.62,0.48,3.77-0.05,7.39s-0.27,3.66-0.79,7.28
			c-0.52,3.62-0.4,3.64-0.92,7.26c-0.52,3.62,0.05,3.71-0.47,7.33c-0.52,3.62,0.03,3.7-0.49,7.33c-0.52,3.62-0.65,3.61-1.17,7.23
			c-0.52,3.63-1.97,3.42-2.49,7.04c-0.52,3.63,2.16,5.25-0.57,7.68c-2.65,2.36-3.92,0.09-7.46,0.09c-3.55,0-3.55-0.12-7.09-0.12
			c-3.55,0-3.55-1.32-7.1-1.32c-3.55,0-3.55,0.84-7.09,0.84c-3.55,0-3.55-0.23-7.1-0.23c-3.55,0-3.55,1.25-7.09,1.25
			c-3.55,0-3.55-1.19-7.1-1.19c-3.55,0-3.55-0.69-7.1-0.69c-3.55,0-3.55,1.38-7.1,1.38c-3.55,0-3.55-0.77-7.1-0.76
			c-3.55,0-3.55-0.22-7.1-0.22c-3.55,0-3.55-0.73-7.1-0.73c-3.55,0-3.55,0.82-7.1,0.82c-3.55,0-3.55,0.91-7.1,0.91
			c-3.55,0-3.55,0.37-7.1,0.38c-3.55,0-3.55-1.46-7.1-1.46c-3.55,0-3.55,1.56-7.09,1.56c-3.55,0-3.55,0.15-7.1,0.15
			c-3.55,0-3.55-2.2-7.1-2.2c-3.55,0-3.55,1.53-7.1,1.54c-3.55,0-3.55-0.78-7.1-0.78c-3.55,0-3.55-0.32-7.1-0.32
			c-3.55,0-3.55,0.35-7.1,0.35c-3.55,0-3.55-0.52-7.11-0.52c-3.55,0-5.61,4.45-8.09,1.91c-2.54-2.6,0.9-4.6,0.9-8.23
			c0-3.63,0.45-3.63,0.45-7.27c0-3.63,0.77-3.63,0.77-7.27c0-3.63-0.25-3.63-0.25-7.27c0-3.63,0.06-3.63,0.06-7.27
			c0-3.63-1.77-3.63-1.77-7.27c0-3.63,1.46-3.63,1.46-7.27c0-3.63,0.42-3.63,0.42-7.27c0-3.64-2.44-3.64-2.44-7.27
			c0-3.64,2.59-3.64,2.59-7.27c0-3.64-0.22-3.64-0.22-7.27c0-3.64-0.75-3.64-0.75-7.27c0-3.64-1.05-3.64-1.05-7.27
			c0-3.64,2.01-3.64,2.01-7.27c0-3.63-1.99-3.63-1.99-7.27c0-3.64-0.39-3.64-0.39-7.27c0-3.64,1.99-3.64,1.99-7.27
			c0-3.64-0.94-3.64-0.94-7.27c0-3.64-0.47-3.64-0.47-7.27c0-3.64,0.66-3.64,0.66-7.28c0-3.64,0.69-3.64,0.69-7.27
			c0-3.64-0.56-3.64-0.56-7.28c0-3.64-2.91-4.84-0.11-7.17c2.75-2.28,3.24,1.35,6.73,2.1c3.49,0.75,3.8-0.69,7.29,0.06
			c3.49,0.75,3.07,2.69,6.56,3.44c3.49,0.75,3.98-1.54,7.47-0.79c3.49,0.75,3.33,1.5,6.82,2.25c3.49,0.75,3.16,2.31,6.65,3.06
			c3.49,0.75,4.04-1.82,7.53-1.07c3.49,0.75,3.38,1.26,6.87,2.01c3.49,0.75,3.27,1.75,6.76,2.5c3.49,0.75,3.26,1.83,6.75,2.58
			c3.49,0.75,3.81-0.75,7.3,0c3.49,0.75,3.17,2.26,6.66,3.01c3.49,0.75,3.59,0.28,7.08,1.03c3.49,0.75,3.57,0.37,7.06,1.12
			c3.49,0.75,3.67-0.07,7.16,0.68c3.49,0.75,3.62,0.17,7.11,0.92c3.49,0.75,2.97,3.16,6.46,3.91c3.49,0.75,4.05-1.84,7.54-1.09
			c3.49,0.75,3.17,2.24,6.66,2.99c3.49,0.75,3.29,1.69,6.78,2.44c3.49,0.75,4.07-1.92,7.56-1.17s3.09,2.63,6.58,3.38
			c3.49,0.75,3.64,0.07,7.13,0.82c3.49,0.75,3.47,0.83,6.97,1.59c3.49,0.75,3.65,0,7.14,0.75c3.49,0.75,3.08,2.67,6.57,3.42
			c3.5,0.75,3.6,1.85,7.18,1.94C194,42.69,195.04,39.91,197.01,42.9z"/>
	</g>
	<g>
		<path class="st10" d="M322.95,107.6c-2.86-2.69-3.75,1.89-8.04,2.81c-2.39,0.51-5.2,0.21-7.62,1.37c-2.42,1.16-4.58,2.6-6.09,4.68
			c-1.29,1.77-1.85,4.29-2.49,7.1c-0.55,2.39-0.18,5-0.4,7.59c-0.23,2.7-2.81,5.24-2.82,7.57c-0.02,4.44-2.06,6.2,1.63,7.26
			c3.72,1.06,1.38-2.24,3.36-6.48c0.95-2.04,0.54-5.22,1.89-7.73c1.15-2.15,3.96-3.58,5.37-5.86c1.34-2.15,1.66-5.11,3.21-7.2
			c1.55-2.09,4.55-2.99,6.29-4.84C319.06,111.92,320.94,109.08,322.95,107.6z"/>
	</g>
</g>
</svg>
