<svg width="383" height="443" viewBox="0 0 383 443" fill="none" xmlns="http://www.w3.org/2000/svg">
<path d="M151.568 16.4642C151.537 17.4126 151.506 18.361 151.474 19.3382C151.48 23.1237 151.785 26.9666 153.068 30.5559C155.644 32.2544 156.807 32.1715 159.818 32.0392C160.313 31.0602 160.808 30.0812 161.318 29.0725C164.432 29.5328 166.866 30.576 169.662 31.9928C170.437 32.382 171.212 32.7711 172.011 33.172C174.068 34.2642 174.068 34.2642 176.318 35.7475C176.07 36.4818 175.823 37.216 175.568 37.9725C175.073 37.9725 174.578 37.9725 174.068 37.9725C174.068 38.462 174.068 38.9515 174.068 39.4559C174.81 38.9664 175.553 38.4769 176.318 37.9725C180.704 38.3057 183.146 40.8862 186.068 43.9059C189.788 48.3847 191.869 53.2303 193.568 58.7392C193.823 59.5107 193.823 59.5107 194.083 60.2979C196.88 70.2469 194.899 79.4698 192.208 89.1475C187.457 106.268 183.794 125.752 188.318 143.289C188.989 142.591 189.66 141.893 190.351 141.174C198.981 132.332 198.981 132.332 204.463 129.458C206.63 128.287 208.572 126.904 210.583 125.489C215.62 122.128 220.899 120.123 226.568 118.073C227.63 117.64 228.693 117.207 229.755 116.775C232.646 115.822 235.41 115.243 238.413 114.764C240.141 114.477 241.861 114.143 243.575 113.779C258.249 110.723 275.596 109.966 288.818 118.073C290.318 120.298 290.318 120.298 290.083 121.874C289.568 123.264 289.568 123.264 288.818 124.006C287.072 124.278 285.321 124.527 283.568 124.748C283.32 125.482 283.073 126.216 282.818 126.973C283.723 126.95 283.723 126.95 284.646 126.926C286.568 126.973 286.568 126.973 287.318 127.714C287.083 130.31 287.083 130.31 286.568 132.906C284.536 133.91 282.811 133.696 280.568 133.648C280.568 134.871 280.568 136.095 280.568 137.356C281.295 137.585 282.022 137.815 282.771 138.051C285.068 138.839 285.068 138.839 285.818 139.581C285.958 141.759 285.958 141.759 285.818 144.031C285.323 144.52 284.828 145.01 284.318 145.514C281.599 145.236 281.599 145.236 279.068 144.773C279.366 146.913 279.66 147.607 281.365 149.037C281.844 149.343 282.324 149.649 282.818 149.964C282.162 154.321 282.162 154.321 281.318 155.156C279.882 155.23 278.443 155.252 277.005 155.249C276.22 155.25 275.435 155.252 274.626 155.254C272.509 155.164 270.636 154.839 268.568 154.414C258.516 153.633 248.96 155.722 240.068 160.348C240.315 160.837 240.563 161.327 240.818 161.831C240.303 162.18 239.787 162.529 239.256 162.888C238.581 163.35 237.905 163.812 237.208 164.288C236.538 164.744 235.868 165.2 235.178 165.67C233.647 166.783 232.354 167.874 231.068 169.248C231.782 168.695 232.497 168.142 233.233 167.573C234.183 166.863 235.133 166.155 236.083 165.446C236.553 165.08 237.022 164.714 237.506 164.337C238.83 163.363 240.072 162.522 241.568 161.831C243.378 162.132 243.378 162.132 245.318 163.314C246.335 163.837 247.354 164.356 248.373 164.873C254.8 168.315 260.905 171.746 266.318 176.664C267.204 177.464 267.204 177.464 268.108 178.281C270.926 180.943 273.303 183.54 275.365 186.816C277.778 190.543 280.579 193.794 285.118 194.812C290.777 195.045 296.67 193.768 302.245 192.871C303.051 192.743 303.051 192.743 303.873 192.612C305.547 192.263 305.547 192.263 307.568 190.756C308.863 190.474 310.16 190.196 311.462 189.948C319.114 188.439 324.687 185.022 330.818 180.373C331.497 179.864 332.177 179.355 332.877 178.831C334.448 177.507 335.548 176.29 336.724 174.625C338.348 172.434 339.97 170.251 341.693 168.135C342.284 167.389 342.284 167.389 342.888 166.629C344.956 165.053 346.266 165.213 348.818 165.539C354.116 167.949 358.487 171.824 362.71 175.728C364.564 177.403 366.48 178.937 368.458 180.465C374.449 185.175 380.938 190.631 382.24 198.497C381.747 200.718 381.445 201.333 379.568 202.623C377.23 202.605 377.23 202.605 374.412 202.344C367.485 202.002 363.735 204.972 358.568 209.298C358.171 209.61 357.775 209.923 357.367 210.245C355.189 211.974 353.446 213.622 351.912 215.926C348.081 221.134 343.21 223.73 337.316 226.243C335.582 226.984 333.905 227.776 332.224 228.627C327.345 231.064 322.595 233.065 317.318 234.514C316.12 235.049 316.12 235.049 314.898 235.595C312.096 236.8 309.258 237.434 306.255 237.944C305.728 238.037 305.202 238.13 304.659 238.225C292.497 240.299 280.723 239.992 268.568 238.223C276.086 239.758 283.383 240.845 291.068 241.189C291.068 247.977 288.411 252.861 285.262 258.684C284.225 260.648 283.244 262.634 282.27 264.63C281.918 265.346 281.566 266.063 281.203 266.801C280.517 268.199 279.835 269.6 279.159 271.003C272.99 283.421 262.749 291.033 251.472 298.66C249.84 299.766 248.217 300.883 246.595 302.003C245.56 302.715 244.525 303.427 243.49 304.138C243.03 304.455 242.57 304.773 242.096 305.1C235.751 309.424 229.388 312.984 222.208 315.773C221.485 316.06 220.761 316.346 220.016 316.641C217.952 317.456 215.886 318.262 213.818 319.064C213.057 319.362 213.057 319.362 212.282 319.665C209.554 320.73 206.814 321.757 204.068 322.772C203.217 323.1 202.366 323.428 201.49 323.766C192.063 327.293 183.351 328.268 173.318 327.964C172.456 327.968 171.595 327.972 170.707 327.976C150.571 327.541 130.888 315.902 117.068 302.006C114.458 299.124 111.994 296.139 109.568 293.106C109.25 292.715 108.933 292.325 108.606 291.923C85.7762 263.809 74.8292 228.675 74.9741 192.888C74.9757 192.343 74.9774 191.798 74.9791 191.237C75.019 180.083 75.4865 169.258 77.1772 158.215C77.292 157.448 77.4068 156.68 77.5251 155.889C78.7449 148.446 81.2382 141.831 84.7709 135.177C85.2978 134.143 85.8231 133.107 86.3471 132.071C87.195 130.403 88.0606 128.754 88.9604 127.112C91.8745 121.243 92.3243 115.177 92.9968 108.759C93.6931 102.235 95.01 96.1934 96.8178 89.8892C97.913 85.9678 98.5942 82.1745 99.0209 78.1152C100.812 63.3782 108.093 50.5825 119.558 40.9624C123.447 38.0941 127.735 35.7978 131.974 33.4762C132.528 33.1653 133.081 32.8544 133.652 32.5341C134.179 32.2551 134.706 31.9761 135.249 31.6886C135.956 31.3071 135.956 31.3071 136.676 30.9178C138.068 30.5559 138.068 30.5559 139.697 31.1804C141.068 32.0392 141.068 32.0392 141.818 32.7809C141.369 32.2914 140.921 31.8019 140.458 31.2975C138.124 28.1316 136.862 24.9651 136.24 21.0996C136.791 18.2961 138.641 17.0964 140.927 15.5371C144.679 14.265 148.062 14.7835 151.568 16.4642Z" fill="#F2F4F3"/>
<path d="M212.318 319.806C212.264 320.49 212.21 321.175 212.154 321.88C211.734 327.729 211.488 333.549 211.475 339.413C211.471 340.018 211.468 340.622 211.464 341.245C211.473 344.766 211.714 348.188 212.145 351.682C212.364 353.576 212.444 355.447 212.459 357.353C212.47 357.989 212.48 358.626 212.491 359.282C212.318 361.339 212.318 361.339 211.572 363.703C210.793 366.625 210.589 369.298 210.593 372.293C210.588 373.095 210.588 373.095 210.583 373.914C210.579 375.039 210.578 376.164 210.582 377.289C210.584 378.988 210.566 380.686 210.547 382.385C210.469 391.014 210.469 391.014 213.068 399.164C213.461 399.54 213.853 399.915 214.257 400.302C215.318 401.389 215.318 401.389 215.553 404.031C215.318 406.581 215.318 406.581 213.818 408.064C212.459 408.215 212.459 408.215 210.818 408.249C207.751 408.501 205.959 409.341 203.412 411.031C200.614 412.851 198.789 413.501 195.443 413.58C190.56 413.758 187.381 416.015 183.818 419.189C182.333 420.968 181.322 422.609 180.209 424.659C178.588 427.547 176.46 429.507 174.068 431.797C174.982 431.812 175.897 431.827 176.838 431.842C180.288 431.899 183.738 431.965 187.188 432.033C188.67 432.061 190.152 432.087 191.634 432.11C215.302 432.49 215.302 432.49 222.068 435.506C221.821 436.24 221.573 436.974 221.318 437.731C202.993 444.55 175.715 442.115 156.812 438.559C156.256 438.455 155.7 438.351 155.128 438.243C154.48 437.989 154.48 437.989 153.818 437.731C153.571 436.996 153.323 436.262 153.068 435.506C154.473 435.128 155.88 434.759 157.287 434.393C158.462 434.083 158.462 434.083 159.66 433.767C162.042 433.286 164.147 433.246 166.568 433.281C166.587 428.027 166.6 422.773 166.61 417.518C166.613 415.73 166.618 413.941 166.625 412.153C166.634 409.587 166.638 407.02 166.642 404.454C166.645 403.651 166.649 402.847 166.653 402.019C166.653 401.277 166.653 400.535 166.654 399.77C166.655 399.114 166.657 398.459 166.659 397.784C166.672 396.158 166.672 396.158 165.818 394.714C165.51 391.023 165.688 387.512 166.568 383.913C167.368 380.385 167.462 376.99 167.459 373.391C167.459 372.856 167.46 372.321 167.46 371.77C167.429 368.707 167.099 365.833 166.568 362.822C166.306 358.183 166.378 353.707 167.318 349.148C168.668 342.202 168.192 335.006 168.068 327.964C168.494 327.949 168.92 327.935 169.359 327.919C182.869 327.431 194.66 326.234 207.162 320.686C209.318 319.806 209.318 319.806 212.318 319.806Z" fill="#51CB5A"/>
<path d="M26.3186 115.106C28.1873 115.558 29.9812 116.112 31.8017 116.725C33.7288 117.304 35.5596 117.649 37.5481 117.948C42.5973 118.825 47.3484 120.382 52.1936 122.012C53.0531 122.293 53.9126 122.574 54.7981 122.863C62.5076 125.426 69.7445 128.721 76.9905 132.349C77.513 132.609 78.0356 132.87 78.574 133.137C79.9062 133.801 81.2374 134.466 82.5686 135.131C83.0636 135.375 83.5586 135.62 84.0686 135.872C83.7448 138.354 82.9932 140.301 81.886 142.518C80.0491 146.546 79.3528 150.58 78.678 154.924C78.4931 156.043 78.4931 156.043 78.3044 157.185C78.0689 158.616 77.8378 160.047 77.6119 161.48C77.388 162.88 77.1403 164.277 76.8821 165.672C76.4658 168.45 76.3289 171.219 76.1936 174.022C76.0046 177.915 75.6844 181.712 75.0686 185.564C72.0417 183.752 69.5791 181.714 67.0061 179.306C64.0211 176.597 61.2298 174.815 57.5438 173.196C55.5402 172.2 53.891 171.053 52.1028 169.72C48.1989 166.976 44.25 165.263 39.7717 163.638C38.6524 163.218 38.6524 163.218 37.5104 162.789C32.393 160.88 27.2451 159.045 22.0557 157.336C19.924 156.621 18.0455 155.883 16.1262 154.71C13.9977 153.488 12.2984 153.228 9.86548 152.931C3.63675 151.998 3.63675 151.998 0.818606 149.964C-0.0720188 148.203 -0.0720188 148.203 0.0686062 146.256C1.66236 144.17 1.66236 144.17 3.81861 142.547C5.92798 142.316 5.92798 142.316 7.56861 142.547C6.52361 140.05 5.33441 138.849 3.06861 137.356C3.72486 133.74 3.72486 133.74 4.56861 132.906C5.70463 132.734 6.84676 132.6 7.99048 132.488C8.92006 132.395 8.92006 132.395 9.86841 132.3C10.347 132.255 10.8255 132.21 11.3186 132.164C11.0817 131.715 10.8449 131.265 10.6008 130.802C9.73103 129.018 9.32957 127.45 9.06861 125.489C9.3161 125 9.56361 124.51 9.81861 124.006C11.5325 123.699 11.5325 123.699 13.6155 123.542C14.6495 123.459 14.6495 123.459 15.7043 123.374C16.5034 123.32 16.5034 123.32 17.3186 123.264C17.1484 122.331 16.9783 121.398 16.803 120.436C16.4449 118.473 16.3057 117.709 17.4651 116.041C20.106 114.216 23.2369 114.776 26.3186 115.106Z" fill="#51CB5A"/>
<path d="M174.115 1.63116C178.101 4.34036 180.719 7.74941 182.553 12.1536C184.015 20.1735 185.196 28.1536 180.37 35.18C178.962 36.9333 177.465 38.2393 175.568 39.4562C175.073 39.4562 174.578 39.4562 174.068 39.4562C174.068 37.9728 174.068 37.9728 175.193 36.7676C175.565 36.4311 175.936 36.0946 176.318 35.7478C175.794 35.5499 175.27 35.352 174.731 35.1481C172.414 34.2014 170.207 33.1193 167.975 31.9931C165.753 30.873 163.684 29.8527 161.318 29.0728C161.21 29.547 161.102 30.0212 160.99 30.5098C160.568 32.0395 160.568 32.0395 159.818 32.7812C156.956 33.1671 155.66 32.9989 153.209 31.4369C150.401 27.3914 150.575 22.9403 151.147 18.1796C151.286 17.6136 151.425 17.0476 151.568 16.4645C146.75 15.3094 142.702 15.4179 138.068 17.2062C136.809 22.9124 138.163 26.3195 141.189 31.2254C141.873 32.2558 142.591 33.2633 143.318 34.2645C140.635 33.3801 140.274 32.6655 138.772 30.3707C138.202 29.516 138.202 29.516 137.62 28.6441C136.061 25.9813 135.034 23.9742 135.162 20.8681C136.134 17.642 137.908 16.4041 140.553 14.4249C143.179 13.2168 144.945 13.1987 147.818 13.4978C150.397 14.6103 150.397 14.6103 152.318 15.7228C152.396 15.0804 152.473 14.4379 152.553 13.776C153.454 9.40328 155.565 5.27953 159.068 2.37283C163.979 -0.0642822 169.155 -1.11884 174.115 1.63116Z" fill="#915FD0"/>
<path d="M174.115 1.63116C178.101 4.34036 180.719 7.74941 182.553 12.1536C183.306 16.2869 183.576 20.4331 183.818 24.6228C182.136 22.1267 181.861 20.4201 181.334 17.4843C180.144 11.7883 178.668 7.36007 174.162 3.48533C170.266 1.63593 167.246 1.27687 163.1 2.41919C159.871 3.64095 157.653 5.22089 156.068 8.30616C155.144 10.9926 154.432 13.6935 153.818 16.4645C154.348 16.9621 154.348 16.9621 154.888 17.4698C161.397 23.7204 161.397 23.7204 161.553 28.4702C161.318 31.2978 161.318 31.2978 159.818 32.7812C156.937 33.2244 155.677 33.0096 153.209 31.4369C150.401 27.3914 150.575 22.9403 151.147 18.1796C151.286 17.6136 151.425 17.0476 151.568 16.4645C146.75 15.3094 142.702 15.4179 138.068 17.2062C136.809 22.9124 138.163 26.3195 141.189 31.2254C141.873 32.2558 142.591 33.2633 143.318 34.2645C140.635 33.3801 140.274 32.6655 138.772 30.3707C138.202 29.516 138.202 29.516 137.62 28.6441C136.061 25.9813 135.034 23.9742 135.162 20.8681C136.134 17.642 137.908 16.4041 140.553 14.4249C143.179 13.2168 144.945 13.1987 147.818 13.4978C150.397 14.6103 150.397 14.6103 152.318 15.7228C152.396 15.0804 152.473 14.4379 152.553 13.776C153.454 9.40328 155.565 5.27953 159.068 2.37283C163.979 -0.0642821 169.155 -1.11884 174.115 1.63116Z" fill="#345D49"/>
<path d="M151.568 16.4645C151.568 20.1357 151.568 23.807 151.568 27.5895C145.628 28.6909 145.628 28.6909 139.568 29.8145C135.916 22.2527 135.916 22.2527 136.568 19.4312C140.8 14.1998 145.454 14.0461 151.568 16.4645Z" fill="#915FD0"/>
<path d="M347.318 221.906C347.813 221.906 348.308 221.906 348.818 221.906C348.818 222.396 348.818 222.885 348.818 223.39C334.448 234.444 313.368 241.49 295.146 241.236C294.194 241.226 294.194 241.226 293.222 241.216C292.527 241.203 292.527 241.203 291.818 241.19C291.447 242.291 291.447 242.291 291.068 243.415C291.068 242.68 291.068 241.946 291.068 241.19C290.14 241.228 290.14 241.228 289.193 241.268C283.99 241.388 279.161 241.119 274.053 240.17C273.541 240.076 273.029 239.983 272.501 239.886C270.018 239.392 268.456 238.891 266.318 237.481C273.983 238.136 273.983 238.136 277.381 238.64C286.013 239.718 294.526 238.775 303.068 237.481C305.145 237.179 307.224 236.888 309.303 236.601C310.228 236.468 311.153 236.335 312.106 236.198C314.318 235.998 314.318 235.998 315.818 236.74C317.67 236.272 319.411 235.743 321.209 235.117C321.758 234.927 322.306 234.736 322.872 234.54C336.034 229.741 336.034 229.741 347.318 221.906Z" fill="#BAE9BD"/>
<path d="M153.068 17.9473C156.875 20.8559 160.218 23.536 160.896 28.516C160.788 29.1891 160.68 29.8621 160.568 30.5556C158.318 32.0389 158.318 32.0389 156.443 31.9462C154.116 31.1407 153.566 30.4114 152.318 28.3306C152.072 26.3345 152.072 26.3345 152.131 24.2051C152.142 23.5005 152.154 22.7959 152.166 22.0699C152.318 20.1723 152.318 20.1723 153.068 17.9473Z" fill="#915FD0"/>
<path d="M252.818 155.897C254.225 157.381 254.225 157.381 255.068 158.864C254.397 158.973 253.726 159.082 253.035 159.194C243.657 160.915 237.604 164.849 230.318 170.731C230.318 169.996 230.318 169.262 230.318 168.506C231.916 167.128 233.486 165.888 235.193 164.658C235.658 164.315 236.123 163.971 236.603 163.617C237.753 162.768 238.91 161.928 240.068 161.089C239.821 160.6 239.573 160.11 239.318 159.606C240.72 158.978 242.127 158.362 243.537 157.752C244.32 157.407 245.103 157.063 245.91 156.709C248.449 155.853 250.164 155.515 252.818 155.897Z" fill="#BBE9BE"/>
<path d="M153.068 26.8477C155.296 27.0924 157.523 27.3372 159.818 27.5893C159.818 28.8131 159.818 30.0368 159.818 31.2977C157.709 31.8076 157.709 31.8076 155.318 32.0393C153.912 31.1586 153.912 31.1586 153.068 29.8143C153.068 28.8353 153.068 27.8563 153.068 26.8477Z" fill="#E3EBE5"/>
<path d="M143.922 76.212C145.568 76.5394 145.568 76.5394 147.865 78.0227C149.845 81.0547 149.732 82.6205 149.318 86.181C148.823 86.6705 148.328 87.16 147.818 87.6644C147.862 87.2169 147.905 86.7695 147.95 86.3085C148.195 82.3936 148.195 82.3936 146.318 79.0425C143.154 77.6085 141.44 77.9863 138.068 78.7644C137.821 79.2539 137.573 79.7434 137.318 80.2477C136.823 80.003 136.328 79.7582 135.818 79.506C138.108 76.3562 140.205 76.024 143.922 76.212Z" fill="#3A5950"/>
<path d="M250.568 155.573C252.818 155.898 252.818 155.898 254.225 157.381C254.642 158.115 254.642 158.115 255.068 158.864C253.992 159.03 252.913 159.182 251.834 159.328C251.234 159.414 250.633 159.5 250.015 159.589C248.318 159.606 248.318 159.606 246.068 158.123C247.49 156.248 248.173 155.919 250.568 155.573Z" fill="#B2E7B6"/>
<path d="M152.318 14.2393C154.108 16.4367 155.87 18.6468 157.568 20.9143C154.535 19.5945 151.973 17.6544 149.318 15.7226C149.813 15.4778 150.308 15.2331 150.818 14.9809C151.313 15.2257 151.808 15.4704 152.318 15.7226C152.318 15.2331 152.318 14.7436 152.318 14.2393Z" fill="#214839"/>
<path d="M122.395 64.8341C124.041 65.1615 124.041 65.1615 126.338 66.6448C128.318 69.6768 128.204 71.2426 127.791 74.8031C127.296 75.2926 126.801 75.7821 126.291 76.2865C126.335 75.839 126.378 75.3916 126.423 74.9306C126.668 71.0157 126.668 71.0157 124.791 67.6646C121.627 66.2306 119.913 66.6084 116.541 67.3865C116.294 67.876 116.046 68.3655 115.791 68.8698C115.296 68.625 114.801 68.3803 114.291 68.1281C116.58 64.9783 118.677 64.646 122.395 64.8341Z" fill="#3A5950"/>
<path d="M120.206 111.439C117.916 110.577 117.916 110.577 114.933 108.562C112.724 105.44 113.211 104.245 114.538 101.583C115.349 101.377 116.159 101.172 116.993 100.961C116.839 101.298 116.684 101.636 116.524 101.984C115.364 104.988 115.364 104.988 117.359 108.324C121.594 110.617 124.127 110.947 129.117 111.568C129.572 111.272 130.028 110.976 130.498 110.671C131.156 111.046 131.814 111.421 132.493 111.807C128.562 113.457 125.49 112.95 120.206 111.439Z" fill="#3A5950"/>
</svg>
