<svg width="459" height="206" viewBox="0 0 459 206" fill="none" xmlns="http://www.w3.org/2000/svg">
<g clip-path="url(#clip0_2404_307)">
<path fill-rule="evenodd" clip-rule="evenodd" d="M119.253 25.2819C120.687 23.8269 121.034 24.8408 123.08 24.8408C125.124 24.8408 125.124 25.3066 127.171 25.3066C129.218 25.3066 129.218 24.9257 131.265 24.9257C133.312 24.9257 133.661 23.8241 135.097 25.2765C136.556 26.7535 135.65 27.0905 135.65 29.1649C135.65 31.2366 135.63 31.2366 135.63 33.3082C135.63 35.3799 135.356 35.3799 135.356 37.4515C135.356 39.5232 135.144 39.5232 135.144 41.5948C135.144 43.6665 134.996 43.6665 134.996 45.7382C134.996 47.8098 136.556 48.1523 135.1 49.6294C133.666 51.0844 133.314 49.9746 131.268 49.9746C129.223 49.9746 129.223 49.6458 127.177 49.6458C125.13 49.6458 125.13 50.2377 123.083 50.2377C121.036 50.2377 120.501 51.2626 119.064 49.8102C117.605 48.3332 118.849 47.8098 118.849 45.7382C118.849 43.6665 119.374 43.6665 119.374 41.5948C119.374 39.5232 119.05 39.5232 119.05 37.4515C119.05 35.3799 118.819 35.3799 118.819 33.3082C118.819 31.2366 119.391 31.1982 119.02 29.1594C118.646 27.1234 117.797 26.7562 119.253 25.2819Z" fill="#DECFF1"/>
<path fill-rule="evenodd" clip-rule="evenodd" d="M150.815 60.8537C149.848 59.1219 149.323 59.5685 147.625 58.5355C145.928 57.5024 145.592 58.0532 143.895 57.0201C142.199 55.987 142.345 55.7459 140.65 54.7128C138.952 53.6797 139.224 53.2385 137.526 52.2054C135.831 51.1723 135.776 51.2628 134.078 50.2297C132.38 49.1966 132.177 49.5282 130.482 48.4951C128.784 47.462 128.671 47.6483 126.973 46.6152C125.275 45.5822 125.52 45.1848 123.822 44.1517C122.124 43.1186 122.229 42.9487 120.531 41.9157C118.833 40.8826 118.52 41.395 116.825 40.3619C115.127 39.3288 115.231 39.1562 113.536 38.1231C111.838 37.09 111.8 37.1558 110.102 36.1227C108.404 35.0896 108.426 35.054 106.728 34.0209C105.03 32.9878 105.192 32.722 103.497 31.6889C101.802 30.6558 101.571 31.0313 99.8759 29.9954C98.178 28.9623 98.428 28.5568 96.7301 27.5237C95.0322 26.4906 94.8619 26.7674 93.164 25.7343C91.4661 24.7012 91.4606 24.7094 89.7655 23.6763C88.0676 22.6432 88.0071 22.7392 86.3093 21.7061C84.6114 20.673 85.0043 19.7495 83.0152 19.7495C81.0535 19.7495 81.2376 20.325 79.5699 21.3581C77.9023 22.3911 77.8391 22.287 76.1714 23.3201C74.5065 24.3532 74.7318 24.7176 73.0669 25.7507C71.3992 26.7838 71.4294 26.8304 69.7617 27.8635C68.0968 28.8966 68.0584 28.839 66.3934 29.8721C64.7258 30.9052 64.778 30.9901 63.1131 32.0232C61.4454 33.0563 61.1899 32.648 59.525 33.6811C57.8573 34.7142 58.0799 35.0704 56.4122 36.1035C54.7445 37.1366 54.5577 36.8352 52.89 37.8683C51.2224 38.9013 51.3845 39.1617 49.7195 40.1948C48.0519 41.2278 48.1123 41.3238 46.4447 42.3568C44.777 43.3899 44.8319 43.4776 43.1643 44.5107C41.4966 45.5438 41.5488 45.626 39.8812 46.6591C38.2135 47.6922 38.0706 47.462 36.403 48.4951C34.7353 49.5282 34.8589 49.7255 33.1913 50.7585C31.5236 51.7916 31.2983 51.4299 29.6306 52.463C27.963 53.4961 27.8256 53.2769 26.1579 54.31C24.4903 55.343 24.8584 55.9322 23.1908 56.9653C21.5231 57.9984 21.339 57.7052 19.6714 58.741C18.0037 59.7741 17.5559 59.2425 16.6135 60.9634C15.6464 62.7254 16.7371 62.8185 16.7371 64.8272C16.7371 66.8358 16.663 66.8358 16.663 68.8444C16.663 70.853 16.1245 70.853 16.1245 72.8617C16.1245 74.8703 16.2069 74.8703 16.2069 76.8789C16.2069 78.8875 16.0585 78.8875 16.0585 80.8962C16.0585 82.9048 16.5448 82.9048 16.5448 84.9134C16.5448 86.922 16.4761 86.922 16.4761 88.9307C16.4761 90.9393 16.7289 90.9393 16.7289 92.9479C16.7289 94.9565 16.4789 94.9566 16.4789 96.9652C16.4789 98.9738 16.2234 98.9738 16.2234 100.982C16.2234 102.991 16.5503 102.991 16.5503 105C16.5503 107.008 16.3141 107.008 16.3141 109.017C16.3141 111.026 16.358 111.026 16.358 113.034C16.358 115.043 16.6465 115.043 16.6465 117.051C16.6465 119.06 15.9239 119.06 15.9239 121.069C15.9239 123.077 16.0118 123.077 16.0118 125.086C16.0118 127.095 16.3305 127.095 16.3305 129.103C16.3305 131.112 16.2811 131.112 16.2811 133.12C16.2811 135.129 16.4624 135.129 16.4624 137.138C16.4624 139.146 16.3086 139.146 16.3086 141.155C16.3086 143.164 16.4102 143.164 16.4102 145.172C16.4102 147.181 16.0063 147.181 16.0063 149.192C16.0063 151.201 16.5119 151.201 16.5119 153.209C16.5119 155.218 15.9954 155.218 15.9954 157.229C15.9954 159.238 16.5915 159.238 16.5915 161.247C16.5915 163.258 16.3278 163.258 16.3278 165.267C16.3278 167.278 14.8469 167.922 16.2591 169.355C17.6438 170.764 18.3087 169.081 20.2868 169.081C22.2649 169.081 22.2649 169.394 24.243 169.394C26.2211 169.394 26.2211 169.533 28.1993 169.533C30.1774 169.533 30.1774 169.278 32.1555 169.278C34.1336 169.278 34.1336 169.125 36.1117 169.125C38.0899 169.125 38.0899 168.92 40.068 168.92C42.0461 168.92 42.0461 169.352 44.0242 169.352C46.0023 169.352 46.0023 168.911 47.9804 168.911C49.9586 168.911 49.9586 169.147 51.9367 169.147C53.9148 169.147 53.9148 169.435 55.8929 169.435C57.8711 169.435 57.871 169.695 59.8492 169.695C61.8273 169.695 61.8273 169.555 63.8054 169.555C65.7835 169.555 65.7835 168.969 67.7644 168.969C69.7425 168.969 69.7425 169.029 71.7206 169.029C73.6987 169.029 73.6988 169.492 75.6769 169.492C77.655 169.492 77.655 168.9 79.6331 168.9C81.6112 168.9 81.6112 168.999 83.5894 168.999C85.5675 168.999 85.5675 168.991 87.5456 168.991C89.5237 168.991 89.5237 169.163 91.5018 169.163C93.4799 169.163 93.48 168.955 95.4581 168.955C97.4362 168.955 97.4362 169.509 99.4171 169.509C101.395 169.509 101.395 169.465 103.373 169.465C105.351 169.465 105.351 168.884 107.33 168.884C109.308 168.884 109.308 169.591 111.286 169.591C113.264 169.591 113.264 169.194 115.245 169.194C117.223 169.194 117.223 169.309 119.201 169.309C121.179 169.309 121.179 168.933 123.16 168.933C125.138 168.933 125.138 169.553 127.119 169.553C129.097 169.553 129.097 169.38 131.078 169.38C133.056 169.38 133.056 169.635 135.034 169.635C137.012 169.635 137.012 169.278 138.993 169.278C140.971 169.278 140.971 169.298 142.949 169.298C144.93 169.298 144.93 169.251 146.908 169.251C148.889 169.251 149.518 170.739 150.909 169.331C152.321 167.897 150.678 167.284 150.678 165.275C150.678 163.266 151.068 163.266 151.068 161.258C151.068 159.249 150.681 159.249 150.681 157.24C150.681 155.232 151.032 155.232 151.032 153.223C151.032 151.215 150.815 151.215 150.815 149.206C150.815 147.197 151.068 147.197 151.068 145.189C151.068 143.18 151.131 143.18 151.131 141.171C151.131 139.163 151.15 139.163 151.15 137.154C151.15 135.146 150.752 135.146 150.752 133.137C150.752 131.128 150.997 131.128 150.997 129.12C150.997 127.111 151.211 127.111 151.211 125.102C151.211 123.094 150.76 123.094 150.76 121.085C150.76 119.077 150.494 119.077 150.494 117.068C150.494 115.059 151.06 115.059 151.06 113.051C151.06 111.042 150.595 111.042 150.595 109.033C150.595 107.025 151.079 107.025 151.079 105.016C151.079 103.008 150.692 103.008 150.692 100.999C150.692 98.9902 150.969 98.9902 150.969 96.9816C150.969 94.973 150.722 94.973 150.722 92.9644C150.722 90.9557 151.156 90.9557 151.156 88.9471C151.156 86.9385 150.579 86.9385 150.579 84.9299C150.579 82.9212 151.225 82.9212 151.225 80.9099C151.225 78.9012 150.851 78.9012 150.851 76.8926C150.851 74.884 151.258 74.884 151.258 72.8726C151.258 70.864 151.073 70.864 151.073 68.8554C151.073 66.844 150.681 66.8385 150.969 64.8491C151.285 62.8158 151.793 62.6103 150.815 60.8537Z" fill="#A8E6A5"/>
<path fill-rule="evenodd" clip-rule="evenodd" d="M151.345 174.43C149.925 175.819 149.274 174.233 147.285 174.233C145.296 174.233 145.296 173.945 143.307 173.945C141.317 173.945 141.317 174.592 139.328 174.592C137.339 174.592 137.339 174.307 135.35 174.307C133.361 174.307 133.361 174.57 131.372 174.57C129.383 174.57 129.383 174.389 127.394 174.389C125.405 174.389 125.405 174.608 123.415 174.608C121.426 174.608 121.426 174.301 119.437 174.301C117.448 174.301 117.448 173.956 115.459 173.956C113.47 173.956 113.47 174.164 111.481 174.164C109.492 174.164 109.492 174.279 107.503 174.279C105.513 174.279 105.513 174.093 103.524 174.093C101.535 174.093 101.535 174.293 99.5434 174.293C97.5543 174.293 97.5543 174.74 95.5651 174.74C93.576 174.74 93.576 174.34 91.5869 174.34C89.5978 174.34 89.5978 174.282 87.6087 174.282C85.6196 174.282 85.6196 174.194 83.6305 174.194C81.6414 174.194 81.6414 174.625 79.6523 174.625C77.6632 174.625 77.6632 174.466 75.6741 174.466C73.6849 174.466 73.6849 174.726 71.6958 174.726C69.7067 174.726 69.7067 174.553 67.7149 174.553C65.7258 174.553 65.7258 174.668 63.7367 174.668C61.7475 174.668 61.7475 174.348 59.7584 174.348C57.7693 174.348 57.7693 174.496 55.7802 174.496C53.7911 174.496 53.7911 174.159 51.7992 174.159C49.8101 174.159 49.8101 174.172 47.821 174.172C45.8319 174.172 45.8319 174.06 43.8401 174.06C41.851 174.06 41.851 174.123 39.8591 174.123C37.87 174.123 37.87 174.416 35.8781 174.416C33.889 174.416 33.889 174.304 31.8999 174.304C29.9108 174.304 29.9108 174.12 27.9189 174.12C25.9298 174.12 25.9298 174.638 23.9407 174.638C21.9489 174.638 21.9489 173.983 19.9598 173.983C17.9679 173.983 17.3223 175.808 15.8991 174.419C14.5062 173.057 16.0228 172.394 16.0228 170.446C16.0228 168.497 14.8057 168.141 16.1986 166.776C17.619 165.387 17.9652 166.902 19.9543 166.902C21.9434 166.902 21.9434 166.215 23.9325 166.215C25.9216 166.215 25.9216 166.938 27.9107 166.938C29.8998 166.938 29.8998 166.445 31.8889 166.445C33.878 166.445 33.878 166.231 35.8671 166.231C37.8563 166.231 37.8563 166.831 39.8454 166.831C41.8345 166.831 41.8345 166.941 43.8236 166.941C45.8127 166.941 45.8127 166.206 47.8018 166.206C49.7909 166.206 49.7909 166.716 51.78 166.716C53.7691 166.716 53.7691 166.927 55.7582 166.927C57.7473 166.927 57.7473 166.365 59.7365 166.365C61.7256 166.365 61.7256 166.713 63.7147 166.713C65.7038 166.713 65.7038 166.524 67.6956 166.524C69.6847 166.524 69.6847 166.552 71.6739 166.552C73.663 166.552 73.663 166.733 75.6521 166.733C77.6412 166.733 77.6412 166.256 79.6303 166.256C81.6194 166.256 81.6194 166.363 83.6085 166.363C85.5976 166.363 85.5976 166.294 87.5867 166.294C89.5758 166.294 89.5758 166.308 91.5649 166.308C93.5541 166.308 93.5541 166.448 95.5432 166.448C97.5323 166.448 97.5323 166.505 99.5241 166.505C101.513 166.505 101.513 166.319 103.502 166.319C105.491 166.319 105.491 166.226 107.481 166.226C109.47 166.226 109.47 166.258 111.459 166.258C113.448 166.258 113.448 166.834 115.44 166.834C117.429 166.834 117.429 166.941 119.418 166.941C121.407 166.941 121.407 166.878 123.399 166.878C125.388 166.878 125.388 166.453 127.38 166.453C129.369 166.453 129.369 166.9 131.361 166.9C133.35 166.9 133.35 166.209 135.339 166.209C137.328 166.209 137.328 166.173 139.32 166.173C141.309 166.173 141.309 166.565 143.298 166.565C145.29 166.565 145.29 166.697 147.279 166.697C149.268 166.697 149.68 165.321 151.101 166.713C152.494 168.075 150.678 168.579 151.109 170.478C151.579 172.561 152.738 173.065 151.345 174.43Z" fill="#51CB59"/>
<path fill-rule="evenodd" clip-rule="evenodd" d="M0.0106234 67.6193C0.178214 65.6353 1.81291 66.8411 3.48607 65.7532C5.15923 64.668 4.90372 64.2762 6.57688 63.1883C8.25004 62.1031 8.42313 62.3689 10.0963 61.281C11.7694 60.1959 11.6431 60.0013 13.3162 58.9134C14.9894 57.8283 14.9262 57.7324 16.5994 56.6445C18.2725 55.5593 18.267 55.5511 19.9402 54.466C21.6133 53.3808 21.5227 53.241 23.1958 52.1559C24.869 51.0707 25.0503 51.3475 26.7207 50.2596C28.3939 49.1745 28.2263 48.9196 29.9022 47.8317C31.5754 46.7466 31.7182 46.9631 33.3914 45.8779C35.0645 44.7928 34.864 44.4831 36.5371 43.3979C38.2103 42.3128 38.2405 42.3594 39.9164 41.2715C41.5896 40.1863 41.911 40.6796 43.5842 39.5917C45.2574 38.5065 45.2436 38.4846 46.9168 37.3967C48.5899 36.3116 48.6586 36.413 50.3318 35.3278C52.0049 34.2427 51.7412 33.8371 53.4171 32.752C55.0903 31.6668 54.9639 31.4722 56.637 30.3843C58.3102 29.2992 58.3294 29.3266 60.0026 28.2387C61.6757 27.1536 62.0714 27.7564 63.7445 26.6685C65.4177 25.5834 65.349 25.4738 67.0222 24.3886C68.6953 23.3035 68.7173 23.3363 70.3905 22.2512C72.0636 21.1633 71.8109 20.7742 73.484 19.689C75.1572 18.6039 75.4044 18.982 77.0776 17.8941C78.7535 16.8063 78.6024 16.5788 80.2783 15.4909C81.9542 14.403 81.6163 13 83.6136 13C85.611 13 85.3335 14.3153 87.0067 15.4005C88.6798 16.4856 88.787 16.3212 90.4601 17.4064C92.1333 18.4915 92.0289 18.6559 93.7021 19.7411C95.3752 20.8262 95.1829 21.1195 96.8588 22.2073C98.532 23.2925 98.7627 22.939 100.436 24.0269C102.109 25.112 102.018 25.2518 103.692 26.337C105.365 27.4221 105.299 27.5235 106.972 28.6086C108.645 29.6938 108.574 29.8034 110.244 30.8913C111.917 31.9765 111.923 31.9682 113.596 33.0561C115.269 34.1413 115.39 33.9577 117.063 35.0428C118.736 36.128 118.896 35.8868 120.569 36.972C122.242 38.0571 121.959 38.4901 123.632 39.578C125.305 40.6631 125.267 40.7207 126.94 41.8086C128.613 42.8937 128.709 42.7458 130.382 43.8337C132.056 44.9188 132.341 44.4831 134.014 45.5683C135.688 46.6534 135.487 46.9603 137.163 48.0482C138.836 49.1334 138.96 48.9443 140.633 50.0322C142.306 51.1173 141.963 51.6462 143.636 52.7341C145.309 53.8192 145.548 53.4548 147.221 54.5399C148.894 55.6251 148.842 55.7073 150.515 56.7924C152.188 57.8776 151.996 58.1763 153.669 59.2614C155.342 60.3493 155.777 59.6834 157.452 60.7713C159.126 61.8565 158.947 62.1333 160.62 63.2212C162.296 64.309 162.15 64.531 163.824 65.6162C165.5 66.704 166.821 65.6545 166.989 67.6412C167.14 69.4197 165.568 68.2523 164.068 69.2251C162.568 70.1979 162.87 70.661 161.37 71.6338C159.87 72.6066 160.073 73.6698 158.285 73.626C156.348 73.5767 156.521 72.6258 154.897 71.5735C153.274 70.5213 153.642 69.9595 152.018 68.9045C150.394 67.8522 150.12 68.2742 148.496 67.2192C146.872 66.167 146.74 66.367 145.117 65.3147C143.493 64.2625 143.518 64.2268 141.894 63.1746C140.27 62.1223 140.573 61.6592 138.952 60.6042C137.328 59.5519 137.273 59.6341 135.652 58.5819C134.028 57.5296 133.748 57.9598 132.124 56.9075C130.501 55.8553 130.643 55.6361 129.02 54.5838C127.396 53.5288 127.261 53.737 125.638 52.6848C124.014 51.6325 124.259 51.2543 122.638 50.2021C121.014 49.1498 121.129 48.9744 119.506 47.9194C117.882 46.8644 117.602 47.2974 115.978 46.2424C114.354 45.1874 114.673 44.6996 113.049 43.6473C111.425 42.595 111.442 42.5676 109.818 41.5154C108.195 40.4604 107.975 40.8002 106.351 39.7452C104.727 38.6901 104.744 38.6655 103.12 37.6132C101.496 36.5609 101.518 36.5253 99.8974 35.4731C98.2737 34.418 98.1363 34.6318 96.5126 33.5768C94.8889 32.5218 95.1472 32.1272 93.5207 31.0749C91.897 30.0199 91.8805 30.0473 90.2568 28.995C88.6331 27.94 88.3199 28.4223 86.6935 27.3673C85.0698 26.3123 85.5561 24.6736 83.6164 24.6736C81.6795 24.6736 81.7866 25.7286 80.1629 26.7836C78.5392 27.8359 78.9156 28.4141 77.2919 29.4691C75.6682 30.5214 75.4017 30.1158 73.778 31.1681C72.1543 32.2203 72.0361 32.0422 70.4152 33.0945C68.7915 34.1468 68.8299 34.2043 67.2062 35.2566C65.5825 36.3088 65.86 36.7336 64.2363 37.7859C62.6126 38.8381 62.5632 38.7641 60.9394 39.8164C59.3157 40.8687 59.1536 40.6193 57.5327 41.6743C55.909 42.7266 55.8266 42.6005 54.2029 43.6528C52.5791 44.7078 52.7989 45.0421 51.1752 46.0971C49.5515 47.1494 49.3262 46.8069 47.7053 47.8591C46.0816 48.9114 46.1667 49.0429 44.543 50.0952C42.9193 51.1502 43.1886 51.5613 41.5649 52.6163C39.9412 53.6713 39.9137 53.6274 38.29 54.6797C36.6663 55.732 36.3476 55.2442 34.7239 56.2965C33.1002 57.3515 33.4821 57.9324 31.8583 58.9874C30.2346 60.0424 29.8418 59.4396 28.2181 60.4946C26.5944 61.5468 26.5944 61.5468 24.9706 62.6018C23.3469 63.6569 23.3634 63.6788 21.7397 64.7338C20.116 65.7888 20.0913 65.7504 18.4676 66.8054C16.8439 67.8605 16.984 68.0742 15.3603 69.1265C13.7366 70.1815 13.7888 70.2637 12.1651 71.3159C10.5414 72.3682 10.8683 73.0122 8.92865 73.0615C7.14009 73.1081 7.58792 72.2641 6.08785 71.2913C4.58777 70.3185 4.71965 69.902 3.02726 69.3155C1.18376 68.6661 -0.137736 69.3977 0.0106234 67.6193Z" fill="#51CB59"/>
<path fill-rule="evenodd" clip-rule="evenodd" d="M118.858 81.9183C117.487 80.5317 116.808 82.2224 114.855 82.2224C112.901 82.2224 112.901 81.9484 110.951 81.9484C109 81.9484 109 82.2663 107.046 82.2663C105.093 82.2663 105.093 82.0416 103.142 82.0416C101.189 82.0416 101.189 81.8306 99.2384 81.8306C97.285 81.8306 97.285 81.7922 95.3344 81.7922C93.381 81.7922 93.381 81.9566 91.4303 81.9566C89.4769 81.9566 89.4769 81.7237 87.5263 81.7237C85.5729 81.7237 85.5729 81.7182 83.6195 81.7182C81.6661 81.7182 81.6661 82.2937 79.7155 82.2937C77.7621 82.2937 77.7621 82.0772 75.8114 82.0772C73.858 82.0772 73.858 81.8087 71.9074 81.8087C69.954 81.8087 69.954 81.7045 68.0006 81.7045C66.0472 81.7045 66.0472 81.9758 64.0966 81.9758C62.1432 81.9758 62.1432 81.9046 60.1898 81.9046C58.2364 81.9046 58.2364 82.2142 56.2857 82.2142C54.3323 82.2142 54.3323 82.1101 52.379 82.1101C50.4256 82.1101 50.1014 80.8797 48.7304 82.2636C47.3402 83.6666 48.6837 83.9817 48.6837 85.952C48.6837 87.925 48.0683 87.925 48.0683 89.8952C48.0683 91.8682 48.0656 91.8682 48.0656 93.8385C48.0656 95.8115 48.8321 95.8115 48.8321 97.7818C48.8321 99.7548 48.0628 99.7548 48.0628 101.725C48.0628 103.698 48.2716 103.698 48.2716 105.668C48.2716 107.641 48.7826 107.641 48.7826 109.612C48.7826 111.585 48.0903 111.585 48.0903 113.555C48.0903 115.528 48.7469 115.528 48.7469 117.498C48.7469 119.471 48.3843 119.471 48.3843 121.444C48.3843 123.417 48.2908 123.417 48.2908 125.387C48.2908 127.36 48.8843 127.36 48.8843 129.333C48.8843 131.306 48.5161 131.306 48.5161 133.277C48.5161 135.25 48.5711 135.25 48.5711 137.223C48.5711 139.196 47.1617 139.694 48.5491 141.1C49.92 142.487 50.4311 141.103 52.3817 141.103C54.3351 141.103 54.3351 141.47 56.2857 141.47C58.2364 141.47 58.2364 141.092 60.1898 141.092C62.1432 141.092 62.1432 141.243 64.0938 141.243C66.0472 141.243 66.0472 140.766 67.9979 140.766C69.9513 140.766 69.9513 141.04 71.9019 141.04C73.8553 141.04 73.8553 141.204 75.8059 141.204C77.7593 141.204 77.7593 141.221 79.71 141.221C81.6634 141.221 81.6634 141.182 83.6168 141.182C85.5702 141.182 85.5702 140.815 87.5208 140.815C89.4742 140.815 89.4742 141.259 91.4248 141.259C93.3782 141.259 93.3782 141.065 95.3289 141.065C97.2823 141.065 97.2823 141.445 99.2357 141.445C101.189 141.445 101.189 140.903 103.14 140.903C105.093 140.903 105.093 141.467 107.046 141.467C109 141.467 109 141.437 110.951 141.437C112.904 141.437 112.904 141.169 114.857 141.169C116.811 141.169 117.607 142.772 118.981 141.388C120.371 139.985 119.031 139.204 119.031 137.231C119.031 135.258 119.08 135.258 119.08 133.288C119.08 131.315 118.679 131.315 118.679 129.344C118.679 127.371 118.863 127.371 118.863 125.401C118.863 123.428 118.498 123.428 118.498 121.458C118.498 119.485 119.176 119.485 119.176 117.515C119.176 115.542 118.555 115.542 118.555 113.571C118.555 111.598 118.706 111.598 118.706 109.628C118.706 107.655 119.066 107.655 119.066 105.685C119.066 103.712 118.465 103.712 118.465 101.739C118.465 99.7657 118.921 99.7657 118.921 97.7955C118.921 95.8225 119.077 95.8225 119.077 93.8495C119.077 91.8765 118.558 91.8765 118.558 89.9062C118.558 87.9332 118.679 87.9606 119.116 86.0369C119.577 83.9351 120.248 83.324 118.858 81.9183Z" fill="#51CB59"/>
<path fill-rule="evenodd" clip-rule="evenodd" d="M114.344 86.2974C112.989 84.9191 112.659 85.7055 110.725 85.7055C108.788 85.7055 108.788 85.7302 106.854 85.7302C104.917 85.7302 104.917 86.0316 102.983 86.0316C101.046 86.0316 101.046 85.922 99.112 85.922C97.1751 85.922 97.1751 86.4427 95.241 86.4427C93.3041 86.4427 93.3041 85.6864 91.3699 85.6864C89.433 85.6864 89.433 86.2125 87.4961 86.2125C85.5592 86.2125 85.5592 86.0535 83.625 86.0535C81.6881 86.0535 81.6881 85.6809 79.7512 85.6809C77.8143 85.6809 77.8143 85.7329 75.8774 85.7329C73.9405 85.7329 73.9405 86.3659 72.0036 86.3659C70.0667 86.3659 70.0667 85.9111 68.1325 85.9111C66.1956 85.9111 66.1956 85.9412 64.2587 85.9412C62.3218 85.9412 62.3218 85.7877 60.3876 85.7877C58.4507 85.7877 58.4507 86.1358 56.5138 86.1358C54.5769 86.1358 53.8186 84.4971 52.4586 85.8754C51.0767 87.2757 52.5026 88.0156 52.5026 89.9804C52.5026 91.9452 52.4999 91.9452 52.4999 93.9099C52.4999 95.8747 52.9504 95.8747 52.9504 97.8395C52.9504 99.8043 52.4779 99.8043 52.4779 101.769C52.4779 103.734 52.7911 103.734 52.7911 105.699C52.7911 107.663 52.7609 107.663 52.7609 109.628C52.7609 111.593 52.2636 111.593 52.2636 113.558C52.2636 115.523 52.7554 115.523 52.7554 117.49C52.7554 119.455 52.9916 119.455 52.9916 121.42C52.9916 123.384 52.4586 123.384 52.4586 125.352C52.4586 127.317 52.8378 127.317 52.8378 129.282C52.8378 131.249 52.2334 131.249 52.2334 133.214C52.2334 135.179 51.1481 135.853 52.5301 137.256C53.8845 138.634 54.5769 137.069 56.5138 137.069C58.4507 137.069 58.4507 137.374 60.3849 137.374C62.3218 137.374 62.3218 137.393 64.2559 137.393C66.1928 137.393 66.1928 137.094 68.127 137.094C70.0639 137.094 70.0639 137.039 71.9981 137.039C73.935 137.039 73.935 136.993 75.8691 136.993C77.806 136.993 77.806 136.869 79.743 136.869C81.6799 136.869 81.6799 137.226 83.614 137.226C85.5509 137.226 85.5509 137.001 87.4878 137.001C89.4248 137.001 89.4248 137.001 91.3617 137.001C93.2986 137.001 93.2986 136.856 95.2355 136.856C97.1724 136.856 97.1724 137.409 99.1066 137.409C101.043 137.409 101.043 137.363 102.98 137.363C104.917 137.363 104.917 137.291 106.851 137.291C108.788 137.291 108.788 137.338 110.725 137.338C112.662 137.338 113.184 138.467 114.541 137.089C115.923 135.688 114.882 135.181 114.882 133.217C114.882 131.252 114.594 131.252 114.594 129.287C114.594 127.322 114.901 127.322 114.901 125.357C114.901 123.393 114.283 123.393 114.283 121.428C114.283 119.463 114.816 119.463 114.816 117.498C114.816 115.534 114.481 115.534 114.481 113.569C114.481 111.604 114.723 111.604 114.723 109.639C114.723 107.674 114.739 107.674 114.739 105.707C114.739 103.742 114.962 103.742 114.962 101.777C114.962 99.8125 114.827 99.8125 114.827 97.845C114.827 95.8802 114.824 95.8802 114.824 93.9154C114.824 91.9479 114.154 91.9013 114.506 89.9667C114.852 88.0348 115.723 87.7005 114.344 86.2974Z" fill="#EBFDFF"/>
<path fill-rule="evenodd" clip-rule="evenodd" d="M114.5 103.901C113.137 102.531 112.659 104.038 110.725 104.038C108.788 104.038 108.788 103.772 106.854 103.772C104.917 103.772 104.917 103.72 102.98 103.72C101.043 103.72 101.043 103.441 99.1093 103.441C97.1724 103.441 97.1724 103.838 95.2382 103.838C93.3013 103.838 93.3013 104 91.3644 104C89.4275 104 89.4275 104.011 87.4906 104.011C85.5537 104.011 85.5537 103.841 83.6168 103.841C81.6799 103.841 81.6799 103.991 79.743 103.991C77.8061 103.991 77.8061 103.857 75.8691 103.857C73.9322 103.857 73.9322 103.534 71.9953 103.534C70.0584 103.534 70.0584 103.525 68.1243 103.525C66.1874 103.525 66.1874 103.857 64.2504 103.857C62.3135 103.857 62.3135 103.821 60.3766 103.821C58.4397 103.821 58.4397 103.947 56.5028 103.947C54.5659 103.947 53.9422 102.388 52.5795 103.761C51.2031 105.145 51.2168 106.359 52.5905 107.743C53.9532 109.113 54.5632 107.987 56.4973 107.987C58.4342 107.987 58.4342 108.052 60.3684 108.052C62.3053 108.052 62.3053 107.811 64.2422 107.811C66.1791 107.811 66.1791 107.471 68.1133 107.471C70.0502 107.471 70.0502 108.107 71.9843 108.107C73.9213 108.107 73.9212 107.792 75.8582 107.792C77.7951 107.792 77.7951 107.776 79.732 107.776C81.6689 107.776 81.6689 107.948 83.6058 107.948C85.5427 107.948 85.5427 107.398 87.4796 107.398C89.4165 107.398 89.4165 107.737 91.3534 107.737C93.2903 107.737 93.2903 108.039 95.2272 108.039C97.1642 108.039 97.1642 107.702 99.0983 107.702C101.035 107.702 101.035 107.329 102.972 107.329C104.909 107.329 104.909 107.452 106.846 107.452C108.783 107.452 108.783 107.518 110.72 107.518C112.657 107.518 112.731 108.291 114.484 107.469C116.322 106.603 115.874 105.285 114.5 103.901Z" fill="#51CB59"/>
</g>
<g clip-path="url(#clip1_2404_307)">
<path d="M437.755 196.383C435.771 196.383 435.771 196.278 433.786 196.278C431.802 196.278 431.802 196.292 429.82 196.292C427.836 196.292 427.836 196.51 425.854 196.51C423.869 196.51 423.869 196.049 421.885 196.049C419.901 196.049 419.901 196.278 417.919 196.278C415.934 196.278 415.934 195.787 413.95 195.787C411.966 195.787 411.966 196.388 409.981 196.388C407.997 196.388 407.997 196.03 406.012 196.03C404.028 196.03 404.028 196.278 402.043 196.278C400.059 196.278 400.059 195.93 398.074 195.93C396.09 195.93 396.09 196.03 394.106 196.03C392.121 196.03 392.121 196.444 390.137 196.444C388.152 196.444 388.152 195.853 386.168 195.853C384.183 195.853 384.183 196.024 382.199 196.024C380.215 196.024 380.215 195.842 378.23 195.842C376.246 195.842 376.246 196.264 374.259 196.264C372.271 196.264 372.28 195.95 370.292 195.95C368.962 195.95 367.599 196.317 366.343 196.068C365.048 195.812 363.88 195.061 362.69 194.564C361.478 194.059 360.263 193.551 359.186 192.825C358.1 192.097 356.904 191.426 355.984 190.502C355.063 189.577 354.73 188.15 354.002 187.063C353.282 185.981 352.331 185.029 351.828 183.812C351.333 182.617 351.154 181.306 350.899 180.006C350.651 178.745 350.594 177.467 350.594 176.131C350.594 174.166 350.407 174.166 350.407 172.201C350.407 170.236 350.412 170.236 350.412 168.271C350.412 166.306 350.239 166.306 350.239 164.341C350.239 162.376 350.621 163.756 350.621 161.791C350.621 159.826 350.258 159.826 350.258 157.861C350.258 155.896 350.423 155.896 350.423 153.931C350.423 151.966 350.168 151.966 350.168 150.001C350.168 148.036 350.374 148.036 350.374 146.071C350.374 144.106 350.344 144.106 350.344 142.141C350.344 140.176 350.412 140.176 350.412 138.208C350.412 136.243 350.407 136.243 350.407 134.278C350.407 132.313 350.148 132.313 350.148 130.345C350.148 128.38 350.772 128.38 350.772 126.415C350.772 124.45 350.544 124.45 350.544 122.485C350.544 120.52 350.657 120.52 350.657 118.555C350.657 116.59 350.036 116.59 350.036 114.625C350.036 112.66 350.247 112.66 350.247 110.695C350.247 108.73 350.093 108.73 350.093 106.762C350.093 104.797 350.555 104.797 350.555 102.832C350.555 100.867 350.294 100.867 350.294 98.9021C350.294 96.9371 350.547 96.9371 350.547 94.9721C350.547 93.007 350.462 93.007 350.462 91.042C350.462 89.077 350.124 89.077 350.124 87.1092C350.124 85.1442 350.432 85.1442 350.432 83.1792C350.432 81.2142 350.228 81.2142 350.228 79.2492C350.228 77.2841 350.223 77.2841 350.223 75.3164C350.223 73.3513 350.693 73.3513 350.693 71.3863C350.693 69.4213 350.355 69.4213 350.355 67.4563C350.355 65.4913 350 65.4913 350 63.5235C350 61.5585 350.129 61.5585 350.129 59.5907C350.129 57.6257 350.519 57.6257 350.519 55.6579C350.519 53.6929 350.75 53.6929 350.75 51.7251C350.75 49.7601 350.533 49.7601 350.533 47.7923C350.533 45.8273 350.253 45.8273 350.253 43.8595C350.253 41.8945 350.324 41.8945 350.324 39.9267C350.324 37.959 350.374 37.959 350.374 35.9939C350.374 34.0289 350.357 34.0289 350.357 32.0612C350.357 30.0934 350.693 30.0934 350.693 28.1256C350.693 26.1578 350.594 26.1578 350.594 24.19C350.594 22.9067 350.734 21.72 351.108 20.5608C351.495 19.3603 351.759 18.077 352.482 17.0779C353.213 16.0706 354.227 15.2509 355.23 14.5168C356.225 13.7909 357.275 12.963 358.468 12.5738C359.62 12.1985 360.95 12.3779 362.225 12.3779C364.215 12.3779 364.215 12.5269 366.205 12.5269C368.195 12.5269 368.195 11.986 370.185 11.986C372.175 11.986 372.175 12.2868 374.165 12.2868C376.155 12.2868 376.155 12.342 378.145 12.342C380.135 12.342 380.135 12.411 382.125 12.411C384.115 12.411 384.115 12.2261 386.105 12.2261C388.095 12.2261 388.095 12.6152 390.085 12.6152C392.074 12.6152 392.074 12.3503 394.064 12.3503C396.054 12.3503 396.054 12.0715 398.044 12.0715C400.034 12.0715 400.034 12.3227 402.024 12.3227C404.014 12.3227 404.014 12.48 406.004 12.48C407.994 12.48 407.994 12.5931 409.984 12.5931C411.974 12.5931 411.974 12.1571 413.964 12.1571C415.954 12.1571 415.954 11.9087 417.944 11.9087C419.934 11.9087 419.934 12.3668 421.923 12.3668C423.913 12.3668 423.913 12.4579 425.903 12.4579C427.893 12.4579 427.893 12.3889 429.883 12.3889C431.873 12.3889 431.873 12.0136 433.866 12.0136C435.856 12.0136 435.856 12.0991 437.846 12.0991C439.838 12.0991 439.838 11.9115 441.828 11.9115C443.818 11.9115 443.821 12.4772 445.811 12.4772C447.089 12.4772 448.331 12.4551 449.486 12.8305C450.681 13.2196 451.745 13.8847 452.737 14.6106C453.74 15.3447 454.906 16.0071 455.637 17.0144C456.36 18.0135 456.926 19.2306 457.314 20.4311C457.687 21.5875 457.792 22.9012 457.792 24.1845C457.792 26.1495 457.303 26.1495 457.303 28.1146C457.303 30.0796 457.517 30.0796 457.517 32.0446C457.517 34.0096 457.275 34.0096 457.275 35.9746C457.275 37.9396 457.885 37.9396 457.885 39.9047C457.885 41.8697 457.946 41.8697 457.946 43.8347C457.946 45.7997 457.638 45.7997 457.638 47.7647C457.638 49.7298 457.638 49.7298 457.638 51.6948C457.638 53.6598 457.451 53.6598 457.451 55.6248C457.451 57.5898 457.723 57.5898 457.723 59.5548C457.723 61.5198 457.421 61.5198 457.421 63.4876C457.421 65.4526 457.484 65.4526 457.484 67.4177C457.484 69.3827 457.542 69.3827 457.542 71.3505C457.542 73.3155 457.303 73.3155 457.303 75.2805C457.303 77.2455 458.025 77.2455 458.025 79.2105C458.025 81.1755 458.001 81.1755 458.001 83.1406C458.001 85.1056 458.061 85.1056 458.061 87.0706C458.061 89.0356 457.965 89.0356 457.965 91.0006C457.965 92.9656 457.525 92.9656 457.525 94.9334C457.525 96.8984 457.434 96.8984 457.434 98.8635C457.434 100.828 457.729 100.828 457.729 102.793C457.729 104.759 458.023 104.759 458.023 106.724C458.023 108.689 457.327 108.689 457.327 110.654C457.327 112.619 457.308 112.619 457.308 114.586C457.308 116.551 457.643 116.551 457.643 118.516C457.643 120.481 457.434 120.481 457.434 122.446C457.434 124.411 457.357 124.411 457.357 126.379C457.357 128.344 457.602 128.344 457.602 130.309C457.602 132.274 457.462 132.274 457.462 134.239C457.462 136.204 457.852 136.204 457.852 138.172C457.852 140.137 457.27 140.137 457.27 142.105C457.27 144.07 458.064 144.07 458.064 146.038C458.064 148.003 457.5 148.003 457.5 149.97C457.5 151.935 457.319 151.935 457.319 153.903C457.319 155.868 457.443 155.868 457.443 157.836C457.443 159.801 457.641 159.801 457.641 161.769C457.641 163.737 457.451 162.357 457.451 164.322C457.451 166.287 457.36 166.287 457.36 168.254C457.36 170.222 457.981 170.222 457.981 172.19C457.981 174.158 457.594 174.158 457.594 176.126C457.594 177.461 457.407 178.739 457.16 180C456.904 181.3 456.736 182.617 456.242 183.812C455.739 185.029 455.115 186.205 454.395 187.286C453.669 188.377 452.866 189.447 451.946 190.372C451.025 191.297 449.961 192.105 448.876 192.834C447.798 193.557 446.561 194.029 445.349 194.534C444.159 195.031 442.911 195.362 441.617 195.618C440.361 195.875 439.085 196.383 437.755 196.383Z" fill="#DECFF1"/>
<path d="M442.164 110.643C440.729 112.07 440.399 111.225 438.379 111.225C436.359 111.225 436.359 110.494 434.339 110.494C432.318 110.494 432.318 110.538 430.298 110.538C428.278 110.538 428.278 111.118 426.258 111.118C424.238 111.118 424.238 110.955 422.218 110.955C420.197 110.955 420.197 110.731 418.177 110.731C416.157 110.731 416.157 111.118 414.137 111.118C412.117 111.118 412.117 111.096 410.097 111.096C408.076 111.096 408.076 110.872 406.056 110.872C404.036 110.872 404.036 111.308 402.013 111.308C399.993 111.308 399.993 110.687 397.973 110.687C395.953 110.687 395.953 110.508 393.932 110.508C391.912 110.508 391.912 110.866 389.892 110.866C387.872 110.866 387.872 111.278 385.849 111.278C383.829 111.278 383.829 110.905 381.809 110.905C379.789 110.905 379.789 110.944 377.766 110.944C375.745 110.944 375.745 111.151 373.725 111.151C371.702 111.151 371.702 110.538 369.682 110.538C367.659 110.538 366.895 112.517 365.458 111.09C364.037 109.68 365.403 108.899 365.403 106.892C365.403 104.886 365.672 104.886 365.672 102.879C365.672 100.873 365.499 100.873 365.499 98.8666C365.499 96.8602 365.881 96.8602 365.881 94.851C365.881 92.8446 365.906 92.8446 365.906 90.8355C365.906 88.829 365.326 88.829 365.326 86.8199C365.326 84.8134 365.521 84.8135 365.521 82.8043C365.521 80.7979 365.337 80.7979 365.337 78.7887C365.337 76.7823 365.711 76.7823 365.711 74.7731C365.711 72.7667 365.922 72.7667 365.922 70.7603C365.922 68.7539 365.881 68.7538 365.881 66.7447C365.881 64.7383 365.543 64.7383 365.543 62.7291C365.543 60.7199 365.826 60.7199 365.826 58.7107C365.826 56.7016 364.4 56.2903 365.821 54.8773C367.255 53.4505 367.659 54.5737 369.679 54.5737C371.7 54.5737 371.7 54.7945 373.72 54.7945C375.74 54.7945 375.74 54.9684 377.76 54.9684C379.78 54.9684 379.78 54.3998 381.8 54.3998C383.821 54.3998 383.821 54.9159 385.841 54.9159C387.861 54.9159 387.861 54.4412 389.881 54.4412C391.901 54.4412 391.901 55.0981 393.921 55.0981C395.942 55.0981 395.942 54.5213 397.962 54.5213C399.982 54.5213 399.982 54.9077 402.002 54.9077C404.022 54.9077 404.022 54.3584 406.045 54.3584C408.065 54.3584 408.065 54.5958 410.086 54.5958C412.106 54.5958 412.106 54.9325 414.126 54.9325C416.146 54.9325 416.146 54.6979 418.166 54.6979C420.186 54.6979 420.186 54.3226 422.209 54.3226C424.229 54.3226 424.229 54.8828 426.25 54.8828C428.27 54.8828 428.27 55.007 430.293 55.007C432.313 55.007 432.313 54.8028 434.333 54.8028C436.356 54.8028 436.356 54.7724 438.376 54.7724C440.399 54.7724 441.048 53.2076 442.485 54.6344C443.906 56.0447 442.793 56.7071 442.793 58.7135C442.793 60.7199 442.499 60.7199 442.499 62.7263C442.499 64.7327 442.191 64.7327 442.191 66.7392C442.191 68.7456 442.381 68.7456 442.381 70.7547C442.381 72.7612 442.081 72.7612 442.081 74.7703C442.081 76.7768 442.678 76.7768 442.678 78.7859C442.678 80.7923 442.161 80.7923 442.161 82.8015C442.161 84.8079 442.711 84.8079 442.711 86.8171C442.711 88.8235 442.565 88.8235 442.565 90.8327C442.565 92.8391 442.279 92.8391 442.279 94.8455C442.279 96.8519 442.623 96.8519 442.623 98.8611C442.623 100.868 442.708 100.868 442.708 102.877C442.708 104.886 442.153 104.902 442.513 106.876C442.873 108.844 443.585 109.23 442.164 110.643Z" fill="#915FD0"/>
<path d="M437.755 193.052C435.771 193.052 435.771 192.624 433.786 192.624C431.802 192.624 431.802 192.652 429.82 192.652C427.836 192.652 427.836 192.646 425.854 192.646C423.869 192.646 423.869 193.27 421.885 193.27C419.901 193.27 419.901 192.456 417.919 192.456C415.934 192.456 415.934 192.726 413.95 192.726C411.966 192.726 411.966 192.839 409.981 192.839C407.997 192.839 407.997 192.577 406.012 192.577C404.028 192.577 404.028 192.823 402.043 192.823C400.059 192.823 400.059 193.234 398.074 193.234C396.09 193.234 396.09 192.552 394.106 192.552C392.121 192.552 392.121 192.994 390.137 192.994C388.152 192.994 388.152 193.209 386.168 193.209C384.183 193.209 384.183 192.616 382.199 192.616C380.215 192.616 380.215 192.737 378.23 192.737C376.246 192.737 376.246 192.608 374.258 192.608C372.274 192.608 372.274 193.126 370.287 193.126C368.957 193.126 367.662 192.718 366.406 192.467C365.111 192.21 363.754 192.097 362.563 191.603C361.351 191.098 360.37 190.127 359.293 189.403C358.207 188.675 357.328 187.742 356.407 186.817C355.486 185.893 354.626 184.963 353.9 183.875C353.18 182.794 352.235 181.817 351.732 180.6C351.237 179.404 351.3 178.025 351.044 176.725C350.797 175.463 350.624 174.216 350.624 172.88C350.624 175.196 350.203 175.196 350.203 177.511C350.203 178.847 350.368 180.18 350.616 181.441C350.871 182.741 351.701 183.842 352.196 185.037C352.699 186.254 353.131 187.461 353.851 188.542C354.576 189.633 355.549 190.469 356.47 191.391C357.391 192.315 358.152 193.394 359.238 194.123C360.315 194.846 361.569 195.218 362.778 195.724C363.968 196.22 365.106 196.883 366.4 197.139C367.657 197.388 368.959 197.622 370.29 197.622C371.282 197.622 372.153 196.438 372.615 197.319C373.492 198.994 371.908 199.391 371.908 201.282C371.908 203.172 371.128 203.528 372.494 204.831C373.931 206.203 374.256 205.474 376.24 205.474C378.225 205.474 378.225 205.43 380.206 205.43C382.191 205.43 382.191 204.85 384.175 204.85C386.16 204.85 386.16 205.013 388.141 205.013C390.126 205.013 390.126 205.237 392.11 205.237C394.095 205.237 394.095 204.85 396.079 204.85C398.063 204.85 398.063 204.872 400.048 204.872C402.032 204.872 402.032 205.096 404.017 205.096C406.001 205.096 406.001 204.66 407.986 204.66C409.97 204.66 409.97 205.281 411.955 205.281C413.939 205.281 413.939 205.46 415.923 205.46C417.908 205.46 417.908 205.101 419.892 205.101C421.877 205.101 421.877 204.69 423.861 204.69C425.846 204.69 425.846 205.063 427.83 205.063C429.814 205.063 429.814 205.024 431.802 205.024C433.786 205.024 434.163 206.258 435.603 204.886C436.969 203.584 436.139 203.172 436.139 201.282C436.139 199.391 434.668 199.052 435.545 197.379C436.007 196.499 436.765 197.261 437.758 197.261C439.088 197.261 440.394 197.402 441.65 197.15C442.944 196.894 444.134 196.347 445.324 195.85C446.537 195.345 447.875 195.056 448.952 194.333C450.038 193.604 451.102 192.757 452.023 191.832C452.943 190.908 453.325 189.53 454.051 188.44C454.771 187.358 455.541 186.332 456.044 185.115C456.538 183.92 456.734 182.65 456.989 181.35C457.237 180.089 457.737 178.844 457.737 177.508C457.737 175.193 457.948 175.193 457.948 172.877C457.948 174.213 457.294 175.469 457.047 176.73C456.791 178.03 456.736 179.369 456.242 180.564C455.739 181.781 454.876 182.796 454.155 183.875C453.43 184.966 452.572 185.901 451.652 186.826C450.731 187.75 449.969 188.868 448.887 189.597C447.809 190.32 446.553 190.75 445.341 191.255C444.151 191.752 442.886 191.959 441.592 192.216C440.33 192.47 439.085 193.052 437.755 193.052Z" fill="#C8AFE7"/>
<path d="M377.804 136.701C376.062 136.527 376.103 136.113 374.36 135.942C372.618 135.768 372.576 136.188 370.831 136.017C369.089 135.843 369.119 135.523 367.376 135.352C366.337 135.25 365.925 134.366 365.925 133.318C365.925 131.585 365.337 131.585 365.337 129.854C365.337 128.648 366.618 127.359 367.813 127.478C369.556 127.652 369.523 127.991 371.263 128.165C373.005 128.339 373.027 128.118 374.77 128.292C376.512 128.466 376.457 129.018 378.203 129.189C379.242 129.291 379.989 129.843 379.989 130.892C379.989 132.625 380.124 132.625 380.124 134.355C380.124 135.559 379 136.82 377.804 136.701Z" fill="#F3F5F4"/>
<path d="M398.608 138.948C396.865 138.774 396.934 138.092 395.191 137.918C393.449 137.744 393.421 138.018 391.679 137.844C389.936 137.67 389.972 137.306 388.229 137.132C387.19 137.03 386.201 136.527 386.201 135.479C386.201 133.745 386.182 133.745 386.182 132.015C386.182 130.809 387.405 129.76 388.6 129.879C390.343 130.053 390.31 130.387 392.052 130.56C393.795 130.734 393.781 130.883 395.524 131.057C397.266 131.231 397.275 131.146 399.02 131.319C400.059 131.422 400.625 132.007 400.625 133.055C400.625 134.789 400.916 134.789 400.916 136.519C400.914 137.722 399.803 139.066 398.608 138.948Z" fill="#F3F5F4"/>
<path d="M419.854 137.449C418.111 137.623 418.095 137.46 416.355 137.631C414.612 137.805 414.659 138.288 412.917 138.459C411.174 138.633 411.152 138.415 409.409 138.589C408.214 138.707 407.073 137.722 407.073 136.516C407.073 134.783 406.771 134.783 406.771 133.052C406.771 132.003 407.947 130.941 408.989 130.836C410.731 130.662 410.773 131.082 412.515 130.908C414.258 130.734 414.195 130.094 415.94 129.92C417.682 129.746 417.759 130.532 419.505 130.361C420.7 130.243 421.585 130.806 421.585 132.012C421.585 133.745 421.97 133.745 421.97 135.475C421.959 136.527 420.893 137.344 419.854 137.449Z" fill="#F3F5F4"/>
<path d="M440.644 135.065C438.901 135.239 438.956 135.804 437.216 135.976C435.474 136.149 435.463 136.031 433.717 136.205C431.975 136.378 431.994 136.588 430.252 136.759C429.056 136.878 427.946 135.559 427.946 134.353C427.946 132.62 427.668 132.62 427.668 130.889C427.668 129.84 428.806 129.255 429.845 129.153C431.587 128.979 431.596 129.059 433.335 128.885C435.078 128.712 435.017 128.088 436.76 127.914C438.503 127.74 438.552 128.237 440.295 128.066C441.49 127.947 442.191 128.645 442.191 129.854C442.191 131.587 442.887 131.587 442.887 133.318C442.887 134.367 441.685 134.963 440.644 135.065Z" fill="#F3F5F4"/>
<path d="M377.87 148.999C376.127 148.825 376.078 149.347 374.335 149.173C372.593 148.999 372.604 148.888 370.859 148.715C369.116 148.541 369.089 148.806 367.346 148.632C366.307 148.53 365.268 147.332 365.268 146.283C365.268 144.55 365.821 144.55 365.821 142.82C365.821 141.613 366.615 140.319 367.81 140.438C369.553 140.612 369.504 141.097 371.246 141.271C372.989 141.445 372.967 141.688 374.709 141.862C376.452 142.036 376.51 141.462 378.252 141.636C379.291 141.738 380.039 142.808 380.039 143.86C380.039 145.593 379.86 145.593 379.86 147.324C379.86 148.53 379.066 149.118 377.87 148.999Z" fill="#F3F5F4"/>
<path d="M398.685 151.124C396.942 150.95 396.893 151.458 395.15 151.287C393.407 151.113 393.391 151.273 391.648 151.099C389.906 150.925 389.917 150.812 388.174 150.641C387.135 150.539 386.157 149.498 386.157 148.45C386.157 146.716 386.314 146.716 386.314 144.986C386.314 143.78 387.41 142.679 388.606 142.797C390.348 142.971 390.343 143.015 392.085 143.189C393.828 143.363 393.812 143.529 395.557 143.703C397.299 143.876 397.343 143.429 399.089 143.6C400.128 143.703 400.809 144.972 400.809 146.024C400.809 147.757 400.488 147.757 400.488 149.487C400.485 150.693 399.88 151.243 398.685 151.124Z" fill="#F3F5F4"/>
<path d="M419.884 150.721C418.141 150.895 418.13 150.768 416.388 150.942C414.645 151.116 414.601 150.663 412.856 150.837C411.111 151.011 411.111 150.978 409.365 151.149C408.17 151.268 407.34 150.694 407.34 149.488C407.34 147.754 407.032 147.754 407.032 146.024C407.032 144.975 407.931 143.769 408.972 143.664C410.715 143.49 410.759 143.954 412.501 143.783C414.244 143.609 414.217 143.317 415.959 143.143C417.702 142.969 417.74 143.366 419.485 143.195C420.681 143.076 421.693 143.78 421.693 144.986C421.693 146.72 422 146.72 422 148.45C421.998 149.499 420.923 150.616 419.884 150.721Z" fill="#F3F5F4"/>
<path d="M440.674 148.345C438.931 148.519 438.94 148.588 437.197 148.759C435.454 148.933 435.474 149.132 433.731 149.303C431.989 149.477 431.989 149.477 430.243 149.648C429.048 149.766 428.388 148.53 428.388 147.324C428.388 145.591 428.039 145.591 428.039 143.86C428.039 142.812 428.798 142.152 429.836 142.05C431.579 141.876 431.538 141.462 433.28 141.291C435.023 141.117 435.015 141.037 436.76 140.863C438.503 140.689 438.494 140.593 440.237 140.422C441.433 140.303 442.491 141.619 442.491 142.825C442.491 144.559 442.46 144.559 442.46 146.289C442.458 147.338 441.716 148.24 440.674 148.345Z" fill="#F3F5F4"/>
<path d="M377.796 162.707C376.053 162.533 376.125 161.802 374.385 161.631C372.642 161.457 372.618 161.697 370.875 161.523C369.132 161.349 369.097 161.691 367.354 161.52C366.315 161.418 365.87 160.309 365.87 159.257C365.87 157.524 365.54 157.524 365.54 155.794C365.54 154.588 366.546 153.986 367.742 154.105C369.484 154.278 369.493 154.182 371.235 154.353C372.978 154.527 372.991 154.405 374.734 154.579C376.477 154.753 376.526 154.267 378.269 154.441C379.308 154.543 380.171 155.783 380.171 156.831C380.171 158.565 379.833 158.564 379.833 160.295C379.833 161.501 378.991 162.826 377.796 162.707Z" fill="#F3F5F4"/>
<path d="M398.613 164.835C396.871 164.661 396.931 164.043 395.191 163.869C393.449 163.695 393.435 163.822 391.692 163.651C389.95 163.477 389.958 163.381 388.216 163.207C387.177 163.105 386.478 162.47 386.478 161.421C386.478 159.688 386.149 159.688 386.149 157.958C386.149 156.752 387.391 155.819 388.589 155.937C390.332 156.111 390.34 156.015 392.083 156.189C393.825 156.362 393.836 156.244 395.582 156.418C397.324 156.592 397.288 156.972 399.031 157.146C400.07 157.248 400.878 157.949 400.878 158.998C400.878 160.731 401.266 160.731 401.266 162.462C401.266 163.665 399.809 164.954 398.613 164.835Z" fill="#F3F5F4"/>
<path d="M419.851 163.375C418.109 163.549 418.087 163.331 416.347 163.505C414.604 163.679 414.673 164.371 412.928 164.545C411.185 164.719 411.171 164.592 409.429 164.766C408.233 164.885 407.389 163.665 407.389 162.459C407.389 160.726 407.348 160.726 407.348 158.995C407.348 157.946 407.969 157.13 409.008 157.025C410.751 156.851 410.718 156.511 412.458 156.337C414.2 156.164 414.211 156.266 415.954 156.092C417.696 155.918 417.682 155.769 419.425 155.595C420.621 155.476 421.822 156.749 421.822 157.955C421.822 159.688 421.486 159.688 421.486 161.418C421.489 162.47 420.893 163.27 419.851 163.375Z" fill="#F3F5F4"/>
<path d="M440.699 161.576C438.956 161.75 438.951 161.681 437.208 161.854C435.465 162.028 435.443 161.819 433.701 161.99C431.958 162.163 431.98 162.406 430.238 162.58C429.042 162.699 427.956 161.504 427.956 160.298C427.956 158.565 428.308 158.565 428.308 156.834C428.308 155.785 428.737 154.546 429.776 154.444C431.519 154.27 431.535 154.439 433.278 154.265C435.02 154.091 435.039 154.29 436.785 154.116C438.527 153.942 438.516 153.818 440.259 153.644C441.455 153.525 442.249 154.59 442.249 155.797C442.249 157.53 442.625 157.53 442.625 159.26C442.625 160.309 441.74 161.471 440.699 161.576Z" fill="#F3F5F4"/>
<path d="M377.823 175.406C376.081 175.232 376.078 175.273 374.335 175.099C372.593 174.925 372.571 175.135 370.828 174.964C369.086 174.79 369.122 174.423 367.379 174.252C366.34 174.15 365.917 173.28 365.917 172.232C365.917 170.499 365.243 170.499 365.243 168.768C365.243 167.562 366.615 166.287 367.81 166.406C369.553 166.58 369.487 167.239 371.23 167.413C372.972 167.587 373.016 167.134 374.761 167.308C376.504 167.482 376.477 167.775 378.219 167.948C379.258 168.051 379.997 168.757 379.997 169.806C379.997 171.539 379.681 171.539 379.681 173.269C379.679 174.473 379.019 175.524 377.823 175.406Z" fill="#C8AFE7"/>
<path d="M398.632 177.605C396.89 177.431 396.917 177.144 395.178 176.973C393.435 176.799 393.399 177.141 391.657 176.97C389.914 176.799 389.906 176.882 388.161 176.708C387.122 176.606 386.264 175.441 386.264 174.393C386.264 172.659 386.063 172.659 386.063 170.929C386.063 169.723 387.427 168.428 388.622 168.547C390.365 168.721 390.304 169.32 392.047 169.491C393.79 169.665 393.844 169.102 395.59 169.273C397.332 169.447 397.324 169.546 399.067 169.717C400.106 169.819 401.098 170.915 401.098 171.964C401.098 173.697 401.081 173.697 401.081 175.427C401.081 176.636 399.828 177.724 398.632 177.605Z" fill="#C8AFE7"/>
<path d="M419.829 176.118C418.086 176.292 418.106 176.496 416.366 176.667C414.623 176.841 414.626 176.868 412.884 177.042C411.141 177.216 411.157 177.379 409.412 177.55C408.217 177.669 406.796 176.634 406.796 175.428C406.796 173.695 407.09 173.695 407.09 171.964C407.09 170.915 407.986 170.264 409.025 170.162C410.767 169.988 410.748 169.798 412.49 169.627C414.233 169.453 414.263 169.753 416.006 169.58C417.748 169.406 417.691 168.812 419.433 168.639C420.629 168.52 421.431 169.72 421.431 170.929C421.431 172.662 421.981 172.662 421.981 174.393C421.984 175.442 420.868 176.016 419.829 176.118Z" fill="#C8AFE7"/>
<path d="M440.701 174.555C438.959 174.729 438.909 174.216 437.167 174.387C435.424 174.561 435.471 175.03 433.726 175.204C431.983 175.378 431.917 174.724 430.175 174.898C428.979 175.016 427.808 174.473 427.808 173.267C427.808 171.533 428.193 171.533 428.193 169.803C428.193 168.754 428.743 167.537 429.781 167.432C431.524 167.258 431.546 167.496 433.289 167.322C435.031 167.148 435.064 167.482 436.807 167.311C438.549 167.137 438.527 166.902 440.27 166.731C441.465 166.613 442.881 167.559 442.881 168.765C442.881 170.498 442.323 170.498 442.323 172.229C442.323 173.28 441.74 174.453 440.701 174.555Z" fill="#F3F5F4"/>
<path d="M439.954 39.8001C438.948 40.3134 438.951 40.2831 437.824 40.2831C436.697 40.2831 436.697 39.6538 435.57 39.6538C434.443 39.6538 434.443 40.2886 433.316 40.2886C432.189 40.2886 432.189 39.8332 431.062 39.8332C429.935 39.8332 429.935 39.7614 428.809 39.7614C427.682 39.7614 427.682 40.3962 426.555 40.3962C425.428 40.3962 425.428 39.6869 424.301 39.6869C423.174 39.6869 423.174 40.3355 422.047 40.3355C420.92 40.3355 420.92 39.9878 419.793 39.9878C418.666 39.9878 418.666 40.1533 417.54 40.1533C416.413 40.1533 416.413 39.8994 415.286 39.8994C414.159 39.8994 414.159 39.8608 413.032 39.8608C411.905 39.8608 411.905 40.2748 410.778 40.2748C409.651 40.2748 409.651 40.1837 408.524 40.1837C407.397 40.1837 407.397 40.4293 406.271 40.4293C405.144 40.4293 405.144 40.3465 404.017 40.3465C402.89 40.3465 402.89 39.8415 401.763 39.8415C400.636 39.8415 400.636 40.0347 399.509 40.0347C398.382 40.0347 398.382 39.7614 397.255 39.7614C396.129 39.7614 396.129 39.9601 395.002 39.9601C393.875 39.9601 393.875 39.7394 392.748 39.7394C391.621 39.7394 391.621 39.6869 390.494 39.6869C389.367 39.6869 389.367 40.0512 388.24 40.0512C387.113 40.0512 387.113 39.9243 385.986 39.9243C384.86 39.9243 384.86 40.33 383.733 40.33C382.606 40.33 382.606 40.2941 381.479 40.2941C380.352 40.2941 380.352 40.0788 379.225 40.0788C378.098 40.0788 378.098 40.123 376.971 40.123C375.844 40.123 375.844 39.7145 374.717 39.7145C373.591 39.7145 373.591 40.1975 372.464 40.1975C371.337 40.1975 371.337 40.3107 370.21 40.3107C369.083 40.3107 368.882 40.7108 367.879 40.2003C367.368 39.9408 368.223 39.4717 368.223 38.8976C368.223 38.3236 368.283 38.3236 368.283 37.7495C368.283 37.1755 367.604 37.1755 367.604 36.6014C367.604 36.0274 367.841 36.0274 367.841 35.4533C367.841 34.8793 367.604 34.8793 367.604 34.3052C367.604 33.7312 368.19 33.7312 368.19 33.1571C368.19 32.5831 368.242 32.5831 368.242 32.009C368.242 31.435 367.725 31.435 367.725 30.8609C367.725 30.2869 367.901 30.2869 367.901 29.7128C367.901 29.1388 368.146 29.1388 368.146 28.5647C368.146 27.9907 368.289 27.9907 368.289 27.4166C368.289 26.8426 368.267 26.8426 368.267 26.2685C368.267 25.6945 367.78 25.6945 367.78 25.1204C367.78 24.5464 367.701 24.5464 367.701 23.9723C367.701 23.3983 368.319 23.3983 368.319 22.8242C368.319 22.2502 367.755 22.2502 367.755 21.6761C367.755 21.1021 367.733 21.1021 367.733 20.528C367.733 19.954 368.236 19.954 368.236 19.3799C368.236 18.8059 368.033 18.8059 368.033 18.2318C368.033 17.6578 368.261 17.6578 368.261 17.0837C368.261 16.5097 368.269 16.5097 368.269 15.9356C368.269 15.3616 368.324 15.3616 368.324 14.7875C368.324 14.2135 367.755 14.2135 367.755 13.6394C367.755 13.0654 367.86 13.0654 367.86 12.4913C367.86 11.9173 368.184 11.9173 368.184 11.3432C368.184 10.7692 367.626 10.7692 367.626 10.1951C367.626 9.62107 368.217 9.62107 368.217 9.04702C368.217 8.47297 367.915 8.47297 367.915 7.89892C367.915 5.88422 368.267 5.88422 368.267 3.86677C368.267 3.29272 367.94 3.29272 367.94 2.71867C367.94 2.14462 367.984 2.14462 367.984 1.57057C367.984 0.99652 367.387 0.309316 367.907 0.543904C369.328 1.18419 368.654 2.68555 370.213 2.68555C371.771 2.68555 370.908 0.193402 372.466 0.193402C374.025 0.193402 373.162 2.81526 374.72 2.81526C376.279 2.81526 375.416 0.833689 376.974 0.833689C378.532 0.833689 377.669 2.21362 379.228 2.21362C380.786 2.21362 379.923 0.828169 381.482 0.828169C383.04 0.828169 382.177 2.8815 383.735 2.8815C385.294 2.8815 384.431 0.414191 385.989 0.414191C387.548 0.414191 386.685 2.87598 388.243 2.87598C389.801 2.87598 388.938 0.23756 390.497 0.23756C392.055 0.23756 391.192 2.67175 392.751 2.67175C394.309 2.67175 393.446 0.532864 395.004 0.532864C396.563 0.532864 395.7 2.94222 397.258 2.94222C398.817 2.94222 397.954 0.549423 399.512 0.549423C401.07 0.549423 400.207 3.00017 401.766 3.00017C403.324 3.00017 402.461 0.185123 404.02 0.185123C405.578 0.185123 404.715 2.52824 406.273 2.52824C407.832 2.52824 406.969 0.403151 408.527 0.403151C410.086 0.403151 409.223 2.63035 410.781 2.63035C412.339 2.63035 411.476 0.0195312 413.035 0.0195312C414.593 0.0195312 413.73 2.66071 415.289 2.66071C416.847 2.66071 415.984 0.118886 417.542 0.118886C419.101 0.118886 418.238 2.64967 419.796 2.64967C421.355 2.64967 420.491 0.146485 422.05 0.146485C423.608 0.146485 422.745 2.61931 424.304 2.61931C425.862 2.61931 424.999 0.405911 426.557 0.405911C428.116 0.405911 427.253 2.31849 428.811 2.31849C430.37 2.31849 429.507 0.463868 431.065 0.463868C432.623 0.463868 431.76 2.50064 433.319 2.50064C434.877 2.50064 434.014 0.439029 435.573 0.439029C437.131 0.439029 436.268 2.26605 437.826 2.26605C439.385 2.26605 438.497 0.715015 439.918 0.0747284C440.44 -0.159859 439.932 1.01032 439.932 1.58437C439.932 2.15842 439.728 2.15842 439.728 2.73247C439.728 3.30652 440.278 3.30652 440.278 3.88057C440.278 5.89526 439.709 5.89526 439.709 7.91272C439.709 8.48677 440.025 8.48677 440.025 9.06082C440.025 9.63487 440.012 9.63487 440.012 10.2089C440.012 10.783 439.704 10.783 439.704 11.357C439.704 11.9311 439.979 11.9311 439.979 12.5051C439.979 13.0792 439.869 13.0792 439.869 13.6532C439.869 14.2273 440.08 14.2273 440.08 14.8013C440.08 15.3754 439.858 15.3754 439.858 15.9494C439.858 16.5235 440.297 16.5235 440.297 17.0975C440.297 17.6716 439.918 17.6716 439.918 18.2456C439.918 18.8197 440.058 18.8197 440.058 19.3937C440.058 19.9678 440.363 19.9678 440.363 20.5418C440.363 21.1159 440.471 21.1159 440.471 21.6899C440.471 22.264 439.737 22.264 439.737 22.838C439.737 23.4121 440.328 23.4121 440.328 23.9861C440.328 24.5602 440.055 24.5602 440.055 25.1342C440.055 25.7083 439.673 25.7083 439.673 26.2823C439.673 26.8564 440.471 26.8564 440.471 27.4304C440.471 28.0045 439.723 28.0045 439.723 28.5785C439.723 29.1526 440.443 29.1526 440.443 29.7266C440.443 30.3007 440.424 30.3007 440.424 30.8747C440.424 31.4488 440.187 31.4488 440.187 32.0228C440.187 32.5969 440.385 32.5969 440.385 33.1709C440.385 33.745 439.761 33.745 439.761 34.319C439.761 34.8931 440.396 34.8931 440.396 35.4671C440.396 36.0412 439.904 36.0412 439.904 36.6152C439.904 37.1893 440.281 37.1893 440.281 37.7633C440.281 38.3374 439.605 38.4257 439.726 38.9887C439.838 39.4772 440.465 39.5379 439.954 39.8001Z" fill="#F3F5F4"/>
<path d="M421.206 63.8354H419.925V65.7949H421.206V63.8354Z" fill="#7DB8B5"/>
<path fill-rule="evenodd" clip-rule="evenodd" d="M423.982 67.3321L418.666 64.0728L413.444 67.3321V75.6669H423.982V67.3321Z" fill="#9CDAD7"/>
<path fill-rule="evenodd" clip-rule="evenodd" d="M413.444 67.4757L418.425 64.2218L418.666 64.0728L420.368 65.116L423.982 67.4757V68.3974L418.713 64.9559L413.444 68.3974V67.4757Z" fill="#7DB8B5"/>
<path d="M424.012 75.667H413.417V76.2797H424.012V75.667Z" fill="#007976"/>
<path fill-rule="evenodd" clip-rule="evenodd" d="M412.161 67.8679L418.713 63.5874L425.266 67.8679L424.559 68.3288L418.713 64.5064L412.867 68.3288L412.161 67.8679Z" fill="#007976"/>
<path d="M421.467 69.002H415.962V73.6661H421.467V69.002Z" fill="#2C4B5F"/>
<path d="M421.137 69.3223H416.286V73.3517H421.137V69.3223Z" fill="#EBFDFF"/>
<path d="M421.258 70.7217H416.168V71.028H421.258V70.7217Z" fill="#2C4B5F"/>
<path d="M423.171 69.9712H422.633V75.9352H423.171V69.9712Z" fill="#2C4B5F"/>
<path d="M423.171 69.9712H422.633V70.9344H423.171V69.9712Z" fill="#182F3B"/>
<path fill-rule="evenodd" clip-rule="evenodd" d="M418.568 66.4048H427.239C427.492 66.4048 427.698 66.6118 427.698 66.8657V69.9429C427.698 70.1968 427.492 70.4038 427.239 70.4038H418.568C418.315 70.4038 418.109 70.1968 418.109 69.9429V66.8657C418.109 66.6118 418.315 66.4048 418.568 66.4048Z" fill="#007976"/>
<path d="M424.455 75.7969H421.349V76.4261H424.455V75.7969Z" fill="#2C4B5F"/>
<path d="M427.289 66.7666H418.515V70.0425H427.289V66.7666Z" fill="#EBFDFF"/>
<path fill-rule="evenodd" clip-rule="evenodd" d="M420.695 67.9532C420.648 67.6192 420.357 67.4757 420.079 67.4757C419.87 67.4757 419.65 67.5585 419.529 67.7186C419.453 67.8207 419.42 67.9421 419.431 68.0636V68.0608C419.458 68.4417 419.791 68.5024 420.074 68.5328C420.255 68.5521 420.442 68.5742 420.472 68.7121C420.478 68.7342 420.48 68.7563 420.48 68.7756C420.48 68.9633 420.269 69.0737 420.074 69.0737C419.906 69.0737 419.7 68.9854 419.683 68.817V68.8281L419.681 68.7894L419.417 68.7949L419.42 68.8446C419.453 69.1703 419.793 69.3359 420.074 69.3359C420.401 69.3359 420.747 69.1316 420.747 68.7811C420.747 68.7453 420.742 68.7011 420.733 68.6625C420.665 68.3699 420.354 68.3065 420.107 68.2733C419.912 68.254 419.708 68.2319 419.694 68.0443C419.689 67.9808 419.703 67.9228 419.738 67.8759C419.81 67.7821 419.945 67.7407 420.068 67.7379C420.228 67.7352 420.404 67.8069 420.439 67.9697L420.695 67.9532ZM422.66 68.403C422.66 68.5907 422.586 68.7535 422.468 68.875C422.347 68.9964 422.176 69.0737 421.998 69.0737C421.819 69.0737 421.654 68.9992 421.533 68.875C421.415 68.7563 421.338 68.588 421.338 68.403C421.338 68.2181 421.412 68.0525 421.533 67.9311C421.651 67.8097 421.819 67.7324 421.998 67.7324C422.176 67.7324 422.344 67.8069 422.468 67.9311C422.586 68.0525 422.66 68.2154 422.66 68.403ZM421.077 68.403C421.077 68.6597 421.184 68.8915 421.346 69.0627C421.511 69.2338 421.745 69.3386 422 69.3386C422.256 69.3386 422.487 69.2338 422.657 69.0627C422.819 68.8943 422.927 68.6625 422.927 68.403C422.927 68.1464 422.819 67.9146 422.657 67.7462C422.49 67.5778 422.259 67.4702 422 67.4702C421.748 67.4702 421.514 67.5778 421.346 67.7462C421.184 67.9146 421.077 68.1464 421.077 68.403ZM423.584 67.4951H423.322V69.3138H424.436V69.0516H423.584V67.4951ZM425.057 69.0516V67.7572H425.444C425.865 67.7572 426.076 68.0829 426.076 68.4058C426.076 68.7287 425.865 69.0516 425.444 69.0516H425.057ZM424.793 67.4951V69.3138H425.444C426.038 69.3138 426.335 68.8612 426.335 68.4058C426.335 67.9504 426.038 67.4951 425.444 67.4951H424.793Z" fill="#007976"/>
</g>
<path d="M298.412 108.146C296.884 108.503 296.532 108.292 294.38 108.292C292.228 108.292 292.228 108.109 290.075 108.109C287.923 108.109 287.923 108.12 285.771 108.12C283.618 108.12 283.618 108.265 281.466 108.265C279.314 108.265 279.314 108.224 277.161 108.224C275.009 108.224 275.009 108.169 272.857 108.169C270.704 108.169 270.704 108.265 268.552 108.265C266.4 108.265 266.4 108.26 264.247 108.26C262.095 108.26 262.095 108.204 259.943 108.204C257.79 108.204 257.79 108.313 255.635 108.313C253.483 108.313 253.483 108.158 251.331 108.158C249.178 108.158 249.178 108.113 247.026 108.113C244.874 108.113 244.874 108.202 242.721 108.202C240.569 108.202 240.569 108.305 238.414 108.305C236.261 108.305 236.261 108.212 234.109 108.212C231.957 108.212 231.957 108.222 229.801 108.222C227.649 108.222 227.649 108.273 225.497 108.273C223.342 108.273 223.342 108.12 221.189 108.12C219.034 108.12 218.22 108.615 216.688 108.258C215.174 107.906 216.63 107.711 216.63 107.209C216.63 106.708 216.917 106.708 216.917 106.206C216.917 105.705 216.732 105.705 216.732 105.204C216.732 104.702 217.139 104.702 217.139 104.2C217.139 103.699 217.166 103.699 217.166 103.197C217.166 102.695 216.548 102.695 216.548 102.193C216.548 101.692 216.756 101.692 216.756 101.19C216.756 100.688 216.56 100.688 216.56 100.186C216.56 99.6847 216.958 99.6847 216.958 99.1826C216.958 98.6812 217.183 98.6812 217.183 98.1798C217.183 97.6784 217.139 97.6784 217.139 97.1763C217.139 96.6749 216.779 96.6749 216.779 96.1728C216.779 95.6708 217.081 95.6708 217.081 95.1687C217.081 94.6666 215.561 94.5638 217.075 94.2107C218.604 93.8541 219.034 94.1348 221.186 94.1348C223.339 94.1348 223.339 94.19 225.491 94.19C227.643 94.19 227.643 94.2335 229.796 94.2335C231.948 94.2335 231.948 94.0914 234.1 94.0914C236.253 94.0914 236.253 94.2203 238.405 94.2203C240.557 94.2203 240.557 94.1017 242.71 94.1017C244.862 94.1017 244.862 94.2659 247.014 94.2659C249.167 94.2659 249.167 94.1217 251.319 94.1217C253.471 94.1217 253.471 94.2183 255.623 94.2183C257.776 94.2183 257.776 94.081 259.931 94.081C262.083 94.081 262.083 94.1403 264.236 94.1403C266.388 94.1403 266.388 94.2245 268.54 94.2245C270.693 94.2245 270.693 94.1659 272.845 94.1659C274.997 94.1659 274.997 94.0721 277.153 94.0721C279.305 94.0721 279.305 94.2121 281.457 94.2121C283.61 94.2121 283.61 94.2431 285.765 94.2431C287.917 94.2431 287.917 94.1921 290.069 94.1921C292.225 94.1921 292.225 94.1845 294.377 94.1845C296.532 94.1845 297.223 93.7934 298.755 94.15C300.269 94.5024 299.083 94.668 299.083 95.1694C299.083 95.6708 298.77 95.6708 298.77 96.1722C298.77 96.6736 298.442 96.6736 298.442 97.175C298.442 97.6764 298.644 97.6764 298.644 98.1785C298.644 98.6799 298.324 98.6799 298.324 99.1819C298.324 99.6833 298.96 99.6833 298.96 100.185C298.96 100.687 298.409 100.687 298.409 101.189C298.409 101.69 298.995 101.69 298.995 102.192C298.995 102.694 298.84 102.694 298.84 103.196C298.84 103.697 298.535 103.697 298.535 104.199C298.535 104.7 298.901 104.7 298.901 105.202C298.901 105.704 298.992 105.704 298.992 106.206C298.992 106.708 298.401 106.712 298.784 107.205C299.168 107.697 299.926 107.793 298.412 108.146Z" fill="#BD9FE3"/>
<path d="M298.412 130.345C296.884 130.702 296.532 130.491 294.38 130.491C292.228 130.491 292.228 130.308 290.076 130.308C287.923 130.308 287.923 130.319 285.771 130.319C283.619 130.319 283.619 130.464 281.467 130.464C279.315 130.464 279.315 130.423 277.162 130.423C275.01 130.423 275.01 130.367 272.858 130.367C270.706 130.367 270.706 130.464 268.553 130.464C266.401 130.464 266.401 130.459 264.249 130.459C262.097 130.459 262.097 130.403 259.944 130.403C257.792 130.403 257.792 130.512 255.637 130.512C253.485 130.512 253.485 130.356 251.333 130.356C249.18 130.356 249.18 130.312 247.028 130.312C244.876 130.312 244.876 130.401 242.724 130.401C240.572 130.401 240.572 130.504 238.416 130.504C236.264 130.504 236.264 130.411 234.112 130.411C231.96 130.411 231.96 130.421 229.805 130.421C227.652 130.421 227.652 130.472 225.5 130.472C223.345 130.472 223.345 130.319 221.193 130.319C219.038 130.319 218.223 130.814 216.692 130.457C215.178 130.105 216.633 129.91 216.633 129.408C216.633 128.907 216.92 128.907 216.92 128.405C216.92 127.904 216.736 127.904 216.736 127.403C216.736 126.901 217.143 126.901 217.143 126.399C217.143 125.898 217.169 125.898 217.169 125.396C217.169 124.894 216.551 124.894 216.551 124.392C216.551 123.891 216.759 123.891 216.759 123.389C216.759 122.888 216.563 122.888 216.563 122.385C216.563 121.884 216.961 121.884 216.961 121.382C216.961 120.881 217.187 120.881 217.187 120.379C217.187 119.878 217.143 119.878 217.143 119.376C217.143 118.874 216.783 118.874 216.783 118.372C216.783 117.87 217.084 117.87 217.084 117.368C217.084 116.866 215.565 116.763 217.079 116.41C218.607 116.054 219.038 116.335 221.19 116.335C223.342 116.335 223.342 116.39 225.494 116.39C227.646 116.39 227.646 116.433 229.799 116.433C231.951 116.433 231.951 116.291 234.103 116.291C236.255 116.291 236.255 116.42 238.408 116.42C240.56 116.42 240.56 116.301 242.712 116.301C244.864 116.301 244.864 116.466 247.016 116.466C249.169 116.466 249.169 116.321 251.321 116.321C253.473 116.321 253.473 116.418 255.625 116.418C257.778 116.418 257.778 116.281 259.933 116.281C262.085 116.281 262.085 116.34 264.237 116.34C266.389 116.34 266.389 116.424 268.542 116.424C270.694 116.424 270.694 116.366 272.846 116.366C274.998 116.366 274.998 116.272 277.154 116.272C279.306 116.272 279.306 116.412 281.458 116.412C283.61 116.412 283.61 116.443 285.765 116.443C287.918 116.443 287.918 116.392 290.07 116.392C292.225 116.392 292.225 116.384 294.377 116.384C296.532 116.384 297.223 115.993 298.755 116.35C300.269 116.702 299.083 116.868 299.083 117.369C299.083 117.87 298.77 117.87 298.77 118.372C298.77 118.873 298.442 118.873 298.442 119.374C298.442 119.876 298.644 119.876 298.644 120.378C298.644 120.879 298.324 120.879 298.324 121.381C298.324 121.883 298.96 121.883 298.96 122.385C298.96 122.886 298.409 122.886 298.409 123.388C298.409 123.89 298.995 123.89 298.995 124.392C298.995 124.893 298.84 124.893 298.84 125.395C298.84 125.896 298.535 125.896 298.535 126.398C298.535 126.899 298.901 126.899 298.901 127.401C298.901 127.903 298.992 127.903 298.992 128.405C298.992 128.907 298.401 128.911 298.784 129.404C299.168 129.896 299.926 129.992 298.412 130.345Z" fill="#BD9FE3"/>
<path d="M283.711 85.0427C283.072 86.4323 282.765 86.6455 281.59 88.4202C280.416 90.1948 280.316 90.1285 279.142 91.9031C277.967 93.6778 277.973 93.6818 276.799 95.4564C275.625 97.231 275.704 97.2835 274.53 99.0581C273.355 100.833 273.333 100.818 272.159 102.593C270.984 104.367 270.954 104.347 269.779 106.122C268.605 107.896 268.658 107.931 267.484 109.706C266.309 111.48 266.306 111.478 265.132 113.253C263.958 115.028 263.927 115.007 262.753 116.782C261.578 118.557 261.638 118.596 260.462 120.373C259.288 122.148 259.203 122.091 258.029 123.866C256.854 125.641 256.83 125.624 255.655 127.399C254.481 129.174 254.53 129.206 253.356 130.981C252.181 132.755 252.238 132.793 251.062 134.57C249.887 136.344 249.836 136.31 248.662 138.085C247.488 139.86 247.493 139.863 246.317 141.64C245.143 143.415 245.171 143.434 243.997 145.208C242.821 146.985 242.737 146.93 241.563 148.704C240.387 150.481 240.213 151.332 239.183 152.465C238.164 153.586 238.851 152.315 238.576 152.134C238.302 151.952 238.458 151.715 238.184 151.534C237.909 151.352 237.809 151.504 237.534 151.322C237.259 151.141 237.482 150.805 237.207 150.623C236.932 150.441 236.946 150.42 236.672 150.238C236.397 150.056 236.06 150.566 235.785 150.384C235.51 150.202 235.624 150.031 235.349 149.849C235.074 149.667 234.967 149.829 234.692 149.647C234.418 149.465 234.635 149.137 234.36 148.955C234.086 148.773 234.209 148.587 233.934 148.406C233.66 148.224 233.636 148.26 233.361 148.078C233.086 147.897 232.89 148.193 232.615 148.012C232.34 147.83 232.505 147.581 232.23 147.399C231.955 147.217 231.069 148.433 231.702 147.057C232.341 145.667 232.729 145.414 233.904 143.639C235.078 141.865 235.108 141.885 236.282 140.11C237.457 138.336 237.481 138.351 238.655 136.577C239.829 134.802 239.751 134.751 240.926 132.976C242.1 131.201 242.171 131.248 243.345 129.473C244.519 127.699 244.454 127.656 245.629 125.881C246.803 124.107 246.893 124.166 248.067 122.392C249.242 120.617 249.163 120.565 250.337 118.79C251.511 117.015 251.564 117.05 252.738 115.276C253.913 113.501 253.838 113.452 255.014 111.674C256.188 109.9 256.22 109.921 257.395 108.147C258.569 106.372 258.615 106.403 259.789 104.628C260.964 102.853 260.932 102.832 262.106 101.058C263.28 99.283 263.229 99.249 264.405 97.472C265.579 95.6973 265.656 95.7481 266.83 93.9735C268.005 92.1988 268.021 92.2101 269.197 90.4331C270.372 88.6585 270.344 88.64 271.518 86.8654C272.694 85.0883 272.69 85.0856 273.864 83.311C275.04 81.5339 275.203 80.8224 276.234 79.6889C277.253 78.5683 276.696 79.6061 276.971 79.7878C277.246 79.9695 277.075 80.2278 277.349 80.4095C277.624 80.5912 277.445 80.8616 277.719 81.0433C277.994 81.2249 278.104 81.0584 278.379 81.2403C278.654 81.4219 278.479 81.6851 278.754 81.867C279.029 82.0487 279.376 81.5248 279.65 81.7067C279.925 81.8884 279.625 82.3423 279.9 82.5242C280.174 82.7059 280.494 82.223 280.769 82.4049C281.043 82.5866 280.958 82.7146 281.233 82.8965C281.508 83.0782 281.342 83.3293 281.616 83.5109C281.891 83.6926 282.09 83.3908 282.365 83.5727C282.64 83.7544 282.689 83.6796 282.964 83.8615C283.239 84.0434 282.919 84.5326 283.398 84.395C283.877 84.2569 284.343 83.6665 283.711 85.0427Z" fill="#BD9FE3"/>
<defs>
<clipPath id="clip0_2404_307">
<rect width="167" height="162" fill="white" transform="translate(0 13)"/>
</clipPath>
<clipPath id="clip1_2404_307">
<rect width="108.064" height="205.67" fill="white" transform="translate(350)"/>
</clipPath>
</defs>
</svg>
