<?xml version="1.0" encoding="utf-8"?>
<!-- Generator: $$$/GeneralStr/196=Adobe Illustrator 27.6.0, SVG Export Plug-In . SVG Version: 6.00 Build 0)  -->
<svg version="1.1" id="Capa_1" xmlns="http://www.w3.org/2000/svg" xmlns:xlink="http://www.w3.org/1999/xlink" x="0px" y="0px"
	 viewBox="0 0 497 496.3" style="enable-background:new 0 0 497 496.3;" xml:space="preserve">
<style type="text/css">
	.st0{fill:#85DA8B;}
	.st1{fill:#BD9FE3;}
	.st2{clip-path:url(#SVGID_00000129204640602453214770000011557751497916563844_);}
	.st3{fill:#51CB59;}
	.st4{fill:#A8E6A5;}
	.st5{fill:#2F9AE6;}
	.st6{opacity:0.25;clip-path:url(#SVGID_00000129204640602453214770000011557751497916563844_);}
	.st7{fill:#FFFFFF;}
	.st8{fill:#10352B;}
	.st9{fill:#FA8181;}
	.st10{fill:#915FD0;}
	.st11{fill:#091E18;}
	.st12{fill:#BFE9F8;}
	.st13{clip-path:url(#SVGID_00000049197245562080025240000008031669293894212279_);}
	.st14{opacity:0.25;clip-path:url(#SVGID_00000001623911284728151820000001168395719676312722_);fill:#FFFFFF;}
	.st15{clip-path:url(#SVGID_00000034056595789624143320000001406691195192231099_);}
	.st16{fill:#00A8E3;}
	.st17{fill:#F3F5F4;}
	.st18{filter:url(#Adobe_OpacityMaskFilter);}
	.st19{fill:#020202;}
	.st20{mask:url(#SVGID_00000104663986235413856550000003905595355710880175_);}
	.st21{fill:#80D4F1;}
	.st22{filter:url(#Adobe_OpacityMaskFilter_00000082326841463939429260000012506924720948094387_);}
	.st23{mask:url(#SVGID_00000132785386256602940180000002698464919862112700_);}
	.st24{fill-rule:evenodd;clip-rule:evenodd;fill:#A8E6A5;}
	.st25{clip-path:url(#SVGID_00000109721906699675040250000015430144144626165916_);}
	.st26{fill:#F2D54C;}
	.st27{opacity:0.25;clip-path:url(#SVGID_00000165194215476669835910000015472502693547930025_);fill:#F3F5F4;}
	.st28{fill:#F0F0F0;}
	.st29{fill-rule:evenodd;clip-rule:evenodd;fill:#80D4F1;}
	.st30{fill:#DECFF1;}
	.st31{clip-path:url(#SVGID_00000074443922542900537460000017558562788253587333_);fill:#BD9FE3;}
	.st32{clip-path:url(#SVGID_00000074443922542900537460000017558562788253587333_);fill:#915FD0;}
	.st33{clip-path:url(#SVGID_00000074443922542900537460000017558562788253587333_);}
	.st34{fill:url(#SVGID_00000011010609764507571930000017365040284196034485_);}
	.st35{fill:url(#SVGID_00000095317203020355370050000006435388817574327200_);}
	.st36{fill:url(#SVGID_00000145747005365736398080000010177316636827621033_);}
	.st37{fill:url(#SVGID_00000069360780164361724290000007103361396879091860_);}
	.st38{fill:url(#SVGID_00000034771161299128910700000015280498310506784664_);}
	.st39{fill:url(#SVGID_00000064336478109497267990000011716710801373213570_);}
	.st40{fill:url(#SVGID_00000106117548699373510200000017795768690865327798_);}
	.st41{fill:url(#SVGID_00000036219160066864511940000014327750427218346940_);}
	.st42{fill:url(#SVGID_00000088812485024350055380000001699634954285701797_);}
	.st43{fill:url(#SVGID_00000165207351363641783610000008856824579925058435_);}
	.st44{fill:url(#SVGID_00000012471938889284258800000009501796955906867372_);}
	.st45{fill:url(#SVGID_00000166664032037752030280000002057051543727643555_);}
	.st46{fill:url(#SVGID_00000122682507626496349100000011549776955905016756_);}
	.st47{fill-rule:evenodd;clip-rule:evenodd;fill:#DECFF1;}
	.st48{clip-path:url(#SVGID_00000168831368816997434820000016841703317323313066_);}
	.st49{fill:#3B5A51;}
	.st50{fill:#E3E3E3;}
	.st51{fill:#617A73;}
	.st52{fill:#405E55;}
	.st53{fill:none;stroke:#51CB59;stroke-width:3;stroke-miterlimit:10;}
	.st54{fill:none;stroke:#A8E6A5;stroke-width:3;stroke-miterlimit:10;}
</style>
<g>
	<path class="st0" d="M449.3,497c-3.5,2.8-4.9-1.6-9.4-2.1c-4.5-0.5-4.6,0.8-9.1,0.3c-4.5-0.5-4.2-2.7-8.7-3.2
		c-4.5-0.5-4.8,2.2-9.2,1.7c-4.5-0.5-4.3-2.3-8.7-2.8c-4.5-0.5-4.5,0.2-9-0.3c-4.5-0.5-4.4-1.1-8.9-1.6c-4.5-0.5-4.6,1.1-9.1,0.6
		c-4.5-0.5-4.5,0-9-0.5c-4.5-0.5-4.3-1.6-8.8-2.1c-4.5-0.5-4.5-0.3-8.9-0.7c-4.5-0.5-4.4-1.1-8.9-1.6c-4.5-0.5-4.6,0.7-9.1,0.2
		c-4.5-0.5-4.3-2.1-8.7-2.6c-4.5-0.5-4.4-1.3-8.8-1.7c-4.5-0.5-4.5-0.1-9-0.6c-4.5-0.5-4.4-0.6-8.9-1.1c-4.5-0.5-4.7,1.3-9.1,0.8
		c-4.5-0.5-4.4-1.4-8.8-1.9c-4.5-0.5-4.3-2.2-8.7-2.7c-4.5-0.5-4.5,0.1-9-0.4c-4.5-0.5-4.6,1-9.1,0.6c-4.5-0.5-4.6,0.4-9,0
		c-4.5-0.5-4.3-1.6-8.8-2.1c-4.5-0.5-4.3-2.3-8.7-2.8c-4.5-0.5-4.8,2.5-9.2,2c-4.5-0.5-4.3-1.7-8.8-2.1c-4.5-0.5-4.6,0.6-9,0.2
		c-4.5-0.5-4.2-3.1-8.6-3.6c-4.5-0.5-4.5,0.1-9-0.4c-4.5-0.5-4.6,1.1-9.1,0.6c-4.5-0.5-4.4-1.1-8.9-1.6c-4.5-0.5-4.4-1-8.9-1.5
		c-4.5-0.5-4.6,0.8-9.1,0.3c-4.5-0.5-4.2-3.2-8.6-3.7c-4.5-0.5-4.7,2-9.2,1.6c-4.5-0.5-4.5-0.4-8.9-0.8c-4.5-0.5-4.3-1.6-8.8-2.1
		c-4.5-0.5-4.5,0-9-0.4c-4.5-0.5-4.3-1.6-8.8-2.1c-4.5-0.5-4.7,1.7-9.2,1.2c-4.5-0.5-4.4-1.2-8.8-1.7c-4.5-0.5-4.4-1-8.9-1.5
		c-4.5-0.5-4.3-2.4-8.7-2.9c-4.5-0.5-4.6,0.9-9.1,0.5c-4.5-0.5-4.4-1.5-8.8-1.9c-4.5-0.5-4.7,1.5-9.1,1c-4.5-0.5-4.4-1-8.9-1.5
		s-5.9,1.9-8.7-1.6c-2.8-3.5,1-4.2,1.5-8.7c0.5-4.5-1.5-4.7-1-9.1c0.5-4.5,2.6-4.2,3.1-8.7c0.5-4.5-1.8-4.7-1.3-9.2
		c0.5-4.5,1.9-4.3,2.3-8.8c0.5-4.5,2.1-4.3,2.6-8.7c0.5-4.5,0.6-4.4,1.1-8.9c0.5-4.5-1.2-4.6-0.7-9.1c0.5-4.5,1.4-4.4,1.8-8.8
		c0.5-4.5,0.7-4.4,1.2-8.9c0.5-4.5-2.1-4.7-1.6-9.2c0.5-4.5,1.5-4.4,2-8.8c0.5-4.5-0.6-4.6-0.1-9c0.5-4.5,3.4-4.1,3.9-8.6
		c0.5-4.5-2.2-4.8-1.8-9.2c0.5-4.5,0.5-4.5,1-8.9c0.5-4.5,0.8-4.4,1.3-8.9c0.5-4.5,2.3-4.3,2.8-8.7c0.5-4.5,0.9-4.4,1.4-8.9
		c0.5-4.5-0.1-4.5,0.4-9c0.5-4.5-0.1-4.5,0.3-9c0.5-4.5-0.4-4.6,0.1-9c0.5-4.5,1.7-4.3,2.2-8.8c0.5-4.5-1-4.6-0.5-9.1
		c0.5-4.5,1.9-4.3,2.4-8.8c0.5-4.5,1-4.4,1.5-8.9c0.5-4.5,1.6-4.3,2-8.8c0.5-4.5-1.2-4.6-0.7-9.1c0.5-4.5,0.2-4.5,0.7-9
		c0.5-4.5,1.1-4.4,1.6-8.9c0.5-4.5,1.6-4.3,2.1-8.8c0.5-4.5-2.5-4.8-2-9.2c0.5-4.5,1.4-4.4,1.9-8.8c0.5-4.5,0.1-4.5,0.6-9
		c0.5-4.5,2.8-4.2,3.3-8.7c0.5-4.5,0.7-4.4,1.2-8.9c0.5-4.5,0.1-4.5,0.5-9c0.5-4.5-1.2-4.6-0.7-9.1c0.5-4.5,0-4.5,0.5-9
		c0.5-4.5,1.1-4.4,1.6-8.9c0.5-4.5,2.7-4.2,3.1-8.7c0.5-4.5-2.3-4.8-1.8-9.2c0.5-4.5,2.2-4.3,2.7-8.7c0.5-4.5,0.8-4.4,1.3-8.9
		c0.5-4.5-2.1-4.7-1.6-9.2c0.5-4.5,3.6-4.1,4.1-8.6c0.5-4.5-1.6-4.7-1.1-9.2c0.5-4.5,1.9-4.3,2.4-8.8c0.5-4.5-4.1-7-0.6-9.9
		c3.5-2.8,5,2.2,9.5,2.6c4.5,0.5,4.6-0.5,9,0c4.5,0.5,4.4,1.1,8.9,1.6c4.5,0.5,4.6-1.1,9.1-0.6c4.5,0.5,4.5,0,9,0.4
		c4.5,0.5,4.3,2.3,8.7,2.8c4.5,0.5,4.3,2,8.8,2.5c4.5,0.5,4.8-2.2,9.2-1.7c4.5,0.5,4.3,2,8.8,2.5c4.5,0.5,4.6-0.9,9.1-0.5
		c4.5,0.5,4.3,2.3,8.7,2.8c4.5,0.5,4.4,0.7,8.9,1.1c4.5,0.5,4.6-0.4,9,0.1c4.5,0.5,4.5,0.4,8.9,0.9c4.5,0.5,4.3,1.9,8.8,2.3
		c4.5,0.5,4.8-2.6,9.3-2.2c4.5,0.5,4.1,3.8,8.6,4.3c4.5,0.5,4.5,0.2,9,0.7c4.5,0.5,4.8-2.7,9.3-2.2c4.5,0.5,4.4,0.8,8.9,1.3
		c4.5,0.5,4.3,2.1,8.8,2.6c4.5,0.5,4.5,0.6,8.9,1.1c4.5,0.5,4.7-1.3,9.1-0.8c4.5,0.5,4.3,1.9,8.8,2.4c4.5,0.5,4.5-0.2,9,0.3
		c4.5,0.5,4.5-0.3,9,0.2c4.5,0.5,4.3,1.7,8.8,2.2c4.5,0.5,4.4,0.6,8.9,1.1c4.5,0.5,4.6-1,9.1-0.5c4.5,0.5,4.2,2.5,8.7,3
		c4.5,0.5,4.5,0.1,9,0.6c4.5,0.5,4.5-0.3,9,0.2c4.5,0.5,4.6-0.5,9,0c4.5,0.5,4.2,2.7,8.7,3.2c4.5,0.5,4.4,1.2,8.8,1.7
		c4.5,0.5,4.7-1.5,9.1-1c4.5,0.5,4.4,1.5,8.8,1.9c4.5,0.5,4.3,1.9,8.8,2.4c4.5,0.5,4.8-2.9,9.3-2.4c4.5,0.5,4.2,2.9,8.7,3.4
		c4.5,0.5,4.6-0.8,9.1-0.3c4.5,0.5,4.4,0.9,8.9,1.4c4.5,0.5,4.5-0.1,9,0.4c4.5,0.5,4.5,0.5,8.9,0.9c4.5,0.5,4.3,2.4,8.7,2.9
		c4.5,0.5,4.7-2,9.2-1.5c4.5,0.5,4.3,2.4,8.7,2.9c4.5,0.5,4.6-1,9.1-0.5c4.5,0.5,6.8-2.2,9.6,1.3c2.8,3.5-1.3,5.1-1.8,9.5
		c-0.5,4.5,0.5,4.6,0,9c-0.5,4.5-3.2,4.2-3.7,8.6c-0.5,4.5-0.3,4.5-0.7,8.9c-0.5,4.5,1.7,4.7,1.2,9.2c-0.5,4.5-2.9,4.2-3.3,8.7
		c-0.5,4.5,1.5,4.7,1.1,9.1c-0.5,4.5-0.6,4.4-1.1,8.9c-0.5,4.5-1,4.4-1.5,8.9c-0.5,4.5-1.6,4.3-2.1,8.8c-0.5,4.5,2.6,4.8,2.1,9.3
		c-0.5,4.5-3.4,4.1-3.9,8.6c-0.5,4.5,2.2,4.8,1.7,9.2c-0.5,4.5-1,4.4-1.5,8.9c-0.5,4.5,0.3,4.6-0.2,9c-0.5,4.5-0.6,4.5-1.1,8.9
		c-0.5,4.5-0.7,4.4-1.2,8.9c-0.5,4.5-1.3,4.4-1.8,8.8c-0.5,4.5-0.4,4.5-0.9,8.9c-0.5,4.5-1.4,4.4-1.9,8.8c-0.5,4.5-0.8,4.4-1.3,8.9
		c-0.5,4.5,0.9,4.6,0.4,9.1c-0.5,4.5-1.7,4.3-2.2,8.8c-0.5,4.5,1.3,4.7,0.8,9.1c-0.5,4.5-1.4,4.4-1.9,8.8c-0.5,4.5,0.2,4.5-0.3,9
		c-0.5,4.5-2.8,4.2-3.3,8.7c-0.5,4.5-0.7,4.4-1.2,8.9c-0.5,4.5,2.8,4.8,2.3,9.3c-0.5,4.5-1.7,4.3-2.2,8.8c-0.5,4.5-1.1,4.4-1.6,8.9
		c-0.5,4.5,1,4.6,0.5,9.1c-0.5,4.5-1.4,4.4-1.8,8.8c-0.5,4.5-1.4,4.4-1.9,8.8c-0.5,4.5-1.3,4.4-1.8,8.8c-0.5,4.5,0.4,4.6-0.1,9
		c-0.5,4.5,1.6,4.7,1.1,9.2c-0.5,4.5-0.3,4.5-0.8,8.9c-0.5,4.5-0.7,4.4-1.2,8.9c-0.5,4.5-1.3,4.4-1.8,8.8c-0.5,4.5-1.6,4.3-2,8.8
		c-0.5,4.5,1.5,4.7,1.1,9.1c-0.5,4.5-1.5,4.4-2,8.8c-0.5,4.5,0.4,4.6-0.1,9c-0.5,4.5-2.3,4.3-2.8,8.7c-0.5,4.5-0.4,4.5-0.9,8.9
		c-0.5,4.5,0.4,4.6-0.1,9c-0.5,4.5-3.5,4.6-2.9,9C449.2,492.7,452.8,494.2,449.3,497z"/>
	<path class="st1" d="M437.9,485.5c-3.5,2.8-4.7,0.4-9.2-0.1c-4.5-0.5-4.5-0.1-9-0.6c-4.5-0.5-4.3-2.4-8.7-2.8
		c-4.5-0.5-4.4-1.4-8.8-1.9c-4.5-0.5-4.7,1.4-9.1,1c-4.5-0.5-4.3-1.7-8.8-2.2c-4.5-0.5-4.6,1.1-9.1,0.7c-4.5-0.5-4.4-1.1-8.9-1.5
		c-4.5-0.5-4.4-1.3-8.8-1.7c-4.5-0.5-4.6,0.4-9,0c-4.5-0.5-4.3-1.9-8.8-2.4c-4.5-0.5-4.7,1.6-9.1,1.1c-4.5-0.5-4.3-1.6-8.8-2.1
		c-4.5-0.5-4.3-1.7-8.8-2.2c-4.5-0.5-4.5,0-9-0.4c-4.5-0.5-4.7,1.4-9.1,0.9c-4.5-0.5-4.2-2.7-8.7-3.2c-4.5-0.5-4.5,0-9-0.5
		c-4.5-0.5-4.7,1.6-9.2,1.1c-4.5-0.5-4.4-1.2-8.9-1.7c-4.5-0.5-4.4-0.7-8.9-1.1c-4.5-0.5-4.4-1.1-8.9-1.5c-4.5-0.5-4.6,0.8-9.1,0.3
		c-4.5-0.5-4.2-2.6-8.7-3.1c-4.5-0.5-4.6,0.5-9,0c-4.5-0.5-4.3-2.2-8.7-2.7c-4.5-0.5-4.7,2.1-9.2,1.6c-4.5-0.5-4.3-2.2-8.7-2.7
		c-4.5-0.5-4.5,0.1-9-0.4c-4.5-0.5-4.5,0.1-9-0.4c-4.5-0.5-4.3-1.9-8.8-2.4c-4.5-0.5-4.5,0.2-9-0.3c-4.5-0.5-4.6,1.1-9.1,0.6
		c-4.5-0.5-4.5-0.4-8.9-0.9c-4.5-0.5-4.1-3.8-8.6-4.3c-4.5-0.5-4.7,1.7-9.2,1.2c-4.5-0.5-4.6,0.7-9.1,0.2c-4.5-0.5-4.1-3.5-8.6-4
		c-4.5-0.5-4.7,2-9.2,1.6c-4.5-0.5-4.3-1.9-8.8-2.4c-4.5-0.5-4.6,0.6-9,0.1c-4.5-0.5-4.4-0.8-8.9-1.3c-4.5-0.5-4.3-2-8.8-2.5
		c-4.5-0.5-4.6,0.8-9.1,0.3c-4.5-0.5-4.5,0.1-9-0.4c-4.5-0.5-4.5,0.3-9-0.2c-4.5-0.5-4.1-3.5-8.6-4c-4.5-0.5-4.6,1-9.1,0.5
		c-4.5-0.5-6.5,2.9-9.3-0.6c-2.8-3.5,0.1-4.9,0.6-9.3c0.5-4.5,0.1-4.5,0.6-9c0.5-4.5,2.8-4.2,3.3-8.7c0.5-4.5-0.3-4.6,0.1-9
		c0.5-4.5,1.5-4.4,2-8.8c0.5-4.5,0.1-4.5,0.6-9c0.5-4.5-1-4.6-0.5-9.1c0.5-4.5,0.4-4.5,0.9-8.9c0.5-4.5,0.9-4.4,1.4-8.9
		c0.5-4.5,2.4-4.3,2.9-8.7c0.5-4.5,0.3-4.5,0.8-8.9c0.5-4.5-1.7-4.7-1.2-9.2c0.5-4.5-0.5-4.6,0-9c0.5-4.5,0.9-4.4,1.3-8.9
		c0.5-4.5,1.8-4.3,2.3-8.8c0.5-4.5,0.4-4.5,0.9-8.9c0.5-4.5-0.1-4.5,0.4-9c0.5-4.5,0-4.5,0.5-9c0.5-4.5,0.5-4.5,0.9-8.9
		c0.5-4.5,0.6-4.5,1.1-8.9c0.5-4.5,1.6-4.3,2.1-8.8c0.5-4.5,0.2-4.5,0.7-9c0.5-4.5,0-4.5,0.5-9c0.5-4.5-0.3-4.5,0.2-9
		c0.5-4.5,3.7-4.1,4.2-8.6c0.5-4.5-1.6-4.7-1.2-9.2c0.5-4.5-0.2-4.5,0.3-9c0.5-4.5,0.2-4.5,0.7-8.9c0.5-4.5,2.5-4.2,3-8.7
		c0.5-4.5,1.5-4.3,2-8.8c0.5-4.5-0.9-4.6-0.4-9.1c0.5-4.5,0.6-4.4,1.1-8.9c0.5-4.5,0-4.5,0.5-9c0.5-4.5,0.3-4.5,0.8-8.9
		c0.5-4.5-0.2-4.5,0.3-9c0.5-4.5,0.3-4.5,0.8-9c0.5-4.5,2.2-4.3,2.6-8.7c0.5-4.5-1.7-4.7-1.2-9.2c0.5-4.5,0.7-4.4,1.2-8.9
		c0.5-4.5,1.3-4.4,1.8-8.8c0.5-4.5,0.6-4.4,1.1-8.9c0.5-4.5,2.2-4.3,2.7-8.7c0.5-4.5-1.7-4.7-1.2-9.2c0.5-4.5,0.7-4.4,1.1-8.9
		c0.5-4.5,0.7-4.4,1.1-8.9c0.5-4.5,2-4.3,2.5-8.8c0.5-4.5,1.1-4.4,1.6-8.9c0.5-4.5-2-4.7-1.5-9.2s-0.8-5.2,2.7-8
		c3.5-2.8,4-2,8.4-1.5c4.5,0.5,4.2,2.7,8.7,3.2c4.5,0.5,4.4,1.2,8.8,1.7c4.5,0.5,4.7-1.7,9.2-1.2c4.5,0.5,4.3,1.9,8.8,2.4
		c4.5,0.5,4.6-0.5,9,0c4.5,0.5,4.5-0.2,9,0.3c4.5,0.5,4.2,3.1,8.6,3.6c4.5,0.5,4.6-1.2,9.1-0.7c4.5,0.5,4.4,0.8,8.9,1.3
		c4.5,0.5,4.5-0.3,9,0.2c4.5,0.5,4.4,1.4,8.8,1.9c4.5,0.5,4.5,0.1,9,0.5c4.5,0.5,4.5,0.1,9,0.6c4.5,0.5,4.2,2.5,8.7,3
		c4.5,0.5,4.6-0.8,9.1-0.3c4.5,0.5,4.4,0.9,8.9,1.4c4.5,0.5,4.7-1.4,9.1-0.9c4.5,0.5,4.3,1.6,8.8,2.1c4.5,0.5,4.4,1.4,8.8,1.9
		c4.5,0.5,4.6-0.7,9.1-0.3c4.5,0.5,4.3,2.4,8.7,2.8c4.5,0.5,4.5,0,9,0.5c4.5,0.5,4.6-1,9.1-0.5c4.5,0.5,4.5,0.1,9,0.6
		c4.5,0.5,4.4,1.2,8.8,1.7c4.5,0.5,4.4,1,8.9,1.5c4.5,0.5,4.4,1.2,8.8,1.7c4.5,0.5,4.6-0.4,9,0c4.5,0.5,4.5,0.2,9,0.7
		c4.5,0.5,4.5,0.2,9,0.7c4.5,0.5,4.5,0.5,8.9,1c4.5,0.5,4.4,0.8,8.9,1.3c4.5,0.5,4.3,1.9,8.8,2.4c4.5,0.5,4.5,0.6,8.9,1
		c4.5,0.5,4.7-1.6,9.2-1.1c4.5,0.5,4.5,0,9,0.5c4.5,0.5,4.1,3.4,8.6,3.9c4.5,0.5,4.8-2.4,9.2-1.9c4.5,0.5,4.2,3,8.7,3.5
		c4.5,0.5,4.8-2.4,9.2-1.9c4.5,0.5,4.4,1.4,8.8,1.9c4.5,0.5,4.6-0.5,9,0c4.5,0.5,4.4,0.9,8.9,1.4c4.5,0.5,4.3,2.2,8.7,2.7
		c4.5,0.5,4.7-1.6,9.2-1.1c4.5,0.5,4.5,0.3,9,0.8c4.5,0.5,4.2,3.1,8.6,3.6c4.5,0.5,5.4-2.8,8.3,0.7c2.8,3.5-0.9,3.7-1.4,8.2
		c-0.5,4.5,0.3,4.5-0.2,9c-0.5,4.5,0.4,4.6-0.1,9c-0.5,4.5-1.7,4.3-2.2,8.8c-0.5,4.5-1,4.4-1.5,8.9c-0.5,4.5,1.6,4.7,1.1,9.2
		c-0.5,4.5-2.8,4.2-3.3,8.7c-0.5,4.5,0.6,4.6,0.1,9c-0.5,4.5,1,4.6,0.5,9.1c-0.5,4.5-0.6,4.4-1.1,8.9c-0.5,4.5-1.3,4.4-1.7,8.8
		c-0.5,4.5-2,4.3-2.4,8.8c-0.5,4.5,0,4.5-0.5,9c-0.5,4.5,1.6,4.7,1.1,9.1c-0.5,4.5-1.9,4.3-2.4,8.8c-0.5,4.5,0.5,4.6,0,9
		c-0.5,4.5-0.7,4.4-1.2,8.9c-0.5,4.5-1.8,4.3-2.3,8.8c-0.5,4.5,2,4.7,1.5,9.2c-0.5,4.5-2.2,4.3-2.7,8.7c-0.5,4.5,0.7,4.6,0.3,9.1
		c-0.5,4.5-2.3,4.3-2.8,8.7c-0.5,4.5,0.9,4.6,0.4,9.1c-0.5,4.5,0,4.5-0.5,9c-0.5,4.5-3.1,4.2-3.6,8.6c-0.5,4.5,2.3,4.8,1.8,9.2
		c-0.5,4.5-0.4,4.5-0.9,8.9c-0.5,4.5-0.9,4.4-1.4,8.9c-0.5,4.5-3.1,4.2-3.6,8.6c-0.5,4.5,0.5,4.6,0,9c-0.5,4.5,1.5,4.7,1,9.1
		c-0.5,4.5-2,4.3-2.5,8.8c-0.5,4.5,0.8,4.6,0.3,9.1c-0.5,4.5-1.6,4.3-2.1,8.8c-0.5,4.5,0.6,4.6,0.1,9c-0.5,4.5-1.3,4.4-1.8,8.8
		c-0.5,4.5,0.7,4.6,0.2,9.1c-0.5,4.5-2.1,4.3-2.6,8.7c-0.5,4.5-0.3,4.5-0.7,9c-0.5,4.5-0.2,4.5-0.6,9c-0.5,4.5-1.1,4.4-1.6,8.9
		c-0.5,4.5-1.5,4.4-2,8.8c-0.5,4.5,0.3,4.5-0.2,9c-0.5,4.5-0.7,4.4-1.2,8.9c-0.5,4.5-0.2,4.5-0.7,9c-0.5,4.5,1.6,4.7,1.1,9.2
		c-0.5,4.5-3.3,4.2-3.8,8.6c-0.5,4.5,0.7,4.5,1.2,9C440,481.2,441.4,482.7,437.9,485.5z"/>
	<g>
		<g>
			<g>
				<defs>
					<path id="SVGID_1_" d="M407.2,271.8c-0.5,2-1,3.9-1.5,5.8c-0.5,1.9-0.6,4-1.2,5.9c-0.6,1.9-1.5,3.8-2.1,5.7
						c-0.7,1.9-0.8,4-1.6,5.9c-0.7,1.9-1.3,3.8-2.1,5.7c-0.8,1.8-2.5,3.3-3.3,5.1c-0.9,1.8-1.7,3.6-2.6,5.4
						c-0.9,1.8-2.1,3.5-3.1,5.2c-1,1.8-1.7,3.7-2.7,5.4c-1.1,1.7-2.8,3-3.9,4.6c-1.1,1.7-1.3,4-2.4,5.7c-1.2,1.6-2.9,2.8-4.2,4.4
						c-1.2,1.6-2.3,3.3-3.6,4.8c-1.3,1.5-2.8,2.9-4.2,4.4c-1.3,1.5-2.6,3.1-4,4.6c-1.4,1.4-2.5,3.2-4,4.6c-1.5,1.4-3.1,2.6-4.6,4
						c-1.5,1.3-3.2,2.5-4.7,3.8c-1.5,1.3-3,2.8-4.5,4c-1.6,1.2-3.4,2.2-5,3.4c-1.6,1.2-3.3,2.2-5,3.4c-1.7,1.1-3.2,2.5-4.9,3.5
						c-1.7,1.1-3.9,1.3-5.7,2.3c-1.7,1-3.2,2.4-5,3.4c-1.8,0.9-3.5,2-5.3,2.9c-1.8,0.9-3.5,2.1-5.3,2.9c-1.8,0.8-3.7,1.7-5.6,2.4
						c-1.9,0.7-4.1,0.5-6,1.2c-1.9,0.7-3.7,1.7-5.6,2.3c-1.9,0.6-4.1,0.3-6,0.9c-1.9,0.5-3.6,1.9-5.6,2.4c-2,0.5-3.9,0.9-5.9,1.3
						c-2,0.4-4,0.4-6,0.8c-2,0.3-4,0.4-6,0.7c-2,0.2-3.9,1.4-5.9,1.6c-2,0.2-4,0.3-6,0.4c-2,0.1-4,0-6.1,0c-2,0-4-0.8-6-0.9
						c-2,0-4,0.7-6.1,0.6c-2-0.1-4-0.2-6-0.4c-2-0.2-3.9-1.2-5.9-1.5c-2-0.3-4.1,0.3-6.1,0c-2-0.3-3.8-1.7-5.7-2.1
						c-2-0.4-4-0.6-5.9-1c-2-0.5-4.2,0.1-6.1-0.5c-1.9-0.5-3.8-1.6-5.7-2.2c-1.9-0.6-3.7-1.6-5.6-2.3c-1.9-0.7-3.7-1.5-5.6-2.2
						c-1.9-0.7-3.6-1.7-5.5-2.5c-1.8-0.8-3.9-1.1-5.7-2c-1.8-0.9-3.3-2.5-5-3.4c-1.8-0.9-4-1-5.8-2c-1.8-1-3-2.8-4.8-3.8
						c-1.7-1.1-3.4-2.1-5.1-3.2c-1.7-1.1-3.5-2-5.1-3.2c-1.6-1.2-3.8-1.7-5.4-2.9c-1.6-1.2-2.7-3.1-4.2-4.4
						c-1.5-1.3-3.3-2.4-4.8-3.7c-1.5-1.3-2.9-2.8-4.4-4.2c-1.4-1.4-2.4-3.3-3.8-4.7c-1.4-1.5-3.2-2.5-4.5-4
						c-1.3-1.5-2.4-3.3-3.7-4.8c-1.3-1.5-3.4-2.5-4.6-4.1c-1.2-1.6-2.1-3.5-3.2-5.1c-1.2-1.6-2.2-3.4-3.3-5
						c-1.1-1.7-1.5-3.8-2.5-5.6c-1.1-1.7-2.3-3.3-3.3-5c-1-1.7-2.9-3-3.9-4.8c-0.9-1.8-0.6-4.2-1.4-6c-0.9-1.8-2-3.5-2.8-5.4
						c-0.8-1.8-1.6-3.7-2.3-5.5c-0.7-1.9-1.5-3.7-2.2-5.6c-0.7-1.9-1.2-3.8-1.8-5.8c-0.6-1.9-1.7-3.7-2.2-5.6
						c-0.5-1.9-0.3-4.1-0.8-6c-0.5-2-1.7-3.7-2.1-5.7c-0.4-2-0.6-4-0.9-6c-0.3-2,0.3-4.1,0-6.1c-0.2-2-0.8-3.9-1-5.9
						c-0.2-2-1.1-4-1.2-6c-0.1-2,0.7-4,0.7-6.1c0-2-0.8-4-0.8-6c0-2,0.8-4,0.9-6c0.1-2,0.3-4,0.5-6c0.2-2-0.5-4.1-0.3-6.1
						c0.3-2,1.4-3.9,1.7-5.8c0.3-2-0.3-4.1,0.1-6.1c0.4-2,1-3.9,1.4-5.9c0.5-2,1.7-3.7,2.2-5.7c0.5-1.9,0.3-4.1,0.9-6
						c0.6-1.9,1.6-3.7,2.3-5.6c0.7-1.9,1.2-3.8,2-5.7c0.7-1.9,1.5-3.7,2.3-5.6c0.8-1.8,2.3-3.4,3.2-5.2c0.9-1.8,1.3-3.9,2.2-5.6
						c0.9-1.8,1.7-3.7,2.7-5.4c1-1.8,2.4-3.3,3.4-5c1.1-1.7,2.5-3.2,3.6-4.9c1.1-1.7,1.3-4,2.5-5.6c1.2-1.6,2.9-2.9,4.1-4.5
						c1.2-1.6,2.3-3.3,3.6-4.9c1.3-1.5,3.6-2.2,4.9-3.7c1.3-1.5,1.7-3.9,3.1-5.4c1.4-1.4,3.8-1.9,5.2-3.3c1.5-1.4,2.8-2.8,4.3-4.2
						c1.5-1.3,2.5-3.3,4-4.6c1.5-1.3,3.7-1.8,5.3-3c1.6-1.2,2.6-3.2,4.2-4.4c1.6-1.2,3.5-2,5.2-3.1c1.7-1.1,3.2-2.5,4.9-3.6
						c1.7-1.1,3.4-2.2,5.1-3.2c1.7-1,3.4-2.3,5.1-3.2c1.8-0.9,3.9-1.2,5.7-2c1.8-0.9,3.9-1.2,5.7-2c1.8-0.8,3.5-2.1,5.4-2.8
						c1.9-0.7,4-0.7,5.9-1.4c1.9-0.7,3.4-2.4,5.3-3c1.9-0.6,3.9-1.1,5.8-1.6c1.9-0.5,4-0.8,5.9-1.2c2-0.5,3.9-0.9,5.9-1.3
						c2-0.4,3.9-1.1,5.9-1.4c2-0.3,4.1,0.3,6.1,0c2-0.2,3.9-1.1,5.9-1.3c2-0.2,4-0.1,6-0.2c2-0.1,4,0.6,6,0.6c2,0,4-1.1,6-1
						c2,0,4-0.3,6.1-0.1c2,0.1,4,0.4,6,0.6c2,0.2,3.9,1.1,5.9,1.4c2,0.3,3.9,0.8,5.9,1.1c2,0.3,4,0.6,5.9,1c2,0.4,4.2-0.4,6.2,0.1
						c2,0.5,3.9,1.3,5.8,1.8c1.9,0.5,3.8,1.5,5.7,2.1c1.9,0.6,3.8,1.2,5.7,1.9c1.9,0.7,3.9,1.1,5.8,1.9c1.9,0.7,3.4,2.3,5.2,3.1
						c1.8,0.8,3.6,1.8,5.4,2.7c1.8,0.9,4.2,0.6,6,1.5c1.8,0.9,3.4,2.2,5.1,3.2c1.8,1,3.5,2,5.2,3.1c1.7,1.1,2.8,3,4.5,4.2
						c1.7,1.1,4.1,1.1,5.8,2.3c1.6,1.2,3.2,2.5,4.8,3.7c1.6,1.2,3,2.7,4.6,4c1.5,1.3,2.7,3,4.2,4.3c1.5,1.3,3.6,2,5.1,3.4
						c1.4,1.4,1.9,3.8,3.3,5.3c1.4,1.5,3.2,2.5,4.6,4c1.3,1.5,2.9,2.8,4.2,4.4c1.3,1.5,2.4,3.3,3.6,4.8c1.2,1.6,1.9,3.6,3.1,5.2
						c1.2,1.6,3,2.8,4.1,4.5c1.1,1.7,1.7,3.7,2.7,5.4c1.1,1.7,3,2.9,4,4.6c1,1.7,1.3,3.9,2.3,5.6c0.9,1.8,2,3.5,2.8,5.3
						c0.9,1.8,1.8,3.6,2.6,5.5c0.8,1.8,1.2,3.9,1.9,5.7c0.7,1.9,1.2,3.8,1.9,5.7c0.7,1.9,2.1,3.5,2.7,5.5c0.6,1.9,1.3,3.8,1.8,5.8
						c0.5,1.9,1.2,3.9,1.7,5.8c0.5,2,0.9,4,1.3,5.9c0.4,2-0.7,4.2-0.4,6.2c0.3,2,1,3.9,1.3,5.9c0.2,2,1.1,3.9,1.3,5.9
						c0.2,2,0.2,4,0.3,6c0.1,2-0.6,4-0.6,6.1c0,2,1.4,4,1.3,6c0,2-1.1,4-1.2,6c-0.1,2-0.8,4-1,6c-0.2,2-0.1,4-0.4,6
						c-0.3,2-1,3.9-1.3,5.9c-0.3,2,0.9,4.2,0.5,6.2C409.2,268.1,407.6,269.8,407.2,271.8z"/>
				</defs>
				<clipPath id="SVGID_00000052065564595052415650000006321996094992330665_">
					<use xlink:href="#SVGID_1_"  style="overflow:visible;"/>
				</clipPath>
			</g>
		</g>
		<g>
			<g>
				<g>
					<defs>
						<path id="SVGID_00000103983657923838323740000006496554424892944313_" d="M407.2,271.8c-0.5,2-1,3.9-1.5,5.8
							c-0.5,1.9-0.6,4-1.2,5.9c-0.6,1.9-1.5,3.8-2.1,5.7c-0.7,1.9-0.8,4-1.6,5.9c-0.7,1.9-1.3,3.8-2.1,5.7c-0.8,1.8-2.5,3.3-3.3,5.1
							c-0.9,1.8-1.7,3.6-2.6,5.4c-0.9,1.8-2.1,3.5-3.1,5.2c-1,1.8-1.7,3.7-2.7,5.4c-1.1,1.7-2.8,3-3.9,4.6c-1.1,1.7-1.3,4-2.4,5.7
							c-1.2,1.6-2.9,2.8-4.2,4.4c-1.2,1.6-2.3,3.3-3.6,4.8c-1.3,1.5-2.8,2.9-4.2,4.4c-1.3,1.5-2.6,3.1-4,4.6c-1.4,1.4-2.5,3.2-4,4.6
							c-1.5,1.4-3.1,2.6-4.6,4c-1.5,1.3-3.2,2.5-4.7,3.8c-1.5,1.3-3,2.8-4.5,4c-1.6,1.2-3.4,2.2-5,3.4c-1.6,1.2-3.3,2.2-5,3.4
							c-1.7,1.1-3.2,2.5-4.9,3.5c-1.7,1.1-3.9,1.3-5.7,2.3c-1.7,1-3.2,2.4-5,3.4c-1.8,0.9-3.5,2-5.3,2.9c-1.8,0.9-3.5,2.1-5.3,2.9
							c-1.8,0.8-3.7,1.7-5.6,2.4c-1.9,0.7-4.1,0.5-6,1.2c-1.9,0.7-3.7,1.7-5.6,2.3c-1.9,0.6-4.1,0.3-6,0.9c-1.9,0.5-3.6,1.9-5.6,2.4
							c-2,0.5-3.9,0.9-5.9,1.3c-2,0.4-4,0.4-6,0.8c-2,0.3-4,0.4-6,0.7c-2,0.2-3.9,1.4-5.9,1.6c-2,0.2-4,0.3-6,0.4c-2,0.1-4,0-6.1,0
							c-2,0-4-0.8-6-0.9c-2,0-4,0.7-6.1,0.6c-2-0.1-4-0.2-6-0.4c-2-0.2-3.9-1.2-5.9-1.5c-2-0.3-4.1,0.3-6.1,0
							c-2-0.3-3.8-1.7-5.7-2.1c-2-0.4-4-0.6-5.9-1c-2-0.5-4.2,0.1-6.1-0.5c-1.9-0.5-3.8-1.6-5.7-2.2c-1.9-0.6-3.7-1.6-5.6-2.3
							c-1.9-0.7-3.7-1.5-5.6-2.2c-1.9-0.7-3.6-1.7-5.5-2.5c-1.8-0.8-3.9-1.1-5.7-2c-1.8-0.9-3.3-2.5-5-3.4c-1.8-0.9-4-1-5.8-2
							c-1.8-1-3-2.8-4.8-3.8c-1.7-1.1-3.4-2.1-5.1-3.2c-1.7-1.1-3.5-2-5.1-3.2c-1.6-1.2-3.8-1.7-5.4-2.9c-1.6-1.2-2.7-3.1-4.2-4.4
							c-1.5-1.3-3.3-2.4-4.8-3.7c-1.5-1.3-2.9-2.8-4.4-4.2c-1.4-1.4-2.4-3.3-3.8-4.7c-1.4-1.5-3.2-2.5-4.5-4
							c-1.3-1.5-2.4-3.3-3.7-4.8c-1.3-1.5-3.4-2.5-4.6-4.1c-1.2-1.6-2.1-3.5-3.2-5.1c-1.2-1.6-2.2-3.4-3.3-5
							c-1.1-1.7-1.5-3.8-2.5-5.6c-1.1-1.7-2.3-3.3-3.3-5c-1-1.7-2.9-3-3.9-4.8c-0.9-1.8-0.6-4.2-1.4-6c-0.9-1.8-2-3.5-2.8-5.4
							c-0.8-1.8-1.6-3.7-2.3-5.5c-0.7-1.9-1.5-3.7-2.2-5.6c-0.7-1.9-1.2-3.8-1.8-5.8c-0.6-1.9-1.7-3.7-2.2-5.6
							c-0.5-1.9-0.3-4.1-0.8-6c-0.5-2-1.7-3.7-2.1-5.7c-0.4-2-0.6-4-0.9-6c-0.3-2,0.3-4.1,0-6.1c-0.2-2-0.8-3.9-1-5.9
							c-0.2-2-1.1-4-1.2-6c-0.1-2,0.7-4,0.7-6.1c0-2-0.8-4-0.8-6c0-2,0.8-4,0.9-6c0.1-2,0.3-4,0.5-6c0.2-2-0.5-4.1-0.3-6.1
							c0.3-2,1.4-3.9,1.7-5.8c0.3-2-0.3-4.1,0.1-6.1c0.4-2,1-3.9,1.4-5.9c0.5-2,1.7-3.7,2.2-5.7c0.5-1.9,0.3-4.1,0.9-6
							c0.6-1.9,1.6-3.7,2.3-5.6c0.7-1.9,1.2-3.8,2-5.7c0.7-1.9,1.5-3.7,2.3-5.6c0.8-1.8,2.3-3.4,3.2-5.2c0.9-1.8,1.3-3.9,2.2-5.6
							c0.9-1.8,1.7-3.7,2.7-5.4c1-1.8,2.4-3.3,3.4-5c1.1-1.7,2.5-3.2,3.6-4.9c1.1-1.7,1.3-4,2.5-5.6c1.2-1.6,2.9-2.9,4.1-4.5
							c1.2-1.6,2.3-3.3,3.6-4.9c1.3-1.5,3.6-2.2,4.9-3.7c1.3-1.5,1.7-3.9,3.1-5.4c1.4-1.4,3.8-1.9,5.2-3.3c1.5-1.4,2.8-2.8,4.3-4.2
							c1.5-1.3,2.5-3.3,4-4.6c1.5-1.3,3.7-1.8,5.3-3c1.6-1.2,2.6-3.2,4.2-4.4c1.6-1.2,3.5-2,5.2-3.1c1.7-1.1,3.2-2.5,4.9-3.6
							c1.7-1.1,3.4-2.2,5.1-3.2c1.7-1,3.4-2.3,5.1-3.2c1.8-0.9,3.9-1.2,5.7-2c1.8-0.9,3.9-1.2,5.7-2c1.8-0.8,3.5-2.1,5.4-2.8
							c1.9-0.7,4-0.7,5.9-1.4c1.9-0.7,3.4-2.4,5.3-3c1.9-0.6,3.9-1.1,5.8-1.6c1.9-0.5,4-0.8,5.9-1.2c2-0.5,3.9-0.9,5.9-1.3
							c2-0.4,3.9-1.1,5.9-1.4c2-0.3,4.1,0.3,6.1,0c2-0.2,3.9-1.1,5.9-1.3c2-0.2,4-0.1,6-0.2c2-0.1,4,0.6,6,0.6c2,0,4-1.1,6-1
							c2,0,4-0.3,6.1-0.1c2,0.1,4,0.4,6,0.6c2,0.2,3.9,1.1,5.9,1.4c2,0.3,3.9,0.8,5.9,1.1c2,0.3,4,0.6,5.9,1c2,0.4,4.2-0.4,6.2,0.1
							c2,0.5,3.9,1.3,5.8,1.8c1.9,0.5,3.8,1.5,5.7,2.1c1.9,0.6,3.8,1.2,5.7,1.9c1.9,0.7,3.9,1.1,5.8,1.9c1.9,0.7,3.4,2.3,5.2,3.1
							c1.8,0.8,3.6,1.8,5.4,2.7c1.8,0.9,4.2,0.6,6,1.5c1.8,0.9,3.4,2.2,5.1,3.2c1.8,1,3.5,2,5.2,3.1c1.7,1.1,2.8,3,4.5,4.2
							c1.7,1.1,4.1,1.1,5.8,2.3c1.6,1.2,3.2,2.5,4.8,3.7c1.6,1.2,3,2.7,4.6,4c1.5,1.3,2.7,3,4.2,4.3c1.5,1.3,3.6,2,5.1,3.4
							c1.4,1.4,1.9,3.8,3.3,5.3c1.4,1.5,3.2,2.5,4.6,4c1.3,1.5,2.9,2.8,4.2,4.4c1.3,1.5,2.4,3.3,3.6,4.8c1.2,1.6,1.9,3.6,3.1,5.2
							c1.2,1.6,3,2.8,4.1,4.5c1.1,1.7,1.7,3.7,2.7,5.4c1.1,1.7,3,2.9,4,4.6c1,1.7,1.3,3.9,2.3,5.6c0.9,1.8,2,3.5,2.8,5.3
							c0.9,1.8,1.8,3.6,2.6,5.5c0.8,1.8,1.2,3.9,1.9,5.7c0.7,1.9,1.2,3.8,1.9,5.7c0.7,1.9,2.1,3.5,2.7,5.5c0.6,1.9,1.3,3.8,1.8,5.8
							c0.5,1.9,1.2,3.9,1.7,5.8c0.5,2,0.9,4,1.3,5.9c0.4,2-0.7,4.2-0.4,6.2c0.3,2,1,3.9,1.3,5.9c0.2,2,1.1,3.9,1.3,5.9
							c0.2,2,0.2,4,0.3,6c0.1,2-0.6,4-0.6,6.1c0,2,1.4,4,1.3,6c0,2-1.1,4-1.2,6c-0.1,2-0.8,4-1,6c-0.2,2-0.1,4-0.4,6
							c-0.3,2-1,3.9-1.3,5.9c-0.3,2,0.9,4.2,0.5,6.2C409.2,268.1,407.6,269.8,407.2,271.8z"/>
					</defs>
					<use xlink:href="#SVGID_00000103983657923838323740000006496554424892944313_"  style="overflow:visible;fill:#BFE9F8;"/>
					<clipPath id="SVGID_00000052072914459082696790000011455876934587308729_">
						<use xlink:href="#SVGID_00000103983657923838323740000006496554424892944313_"  style="overflow:visible;"/>
					</clipPath>
					<g style="clip-path:url(#SVGID_00000052072914459082696790000011455876934587308729_);">
						<g>
							<g>
								<path class="st3" d="M125.9,75.5c2.2-2.3,2.6-1.2,6.3-2.3c1.8-0.5,3.9-1.1,6.3-1.5c2-0.4,4.2,0.1,6.5-0.1
									c2.1-0.2,4.2-0.9,6.4-0.8c2.1,0.1,4.3,0,6.5,0.4c2.1,0.4,4.2,1.1,6.2,1.9c2,0.7,3.8,2,5.6,3.1c1.8,1.1,3.7,2.1,5.3,3.6
									c1.5,1.4,2.6,3,4,4.2c1.5,1.3,3.5,2,4.9,3.1c1.6,1.3,2.2,3.7,3.6,4.8c1.7,1.3,3.9,1.6,5.2,2.8c1.7,1.5,2.7,3.3,3.4,4.7
									c1,1.8,1.6,3.7,0.7,5.7c-0.7,1.4-2.2,2.7-3.9,4.4c-1.2,1.1-2.4,2.7-4.2,4c-1.7,1.3-3.4,2.6-4.9,3.7
									c-1.8,1.4-3.2,2.8-4.7,3.9c-1.8,1.4-4.3,1.6-5.7,2.8c-1.8,1.7-2.8,3.6-3.7,5c-1.2,2-0.9,3.8-0.2,5.8c0.5,1.6,1.4,3.1,3,5.1
									c1.5,1.8,2.3,3.4,3.4,4.1c1.9,1.1,3.7,0.9,5.2-0.2c1.3-0.9,2.9-2,4.3-3.4c1.2-1.2,2.4-2.4,4-3.4c1.7-1.1,3.2-2.9,5.2-3.1
									c1.9-0.2,4.2,0.2,6.1,1c1.8,0.7,3.5,1.9,5.1,3.5c1.3,1.3,2.5,3,3.4,5.1c0.8,1.7,1.8,3.6,2.2,5.8c0.4,1.9-0.2,4,0.2,5.7
									c0.5,1.9,1.9,3.4,2.4,5.1c0.6,1.9,0.6,3.9,0.8,5.6c0.3,2-0.3,3.7-0.7,5.5c-0.4,1.7-0.6,3.6-2,5.2c-1.1,1.2-2.9,1.9-4.7,3.1
									c-1.4,0.9-3,1.8-4.9,2.7c-1.7,0.8-3.4,1.9-5.2,2.8c-1.7,0.9-3.3,2.2-5.1,3.1c-1.7,0.9-3.6,1.5-5.4,2.5
									c-1.8,0.9-3.3,2.3-5,3.2c-1.8,0.9-3.6,1.7-5.3,2.6c-1.8,0.9-3.5,1.9-5.3,2.7c-1.9,0.9-3.9,1.3-5.6,2
									c-1.9,0.8-3.8,1.6-5.5,2.2c-2,0.6-4.1,0.5-5.9,0.8c-2.2,0.3-4.1-0.1-5.7-0.5c-1.9-0.5-4-0.5-5.8-0.8c-2.1-0.4-4-0.9-5.8-0.8
									c-2.1,0.1-3.6,1.3-5.1,2.4c-1.4,1-2.3,2.2-2.9,4.4c-0.4,1.6-0.9,3.3-0.9,5.6c0,2.1,0.7,4,1.1,5.9c0.5,2.1,1.2,3.8,2,5.6
									c0.9,1.9,1.7,3.6,2.9,5.2c1.2,1.6,2.5,3.2,4,4.6c1.5,1.4,2.6,3.3,4.3,4.4c1.7,1.2,3.6,2.2,5.3,3.1c1.2,0.6,3.2,1,5.5,2.2
									c1.5,0.8,2.8,2.6,4.7,3.6c1.6,0.9,3.8,1,5.6,2.1c1.6,0.9,3.6,1.5,5.3,2.5c1.6,1,3.5,1.8,5.2,2.8c1.7,1,2.6,3.3,4.2,4.3
									c1.6,1.1,4.1,0.9,5.7,2c1.6,1.1,3.2,2.4,4.7,3.5c1.6,1.2,2.5,3.3,4,4.5c1.6,1.2,3.7,1.8,5.1,3.1c1.5,1.3,2.6,3.1,3.9,4.5
									c1.5,1.5,3,2.7,4.2,4.1c1.3,1.7,1.8,3.6,2.5,5.3c0.9,2,1.9,3.7,1.6,5.5c-0.2,1.6-1.3,3.3-2.3,5.4c-0.8,1.6-2.2,3-3.3,4.8
									c-1,1.6-0.9,4-2.1,5.7c-1.1,1.5-2.4,3-3.7,4.6c-1.2,1.5-2.7,2.8-3.9,4.4c-1.2,1.5-2.7,2.9-4,4.4c-1.2,1.5-2,3.4-3.3,5
									c-1.3,1.5-3.6,2.1-4.9,3.6c-1.3,1.5-2.4,3.1-3.7,4.6c-1.3,1.5-2.7,2.9-4,4.4c-1.3,1.5-1.8,3.7-3.1,5.2
									c-1.3,1.5-3,2.7-4.2,4.1c-1.3,1.5-2,3.5-3.3,5c-1.3,1.6-2.8,2.9-4,4.3c-1.3,1.6-2.5,3.2-3.6,4.7c-1.3,1.7-2.2,3.4-3.2,4.9
									c-1.3,2.1-2.5,3.6-2.9,5c-0.7,2.6-1.9,4.8-2.1,6.7c-0.4,3.1,0.1,5.4,0.1,7c0,2.8-0.2,3.6-3.9,4.2c-1.7,0.3-3.8-0.7-5.7-2.8
									c-1.3-1.5-2.2-3.6-3.4-5.7c-1.1-1.8-2.9-3.4-3.9-5.4c-1-2.1-1.2-4.5-1.8-6.4c-1.2-3.3-2.3-5.7-1.9-6.3
									c0.3-3.2,0.5-1.5,1.9-6.2c0.5-1.7,0.4-3.9,1.3-6.4c0.7-1.8,1.3-3.9,2.3-6.1c0.9-1.9,2.3-3.6,3.2-5.5c0.9-1.9,1.3-4.1,2.1-6
									c0.9-2,1.9-3.8,2.6-5.7c0.8-2.1,2.5-3.9,2.9-5.8c0.5-2.4,0-4.7-0.4-6.4c-0.5-2.1-1.5-4.4-3.6-5.4c-1.6-0.7-3.4-1.4-5.2-2.4
									c-1.6-0.9-3.5-1.6-5.1-2.7c-1.6-1.2-2.8-2.7-4.1-4.1c-1.4-1.5-3-2.8-3.6-4.5c-0.7-1.8-0.6-3.7-0.1-5.7
									c0.4-1.6,1.7-2.8,3.2-4.5c1.5-1.6,1.8-4,3-5.3c1.5-1.6,3.3-2.7,4.4-4c1.6-1.8,2.6-3.4,3.6-4.8c1.6-2.3,2.3-3.9,2-5.4
									c-0.4-1.6-1.9-3.4-3.1-6.1c-0.8-1.8-0.5-4.3-1.2-6.8c-0.5-2-1.3-4.1-1.7-6.6c-0.3-1.9-0.7-4.2-1.9-5.9
									c-1.1-1.6-2.7-3-4.2-4.4c-1.4-1.3-3.7-1.8-5.3-3c-1.6-1.2-3.2-2.5-4.8-3.5c-1.8-1.1-3.7-1.9-5.2-2.9c-2-1.3-2.8-3.5-4-4.6
									c-1.5-1.4-3-2.4-4.2-3.8c-1.1-1.4-2.4-2.6-3.2-4.7c-0.5-1.5-1.3-3.3-1.6-5.5c-0.3-1.6,0.5-3.6,0.3-5.8
									c-0.1-1.7-1.7-3.5-1.7-5.6c-0.1-1.8-0.1-3.8,0-5.9c0.1-1.8,0.6-3.8,0.8-5.8c0.2-1.9,1.4-3.7,1.7-5.7c0.2-1.9-0.8-4-0.5-5.9
									c0.3-1.9,0.9-3.8,1.2-5.7c0.3-1.9,1.5-3.7,1.8-5.6c0.3-2-0.3-4-0.1-5.9c0.3-2,0.8-3.9,1-5.7c0.2-2-0.6-4.1-0.5-5.9
									c0.1-2.1,0.3-4,0.3-5.7c-0.1-2.5,0-4.3-0.6-5.6c-0.8-1.6-1.4-3.3-2.2-4.7c-1-1.7-1.6-3.4-2.4-4.6c-1.8-2.7-3.6-1.2-2.7-3.6
									c1.1-2.9,0.7-3.1,2.5-5.7c1.8-2.5,2.1-2.3,4-4.9c1.8-2.5,2.4-2.1,4.3-4.7c1.8-2.5,1.8-2.6,3.6-5.1c1.8-2.5,2-2.4,3.9-5
									c1.8-2.5,0.9-3.3,2.7-5.8c1.8-2.6,2.6-2,4.5-4.5c1.8-2.6,1-3.1,2.5-5.8C123.6,77.8,123.7,77.7,125.9,75.5z"/>
							</g>
							<g>
								<path class="st3" d="M210.6,80.8c-1.4,2.2-2.5,2-2.7,4.8c-0.1,1.6,1.5,3,2.8,4.6c0.9,1.1,1.9,2.4,3.9,3.2
									c1.7,0.7,3.4,1.5,5.1,2.3c1.7,0.8,3.2,1.9,4.7,2.9c1.6,1,2.9,2.3,4.2,3.5c1.4,1.3,3.6,2,4.4,3.6c0.8,1.6,0.8,3.7,1,5.7
									c0.1,1.7,0.2,3.7-0.4,5.6c-0.6,2-1.6,3.8-2,5.7c-0.5,2-1.5,3.9-1.8,5.8c-0.3,2.1,0.2,4.2,0.4,6.1c0.2,2,0.1,4.3,1.1,6.1
									c0.9,1.6,2.6,3,4.4,4.4c1.4,1.1,3.3,1.9,5.3,2.9c2,0.9,3.7,1.9,5.2,2c2.1,0.2,4-0.5,5.5-1.4c1.6-0.9,2.8-2.5,3.8-4
									c1.1-1.6,2.3-3.1,3.1-4.6c1.1-2.1,1.5-4.3,2.7-4.8c1.5-0.6,3.8,0.7,6.4,0.7c1.8,0,3.7-1,5.9-2.2c1.5-0.8,2.7-2.3,4.4-4.2
									c1.2-1.4,3.6-2.2,4.8-4.3c0.9-1.6,0.9-4,1.9-6.2c0.8-1.9,2-3.5,2.9-5.1c1-1.8,2.1-3.4,3-5c1.1-1.8,1.3-4,2.3-5.4
									c1.2-1.8,2.7-3.1,3.7-4.5c1.3-1.9,1.9-3.7,2.6-5.1c1-2.1,2-3.5,1.1-5.3c-0.7-1.3-2.1-2.5-4.3-3.9c-1.9-1.2-3.6-2.2-5.3-3.1
									c-2-1-4.1-1.1-5.9-1.6c-2.1-0.6-3.8-2.3-5.7-2.5c-2.1-0.2-4.2,0.4-6.2,0.5c-2,0.1-4.1-0.5-6.2-0.3c-1.9,0.2-3.9,0.5-6,0.7
									c-1.9,0.1-3.9,1.7-6,1.7c-1.9,0-3.9-1.5-6-1.7c-1.9-0.2-3.9-0.2-6-0.6c-1.9-0.3-4,0-6.1-0.5c-2-0.5-3.8-1.2-5.5-1.5
									c-2.1-0.4-3.9-1-5.6-1.2c-2.1-0.2-4-0.1-5.7,0.2c-2,0.3-4.1,0.3-5.6,1.4C212.4,77,211.7,79,210.6,80.8z"/>
							</g>
							<g>
								<path class="st3" d="M356.8,138.3c-1.8,0-3.8,0.1-5.6,0.3c-1.8,0.3-3.6,1-5.4,1.5c-1.8,0.5-3.6,0.9-5.3,1.7
									c-1.7,0.8-2.6,2.8-4.2,3.8c-1.5,1-3.4,1.5-4.8,2.6c-1.4,1.2-2.5,2.9-4,4.2c-1.4,1.2-2.9,2.4-4.4,3.8c-1.4,1.2-3,2.4-4.4,3.7
									c-1.4,1.3-3.7,1.6-5.1,2.9c-1.4,1.3-2.3,3.2-3.7,4.5c-1.4,1.3-2.5,3-3.9,4.3c-1.4,1.3-3.5,2-4.8,3.3c-1.4,1.4-2.9,2.7-4.2,4
									c-1.4,1.4-3.2,2.4-4.5,3.7c-1.5,1.5-1.8,3.8-3,5.1c-1.5,1.6-3.6,2.3-4.6,3.7c-1.7,2.2-2.3,4.2-2.4,5.3
									c-0.2,1.7-0.2,3.6-0.2,5.6c-0.1,1.8-0.1,3.7,0,5.6c0.1,1.9,0.7,3.7,1.1,5.5c0.4,2,0.8,3.7,1.7,5.2c1,1.8,1.9,3.4,3.7,4
									c1.3,0.4,3.3,0.8,5.7,0.6c1.7-0.1,3.6-0.5,5.7-0.8c1.8-0.3,3.8-0.2,5.7-0.6c1.9-0.4,3.7-1.1,5.5-1.5
									c1.9-0.4,3.5-2.1,5.3-2.5c2-0.5,4.2,0,5.8-0.4c2-0.5,3.9-0.7,5.9-0.6c2,0.1,3.7,0.9,5.7,1.6c1.8,0.7,4,0.9,6.2,1.7
									c1.9,0.7,4.2,0.9,6.2,1.6c2.1,0.7,4.2,1,6.2,1.6c2.2,0.7,4.2,1.8,6,2.2c3.2,0.8,5.7,1.4,6.3,0.9c1-0.8,2.6-2.6,4.6-4.2
									c1.7-1.4,3.6-2.7,5.3-3.1c1.9-0.5,3.5,0.1,4.5,2.9c0.7,1.7,1.4,3.6,2.1,5.4c0.8,2,1.6,3.8,1.9,5.4c0.4,2.4-0.1,3.5-2,4.2
									c-1.2,0.4-2.6,0.5-5.3-0.2c-2.1-0.5-4.6,0.1-6.6-0.5c-2.2-0.7-4.1-2-6.1-2.5c-2.3-0.6-4.5-0.9-6.4-0.9
									c-2.4,0-4.7,0.1-6.3,1.6c-1.3,1.2-2.2,3.3-2.8,6c-0.4,1.8,0.2,3.9-0.1,6.2c-0.2,1.9-1,3.9-1.1,6.1c0,2,0.3,4,0.5,6.1
									c0.1,2,0.4,4,0.7,6.1c0.3,2,0.5,4.1,1,6c0.5,2,0.1,4.4,0.9,6.2c0.8,2,1.9,3.9,3,5.5c1.2,1.7,3.3,2.7,4.9,3.9
									c1.6,1.2,3.4,2.2,5.4,2.8c2.5,0.7,4.6,1.3,6.4,1.3c2.6,0,4.2-1.7,5.8-2.6c2-1.3,3-2.7,3.7-4.6c1-2.6,1.6-5,1.5-6.1
									c-0.2-1.4-1.2-4.4-1.7-7.3c-0.5-3.1-0.8-6.6,0-7.8c1-1.5,3.5-1.7,5.8-1.4c1.7,0.2,3.5,1.3,5.4,2.2c1.7,0.8,3.9,1.2,5.4,2.3
									c1.6,1.3,2.6,3.2,3.6,4.7c1.2,1.8,2.3,3.8,1.8,5.6c-0.4,1.5-1.1,3.5-1.6,5.8c-0.4,1.8-0.1,3.9-0.4,6c-0.2,2-1.7,3.9-1.7,6
									c0,2,1.4,3.9,1.9,5.9c0.5,2,1,3.8,2,5.5c1,1.7,2.2,3.1,3.8,4.5c1.4,1.2,2.6,3.1,4.6,4c2,0.9,4,1.1,5.5,1.3
									c2.3,0.3,4-0.4,5.3-1.3c1.5-1,3.3-2.2,4-4.1c0.6-1.6,1.1-3.6,1.5-5.5c0.4-1.9,0-3.9,0.3-5.6c0.4-2.1,1.2-3.7,1.9-5.1
									c0.8-1.7,2.1-2.9,3.9-3.9c1.7-1,3.4-1.8,5.3-1.6c1.9,0.2,3.5,0.9,4.8,2.7c1,1.3,1.9,3,2.3,5.4c0.3,1.7-0.4,3.6-0.5,5.9
									c-0.1,1.8-0.4,3.6-0.7,5.8c-0.4,2.4-0.5,4.5-0.7,6.4c-0.3,2.5-0.1,4.7-0.1,6.4c0,3.2,0.2,5.5,1.1,6.5
									c1.3,1.4,3.7,0.6,6.3-0.3c1.8-0.6,3.7-1.9,5.9-2.6c2-0.6,3.9-1.4,5.5-3.1c1.4-1.5,2.7-3.3,3.9-5.3c1.2-1.9,1.7-4.1,2.6-6
									c1.1-2.1,2.6-3.8,3.6-5.6c1.4-2.7,2.7-4.6,3.8-5.3c1.2-0.8,3.1-2.5,5.3-4.2c1.8-1.4,3.6-3,5.3-4.3c2.9-2.4,4.4-0.8,5.3-4.1
									c0.8-3-0.7-3-0.9-6.1c-0.1-3.1,1.5-3.1,1.3-6.2c-0.1-3.1-1.2-3-1.3-6.1c-0.1-3.1,0.3-3.1,0.2-6.2c-0.1-3.1-0.8-3.1-0.9-6.1
									c-0.1-3.1,0.9-3.1,0.7-6.2c-0.1-3.1-0.9-3-1.1-6.1c-0.1-3.1,0.5-3.1,0.4-6.2c-0.1-3.1,0.2-3.1,0-6.2c-0.1-3.1-0.8-3.1-1-6.1
									c-0.1-3.1,0.6-3.1,0.5-6.2c-0.1-3.1-1.6-3-1.7-6.1c-0.1-3.1,0.1-3.1-0.1-6.2c-0.1-3.1-0.2-3.1-0.3-6.2
									c-0.1-3.1,0.5-3.1,0.4-6.2c-0.1-3.1-0.8-3.1-0.9-6.1c-0.1-3.1,1.3-3.1,1.2-6.2c-0.1-3.1-0.3-3.1-0.4-6.2
									c-0.1-3.1-1-3-1.2-6.1c-0.1-3.1,0.1-3.1,0-6.2c-0.1-3.1,0.9-3.3,0-6.2c-0.9-2.8-2-1-5.7-2.1c-1.6-0.5-3.7-0.1-5.9-0.7
									c-1.7-0.5-3.4-1.9-5.5-2.4c-1.8-0.5-3.7-0.8-5.8-1.3c-1.8-0.4-3.8-0.8-5.8-1.2c-1.8-0.4-3.7-1-5.7-1.4
									c-1.9-0.4-3.8-0.9-5.8-1.3c-1.9-0.4-4,0.6-6,0.2c-1.9-0.3-3.8-0.9-5.8-1.2c-1.9-0.3-3.9-0.5-5.8-0.8
									c-1.9-0.3-3.8-0.8-5.8-1.1c-1.9-0.3-3.8-1.2-5.8-1.4c-1.9-0.2-4,0.7-6,0.5c-1.9-0.2-3.9-0.7-5.8-0.9
									c-1.9-0.2-3.9-0.4-5.9-0.6c-1.9-0.2-3.8-1.3-5.8-1.4c-1.9-0.1-3.9,0-5.9-0.1c-1.9-0.1-3.9-0.2-5.9-0.3
									c-1.9-0.1-4,0.7-5.9,0.7c-2-0.1-3.9,0-5.9,0c-2,0-3.9-0.5-5.9-0.5C360.8,139.1,358.8,138.3,356.8,138.3z"/>
							</g>
							<g>
								<path class="st3" d="M323.5,248.7c-2.4-1.8-1.4-2.2-4.5-4.1c-1.5-0.9-3.4-1.8-5.4-2.8c-1.7-0.8-3.5-1.9-5.5-2.6
									c-1.8-0.6-4-0.8-6-1.2c-1.9-0.4-4-0.1-6-0.1c-2.2,0-4.3-0.8-6.4-0.8c-2.2,0-4.4,0.9-6.4,1c-2.2,0.1-4.4,0-6.4,0.3
									c-2.2,0.4-4.1,1.1-6.1,1.9c-2,0.7-4,1.4-5.8,2.7c-1.7,1.2-3.5,2.4-5,4.1c-1.2,1.4-2.4,3-3.4,4.6c-1,1.6-1.9,3.3-2.7,5.1
									c-0.8,1.7-0.7,3.8-1.2,5.6c-0.6,1.8-1.4,3.6-1.7,5.4c-0.4,1.9-0.8,3.8-1,5.6c-0.2,2.1,0.3,4,0.4,5.7
									c0.2,2.3,0.9,3.9,1.6,5.2c0.9,1.7,1.9,3.1,3.5,4.3c1.5,1.2,2.7,2.8,4.5,3.8c1.7,0.9,3.4,2,5.2,2.8c1.8,0.8,4.2,0.3,5.9,1.2
									c1.8,0.9,3.4,2.3,4.9,3.3c1.7,1.2,2.8,2.9,3.8,4.4c1,1.6,1.4,3.2,1.3,5.4c-0.1,2.1,0.4,4.3,0.8,6.5c0.4,2.1,0.8,4.3,1.4,6.4
									c0.6,2.1,1,4.2,1.6,6.3c0.6,2.1,1.8,4.1,2.3,6.1c0.6,2.2,1.5,4.3,1.7,6.3c0.2,2.3-0.1,4.7-0.9,6.6c-0.7,1.6-1.3,3.6-2.2,5.7
									c-0.7,1.8-2.5,3.3-3.1,5.4c-0.6,1.9-0.8,4-1.2,6c-0.4,2-1.2,4.1-1.2,6.1c0,2.1,0,4.4,0.6,6.3c0.6,1.9,1.7,4,3.1,5.6
									c1.3,1.4,3.6,1.6,5.7,2.6c2,0.9,4,2.2,6.1,1.8c1.9-0.4,3.5-2.2,5.4-3.5c1.6-1.1,3.7-1.9,5.3-3.5c1.5-1.4,2.7-3.2,4.1-4.8
									c1.4-1.5,2.2-3.6,3.5-5.3c1.3-1.7,2.7-3.2,4-4.9c1.3-1.7,3.6-2.7,4.8-4.4c1.3-1.8,2.3-3.7,3.5-5.3c1.3-1.9,2.4-3.8,3.5-5.3
									c1.6-2.3,2.7-4.2,3.7-5c1.1-0.9,1.9-3,3.5-5.2c1.1-1.5,2.3-3.2,3.5-5.1c1-1.7,2-3.5,3-5.4c0.9-1.8,1.6-3.8,2.4-5.7
									c0.8-1.9,1.9-3.7,2.5-5.7c0.7-2.1,1.1-4.1,1.4-6c0.3-2.3-0.2-4.1-0.6-6c-0.5-2.1-0.8-4-2.6-5.2c-1.8-1.2-3.5-2.5-4.9-3.8
									c-1.6-1.5-2.3-3.6-3.4-5.2c-1.2-1.8-1.9-3.6-2.6-5.5c-0.7-2-1.8-3.8-2-5.8c-0.2-2.1-0.5-4.2-0.4-6.2
									c0.1-1.6-0.2-3.5-0.3-5.7c-0.1-1.8,1-3.9,0.6-5.9c-0.4-1.8-0.9-3.8-1.7-5.6c-0.8-1.7-2.7-2.8-4-4.3
									C326.4,251.3,325.2,249.8,323.5,248.7z"/>
							</g>
						</g>
						<g>
							<g>
								<g>
									<path class="st4" d="M174.8,309.5c-0.6-0.1-1.2-0.7-1.1-1.3c0.1-0.6,0.9-1.4,1.6-1.3c1.8,0.3,3.7,0.7,5.5,0.2
										c1.7-0.5,3.8-0.9,5.4-2c1.6-1.3,2-3.7,3.1-5.4c1.1-1.8,2.1-3.4,2.3-5.4c0.2-2,0.2-4-0.4-5.9c-0.6-1.9-1.2-4-2.4-5.5
										c-1.2-1.6-3-2.7-4.7-3.8c-1.6-1.1-3.4-2.5-5.3-2.9c0,0-0.2,0.8-0.2,0.8c0,0-0.1,0.5-0.1,0.5c-0.6-0.2-1.2-1.5-1-2.1
										c0.2-0.6,1.2-1.6,1.9-1.5c0,0-0.1,0.2,0,0.3c2.2,0.5,3.8,2.5,5.7,3.8c1.9,1.3,3.7,2.4,5,4.2c1.4,1.8,3.2,3.5,3.9,5.6
										c0.7,2.2,0.7,4.6,0.4,6.9c-0.2,2.3-1.2,4.6-2.4,6.6c-1.2,2-3.2,3.2-5.2,4.6c-1.8,1.4-3.2,3.5-5.2,4.1
										c-2.2,0.6-4.6,0.8-6.8,0.4C174.8,310.1,174.9,309.5,174.8,309.5z"/>
								</g>
								<g>
									<path class="st4" d="M149,331.2c-0.3-0.1-1,0.3-1.2,0.1c-0.4-0.5,0.5-1.1,1.1-1.5c1.3-1,2-2.8,2.8-4.3
										c0.7-1.4,1.4-3,1.5-4.7c0.1-1.7,0.2-3.5-0.3-5.1c-0.5-1.6-1.9-2.8-3-4c-1.2-1.2-2.4-2.5-3.9-3.3c-1.5-0.8-3.5-0.5-5.1-1.2
										c-1.4-0.6-2.6-1.6-4-2.3c-1.1-0.6-2.4-1.4-3-2.6c-0.4-0.8,0.5-1.9,0.7-3.1c0.3-1.8,0.6-3.5,1.8-4.9
										c1.2-1.4,2.6-2.3,4.4-2.9c0.6-0.2,1.5-0.6,1.7,0c0.2,0.6-0.6,1.2-1.2,1.4c-2.7,1-4.1,3.9-4.5,6.7c-0.1,0.7-1.3,1.6-1.1,2
										c0.3,0.6,1.9,0.4,2.6,0.7c1.3,0.6,2.5,1.6,3.8,2.2c1.7,0.7,3.3,1.7,5,2.6c1.6,0.9,3.3,1.7,4.6,3.1c1.4,1.4,2.1,3.2,2.7,5.2
										c0.6,1.8,1.1,3.8,0.9,5.8c-0.2,2.1-1.3,3.7-2.1,5.4c-0.9,1.8-1.8,3.5-3.4,4.7C149.5,331.3,149.3,331.3,149,331.2z"/>
								</g>
								<g>
									<path class="st4" d="M158.8,342.4c-0.1,0-0.8,1-0.9,0.9c-0.5-0.4-0.6-1.7-0.2-2.3c1.2-1.7,2.1-3.6,3-5.5
										c0.9-1.9,2.5-3.6,3-5.6c0.5-2,0.2-4.3,0.4-6.4c0.2-2.1,0.7-4.3,0.5-6.3c-0.1-0.7-0.1-0.8,0.6-0.9c0.7-0.1,1.7-0.1,1.8,0.6
										c0.3,2.2-0.1,4.6-0.2,6.8c-0.2,2.2-1.2,4.3-1.7,6.5c-0.6,2.2-0.6,4.5-1.5,6.6c-0.9,2-2,4.1-3.3,6
										C160,343.2,159.3,342.5,158.8,342.4z"/>
								</g>
								<g>
									<path class="st4" d="M113.9,207.3c-0.3-0.1-0.8,0.1-1-0.1c-1.2-1.6-2.5-3.2-3.3-5.1c-0.8-1.8-0.8-4-1.2-5.9
										c-0.5-1.9-1.2-3.9-1.3-5.8c-0.1-2-0.4-4.1-0.2-6.1c0.3-2,1.1-3.9,1.8-5.8c0.6-1.9,1.3-3.9,2.2-5.6c0.3-0.6,1.6-0.9,2.2-0.5
										c0.6,0.3,0.4,1.3,0.1,1.8c-1.1,1.9-2.2,3.9-2.8,6.1c-0.6,2.1-0.7,4.4-0.8,6.6c-0.1,2.2,0.9,4.3,1.3,6.5
										c0.4,2.2-0.2,4.6,0.6,6.7c0.8,2,3.1,3.3,4.3,5.1c0.4,0.5-0.5,1.6-1.1,2C114.4,207.3,114.3,207.4,113.9,207.3z"/>
								</g>
								<g>
									<path class="st4" d="M167.6,152.8c-0.1,0,0-0.1-0.1-0.1c-1.7-0.8-3.6-1.2-5.2-2.2c-1.7-1-2.8-2.4-4-3.8
										c-1.2-1.5-3.3-2.6-3.6-4.6c-0.5-3.1,2.1-5.9,3.2-8.2c0.3-0.6,0.2-1.1,0.8-0.8c0.6,0.3,0.8,0.8,0.5,1.4
										c-0.9,2-2.5,4.8-2.1,7.3c0.4,2.4,3.2,3.6,5.3,5.2c1.8,1.4,3.3,4,5.6,5c0.6,0.3,0.7,0,0.4,0.6
										C168.1,153,168.2,153,167.6,152.8z"/>
								</g>
								<g>
									<path class="st4" d="M245.1,138.6c-0.1,0-0.2,0-0.3,0c-2.7-0.7-4.9-2.2-6.1-4.6c-1.1-2.1-1-4.5-0.5-6.9
										c0.5-2.3,0.9-4.8,2.6-6.7c0.4-0.5,1.5-0.5,1.9,0c0.5,0.4,0.3,1.2-0.1,1.7c-1.4,1.5-3,3.3-3.4,5.1c-0.4,2,0.9,4,1.8,5.7
										c0.9,1.8,2.2,3.4,4.3,4c1.8,0.5,3.5,0,4.8-0.8c0.5-0.4,1.9-0.5,2.3,0c0.4,0.5-0.8,1-1.3,1.4
										C249.2,138.6,247.4,139.1,245.1,138.6z"/>
								</g>
								<g>
									<path class="st4" d="M286.4,105.7c-0.1,0-0.6,0.8-0.7,0.7c-0.6-0.4-0.3-1.2,0.1-1.7c1-1.5,0.9-3.5,1-5.3
										c0-1.8,0.3-4-0.7-5.5c-1-1.5-3.2-1.9-4.8-2.7c-1.7-0.8-3.3-1.6-5.1-1.3c-0.6,0.1-1.3-0.4-1.4-1c-0.1-0.6,0.4-1.9,1-2
										c2.3-0.3,4.6,0.9,6.6,1.9c2,0.9,3.9,2.3,5.1,4.2c1.2,1.9,2.3,4.1,2.3,6.4c0,2.3-1.1,4.4-2.4,6.4
										C287.2,106.1,286.9,105.8,286.4,105.7z"/>
								</g>
								<g>
									<path class="st4" d="M263.8,125.9c-0.4-0.1-0.8-0.2-1.3-0.4c-3.8-1.6-4-1.1-7.8-2.7c-1.1-0.5-3-0.7-3.9-1.9
										c-0.8-1-0.8-2.5-1-3.6c-0.5-2.4-1.4-4.7-1.5-7.1c-0.1-1.6,0.3-3.1,0.1-4.6c-0.2-1.5-0.1-3.1-0.6-4.6
										c-0.6-1.8-1.6-3.3-2.8-4.8c-1.2-1.5-2.5-2.7-4.1-3.7c-1.6-1-3.1-2.1-4.9-2.6c-1.8-0.5-3.7-0.1-5.6,0
										c-0.7,0-0.5-0.8-0.6-1.5c0-0.7-0.3-1.6,0.4-1.6c2.1-0.2,4.3,0.6,6.3,1.2c2,0.6,4.5,0.7,6.2,1.8c1.8,1.2,2.9,3.3,4.3,4.9
										c1.3,1.7,2.7,3.4,3.4,5.4c0.5,1.6-0.3,3.4-0.1,5c0.2,1.6,1.3,3.2,1.4,4.8c0.1,2.3,0.5,4.5,0.9,6.7c0.2,0.8,0.1,1.7,0.6,2.3
										c0.6,0.7,1.3,2,2.2,2.4c3.8,1.6,3.8,1.4,7.6,3c1.1,0.5,2.2-0.1,2.4-0.6c0.3-0.6,1.4-0.4,2-0.1c0.6,0.3,1.1,0.9,0.8,1.5
										C267.5,126.6,265.9,126.4,263.8,125.9z"/>
								</g>
								<g>
									<path class="st4" d="M274.2,282c0,0-0.2,0.4-0.2,0.4c-1.7-0.6-2.6-2-3.7-3.3c-1.1-1.3-1.6-2.7-2.1-4.4
										c-0.5-1.7-1-3.3-0.7-4.9c0.4-2.5,1-4.9,2.2-6.9c1.4-2.3,3.7-3.7,5.1-5.2c1.4-1.4,2.6-3,4.2-4.3c1.7-1.2,3.2-2.6,5.1-3.3
										c1.9-0.8,3.9-1.2,5.9-1.2c2-0.1,3.9,0.2,5.9,1.1c0.6,0.3,1.5,1.2,1.3,1.8c-0.3,0.6-1.8,0.9-2.4,0.6
										c-1.7-0.8-3.3-1.8-5.1-1.7c-1.7,0.1-3.3,1.2-5,1.9c-1.6,0.7-3.1,1.6-4.6,2.7c-1.4,1.1-3.5,1.6-4.7,2.9
										c-1.7,1.8-2.5,4.1-3.6,5.7c-1.3,2.1-1.2,4.3-1.5,6.3c-0.3,1.9-0.6,4,0.2,5.8c0.9,1.9,2.4,3,4.4,3.6
										c0.6,0.2,1.5,1.6,1.3,2.3C276,282.5,274.8,282.1,274.2,282z"/>
								</g>
								<g>
									<path class="st4" d="M288.6,310.6c0,0-0.3,0.8-0.4,0.8c-0.6-0.2-0.6-1.4-0.4-2c0.5-1.7,0.3-3.5,0.8-5.2
										c0.4-1.7,0.9-3.4,1.2-5.1c0.3-1.7,1.2-3.4,1.3-5.2c0-1.7-0.3-3.5-0.6-5.1c-0.3-1.7-1.6-3.1-2.3-4.5c-0.8-1.6-1.5-3-2.6-4.2
										c-0.5-0.5-0.3-1.3,0.2-1.8c0.5-0.5,1.3-0.7,1.8-0.2c1.3,1.3,1.8,3.2,2.7,5c0.8,1.6,2.7,3.1,3.1,5c0.4,1.8,0.5,3.9,0.5,5.8
										c0,2.1-1.1,4.1-1.5,6.2c-0.4,2-0.1,4.2-0.6,6.2c0.1,0.3,0,0.7-0.1,1c-0.6,1.5-1,1.3-1.6,2.8
										C289.8,310.7,289.2,310.7,288.6,310.6z"/>
								</g>
								<g>
									<path class="st4" d="M303.4,301.8c-0.1,0-0.1-0.3-0.2-0.3c-0.6-0.3-1.3-1.2-1-1.8c0.7-1.6,2.4-2.9,2.8-4.6
										c0.4-1.7,0.5-3.6,0.5-5.3c0-1.7,0-3.6-0.3-5.3c-0.1-0.6-0.5-1.9,0.2-2c0.6-0.1,1.7,1,1.8,1.6c0.4,1.9-0.5,3.8-0.5,5.7
										c0,1.9,1.3,4,0.9,5.9c-0.4,1.9-2.3,3.3-3.1,5C304.2,301.3,303.9,302,303.4,301.8z"/>
								</g>
								<g>
									<path class="st4" d="M331.2,184c-0.5-0.1-1.4-0.1-1.4-0.7c-0.1-1.5,1-3.4,1.3-5.4c0.2-1.7,0.2-3.5,0.7-5.3
										c0.5-1.7,1.1-3.4,2-5c0.9-1.6,1.5-3.6,2.9-4.7c1.6-1.4,3.7-2.5,5.6-3.8c1.8-1.3,3.8-2.4,5.8-3.5c1.9-1.1,4.1-1.7,6.2-2.5
										c2.2-0.8,4.3-1.5,6.6-1.8c2.4-0.3,4.7-1.4,6.9-1.1c2.4,0.3,4.5,1.5,6.6,2.4c0.6,0.3,1.1,0.9,0.8,1.5
										c-0.3,0.6-1.5,1.6-2.1,1.3c-1.9-0.8-3.7-1.4-5.8-1.6c-2-0.2-4-0.4-6.1-0.1c-2,0.3-4.2,0.1-6.2,0.9c-2,0.8-3.7,2.3-5.6,3.4
										c-1.9,1.1-4,1.9-5.7,3.2c-1.8,1.3-3.3,3-4.9,4.3c-1.6,1.4-2.3,3.3-3.2,5.4c-0.9,2-1.9,3.9-2.3,6c-0.4,2.5-0.8,4.7-0.7,6.4
										c0,0.7-0.5,0.8-1.2,0.9C331.3,184,331.3,184,331.2,184z"/>
								</g>
								<g>
									<path class="st4" d="M353,182.4c-0.3-0.1,0-0.8-0.1-1.1c-1.4-2.3-2.6-4-2.9-5.8c-0.5-2.9,0.5-4.6,1.4-6
										c0.9-1.5,1.6-3.4,3.5-4.2c1.5-0.7,3.4-1.4,5.4-1.6c1.7-0.2,3.6-0.1,5.6,0.1c0.7,0.1,1.4,1.4,1.3,2.1
										c-0.1,0.7-1,1.5-1.6,1.5c-2.6-0.2-5-1.2-7-0.9c-2.8,0.5-4.5,2.4-5.6,4c-0.9,1.4-0.8,2.9-0.3,4.9c0.3,1.5,0.2,3.4,1.2,5.2
										c0.3,0.6,0.2,0.6-0.3,0.9C353.4,181.7,353.3,182.4,353,182.4z"/>
								</g>
								<g>
									<path class="st4" d="M361.2,207.2c-0.1,0-0.5-0.2-0.6-0.3c-0.9-0.5-0.6-2.2-0.1-3.4c0.7-1.8,2.3-2.8,3.9-3.9
										c1.6-1.1,3.2-1.9,5.1-1.9c0.6,0,1.1-0.4,1.7-0.4c1.3,0.1,2.9,0.6,3.7,0c0.7-0.5,1.1-1.8,1.5-2.8c0.6-1.9,0.6-3.9,1.1-5.8
										c0.5-1.9,1.1-3.8,1.5-5.7c0.4-1.9,1-3.8,1.3-5.8c0.2-1.9,0.6-3.9,0.7-5.9c0-0.7,0.1-1.1,0.7-1.1c0.7,0,1.4,0.5,1.3,1.2
										c-0.1,2-0.5,4-0.8,6c-0.2,2-0.1,4.1-0.5,6c-0.4,2-1,3.9-1.5,5.9c-0.5,1.9-1.9,3.6-2.5,5.5c-0.4,1.4-0.4,3.1-1.7,4
										c-1.6,1.1-3.4,0.7-5.1,0.6c-0.5,0-1-0.6-1.5-0.6c-2.7,0-5.9,2.1-7.2,4.5c0.1,0.1,1.2,0.2,1.3,0.4c0.4,0.7,0,2.1-0.5,2.6
										C362.7,206.9,361.7,207.4,361.2,207.2z"/>
								</g>
							</g>
							<g>
								<g>
									<path class="st5" d="M324.9,124.5c-1-0.2-1.6-1.4-2.2-1.8c-2-1.5-3-3.5-3.8-5.2c-0.1-0.2,0.2-0.7,0.1-0.9
										c-1.1-2.3-2.8-3.5-4.5-4.1c-1.8-0.6-4.1-0.9-5.9-0.5c-2.9,0.7-5.6,3.1-6.2,5c-0.2,0.6-0.3,0.7-0.9,0.5
										c-0.6-0.2-0.7-0.3-0.5-0.9c0.5-1.5,1.1-3.1,2.5-4.2c1.3-1,3.1-0.9,4.8-1.3c2.1-0.5,4.3-1.2,6.7-0.4
										c2.4,0.8,4.9,1.9,6.3,4.8c0.1,0.2,0.2,0.5,0.3,0.8c0.8,1.6,1,3.3,2.6,4.4c0.7,0.5,1.3,0.6,1.9,0.6c1,0.1,1.3-0.7,2.2-1.3
										c0.2-0.1,0.8,0.8,1,0.7c2.4-1.7,5.1-2.7,8.1-2.7c1.7,0,3.4-0.3,4.9,0.2c1.7,0.5,2.8,1.8,4,2.9c0.8,0.8,1.3,1.6,1.9,2.4
										c0.8,1,1.6,2.3,2.7,3c0.6,0.3,1,0.4,0.7,0.9c-0.3,0.6-1.3,1.3-1.8,1c-1.5-0.9-2.1-2.6-3-3.7c-0.6-0.7-1.4-1.1-2.1-1.7
										c-1.8-1.6-4.3-2.9-7.2-2.8c-2.5,0-4.7,1.3-6.7,2.7c-0.2,0.1-1-1.1-1.1-1c-1,0.7-1.9,2.9-3.7,2.8
										C325.7,124.5,325.2,124.6,324.9,124.5z"/>
								</g>
								<g>
									<path class="st5" d="M108.4,271.3c-0.8-0.2-2.1,0.8-2.7,0.4c-1.6-0.9-2.2-3-3.2-4.7c-0.9-1.5-2.2-2.9-2.7-4.8
										c-0.5-1.7-0.1-3.7-0.5-5.5c-0.1-0.6-0.3-1.4,0.3-1.5c0.6-0.1,0.7,0.6,0.8,1.3c0.5,2.4,2.2,4.5,3,6.6c1,2.5,2.1,4.3,4,5.4
										c1,0.6,2.1,1.9,3.5,1.9c2-0.1,4.2-1.5,6-2.9c0.5-0.4,0.7,0.1,1.1,0.6c0.4,0.5,0.6,0.5,0.1,0.9c-2.2,1.7-4.6,3.1-7.1,3.2
										C110,272.2,109.3,271.5,108.4,271.3z"/>
								</g>
								<g>
									<path class="st5" d="M242.3,325.6c-0.2,0-0.3,0-0.5-0.1c-2.4-0.7-5.2-1.3-6.8-3.2c-1.6-1.9-1.9-4.9-1.8-7.3
										c0-0.7,0.5-0.6,1.1-0.6c0.7,0,1.8,0,1.8,0.6c0,1.9,0.6,3.3,1.9,4.9c1.2,1.4,2.6,2.4,4.5,3c1.9,0.5,3.9,1.2,5.7,0.6
										c1.9-0.6,3.2-2.3,4.2-3.9c0.3-0.6,1.1,0.1,1.6,0.4c0.6,0.3,1.1,0.5,0.7,1c-1.2,2-3.2,3.5-5.5,4.3
										C247.1,326.3,244.7,326.2,242.3,325.6z"/>
								</g>
								<g>
									<path class="st5" d="M208.4,123.7c-0.1,0-0.2-0.1-0.3-0.1c-1.8-0.5-3.8-1.2-5.2-2.8c-1.2-1.3-1.3-3.6-2.2-5.5
										c-0.3-0.6-0.5-1,0.1-1.2c0.6-0.3,1.8-0.4,2.1,0.2c0.6,1.3,0.7,3.2,1.8,4.5c1.1,1.2,2.4,2.4,4,2.8c1.5,0.5,3.9,0.3,5.2-0.7
										c0.6-0.4,0.9-1.9,0.9-3.3c0-0.7,0.8-0.9,1.4-0.8c0.7,0,1.3,0.2,1.3,0.9c0,1.8-0.8,3.8-2.4,5
										C213.4,124,210.6,124.2,208.4,123.7z"/>
								</g>
								<g>
									<path class="st5" d="M184.9,245.6c-0.1,0-0.2,0.3-0.2,0.3c-3-0.8-5.8-3-7.3-5.5c-0.5-1-0.4-2.3-0.8-3.2
										c-0.6-1.5-0.6-3.4-1.6-4.4c-1.6-1.6-4.7-1.7-7.5-1.9c-0.6-0.1-0.7-0.4-0.7-1c0.1-0.7,0.2-0.9,0.8-0.9
										c1.6,0.2,2.9,0.9,4.3,1.3c1.5,0.4,2.5,0.9,3.6,2c1.3,1.4,3.2,2.2,3.9,3.9c0.4,0.9,0,2.1,0.5,2.9c1.1,1.9,3.2,3.3,5.5,3.9
										c2.4,0.6,5.1,0.9,7-0.3c0.6-0.3,0.5-0.3,0.8,0.2c0.3,0.6,0.8,1.2,0.3,1.5C191.1,245.8,187.9,246.3,184.9,245.6z"/>
								</g>
							</g>
						</g>
					</g>
					<g style="opacity:0.25;clip-path:url(#SVGID_00000052072914459082696790000011455876934587308729_);">
						<path class="st7" d="M336.2,87.8c-2.4,1.7-2.2-1-5.8-2.3c-1.6-0.6-3.2-1.9-5.4-2.6c-1.7-0.6-3.7-1-5.8-1.6
							c-1.8-0.5-3.8-0.8-5.8-1.4c-1.8-0.5-3.7-1.1-5.8-1.5c-1.9-0.4-3.9-0.2-6-0.7c-1.9-0.4-3.7-1.5-5.7-1.8c-1.9-0.3-3.9-0.7-5.9-1
							c-1.9-0.3-3.9-0.3-6-0.6c-1.9-0.2-3.9-0.5-5.9-0.6c-2-0.2-4,0.3-6,0.2c-2-0.1-3.9-0.1-6-0.2c-2,0-3.9-0.5-6-0.5
							c-2,0-3.9,0.7-5.9,0.8c-2,0.1-4-1-6-0.9c-2,0.2-3.9,0.9-5.9,1.2c-2,0.2-4-0.2-6,0.1c-2,0.3-3.8,1.2-5.8,1.5
							c-1.9,0.4-3.7,1.6-5.7,2.1c-1.9,0.4-3.9,0.7-5.8,1.2c-1.9,0.5-3.9,0.6-5.9,1.1c-1.9,0.5-4,0.4-5.9,1c-1.9,0.6-3.3,2.5-5.2,3.2
							c-1.9,0.7-3.7,1.3-5.6,2.1c-1.8,0.7-4,0.6-5.9,1.4c-1.8,0.8-3.7,1.4-5.5,2.3c-1.8,0.9-3.6,1.8-5.3,2.7
							c-1.7,0.9-3.1,2.6-4.9,3.5c-1.7,1-3.6,1.7-5.3,2.7c-1.7,1-2.9,2.8-4.6,3.9c-1.6,1.1-3.6,1.7-5.3,2.9c-1.6,1.1-3.2,2.4-4.8,3.6
							c-1.6,1.2-2.8,2.8-4.4,4.1c-1.5,1.2-3.1,2.4-4.6,3.7c-1.5,1.3-3.5,2-5,3.3c-1.5,1.3-2.7,2.9-4.2,4.3c-1.4,1.4-3.4,2.2-4.8,3.6
							c-1.5,1.5-2.9,3-4.3,4.4c-1.4,1.5-2.1,3.7-3.5,5.1c-1.4,1.5-3.3,2.6-4.6,4.1c-1.4,1.6-2.9,2.9-4.3,4.5c-1.3,1.6-3,2.9-4.2,4.5
							c-1.3,1.6-2.6,3.2-3.9,4.8c-1.3,1.6-1.9,3.8-3.1,5.4c-1.2,1.7-1.9,3.7-3,5.4c-1.2,1.7-3.1,2.9-4.2,4.6
							c-1.1,1.7-2.4,3.4-3.4,5.1c-1.1,1.8-2.1,3.6-3.1,5.3c-1,1.8-2.3,3.5-3.3,5.2c-1,1.8-0.8,4.2-1.7,6c-0.9,1.9-2,3.6-2.8,5.5
							c-0.9,1.9-2.7,3.3-3.5,5.2c-0.8,1.9-0.9,4.1-1.6,6c-0.7,2-1.6,3.8-2.2,5.7c-0.6,2-1.4,3.9-2,5.8c-0.6,2-1.1,4-1.6,6
							c-0.5,2-0.4,4.2-0.7,6.1c-0.4,2.1-0.6,4.1-0.9,6.1c-0.3,2.1-0.5,4.1-0.7,6.1c-0.2,2.1-1.2,4.1-1.3,6.1
							c-0.1,2.1,0.1,4.2,0.1,6.2c0,2.2,0.4,4.2,0.5,6.1c0.1,2.2,0.3,4.3,0.5,6.1c0.2,2.4,0.3,4.4,0.6,6.1c0.7,3.9,3.7,8,1.2,6.3
							c-2.5-1.7-1.6-2.7-3.7-4.9c-2.1-2.2-2.5-1.8-4.6-4c-2.1-2.2-2.4-1.8-4.5-4c-2.1-2.2-1.3-2.9-3.3-5.1c-2.1-2.2-2.2-2.1-4.3-4.3
							c-2.1-2.2-1.6-2.6-3.6-4.8c-2.1-2.2-2.7-1.6-4.8-3.8c-2.1-2.2-2.3-2-4.4-4.2c-2.1-2.2-1.8-2.5-3.9-4.7
							c-2.1-2.2-2.1-2.2-4.2-4.4c-2.1-2.2-1.5-2.7-3.6-4.9c-2.1-2.2-3.1-1.2-5.2-3.4c-2.1-2.2-1.6-2.7-3.6-4.9
							c-2.1-2.2-1.8-2.5-3.9-4.7c-2.1-2.2-2.1-2.2-4.2-4.4c-2.1-2.2-1.9-2.4-3.9-4.6s-2.9-1.4-3.8-4.3c-0.9-2.8-0.3-2.7,0.2-5.7
							c0.5-2.9,1.4-2.8,1.9-5.7c0.5-2.9-0.3-3.1,0.2-6c0.5-2.9,0.9-2.9,1.5-5.8c0.5-2.9,0.2-3,0.7-5.9c0.5-2.9,0.2-3,0.8-5.9
							c0.5-2.9,0.1-3,0.7-5.9c0.5-2.9,0.7-2.9,1.3-5.8c0.5-2.9,0.6-2.9,1.1-5.8c0.5-2.9,1.1-2.8,1.6-5.8c0.5-2.9,1.1-2.8,1.7-5.7
							c0.5-2.9-0.9-3.2-0.4-6.1c0.5-2.9,2-2.7,2.5-5.6c0.5-2.9-0.1-3,0.4-6c0.5-2.9,0.4-2.9,1-5.9c0.5-2.9,1.1-2.8,1.6-5.8
							c0.5-2.9,0.6-2.9,1.2-5.8c0.5-2.9,0.7-2.9,1.2-5.8c0.5-2.9,0.2-3,0.7-5.9c0.5-2.9,0.8-2.9,1.3-5.8c0.5-2.9,0.4-2.9,1-5.9
							c0.5-2.9,0.4-3,0.9-5.9c0.5-2.9-0.5-3.1,0-6c0.5-2.9,0.4-2.9,1-5.9c0.5-2.9-0.1-3.4,1.4-6c1.5-2.7,3.1-1.4,5.3-3.4
							c2.2-2.1,1.3-3,3.5-5.1c2.2-2.1,3-1.3,5.2-3.3c2.2-2.1,2.4-1.8,4.6-3.9c2.2-2.1,1.4-2.9,3.6-5c2.2-2.1,2.9-1.3,5.1-3.4
							c2.2-2.1,1.5-2.8,3.8-4.9c2.2-2.1,2.4-1.8,4.7-3.9c2.2-2.1,2.2-2.1,4.4-4.1c2.2-2.1,2.7-1.5,4.9-3.6c2.2-2.1,1.9-2.4,4.2-4.4
							c2.2-2.1,2.1-2.2,4.3-4.3c2.2-2.1,2.2-2.1,4.4-4.2C87.2,5,87.1,5,89.3,2.9c2.2-2.1,2.2-2.1,4.4-4.1C96-3.3,96-3.3,98.2-5.3
							c2.2-2.1,2.1-2.2,4.3-4.3c2.2-2.1,2-2.3,4.2-4.4c2.2-2.1,2.5-1.8,4.7-3.8c2.2-2.1,2.4-1.8,4.6-3.9c2.2-2.1,2-2.3,4.2-4.4
							c2.2-2.1,2.5-1.8,4.7-3.8c2.2-2.1,2.3-1.9,4.5-4c2.2-2.1,1.7-2.7,3.9-4.7c2.2-2.1,2.4-1.9,4.6-3.9c2.2-2.1,2.2-2.1,4.4-4.2
							c2.2-2.1,2.3-2,4.5-4.1c2.2-2.1,1.9-2.5,4.1-4.5c2.2-2.1,2.2-2.1,4.5-4.1c2.2-2.1,2.9-1.4,5.1-3.4c2.2-2.1,2.1-2.1,4.4-4.2
							c2.2-2.1,2.6-1.6,4.9-3.7c2.2-2.1,2.1-2.2,4.3-4.3s1-5,4-5.3c3-0.3,2.9,2,5.4,3.6c2.6,1.6,2.4,1.8,5,3.4
							c2.6,1.6,2.5,1.7,5,3.3c2.6,1.6,2.6,1.6,5.1,3.2c2.6,1.6,2.8,1.2,5.4,2.7c2.6,1.6,2.5,1.7,5,3.3c2.6,1.6,2.4,1.8,5,3.4
							c2.6,1.6,2.4,1.9,4.9,3.4c2.6,1.6,3.1,0.6,5.7,2.2c2.6,1.6,2.6,1.6,5.1,3.1c2.6,1.6,2.1,2.3,4.7,3.9c2.6,1.6,2.9,1,5.5,2.5
							c2.6,1.6,2.2,2.1,4.8,3.7c2.6,1.6,2.8,1.1,5.4,2.7c2.6,1.6,2.1,2.3,4.7,3.9c2.6,1.6,2.5,1.7,5,3.3c2.6,1.6,3,0.8,5.6,2.4
							c2.6,1.6,2.4,1.8,5,3.3c2.6,1.6,2.8,1.1,5.4,2.7c2.6,1.6,2,2.5,4.6,4.1c2.6,1.6,2.8,1.2,5.3,2.8c2.6,1.6,2.7,1.4,5.3,2.9
							c2.6,1.6,2.7,1.3,5.3,2.9c2.6,1.6,2.1,2.4,4.6,3.9c2.6,1.6,2.9,1,5.5,2.6c2.6,1.6,2.2,2.2,4.8,3.7c2.6,1.6,2.8,1.1,5.4,2.7
							c2.6,1.6,2.4,1.8,5,3.4c2.6,1.6,3.7,0.2,5.9,2.4c2.2,2.2,1,3.3,2.7,5.9c1.6,2.7,1.3,2.9,3,5.5c1.6,2.7,1.9,2.5,3.5,5.2
							c1.6,2.7,1.9,2.5,3.6,5.1c1.6,2.7,1,3.1,2.7,5.7c1.6,2.7,2.8,2,4.4,4.6c1.6,2.7,1.7,2.6,3.3,5.3c1.6,2.7,1,3,2.7,5.7
							s3.2,2.2,3.1,5.4c0,2.9-1.2,2.6-2.9,5c-1.7,2.4-2.6,1.7-4.4,4c-1.7,2.4-0.7,3.1-2.4,5.4c-1.7,2.4-1.8,2.3-3.5,4.7
							c-1.7,2.4-2.3,2-3.7,4.5C338.2,85.5,338.6,86.1,336.2,87.8z"/>
					</g>
				</g>
			</g>
			<g>
				<g>
					<g>
						<path class="st8" d="M217.4,191.7c2.8,0.7,2.7,1.1,5.5,1.8c2.8,0.7,3,0,5.8,0.7c2.8,0.7,2.8,0.8,5.6,1.5
							c2.8,0.7,2.8,0.7,5.6,1.4c2.8,0.7,2.5,1.8,5.3,2.5c2.8,0.7,3,0,5.8,0.7c2.8,0.7,2.6,1.6,5.4,2.3c2.8,0.7,3.2-0.9,6-0.2
							c2.8,0.7,2.6,1.4,5.4,2.1c2.8,0.7,2.8,0.9,5.6,1.5c2.8,0.7,2.7,1.1,5.5,1.8c2,0.5,4.3,0.3,5.8,1.4c1.6,1.2,2.7,3.1,3.7,4.8
							c1,1.7,2.4,3.5,2.7,5.5c0.3,2-0.3,4.2-0.9,6.1c-0.5,1.9-2.3,3.1-3.7,4.7c-1.3,1.6-2.4,3.4-3.9,4.9c-1.5,1.5-2.4,3.6-4.1,5
							c-1.6,1.3-4,1.6-5.9,2.7c-1.8,1.1-3.3,2.7-5.2,3.6c-1.9,0.9-3.8,1.9-5.9,2.5c-2,0.6-4.2,0.3-6.3,0.6c-2,0.3-4.1,1.1-6.3,1.2
							c-2,0-4.1-0.8-6.3-1.1c-2-0.2-4.1-0.4-6.2-0.9c-2.1-0.5-4.3-0.6-6.3-1.3c-2.1-0.7-3.7-2.3-5.5-3.2c-2-1-3.9-1.8-5.6-3
							c-1.8-1.3-3.3-2.7-4.8-4.1c-1.6-1.5-3.3-2.8-4.6-4.4c-1.3-1.7-2.9-3.2-4-5c-1.1-1.8-2.2-3.7-3.1-5.6c-0.9-2-1.6-4.1-2.2-6
							c-0.7-2.1-1.1-4.2-1.6-6.2c-0.5-2.1,0.2-4.1,0.5-6c0.4-2,0.7-4.1,1.8-5.7c1.1-1.7,2.4-3.6,4-4.7c1.7-1.1,4-1,6-1.3
							C213.2,191.9,215.4,191.2,217.4,191.7z"/>
					</g>
					<g>
						<g>
							<path class="st7" d="M223.6,212l-0.3,1.3c-2.3-0.6-4.5-2.4-5.6-4.3c-1.2-1.9-0.9-4.4-0.3-6.7c0.3-1.1-0.9-1.6,0.3-1.7
								c2.9-0.4,2.6,0.8,5.4,1.5c2.8,0.7,3-0.1,5.8,0.6c2.8,0.7,3.8-1,6.1,0.7c1,0.7-1.4,1.6-1.6,2.8c-0.6,2.3-1.2,4.7-3.1,5.9
								C228.3,213.1,225.9,212.5,223.6,212z"/>
						</g>
						<g>
							<path class="st7" d="M244,217.3c0,0-0.1,0.6-0.1,0.6c-2.3-0.6-4.8-1.9-6-3.8c-1.2-1.9-1.7-4.8-1.2-7.2c0.3-1.1,0-2.6,1.2-2.8
								c2.9-0.4,3,1,5.9,1.6c2.8,0.7,2.7,1.4,5.5,2c2.8,0.7,3.2-0.3,5.5,1.4c1,0.7,0.1,0.9-0.2,2.1c-0.6,2.3-1.8,4.9-3.7,6.1
								C249,218.3,246.3,217.8,244,217.3z"/>
						</g>
						<g>
							<path class="st7" d="M264.4,222.2l-0.1,0.5c-2.3-0.6-3.9-2.5-5-4.4s-1.2-3.9-0.7-6.2c0.3-1.1-1.4-2.4-0.2-2.6
								c2.9-0.4,3,0.1,5.9,0.8c2.8,0.7,2.8,0.7,5.7,1.3c2.8,0.7,3.1,0.4,5.5,2.1c1,0.7,0.2,1.2-0.1,2.3c-0.6,2.3-2.7,3.7-4.6,4.9
								C268.8,222.1,266.8,222.8,264.4,222.2z"/>
						</g>
					</g>
					<g>
						<path class="st9" d="M214.6,229.2c0.8-3.1,1.6-1.4,5.7-2.1c1.8-0.3,3.9-0.3,6.4-0.3c1.9,0,4,0.6,6.3,0.9
							c2,0.2,4.2-0.3,6.5,0.3c2.3,0.5,4.3,1.5,6.3,2.2c2.3,0.8,4.4,1.4,6.2,2.3c2.3,1.2,3.7,3.1,5.2,4.2c3.4,2.5,6.6,0.8,5.9,4.1
							c-0.6,2.8-2.8,0.1-6.3,0.6c-1.6,0.2-3.5,1.3-5.6,1.4c-1.8,0.1-3.7-0.4-5.7-0.6c-1.8-0.1-3.6-0.8-5.6-1.2
							c-1.8-0.3-3.9,0.4-5.9-0.2c-1.8-0.5-3.7-1.1-5.5-1.9c-1.7-0.7-3.3-1.9-5.1-2.9c-1.6-0.9-2.8-2.5-4.5-3.7
							C217.3,231.3,216.1,230.5,214.6,229.2z"/>
					</g>
				</g>
				<g>
					<path class="st10" d="M186.7,182c-0.4,1.7-2.4,2.8-4.3,3.8c-1.5,0.7-3.3,1.3-5.4,1.5c-1.7,0.2-3.7,0.8-5.6,0.6
						c-1.8-0.1-3.5-1.3-5.4-1.7c-1.9-0.4-3.5-1.4-5.1-2c-1.8-0.7-3.9-0.9-5.3-1.8c-1.7-1.1-2.4-3.1-3.4-4.3
						c-1.3-1.7-3.1-3.2-2.7-4.9c0.4-1.7,2.3-2.9,4.3-3.8c1.5-0.7,3.2-1.8,5.3-2.1c1.7-0.2,3.7-0.1,5.7,0c1.8,0.1,3.6,0.9,5.5,1.4
						c1.9,0.4,3.7,1.1,5.3,1.8c1.8,0.7,3.1,2.2,4.6,3.1c1.7,1.1,3.2,2.2,4.2,3.4C185.5,178.6,187.1,180.3,186.7,182z"/>
				</g>
				<g>
					<path class="st10" d="M314.1,212.3c-0.4,1.7,0.9,3.7,2.2,5.4c1,1.3,2.9,1.9,4.6,3c1.4,0.9,2.4,3.2,4.2,3.9
						c1.6,0.7,3.6,1.2,5.4,1.6c1.9,0.4,3.9-0.1,5.7,0c2,0.2,3.9,0.7,5.6,0.5c2.1-0.2,3.9-1,5.3-1.7c2-0.9,3.3-2.3,3.7-3.9
						c0.4-1.7-0.5-3.2-1.8-4.9c-1-1.3-1.7-3.4-3.5-4.5c-1.4-0.9-3.8-0.4-5.7-1.1c-1.6-0.7-3.2-1.8-5.1-2.2c-1.9-0.4-3.7-0.1-5.5-0.3
						c-2-0.2-3.8-0.8-5.5-0.6c-2.1,0.2-4.2,0-5.6,0.7C316.3,209,314.5,210.7,314.1,212.3z"/>
				</g>
				<g>
					<g>
						<path class="st8" d="M300.5,195.7c-2.3-0.5-4.4-3.2-3.8-5.5c0.5-2,1-1.9,1.5-3.9c0.4-1.8,0.5-3.6-0.4-5
							c-0.9-1.4-2.4-2.7-4.1-3.1c-1.8-0.4-3.5,0.4-4.9,1.2c-1.4,0.9-2.4,2.2-2.8,4c-0.4,1.9,0.1,2-0.4,3.9c-0.5,2.3-3.6,3.5-5.8,3
							s-3.6-2.8-3-5.1c0.4-1.9,0.1-2,0.6-3.8c0.5-2,1.1-4.1,2.2-5.6c1.2-1.6,3.6-1.9,5.2-2.9c1.7-1,3.1-2.4,5-2.7
							c1.9-0.3,3.7,0.3,5.7,0.8c2,0.5,4.1,0.5,5.6,1.6c1.6,1.2,2.4,3.1,3.5,4.7c1,1.7,1.4,3.4,1.7,5.4c0.3,1.9,1.4,3.9,0.9,5.9
							c-0.5,2-1.1,1.9-1.6,3.9C305,194.6,302.8,196.3,300.5,195.7z"/>
					</g>
					<g>
						<path class="st8" d="M224.2,176.6c-2.3-0.5-3.2-2-2.6-4.2c0.5-2-0.8-2.3-0.3-4.3c0.4-1.8,0-3-0.8-4.4c-0.9-1.4-1.5-3.6-3.2-4
							c-1.8-0.4-3.8,0.3-5.3,1.1c-1.4,0.9-2.8,2.5-3.2,4.2c-0.4,1.9,0,2-0.5,3.8c-0.5,2.3-2.7,3.8-5,3.2c-2.3-0.5-3.8-2.9-3.3-5.2
							c0.4-1.9,0.8-1.8,1.2-3.7c0.5-2,1.2-3.8,2.3-5.3c1.2-1.6,2.8-2.7,4.4-3.7c1.7-1,3.4-1.7,5.3-2c1.9-0.3,3.7,0.1,5.6,0.5
							c2,0.5,3.9,0.7,5.5,1.8c1.6,1.2,2.6,2.8,3.6,4.5c1,1.7,1.7,3.4,2,5.3c0.3,1.9,1.3,4,0.9,5.9c-0.5,2-0.6,2-1.1,4
							C229.2,176.6,226.5,177.1,224.2,176.6z"/>
					</g>
				</g>
			</g>
		</g>
		<g>
			<g>
				<defs>
					<path id="SVGID_00000008862396404012978590000010250863369748591291_" d="M407.2,271.8c-0.5,2-1,3.9-1.5,5.8
						c-0.5,1.9-0.6,4-1.2,5.9c-0.6,1.9-1.5,3.8-2.1,5.7c-0.7,1.9-0.8,4-1.6,5.9c-0.7,1.9-1.3,3.8-2.1,5.7c-0.8,1.8-2.5,3.3-3.3,5.1
						c-0.9,1.8-1.7,3.6-2.6,5.4c-0.9,1.8-2.1,3.5-3.1,5.2c-1,1.8-1.7,3.7-2.7,5.4c-1.1,1.7-2.8,3-3.9,4.6c-1.1,1.7-1.3,4-2.4,5.7
						c-1.2,1.6-2.9,2.8-4.2,4.4c-1.2,1.6-2.3,3.3-3.6,4.8c-1.3,1.5-2.8,2.9-4.2,4.4c-1.3,1.5-2.6,3.1-4,4.6c-1.4,1.4-2.5,3.2-4,4.6
						c-1.5,1.4-3.1,2.6-4.6,4c-1.5,1.3-3.2,2.5-4.7,3.8c-1.5,1.3-3,2.8-4.5,4c-1.6,1.2-3.4,2.2-5,3.4c-1.6,1.2-3.3,2.2-5,3.4
						c-1.7,1.1-3.2,2.5-4.9,3.5c-1.7,1.1-3.9,1.3-5.7,2.3c-1.7,1-3.2,2.4-5,3.4c-1.8,0.9-3.5,2-5.3,2.9c-1.8,0.9-3.5,2.1-5.3,2.9
						c-1.8,0.8-3.7,1.7-5.6,2.4c-1.9,0.7-4.1,0.5-6,1.2c-1.9,0.7-3.7,1.7-5.6,2.3c-1.9,0.6-4.1,0.3-6,0.9c-1.9,0.5-3.6,1.9-5.6,2.4
						c-2,0.5-3.9,0.9-5.9,1.3c-2,0.4-4,0.4-6,0.8c-2,0.3-4,0.4-6,0.7c-2,0.2-3.9,1.4-5.9,1.6c-2,0.2-4,0.3-6,0.4c-2,0.1-4,0-6.1,0
						c-2,0-4-0.8-6-0.9c-2,0-4,0.7-6.1,0.6c-2-0.1-4-0.2-6-0.4c-2-0.2-3.9-1.2-5.9-1.5c-2-0.3-4.1,0.3-6.1,0c-2-0.3-3.8-1.7-5.7-2.1
						c-2-0.4-4-0.6-5.9-1c-2-0.5-4.2,0.1-6.1-0.5c-1.9-0.5-3.8-1.6-5.7-2.2c-1.9-0.6-3.7-1.6-5.6-2.3c-1.9-0.7-3.7-1.5-5.6-2.2
						c-1.9-0.7-3.6-1.7-5.5-2.5c-1.8-0.8-3.9-1.1-5.7-2c-1.8-0.9-3.3-2.5-5-3.4c-1.8-0.9-4-1-5.8-2c-1.8-1-3-2.8-4.8-3.8
						c-1.7-1.1-3.4-2.1-5.1-3.2c-1.7-1.1-3.5-2-5.1-3.2c-1.6-1.2-3.8-1.7-5.4-2.9c-1.6-1.2-2.7-3.1-4.2-4.4
						c-1.5-1.3-3.3-2.4-4.8-3.7c-1.5-1.3-2.9-2.8-4.4-4.2c-1.4-1.4-2.4-3.3-3.8-4.7c-1.4-1.5-3.2-2.5-4.5-4
						c-1.3-1.5-2.4-3.3-3.7-4.8c-1.3-1.5-3.4-2.5-4.6-4.1c-1.2-1.6-2.1-3.5-3.2-5.1c-1.2-1.6-2.2-3.4-3.3-5
						c-1.1-1.7-1.5-3.8-2.5-5.6c-1.1-1.7-2.3-3.3-3.3-5c-1-1.7-2.9-3-3.9-4.8c-0.9-1.8-0.6-4.2-1.4-6c-0.9-1.8-2-3.5-2.8-5.4
						c-0.8-1.8-1.6-3.7-2.3-5.5c-0.7-1.9-1.5-3.7-2.2-5.6c-0.7-1.9-1.2-3.8-1.8-5.8c-0.6-1.9-1.7-3.7-2.2-5.6
						c-0.5-1.9-0.3-4.1-0.8-6c-0.5-2-1.7-3.7-2.1-5.7c-0.4-2-0.6-4-0.9-6c-0.3-2,0.3-4.1,0-6.1c-0.2-2-0.8-3.9-1-5.9
						c-0.2-2-1.1-4-1.2-6c-0.1-2,0.7-4,0.7-6.1c0-2-0.8-4-0.8-6c0-2,0.8-4,0.9-6c0.1-2,0.3-4,0.5-6c0.2-2-0.5-4.1-0.3-6.1
						c0.3-2,1.4-3.9,1.7-5.8c0.3-2-0.3-4.1,0.1-6.1c0.4-2,1-3.9,1.4-5.9c0.5-2,1.7-3.7,2.2-5.7c0.5-1.9,0.3-4.1,0.9-6
						c0.6-1.9,1.6-3.7,2.3-5.6c0.7-1.9,1.2-3.8,2-5.7c0.7-1.9,1.5-3.7,2.3-5.6c0.8-1.8,2.3-3.4,3.2-5.2c0.9-1.8,1.3-3.9,2.2-5.6
						c0.9-1.8,1.7-3.7,2.7-5.4c1-1.8,2.4-3.3,3.4-5c1.1-1.7,2.5-3.2,3.6-4.9c1.1-1.7,1.3-4,2.5-5.6c1.2-1.6,2.9-2.9,4.1-4.5
						c1.2-1.6,2.3-3.3,3.6-4.9c1.3-1.5,3.6-2.2,4.9-3.7c1.3-1.5,1.7-3.9,3.1-5.4c1.4-1.4,3.8-1.9,5.2-3.3c1.5-1.4,2.8-2.8,4.3-4.2
						c1.5-1.3,2.5-3.3,4-4.6c1.5-1.3,3.7-1.8,5.3-3c1.6-1.2,2.6-3.2,4.2-4.4c1.6-1.2,3.5-2,5.2-3.1c1.7-1.1,3.2-2.5,4.9-3.6
						c1.7-1.1,3.4-2.2,5.1-3.2c1.7-1,3.4-2.3,5.1-3.2c1.8-0.9,3.9-1.2,5.7-2c1.8-0.9,3.9-1.2,5.7-2c1.8-0.8,3.5-2.1,5.4-2.8
						c1.9-0.7,4-0.7,5.9-1.4c1.9-0.7,3.4-2.4,5.3-3c1.9-0.6,3.9-1.1,5.8-1.6c1.9-0.5,4-0.8,5.9-1.2c2-0.5,3.9-0.9,5.9-1.3
						c2-0.4,3.9-1.1,5.9-1.4c2-0.3,4.1,0.3,6.1,0c2-0.2,3.9-1.1,5.9-1.3c2-0.2,4-0.1,6-0.2c2-0.1,4,0.6,6,0.6c2,0,4-1.1,6-1
						c2,0,4-0.3,6.1-0.1c2,0.1,4,0.4,6,0.6c2,0.2,3.9,1.1,5.9,1.4c2,0.3,3.9,0.8,5.9,1.1c2,0.3,4,0.6,5.9,1c2,0.4,4.2-0.4,6.2,0.1
						c2,0.5,3.9,1.3,5.8,1.8c1.9,0.5,3.8,1.5,5.7,2.1c1.9,0.6,3.8,1.2,5.7,1.9c1.9,0.7,3.9,1.1,5.8,1.9c1.9,0.7,3.4,2.3,5.2,3.1
						c1.8,0.8,3.6,1.8,5.4,2.7c1.8,0.9,4.2,0.6,6,1.5c1.8,0.9,3.4,2.2,5.1,3.2c1.8,1,3.5,2,5.2,3.1c1.7,1.1,2.8,3,4.5,4.2
						c1.7,1.1,4.1,1.1,5.8,2.3c1.6,1.2,3.2,2.5,4.8,3.7c1.6,1.2,3,2.7,4.6,4c1.5,1.3,2.7,3,4.2,4.3c1.5,1.3,3.6,2,5.1,3.4
						c1.4,1.4,1.9,3.8,3.3,5.3c1.4,1.5,3.2,2.5,4.6,4c1.3,1.5,2.9,2.8,4.2,4.4c1.3,1.5,2.4,3.3,3.6,4.8c1.2,1.6,1.9,3.6,3.1,5.2
						c1.2,1.6,3,2.8,4.1,4.5c1.1,1.7,1.7,3.7,2.7,5.4c1.1,1.7,3,2.9,4,4.6c1,1.7,1.3,3.9,2.3,5.6c0.9,1.8,2,3.5,2.8,5.3
						c0.9,1.8,1.8,3.6,2.6,5.5c0.8,1.8,1.2,3.9,1.9,5.7c0.7,1.9,1.2,3.8,1.9,5.7c0.7,1.9,2.1,3.5,2.7,5.5c0.6,1.9,1.3,3.8,1.8,5.8
						c0.5,1.9,1.2,3.9,1.7,5.8c0.5,2,0.9,4,1.3,5.9c0.4,2-0.7,4.2-0.4,6.2c0.3,2,1,3.9,1.3,5.9c0.2,2,1.1,3.9,1.3,5.9
						c0.2,2,0.2,4,0.3,6c0.1,2-0.6,4-0.6,6.1c0,2,1.4,4,1.3,6c0,2-1.1,4-1.2,6c-0.1,2-0.8,4-1,6c-0.2,2-0.1,4-0.4,6
						c-0.3,2-1,3.9-1.3,5.9c-0.3,2,0.9,4.2,0.5,6.2C409.2,268.1,407.6,269.8,407.2,271.8z"/>
				</defs>
				<clipPath id="SVGID_00000116928983147295325680000007269727458880188055_">
					<use xlink:href="#SVGID_00000008862396404012978590000010250863369748591291_"  style="overflow:visible;"/>
				</clipPath>
			</g>
		</g>
	</g>
</g>
</svg>
