<?xml version="1.0" encoding="utf-8"?>
<svg version="1.1" id="Capa_1" x="0px" y="0px"
	 viewBox="0 0 619.92 467.43" style="enable-background:new 0 0 619.92 467.43;" xml:space="preserve">
<style type="text/css">
	.st0{fill:#10352B;}
	.st1{fill:#51CB59;}
	.st2{fill:#A8E6A5;}
	.st3{fill:#DECFF1;}
	.st4{fill:#915FD0;}
	.st5{fill:#C8AFE7;}
	.st6{fill:#80D4F1;}
	.st7{fill:#F3F5F4;}
	.st8{fill:#F2E770;}
	.st9{fill:#FFFFFF;}
</style>
<path class="st1" d="M599.17,286.86l-19.1,6.04c-0.64,0.2-1.23,0.46-1.81,0.76c-5.75-9.89-13.13-18.5-21.67-25.6
	c0.4-0.53,0.77-1.08,1.08-1.68l9.15-17.82c2.85-5.54,0.65-12.37-4.89-15.22l-17.82-9.15c-5.54-2.85-12.37-0.65-15.22,4.89
	l-9.15,17.82c-0.31,0.6-0.54,1.22-0.73,1.85c-10.46-2.73-21.44-3.73-32.53-2.77c-0.09-0.64-0.22-1.28-0.42-1.91l-6.04-19.1
	c-1.88-5.94-8.24-9.25-14.19-7.37l-19.1,6.04c-5.94,1.88-9.25,8.25-7.37,14.19l6.04,19.1c0.2,0.64,0.46,1.23,0.76,1.81
	c-9.89,5.75-18.5,13.13-25.6,21.67c-0.53-0.4-1.08-0.77-1.68-1.08l-17.82-9.15c-2.67-1.37-5.71-1.63-8.57-0.72
	c-0.02,0.01-0.03,0.01-0.05,0.02c-2.87,0.92-5.22,2.91-6.6,5.6l-9.15,17.82l0,0c-2.85,5.54-0.65,12.37,4.89,15.22l17.82,9.15
	c0.6,0.31,1.23,0.53,1.85,0.73c-2.73,10.46-3.73,21.44-2.77,32.53c-0.64,0.09-1.28,0.22-1.91,0.42l-19.1,6.04
	c-5.94,1.88-9.25,8.24-7.37,14.19l6.04,19.1c1.88,5.94,8.24,9.25,14.19,7.37l19.1-6.04c0.64-0.2,1.23-0.46,1.81-0.76
	c5.75,9.89,13.13,18.5,21.68,25.6c-0.4,0.52-0.77,1.07-1.08,1.67l-9.15,17.82c-1.38,2.69-1.63,5.75-0.71,8.62
	c0.92,2.88,2.91,5.22,5.6,6.6l17.82,9.15l0,0c2.76,1.41,5.83,1.58,8.57,0.72c2.78-0.88,5.22-2.82,6.65-5.61l9.15-17.82
	c0.31-0.6,0.53-1.23,0.73-1.85c10.46,2.73,21.44,3.73,32.53,2.77c0.09,0.64,0.22,1.28,0.42,1.92l6.04,19.1
	c1.88,5.94,8.24,9.25,14.19,7.37l19.1-6.04c5.94-1.88,9.25-8.24,7.37-14.19l-6.04-19.1c-0.2-0.64-0.46-1.23-0.76-1.81
	c9.89-5.75,18.5-13.13,25.6-21.68c0.52,0.4,1.07,0.78,1.67,1.09l17.82,9.15c2.76,1.41,5.83,1.58,8.57,0.72
	c2.78-0.88,5.22-2.82,6.65-5.61l9.15-17.82c2.85-5.55,0.65-12.37-4.89-15.22l-17.82-9.15c-0.6-0.31-1.22-0.54-1.85-0.73
	c2.73-10.46,3.73-21.44,2.77-32.53c0.64-0.09,1.28-0.22,1.92-0.42l19.1-6.04c5.94-1.88,9.25-8.24,7.37-14.19l-6.04-19.1
	C611.47,288.29,605.11,284.98,599.17,286.86z M510.76,392.87c-27.91,8.83-57.81-6.7-66.64-34.61c-8.83-27.91,6.7-57.81,34.61-66.64
	c27.91-8.83,57.81,6.7,66.63,34.61C554.2,354.15,538.67,384.05,510.76,392.87z"/>
<path class="st6" d="M328.33,99.8l-27.31,8.64c-0.91,0.29-1.77,0.66-2.58,1.09c-8.23-14.14-18.78-26.46-30.99-36.61
	c0.57-0.75,1.1-1.54,1.55-2.4l13.09-25.49c4.07-7.93,0.93-17.69-7-21.77l-25.49-13.09c-7.93-4.07-17.7-0.93-21.77,7l-13.09,25.49
	c-0.44,0.86-0.77,1.75-1.05,2.65c-14.95-3.91-30.66-5.33-46.52-3.96c-0.12-0.91-0.31-1.83-0.6-2.74l-8.64-27.31
	c-2.69-8.5-11.79-13.23-20.29-10.54l-27.31,8.64c-8.5,2.69-13.23,11.79-10.54,20.29L108.44,57c0.29,0.91,0.66,1.76,1.09,2.58
	c-14.14,8.23-26.46,18.78-36.61,30.99c-0.75-0.57-1.54-1.1-2.4-1.54L45.03,75.95c-3.82-1.96-8.17-2.33-12.26-1.03
	c-0.02,0.01-0.05,0.02-0.07,0.02c-4.11,1.32-7.46,4.17-9.43,8.01l-13.09,25.49l0,0c-4.07,7.93-0.93,17.69,7,21.77l25.49,13.09
	c0.86,0.44,1.75,0.76,2.65,1.04c-3.91,14.96-5.33,30.66-3.97,46.52c-0.91,0.12-1.83,0.31-2.74,0.6l-27.31,8.64
	c-8.5,2.69-13.23,11.79-10.54,20.29l8.64,27.31c2.69,8.5,11.79,13.23,20.29,10.54L57,249.58c0.91-0.29,1.76-0.66,2.58-1.09
	c8.23,14.15,18.78,26.46,31,36.61c-0.57,0.75-1.11,1.53-1.55,2.39l-13.09,25.49c-1.97,3.84-2.33,8.22-1.01,12.33
	c1.32,4.11,4.17,7.46,8.01,9.43l25.49,13.09l0,0c3.94,2.02,8.33,2.26,12.26,1.02c3.97-1.26,7.46-4.03,9.51-8.02l13.09-25.49
	c0.44-0.86,0.76-1.75,1.04-2.65c14.96,3.91,30.67,5.33,46.52,3.97c0.12,0.91,0.31,1.83,0.6,2.74l8.64,27.31
	c2.69,8.5,11.79,13.23,20.29,10.54l27.31-8.64c8.5-2.69,13.23-11.79,10.54-20.29l-8.64-27.31c-0.29-0.91-0.66-1.77-1.09-2.58
	c14.15-8.23,26.46-18.78,36.61-31c0.75,0.57,1.53,1.11,2.4,1.55l25.49,13.09c3.94,2.02,8.33,2.27,12.26,1.02
	c3.97-1.26,7.46-4.03,9.51-8.02l13.09-25.49c4.07-7.93,0.93-17.69-7-21.77l-25.49-13.09c-0.86-0.44-1.75-0.77-2.65-1.05
	c3.9-14.95,5.33-30.66,3.96-46.51c0.91-0.12,1.83-0.31,2.74-0.6l27.31-8.64c8.5-2.69,13.23-11.79,10.54-20.29l-8.64-27.31
	C345.94,101.84,336.83,97.11,328.33,99.8z M201.91,251.4c-39.92,12.63-82.67-9.58-95.29-49.49c-12.63-39.92,9.58-82.67,49.5-95.29
	c39.92-12.63,82.67,9.58,95.29,49.5C264.03,196.03,241.83,238.78,201.91,251.4z"/>
<g>
	<path class="st4" d="M471.44,312.52H203.48c-24.78,0-44.87-20.09-44.87-44.87v-89.11c0-24.78,20.09-44.87,44.87-44.87h267.96
		c24.78,0,44.87,20.09,44.87,44.87v89.11C516.31,292.43,496.22,312.52,471.44,312.52z"/>
</g>
<g>
	<g>
		<path class="st9" d="M300.73,204.6l-41.13,15.07l41.13,14.95v15.44l-58.79-22.36v-16.06l58.79-22.36V204.6z"/>
		<path class="st9" d="M344.94,158.9h17.17l-40.76,116.35h-17.17L344.94,158.9z"/>
		<path class="st9" d="M423.13,211.64v16.06l-58.79,22.36v-15.44l41.13-14.95l-41.13-15.07v-15.32L423.13,211.64z"/>
	</g>
</g>
</svg>
