<svg class="link-to" width="118" height="89" viewBox="0 0 118 89" fill="none" xmlns="http://www.w3.org/2000/svg">
<path fill-rule="evenodd" clip-rule="evenodd" d="M21.8003 44.4407C21.8003 23.7927 38.453 7.0459 58.985 7.0459C79.517 7.0459 96.1698 23.7927 96.1698 44.4407C96.1698 65.0887 79.5023 81.8356 58.9703 81.8356C38.4383 81.8356 21.8003 65.0887 21.8003 44.4407Z" fill="black"/>
<path fill-rule="evenodd" clip-rule="evenodd" d="M31.3878 49.0686C30.606 49.0686 29.957 48.416 29.957 47.6002V40.5247C29.957 39.7237 30.5913 39.0562 31.3878 39.0562C32.1695 39.0562 32.8185 39.7088 32.8185 40.5247V47.615C32.8185 48.416 32.1843 49.0686 31.3878 49.0686Z" fill="white"/>
<path fill-rule="evenodd" clip-rule="evenodd" d="M37.4207 49.0686C37.0077 49.0686 36.6095 48.8906 36.3292 48.5495L33.453 45.0191C33.0105 44.4703 33.0105 43.6841 33.453 43.1501L36.3292 39.6198C36.8307 38.9968 37.7305 38.9226 38.3352 39.427C38.94 39.9461 39.0285 40.8658 38.5122 41.4888L36.403 44.0847L38.5122 46.6805C39.0137 47.3035 38.94 48.2231 38.3352 48.7423C38.0697 48.9648 37.7452 49.0686 37.4207 49.0686Z" fill="white"/>
<path fill-rule="evenodd" clip-rule="evenodd" d="M46.9049 49.0686H40.8722C40.0904 49.0686 39.4414 48.416 39.4414 47.6002V40.5247C39.4414 39.7237 40.0757 39.0562 40.8722 39.0562C41.6539 39.0562 42.3029 39.7088 42.3029 40.5247V46.1317H45.4889V40.5247C45.4889 39.7237 46.1232 39.0562 46.9197 39.0562C47.7014 39.0562 48.3504 39.7088 48.3504 40.5247V47.615C48.3357 48.416 47.6867 49.0686 46.9049 49.0686Z" fill="white"/>
<path fill-rule="evenodd" clip-rule="evenodd" d="M56.3888 49.0688H50.356C49.5743 49.0688 48.9253 48.4162 48.9253 47.6003C48.9253 46.7993 49.5595 46.1318 50.356 46.1318H54.958V46.0428L49.9578 44.5743C49.353 44.3963 48.9253 43.8178 48.9253 43.1652V40.51C48.9253 39.709 49.5595 39.0415 50.356 39.0415H56.3888C57.1705 39.0415 57.8195 39.6942 57.8195 40.51C57.8195 41.311 57.1853 41.9785 56.3888 41.9785H51.772V42.0675L56.7723 43.536C57.377 43.714 57.8048 44.2925 57.8048 44.9452V47.6152C57.8048 48.4162 57.1705 49.0688 56.3888 49.0688Z" fill="white"/>
<path fill-rule="evenodd" clip-rule="evenodd" d="M76.2131 49.0684C75.4314 49.0684 74.7824 48.4157 74.7824 47.5999V43.6987L74.1186 44.2772C73.5876 44.7519 72.8059 44.7519 72.2601 44.2772L71.5964 43.6839V47.6147C71.5964 48.4157 70.9621 49.0832 70.1656 49.0832C69.3839 49.0832 68.7349 48.4306 68.7349 47.6147V40.5392C68.7349 39.9756 69.0594 39.4564 69.5609 39.2191C70.0624 38.9817 70.6671 39.0707 71.0801 39.4416L73.1746 41.2809L75.2691 39.4416C75.6969 39.0707 76.2869 38.9817 76.7884 39.2191C77.2899 39.4564 77.6144 39.9756 77.6144 40.5541V47.6147C77.6439 48.4157 76.9949 49.0684 76.2131 49.0684Z" fill="white"/>
<path fill-rule="evenodd" clip-rule="evenodd" d="M66.7288 49.0686C65.947 49.0686 65.298 48.416 65.298 47.6002V46.3542L61.7433 41.9783H61.2565V46.1317H63.3953C64.177 46.1317 64.826 46.7843 64.826 47.6002C64.826 48.4012 64.1918 49.0686 63.3953 49.0686H59.8258C59.044 49.0686 58.395 48.416 58.395 47.6002V40.5247C58.395 39.7237 59.0293 39.0562 59.8258 39.0562H62.407C62.8348 39.0562 63.233 39.249 63.4985 39.5753L67.8055 44.8857C68.012 45.1527 68.13 45.479 68.13 45.8202V47.615C68.1595 48.416 67.5105 49.0686 66.7288 49.0686Z" fill="white"/>
<path fill-rule="evenodd" clip-rule="evenodd" d="M86.553 49.0686C85.7712 49.0686 85.1222 48.416 85.1222 47.6002V46.3542L81.5675 41.9783H81.0807V46.1317H83.2195C84.0012 46.1317 84.6502 46.7843 84.6502 47.6002C84.6502 48.4012 84.016 49.0686 83.2195 49.0686H79.65C78.8682 49.0686 78.2192 48.416 78.2192 47.6002V40.5247C78.2192 39.7237 78.8535 39.0562 79.65 39.0562H82.2312C82.659 39.0562 83.0572 39.249 83.3227 39.5753L87.6297 44.8857C87.8362 45.1527 87.9542 45.479 87.9542 45.8202V47.615C87.9837 48.416 87.3495 49.0686 86.553 49.0686Z" fill="white"/>
<path fill-rule="evenodd" clip-rule="evenodd" d="M48.2914 35.3181C48.2176 35.2588 48.1144 35.1698 47.9374 35.1401C47.7751 35.1253 47.6129 35.2291 47.4949 35.3033C47.3769 35.3774 47.1704 35.5999 47.0819 35.6593C46.9934 35.7186 46.7721 35.7928 46.4034 36.0153C46.0494 36.2378 44.6186 37.1723 44.6186 37.1723H44.9874L43.3501 38.0474H43.5124L43.2764 38.2254C43.2764 38.2254 43.4829 38.2848 43.6599 38.1661V38.2254C43.6599 38.2254 45.6216 37.4393 46.0051 37.6321L45.7691 37.7063C45.7839 37.7063 46.1674 37.7359 46.1674 37.7359C46.1674 37.7359 46.1821 37.9733 46.4034 38.1216C46.6246 38.2699 46.6246 38.3589 46.6246 38.3589C46.6246 38.3589 46.5066 38.4034 46.5066 38.4628C46.5066 38.4628 46.6836 38.4034 46.8459 38.4183C47.0081 38.4183 47.1409 38.4628 47.1409 38.4628C47.1409 38.4628 47.1261 38.4034 46.9786 38.3589C46.8164 38.3144 46.6689 38.1364 46.5951 38.0474C46.5214 37.9584 46.4624 37.7804 46.5361 37.6173C46.5951 37.4689 46.7721 37.3948 47.1704 37.1871C47.6276 36.9498 47.7309 36.7569 47.7899 36.6234C47.8489 36.4899 47.9521 36.2081 47.9964 36.0746C48.0701 35.9114 48.1439 35.8224 48.2176 35.7631C48.2914 35.7038 48.6011 35.5851 48.6011 35.5851C48.6011 35.5851 48.3651 35.3774 48.2914 35.3181Z" fill="white"/>
</svg>
