<svg width="524" height="491" viewBox="0 0 524 491" fill="none" xmlns="http://www.w3.org/2000/svg">
<path d="M303.855 74.1465C305.707 75.7426 306.531 77.8437 307.251 80.1176C309.148 85.3605 314.202 89.5255 318.753 92.4746C321.641 93.5317 325.646 93.1757 328.626 92.5144C330.055 91.9937 330.055 91.9937 330.627 90.6352C330.727 90.2451 330.827 89.855 330.93 89.4531C331.09 89.293 331.25 89.133 331.415 88.9681C331.849 85.4938 331.43 83.0641 329.52 80.1309C328.989 79.2689 328.989 79.2689 328.989 78.299C329.604 78.2402 330.219 78.1815 330.852 78.1209C331.676 78.039 332.501 77.9569 333.325 77.8746C333.728 77.8365 334.131 77.7984 334.546 77.7591C336.933 77.5177 339.226 77.1392 341.561 76.5905C348.198 75.0716 355.865 74.4408 362.461 76.3591C362.199 78.2468 361.674 79.2343 360.521 80.7238C360.179 81.7652 360.179 81.7652 360.036 82.6636C361.656 81.2628 362.569 80.2144 363.28 78.1777C363.917 76.3591 363.917 76.3591 364.887 75.8742C365.737 75.9056 366.587 75.9723 367.434 76.056C369.092 76.2187 370.732 76.36 372.398 76.416C375.891 76.5479 378.562 77.0973 381.733 78.5547C383.637 79.4114 385.569 80.1415 387.535 80.845C388.074 81.038 388.074 81.038 388.623 81.2349C390.367 81.8379 391.921 82.3107 393.781 82.3605C396.338 82.4888 398.458 83.8493 400.676 85.0149C403.354 86.4122 406.018 87.4385 408.879 88.4168C413.657 90.0558 419.003 91.8917 422.129 96.091C423.229 97.3631 423.87 97.5524 425.434 98.0914C427.808 98.9541 428.829 100.012 430.36 101.965C431.564 103.268 432.933 104.191 434.408 105.154C437.868 107.428 440.652 110.198 443.426 113.267C444.42 114.257 444.42 114.257 445.798 114.809C447.914 115.94 449.297 117.488 450.901 119.248C451.221 119.594 451.541 119.94 451.871 120.296C454.101 122.74 456.143 125.251 458.074 127.939C458.899 129.084 459.766 130.164 460.664 131.251C462.507 133.591 463.933 136.157 465.412 138.735C466.871 141.257 468.458 143.609 470.256 145.907C471.383 147.538 472.209 149.259 473.064 151.043C473.353 151.628 473.642 152.212 473.932 152.795C474.076 153.086 474.22 153.376 474.369 153.675C474.519 153.977 474.668 154.278 474.823 154.589C474.985 154.915 475.146 155.241 475.313 155.577C476.26 157.474 477.234 159.352 478.241 161.218C478.459 161.623 478.677 162.028 478.901 162.446C479.325 163.23 479.752 164.013 480.183 164.793C481.131 166.552 481.893 168.162 482.336 170.117C482.739 171.784 483.009 172.463 484.131 173.685C486.855 177.066 487.963 181.428 489.13 185.549C489.476 186.665 489.852 187.748 490.259 188.841C491.672 192.649 492.712 196.136 493.198 200.194C493.372 201.592 493.372 201.592 494.439 202.964C495.686 204.854 495.615 206.388 495.733 208.613C496.081 212.85 497.103 218.004 499.273 221.734C499.854 223.068 499.877 224.103 499.895 225.556C499.907 226.084 499.919 226.612 499.932 227.155C499.949 228.26 499.964 229.365 499.977 230.47C500.047 233.375 500.256 235.274 501.685 237.851C501.793 239.518 501.793 239.518 501.716 241.246C501.608 243.66 501.608 243.66 502.155 245.983C502.706 247.709 502.848 249.208 502.944 251.017C502.962 251.35 502.979 251.684 502.998 252.028C503.234 256.7 503.312 261.379 503.409 266.056C503.503 270.548 503.658 275.009 504.011 279.489C504.163 281.807 504.145 284.116 504.111 286.438C504.098 287.314 504.088 288.189 504.081 289.065C504.075 289.441 504.069 289.817 504.063 290.204C504.071 291.295 504.071 291.295 504.596 292.651C504.62 293.634 504.614 294.618 504.592 295.601C504.583 296.198 504.574 296.795 504.564 297.41C504.559 297.726 504.554 298.043 504.549 298.369C504.462 304.565 504.886 310.497 505.865 316.621C506.18 318.728 506.395 320.842 506.597 322.961C506.637 323.375 506.678 323.789 506.719 324.215C506.922 326.437 507.051 328.646 507.103 330.876C507.178 337.091 507.178 337.091 509.35 342.837C510.284 344.795 510.414 346.84 510.677 348.975C510.84 350.427 510.84 350.427 511.66 351.847C512.427 353.414 512.464 354.393 512.539 356.12C512.687 358.631 513.199 359.91 514.656 361.906C515.705 363.73 515.947 365.76 516.358 367.805C516.684 369.116 517.005 369.907 517.754 371.003C518.89 373.084 518.865 374.744 518.986 377.078C519.183 378.782 519.734 379.87 520.583 381.333C521.431 383.068 521.755 384.934 522.152 386.815C522.552 388.438 522.552 388.438 524 390.613C524 423.741 524 456.869 524 491C369.039 491 214.079 491 54.4223 491C51.3054 484.768 51.3054 484.768 50.4316 481.197C49.8774 479.202 49.0623 477.341 48.241 475.443C47.6722 474.122 47.1469 472.792 46.6303 471.45C46.0628 470.001 45.4994 468.873 44.6596 467.54C43.5077 465.639 43.3561 463.646 43.0527 461.474C42.7072 459.56 42.0671 457.856 41.3245 456.064C40.7819 454.458 40.47 452.874 40.153 451.211C39.5849 448.343 38.8983 445.501 38.232 442.656C38.1567 442.332 38.0814 442.009 38.0037 441.676C37.1832 438.158 36.3452 434.65 35.3821 431.168C34.0732 426.35 33.2266 421.541 32.642 416.589C32.5628 415.935 32.4835 415.282 32.4042 414.628C32.2466 413.328 32.1032 412.028 31.9664 410.725C31.4686 406.539 31.4686 406.539 29.3088 403.046C28.1279 401.476 27.7402 399.546 27.2263 397.675C27.1041 397.253 26.9819 396.83 26.8561 396.395C26.2805 394.377 25.7436 392.354 25.2537 390.314C25.1709 389.969 25.088 389.624 25.0027 389.269C24.7851 388.342 24.5784 387.412 24.3725 386.482C23.8999 384.922 23.2644 383.731 22.4245 382.346C21.2151 380.073 20.6015 377.506 19.8503 375.053C18.6725 371.345 17.023 368.173 14.8259 364.971C13.6028 363.061 13.1415 361.145 12.6145 358.956C12.2164 357.629 11.6977 356.631 10.9754 355.454C9.77446 353.459 9.41425 351.681 9.1866 349.377C8.74713 347.637 7.9545 346.321 7.05883 344.777C5.69501 342.293 4.70035 339.63 3.63541 337.008C2.6743 334.699 1.73022 332.882 0.0909564 330.963C-0.0303188 329.599 -0.0303188 329.599 0.0909564 328.538C2.22929 328.015 3.16185 327.873 5.12388 328.963C5.4059 329.148 5.68792 329.333 5.97849 329.523C7.01986 330.065 7.74704 330.125 8.91373 330.175C10.8863 330.311 12.1865 330.893 13.9163 331.842C17.5409 333.782 21.32 334.524 25.3162 335.328C25.7971 335.425 26.278 335.522 26.7734 335.621C27.0929 335.685 27.4125 335.748 27.7417 335.813C27.7241 331.574 26.4613 328.122 24.8034 324.285C24.2914 323.075 23.8062 321.856 23.3246 320.633C23.1521 320.195 22.9795 319.757 22.8018 319.306C22.4617 318.441 22.1221 317.577 21.783 316.712C21.6258 316.316 21.4685 315.92 21.3065 315.513C21.1676 315.16 21.0286 314.808 20.8854 314.445C20.4415 313.381 20.4415 313.381 19.495 312.05C19.6769 310.746 19.6769 310.746 19.9801 309.625C21.1849 309.628 22.384 309.651 23.588 309.686C23.9216 309.684 24.2553 309.683 24.599 309.682C27.3091 309.783 28.7939 310.706 30.9611 312.276C32.9009 313.534 35.0304 314.121 37.2315 314.778C39.7291 315.541 42.1372 316.28 44.4606 317.487C46.0716 318.464 46.0716 318.464 47.6308 318.354C47.5508 317.734 47.4708 317.114 47.3883 316.475C47.2109 314.803 47.1371 313.173 47.1818 311.495C47.3167 306.411 46.7108 302.392 45.2053 297.501C44.9002 296.342 44.6064 295.18 44.3261 294.015C44.2029 293.518 44.0797 293.021 43.9528 292.509C43.7528 291.214 43.7795 290.472 44.2351 289.257C44.7202 288.772 44.7202 288.772 45.9936 288.499C48.2237 288.87 48.7386 289.937 50.1075 291.645C51.3062 292.957 52.572 293.573 54.1418 294.366C55.9936 295.418 57.6261 296.733 59.2944 298.048C61.0312 299.416 62.7989 300.716 64.6094 301.987C67.0448 303.743 68.642 305.488 70.3093 307.988C71.404 309.143 71.8804 309.386 73.3109 309.928C76.4596 311.194 78.8148 313.518 81.3143 315.75C82.088 316.428 82.8819 317.074 83.6818 317.72C84.9836 318.839 84.9836 318.839 85.59 320.052C86.5517 321.425 87.1554 321.69 88.6522 322.385C91.9056 323.905 95.5303 325.942 97.0808 329.326C98.3989 331.483 99.9394 332.061 102.159 333.164C103.417 333.873 103.417 333.873 104.6 335.298C105.908 336.861 106.916 337.436 108.693 338.389C111.212 339.782 112.648 341.172 114.3 343.496C115.698 345.42 117.145 347.181 119.555 347.679C123.01 347.816 124.902 346.406 127.411 344.091C127.781 343.744 127.781 343.744 128.158 343.39C128.404 343.163 128.65 342.935 128.904 342.701C130.47 341.248 131.99 339.755 133.494 338.238C138.83 332.903 138.83 332.903 140.08 331.67C140.842 330.898 141.581 330.104 142.294 329.287C144.959 326.311 144.959 326.311 146.789 325.765C148.587 325.693 149.818 326.041 151.473 326.75C152.992 328.857 152.712 330.878 152.413 333.388C152.121 334.837 151.764 336.248 151.372 337.673C150.78 339.862 150.333 342.077 149.87 344.296C149.516 345.933 149.117 347.554 148.714 349.179C148.085 351.845 147.825 354.431 147.711 357.164C147.562 358.606 147.562 358.606 147.075 359.974C146.586 361.532 146.471 362.727 146.474 364.353C146.472 364.9 146.471 365.447 146.469 366.01C146.473 366.594 146.476 367.177 146.48 367.778C146.48 368.383 146.48 368.988 146.48 369.611C146.482 371.213 146.488 372.815 146.497 374.417C146.502 375.723 146.502 377.03 146.501 378.337C146.501 379.9 146.506 381.462 146.51 383.024C146.511 383.903 146.511 383.903 146.512 384.799C146.516 385.614 146.516 385.615 146.521 386.447C146.523 386.925 146.525 387.403 146.527 387.895C146.586 389.043 146.785 389.993 147.077 391.098C147.074 392.27 147.051 393.443 147.016 394.614C146.974 397.078 147.131 399.03 148.181 401.273C148.647 402.573 148.694 403.786 148.774 405.162C148.907 407.29 149.235 408.883 150.074 410.822C150.826 412.954 151.13 415.218 151.518 417.44C151.943 419.295 152.632 420.876 153.383 422.621C153.652 424.038 153.652 424.038 153.807 425.409C154.2 428.049 155.012 430.167 156.187 432.551C156.703 433.619 157.103 434.652 157.476 435.775C158.012 437.276 158.738 438.446 159.659 439.746C160.779 441.344 161.478 442.802 162.084 444.656C163.067 447.569 164.638 449.768 166.481 452.203C168.392 454.796 170.072 457.366 171.544 460.235C172.861 462.765 174.351 464.692 176.311 466.746C177.489 468.111 178.031 469.421 178.608 471.117C178.928 471.117 179.248 471.117 179.578 471.117C180.306 470.397 180.306 470.397 181.064 469.45C182.368 467.912 183.719 466.468 185.157 465.055C186.821 463.413 188.371 461.716 189.89 459.942C190.771 458.953 191.696 458.035 192.646 457.113C194.445 455.343 195.998 453.44 197.554 451.455C199.28 449.275 201.083 447.173 203.075 445.232C205.8 442.442 208.102 439.264 210.414 436.131C211.105 435.236 211.838 434.402 212.595 433.563C213.669 432.339 214.447 431.124 215.203 429.683C216.036 428.101 216.933 426.846 218.144 425.53C219.639 423.903 220.646 422.256 221.659 420.3C222.28 419.203 222.985 418.29 223.783 417.316C224.894 415.897 225.432 414.726 225.875 412.982C226.767 409.534 228.981 406.978 231.151 404.222C231.959 402.756 232.089 402.048 232.272 400.434C232.748 397.179 234.367 394.713 236.007 391.926C237.49 389.357 238.371 387.035 238.937 384.108C239.263 382.783 239.745 381.86 240.458 380.702C241.795 378.502 242.268 376.3 242.751 373.789C243.041 372.551 243.367 371.527 243.835 370.36C244.725 368.071 245.133 365.747 245.552 363.334C247.318 353.62 247.318 353.62 248.463 351.331C248.526 350.416 248.561 349.498 248.582 348.581C248.598 348.028 248.614 347.476 248.63 346.906C248.66 345.742 248.688 344.577 248.714 343.413C248.73 342.858 248.747 342.303 248.764 341.731C248.782 340.971 248.782 340.971 248.801 340.195C248.948 338.723 248.948 338.723 249.434 337.271C249.958 335.692 250.056 334.409 250.085 332.75C250.099 332.179 250.113 331.609 250.128 331.021C250.15 329.829 250.171 328.637 250.193 327.444C250.207 326.875 250.221 326.305 250.236 325.718C250.245 325.2 250.254 324.683 250.264 324.15C250.403 322.719 250.403 322.719 250.898 321.584C251.582 319.727 251.45 318.019 251.379 316.06C251.368 315.657 251.357 315.254 251.346 314.838C251.321 313.989 251.295 313.14 251.266 312.291C251.222 310.988 251.185 309.686 251.151 308.383C251.126 307.558 251.101 306.732 251.076 305.906C251.065 305.516 251.053 305.125 251.042 304.723C251.014 302.745 251.014 302.745 250.403 300.896C250.305 299.593 250.232 298.299 250.178 296.995C250.139 296.196 250.101 295.397 250.063 294.598C250.005 293.339 249.948 292.08 249.894 290.821C249.84 289.606 249.782 288.39 249.723 287.175C249.708 286.803 249.693 286.431 249.678 286.048C249.563 283.752 249.131 281.771 248.463 279.557C248.525 277.961 248.733 276.426 248.95 274.844C249.052 273.195 249.052 273.195 248.233 271.588C247.386 269.609 247.389 268.327 247.492 266.191C247.588 262.968 247.161 260.164 246.39 257.02C245.885 254.573 245.79 252.164 245.702 249.672C245.616 248.042 245.616 248.042 245.067 246.593C244.316 244.322 244.386 242.047 244.311 239.671C244.196 237.849 244.196 237.849 243.371 236.339C242.124 233.69 242.381 230.687 242.338 227.818C242.313 226.644 242.287 225.47 242.259 224.297C242.246 223.521 242.246 223.521 242.233 222.731C242.166 221.539 241.979 220.566 241.671 219.422C241.609 218.777 241.564 218.129 241.535 217.481C241.517 217.121 241.499 216.762 241.48 216.392C241.446 215.642 241.412 214.892 241.378 214.142C241.298 212.57 241.202 211.225 240.701 209.723C240.54 207.323 240.734 205.011 241.08 202.634C241.277 200.488 241.193 198.333 241.156 196.18C241.186 194.689 241.186 194.689 241.671 193.235C241.746 192.517 241.798 191.796 241.837 191.075C241.873 190.422 241.873 190.422 241.911 189.756C241.948 189.051 241.948 189.051 241.986 188.332C242.044 187.335 242.102 186.339 242.16 185.343C242.25 183.773 242.338 182.203 242.422 180.634C242.503 179.118 242.593 177.602 242.683 176.087C242.706 175.621 242.729 175.155 242.752 174.675C242.922 171.951 243.385 169.982 244.582 167.532C244.915 166.477 244.915 166.477 245.114 165.512C245.192 165.162 245.27 164.811 245.35 164.45C245.427 164.086 245.503 163.723 245.582 163.349C245.667 162.967 245.751 162.584 245.837 162.19C246.321 159.945 246.676 157.72 246.947 155.438C247.324 152.704 248.32 150.808 249.736 148.467C250.446 147.08 250.683 145.972 250.888 144.435C251.231 141.971 252.098 140.527 253.556 138.544C254.298 137.444 254.74 136.434 255.193 135.191C256.09 132.781 257.317 130.62 258.615 128.412C259.975 126.089 261.177 123.712 262.326 121.277C263.629 118.875 265.437 117.052 267.382 115.156C267.782 114.756 268.182 114.356 268.594 113.944C272.233 110.306 272.233 110.306 273.51 109.06C274.471 108.074 275.265 107.125 276.053 106.002C278.169 103.132 280.424 100.379 283.875 99.1523C285.542 99.3577 286.291 99.9804 287.453 101.153C289.682 103.192 292.198 104.386 294.902 105.661C296.488 106.427 296.488 106.427 297.788 107.217C301.474 109.394 305.941 108.957 310.07 108.851C309.91 108.531 309.75 108.211 309.585 107.882C309.227 107.898 308.869 107.915 308.5 107.933C303.189 108.074 299.185 107.114 294.714 104.229C293.678 103.58 292.66 103.074 291.546 102.577C289.061 101.368 286.98 99.5315 285.73 97.0495C284.491 93.0466 285.101 88.3898 286.786 84.6035C287.643 83.0501 288.626 81.6518 289.696 80.2388C289.934 79.8812 290.173 79.5237 290.418 79.1552C292.808 75.9068 295.573 75.5554 299.398 74.9043C300.059 74.704 300.717 74.4944 301.369 74.2678C302.794 73.9343 302.794 73.9343 303.855 74.1465Z" fill="#F2F4F3"/>
<path d="M303.855 74.1465C305.707 75.7426 306.531 77.8437 307.251 80.1176C309.148 85.3605 314.202 89.5255 318.753 92.4746C321.641 93.5317 325.646 93.1757 328.626 92.5144C330.055 91.9937 330.055 91.9937 330.627 90.6352C330.727 90.2451 330.827 89.855 330.93 89.4531C331.09 89.293 331.25 89.133 331.415 88.9681C331.849 85.4938 331.43 83.0641 329.52 80.1309C328.989 79.2689 328.989 79.2689 328.989 78.299C329.604 78.2402 330.219 78.1815 330.852 78.1209C331.676 78.039 332.501 77.9569 333.325 77.8746C333.728 77.8365 334.131 77.7984 334.546 77.7591C336.933 77.5177 339.226 77.1392 341.561 76.5905C348.198 75.0716 355.865 74.4408 362.461 76.3591C362.199 78.2468 361.674 79.2343 360.521 80.7238C360.179 81.7652 360.179 81.7652 360.036 82.6636C361.656 81.2628 362.569 80.2144 363.28 78.1777C363.917 76.3591 363.917 76.3591 364.887 75.8742C365.737 75.9056 366.587 75.9723 367.434 76.056C369.092 76.2187 370.732 76.36 372.398 76.416C375.891 76.5479 378.562 77.0973 381.733 78.5547C383.637 79.4114 385.569 80.1415 387.535 80.845C388.074 81.038 388.074 81.038 388.623 81.2349C390.367 81.8379 391.921 82.3107 393.781 82.3605C396.338 82.4888 398.458 83.8493 400.676 85.0149C403.354 86.4122 406.018 87.4385 408.879 88.4168C413.657 90.0558 419.003 91.8917 422.129 96.091C423.229 97.3631 423.87 97.5524 425.434 98.0914C427.808 98.9541 428.829 100.012 430.36 101.965C431.564 103.268 432.933 104.191 434.408 105.154C437.868 107.428 440.652 110.198 443.426 113.267C444.42 114.257 444.42 114.257 445.798 114.809C447.914 115.94 449.297 117.488 450.901 119.248C451.221 119.594 451.541 119.94 451.871 120.296C454.101 122.74 456.143 125.251 458.074 127.939C458.899 129.084 459.766 130.164 460.664 131.251C462.507 133.591 463.933 136.157 465.412 138.735C466.871 141.257 468.458 143.609 470.256 145.907C471.383 147.538 472.209 149.259 473.064 151.043C473.353 151.628 473.642 152.212 473.932 152.795C474.076 153.086 474.22 153.376 474.369 153.675C474.519 153.977 474.668 154.278 474.823 154.589C474.985 154.915 475.146 155.241 475.313 155.577C476.26 157.474 477.234 159.352 478.241 161.218C478.459 161.623 478.677 162.028 478.901 162.446C479.325 163.23 479.752 164.013 480.183 164.793C481.131 166.552 481.893 168.162 482.336 170.117C482.739 171.784 483.009 172.463 484.131 173.685C486.855 177.066 487.963 181.428 489.13 185.549C489.476 186.665 489.852 187.748 490.259 188.841C491.672 192.649 492.712 196.136 493.198 200.194C493.372 201.592 493.372 201.592 494.439 202.964C495.686 204.854 495.615 206.388 495.733 208.613C496.081 212.85 497.103 218.004 499.273 221.734C499.854 223.068 499.877 224.103 499.895 225.556C499.907 226.084 499.919 226.612 499.932 227.155C499.949 228.26 499.964 229.365 499.977 230.47C500.047 233.375 500.256 235.274 501.685 237.851C501.793 239.518 501.793 239.518 501.716 241.246C501.608 243.66 501.608 243.66 502.155 245.983C502.706 247.709 502.848 249.208 502.944 251.017C502.962 251.35 502.979 251.684 502.998 252.028C503.234 256.7 503.312 261.379 503.409 266.056C503.503 270.548 503.658 275.009 504.011 279.489C504.163 281.807 504.145 284.116 504.111 286.438C504.098 287.314 504.088 288.189 504.081 289.065C504.075 289.441 504.069 289.817 504.063 290.204C504.071 291.295 504.071 291.295 504.596 292.651C504.62 293.634 504.614 294.618 504.592 295.601C504.583 296.198 504.574 296.795 504.564 297.41C504.559 297.726 504.554 298.043 504.549 298.369C504.462 304.565 504.886 310.497 505.865 316.621C506.18 318.728 506.395 320.842 506.597 322.961C506.637 323.375 506.678 323.789 506.719 324.215C506.922 326.437 507.051 328.646 507.103 330.876C507.178 337.091 507.178 337.091 509.35 342.837C510.284 344.795 510.414 346.84 510.677 348.975C510.84 350.427 510.84 350.427 511.66 351.847C512.427 353.414 512.464 354.393 512.539 356.12C512.687 358.631 513.199 359.91 514.656 361.906C515.705 363.73 515.947 365.76 516.358 367.805C516.684 369.116 517.005 369.907 517.754 371.003C518.89 373.084 518.865 374.744 518.986 377.078C519.183 378.782 519.734 379.87 520.583 381.333C521.431 383.068 521.755 384.934 522.152 386.815C522.552 388.438 522.552 388.438 524 390.613C524 423.741 524 456.869 524 491C369.039 491 214.079 491 54.4223 491C51.3054 484.768 51.3054 484.768 50.4316 481.197C49.8774 479.202 49.0623 477.341 48.241 475.443C47.6722 474.122 47.1469 472.792 46.6303 471.45C46.0628 470.001 45.4994 468.873 44.6596 467.54C43.5077 465.639 43.3561 463.646 43.0527 461.474C42.7072 459.56 42.0671 457.856 41.3245 456.064C40.7819 454.458 40.47 452.874 40.153 451.211C39.5849 448.343 38.8983 445.501 38.232 442.656C38.1567 442.332 38.0814 442.009 38.0037 441.676C37.1832 438.158 36.3452 434.65 35.3821 431.168C34.0732 426.35 33.2266 421.541 32.642 416.589C32.5628 415.935 32.4835 415.282 32.4042 414.628C32.2466 413.328 32.1032 412.028 31.9664 410.725C31.4686 406.539 31.4686 406.539 29.3088 403.046C28.1279 401.476 27.7402 399.546 27.2263 397.675C27.1041 397.253 26.9819 396.83 26.8561 396.395C26.2805 394.377 25.7436 392.354 25.2537 390.314C25.1709 389.969 25.088 389.624 25.0027 389.269C24.7851 388.342 24.5784 387.412 24.3725 386.482C23.8999 384.922 23.2644 383.731 22.4245 382.346C21.2151 380.073 20.6015 377.506 19.8503 375.053C18.6725 371.345 17.023 368.173 14.8259 364.971C13.6028 363.061 13.1415 361.145 12.6145 358.956C12.2164 357.629 11.6977 356.631 10.9754 355.454C9.77446 353.459 9.41425 351.681 9.1866 349.377C8.74713 347.637 7.9545 346.321 7.05883 344.777C5.69501 342.293 4.70035 339.63 3.63541 337.008C2.6743 334.699 1.73022 332.882 0.0909564 330.963C-0.0303188 329.599 -0.0303188 329.599 0.0909564 328.538C2.22929 328.015 3.16185 327.873 5.12388 328.963C5.4059 329.148 5.68792 329.333 5.97849 329.523C7.01986 330.065 7.74704 330.125 8.91373 330.175C10.8863 330.311 12.1865 330.893 13.9163 331.842C17.5409 333.782 21.32 334.524 25.3162 335.328C25.7971 335.425 26.278 335.522 26.7734 335.621C27.0929 335.685 27.4125 335.748 27.7417 335.813C27.7241 331.574 26.4613 328.122 24.8034 324.285C24.2914 323.075 23.8062 321.856 23.3246 320.633C23.1521 320.195 22.9795 319.757 22.8018 319.306C22.4617 318.441 22.1221 317.577 21.783 316.712C21.6258 316.316 21.4685 315.92 21.3065 315.513C21.1676 315.16 21.0286 314.808 20.8854 314.445C20.4415 313.381 20.4415 313.381 19.495 312.05C19.6769 310.746 19.6769 310.746 19.9801 309.625C21.1849 309.628 22.384 309.651 23.588 309.686C23.9216 309.684 24.2553 309.683 24.599 309.682C27.3091 309.783 28.7939 310.706 30.9611 312.276C32.9009 313.534 35.0304 314.121 37.2315 314.778C39.7291 315.541 42.1372 316.28 44.4606 317.487C46.0716 318.464 46.0716 318.464 47.6308 318.354C47.5508 317.734 47.4708 317.114 47.3883 316.475C47.2109 314.803 47.1371 313.173 47.1818 311.495C47.3167 306.411 46.7108 302.392 45.2053 297.501C44.9002 296.342 44.6064 295.18 44.3261 294.015C44.2029 293.518 44.0797 293.021 43.9528 292.509C43.7528 291.214 43.7795 290.472 44.2351 289.257C44.7202 288.772 44.7202 288.772 45.9936 288.499C48.2237 288.87 48.7386 289.937 50.1075 291.645C51.3062 292.957 52.572 293.573 54.1418 294.366C55.9936 295.418 57.6261 296.733 59.2944 298.048C61.0312 299.416 62.7989 300.716 64.6094 301.987C67.0448 303.743 68.642 305.488 70.3093 307.988C71.404 309.143 71.8804 309.386 73.3109 309.928C76.4596 311.194 78.8148 313.518 81.3143 315.75C82.088 316.428 82.8819 317.074 83.6818 317.72C84.9836 318.839 84.9836 318.839 85.59 320.052C86.5517 321.425 87.1554 321.69 88.6522 322.385C91.9056 323.905 95.5303 325.942 97.0808 329.326C98.3989 331.483 99.9394 332.061 102.159 333.164C103.417 333.873 103.417 333.873 104.6 335.298C105.908 336.861 106.916 337.436 108.693 338.389C111.212 339.782 112.648 341.172 114.3 343.496C115.698 345.42 117.145 347.181 119.555 347.679C123.01 347.816 124.902 346.406 127.411 344.091C127.781 343.744 127.781 343.744 128.158 343.39C128.404 343.163 128.65 342.935 128.904 342.701C130.47 341.248 131.99 339.755 133.494 338.238C138.83 332.903 138.83 332.903 140.08 331.67C140.842 330.898 141.581 330.104 142.294 329.287C144.959 326.311 144.959 326.311 146.789 325.765C148.587 325.693 149.818 326.041 151.473 326.75C152.992 328.857 152.712 330.878 152.413 333.388C152.121 334.837 151.764 336.248 151.372 337.673C150.78 339.862 150.333 342.077 149.87 344.296C149.516 345.933 149.117 347.554 148.714 349.179C148.085 351.845 147.825 354.431 147.711 357.164C147.562 358.606 147.562 358.606 147.075 359.974C146.586 361.532 146.471 362.727 146.474 364.353C146.472 364.9 146.471 365.447 146.469 366.01C146.473 366.594 146.476 367.177 146.48 367.778C146.48 368.383 146.48 368.988 146.48 369.611C146.482 371.213 146.488 372.815 146.497 374.417C146.502 375.723 146.502 377.03 146.501 378.337C146.501 379.9 146.506 381.462 146.51 383.024C146.511 383.903 146.511 383.903 146.512 384.799C146.516 385.614 146.516 385.615 146.521 386.447C146.523 386.925 146.525 387.403 146.527 387.895C146.586 389.043 146.785 389.993 147.077 391.098C147.074 392.27 147.051 393.443 147.016 394.614C146.974 397.078 147.131 399.03 148.181 401.273C148.647 402.573 148.694 403.786 148.774 405.162C148.907 407.29 149.235 408.883 150.074 410.822C150.826 412.954 151.13 415.218 151.518 417.44C151.943 419.295 152.632 420.876 153.383 422.621C153.652 424.038 153.652 424.038 153.807 425.409C154.2 428.049 155.012 430.167 156.187 432.551C156.703 433.619 157.103 434.652 157.476 435.775C158.012 437.276 158.738 438.446 159.659 439.746C160.779 441.344 161.478 442.802 162.084 444.656C163.067 447.569 164.638 449.768 166.481 452.203C168.392 454.796 170.072 457.366 171.544 460.235C172.861 462.765 174.351 464.692 176.311 466.746C177.489 468.111 178.031 469.421 178.608 471.117C178.928 471.117 179.248 471.117 179.578 471.117C180.306 470.397 180.306 470.397 181.064 469.45C182.368 467.912 183.719 466.468 185.157 465.055C186.821 463.413 188.371 461.716 189.89 459.942C190.771 458.953 191.696 458.035 192.646 457.113C194.445 455.343 195.998 453.44 197.554 451.455C199.28 449.275 201.083 447.173 203.075 445.232C205.8 442.442 208.102 439.264 210.414 436.131C211.105 435.236 211.838 434.402 212.595 433.563C213.669 432.339 214.447 431.124 215.203 429.683C216.036 428.101 216.933 426.846 218.144 425.53C219.639 423.903 220.646 422.256 221.659 420.3C222.28 419.203 222.985 418.29 223.783 417.316C224.894 415.897 225.432 414.726 225.875 412.982C226.767 409.534 228.981 406.978 231.151 404.222C231.959 402.756 232.089 402.048 232.272 400.434C232.748 397.179 234.367 394.713 236.007 391.926C237.49 389.357 238.371 387.035 238.937 384.108C239.263 382.783 239.745 381.86 240.458 380.702C241.795 378.502 242.268 376.3 242.751 373.789C243.041 372.551 243.367 371.527 243.835 370.36C244.725 368.071 245.133 365.747 245.552 363.334C247.318 353.62 247.318 353.62 248.463 351.331C248.526 350.416 248.561 349.498 248.582 348.581C248.598 348.028 248.614 347.476 248.63 346.906C248.66 345.742 248.688 344.577 248.714 343.413C248.73 342.858 248.747 342.303 248.764 341.731C248.782 340.971 248.782 340.971 248.801 340.195C248.948 338.723 248.948 338.723 249.434 337.271C249.958 335.692 250.056 334.409 250.085 332.75C250.099 332.179 250.113 331.609 250.128 331.021C250.15 329.829 250.171 328.637 250.193 327.444C250.207 326.875 250.221 326.305 250.236 325.718C250.245 325.2 250.254 324.683 250.264 324.15C250.403 322.719 250.403 322.719 250.898 321.584C251.582 319.727 251.45 318.019 251.379 316.06C251.368 315.657 251.357 315.254 251.346 314.838C251.321 313.989 251.295 313.14 251.266 312.291C251.222 310.988 251.185 309.686 251.151 308.383C251.126 307.558 251.101 306.732 251.076 305.906C251.065 305.516 251.053 305.125 251.042 304.723C251.014 302.745 251.014 302.745 250.403 300.896C250.305 299.593 250.232 298.299 250.178 296.995C250.139 296.196 250.101 295.397 250.063 294.598C250.005 293.339 249.948 292.08 249.894 290.821C249.84 289.606 249.782 288.39 249.723 287.175C249.708 286.803 249.693 286.431 249.678 286.048C249.563 283.752 249.131 281.771 248.463 279.557C248.525 277.961 248.733 276.426 248.95 274.844C249.052 273.195 249.052 273.195 248.233 271.588C247.386 269.609 247.389 268.327 247.492 266.191C247.588 262.968 247.161 260.164 246.39 257.02C245.885 254.573 245.79 252.164 245.702 249.672C245.616 248.042 245.616 248.042 245.067 246.593C244.316 244.322 244.386 242.047 244.311 239.671C244.196 237.849 244.196 237.849 243.371 236.339C242.124 233.69 242.381 230.687 242.338 227.818C242.313 226.644 242.287 225.47 242.259 224.297C242.246 223.521 242.246 223.521 242.233 222.731C242.166 221.539 241.979 220.566 241.671 219.422C241.609 218.777 241.564 218.129 241.535 217.481C241.517 217.121 241.499 216.762 241.48 216.392C241.446 215.642 241.412 214.892 241.378 214.142C241.298 212.57 241.202 211.225 240.701 209.723C240.54 207.323 240.734 205.011 241.08 202.634C241.277 200.488 241.193 198.333 241.156 196.18C241.186 194.689 241.186 194.689 241.671 193.235C241.746 192.517 241.798 191.796 241.837 191.075C241.873 190.422 241.873 190.422 241.911 189.756C241.948 189.051 241.948 189.051 241.986 188.332C242.044 187.335 242.102 186.339 242.16 185.343C242.25 183.773 242.338 182.203 242.422 180.634C242.503 179.118 242.593 177.602 242.683 176.087C242.706 175.621 242.729 175.155 242.752 174.675C242.922 171.951 243.385 169.982 244.582 167.532C244.915 166.477 244.915 166.477 245.114 165.512C245.192 165.162 245.27 164.811 245.35 164.45C245.427 164.086 245.503 163.723 245.582 163.349C245.667 162.967 245.751 162.584 245.837 162.19C246.321 159.945 246.676 157.72 246.947 155.438C247.324 152.704 248.32 150.808 249.736 148.467C250.446 147.08 250.683 145.972 250.888 144.435C251.231 141.971 252.098 140.527 253.556 138.544C254.298 137.444 254.74 136.434 255.193 135.191C256.09 132.781 257.317 130.62 258.615 128.412C259.975 126.089 261.177 123.712 262.326 121.277C263.629 118.875 265.437 117.052 267.382 115.156C267.782 114.756 268.182 114.356 268.594 113.944C272.233 110.306 272.233 110.306 273.51 109.06C274.471 108.074 275.265 107.125 276.053 106.002C278.169 103.132 280.424 100.379 283.875 99.1523C285.542 99.3577 286.291 99.9804 287.453 101.153C289.682 103.192 292.198 104.386 294.902 105.661C296.488 106.427 296.488 106.427 297.788 107.217C301.474 109.394 305.941 108.957 310.07 108.851C309.91 108.531 309.75 108.211 309.585 107.882C309.227 107.898 308.869 107.915 308.5 107.933C303.189 108.074 299.185 107.114 294.714 104.229C293.678 103.58 292.66 103.074 291.546 102.577C289.061 101.368 286.98 99.5315 285.73 97.0495C284.491 93.0466 285.101 88.3898 286.786 84.6035C287.643 83.0501 288.626 81.6518 289.696 80.2388C289.934 79.8812 290.173 79.5237 290.418 79.1552C292.808 75.9068 295.573 75.5554 299.398 74.9043C300.059 74.704 300.717 74.4944 301.369 74.2678C302.794 73.9343 302.794 73.9343 303.855 74.1465Z" fill="#F2F4F3"/>
<path d="M102.262 34C105.129 34.6662 107.465 35.6037 109.958 37.1829C112.483 38.7392 114.567 39.248 117.483 39.6061C119.228 39.9023 120.245 40.7036 121.653 41.7602C125.009 43.668 128.43 45.0391 132.108 46.1732C134.011 46.7825 135.569 47.5304 137.225 48.6413C139.566 50.1857 141.71 50.365 144.455 50.6723C146.333 51.069 147.078 51.8724 148.375 53.2149C149.964 54.3873 151.834 54.383 153.751 54.6207C155.524 54.9293 156.572 55.7328 158.009 56.7956C160.041 57.7303 162.142 58.4871 164.253 59.2207C164.712 59.3808 165.171 59.5408 165.644 59.7057C166.062 59.8458 166.479 59.9858 166.909 60.1301C168.189 60.6757 168.189 60.6757 169.566 61.6155C171.288 62.74 172.956 63.3959 174.885 64.0708C177.046 64.8495 179.17 65.6328 181.247 66.6172C182.595 67.247 183.81 67.609 185.273 67.86C187.688 68.3748 189.488 69.4182 191.549 70.7398C196.449 73.7419 201.135 76.292 206.97 76.6812C207.939 77.6512 207.939 77.6512 208 79.1669C207.98 79.6271 207.96 80.0872 207.939 80.5613C207.22 80.8014 207.22 80.8014 206.485 81.0463C205.709 82.6187 205.31 84.2264 204.91 85.9268C204.358 88.0325 203.595 89.8242 202.577 91.7469C201.628 93.5459 200.988 95.0395 200.698 97.0518C200.384 99.0671 199.709 100.37 198.608 102.084C197.089 104.529 196.273 106.818 195.527 109.586C193.956 115.09 191.843 120.334 189.653 125.616C188.998 127.196 188.35 128.779 187.704 130.362C187.283 131.386 186.863 132.409 186.442 133.432C186.251 133.896 186.061 134.36 185.864 134.839C184.773 137.466 183.592 140.019 182.285 142.547C181.5 144.147 180.948 145.801 180.399 147.493C179.348 150.586 178.169 153.597 176.854 156.587C176.697 156.951 176.54 157.315 176.378 157.69C175.468 159.722 174.439 161.273 173.037 163.014C172.427 164.223 171.868 165.408 171.34 166.651C171.192 166.996 171.043 167.34 170.89 167.695C169.836 170.193 169.022 172.713 168.265 175.317C167.533 177.62 166.679 179.863 165.796 182.111C165.639 182.521 165.482 182.93 165.32 183.352C164.423 185.602 163.415 187.433 161.955 189.357C161.029 190.728 160.591 192.213 160.1 193.782C159.908 194.381 159.716 194.981 159.519 195.599C159.15 196.864 158.832 198.091 158.545 199.373C158.024 201.505 157.096 203.34 156.07 205.27C154.909 207.481 153.881 209.594 153.162 212C147.977 210.413 143.116 208.91 138.536 205.964C136.453 204.818 134.246 204.353 131.954 203.772C130.408 203.279 129.4 202.713 128.106 201.754C126.561 200.613 125.464 200.162 123.561 199.905C120.752 199.523 118.43 198.51 115.883 197.323C114.099 196.494 112.314 195.756 110.462 195.095C107.412 194.005 104.417 192.792 101.426 191.555C100.504 191.174 99.5805 190.798 98.6569 190.422C95.6958 189.205 92.859 187.913 90.0887 186.304C88.8206 185.618 87.5349 185.236 86.1441 184.87C83.2862 184.048 80.7045 182.917 78.0301 181.626C76.7507 181.042 75.5226 180.598 74.1767 180.201C72.4962 179.681 71.5292 178.957 70.2248 177.757C67.39 175.681 63.5577 174.233 60.0884 173.745C57.5288 173.343 55.5149 172.075 53.3319 170.76C51.2631 169.516 49.2935 168.598 47 167.864C47.2 167.544 47.3999 167.224 47.6059 166.894C49.6518 163.4 49.6518 163.4 50.8478 159.558C51.5734 155.896 52.5448 151.794 55.0591 148.979C56.5076 147.11 56.6517 145.5 57.0378 143.201C58.0598 137.575 61.0005 132.519 63.5897 127.48C64.7946 125.094 65.6448 122.69 66.4301 120.133C66.9735 118.599 67.7436 117.389 68.6455 116.045C70.9453 112.357 72.4322 108.192 73.9218 104.127C75.992 98.504 78.1995 92.8811 80.7815 87.4728C82.0176 84.8463 82.8444 82.1007 83.7281 79.3414C84.4927 77.0057 85.3894 74.9605 86.68 72.8617C87.5671 71.2139 88.0423 69.4468 88.5509 67.6516C89.1149 66.1663 89.7674 64.9162 90.5486 63.5385C92.1545 60.6546 93.2768 57.6964 94.3547 54.5828C94.5375 54.0692 94.7203 53.5555 94.9086 53.0264C95.8761 50.2846 96.7702 47.5407 97.5365 44.7357C97.927 43.6219 98.4444 42.7605 99.1114 41.7905C100.44 39.8371 100.957 37.8463 101.497 35.563C101.778 34.485 101.778 34.485 102.262 34Z" fill="#F2F4F3"/>
<path d="M122.519 7.0342C123.206 7.3123 123.883 7.61796 124.548 7.94401C126.251 8.77454 127.668 9.12802 129.547 9.33905C132.586 9.77097 134.997 10.9304 137.711 12.2885C140.537 13.688 143.397 14.7621 146.41 15.6873C148.18 16.2606 149.189 16.7491 150.652 17.9784C152.297 19.3406 153.465 19.6623 155.538 20.1051C158.575 20.8095 161.104 21.8981 163.859 23.3861C165.1 23.983 166.094 24.2599 167.443 24.4722C169.275 24.7882 170.241 25.4543 171.654 26.6557C173.654 28.3451 175.339 28.8841 177.864 29.4458C179.364 29.8796 180.499 30.5188 181.832 31.3261C183.848 32.5051 185.452 32.975 187.77 33.2367C190.466 33.5451 191.922 34.2592 194.043 35.8988C195.357 36.7178 196.406 36.974 197.92 37.2721C201.123 38.0209 203.72 39.3592 206.551 41.0004C207.464 41.5163 208.376 42.0318 209.289 42.5471C209.709 42.7872 210.128 43.0274 210.561 43.2748C211.487 43.7924 212.437 44.2689 213.392 44.7325C215.259 45.7063 216.645 47.1295 217.336 49.1773C218.146 53.8254 217.918 60.1189 215.639 64.3218C214.609 65.7472 214.609 65.7472 213.549 66.748C212.405 67.972 212.335 68.9608 212.186 70.5995C213.585 71.3772 214.754 71.7164 216.332 71.9377C219.341 72.5043 221.735 73.8692 224.364 75.3912C225.273 75.906 226.183 76.4203 227.094 76.934C227.524 77.1794 227.954 77.4248 228.398 77.6776C229.527 78.3036 230.667 78.8805 231.829 79.4417C234.083 80.5968 235.139 81.794 235.936 84.186C235.982 85.3275 235.999 86.4704 235.996 87.6129C235.997 88.219 235.999 88.8251 236 89.4496C235.936 90.9792 235.936 90.9792 235.451 91.9497C235.389 92.798 235.34 93.6475 235.299 94.4971C235.051 97.4738 234.051 99.0412 232.088 101.26C229.438 104.879 228.229 108.336 228.665 112.815C228.351 112.95 228.037 113.086 227.713 113.226C227.387 113.41 227.062 113.595 226.727 113.785C226.541 114.589 226.381 115.398 226.242 116.211C226.021 116.407 225.801 116.603 225.574 116.805C224.42 118.07 224.134 119.433 223.637 121.064C222.908 123.388 222.118 125.594 221.062 127.796C220.313 129.362 219.801 130.726 219.517 132.436C219.162 134.353 218.405 135.675 217.366 137.319C215.929 139.661 215.056 141.85 214.337 144.476C211.436 155.052 206.842 165.316 202.31 175.288C201.089 177.978 200.023 180.681 199.069 183.476C198.112 186.279 197.082 189.031 195.919 191.756C195.788 192.07 195.658 192.384 195.524 192.707C194.847 194.257 194.138 195.44 193.045 196.737C191.636 198.45 190.899 200.079 190.102 202.127C189.957 202.492 189.811 202.856 189.66 203.232C188.643 205.816 187.807 208.43 187.024 211.095C185.503 215.943 183.863 220.751 180.848 224.877C179.069 227.6 178.329 230.827 177.652 233.971C176.887 237.23 175.414 240.03 173.865 242.972C172.667 245.263 171.481 247.556 171.078 250.135C170.639 252.266 169.925 254.268 169.14 256.291C169.025 256.597 168.911 256.903 168.793 257.217C168.156 258.812 167.482 259.974 166.374 261.294C165.065 262.88 164.434 264.416 163.778 266.33C162.376 270.088 160.6 272.844 157.265 275.124C153.842 276.518 150.653 276.117 147.242 274.838C145.832 274.198 144.628 273.344 143.36 272.456C139.481 270.033 139.481 270.033 135.181 268.998C132.491 268.736 130.646 267.447 128.392 266.034C126.471 264.945 124.53 264.37 122.424 263.741C121.023 263.221 120.043 262.584 118.853 261.69C117.237 260.519 116.239 260.182 114.249 260.143C110.643 259.998 107.792 258.162 104.681 256.508C100.205 254.194 95.6506 252.148 90.7396 250.996C89.3848 250.565 88.3586 249.937 87.167 249.165C85.4402 248.051 84.0291 247.475 82.0172 247.072C78.9571 246.417 76.5443 245.058 73.8466 243.538C71.4527 242.221 69.1378 241.331 66.5072 240.612C62.525 239.501 60.3546 237.77 57.8434 234.547C57.0797 233.14 56.7451 232.309 56.6014 230.726C56.547 230.252 56.547 230.252 56.4916 229.769C56.1435 224.276 58.3604 218.636 61.382 214.141C62.0185 213.294 62.0185 213.294 61.9329 212.287C61.3775 212.029 60.8221 211.772 60.2498 211.506C59.5082 211.16 58.7667 210.814 58.0251 210.467C57.6606 210.299 57.296 210.13 56.9204 209.956C55.198 209.149 53.5234 208.325 51.8908 207.348C50.4242 206.533 49.2911 206.131 47.665 205.797C43.6419 204.764 41.2087 202.7 39.1091 199.152C37.1328 194.957 38.1184 190.438 39.5773 186.248C40.3016 184.292 41.1389 182.595 42.3239 180.889C43.3531 179.268 44.1804 177.555 45.0295 175.834C45.2744 175.338 45.2744 175.338 45.5242 174.831C45.8378 174.194 46.1508 173.556 46.4632 172.918C47.0893 171.643 47.7252 170.372 48.3617 169.101C51.1205 169.543 53.1716 170.565 55.5411 172.013C58.0193 173.513 60.097 174.273 62.9667 174.627C66.2614 175.332 69.7758 177.186 72.3537 179.327C73.7768 180.425 75.0719 180.888 76.7765 181.445C78.9822 182.193 81.0948 182.992 83.1986 183.992C84.6769 184.691 86.0199 185.244 87.6214 185.569C89.2527 185.916 90.4977 186.567 91.9381 187.402C95.0058 189.108 98.1782 190.427 101.435 191.725C102.268 192.063 102.268 192.063 103.118 192.408C106.119 193.618 109.135 194.762 112.18 195.856C113.508 196.348 114.788 196.909 116.066 197.518C119.005 198.876 121.703 200.046 124.912 200.55C126.783 200.887 127.956 201.427 129.486 202.552C131.162 203.779 132.514 204.312 134.545 204.736C136.738 205.207 138.319 205.867 140.21 207.071C144.174 209.559 148.625 210.855 153.054 212.287C153.93 210.522 154.796 208.751 155.659 206.98C155.905 206.484 156.152 205.988 156.405 205.478C157.648 202.916 158.647 200.542 159.168 197.738C159.456 196.231 159.943 194.811 160.446 193.363C160.628 192.823 160.81 192.282 160.998 191.725C161.643 190.273 162.27 189.212 163.174 187.933C164.922 185.392 165.928 182.699 166.959 179.807C167.141 179.312 167.324 178.817 167.512 178.307C168.349 176.016 169.13 173.726 169.802 171.382C170.407 169.314 171.187 167.502 172.169 165.584C172.448 165.031 172.728 164.478 173.015 163.908C173.896 162.308 173.896 162.308 174.857 160.911C176.041 159.076 176.856 157.198 177.682 155.181C177.849 154.782 178.015 154.382 178.186 153.97C179.514 150.747 180.735 147.487 181.882 144.195C182.543 142.332 183.277 140.575 184.188 138.82C185.921 135.432 187.294 131.892 188.711 128.362C189.192 127.163 189.677 125.964 190.162 124.766C192.274 119.537 194.333 114.329 195.888 108.902C196.723 106.089 197.801 103.832 199.421 101.37C200.387 99.6237 200.697 97.8098 201.112 95.8713C201.702 93.7246 202.736 91.8837 203.776 89.9253C204.537 88.331 204.884 86.8407 205.194 85.1128C205.486 83.8022 206.055 82.8267 206.854 81.7598C207.174 81.5997 207.494 81.4396 207.824 81.2746C207.844 80.3043 207.844 79.3335 207.824 78.3632C207.25 77.6781 207.25 77.6781 205.612 77.8173C199.834 77.2351 194.244 73.5877 189.481 70.5066C187.678 69.3949 186.065 68.9331 184.002 68.5392C180.679 67.6597 177.53 66.1372 174.38 64.7767C173.941 64.5891 173.502 64.4014 173.049 64.2081C171.229 63.4153 169.473 62.5484 167.716 61.6227C165.333 60.4019 162.897 59.6809 160.315 58.9975C158.722 58.4145 157.76 57.5838 156.447 56.5278C155.249 56.1315 155.249 56.1315 154.023 55.9819C151.518 55.5477 149.814 55.2253 147.965 53.3738C146.496 52.069 145.228 51.9434 143.3 51.7361C140.233 51.3692 138.358 50.35 135.789 48.6996C133.491 47.4281 131.089 46.6915 128.574 45.9584C125.936 45.1611 123.826 43.9998 121.549 42.4561C119.764 41.2661 118.563 40.834 116.43 40.6365C113.456 40.2048 111.393 39.0762 108.874 37.4844C107.036 36.3509 105.12 35.5184 103.131 34.6924C103.348 34.2237 103.348 34.2237 103.569 33.7455C105.426 29.6942 107.149 25.5921 108.854 21.4746C109.969 18.8093 111.122 16.1663 112.365 13.5583C112.693 12.8688 112.693 12.8688 113.028 12.1654C115.175 8.6656 118.483 6.7135 122.519 7.0342Z" fill="#51CB5A"/>
<path d="M115.875 63.4747C117.715 64.3373 119.454 65.3659 121.211 66.3841C122.684 67.2181 124.161 68.0437 125.639 68.8691C125.998 69.0725 126.356 69.276 126.726 69.4855C131.439 72.1282 136.123 73.7897 141.333 75.1992C144.252 76.0381 146.431 77.1104 148.894 78.877C150.128 79.6612 151.057 79.7575 152.505 79.6882C155.207 79.7929 156.36 80.6939 158.358 82.4271C161.651 85.0118 165.517 86.34 169.612 86.935C171.801 87.3515 173.907 87.9774 176.036 88.6283C176.646 88.8065 176.646 88.8065 177.269 88.9882C180.152 89.8894 180.152 89.8894 181.389 91.1399C182.042 92.4505 182.124 93.0481 181.859 94.5076C181.335 95.4266 180.749 96.2912 180.159 97.1688C178.956 99.1864 178.137 101.368 177.263 103.542C176.522 105.175 176.522 105.175 175.477 106.687C174.547 108.137 174.36 108.823 174.338 110.509C174.187 112.816 173.603 113.994 172.155 115.843C170.615 117.912 169.649 119.631 169.274 122.207C168.688 126.214 166.967 129.923 164.938 133.405C163.576 135.745 162.509 138.217 161.421 140.693C161.206 141.165 160.991 141.637 160.77 142.123C159.536 144.929 158.729 147.518 158.335 150.563C157.982 152.199 157.143 153.299 156.19 154.645C155.564 155.776 155.47 156.624 155.386 157.907C155.287 159.418 155.218 159.9 154.355 161.21C152.881 162.126 152.042 162.065 150.322 161.907C149.007 161.233 149.007 161.233 147.714 160.331C144.247 157.939 140.845 156.419 136.828 155.21C133.65 154.21 131.15 152.991 128.408 151.075C126.144 149.749 123.682 149.141 121.175 148.415C117.538 147.357 114.139 145.792 110.78 144.057C104.257 140.76 97.4186 138.367 90.4098 136.333C89.9622 136.203 89.5146 136.073 89.0534 135.939C88.6578 135.827 88.2622 135.714 87.8547 135.598C85.0458 134.671 85.0458 134.671 84.1865 133.117C83.6682 131.139 84.2941 129.895 85.2781 128.177C86.3193 126.178 86.6509 124.279 86.9156 122.053C87.2729 120.595 87.8942 119.477 88.6665 118.196C89.5427 116.691 90.2255 115.105 90.9183 113.509C91.0674 113.168 91.2165 112.828 91.3702 112.476C92.1464 110.67 92.8265 108.894 93.3442 106.993C94.3347 103.386 96.1458 100.047 98.1959 96.932C100.132 93.9194 101.833 90.517 102.017 86.9009C102.116 85.1429 102.578 84.2562 103.635 82.8608C105.422 80.2831 106.312 77.6044 107.232 74.6272C107.392 74.1284 107.552 73.6296 107.717 73.1157C108.314 71.2488 108.902 69.379 109.491 67.5094C109.617 67.1193 109.743 66.7292 109.872 66.3272C109.981 65.9867 110.089 65.6461 110.201 65.2952C110.538 64.4445 110.538 64.4445 111.387 63.4141C113.027 62.7767 114.249 62.9373 115.875 63.4747Z" fill="#86DA8C"/>
<path d="M436.561 0C439.264 0.275475 439.264 0.275475 439.959 0.969673C440.637 1.01971 441.317 1.03682 441.996 1.0401C442.429 1.04319 442.862 1.04629 443.307 1.04948C444.014 1.05028 444.014 1.05028 444.734 1.05111C445.215 1.05272 445.696 1.05434 446.191 1.056C447.21 1.05846 448.23 1.05959 449.249 1.05951C450.811 1.06057 452.373 1.06937 453.935 1.07857C454.924 1.07999 455.912 1.08096 456.901 1.08141C457.604 1.08664 457.604 1.08664 458.322 1.09197C458.975 1.08973 458.975 1.08973 459.642 1.08745C460.025 1.08814 460.409 1.08883 460.804 1.08954C461.955 1.0281 461.955 1.0281 463.261 0C464.397 0.139617 465.529 0.306087 466.66 0.484836C468.654 0.535177 470.649 0.473144 472.643 0.423285C473.039 0.417972 473.435 0.41266 473.843 0.407187C474.379 0.394941 474.379 0.394941 474.925 0.382448C475.883 0.484836 475.883 0.484836 477.34 1.45451C477.48 1.9745 477.62 2.49448 477.765 3.03023C478.289 4.7759 478.874 5.65167 480.076 6.98657C481.755 8.94177 483.034 11.0986 483.833 13.5451C484.373 15.0932 485.065 16.1604 486.109 17.4238C487.814 19.5169 489.237 21.7232 490.63 24.0297C490.844 24.3731 491.058 24.7165 491.278 25.0703C492.685 27.4399 493.102 29.2681 493.36 31.9992C494.276 32.7402 494.276 32.7402 495.302 32.9689C495.788 33.4537 495.788 33.4537 496 34.484C495.719 36.3305 494.852 37.106 493.614 38.4555C492.205 40.0107 491.438 41.6108 490.781 43.5747C490.261 45.0327 489.712 45.9313 488.627 47.0291C486.773 49.0189 485.915 51.3925 484.881 53.866C484.032 55.8863 483.133 57.7178 481.897 59.5345C480.712 61.4178 479.728 63.4189 478.725 65.4038C477.9 66.9971 477.408 67.832 475.883 68.8468C474.604 68.8296 473.376 68.7569 472.104 68.646C467.913 68.3537 463.761 68.3673 459.562 68.4718C458.627 68.4937 458.627 68.4937 457.674 68.5161C455.08 68.5793 452.487 68.647 449.894 68.7227C447.979 68.7782 446.064 68.8219 444.148 68.8657C443.56 68.8853 442.973 68.905 442.368 68.9252C441.824 68.9366 441.28 68.948 440.72 68.9597C440.244 68.973 439.767 68.9863 439.276 69C437.785 68.8185 437.145 68.4301 436.075 67.3922C435.935 66.9523 435.795 66.5123 435.65 66.0589C435.123 64.5367 434.772 64.0328 433.709 62.9075C432.514 61.5962 431.86 60.4507 431.251 58.7864C429.97 55.2891 427.98 52.1025 425.486 49.3321C424.424 47.9988 424.424 47.9988 423.969 46.3625C423.387 44.3811 422.519 43.2803 421.248 41.6921C420.245 40.3231 419.713 38.9029 419.084 37.3324C418.764 37.0124 418.443 36.6924 418.113 36.3627C417.575 32.6658 419.028 30.2045 421.026 27.1508C421.448 26.6251 421.881 26.1078 422.331 25.6054C423.337 24.3835 423.696 23.7413 424.181 22.3025C424.855 20.3068 425.944 19.0445 427.337 17.4541C428.623 15.6616 429.635 14.0479 430.219 11.9088C430.807 9.93951 431.735 8.65244 432.908 6.98846C433.913 5.39788 434.542 3.73758 435.173 1.97154C435.59 0.969673 435.59 0.969673 436.561 0Z" fill="#52CB5B"/>
<path d="M122.45 7.03404C123.139 7.31086 123.818 7.61511 124.486 7.93965C126.194 8.76635 127.615 9.11821 129.5 9.32826C132.55 9.75819 134.969 10.9123 137.691 12.2641C140.526 13.6572 143.395 14.7263 146.418 15.6473C148.193 16.2179 149.206 16.7041 150.673 17.9278C152.324 19.2837 153.496 19.6039 155.575 20.0447C158.622 20.7458 161.159 21.8294 163.923 23.3105C165.168 23.9046 166.165 24.1802 167.519 24.3916C169.356 24.7062 170.326 25.3692 171.743 26.5651C173.75 28.2466 175.44 28.7831 177.973 29.3423C179.478 29.7741 180.616 30.4103 181.954 31.2139C183.976 32.3874 185.585 32.8551 187.911 33.1157C190.616 33.4226 192.077 34.1335 194.205 35.7655C195.523 36.5807 196.575 36.8357 198.094 37.1324C201.306 37.8778 203.913 39.21 206.753 40.8435C207.668 41.3571 208.584 41.8703 209.499 42.3831C210.131 42.7417 210.131 42.7417 210.775 43.1075C211.705 43.6227 212.657 44.097 213.615 44.5584C215.489 45.5278 216.879 46.9444 217.572 48.9827C218.385 53.6094 218.156 59.8739 215.87 64.0574C214.837 65.4762 214.837 65.4762 213.883 66.361C211.472 68.9073 210.304 72.5247 210.309 75.9813C210.347 76.6663 210.392 77.3513 210.461 78.034C209.498 78.5122 209.498 78.5122 208.516 79C208.195 78.5218 207.874 78.0437 207.543 77.551C206.961 77.5112 206.38 77.4713 205.78 77.4303C200.011 76.9767 194.361 73.2519 189.628 70.2137C187.819 69.1071 186.201 68.6474 184.131 68.2553C180.798 67.3799 177.638 65.8644 174.478 64.5102C174.038 64.3234 173.597 64.1366 173.143 63.9442C171.316 63.1551 169.555 62.2922 167.792 61.3708C165.402 60.1556 162.958 59.4379 160.368 58.7577C158.77 58.1774 157.804 57.3504 156.487 56.2993C155.285 55.9049 155.285 55.9049 154.056 55.756C151.542 55.3238 149.833 55.0029 147.978 53.1599C146.504 51.8611 145.232 51.7361 143.298 51.5298C140.221 51.1645 138.34 50.15 135.763 48.5073C133.457 47.2416 131.047 46.5084 128.525 45.7787C125.878 44.985 123.761 43.8292 121.477 42.2925C119.686 41.108 118.481 40.6779 116.341 40.4813C113.358 40.0517 111.288 38.9282 108.761 37.3437C106.917 36.2155 104.995 35.3868 103 34.5646C103.145 34.2536 103.29 33.9426 103.439 33.6221C105.302 29.5895 107.03 25.5063 108.741 21.4078C109.86 18.7549 111.016 16.124 112.263 13.528C112.483 13.0705 112.703 12.613 112.929 12.1415C115.082 8.65791 118.401 6.71483 122.45 7.03404Z" fill="#10362B"/>
<path d="M329.956 29.1531C333.524 30.5003 336.74 32.414 339.969 34.4247C341.522 35.3895 343.036 36.2589 344.717 36.9833C346.764 37.9512 347.986 39.6084 349.411 41.3343C350.536 42.6054 351.816 43.4132 353.234 44.3241C354.368 45.5666 355.115 46.6408 355.81 48.1781C356.573 49.6024 357.104 50.1937 358.265 51.2367C360.197 53.0748 360.965 55.1098 361.848 57.6026C362.499 59.1237 363.347 60.1815 364.388 61.4527C365.308 64.2393 364.935 67.3429 364.873 70.2616C364.867 70.607 364.861 70.9524 364.854 71.3083C364.688 78.778 364.688 78.778 362.448 82.0069C361.412 82.5919 361.412 82.5919 360.508 82.9857C360.708 81.5722 360.92 80.6467 361.727 79.4575C363.06 76.9334 362.699 73.9984 362.691 71.1955C362.691 70.0845 362.711 68.9752 362.732 67.8644C362.763 64.0509 362.711 61.4254 360.023 58.5164C359.499 57.2489 359.499 57.2489 359.144 56.1C358.259 53.6898 356.973 52.3666 355.113 50.6556C354.188 49.6908 353.749 48.9145 353.234 47.6887C352.356 45.6776 351.127 44.7998 349.351 43.5881C348.373 42.8474 347.774 42.1298 347.051 41.1431C345.474 39.1942 343.585 38.3582 341.351 37.314C339.053 36.2025 336.862 34.9237 334.658 33.6353C330.557 31.2642 326.568 29.5661 321.712 30.1319C320.579 30.6187 319.448 31.1083 318.317 31.6001C317.6 31.6001 316.883 31.5888 316.165 31.5695C312.08 31.8739 308.548 35.2013 305.709 37.9621C304.475 39.5222 303.868 40.9596 303.284 42.856C303.061 43.498 302.838 44.1396 302.613 44.781C300.78 50.2238 300.817 54.4742 301.708 60.1375C301.784 60.6645 301.86 61.1916 301.939 61.7346C302.414 64.7799 303.112 67.4716 304.353 70.2926C304.739 71.2404 304.739 71.2404 304.739 72.2192C304.986 72.1416 305.234 72.064 305.489 71.9841C309.152 71.2012 313.453 71.0548 316.686 73.0947C318.712 74.1421 320.938 74.6423 323.13 75.2343C325.967 76.0237 328.243 76.7973 329.774 79.4988C330.413 80.6237 331.01 81.6256 331.805 82.6493C332.761 84.8319 332.681 87.0057 332.381 89.3477C331.521 91.2915 330.802 92.0468 329.047 93.2017C325.954 94.3116 322.046 94.4955 319.001 93.2303C317.877 92.4987 316.897 91.7073 315.893 90.8159C315.53 90.5207 315.167 90.2254 314.794 89.9212C310.906 86.6382 307.717 83.2479 306.51 78.1932C306.08 76.7263 305.297 75.7552 304.254 74.6661C303.256 74.8879 302.259 75.1124 301.264 75.3467C300.293 75.5573 299.314 75.7324 298.332 75.882C294.739 76.5073 292.746 77.3663 290.505 80.3113C287.07 85.4943 285.814 89.9208 286.31 96.1992C287.304 99.5814 290.14 101.719 293.107 103.379C294.096 103.876 295.09 104.361 296.091 104.832C297.464 105.498 297.464 105.498 298.73 106.279C302.171 108.317 306.208 108.063 310.073 107.944C310.233 108.429 310.393 108.913 310.558 109.413C306.007 110.598 301.302 109.962 297.154 107.751C296.335 107.251 295.524 106.739 294.719 106.216C293.694 105.566 292.686 105.052 291.584 104.549C288.838 103.195 286.593 101.264 284.886 98.7073C283.147 93.5449 284.152 88.3508 286.31 83.4139C288.216 79.9528 290.916 76.1298 294.587 74.4922C296.032 74.1252 297.442 73.8833 298.919 73.6874C299.77 73.5014 300.619 73.3084 301.465 73.1062C302.365 72.9094 302.365 72.9094 303.284 72.7086C303.159 72.4669 303.035 72.2253 302.906 71.9763C301.313 68.6612 300.639 65.3407 300.01 61.728C299.903 61.1586 299.797 60.5893 299.686 60.0027C298.521 53.5138 299.014 48.9944 301.344 42.856C301.623 42.0904 301.623 42.0904 301.909 41.3094C303.231 38.0101 304.839 36.1476 307.648 34.047C308.06 33.6969 308.472 33.3468 308.897 32.986C311.665 30.7345 313.578 29.7724 317.141 29.7113C318.424 29.7147 318.424 29.7147 319.833 28.8778C322.955 27.3026 326.738 28.1315 329.956 29.1531Z" fill="#1E4437"/>
<path d="M469 7.07309C468.791 8.81782 467.86 9.72247 466.683 11.0047C465.942 11.8674 465.942 11.8674 465.335 13.4518C464.602 15.0685 464.602 15.0685 463.491 16.0808C461.808 17.7727 460.79 19.5956 459.655 21.653C459.237 22.3978 458.818 23.1425 458.399 23.887C458.205 24.2352 458.011 24.5834 457.811 24.9421C457.369 25.7175 456.894 26.476 456.412 27.2288C455.658 28.4851 455.491 29.6293 455.318 31.0594C453.442 31.5672 451.935 31.4248 450.022 31.1765C447.323 30.8771 444.582 30.9719 441.868 30.9722C440.758 30.9712 439.649 30.9626 438.539 30.9537C434.598 30.9396 430.831 31.113 426.977 32C426.655 31.3792 426.332 30.7584 426 30.1187C426.544 29.7986 426.544 29.7986 427.099 29.472C428.725 27.9785 429.145 26.6487 429.896 24.6494C430.398 23.5343 430.398 23.5343 431.589 22.4173C433.22 20.8086 433.794 19.1219 434.637 17.0472C435.637 14.7167 436.906 12.5455 438.216 10.3653C438.467 9.94761 438.717 9.52989 438.976 9.09951C439.682 8.01373 439.682 8.01373 440.659 7.07309C442.018 7.01694 442.018 7.01694 443.73 7.10065C444.342 7.12702 444.954 7.1534 445.585 7.18057C446.548 7.22922 446.548 7.22922 447.531 7.27886C448.798 7.33913 450.067 7.39742 451.335 7.45339C452.181 7.49562 452.181 7.49562 453.045 7.5387C453.686 7.54103 453.686 7.54103 454.341 7.54341C454.502 7.38821 454.663 7.233 454.83 7.07309C455.653 7.03781 456.477 7.03397 457.301 7.0437C457.802 7.04734 458.304 7.05097 458.82 7.05472C459.884 7.06695 460.947 7.0792 462.011 7.09146C462.513 7.0951 463.015 7.09874 463.531 7.10249C464.225 7.11067 464.225 7.11067 464.933 7.11902C468.64 6.96902 468.64 6.96902 469 7.07309Z" fill="#A6E4AA"/>
<path d="M473.572 10C474.229 10.1617 474.885 10.3234 475.562 10.49C475.675 10.9953 475.788 11.5006 475.904 12.0213C476.338 13.5544 476.692 14.0748 477.802 15.3594C479.06 16.8765 479.304 17.8004 479.688 19.6737C480.295 21.5727 481.476 23.1152 482.596 24.7574C483.52 26.1625 484.303 27.5917 485.081 29.0794C486.126 31.0166 487.06 32.3402 489 33.52C488.776 35.9482 488.278 36.7749 486.512 38.42C485.021 40.3875 483.646 42.3821 482.717 44.6675C482.014 46.3019 481.182 47.349 480.042 48.71C477.913 51.8877 476.795 55.4153 475.562 59C474.741 58.8383 473.92 58.6766 473.074 58.51C472.961 57.9238 472.848 57.3377 472.732 56.7338C472.192 54.5577 471.062 53.3525 469.59 51.65C469.444 51.1131 469.297 50.5762 469.147 50.023C468.547 48.0658 467.774 46.956 466.479 45.3719C464.7 43.129 463.149 40.874 461.722 38.4009C461.142 37.3751 461.142 37.3751 460.134 36.46C459.911 34.5245 459.831 33.4448 461.005 31.8356C461.559 31.2141 461.559 31.2141 462.125 30.58C462.461 29.9342 462.782 29.28 463.089 28.62C463.77 27.1984 464.225 26.5573 465.422 25.435C466.733 24.0766 466.914 23.1292 467.273 21.3274C467.885 19.3825 469.304 17.9335 470.585 16.37C471.968 14.3537 472.747 12.2814 473.572 10Z" fill="#A7E4AB"/>
<path d="M427.483 37.1204C427.873 37.1381 428.262 37.1557 428.664 37.1738C430.422 37.2518 432.181 37.3256 433.94 37.3994C434.553 37.4272 435.167 37.455 435.799 37.4836C436.676 37.5196 436.676 37.5196 437.572 37.5562C438.383 37.5913 438.383 37.5913 439.211 37.6271C440.502 37.7148 440.502 37.7148 441.483 37.1204C443.733 36.999 445.988 37.0286 448.241 37.0275C448.874 37.0214 449.506 37.0153 450.157 37.0091C451.061 37.0076 451.061 37.0076 451.983 37.0062C452.538 37.0041 453.093 37.0021 453.665 37C455 37.1204 455 37.1204 455.966 38.1121C456.095 38.5519 456.224 38.9916 456.358 39.4447C456.856 40.8717 457.235 41.5753 458.108 42.7296C459.026 43.982 459.526 44.999 459.918 46.5103C460.728 49.3446 462.333 51.6904 463.893 54.1414C464.781 55.5432 465.568 56.8183 466.173 58.3775C466.75 59.8521 467.652 60.2282 469 60.9205C468.841 61.575 468.681 62.2295 468.517 62.9039C468.089 62.8323 467.661 62.7607 467.22 62.687C466.526 62.5906 465.832 62.4981 465.138 62.408C464.748 62.355 464.359 62.3019 463.957 62.2473C456.785 61.4745 449.201 61.8777 442.085 63C441 62.9039 441 62.9039 440.157 62.0098C439.552 60.9205 439.552 60.9205 439.099 59.464C438.67 57.9138 438.67 57.9138 437.651 56.7679C436.628 55.4305 436.239 54.231 435.709 52.6405C434.856 50.7013 433.553 49.0975 432.307 47.409C431.201 45.8419 430.333 44.2186 429.463 42.5068C428.924 41.4733 428.924 41.4733 427.784 40.4673C427.526 40.181 427.267 39.8946 427 39.5996C427.192 38.3058 427.192 38.3058 427.483 37.1204Z" fill="#A7E4AB"/>
<path d="M293.733 186.043C294.198 186.029 294.663 186.015 295.142 186.001C298.97 185.968 301.029 186.736 303.903 189.214C304.293 189.625 304.683 190.036 305.084 190.459C305.512 190.848 305.939 191.236 306.379 191.637C308.148 193.678 307.974 195.92 307.946 198.461C307.973 199.141 307.973 199.141 308 199.834C308 202.927 307.305 204.543 305.032 206.753C301.462 209.697 297.708 211.128 292.946 210.991C287.99 210.453 284.805 207.794 281.698 204.211C281.017 202.265 281.069 200.441 281.045 198.402C281.03 198.006 281.016 197.611 281.001 197.203C280.965 193.782 281.807 191.84 284.33 189.321C284.713 189.012 285.097 188.703 285.492 188.384C285.878 188.068 286.264 187.751 286.662 187.425C288.857 185.769 291.03 186.069 293.733 186.043Z" fill="#11372C"/>
<path d="M353.737 181.781C355.556 183.589 356.752 185.159 356.996 187.799C357.02 195.167 357.02 195.167 354.211 198.342C350.51 202.145 347.517 203.781 342.257 204C339.749 203.934 338.294 203.633 336.4 201.839C335.797 201.327 335.797 201.327 335.181 200.804C332.398 197.442 330.966 193.618 331.001 189.237C331.39 185.693 332.786 182.268 335.449 179.922C341.681 176.79 348.15 177.539 353.737 181.781Z" fill="#12372D"/>
<path d="M303.778 74.1454C305.913 75.9699 306.761 78.6275 307.672 81.1864C308.261 82.6085 309.092 83.7631 310 85.0048C309.735 85.1159 309.47 85.2269 309.198 85.3414C306.833 86.3548 304.601 87.4674 302.393 88.7838C301.258 89.3365 301.258 89.3365 299.632 89.7464C297.583 90.3851 296.235 91.3058 294.55 92.5853C291.858 94.564 289.122 96.3603 286.203 98C284.406 94.1623 284.809 89.582 286.184 85.6478C287.084 83.6425 288.27 81.936 289.603 80.1918C289.841 79.8369 290.08 79.482 290.325 79.1164C292.718 75.8924 295.486 75.5436 299.316 74.8975C299.977 74.6987 300.636 74.4907 301.289 74.2657C302.715 73.9348 302.715 73.9348 303.778 74.1454Z" fill="#A7E3AB"/>
<path d="M310.046 73.0914C312.414 73.129 313.95 73.4595 315.934 74.6316C317.209 75.2776 318.447 75.5232 319.856 75.819C326.587 77.3646 326.587 77.3646 328.846 80.1043C330.497 82.7597 331.359 84.8524 330.858 87.9222C329.965 89.9365 328.906 90.739 326.88 91.71C323.851 92.1919 320.814 92.2184 318.147 90.6447C313.892 87.4938 308.719 83.2495 307.207 78.1864C306.673 76.5332 306.027 75.1609 305 73.718C306.134 72.6379 308.516 73.099 310.046 73.0914Z" fill="#F0F3F1"/>
<path d="M309.961 73.0944C312.288 73.1333 313.797 73.475 315.748 74.6849C317.01 75.3584 318.243 75.6277 319.636 75.9449C322.262 76.5496 324.591 77.4373 327 78.6369C326.511 79.6159 326.511 79.6159 325.489 80.0193C325.03 80.1587 324.571 80.2982 324.097 80.4418C321.313 81.3282 318.597 82.3408 315.878 83.4092C315.481 83.5649 315.085 83.7205 314.677 83.8809C313.732 84.2528 312.788 84.6262 311.844 85C309.282 82.4428 307.911 80.7063 306.839 77.2641C306.391 75.9706 305.766 74.8737 305 73.7422C306.115 72.6257 308.457 73.1024 309.961 73.0944Z" fill="#A5E1A9"/>
<path d="M358 53C358.905 53.068 358.905 53.068 359.963 53.4839C360.623 54.7162 360.623 54.7162 361.19 56.2661C361.991 58.433 362.889 59.9384 364.381 61.7097C365.312 64.4649 364.934 67.5335 364.871 70.4194C364.865 70.7609 364.859 71.1023 364.853 71.4542C364.684 78.8397 364.684 78.8397 362.417 82.0323C361.369 82.6106 361.369 82.6106 360.454 83C360.657 81.6024 360.871 80.6874 361.688 79.5115C363.036 77.0159 362.672 74.114 362.663 71.3427C362.663 70.2442 362.683 69.1474 362.705 68.0491C362.736 64.279 362.689 61.678 359.963 58.8065C359.294 57.4512 359.294 57.4512 358.828 56.2359C358.668 55.8286 358.508 55.4213 358.343 55.0016C358 53.9677 358 53.9677 358 53Z" fill="#244B3C"/>
<path d="M404.5 241C404.995 241 405.49 241 406 241C405.539 246.831 400.674 251.402 396.395 255.087C393.996 256.909 391.122 259 388 259C388 258.518 388 258.037 388 257.541C388.352 257.409 388.704 257.277 389.066 257.141C396.549 253.967 401.479 248.27 404.5 241Z" fill="#21433A"/>
<path d="M307.091 34C307.391 34.18 307.691 34.36 308 34.5455C307.352 36.4283 306.592 37.3281 305.216 38.5C304.887 38.7841 304.557 39.0681 304.218 39.3608C303.966 39.5717 303.714 39.7827 303.455 40C303.305 39.46 303.155 38.92 303 38.3636C304.35 36.9236 305.7 35.4836 307.091 34Z" fill="#183E31"/>
<path d="M196 74C198.021 74.2659 199.893 74.68 201.832 75.2589C202.329 75.4042 202.825 75.5495 203.337 75.6992C204.526 76.1429 204.526 76.1429 205 77C201.726 76.798 198.974 75.6258 196 74.4286C196 74.2871 196 74.1457 196 74Z" fill="#58BF63"/>
<path d="M354 49C355.8 49.2469 356.5 49.7773 357.625 51.0278C358.016 51.4549 358.016 51.4549 358.414 51.8906C358.607 52.1101 358.801 52.3295 359 52.5556C358.505 52.7022 358.01 52.8489 357.5 53C356.914 52.5028 356.331 52.0021 355.75 51.5C355.425 51.2216 355.1 50.9431 354.766 50.6563C354 49.8889 354 49.8889 354 49Z" fill="#153B2F"/>
<path d="M392 256C392.33 256.141 392.66 256.283 393 256.429C392.475 257.657 392.166 258.07 390.781 258.679C389.5 259 389.5 259 388 259C388 258.576 388 258.151 388 257.714C388.643 257.416 389.29 257.122 389.938 256.83C390.297 256.666 390.657 256.502 391.027 256.333C391.348 256.223 391.669 256.113 392 256Z" fill="#274940"/>
</svg>
