<?xml version="1.0" encoding="utf-8"?>
<!-- Generator: $$$/GeneralStr/196=Adobe Illustrator 27.6.0, SVG Export Plug-In . SVG Version: 6.00 Build 0)  -->
<svg version="1.1" id="Capa_1" xmlns="http://www.w3.org/2000/svg" xmlns:xlink="http://www.w3.org/1999/xlink" x="0px" y="0px"
	 viewBox="0 0 501.5 502.1" style="enable-background:new 0 0 501.5 502.1;" xml:space="preserve">
<style type="text/css">
	.st0{fill:#85DA8B;}
	.st1{fill:#BD9FE3;}
	.st2{clip-path:url(#SVGID_00000157298304823541244670000008197067533115565960_);}
	.st3{fill:#51CB59;}
	.st4{fill:#A8E6A5;}
	.st5{fill:#2F9AE6;}
	.st6{opacity:0.25;clip-path:url(#SVGID_00000157298304823541244670000008197067533115565960_);}
	.st7{fill:#FFFFFF;}
	.st8{fill:#10352B;}
	.st9{fill:#FA8181;}
	.st10{fill:#915FD0;}
	.st11{fill:#091E18;}
	.st12{fill:#BFE9F8;}
	.st13{clip-path:url(#SVGID_00000062158310907290632450000017545872795197619108_);}
	.st14{opacity:0.25;clip-path:url(#SVGID_00000102511907121864089340000005290581180809833101_);fill:#FFFFFF;}
	.st15{clip-path:url(#SVGID_00000057149970948943561080000002369145619361135240_);}
	.st16{fill:#00A8E3;}
	.st17{fill:#F3F5F4;}
	.st18{filter:url(#Adobe_OpacityMaskFilter);}
	.st19{fill:#020202;}
	.st20{mask:url(#SVGID_00000095307725732918333320000006406517625707199678_);}
	.st21{fill:#80D4F1;}
	.st22{filter:url(#Adobe_OpacityMaskFilter_00000152223700212894639330000004369819415398234541_);}
	.st23{mask:url(#SVGID_00000163068731262602263540000013856403212822659237_);}
	.st24{fill-rule:evenodd;clip-rule:evenodd;fill:#A8E6A5;}
	.st25{clip-path:url(#SVGID_00000183210861189265587790000017721025249634124976_);}
	.st26{fill:#F2D54C;}
	.st27{opacity:0.25;clip-path:url(#SVGID_00000124873203316756682910000015594740192471171501_);fill:#F3F5F4;}
	.st28{fill:#F0F0F0;}
	.st29{fill-rule:evenodd;clip-rule:evenodd;fill:#80D4F1;}
	.st30{fill:#DECFF1;}
	.st31{clip-path:url(#SVGID_00000041991171018631450790000013589315866479754925_);fill:#BD9FE3;}
	.st32{clip-path:url(#SVGID_00000041991171018631450790000013589315866479754925_);fill:#915FD0;}
	.st33{clip-path:url(#SVGID_00000041991171018631450790000013589315866479754925_);}
	.st34{fill:url(#SVGID_00000069395462247402449130000000600612070646181014_);}
	.st35{fill:url(#SVGID_00000067230291607177414580000012628966316424984245_);}
	.st36{fill:url(#SVGID_00000171711766516540963880000001780359353690516102_);}
	.st37{fill:url(#SVGID_00000053509706235176077810000008143969920943658121_);}
	.st38{fill:url(#SVGID_00000100374920048212458110000004447964374892617356_);}
	.st39{fill:url(#SVGID_00000132778911503455458130000002522294105056449724_);}
	.st40{fill:url(#SVGID_00000028321071711197699780000001675320628805780916_);}
	.st41{fill:url(#SVGID_00000031202519503758684870000003995073622411779235_);}
	.st42{fill:url(#SVGID_00000147183695255448700790000003658262513035697539_);}
	.st43{fill:url(#SVGID_00000183248675435234693540000002066691834826382740_);}
	.st44{fill:url(#SVGID_00000047029166530554873490000009367908227103677608_);}
	.st45{fill:url(#SVGID_00000165940486281937145920000014797964475756538761_);}
	.st46{fill:url(#SVGID_00000057125339042060120140000007822567256277880966_);}
	.st47{fill-rule:evenodd;clip-rule:evenodd;fill:#DECFF1;}
	.st48{clip-path:url(#SVGID_00000018929334699435642020000009281562307576100017_);}
	.st49{fill:#3B5A51;}
	.st50{fill:#E3E3E3;}
	.st51{fill:#617A73;}
	.st52{fill:#405E55;}
	.st53{fill:none;stroke:#51CB59;stroke-width:3;stroke-miterlimit:10;}
	.st54{fill:none;stroke:#A8E6A5;stroke-width:3;stroke-miterlimit:10;}
</style>
<g>
	<path class="st11" d="M48.2,501c3.5,2.8,5.6-0.3,10-0.8c4.5-0.5,4.3-2.1,8.7-2.6c4.5-0.5,4.6,0.6,9,0.2c4.5-0.5,4.2-2.5,8.7-3
		c4.5-0.5,4.6,0.5,9,0c4.5-0.5,4.6,1.2,9.1,0.7c4.5-0.5,4.4-1.2,8.8-1.7c4.5-0.5,4.5-0.4,8.9-0.8c4.5-0.5,4.2-2.9,8.7-3.4
		c4.5-0.5,4.7,1.3,9.1,0.8c4.5-0.5,4.3-2.1,8.8-2.6c4.5-0.5,4.6,0.5,9,0c4.5-0.5,4.3-1.9,8.8-2.3c4.5-0.5,4.5,0.3,9-0.2
		c4.5-0.5,4.7,1.9,9.2,1.4c4.5-0.5,4.3-1.8,8.8-2.3c4.5-0.5,4.4-0.8,8.9-1.3c4.5-0.5,4.6,1.2,9.1,0.7c4.5-0.5,4.4-0.8,8.9-1.3
		c4.5-0.5,4.2-3,8.7-3.4c4.5-0.5,4.7,2,9.2,1.5c4.5-0.5,4.3-1.9,8.8-2.4c4.5-0.5,4.6,0.8,9.1,0.3c4.5-0.5,4.3-2.3,8.7-2.8
		c4.5-0.5,4.4-0.9,8.9-1.3c4.5-0.5,4.6,1.1,9.1,0.6c4.5-0.5,4.3-2.2,8.7-2.7c4.5-0.5,4.6,1.2,9.1,0.7c4.5-0.5,4.4-1.2,8.8-1.7
		c4.5-0.5,4.4-0.7,8.9-1.2c4.5-0.5,4.5-0.4,8.9-0.9c4.5-0.5,4.5-0.1,9-0.5c4.5-0.5,4.3-2.3,8.7-2.8c4.5-0.5,4.7,1.3,9.1,0.8
		c4.5-0.5,4.5-0.3,8.9-0.8c4.5-0.5,4.3-2.1,8.8-2.6c4.5-0.5,4.5-0.2,9-0.7c4.5-0.5,4.6,0.7,9.1,0.2c4.5-0.5,4.4-1.2,8.8-1.7
		c4.5-0.5,4.7,1.2,9.1,0.8c4.5-0.5,4.5-0.1,9-0.6c4.5-0.5,4.4-1.4,8.8-1.8c4.5-0.5,4.3-1.9,8.8-2.4c4.5-0.5,4.5-0.3,8.9-0.8
		c4.5-0.5,4.6,1,9.1,0.5c4.5-0.5,4.4-1.4,8.8-1.9c4.5-0.5,4.4-1.2,8.8-1.7c4.5-0.5,4.6,0.6,9.1,0.2c4.5-0.5,7,3.1,9.8-0.4
		c2.8-3.5-1.1-5.2-1.6-9.7c-0.5-4.5-0.3-4.5-0.8-8.9c-0.5-4.5-1.1-4.4-1.6-8.9c-0.5-4.5,0.5-4.6,0-9c-0.5-4.5-1-4.4-1.5-8.9
		c-0.5-4.5-0.9-4.4-1.4-8.9c-0.5-4.5-0.7-4.4-1.2-8.9c-0.5-4.5-1.2-4.4-1.7-8.8c-0.5-4.5,1.5-4.7,1.1-9.1c-0.5-4.5-0.5-4.5-1-8.9
		c-0.5-4.5-3.1-4.2-3.6-8.6c-0.5-4.5,0.4-4.6-0.1-9c-0.5-4.5,0.2-4.5-0.3-9c-0.5-4.5-1.2-4.4-1.7-8.8c-0.5-4.5,1.4-4.7,0.9-9.1
		c-0.5-4.5-2.2-4.3-2.6-8.7c-0.5-4.5,0-4.5-0.5-9c-0.5-4.5,0.1-4.5-0.4-9c-0.5-4.5-1.7-4.3-2.2-8.8c-0.5-4.5-0.1-4.5-0.6-9
		c-0.5-4.5-1-4.4-1.5-8.9c-0.5-4.5,1.9-4.7,1.4-9.2c-0.5-4.5-3.5-4.1-4-8.6c-0.5-4.5,2-4.7,1.5-9.2c-0.5-4.5,0.2-4.5-0.3-9
		c-0.5-4.5-3.3-4.2-3.8-8.6c-0.5-4.5,1.1-4.6,0.7-9.1c-0.5-4.5,0.2-4.5-0.3-9c-0.5-4.5-1.9-4.3-2.4-8.8c-0.5-4.5,0.6-4.6,0.1-9
		c-0.5-4.5-1.2-4.4-1.6-8.9c-0.5-4.5-1.6-4.3-2.1-8.8c-0.5-4.5-1.1-4.4-1.6-8.9c-0.5-4.5,0.2-4.5-0.3-9c-0.5-4.5-1.1-4.4-1.5-8.9
		c-0.5-4.5,1.6-4.7,1.1-9.2c-0.5-4.5-1.2-4.4-1.7-8.8c-0.5-4.5-1.4-4.4-1.9-8.8c-0.5-4.5,1.2-4.6,0.7-9.1c-0.5-4.5,0-4.5-0.5-9
		c-0.5-4.5-2.7-4.2-3.2-8.7c-0.5-4.5,1-4.6,0.5-9.1c-0.5-4.5-1.7-4.3-2.2-8.8c-0.5-4.5,1.7-4.7,1.2-9.2c-0.5-4.5-2.6-4.2-3.1-8.7
		c-0.5-4.5,1-4.6,0.5-9.1c-0.5-4.5-2.7-4.2-3.2-8.7c-0.5-4.5,2.6-4.8,2.1-9.3c-0.5-4.5,1.6-6.7-1.9-9.5c-3.5-2.8-5.1,0.6-9.6,1.1
		c-4.5,0.5-4.5,0.1-9,0.6c-4.5,0.5-4.3,1.6-8.8,2.1c-4.5,0.5-4.3,1.6-8.8,2c-4.5,0.5-4.4,1-8.9,1.5c-4.5,0.5-4.7-2.1-9.2-1.6
		c-4.5,0.5-4.5-0.2-9,0.3c-4.5,0.5-4.4,0.7-8.9,1.2c-4.5,0.5-4.1,3.4-8.6,3.9c-4.5,0.5-4.8-2.6-9.3-2.1c-4.5,0.5-4.5,0.4-8.9,0.9
		c-4.5,0.5-4.3,1.8-8.8,2.2c-4.5,0.5-4.3,1.6-8.8,2.1c-4.5,0.5-4.6-0.3-9,0.2c-4.5,0.5-4.3,2.3-8.7,2.8c-4.5,0.5-4.6-1.1-9.1-0.6
		c-4.5,0.5-4.3,1.7-8.8,2.2c-4.5,0.5-4.7-1.4-9.1-0.9c-4.5,0.5-4.3,2-8.8,2.5c-4.5,0.5-4.6-0.9-9.1-0.4c-4.5,0.5-4.2,2.6-8.7,3.1
		c-4.5,0.5-4.7-2-9.2-1.5c-4.5,0.5-4.3,2-8.8,2.5c-4.5,0.5-4.6-0.4-9,0c-4.5,0.5-4.3,1.6-8.8,2.1c-4.5,0.5-4.4,1.2-8.8,1.6
		c-4.5,0.5-4.7-1.3-9.1-0.8c-4.5,0.5-4.3,1.8-8.8,2.3c-4.5,0.5-4.6-1.1-9.1-0.6c-4.5,0.5-4.3,1.9-8.8,2.4c-4.5,0.5-4.7-1.3-9.1-0.8
		c-4.5,0.5-4.4,1.4-8.8,1.9c-4.5,0.5-4.4,1.5-8.8,2c-4.5,0.5-4.5,0.4-8.9,0.9c-4.5,0.5-4.6-0.5-9,0c-4.5,0.5-4.5-0.1-9,0.3
		c-4.5,0.5-4.4,0.9-8.9,1.4c-4.5,0.5-4.3,1.7-8.8,2.2c-4.5,0.5-4.8-2.3-9.2-1.8c-4.5,0.5-4.4,1.4-8.8,1.9c-4.5,0.5-4.2,2.5-8.7,3
		c-4.5,0.5-4.5-0.3-9,0.2c-4.5,0.5-4.5-0.1-9,0.4c-4.5,0.5-4.6-0.5-9,0c-4.5,0.5-4.3,2.3-8.7,2.8c-4.5,0.5-4.6-0.8-9.1-0.3
		c-4.5,0.5-4.5-0.1-9,0.4c-4.5,0.5-4.5,0.3-9,0.8c-4.5,0.5-6.6-2-9.4,1.5c-2.8,3.5,1,4.9,1.5,9.4c0.5,4.5-0.1,4.5,0.4,9
		c0.5,4.5-0.4,4.6,0.1,9c0.5,4.5,2.4,4.3,2.9,8.7c0.5,4.5,1.3,4.4,1.8,8.8c0.5,4.5,1,4.4,1.4,8.9c0.5,4.5-0.7,4.6-0.2,9
		c0.5,4.5,1.5,4.4,2,8.8c0.5,4.5-1.2,4.6-0.7,9.1c0.5,4.5,1.5,4.3,2,8.8c0.5,4.5-2,4.7-1.5,9.2c0.5,4.5,2.3,4.3,2.8,8.7
		c0.5,4.5,1.4,4.4,1.9,8.8c0.5,4.5-0.9,4.6-0.4,9.1c0.5,4.5,2.1,4.3,2.6,8.8c0.5,4.5,0.2,4.5,0.6,9c0.5,4.5,0.5,4.5,1,8.9
		c0.5,4.5-1,4.6-0.5,9.1c0.5,4.5-0.3,4.5,0.2,9c0.5,4.5,2.6,4.2,3.1,8.7c0.5,4.5,1.1,4.4,1.6,8.9c0.5,4.5-2.2,4.8-1.7,9.2
		c0.5,4.5,0.6,4.5,1,8.9c0.5,4.5,0.4,4.5,0.8,8.9c0.5,4.5,0.3,4.5,0.8,8.9c0.5,4.5,0.8,4.4,1.3,8.9c0.5,4.5,1.8,4.3,2.3,8.8
		c0.5,4.5-1,4.6-0.5,9.1c0.5,4.5,1.9,4.3,2.4,8.8c0.5,4.5-0.7,4.6-0.2,9c0.5,4.5,1.7,4.3,2.2,8.8c0.5,4.5,2,4.3,2.5,8.8
		c0.5,4.5,0.3,4.5,0.8,8.9c0.5,4.5-1.4,4.7-1,9.1c0.5,4.5,1.9,4.3,2.4,8.8c0.5,4.5-1.8,4.7-1.3,9.2c0.5,4.5,2.3,4.3,2.8,8.7
		c0.5,4.5,0.8,4.4,1.3,8.9c0.5,4.5-0.3,4.6,0.2,9c0.5,4.5,1.6,4.3,2.1,8.8c0.5,4.5,0.3,4.5,0.8,8.9c0.5,4.5,0,4.5,0.5,9
		c0.5,4.5,0.6,4.5,1,8.9c0.5,4.5-0.5,4.6,0,9c0.5,4.5,0.3,4.5,0.7,9c0.5,4.5,1.3,4.4,1.8,8.8c0.5,4.5,1.9,4.3,2.4,8.8
		c0.5,4.5-0.8,4.5-1.4,9C46.6,496,44.7,498.1,48.2,501z"/>
	<path class="st12" d="M61.2,488c3.5,2.8,5.6-0.3,10-0.8c4.5-0.5,4.3-2.1,8.7-2.6c4.5-0.5,4.6,0.6,9,0.2c4.5-0.5,4.2-2.5,8.7-3
		c4.5-0.5,4.6,0.5,9,0c4.5-0.5,4.6,1.2,9.1,0.7c4.5-0.5,4.4-1.2,8.8-1.7c4.5-0.5,4.5-0.4,8.9-0.8c4.5-0.5,4.2-2.9,8.7-3.4
		c4.5-0.5,4.7,1.3,9.1,0.8c4.5-0.5,4.3-2.1,8.8-2.6c4.5-0.5,4.6,0.5,9,0c4.5-0.5,4.3-1.9,8.8-2.3c4.5-0.5,4.5,0.3,9-0.2
		c4.5-0.5,4.7,1.9,9.2,1.4c4.5-0.5,4.3-1.8,8.8-2.3c4.5-0.5,4.4-0.8,8.9-1.3c4.5-0.5,4.6,1.2,9.1,0.7c4.5-0.5,4.4-0.8,8.9-1.3
		c4.5-0.5,4.2-3,8.7-3.4c4.5-0.5,4.7,2,9.2,1.5c4.5-0.5,4.3-1.9,8.8-2.4c4.5-0.5,4.6,0.8,9.1,0.3c4.5-0.5,4.3-2.3,8.7-2.8
		c4.5-0.5,4.4-0.9,8.9-1.3c4.5-0.5,4.6,1.1,9.1,0.6c4.5-0.5,4.3-2.2,8.7-2.7c4.5-0.5,4.6,1.2,9.1,0.7c4.5-0.5,4.4-1.2,8.8-1.7
		c4.5-0.5,4.4-0.7,8.9-1.2c4.5-0.5,4.5-0.4,8.9-0.9c4.5-0.5,4.5-0.1,9-0.5c4.5-0.5,4.3-2.3,8.7-2.8c4.5-0.5,4.7,1.3,9.1,0.8
		c4.5-0.5,4.5-0.3,8.9-0.8c4.5-0.5,4.3-2.1,8.8-2.6c4.5-0.5,4.5-0.2,9-0.7c4.5-0.5,4.6,0.7,9.1,0.2c4.5-0.5,4.4-1.2,8.8-1.7
		c4.5-0.5,4.7,1.2,9.1,0.8c4.5-0.5,4.5-0.1,9-0.6c4.5-0.5,4.4-1.4,8.8-1.8c4.5-0.5,4.3-1.9,8.8-2.4c4.5-0.5,4.5-0.3,8.9-0.8
		c4.5-0.5,4.6,1,9.1,0.5c4.5-0.5,4.4-1.4,8.8-1.9c4.5-0.5,4.4-1.2,8.8-1.7c4.5-0.5,4.6,0.6,9.1,0.2c4.5-0.5,7,3.1,9.8-0.4
		c2.8-3.5-1.1-5.2-1.6-9.7c-0.5-4.5-0.3-4.5-0.8-8.9c-0.5-4.5-1.1-4.4-1.6-8.9c-0.5-4.5,0.5-4.6,0-9c-0.5-4.5-1-4.4-1.5-8.9
		c-0.5-4.5-0.9-4.4-1.4-8.9c-0.5-4.5-0.7-4.4-1.2-8.9c-0.5-4.5-1.2-4.4-1.7-8.8c-0.5-4.5,1.5-4.7,1.1-9.1c-0.5-4.5-0.5-4.5-1-8.9
		c-0.5-4.5-3.1-4.2-3.6-8.6c-0.5-4.5,0.4-4.6-0.1-9c-0.5-4.5,0.2-4.5-0.3-9c-0.5-4.5-1.2-4.4-1.7-8.8c-0.5-4.5,1.4-4.7,0.9-9.1
		c-0.5-4.5-2.2-4.3-2.6-8.7c-0.5-4.5,0-4.5-0.5-9c-0.5-4.5,0.1-4.5-0.4-9c-0.5-4.5-1.7-4.3-2.2-8.8c-0.5-4.5-0.1-4.5-0.6-9
		c-0.5-4.5-1-4.4-1.5-8.9c-0.5-4.5,1.9-4.7,1.4-9.2c-0.5-4.5-3.5-4.1-4-8.6c-0.5-4.5,2-4.7,1.5-9.2c-0.5-4.5,0.2-4.5-0.3-9
		c-0.5-4.5-3.3-4.2-3.8-8.6c-0.5-4.5,1.1-4.6,0.7-9.1c-0.5-4.5,0.2-4.5-0.3-9c-0.5-4.5-1.9-4.3-2.4-8.8c-0.5-4.5,0.6-4.6,0.1-9
		c-0.5-4.5-1.2-4.4-1.6-8.9c-0.5-4.5-1.6-4.3-2.1-8.8c-0.5-4.5-1.1-4.4-1.6-8.9c-0.5-4.5,0.2-4.5-0.3-9c-0.5-4.5-1.1-4.4-1.5-8.9
		c-0.5-4.5,1.6-4.7,1.1-9.2c-0.5-4.5-1.2-4.4-1.7-8.8c-0.5-4.5-1.4-4.4-1.9-8.8c-0.5-4.5,1.2-4.6,0.7-9.1c-0.5-4.5,0-4.5-0.5-9
		c-0.5-4.5-2.7-4.2-3.2-8.7c-0.5-4.5,1-4.6,0.5-9.1c-0.5-4.5-1.7-4.3-2.2-8.8c-0.5-4.5,1.7-4.7,1.2-9.2c-0.5-4.5-2.6-4.2-3.1-8.7
		c-0.5-4.5,1-4.6,0.5-9.1c-0.5-4.5-2.7-4.2-3.2-8.7c-0.5-4.5,2.6-4.8,2.1-9.3c-0.5-4.5,1.6-6.7-1.9-9.5c-3.5-2.8-5.1,0.6-9.6,1.1
		c-4.5,0.5-4.5,0.1-9,0.6c-4.5,0.5-4.3,1.6-8.8,2.1c-4.5,0.5-4.3,1.6-8.8,2c-4.5,0.5-4.4,1-8.9,1.5c-4.5,0.5-4.7-2.1-9.2-1.6
		c-4.5,0.5-4.5-0.2-9,0.3c-4.5,0.5-4.4,0.7-8.9,1.2c-4.5,0.5-4.1,3.4-8.6,3.9c-4.5,0.5-4.8-2.6-9.3-2.1c-4.5,0.5-4.5,0.4-8.9,0.9
		c-4.5,0.5-4.3,1.8-8.8,2.2c-4.5,0.5-4.3,1.6-8.8,2.1c-4.5,0.5-4.6-0.3-9,0.2c-4.5,0.5-4.3,2.3-8.7,2.8c-4.5,0.5-4.6-1.1-9.1-0.6
		c-4.5,0.5-4.3,1.7-8.8,2.2c-4.5,0.5-4.7-1.4-9.1-0.9c-4.5,0.5-4.3,2-8.8,2.5c-4.5,0.5-4.6-0.9-9.1-0.4c-4.5,0.5-4.2,2.6-8.7,3.1
		c-4.5,0.5-4.7-2-9.2-1.5c-4.5,0.5-4.3,2-8.8,2.5c-4.5,0.5-4.6-0.4-9,0c-4.5,0.5-4.3,1.6-8.8,2.1c-4.5,0.5-4.4,1.2-8.8,1.6
		c-4.5,0.5-4.7-1.3-9.1-0.8c-4.5,0.5-4.3,1.8-8.8,2.3c-4.5,0.5-4.6-1.1-9.1-0.6c-4.5,0.5-4.3,1.9-8.8,2.4c-4.5,0.5-4.7-1.3-9.1-0.8
		c-4.5,0.5-4.4,1.4-8.8,1.9c-4.5,0.5-4.4,1.5-8.8,2c-4.5,0.5-4.5,0.4-8.9,0.9c-4.5,0.5-4.6-0.5-9,0c-4.5,0.5-4.5-0.1-9,0.3
		c-4.5,0.5-4.4,0.9-8.9,1.4c-4.5,0.5-4.3,1.7-8.8,2.2c-4.5,0.5-4.8-2.3-9.2-1.8c-4.5,0.5-4.4,1.4-8.8,1.9c-4.5,0.5-4.2,2.5-8.7,3
		c-4.5,0.5-4.5-0.3-9,0.2c-4.5,0.5-4.5-0.1-9,0.4c-4.5,0.5-4.6-0.5-9,0c-4.5,0.5-4.3,2.3-8.7,2.8c-4.5,0.5-4.6-0.8-9.1-0.3
		c-4.5,0.5-4.5-0.1-9,0.4c-4.5,0.5-4.5,0.3-9,0.8c-4.5,0.5-6.6-2-9.4,1.5c-2.8,3.5,1,4.9,1.5,9.4c0.5,4.5-0.1,4.5,0.4,9
		c0.5,4.5-0.4,4.6,0.1,9c0.5,4.5,2.4,4.3,2.9,8.7c0.5,4.5,1.3,4.4,1.8,8.8c0.5,4.5,1,4.4,1.4,8.9c0.5,4.5-0.7,4.6-0.2,9
		c0.5,4.5,1.5,4.4,2,8.8c0.5,4.5-1.2,4.6-0.7,9.1c0.5,4.5,1.5,4.3,2,8.8c0.5,4.5-2,4.7-1.5,9.2c0.5,4.5,2.3,4.3,2.8,8.7
		c0.5,4.5,1.4,4.4,1.9,8.8c0.5,4.5-0.9,4.6-0.4,9.1c0.5,4.5,2.1,4.3,2.6,8.8c0.5,4.5,0.2,4.5,0.6,9c0.5,4.5,0.5,4.5,1,8.9
		c0.5,4.5-1,4.6-0.5,9.1c0.5,4.5-0.3,4.5,0.2,9c0.5,4.5,2.6,4.2,3.1,8.7c0.5,4.5,1.1,4.4,1.6,8.9c0.5,4.5-2.2,4.8-1.7,9.2
		c0.5,4.5,0.6,4.5,1,8.9c0.5,4.5,0.4,4.5,0.8,8.9c0.5,4.5,0.3,4.5,0.8,8.9c0.5,4.5,0.8,4.4,1.3,8.9c0.5,4.5,1.8,4.3,2.3,8.8
		c0.5,4.5-1,4.6-0.5,9.1c0.5,4.5,1.9,4.3,2.4,8.8c0.5,4.5-0.7,4.6-0.2,9c0.5,4.5,1.7,4.3,2.2,8.8c0.5,4.5,2,4.3,2.5,8.8
		c0.5,4.5,0.3,4.5,0.8,8.9c0.5,4.5-1.4,4.7-1,9.1c0.5,4.5,1.9,4.3,2.4,8.8c0.5,4.5-1.8,4.7-1.3,9.2c0.5,4.5,2.3,4.3,2.8,8.7
		c0.5,4.5,0.8,4.4,1.3,8.9c0.5,4.5-0.3,4.6,0.2,9c0.5,4.5,1.6,4.3,2.1,8.8c0.5,4.5,0.3,4.5,0.8,8.9c0.5,4.5,0,4.5,0.5,9
		c0.5,4.5,0.6,4.5,1,8.9c0.5,4.5-0.5,4.6,0,9c0.5,4.5,0.3,4.5,0.7,9c0.5,4.5,1.3,4.4,1.8,8.8c0.5,4.5,1.9,4.3,2.4,8.8
		c0.5,4.5-0.8,4.5-1.4,9C59.6,483,57.7,485.1,61.2,488z"/>
	<g>
		<g>
			<path class="st1" d="M313.9,61.9c4,0,7.8,0.3,11.4,1c4,0.8,7.9,1.5,11.1,2.9c3.8,1.7,6.2,5,8.6,7.4c2.9,3,6.6,6,6.6,9.7
				c0,3.7-2.1,8.3-5,11.3c-2.4,2.5-7.1,2.6-10.9,4.4c-3.2,1.5-6.3,4.2-10.3,5c-3.6,0.7-7.5-0.6-11.5-0.6c-4,0-7.5-0.7-11.1-1.4
				c-4-0.8-7.3-1.9-10.5-3.4c-3.8-1.7-8.1-2.1-10.5-4.6c-2.9-3-2.7-7-2.7-10.7c0-3.7,0.3-7.2,3.1-10.2c2.4-2.5,5.9-3.9,9.7-5.6
				c3.2-1.5,6.6-3.4,10.5-4.2C306.1,62.3,309.9,61.9,313.9,61.9z"/>
		</g>
		<g>
			<path class="st1" d="M313.9,222.1c4,0,7.7-1.2,11.3-0.5c4,0.8,7.8,1.3,11,2.8c3.8,1.7,8.1,3,10.4,5.5c2.9,3,2.5,7.6,2.5,11.3
				c0,3.7-0.5,7.4-3.4,10.5c-2.4,2.5-5.6,4.8-9.5,6.6c-3.2,1.5-7.4,0.8-11.3,1.6c-3.6,0.7-7.1,0.9-11.1,0.9c-4,0-7.8,1.3-11.4,0.6
				c-4-0.8-6.8-3.8-10-5.3c-3.8-1.7-8.7-1.3-11.1-3.8c-2.9-3-3-7.4-3-11.1c0-3.7-0.3-8.5,2.5-11.5c2.4-2.5,7-3.2,10.8-4.9
				c3.2-1.5,6.6-3.9,10.6-4.7C305.9,219.3,309.9,222.1,313.9,222.1z"/>
		</g>
		<g>
			<path class="st1" d="M227.9,112.4c2-3.4,2.2-8.1,4.6-10.8c2.6-3.1,6-5.6,8.9-7.6c3.4-2.4,7.6-3.2,10.9-4c4-1,7.3,0.6,10.5,2.5
				c3.2,1.8,5.3,4.1,6.5,8.1c1,3.3,2.8,7,2.3,11.2c-0.3,3.5-2.5,7-3.9,10.8c-1.2,3.4-0.8,8-2.7,11.4c-2,3.4-6.8,4.8-9.1,7.5
				c-2.6,3.1-5.2,5.4-8.1,7.5c-3.4,2.4-6.5,3.5-9.8,4.3c-4,1-6.8,1.3-10-0.5c-3.2-1.8-4.7-4.3-5.9-8.3c-1-3.3-3.7-6.9-3.3-11
				c0.3-3.5,2.9-7,4.2-10.8C224.2,119.1,225.9,115.8,227.9,112.4z"/>
		</g>
		<g>
			<path class="st1" d="M363.6,190.8c2-3.4,5-6,7.4-8.8c2.6-3.1,6.3-4.4,9.1-6.5c3.4-2.4,5.5-7,8.8-7.8c4-1,7.7,1.6,10.9,3.4
				c3.2,1.8,6.2,4.1,7.3,8.1c1,3.3,2.3,7.4,1.9,11.5c-0.3,3.5-4.1,6.6-5.4,10.4c-1.2,3.4,0.1,8.2-1.9,11.7c-2,3.4-5,6.3-7.4,9
				c-2.6,3.1-6.3,4.8-9.2,6.8c-3.4,2.4-6.8,3.6-10.2,4.4c-4,1-7.5,1.3-10.6-0.6c-3.2-1.8-5.3-4.8-6.4-8.8c-1-3.3-1.1-7-0.7-11.2
				c0.3-3.5,0.6-7.4,1.9-11.2C360.4,197.9,361.6,194.2,363.6,190.8z"/>
		</g>
		<g>
			<path class="st1" d="M227.8,171c3.2-1.8,6.2-1.3,10.3-0.3c3.3,0.8,7.3,0.7,10.8,3.1c2.9,2.1,4.5,5.8,7.1,8.9
				c2.4,2.7,6.8,4.3,8.8,7.7c2,3.4,3.6,7.2,4.8,10.6c1.3,3.8,2.8,7.8,3.1,11.3c0.4,4.2,0.1,8.8-0.8,12c-1.2,4-4.5,7.9-7.7,9.8
				c-3.2,1.8-7.6-0.1-11.6-1.1c-3.3-0.8-6.9-1.7-10.3-4.1c-2.9-2.1-6.9-3.5-9.6-6.6c-2.4-2.7-4.9-6-6.9-9.5c-2-3.4-1.4-8-2.6-11.4
				c-1.3-3.8-4.4-7.2-4.7-10.7c-0.4-4.2,2.3-7.9,3.3-11.2C223,175.6,224.6,172.8,227.8,171z"/>
		</g>
		<g>
			<path class="st1" d="M364.3,91.4c3.2-1.8,7.1-2.8,11.1-1.9c3.3,0.8,6.4,3.5,9.8,5.9c2.9,2.1,6.6,3.7,9.3,6.8
				c2.4,2.7,4.6,6.1,6.6,9.5c2,3.4,4.2,6.8,5.4,10.3c1.3,3.8,0.6,8,1,11.5c0.4,4.2,2,8.4,1.1,11.7c-1.2,4-5.3,6-8.5,7.9
				c-3.2,1.8-6.8,3.5-10.9,2.5c-3.3-0.8-7.4-2.2-10.8-4.6c-2.9-2.1-3.9-6.6-6.5-9.7c-2.4-2.7-6.1-4.7-8-8.1c-2-3.4-5-6.5-6.2-9.9
				c-1.3-3.8,0.1-8.2-0.3-11.8c-0.4-4.2-0.3-7.9,0.7-11.2C359.1,96.4,361.2,93.3,364.3,91.4z"/>
		</g>
	</g>
	<g>
		<defs>
			<path id="SVGID_00000049906540406697572940000015646734391803857540_" d="M61.2,488c3.5,2.8,5.6-0.3,10-0.8
				c4.5-0.5,4.3-2.1,8.7-2.6c4.5-0.5,4.6,0.6,9,0.2c4.5-0.5,4.2-2.5,8.7-3c4.5-0.5,4.6,0.5,9,0c4.5-0.5,4.6,1.2,9.1,0.7
				c4.5-0.5,4.4-1.2,8.8-1.7c4.5-0.5,4.5-0.4,8.9-0.8c4.5-0.5,4.2-2.9,8.7-3.4c4.5-0.5,4.7,1.3,9.1,0.8c4.5-0.5,4.3-2.1,8.8-2.6
				c4.5-0.5,4.6,0.5,9,0c4.5-0.5,4.3-1.9,8.8-2.3c4.5-0.5,4.5,0.3,9-0.2c4.5-0.5,4.7,1.9,9.2,1.4c4.5-0.5,4.3-1.8,8.8-2.3
				c4.5-0.5,4.4-0.8,8.9-1.3c4.5-0.5,4.6,1.2,9.1,0.7c4.5-0.5,4.4-0.8,8.9-1.3c4.5-0.5,4.2-3,8.7-3.4c4.5-0.5,4.7,2,9.2,1.5
				c4.5-0.5,4.3-1.9,8.8-2.4c4.5-0.5,4.6,0.8,9.1,0.3c4.5-0.5,4.3-2.3,8.7-2.8c4.5-0.5,4.4-0.9,8.9-1.3c4.5-0.5,4.6,1.1,9.1,0.6
				c4.5-0.5,4.3-2.2,8.7-2.7c4.5-0.5,4.6,1.2,9.1,0.7c4.5-0.5,4.4-1.2,8.8-1.7c4.5-0.5,4.4-0.7,8.9-1.2c4.5-0.5,4.5-0.4,8.9-0.9
				c4.5-0.5,4.5-0.1,9-0.5c4.5-0.5,4.3-2.3,8.7-2.8c4.5-0.5,4.7,1.3,9.1,0.8c4.5-0.5,4.5-0.3,8.9-0.8c4.5-0.5,4.3-2.1,8.8-2.6
				c4.5-0.5,4.5-0.2,9-0.7c4.5-0.5,4.6,0.7,9.1,0.2c4.5-0.5,4.4-1.2,8.8-1.7c4.5-0.5,4.7,1.2,9.1,0.8c4.5-0.5,4.5-0.1,9-0.6
				c4.5-0.5,4.4-1.4,8.8-1.8c4.5-0.5,4.3-1.9,8.8-2.4c4.5-0.5,4.5-0.3,8.9-0.8c4.5-0.5,4.6,1,9.1,0.5c4.5-0.5,4.4-1.4,8.8-1.9
				c4.5-0.5,4.4-1.2,8.8-1.7c4.5-0.5,4.6,0.6,9.1,0.2c4.5-0.5,7,3.1,9.8-0.4c2.8-3.5-1.1-5.2-1.6-9.7c-0.5-4.5-0.3-4.5-0.8-8.9
				c-0.5-4.5-1.1-4.4-1.6-8.9c-0.5-4.5,0.5-4.6,0-9c-0.5-4.5-1-4.4-1.5-8.9c-0.5-4.5-0.9-4.4-1.4-8.9c-0.5-4.5-0.7-4.4-1.2-8.9
				c-0.5-4.5-1.2-4.4-1.7-8.8c-0.5-4.5,1.5-4.7,1.1-9.1c-0.5-4.5-0.5-4.5-1-8.9c-0.5-4.5-3.1-4.2-3.6-8.6c-0.5-4.5,0.4-4.6-0.1-9
				c-0.5-4.5,0.2-4.5-0.3-9c-0.5-4.5-1.2-4.4-1.7-8.8c-0.5-4.5,1.4-4.7,0.9-9.1c-0.5-4.5-2.2-4.3-2.6-8.7c-0.5-4.5,0-4.5-0.5-9
				c-0.5-4.5,0.1-4.5-0.4-9c-0.5-4.5-1.7-4.3-2.2-8.8c-0.5-4.5-0.1-4.5-0.6-9c-0.5-4.5-1-4.4-1.5-8.9c-0.5-4.5,1.9-4.7,1.4-9.2
				c-0.5-4.5-3.5-4.1-4-8.6c-0.5-4.5,2-4.7,1.5-9.2c-0.5-4.5,0.2-4.5-0.3-9c-0.5-4.5-3.3-4.2-3.8-8.6c-0.5-4.5,1.1-4.6,0.7-9.1
				c-0.5-4.5,0.2-4.5-0.3-9c-0.5-4.5-1.9-4.3-2.4-8.8c-0.5-4.5,0.6-4.6,0.1-9c-0.5-4.5-1.2-4.4-1.6-8.9c-0.5-4.5-1.6-4.3-2.1-8.8
				c-0.5-4.5-1.1-4.4-1.6-8.9c-0.5-4.5,0.2-4.5-0.3-9c-0.5-4.5-1.1-4.4-1.5-8.9c-0.5-4.5,1.6-4.7,1.1-9.2c-0.5-4.5-1.2-4.4-1.7-8.8
				c-0.5-4.5-1.4-4.4-1.9-8.8c-0.5-4.5,1.2-4.6,0.7-9.1c-0.5-4.5,0-4.5-0.5-9c-0.5-4.5-2.7-4.2-3.2-8.7c-0.5-4.5,1-4.6,0.5-9.1
				c-0.5-4.5-1.7-4.3-2.2-8.8c-0.5-4.5,1.7-4.7,1.2-9.2c-0.5-4.5-2.6-4.2-3.1-8.7c-0.5-4.5,1-4.6,0.5-9.1c-0.5-4.5-2.7-4.2-3.2-8.7
				c-0.5-4.5,2.6-4.8,2.1-9.3c-0.5-4.5,1.6-6.7-1.9-9.5c-3.5-2.8-5.1,0.6-9.6,1.1c-4.5,0.5-4.5,0.1-9,0.6c-4.5,0.5-4.3,1.6-8.8,2.1
				c-4.5,0.5-4.3,1.6-8.8,2c-4.5,0.5-4.4,1-8.9,1.5c-4.5,0.5-4.7-2.1-9.2-1.6c-4.5,0.5-4.5-0.2-9,0.3c-4.5,0.5-4.4,0.7-8.9,1.2
				c-4.5,0.5-4.1,3.4-8.6,3.9c-4.5,0.5-4.8-2.6-9.3-2.1c-4.5,0.5-4.5,0.4-8.9,0.9c-4.5,0.5-4.3,1.8-8.8,2.2
				c-4.5,0.5-4.3,1.6-8.8,2.1c-4.5,0.5-4.6-0.3-9,0.2c-4.5,0.5-4.3,2.3-8.7,2.8c-4.5,0.5-4.6-1.1-9.1-0.6c-4.5,0.5-4.3,1.7-8.8,2.2
				c-4.5,0.5-4.7-1.4-9.1-0.9c-4.5,0.5-4.3,2-8.8,2.5c-4.5,0.5-4.6-0.9-9.1-0.4c-4.5,0.5-4.2,2.6-8.7,3.1c-4.5,0.5-4.7-2-9.2-1.5
				c-4.5,0.5-4.3,2-8.8,2.5c-4.5,0.5-4.6-0.4-9,0c-4.5,0.5-4.3,1.6-8.8,2.1c-4.5,0.5-4.4,1.2-8.8,1.6c-4.5,0.5-4.7-1.3-9.1-0.8
				c-4.5,0.5-4.3,1.8-8.8,2.3c-4.5,0.5-4.6-1.1-9.1-0.6c-4.5,0.5-4.3,1.9-8.8,2.4c-4.5,0.5-4.7-1.3-9.1-0.8
				c-4.5,0.5-4.4,1.4-8.8,1.9c-4.5,0.5-4.4,1.5-8.8,2c-4.5,0.5-4.5,0.4-8.9,0.9c-4.5,0.5-4.6-0.5-9,0c-4.5,0.5-4.5-0.1-9,0.3
				c-4.5,0.5-4.4,0.9-8.9,1.4c-4.5,0.5-4.3,1.7-8.8,2.2c-4.5,0.5-4.8-2.3-9.2-1.8c-4.5,0.5-4.4,1.4-8.8,1.9c-4.5,0.5-4.2,2.5-8.7,3
				c-4.5,0.5-4.5-0.3-9,0.2c-4.5,0.5-4.5-0.1-9,0.4c-4.5,0.5-4.6-0.5-9,0c-4.5,0.5-4.3,2.3-8.7,2.8c-4.5,0.5-4.6-0.8-9.1-0.3
				c-4.5,0.5-4.5-0.1-9,0.4c-4.5,0.5-4.5,0.3-9,0.8c-4.5,0.5-6.6-2-9.4,1.5c-2.8,3.5,1,4.9,1.5,9.4c0.5,4.5-0.1,4.5,0.4,9
				c0.5,4.5-0.4,4.6,0.1,9c0.5,4.5,2.4,4.3,2.9,8.7c0.5,4.5,1.3,4.4,1.8,8.8c0.5,4.5,1,4.4,1.4,8.9c0.5,4.5-0.7,4.6-0.2,9
				c0.5,4.5,1.5,4.4,2,8.8c0.5,4.5-1.2,4.6-0.7,9.1c0.5,4.5,1.5,4.3,2,8.8c0.5,4.5-2,4.7-1.5,9.2c0.5,4.5,2.3,4.3,2.8,8.7
				c0.5,4.5,1.4,4.4,1.9,8.8c0.5,4.5-0.9,4.6-0.4,9.1c0.5,4.5,2.1,4.3,2.6,8.8c0.5,4.5,0.2,4.5,0.6,9c0.5,4.5,0.5,4.5,1,8.9
				c0.5,4.5-1,4.6-0.5,9.1c0.5,4.5-0.3,4.5,0.2,9c0.5,4.5,2.6,4.2,3.1,8.7c0.5,4.5,1.1,4.4,1.6,8.9c0.5,4.5-2.2,4.8-1.7,9.2
				c0.5,4.5,0.6,4.5,1,8.9c0.5,4.5,0.4,4.5,0.8,8.9c0.5,4.5,0.3,4.5,0.8,8.9c0.5,4.5,0.8,4.4,1.3,8.9c0.5,4.5,1.8,4.3,2.3,8.8
				c0.5,4.5-1,4.6-0.5,9.1c0.5,4.5,1.9,4.3,2.4,8.8c0.5,4.5-0.7,4.6-0.2,9c0.5,4.5,1.7,4.3,2.2,8.8c0.5,4.5,2,4.3,2.5,8.8
				c0.5,4.5,0.3,4.5,0.8,8.9c0.5,4.5-1.4,4.7-1,9.1c0.5,4.5,1.9,4.3,2.4,8.8c0.5,4.5-1.8,4.7-1.3,9.2c0.5,4.5,2.3,4.3,2.8,8.7
				c0.5,4.5,0.8,4.4,1.3,8.9c0.5,4.5-0.3,4.6,0.2,9c0.5,4.5,1.6,4.3,2.1,8.8c0.5,4.5,0.3,4.5,0.8,8.9c0.5,4.5,0,4.5,0.5,9
				c0.5,4.5,0.6,4.5,1,8.9c0.5,4.5-0.5,4.6,0,9c0.5,4.5,0.3,4.5,0.7,9c0.5,4.5,1.3,4.4,1.8,8.8c0.5,4.5,1.9,4.3,2.4,8.8
				c0.5,4.5-0.8,4.5-1.4,9C59.6,483,57.7,485.1,61.2,488z"/>
		</defs>
		<clipPath id="SVGID_00000110435879429295593650000011318469521642501550_">
			<use xlink:href="#SVGID_00000049906540406697572940000015646734391803857540_"  style="overflow:visible;"/>
		</clipPath>
		<g style="clip-path:url(#SVGID_00000110435879429295593650000011318469521642501550_);">
			<g>
				<path class="st1" d="M124.2,563.3c2.2-2.7,39.1-42.1,41.3-44.8c2.2-2.7,1.6-3.2,3.8-5.9c2.2-2.7,1.1-3.5,3.3-6.2
					c2.2-2.7,2.3-2.6,4.5-5.3c2.2-2.7,3.2-1.9,5.4-4.6c2.2-2.7,1.7-3.1,3.9-5.7c2.2-2.7,1.6-3.2,3.8-5.9c2.2-2.7,2-2.9,4.2-5.6
					c2.2-2.7,3.7-1.4,5.9-4.1c2.2-2.7,0.9-3.7,3.1-6.4c2.2-2.7,4-1.2,6.2-3.9s1.4-3.3,3.6-6c2.2-2.7,1.7-3.1,3.9-5.7
					c2.2-2.7,2.3-2.6,4.5-5.3c2.2-2.7,3-2,5.2-4.7c2.2-2.7,1.3-3.4,3.5-6.1c2.2-2.7,2.7-2.2,5-4.9c2.2-2.7,1.3-3.5,3.7-6
					c2.4-2.5,2.6-1.2,6.1-3.7c1.6-1.2,3.9-2.1,6-3.7c1.8-1.3,3.8-2.6,5.7-4.1c1.8-1.4,3.4-3.1,5.3-4.6c1.8-1.4,2.9-3.8,4.7-5.4
					c1.8-1.5,4.4-2.1,6.1-3.7c1.8-1.6,3.8-2.9,5.4-4.5c1.7-1.7,2.1-4.6,3.6-6.3c1.7-1.8,4.8-2.2,6.2-4c1.6-2,1.3-5,2.3-6.9
					c1.3-2.3,1.7-4.3,2-6.3c0.3-2.5,0.3-3.9-1.4-5.6c-1.6-1.6-2.8-4.1-5.1-4.5c-2.1-0.4-4.4,1.1-6.8,1.5c-2.1,0.3-4.7-0.8-7,0
					c-2.1,0.7-3.4,3.4-5.6,4.3c-2,0.9-3.9,2-5.9,3.1c-2,1.1-4.3,1.6-6.2,2.8c-2,1.2-4.3,1.8-6.1,3.1c-2,1.3-3.3,3.3-5,4.6
					c-2,1.5-4.6,1.9-6.2,3.1c-3.3,2.6-2.7,7.7-5.2,5.4c-2.5-2.3,1.8-2.9,4.8-5.9c1.4-1.4,3.6-2.5,5.4-4.4c1.5-1.6,2.1-4.1,3.8-5.9
					c1.5-1.6,3.1-3.2,4.7-5c1.5-1.7,3.8-2.7,5.3-4.5c1.5-1.7,3.7-2.9,5.1-4.7c1.5-1.8,2.9-3.6,4.3-5.5c1.4-1.8,1.1-5,2.4-6.8
					c1.4-1.9,3.3-3.4,4.5-5.2c1.3-2,3.5-3.4,4.6-5.3c1.2-2.2,1.4-4.7,2.2-6.6c1-2.4,1.2-4.7,1.4-6.7c0.2-2.7,0.7-5.7-1-7.1
					c-1.7-1.4-4.7-0.7-7.5-0.5c-2.1,0.1-4.7-0.5-7.2,0.3c-2.1,0.7-3.8,2.9-6.1,4c-2,1-5,0.5-7.2,1.7c-2,1.1-3.3,3.7-5.3,5
					c-2,1.3-4.5,1.7-6.5,3.1c-2,1.3-3.2,3.8-5.1,5.2c-2,1.4-3.7,3.1-5.5,4.5c-2,1.5-4.9,1.7-6.6,3.1c-2,1.6-4.2,2.7-5.9,4.1
					c-2.1,1.7-3.1,4.3-4.6,5.6c-3.4,2.9-1.8,3.8-5.4,3.6c-3.4-0.2,1.3-1.3,4.2-4.4c1.3-1.4,4-2.1,5.7-4c1.4-1.5,1.9-4.2,3.5-6.1
					c1.4-1.6,3.3-3.1,4.8-4.8c1.5-1.7,2.5-3.8,4-5.6c1.5-1.7,4.4-2.2,5.9-4c1.4-1.7,1.2-4.8,2.7-6.6c1.4-1.8,4.7-2.1,6.1-3.9
					c1.4-1.8,1.4-4.7,2.8-6.5c1.4-1.8,3.3-3.3,4.6-5.1c1.3-1.9,2.8-3.7,4.1-5.5c1.3-2,1.7-4.4,2.8-6.3c1.2-2.1,3.9-3.3,4.8-5.2
					c1.1-2.2,0.8-4.9,1.4-6.9c0.8-2.5,1.2-4.7,1.2-6.6c0-2.6-1.1-3.9-2.9-5.2c-1.7-1.3-3.4-2.8-6-2.5c-2,0.2-4.3,1-6.7,2
					c-2,0.8-3.7,2.5-5.9,3.7c-1.9,1.1-4.1,2-6.1,3.3c-1.9,1.2-4.7,1.2-6.7,2.6c-1.9,1.3-2.3,4.6-4.2,6.1c-1.8,1.4-4.6,1.7-6.4,3.1
					c-1.8,1.4-3.5,3-5.3,4.5c-1.8,1.5-3.5,3-5.3,4.6c-1.8,1.5-2.7,4-4.4,5.6c-1.8,1.6-5,1.5-6.7,3c-1.8,1.6-2.3,4.4-4,6
					c-1.8,1.7-4.4,2.3-6,3.8c-1.8,1.7-3.5,3.3-5,4.9c-1.9,1.9-3.4,3.6-4.8,5c-3.1,3.1-3.2,8.7-4.1,5.3c-0.9-3.4,2.4-1.2,5.1-4.6
					c1.3-1.6,2.2-3.9,3.8-6c1.3-1.7,3-3.5,4.5-5.5c1.4-1.8,1.3-4.8,2.7-6.8c1.3-1.9,3.3-3.4,4.7-5.3c1.3-1.9,1.9-4.4,3.1-6.4
					c1.3-2,3.3-3.5,4.5-5.5c1.2-2.1,3.5-3.6,4.5-5.6c1.1-2.2,2.1-4.5,2.9-6.6c0.9-2.4-0.3-5.2,0.2-7.3c0.6-2.6,2.7-4.9,2.4-7
					c-0.4-2.5-2.5-4.4-4.5-5.8c-1.6-1.1-4-1.3-6.7-0.5c-1.9,0.5-4.5,0.7-6.8,2c-1.8,1-3.8,2.4-5.9,3.8c-1.8,1.2-3.8,2.4-5.8,3.9
					c-1.8,1.3-3,3.5-4.8,5.1c-1.7,1.4-3.2,3.2-5,4.8c-1.7,1.5-4,2.3-5.8,3.9c-1.7,1.5-2.8,3.7-4.6,5.3c-1.7,1.6-3.9,2.5-5.6,4.1
					c-1.7,1.6-3.5,3-5.2,4.6c-1.6,1.6-3,3.5-4.6,5.2c-1.6,1.6-2.9,3.6-4.5,5.3c-1.6,1.7-3.4,3.1-5,4.8c-1.6,1.7-2.8,3.8-4.3,5.4
					c-1.6,1.7-3.8,2.8-5.4,4.4c-1.6,1.7-3.8,2.8-5.4,4.5c-1.6,1.7-2,4.5-3.5,6.2c-1.6,1.8-2.9,3.7-4.4,5.4c-1.6,1.8-3.2,3.5-4.7,5.1
					c-1.7,1.8-4,2.9-5.4,4.5c-1.7,2-2.2,4.7-3.5,6.1c-2.9,3.3-2.4,2.4-5.6,3.7c-0.2-1.2,0.7-2.9,0.8-6.3c0-2.1-0.6-4.6-0.6-7.2
					c0-2.3-0.8-4.7-0.8-7.2c0-2.3,0.7-4.8,0.6-7.2c-0.1-2.4,0.2-4.8,0-7.2c-0.2-2.4-1.8-4.7-2.2-7c-0.4-2.5,1.5-5.3,0.9-7.5
					c-0.7-2.5-3.3-4.1-4.3-6.1C89,298,88,296.1,86,295c-1.9-1.1-4-1.9-6.8-1.3c-1.9,0.4-3.2,2.3-5.2,4.3c-1.4,1.4-3.9,2.4-5.4,4.5
					c-1.2,1.8-1.1,4.6-2.3,6.7c-1.1,1.9-3.2,3.4-4.2,5.6c-1,2-1.6,4.3-2.6,6.5c-0.9,2.1-1.5,4.3-2.4,6.5c-0.8,2.1-2.7,3.9-3.5,6.1
					c-0.8,2.1-1.7,4.3-2.5,6.5c-0.8,2.2-0.3,4.8-1,7c-0.7,2.2-3.1,3.8-3.8,6.1c-0.7,2.2-0.7,4.7-1.3,6.9c-0.7,2.2-0.8,4.6-1.5,6.8
					c-0.7,2.2-1.4,4.4-2,6.7c-0.7,2.3-1.9,4.3-2.5,6.5c-0.6,2.3-1.8,4.4-2.4,6.6c-0.6,2.3,0.5,5,0,7.2c-0.6,2.3-1.5,4.5-2,6.7
					c-0.6,2.4-1.4,4.5-2,6.7c-0.6,2.4-1.3,4.7-1.8,6.7c-0.6,2.6-0.7,4.9-1.2,6.9c-1,4.3-36.7,44.2-37.4,47.6L124.2,563.3z"/>
				<g>
					<defs>
						<path id="SVGID_00000016034983103817235020000014064986229517246645_" d="M124.2,563.3c2.2-2.7,39.1-42.1,41.3-44.8
							c2.2-2.7,1.6-3.2,3.8-5.9c2.2-2.7,1.1-3.5,3.3-6.2c2.2-2.7,2.3-2.6,4.5-5.3c2.2-2.7,3.2-1.9,5.4-4.6c2.2-2.7,1.7-3.1,3.9-5.7
							c2.2-2.7,1.6-3.2,3.8-5.9c2.2-2.7,2-2.9,4.2-5.6c2.2-2.7,3.7-1.4,5.9-4.1c2.2-2.7,0.9-3.7,3.1-6.4c2.2-2.7,4-1.2,6.2-3.9
							s1.4-3.3,3.6-6c2.2-2.7,1.7-3.1,3.9-5.7c2.2-2.7,2.3-2.6,4.5-5.3c2.2-2.7,3-2,5.2-4.7c2.2-2.7,1.3-3.4,3.5-6.1
							c2.2-2.7,2.7-2.2,5-4.9c2.2-2.7,1.3-3.5,3.7-6c2.4-2.5,2.6-1.2,6.1-3.7c1.6-1.2,3.9-2.1,6-3.7c1.8-1.3,3.8-2.6,5.7-4.1
							c1.8-1.4,3.4-3.1,5.3-4.6c1.8-1.4,2.9-3.8,4.7-5.4c1.8-1.5,4.4-2.1,6.1-3.7c1.8-1.6,3.8-2.9,5.4-4.5c1.7-1.7,2.1-4.6,3.6-6.3
							c1.7-1.8,4.8-2.2,6.2-4c1.6-2,1.3-5,2.3-6.9c1.3-2.3,1.7-4.3,2-6.3c0.3-2.5,0.3-3.9-1.4-5.6c-1.6-1.6-2.8-4.1-5.1-4.5
							c-2.1-0.4-4.4,1.1-6.8,1.5c-2.1,0.3-4.7-0.8-7,0c-2.1,0.7-3.4,3.4-5.6,4.3c-2,0.9-3.9,2-5.9,3.1c-2,1.1-4.3,1.6-6.2,2.8
							c-2,1.2-4.3,1.8-6.1,3.1c-2,1.3-3.3,3.3-5,4.6c-2,1.5-4.6,1.9-6.2,3.1c-3.3,2.6-2.7,7.7-5.2,5.4c-2.5-2.3,1.8-2.9,4.8-5.9
							c1.4-1.4,3.6-2.5,5.4-4.4c1.5-1.6,2.1-4.1,3.8-5.9c1.5-1.6,3.1-3.2,4.7-5c1.5-1.7,3.8-2.7,5.3-4.5c1.5-1.7,3.7-2.9,5.1-4.7
							c1.5-1.8,2.9-3.6,4.3-5.5c1.4-1.8,1.1-5,2.4-6.8c1.4-1.9,3.3-3.4,4.5-5.2c1.3-2,3.5-3.4,4.6-5.3c1.2-2.2,1.4-4.7,2.2-6.6
							c1-2.4,1.2-4.7,1.4-6.7c0.2-2.7,0.7-5.7-1-7.1c-1.7-1.4-4.7-0.7-7.5-0.5c-2.1,0.1-4.7-0.5-7.2,0.3c-2.1,0.7-3.8,2.9-6.1,4
							c-2,1-5,0.5-7.2,1.7c-2,1.1-3.3,3.7-5.3,5c-2,1.3-4.5,1.7-6.5,3.1c-2,1.3-3.2,3.8-5.1,5.2c-2,1.4-3.7,3.1-5.5,4.5
							c-2,1.5-4.9,1.7-6.6,3.1c-2,1.6-4.2,2.7-5.9,4.1c-2.1,1.7-3.1,4.3-4.6,5.6c-3.4,2.9-1.8,3.8-5.4,3.6c-3.4-0.2,1.3-1.3,4.2-4.4
							c1.3-1.4,4-2.1,5.7-4c1.4-1.5,1.9-4.2,3.5-6.1c1.4-1.6,3.3-3.1,4.8-4.8c1.5-1.7,2.5-3.8,4-5.6c1.5-1.7,4.4-2.2,5.9-4
							c1.4-1.7,1.2-4.8,2.7-6.6c1.4-1.8,4.7-2.1,6.1-3.9c1.4-1.8,1.4-4.7,2.8-6.5c1.4-1.8,3.3-3.3,4.6-5.1c1.3-1.9,2.8-3.7,4.1-5.5
							c1.3-2,1.7-4.4,2.8-6.3c1.2-2.1,3.9-3.3,4.8-5.2c1.1-2.2,0.8-4.9,1.4-6.9c0.8-2.5,1.2-4.7,1.2-6.6c0-2.6-1.1-3.9-2.9-5.2
							c-1.7-1.3-3.4-2.8-6-2.5c-2,0.2-4.3,1-6.7,2c-2,0.8-3.7,2.5-5.9,3.7c-1.9,1.1-4.1,2-6.1,3.3c-1.9,1.2-4.7,1.2-6.7,2.6
							c-1.9,1.3-2.3,4.6-4.2,6.1c-1.8,1.4-4.6,1.7-6.4,3.1c-1.8,1.4-3.5,3-5.3,4.5c-1.8,1.5-3.5,3-5.3,4.6c-1.8,1.5-2.7,4-4.4,5.6
							c-1.8,1.6-5,1.5-6.7,3c-1.8,1.6-2.3,4.4-4,6c-1.8,1.7-4.4,2.3-6,3.8c-1.8,1.7-3.5,3.3-5,4.9c-1.9,1.9-3.4,3.6-4.8,5
							c-3.1,3.1-3.2,8.7-4.1,5.3c-0.9-3.4,2.4-1.2,5.1-4.6c1.3-1.6,2.2-3.9,3.8-6c1.3-1.7,3-3.5,4.5-5.5c1.4-1.8,1.3-4.8,2.7-6.8
							c1.3-1.9,3.3-3.4,4.7-5.3c1.3-1.9,1.9-4.4,3.1-6.4c1.3-2,3.3-3.5,4.5-5.5c1.2-2.1,3.5-3.6,4.5-5.6c1.1-2.2,2.1-4.5,2.9-6.6
							c0.9-2.4-0.3-5.2,0.2-7.3c0.6-2.6,2.7-4.9,2.4-7c-0.4-2.5-2.5-4.4-4.5-5.8c-1.6-1.1-4-1.3-6.7-0.5c-1.9,0.5-4.5,0.7-6.8,2
							c-1.8,1-3.8,2.4-5.9,3.8c-1.8,1.2-3.8,2.4-5.8,3.9c-1.8,1.3-3,3.5-4.8,5.1c-1.7,1.4-3.2,3.2-5,4.8c-1.7,1.5-4,2.3-5.8,3.9
							c-1.7,1.5-2.8,3.7-4.6,5.3c-1.7,1.6-3.9,2.5-5.6,4.1c-1.7,1.6-3.5,3-5.2,4.6c-1.6,1.6-3,3.5-4.6,5.2c-1.6,1.6-2.9,3.6-4.5,5.3
							c-1.6,1.7-3.4,3.1-5,4.8c-1.6,1.7-2.8,3.8-4.3,5.4c-1.6,1.7-3.8,2.8-5.4,4.4c-1.6,1.7-3.8,2.8-5.4,4.5c-1.6,1.7-2,4.5-3.5,6.2
							c-1.6,1.8-2.9,3.7-4.4,5.4c-1.6,1.8-3.2,3.5-4.7,5.1c-1.7,1.8-4,2.9-5.4,4.5c-1.7,2-2.2,4.7-3.5,6.1c-2.9,3.3-2.4,2.4-5.6,3.7
							c-0.2-1.2,0.7-2.9,0.8-6.3c0-2.1-0.6-4.6-0.6-7.2c0-2.3-0.8-4.7-0.8-7.2c0-2.3,0.7-4.8,0.6-7.2c-0.1-2.4,0.2-4.8,0-7.2
							c-0.2-2.4-1.8-4.7-2.2-7c-0.4-2.5,1.5-5.3,0.9-7.5c-0.7-2.5-3.3-4.1-4.3-6.1C89,298,88,296.1,86,295c-1.9-1.1-4-1.9-6.8-1.3
							c-1.9,0.4-3.2,2.3-5.2,4.3c-1.4,1.4-3.9,2.4-5.4,4.5c-1.2,1.8-1.1,4.6-2.3,6.7c-1.1,1.9-3.2,3.4-4.2,5.6c-1,2-1.6,4.3-2.6,6.5
							c-0.9,2.1-1.5,4.3-2.4,6.5c-0.8,2.1-2.7,3.9-3.5,6.1c-0.8,2.1-1.7,4.3-2.5,6.5c-0.8,2.2-0.3,4.8-1,7c-0.7,2.2-3.1,3.8-3.8,6.1
							c-0.7,2.2-0.7,4.7-1.3,6.9c-0.7,2.2-0.8,4.6-1.5,6.8c-0.7,2.2-1.4,4.4-2,6.7c-0.7,2.3-1.9,4.3-2.5,6.5
							c-0.6,2.3-1.8,4.4-2.4,6.6c-0.6,2.3,0.5,5,0,7.2c-0.6,2.3-1.5,4.5-2,6.7c-0.6,2.4-1.4,4.5-2,6.7c-0.6,2.4-1.3,4.7-1.8,6.7
							c-0.6,2.6-0.7,4.9-1.2,6.9c-1,4.3-36.7,44.2-37.4,47.6L124.2,563.3z"/>
					</defs>
					<clipPath id="SVGID_00000019648073313751887490000008231127333431614879_">
						<use xlink:href="#SVGID_00000016034983103817235020000014064986229517246645_"  style="overflow:visible;"/>
					</clipPath>
					<path style="opacity:0.25;clip-path:url(#SVGID_00000019648073313751887490000008231127333431614879_);fill:#FFFFFF;" d="
						M47.9,405c0,0,28-61.3,36-58.7s19,35.7,19,35.7s58-66,79-87s48-43,48-43l-69-14L44.9,286.8L4.8,372.1L47.9,405z"/>
				</g>
			</g>
			<g>
				<g>
					<path class="st10" d="M233.9,404.6c0.6,0.4,1.7-1,2.4-1.4c0.9-0.5,2.2-1.4,1.7-2.3c-1.1-2.1-3.4-3.5-4.6-5.5
						c-1.2-2.1-0.9-5-2.1-6.9c-1.2-2-4.4-2.8-5.6-4.8c-1.3-2-2.2-4.1-3.6-6c-1.4-1.9-1.6-4.7-3-6.5c-1.4-1.9-2.6-4-4.1-5.8
						c-1.5-1.8-4.2-2.7-5.7-4.4c-1.6-1.8-2.9-3.7-4.6-5.4c-1.6-1.7-3.5-3.2-5.2-4.8c-1.7-1.6-3.9-2.7-5.6-4.3
						c-1.8-1.6-2.6-4.2-4.4-5.7c-1.8-1.5-4.3-2.1-6.2-3.5c-1.9-1.4-3.7-2.9-5.6-4.2c-1.9-1.3-3.1-3.9-5.1-5.1
						c-2-1.2-4.3-2.1-6.3-3.2c-2.1-1.1-5.1-0.3-7.2-1.4c-0.9-0.4-2.5-1.6-3-0.7c-0.4,0.9,0.6,3.3,1.5,3.7c2.1,1,4.2,1.8,6.2,2.9
						c2,1.1,4.3,1.8,6.2,3c2,1.2,4.7,1.3,6.6,2.5c1.9,1.3,3.5,3.1,5.3,4.5c1.8,1.4,3.1,3.5,4.9,5c1.8,1.4,3.4,3.1,5.1,4.6
						c1.7,1.5,2.8,3.6,4.5,5.3c1.6,1.6,4.2,2.2,5.8,3.9c1.6,1.7,2.3,4.1,3.9,5.8c1.5,1.7,2.9,3.5,4.4,5.3c1.4,1.8,3.5,3,4.9,4.9
						c1.4,1.8,3.1,3.4,4.4,5.3c1.3,1.9,2.3,4,3.5,5.9c1.2,1.9,2.5,3.8,3.7,5.8c1.2,1.9,3.4,3.3,4.6,5.3c1.1,2,1.6,4.4,2.7,6.4
						C234.4,403.1,233.6,404.5,233.9,404.6z"/>
				</g>
				<g>
					<path class="st10" d="M116.2,431.2c0.1,0.1-0.7,1.8-0.6,1.9c0.9,0.4,3.1-0.8,3.5-1.7c1-2.2,2.2-4.4,2.9-6.6
						c0.7-2.3,1.3-4.7,1.7-7c0.5-2.4,0.1-4.9,0.3-7.2c0.2-2.4-0.8-4.8-0.9-7.1c-0.1-2.4,0.2-4.8-0.2-7c-0.4-2.4-0.6-4.8-1.3-7
						c-0.7-2.3-1.6-4.5-2.5-6.6c-1-2.2-3-3.8-4.1-5.8c-1.2-2.1-1.2-5-2.5-6.8c-1.5-2-3.3-3.7-4.8-5.3c-1.7-2-3.2-4-4.6-5.4
						c-3.1-3-5.6-4.2-5.7-4.3c0,0,0.1-0.1,0.1-0.1c-0.8-0.6-2,0-2.5,0.8c-0.6,0.8-0.3,1.4,0.5,2c0.3,0.2,1.7,2.5,4.4,5.1
						c1.4,1.3,4.2,1.8,5.8,3.7c1.4,1.6,1.4,4.4,2.8,6.4c1.2,1.7,4.1,2.6,5.2,4.6c1.1,1.9,1.8,4.1,2.7,6.2c0.9,2,1.8,4.1,2.5,6.3
						c0.6,2.1-1,4.7-0.6,7c0.4,2.1,3.1,4.1,3.2,6.4c0.1,2.2-2.4,4.3-2.6,6.6c-0.2,2.1,1.2,4.5,0.8,6.8c-0.4,2.1-0.2,4.5-0.9,6.7
						c-0.6,2-3.1,3.6-4,5.7C114.3,430.3,115.5,430.7,116.2,431.2z"/>
				</g>
			</g>
		</g>
	</g>
</g>
<g>
	<g>
		<defs>
			<rect id="SVGID_00000173134911790474983140000002364640990885377718_" x="41.7" y="719.1" width="418" height="320"/>
		</defs>
		<clipPath id="SVGID_00000024706017772549406850000015765908319169894787_">
			<use xlink:href="#SVGID_00000173134911790474983140000002364640990885377718_"  style="overflow:visible;"/>
		</clipPath>
		<g style="clip-path:url(#SVGID_00000024706017772549406850000015765908319169894787_);">
			<g>
				<g>
					<path class="st10" d="M203,581.5c-2.6-0.1-1.9,0.3-4.9-1.2c-1.3-0.7-3.1-1-4.9-1.9c-1.5-0.7-2.9-1.7-4.6-2.5
						c-1.5-0.7-2.9-1.8-4.6-2.6c-1.6-0.7-3.1-1.5-4.8-2.2c-1.6-0.7-2.9-2.1-4.6-2.8c-1.6-0.6-3.5-0.6-5.2-1.2
						c-1.6-0.6-3-2.1-4.7-2.7c-1.7-0.6-3.8,0.4-5.5-0.1c-1.7-0.5-3-2.4-4.7-2.8c-1.7-0.4-3.5-0.7-5.2-1c-1.8-0.4-3.6,0-5.3-0.3
						c-1.7-0.2-3.4-1.1-5.1-1.3c-1.7-0.1-3.5,1-5.2,1c-1.7-0.1-3.5-1.1-5.2-1.1c-1.8,0-3.5,0.2-5.2,0.3c-1.8,0.1-3.5-0.1-5.2,0.1
						c-1.8,0.2-3.3,2-4.9,2.2c-1.8,0.3-3.5,0.2-5.1,0.5c-1.8,0.3-3.4,0.6-5,1c-1.8,0.4-3.8-0.4-5.4,0c-1.8,0.6-3.1,2.2-4.5,2.8
						c-2,0.8-3.7,1.3-4.7,2c-1.1,0.7-2.4,1.8-4.1,2.6c-1.3,0.7-3.4,0.2-4.9,0.9c-1.4,0.7-2.4,2.3-3.9,3.1c-1.4,0.7-2.9,1.3-4.3,2.1
						c-1.4,0.8-2.4,2.3-3.7,3.2c-1.4,0.9-3.4,1-4.5,2c-1.3,1.2-1.4,3.1-2.2,4.3c-1,1.7-2.9,2.4-4.1,2.9c-1.7,0.7-3.8,0.8-5,0.1
						c-2-1.2-2.7-3.6-2.4-5.6c0.2-1.6,1.4-3.5,2.5-5.4c0.9-1.6,2.2-3.1,3.3-4.8c0.7-1.1,2.3-1.9,3.4-3.3c0.9-1.2,1.1-3.1,2.2-4.3
						c1.1-1.2,2.5-1.9,3.6-3c1.2-1.2,2.4-2.2,3.5-3c2.7-2,2.7-2.9,1.8-3.5c-0.7-0.4-2.5,0.8-5.2,1.2c-1.5,0.2-3.3,0.4-5.2,0.8
						c-1.7,0.4-3.6-0.1-5.3,0.4c-1.7,0.4-3.4,1.2-5.1,1.6c-1.8,0.5-3.5,1-5.1,1.4c-2.1,0.5-4.2-0.4-5.5-0.1c-1.5,0.4-2.9,2-4.8,2.5
						c-1.6,0.5-3.2,1.6-4.9,2.1c-1.8,0.5-3.7,0.7-5.2,0.9c-2.1,0.3-3.8-0.6-4.9-1.4c-2.2-1.3-3.2-3.6-2-5.6c0.6-1,2.6-1.9,4.6-3
						c1.4-0.8,2.9-1.8,4.6-2.6c1.5-0.7,3.4-1,5.1-1.7c1.6-0.7,2.9-2.3,4.6-3c1.7-0.6,4,0.4,5.6-0.2c1.7-0.7,3.5-1.2,5-1.8
						c1.8-0.7,3.5-1.5,4.9-2.1c2.8-1.2,3.8-2.6,3.7-3.1c-0.1-0.5-1.7-0.2-4.9,0.3c-1.6,0.3-3.4,1.3-5.3,1.7c-1.8,0.4-4-0.8-5.9-0.4
						c-1.9,0.5-3.6,1.4-5.3,1.8c-1.4,0.3-3.1,0.5-4.8,1c-1.5,0.5-2.7,2-4.3,2.5c-1.5,0.5-3.4-0.2-5,0.2c-1.6,0.5-3,1.4-4.5,1.8
						c-1.7,0.4-3.3,0.5-4.7,0.6c-2,0.2-3.1-0.1-4.1-0.8c-2.4-1.4-2.6-2.2-1.4-4.2c0.7-1.2,1.8-2,3.5-3.2c1.3-0.9,2.3-2.4,3.9-3.2
						c1.4-0.7,2.8-2,4.4-2.7c1.5-0.7,3.3-0.8,4.9-1.4c1.6-0.6,3.1-1.4,4.7-2c1.7-0.6,3.4-0.8,4.9-1.3c1.8-0.5,3.5-1.1,5.2-1.6
						c1.9-0.5,3.6-0.8,5.2-1.3c2-0.5,3.5-1.8,5-2.2c3.2-0.9,5.2-1,5.1-1.4c-0.2-0.9-2.2-1.7-4.8-1.3c-1.5,0.2-2.9,1.8-4.6,2.2
						c-1.6,0.4-3.5,0-5,0.4c-2,0.5-3.7,1.1-4.8,1.3c-1.3,0.3-2.6,2-4.5,2.6c-1.5,0.5-3.6-0.6-5.3-0.1c-1.6,0.5-2.8,2.6-4.5,3
						c-1.7,0.3-3.6-0.3-5.2-0.3c-1.8,0-3.7-0.1-5-0.9c-1.9-1.2-2.4-3.1-1.1-5.2c0.5-0.9,1.8-2.3,3.7-3.4c1.2-0.7,2.9-1.3,4.5-2
						c1.4-0.7,3-1.3,4.6-1.9c1.5-0.6,2.9-1.7,4.4-2.3c1.6-0.5,3.4-0.3,5-0.7c1.6-0.5,3.3-0.8,4.9-1.2c1.7-0.5,3-1.9,4.6-2.3
						c1.8-0.5,3.6-0.3,5-0.7c3.1-0.9,4.8-1,4.2-1.4c-0.7-0.4-2.2-0.9-4.2-0.6c-1.4,0.2-3,0-4.5,0.3c-1.7,0.3-3.2,1.1-4.2,1.4
						c-1.3,0.3-3.4,0.2-5.5,0.6c-1.9,0.3-3.7,1.4-5.4,1.5c-2.5,0.1-3.9-0.5-4.2-2c-0.3-1.3-0.1-2.2,2-3.9c1.1-0.8,2.1-2.4,4.2-3.3
						c1.4-0.6,3.2-0.8,5.2-1.3c1.5-0.4,3.3-1,5.2-1.4c1.6-0.4,3.3-1.3,5.2-1.6c1.7-0.3,3.5-0.2,5.4-0.5c1.6-0.2,3.2-1,5.1-1.2
						c1.6-0.2,3.4-0.2,5.3-0.4c1.7-0.2,3.4-0.2,5.2-0.4c1.7-0.2,3.4-1,5.2-1.2c1.7-0.2,3.5,0.2,5.3,0.1c1.7-0.1,3.5,0.3,5.3,0.2
						c1.7-0.1,3.4-1.4,5.2-1.4c1.7-0.1,3.5,0.1,5.3,0.1c1.7,0,3.5-0.5,5.3-0.5c1.7,0,3.5,0.5,5.3,0.5c1.7,0,3.5,1,5.2,1.1
						c1.7,0.1,3.6-1.2,5.3-1.1c1.7,0.1,3.4,1,5.2,1.1c1.7,0.1,3.5,0.5,5.2,0.7c1.7,0.2,3.4,0.5,5.2,0.8c1.7,0.2,3.4,0.7,5.2,0.9
						c1.7,0.3,3.4,0.8,5.1,1.1c1.7,0.3,3.7-0.8,5.4-0.4c1.7,0.3,3.3,1.1,5.1,1.5c1.7,0.4,3.4,0.7,5.1,1.2c1.7,0.4,3.2,1.7,4.8,2.2
						c1.7,0.5,3.5,0.4,5.2,0.9c1.7,0.5,3.5,0.6,5.1,1.2c1.6,0.6,3,1.9,4.7,2.5c1.6,0.6,3.6,0.5,5.2,1.1c1.6,0.7,3,2,4.6,2.7
						c1.6,0.7,3.5,0.8,5.1,1.5c1.6,0.8,2.3,3.1,3.9,3.9c1.5,0.8,3.8,0.3,5.4,1.2c1.5,0.9,2.5,2.6,4,3.6c1.6,1,3.6,1,5.1,2
						c1.5,1,2.1,3.3,3.5,4.3c1.5,1.1,4,0.9,5.3,1.9c1.4,1.2,1.9,3.4,3.1,4.5c1.4,1.3,2.1,3,3.1,4.3c1.2,1.5,2.3,2.7,3.2,4.1
						c1,1.6,1.6,3.1,2.2,4.7c0.6,1.8,1.7,3.3,1.8,4.9c0.1,1.9,0.4,3.7,0,5.4c-0.5,1.7-2.4,2.8-3.3,4.3c-0.9,1.5-1.8,2.8-3,4.1
						c-1.2,1.3-1.7,3.3-3.1,4.4c-1.4,1.2-3.1,1.9-4.5,2.8c-1.6,1.1-3,2.3-4.4,3C205,581.7,205.7,581.7,203,581.5z"/>
				</g>
			</g>
		</g>
	</g>
</g>
</svg>
