<svg width="381" height="216" viewBox="0 0 381 216" fill="none" xmlns="http://www.w3.org/2000/svg">
<g clip-path="url(#clip0_1566_14411)">
<path d="M-0.000244141 0C125.73 0 251.46 0 381 0C381 71.28 381 142.56 381 216C255.27 216 129.54 216 -0.000244141 216C-0.000244141 144.72 -0.000244141 73.44 -0.000244141 0Z" fill="#DDCEF1"/>
<path d="M200.421 195.4C200.223 196 200.223 196 199.851 196.237C199.429 196.4 199.429 196.4 198.834 196.4C198.899 196.202 198.965 196.004 199.032 195.8C199.515 195.563 199.882 195.4 200.421 195.4Z" fill="#204439"/>
<path d="M305.807 -0.144561C306.131 -0.145087 306.455 -0.14614 306.78 -0.147674C307.669 -0.150359 308.558 -0.145559 309.447 -0.139543C310.422 -0.134296 311.396 -0.136057 312.37 -0.136925C314.26 -0.137562 316.15 -0.132026 318.041 -0.124323C320.228 -0.115678 322.414 -0.114729 324.601 -0.113781C330.374 -0.107483 336.147 -0.0907292 341.92 -0.0752559C354.816 -0.0505059 367.713 -0.0257559 381 -0.000255927C381 33.9237 381 67.8478 381 102.8C379.726 102.8 378.659 102.785 377.428 102.609C377.286 102.589 377.144 102.569 376.998 102.548C376.546 102.484 376.094 102.417 375.642 102.35C375.488 102.327 375.333 102.305 375.175 102.281C369.538 101.453 369.538 101.453 367.773 100.683C367.188 100.434 366.79 100.322 366.166 100.287C365.488 100.248 365.327 100.203 364.728 99.7998C364.348 99.7454 364.348 99.7454 363.934 99.7373C362.967 99.6521 362.238 99.3068 361.387 98.8505C360.813 98.6213 360.349 98.5228 359.744 98.4287C358.486 98.2163 357.403 97.7471 356.245 97.2248C354.674 96.5382 353.183 95.9929 351.518 95.5966C350.623 95.3377 349.826 94.9451 348.995 94.5287C347.944 94.0126 346.874 93.655 345.75 93.3369C344.98 93.1148 344.374 92.8178 343.693 92.3998C343.217 92.258 343.217 92.258 342.701 92.1623C341.313 91.837 340.018 91.3179 338.693 90.7967C337.502 90.3302 336.314 89.9201 335.087 89.5583C334.645 89.424 334.224 89.2728 333.796 89.0998C332.893 88.7427 331.952 88.5133 331.014 88.2712C330.039 88.0186 330.039 88.0186 329.604 87.7998C329.274 87.7593 328.943 87.7269 328.612 87.6998C327.664 87.622 327.664 87.622 327.223 87.3998C326.369 87.2285 325.506 87.1149 324.643 86.9998C324.503 86.9808 324.362 86.9619 324.217 86.9424C318.911 86.257 313.019 86.1286 307.845 87.6255C307.064 87.8304 306.324 87.8953 305.519 87.906C305.011 87.9974 304.708 88.1342 304.256 88.374C303.395 88.8312 302.529 89.076 301.587 89.3123C300.567 89.5696 299.743 89.8268 298.847 90.3998C298.429 90.5107 298.429 90.5107 298.016 90.5748C297.105 90.7562 296.371 91.1191 295.554 91.5552C295.126 91.7743 294.711 91.9432 294.258 92.0998C293.705 92.297 293.243 92.5382 292.753 92.8607C291.924 93.3927 291.072 93.8645 290.202 94.3248C290.06 94.4011 289.918 94.4774 289.772 94.556C288.908 95.0151 288.038 95.4191 287.139 95.7998C286.65 96.0686 286.244 96.2956 285.862 96.7044C285.551 96.9998 285.551 96.9998 284.894 97.2248C283.942 97.5607 283.141 98.1048 282.307 98.6613C281.291 99.3382 280.252 99.969 279.196 100.581C278.677 100.887 278.234 101.173 277.819 101.615C277.269 102.139 276.64 102.349 275.939 102.6C274.98 102.946 274.228 103.33 273.447 104C272.985 104.203 272.522 104.403 272.057 104.6C271.861 104.736 271.665 104.872 271.462 105.012C270.808 105.438 270.227 105.597 269.478 105.8C269.29 105.899 269.101 105.998 268.907 106.1C268.384 106.353 268.035 106.465 267.48 106.57C266.625 106.754 265.846 107.038 265.034 107.363C259.5 109.572 250.514 110.857 244.81 108.4C244.194 108.1 243.654 107.782 243.086 107.4C242.745 107.312 242.402 107.238 242.056 107.175C241.788 107.124 241.788 107.124 241.514 107.073C241.378 107.049 241.242 107.025 241.101 107C241.101 106.101 241.101 106.101 241.565 105.544C241.661 105.425 241.758 105.306 241.858 105.183C241.96 105.061 242.062 104.938 242.168 104.812C243.092 103.708 243.092 103.708 243.681 102.4C243.55 102.4 243.419 102.4 243.284 102.4C243.241 102.537 243.198 102.675 243.153 102.816C242.811 103.566 242.342 104.118 241.808 104.737C241.711 104.853 241.614 104.97 241.513 105.089C241.07 105.61 240.679 106.017 240.109 106.4C239.974 106.298 239.84 106.197 239.701 106.092C238.486 105.186 237.254 104.357 235.942 103.6C236.336 103.131 236.734 102.665 237.132 102.2C237.274 102.031 237.415 101.863 237.56 101.69C238.415 100.694 239.14 99.9882 240.307 99.3998C240.373 99.2678 240.438 99.1358 240.506 98.9998C239.265 99.5323 238.407 100.221 237.425 101.147C236.769 101.751 236.07 102.281 235.347 102.8C234.236 101.944 233.212 101.131 232.37 99.9998C232.687 99.1634 233.3 98.6463 233.945 98.0623C234.059 97.9573 234.173 97.8524 234.291 97.7443C235.197 96.9191 236.13 96.1345 237.084 95.3677C237.456 95.0604 237.789 94.7447 238.125 94.3998C236.792 95.0639 235.761 95.8546 234.702 96.8998C234.567 97.03 234.431 97.1601 234.292 97.2943C233.576 97.9868 232.871 98.6897 232.172 99.3998C230.669 98.7557 229.721 97.1899 228.94 95.8083C228.759 95.2876 228.769 95.103 228.997 94.5998C229.433 94.1169 229.433 94.1169 229.989 93.5998C230.174 93.425 230.36 93.2502 230.551 93.0701C230.748 92.8881 230.945 92.7063 231.142 92.5248C231.246 92.4291 231.349 92.3335 231.456 92.2349C232.18 91.5671 232.918 90.9185 233.675 90.2873C234.01 89.9889 234.01 89.9889 234.156 89.3998C233.254 90.1862 232.367 90.9855 231.489 91.7998C230.805 92.4252 230.119 93.0452 229.406 93.6373C229.269 93.7515 229.132 93.8657 228.991 93.9834C228.6 94.1998 228.6 94.1998 228.184 94.1873C227.677 93.9358 227.552 93.667 227.297 93.1623C227.215 92.9998 227.132 92.8374 227.047 92.6701C226.932 92.4373 226.932 92.4373 226.814 92.1998C226.691 91.9811 226.568 91.7625 226.442 91.5373C226.193 90.9387 226.191 90.7876 226.417 90.1998C226.876 89.8607 227.318 89.565 227.806 89.2748C228.739 88.779 228.739 88.779 229.393 87.9998C229.202 88.1129 229.011 88.2261 228.814 88.3427C228.56 88.491 228.307 88.6391 228.054 88.7873C227.928 88.8619 227.802 88.9365 227.673 89.0134C227.059 89.3708 226.513 89.6495 225.822 89.7998C225.768 89.6306 225.715 89.4615 225.66 89.2873C225.435 88.5987 225.435 88.5987 225.139 87.9498C224.437 86.3111 224.13 84.7122 224.011 82.9373C223.995 82.7299 223.98 82.5226 223.964 82.3089C223.817 80.2745 223.707 78.2384 223.639 76.1998C223.626 75.8343 223.626 75.8343 223.613 75.4615C223.589 74.1712 223.65 72.9768 224.234 71.7998C224.265 71.4502 224.289 71.1001 224.308 70.7498C224.384 69.8195 224.591 69.2267 225.028 68.3998C225.098 68.0763 225.159 67.751 225.214 67.4248C225.334 66.743 225.491 66.2066 225.822 65.5998C226.136 65.0213 226.277 64.5519 226.367 63.8998C226.846 61.1073 228.843 58.3454 230.441 56.088C230.766 55.6238 231.073 55.1518 231.378 54.6748C231.853 53.9523 232.377 53.3167 232.954 52.6755C233.586 51.9385 234.169 51.162 234.752 50.3844C235.29 49.6796 235.833 49.1451 236.537 48.5998C236.656 48.4183 236.775 48.2368 236.897 48.0498C238.23 46.0528 240.278 44.5499 242.2 43.1685C242.715 42.7982 242.715 42.7982 243.21 42.2747C243.634 41.847 244.01 41.5718 244.512 41.2498C245.216 40.7964 245.788 40.3013 246.385 39.7122C247.307 38.8423 248.261 38.3517 249.418 37.8764C250.18 37.5564 250.56 37.2794 251.023 36.5998C251.394 36.4185 251.394 36.4185 251.792 36.2998C252.33 36.1382 252.631 35.983 253.073 35.6193C253.678 35.1399 254.255 34.8837 254.967 34.5872C256.392 33.9809 257.79 33.3249 259.184 32.6497C259.379 32.5554 259.574 32.461 259.775 32.3638C260.53 31.9979 261.282 31.6298 262.031 31.2521C262.771 30.8799 263.534 30.565 264.295 30.2404C267.123 29.0051 269.888 27.5569 272.479 25.8747C273.12 25.4588 273.788 25.1315 274.476 24.7997C275.357 24.3655 275.963 23.9418 276.622 23.1997C277.018 22.9331 277.415 22.6664 277.812 22.3997C277.98 22.2306 278.148 22.0615 278.321 21.8872C278.804 21.3997 278.804 21.3997 279.313 21.0997C279.825 20.82 279.825 20.82 280.181 20.3122C280.65 19.725 281.161 19.4161 281.781 18.9997C281.912 18.8306 282.043 18.6615 282.178 18.4872C282.575 17.9997 282.575 17.9997 283.133 17.7247C283.973 17.293 284.514 16.6861 285.154 15.9997C285.816 15.3331 286.477 14.6664 287.139 13.9997C287.247 13.8855 287.356 13.7713 287.468 13.6537C287.986 13.1152 288.458 12.6453 289.086 12.2372C289.9 11.6744 290.539 10.9889 291.228 10.2794C291.595 9.90895 291.958 9.56638 292.36 9.23725C292.907 8.80521 292.907 8.80521 293.402 8.27475C293.886 7.79975 293.886 7.79975 294.352 7.52943C294.937 7.16248 295.356 6.74992 295.833 6.24974C296.414 5.65023 296.992 5.0736 297.631 4.53724C298.471 3.81907 299.192 2.99928 299.908 2.15848C301.661 0.16619 303.233 -0.175477 305.807 -0.144561Z" fill="#E4F5FC"/>
<path d="M-0.000488281 0C31.2356 0 62.4716 0 94.6542 0C95.0471 1.584 95.44 3.168 95.8448 4.8C96.1907 5.99229 96.5368 7.18051 96.9028 8.36602C97.0273 8.77327 97.1474 9.1815 97.2657 9.59063C97.3329 9.82059 97.4002 10.0506 97.4695 10.2875C97.5256 10.4811 97.5816 10.6747 97.6393 10.8742C97.8416 11.4342 98.1171 11.8925 98.4245 12.4C98.571 12.807 98.571 12.807 98.685 13.2125C99.0979 14.5248 99.6751 15.9043 100.516 16.9969C100.877 17.499 101.061 18.0077 101.277 18.5875C101.664 19.5518 102.041 20.0811 102.79 20.8C103.158 21.3998 103.498 22.012 103.842 22.6258C104.233 23.2912 104.666 23.8213 105.171 24.4C105.362 24.6908 105.362 24.6908 105.556 24.9875C106.039 25.7108 106.585 26.3463 107.156 27C107.264 27.1305 107.373 27.2609 107.485 27.3953C108.194 28.2379 108.941 28.9646 109.775 29.6797C110.222 30.0801 110.588 30.5033 110.926 31C110.926 31.132 110.926 31.264 110.926 31.4C111.099 31.4446 111.272 31.4892 111.451 31.5352C112.211 31.8373 112.68 32.2663 113.245 32.8375C114.164 33.7313 115.094 34.4341 116.209 35.0734C116.681 35.4 116.681 35.4 117.081 35.9086C117.505 36.4378 117.805 36.6195 118.417 36.8875C119.078 37.1984 119.637 37.5116 120.203 37.975C120.997 38.607 121.869 39.0365 122.775 39.4771C123.677 39.9175 124.525 40.4131 125.376 40.9453C125.77 41.1774 126.153 41.3567 126.578 41.525C127.198 41.8 127.198 41.8 127.595 42.225C127.985 42.6675 127.985 42.6675 128.674 42.6875C129.381 42.8 129.381 42.8 129.802 43.25C130.551 43.9712 131.325 44.1998 132.289 44.55C133.21 44.897 134.067 45.3403 134.937 45.8C136.334 46.5374 136.334 46.5374 137.814 47.075C138.745 47.3644 139.436 47.8833 140.215 48.4602C140.869 48.9263 141.554 49.2623 142.279 49.6C144.213 50.5136 144.213 50.5136 144.909 51.125C145.436 51.6261 145.436 51.6261 146.099 51.9125C146.709 52.2336 146.771 52.3953 147.042 53C147.151 53.0544 147.26 53.1088 147.372 53.1648C147.999 53.4829 148.527 53.9144 149.076 54.35C149.307 54.5324 149.539 54.7147 149.77 54.8969C149.882 54.9844 149.993 55.0719 150.107 55.1621C150.483 55.4528 150.871 55.7257 151.258 56C152.057 56.5989 152.682 57.3284 153.332 58.0836C153.779 58.589 154.247 59.0563 154.731 59.525C155.392 60.1803 155.885 60.8242 156.345 61.632C156.566 61.9983 156.808 62.3035 157.088 62.625C157.558 63.1994 157.841 63.7282 158.154 64.4C158.558 65.1239 158.971 65.8404 159.395 66.5524C160.327 68.1352 161.022 69.5644 161.329 71.4C161.365 71.6008 161.4 71.8017 161.436 72.0086C161.501 72.3801 161.564 72.7522 161.621 73.125C161.702 73.5995 161.702 73.5995 161.935 73.9781C162.202 74.5774 162.161 75.0971 162.148 75.75C162.144 75.9841 162.141 76.2182 162.137 76.4594C162.13 76.727 162.13 76.727 162.123 77C161.905 77.0606 161.688 77.1212 161.463 77.1836C161.175 77.2681 160.886 77.3527 160.597 77.4375C160.454 77.4768 160.311 77.5161 160.164 77.5566C159.18 77.8509 158.657 78.2168 157.956 79C157.755 79.0866 157.555 79.1733 157.348 79.2625C156.539 79.7311 156.312 80.3496 155.971 81.2C156.584 80.8589 156.584 80.8589 156.802 80.3375C157.238 79.687 157.692 79.4269 158.357 79.0391C158.787 78.792 158.787 78.792 159.258 78.3625C160.257 77.614 161.419 77.4931 162.634 77.5266C163.632 77.6789 164.174 78.2087 164.81 78.9617C165.705 80.2946 165.736 81.8436 165.496 83.4C165.267 83.9016 165.002 84.3341 164.703 84.8C164.444 84.7884 164.185 84.7768 163.918 84.7649C161.525 84.6898 159.718 84.821 157.708 86.2625C157.326 86.8537 157.215 87.2926 157.266 88.0008C157.442 88.7425 157.793 89.1061 158.353 89.6C158.889 89.8077 159.369 89.9024 159.94 90C159.434 91.6595 158.672 93.1936 157.894 94.7375C157.788 94.955 157.788 94.955 157.681 95.1768C157.145 96.2205 156.507 96.8983 155.575 97.6C155.39 97.3092 155.39 97.3092 155.202 97.0125C154.849 96.3943 154.849 96.3943 154.384 96.2C154.439 96.3085 154.494 96.4171 154.551 96.5289C154.622 96.672 154.694 96.8151 154.768 96.9625C154.84 97.104 154.911 97.2456 154.985 97.3914C155.178 97.8 155.178 97.8 155.376 98.4C155.121 98.8392 154.867 99.2143 154.558 99.6125C154.424 99.7859 154.424 99.7859 154.288 99.9627C153.46 100.993 152.516 101.762 151.453 102.532C150.843 102.977 150.271 103.448 149.696 103.938C148.831 104.657 147.937 105.271 146.982 105.861C146.44 106.204 145.923 106.572 145.405 106.95C144.237 107.78 143.024 108.234 141.668 108.651C141.248 108.786 141.248 108.786 140.89 109.2C140.474 109.295 140.057 109.388 139.639 109.473C139.048 109.613 138.487 109.8 137.914 110C137.049 110.301 136.202 110.536 135.302 110.702C134.874 110.796 134.874 110.796 134.342 111.2C130.011 112.288 121.063 113.009 117.078 111C116.743 110.989 116.408 110.981 116.073 110.975C114.641 110.878 113.31 110.516 111.931 110.125C111.714 110.064 111.498 110.003 111.275 109.941C110.239 109.639 109.302 109.31 108.346 108.8C107.91 108.677 107.91 108.677 107.491 108.613C106.856 108.484 106.324 108.309 105.742 108.025C104.945 107.641 104.158 107.44 103.299 107.238C102.082 106.945 101.221 106.468 100.238 105.693C99.6597 105.294 99.1115 105.28 98.4245 105.2C98.0236 104.872 97.6267 104.538 97.2339 104.2C96.9139 104.111 96.9139 104.111 96.5874 104.021C95.785 103.782 95.1651 103.418 94.4806 102.95C94.3693 102.876 94.258 102.802 94.1434 102.726C93.6427 102.392 93.145 102.054 92.6489 101.713C91.5707 100.978 90.4659 100.31 89.3336 99.6625C89.0054 99.4747 88.6775 99.2865 88.3499 99.0977C88.2075 99.0163 88.0651 98.9349 87.9183 98.851C87.4963 98.5913 87.1105 98.3009 86.7167 98C86.4757 97.8773 86.2317 97.7605 85.985 97.65C85.3525 97.3435 84.8478 96.9871 84.3099 96.5344C83.371 95.787 82.3974 95.2899 81.3093 94.8C80.9414 94.6289 80.5737 94.4573 80.2062 94.2852C79.9415 94.1617 79.9415 94.1617 79.6715 94.0357C78.3167 93.3912 76.9977 92.6787 75.753 91.8375C75.0731 91.3932 74.431 91.2227 73.6353 91.0914C73.1841 90.9914 72.8411 90.808 72.4292 90.6C71.9763 90.4861 71.5227 90.3998 71.0642 90.3125C70.6433 90.2 70.6433 90.2 70.048 89.8C69.6222 89.7237 69.6222 89.7237 69.1674 89.7C68.4935 89.654 68.0654 89.5103 67.4683 89.2C67.1767 89.129 66.8829 89.0666 66.5877 89.0125C66.0302 88.8967 65.6887 88.8039 65.1986 88.5C64.5361 88.1091 63.895 88.0154 63.1437 87.8859C62.7058 87.8 62.7058 87.8 62.3089 87.6C61.9212 87.5359 61.5323 87.4786 61.1431 87.425C59.5315 87.183 57.9702 86.8267 56.4302 86.2875C55.6696 86.0224 54.9141 85.8562 54.1241 85.7055C53.4893 85.583 52.8574 85.451 52.2258 85.3125C52.0158 85.2674 51.8058 85.2223 51.5894 85.1758C50.998 85 50.998 85 50.4926 84.6922C49.9474 84.365 49.5533 84.2905 48.9268 84.2125C48.0068 84.0775 47.1495 83.8732 46.2603 83.6C45.0776 83.2431 43.924 83.0554 42.7016 82.8984C41.8495 82.766 41.0827 82.5152 40.2823 82.2C40.0054 82.0958 39.7284 81.9916 39.4514 81.8875C39.2753 81.8191 39.2753 81.8191 39.0956 81.7492C38.9633 81.7 38.8311 81.6507 38.6948 81.6C38.5122 81.5317 38.3295 81.4634 38.1414 81.393C37.4482 81.183 36.7975 81.0999 36.0779 81.025C34.9514 80.8915 33.9573 80.6389 32.9037 80.2164C32.2539 79.9648 31.5988 79.7605 30.931 79.5625C30.6048 79.4654 30.6048 79.4654 30.2721 79.3664C29.7285 79.2382 29.2398 79.1574 28.6885 79.1031C27.8211 79.0158 27.0171 78.8307 26.1809 78.5875C25.9545 78.5231 25.9545 78.5231 25.7236 78.4573C24.2343 78.0242 22.7685 77.5222 21.3014 77.019C19.6286 76.4493 17.9413 75.9448 16.2399 75.4692C15.2612 75.1912 14.3989 74.8741 13.4933 74.4C13.0053 74.2688 13.0053 74.2688 12.5259 74.2C11.6009 74.0296 10.7902 73.7545 9.92139 73.4C9.49564 73.2373 9.06982 73.0748 8.64395 72.9125C7.59844 72.5071 6.57524 72.0671 5.55576 71.6C4.97686 71.3438 4.47908 71.1821 3.85664 71.05C2.86935 70.8164 2.01175 70.3397 1.11805 69.868C0.594383 69.5834 0.594383 69.5834 -0.000488281 69.4C-0.000488281 46.498 -0.000488281 23.596 -0.000488281 0Z" fill="#DBF4DE"/>
<path d="M98.9919 126.861C99.3264 127.164 99.6563 127.473 99.981 127.786C100.339 128.132 100.7 128.433 101.091 128.737C102.988 130.374 105.419 133.458 105.767 136C105.898 136 106.029 136 106.164 136C105.236 133.13 103.658 130.968 101.6 128.8C101.476 128.663 101.352 128.525 101.225 128.384C100.261 127.35 99.1827 126.581 98.0183 125.796C96.9956 125.105 96.9956 125.105 96.6386 124.8C96.6386 124.668 96.6386 124.536 96.6386 124.4C96.5076 124.334 96.3766 124.268 96.2417 124.2C97.8849 124.084 99.1 124.355 100.607 125C100.934 125.129 101.26 125.258 101.587 125.387C101.922 125.524 102.257 125.662 102.592 125.8C102.796 125.883 103 125.966 103.21 126.051C103.42 126.137 103.629 126.224 103.844 126.312C104.036 126.391 104.228 126.47 104.425 126.551C104.968 126.797 105.459 127.085 105.965 127.4C106.141 127.482 106.317 127.565 106.498 127.65C107.261 128.056 107.937 128.541 108.638 129.044C109.834 129.895 109.834 129.895 111.129 130.576C113.199 131.759 114.513 135.792 115.135 137.968C115.213 138.281 115.213 138.281 115.292 138.6C115.327 138.727 115.362 138.854 115.397 138.985C115.735 140.314 115.755 141.608 115.751 142.975C115.754 143.196 115.757 143.418 115.76 143.646C115.761 145.12 115.554 146.4 115.093 147.8C115.523 147.636 115.523 147.636 115.659 147.21C116.632 143.737 116.315 139.698 114.985 136.366C114.874 135.917 114.952 135.634 115.093 135.2C116.445 135.777 117.046 137.136 117.673 138.4C117.859 138.657 118.05 138.911 118.243 139.162C119.412 140.718 120.016 142.183 120.476 144.07C120.708 144.998 121.012 145.801 121.471 146.641C121.772 147.273 121.809 147.912 121.84 148.6C121.857 148.782 121.874 148.964 121.892 149.152C122.047 151.91 120.856 154.572 119.657 157C120.208 156.515 120.458 156.021 120.749 155.35C120.834 155.154 120.919 154.958 121.007 154.756C121.085 154.572 121.164 154.389 121.245 154.2C121.305 154.066 121.365 153.932 121.427 153.793C121.776 153.009 122.019 152.229 122.237 151.4C122.368 151.4 122.499 151.4 122.634 151.4C122.822 152.04 122.858 152.616 122.859 153.282C122.859 153.494 122.859 153.707 122.86 153.926C122.859 154.266 122.859 154.266 122.857 154.612C122.857 154.844 122.856 155.076 122.856 155.315C122.845 157.28 122.791 159.241 122.634 161.2C122.625 161.343 122.616 161.487 122.607 161.635C122.554 162.263 122.512 162.702 122.119 163.204C121.994 163.294 121.87 163.383 121.741 163.475C121.202 163.856 121.202 163.856 120.848 164.4C121.372 164.136 121.896 163.872 122.435 163.6C121.348 168.794 121.348 168.794 120.541 170.417C120.293 170.918 120.145 171.335 120.017 171.875C119.622 173.258 118.943 174.497 118.289 175.77C118.066 176.207 117.849 176.647 117.634 177.089C117.564 177.233 117.493 177.377 117.421 177.526C117.286 177.802 117.152 178.078 117.019 178.354C116.771 178.858 116.533 179.334 116.189 179.778C115.891 180.194 115.723 180.568 115.527 181.04C115.102 182.034 114.543 182.876 113.915 183.75C113.813 183.895 113.712 184.041 113.607 184.191C113.032 185.002 112.427 185.7 111.72 186.4C111.521 186.685 111.33 186.977 111.149 187.275C110.767 187.873 110.389 188.366 109.872 188.85C109.232 189.455 108.781 190.135 108.309 190.875C107.536 192.072 106.7 192.791 105.509 193.58C104.905 194.053 104.587 194.553 104.179 195.2C103.785 195.47 103.388 195.737 102.989 196C102.767 196.282 102.546 196.564 102.325 196.847C101.388 197.852 100.166 198.608 99.0516 199.401C97.8782 200.24 96.8256 201.146 95.7727 202.135C95.1678 202.672 94.535 203.109 93.855 203.543C93.4102 203.835 93.0126 204.17 92.6125 204.521C92.169 204.885 91.7001 205.207 91.2312 205.537C90.2475 206.249 89.4248 207.044 88.5864 207.922C87.9957 208.509 87.3567 208.998 86.6927 209.497C86.2872 209.802 86.2872 209.802 85.9354 210.3C85.5063 210.824 85.1086 211.093 84.5463 211.462C83.7145 212.028 83.2421 212.535 82.765 213.416C82.5475 213.803 82.3058 214.115 82.0162 214.45C81.637 214.904 81.4114 215.274 81.1605 215.8C80.5873 216.089 80.0941 216.025 79.4534 216.024C79.3166 216.025 79.1798 216.025 79.0388 216.025C78.5758 216.026 78.1128 216.025 77.6497 216.024C77.3163 216.024 76.9828 216.024 76.6493 216.024C75.7294 216.025 74.8094 216.024 73.8895 216.023C72.8988 216.022 71.9081 216.022 70.9174 216.023C69.1997 216.023 67.4821 216.022 65.7644 216.021C63.281 216.019 60.7975 216.019 58.3141 216.018C54.2852 216.018 50.2564 216.017 46.2275 216.015C42.313 216.013 38.3984 216.012 34.4838 216.011C34.2402 216.011 33.9966 216.011 33.7457 216.011C31.8407 216.01 29.9357 216.01 28.0307 216.009C18.6869 216.007 9.34323 216.003 -0.000488281 216C-0.000488281 197.916 -0.000488281 179.832 -0.000488281 161.2C3.9885 161.646 3.9885 161.646 5.84102 161.9C6.60566 162.001 7.37049 162.101 8.13545 162.2C8.37512 162.231 8.37512 162.231 8.61963 162.262C15.9765 163.411 15.9765 163.411 23.0183 162.2C23.6721 162.16 24.3246 162.131 24.9794 162.114C25.9317 162.071 26.5284 161.849 27.3839 161.4C28.08 161.268 28.08 161.268 28.7978 161.187C29.7008 161.105 29.7008 161.105 30.5417 160.804C30.9933 160.581 31.3782 160.503 31.8735 160.422C32.9497 160.218 33.9157 159.86 34.9245 159.437C35.0979 159.366 35.2712 159.295 35.4498 159.222C36.4939 158.789 37.5083 158.322 38.5057 157.787C38.8933 157.6 38.8933 157.6 39.6002 157.425C40.4221 157.154 40.9068 156.721 41.5675 156.172C42.2887 155.636 43.0746 155.281 43.8821 154.895C44.5477 154.549 45.0994 154.128 45.682 153.658C46.037 153.4 46.037 153.4 46.7191 153.125C47.5585 152.739 48.1101 152.224 48.7733 151.587C49.8913 150.6 49.8913 150.6 50.6011 150.6C50.6541 150.479 50.7071 150.359 50.7617 150.235C51.0032 149.79 51.2196 149.555 51.6026 149.232C51.7213 149.131 51.8399 149.029 51.9622 148.925C52.086 148.822 52.2098 148.719 52.3374 148.612C52.4581 148.51 52.5789 148.407 52.7033 148.302C53.1725 147.904 53.6442 147.509 54.1171 147.116C54.5565 146.75 54.9784 146.388 55.376 145.975C55.7605 145.6 55.7605 145.6 56.2565 145.325C56.7982 145.018 56.7982 145.018 57.1371 144.4C57.5464 143.8 57.5464 143.8 58.1045 143.525C58.8581 143.138 59.2245 142.672 59.7571 142.023C60.2418 141.467 60.7873 141.009 61.3469 140.532C61.6843 140.226 61.9643 139.919 62.2469 139.562C62.7058 139 62.7058 139 63.2267 138.587C63.719 138.233 63.719 138.233 63.9522 137.725C64.3712 137.08 64.8085 136.812 65.4591 136.412C66.445 135.786 66.445 135.786 67.245 134.95C67.7172 134.334 68.2167 134.026 68.8573 133.6C68.9842 133.431 69.1111 133.261 69.2418 133.087C69.764 132.465 70.301 132.313 71.0401 132C71.1998 131.839 71.3594 131.678 71.5238 131.512C72.0292 131.003 72.4934 130.747 73.1354 130.445C74.4912 129.758 75.7932 128.914 77.0181 128.012C77.9689 127.325 78.8344 127.291 79.9698 127.4C83.022 127.949 85.6896 129.401 87.9073 131.6C87.9073 131.732 87.9073 131.864 87.9073 132C88.1038 132 88.3002 132 88.5026 132C86.4483 129.36 83.403 127.698 80.1683 127C80.1683 126.868 80.1683 126.736 80.1683 126.6C81.535 125.913 82.8088 125.298 84.3308 125.084C84.7922 125.013 84.7922 125.013 85.3276 124.6C86.1742 124.407 87.0361 124.299 87.8949 124.175C88.1278 124.138 88.3607 124.102 88.6007 124.065C92.5964 123.472 95.8246 124.288 98.9919 126.861Z" fill="#F1EBF9"/>
<path d="M305.866 118.175C306.078 118.174 306.289 118.173 306.507 118.173C306.812 118.173 306.812 118.173 307.123 118.173C307.306 118.174 307.489 118.174 307.677 118.174C308.139 118.198 308.522 118.279 308.967 118.4C309.373 118.438 309.779 118.476 310.186 118.509C312.047 118.664 313.868 118.944 315.701 119.3C315.923 119.343 316.145 119.385 316.374 119.429C317.969 119.748 317.969 119.748 318.59 120.005C319.129 120.217 319.612 120.295 320.185 120.37C321.507 120.579 322.694 120.998 323.936 121.487C324.248 121.606 324.248 121.606 324.567 121.727C326.093 122.315 326.093 122.315 326.746 122.716C327.282 123.035 327.796 123.133 328.399 123.27C328.835 123.408 329.13 123.588 329.505 123.85C330.273 124.375 331.089 124.661 331.961 124.962C333.225 125.405 334.128 125.959 335.139 126.863C335.695 127.311 336.264 127.425 336.946 127.6C337.281 127.929 337.612 128.263 337.939 128.6C338.278 128.743 338.617 128.886 338.958 129.026C339.561 129.31 340.065 129.72 340.58 130.137C340.692 130.226 340.804 130.315 340.92 130.406C341.421 130.804 341.917 131.208 342.41 131.616C343.5 132.516 344.631 133.307 345.809 134.083C346.687 134.665 347.472 135.294 348.257 136C348.416 136.094 348.575 136.188 348.739 136.285C349.247 136.599 349.628 136.934 350.056 137.35C350.898 138.119 351.779 138.671 352.769 139.228C353.489 139.642 354.185 140.084 354.88 140.537C354.993 140.611 355.107 140.685 355.223 140.761C357.238 142.078 357.238 142.078 358.043 142.712C358.707 143.198 359.37 143.428 360.151 143.663C360.668 143.836 361.089 144.117 361.553 144.4C361.786 144.466 362.019 144.532 362.26 144.6C362.942 144.8 362.942 144.8 363.314 145.1C363.877 145.5 364.423 145.562 365.092 145.694C365.638 145.829 366.037 146.104 366.514 146.4C366.78 146.474 367.049 146.54 367.32 146.6C367.989 146.751 368.346 146.985 368.895 147.4C369.289 147.52 369.682 147.611 370.085 147.695C370.482 147.8 370.482 147.8 370.875 148.002C371.307 148.215 371.658 148.281 372.132 148.35C373.573 148.619 374.892 149.234 376.237 149.8C377.483 150.294 378.75 150.733 380.012 151.183C380.603 151.4 380.603 151.4 381 151.6C381 172.852 381 194.104 381 216C372.208 216.021 363.417 216.041 354.359 216.062C350.19 216.076 350.19 216.076 345.936 216.09C342.552 216.095 342.552 216.095 340.969 216.095C339.859 216.096 338.75 216.1 337.641 216.106C336.362 216.112 335.083 216.115 333.805 216.113C333.15 216.113 332.496 216.114 331.842 216.119C331.142 216.124 330.442 216.123 329.742 216.12C329.536 216.123 329.331 216.126 329.12 216.129C327.746 216.115 327.746 216.115 327.107 215.535C326.659 214.681 326.391 213.792 326.101 212.875C325.828 212.186 325.504 211.768 325.04 211.2C324.722 210.553 324.443 209.895 324.16 209.231C323.852 208.605 323.496 208.136 323.056 207.6C322.833 207.188 322.833 207.188 322.659 206.8C322.335 206.119 321.953 205.58 321.468 205C321.358 204.823 321.247 204.645 321.133 204.463C320.751 203.869 320.294 203.369 319.819 202.85C319.21 202.184 318.685 201.52 318.194 200.763C317.62 199.905 317.003 199.369 316.175 198.77C315.654 198.352 315.244 197.894 314.808 197.388C314.152 196.625 313.493 196.035 312.676 195.458C312.34 195.2 312.34 195.2 311.968 194.713C311.414 194.039 310.752 193.626 310.036 193.14C309.562 192.8 309.562 192.8 309.041 192.262C308.615 191.845 308.369 191.681 307.847 191.44C306.963 191.007 306.181 190.473 305.382 189.9C304.617 189.354 303.859 188.818 303.039 188.357C302.418 188 302.418 188 302.021 187.588C301.622 187.151 301.622 187.151 300.955 186.912C300.307 186.631 299.931 186.343 299.413 185.877C298.751 185.378 297.992 185.055 297.25 184.694C296.489 184.312 295.789 183.864 295.076 183.4C294.734 183.186 294.391 182.973 294.047 182.762C293.888 182.665 293.73 182.567 293.567 182.466C293.101 182.189 293.101 182.189 292.603 182.02C291.974 181.745 291.539 181.364 291.021 180.912C290.287 180.274 289.6 179.82 288.726 179.4C288.395 179.133 288.065 178.867 287.734 178.6C287.55 178.513 287.366 178.427 287.176 178.337C286.463 177.957 285.937 177.497 285.343 176.953C285.007 176.647 284.665 176.36 284.311 176.075C283.765 175.6 283.765 175.6 283.393 175.125C282.929 174.548 282.422 174.101 281.864 173.618C281.285 173.114 280.712 172.604 280.144 172.087C280.043 171.998 279.942 171.909 279.839 171.817C279.167 171.204 278.7 170.563 278.209 169.8C277.857 169.365 277.486 168.946 277.118 168.525C276.315 167.593 275.734 166.733 275.232 165.6C275.101 165.439 274.97 165.278 274.835 165.112C274.483 164.658 274.295 164.313 274.074 163.791C273.79 163.134 273.5 162.482 273.198 161.834C272.044 159.339 271.238 157.143 271.126 154.362C271.065 153.798 270.916 153.499 270.668 153C270.623 152.476 270.623 152.476 270.631 151.912C270.632 151.727 270.634 151.542 270.635 151.351C270.668 150.8 270.668 150.8 270.764 150.33C270.865 149.806 270.919 149.3 270.959 148.768C270.974 148.576 270.99 148.385 271.006 148.187C271.037 147.787 271.068 147.386 271.097 146.986C271.113 146.794 271.129 146.603 271.145 146.405C271.158 146.232 271.172 146.058 271.185 145.879C271.267 145.38 271.435 145.047 271.66 144.6C271.681 144.34 271.701 144.08 271.722 143.812C271.819 142.753 272.193 141.857 272.591 140.878C272.842 140.224 273.029 139.576 273.211 138.9C273.606 137.573 274.253 136.518 275.003 135.366C275.254 134.966 275.485 134.557 275.714 134.144C276.547 132.644 277.328 131.351 278.602 130.181C278.995 129.807 279.297 129.43 279.61 128.987C280.626 127.577 281.746 126.558 283.25 125.702C284.271 125.104 285.234 124.403 286.167 123.674C286.586 123.369 287.022 123.198 287.499 123.002C288.059 122.741 288.58 122.429 289.111 122.112C290.614 121.22 291.9 120.553 293.61 120.157C294.217 120.015 294.819 119.856 295.421 119.694C296.933 119.291 298.416 119.052 299.972 118.898C300.604 118.841 300.604 118.841 301.015 118.602C302.405 117.92 304.359 118.169 305.866 118.175Z" fill="#F1EBF9"/>
<path d="M155.178 0C178.359 0 201.541 0 225.425 0C225.294 0.33 225.163 0.66 225.028 1C224.949 1.52278 224.883 2.03735 224.829 2.5625C224.638 4.2803 224.638 4.2803 224.42 5.05C224.204 5.92124 224.15 6.75825 224.104 7.65313C224.036 8.2 224.036 8.2 223.84 8.5436C223.558 9.18215 223.556 9.75161 223.523 10.4492C223.515 10.5962 223.508 10.7432 223.501 10.8947C223.413 12.7902 223.369 14.6877 223.33 16.5847C223.316 17.2178 223.301 17.8509 223.285 18.484C223.276 18.8917 223.268 19.2993 223.259 19.707C223.254 19.8937 223.25 20.0804 223.245 20.2728C223.224 21.3412 223.294 22.3421 223.44 23.4C223.465 23.8273 223.484 24.255 223.496 24.6828C223.504 24.9177 223.511 25.1526 223.519 25.3945C223.526 25.6356 223.533 25.8766 223.54 26.125C223.581 27.5302 223.628 28.9299 223.742 30.3313C223.864 31.9719 223.874 33.609 223.874 35.2534C223.874 35.7729 223.878 36.2923 223.882 36.8117C223.891 39.6127 223.632 42.2944 223.044 45.0375C222.811 46.1526 222.603 47.2562 222.461 48.3875C222.299 49.5145 221.945 50.4933 221.515 51.543C221.169 52.4268 220.914 53.33 220.661 54.2445C220.464 54.8 220.223 55.1379 219.869 55.6C219.702 56.0351 219.702 56.0351 219.583 56.4875C219.335 57.2819 219.02 57.762 218.479 58.4C218.297 58.693 218.12 58.9893 217.946 59.2875C217.727 59.6585 217.508 60.0294 217.289 60.4C217.189 60.5696 217.189 60.5696 217.086 60.7426C216.194 62.2368 215.334 63.5575 213.915 64.6C213.638 64.804 213.361 65.0082 213.084 65.2125C212.953 65.3092 212.821 65.4059 212.686 65.5055C212.341 65.7895 212.09 66.0698 211.819 66.425C211.27 67.0776 210.682 67.4043 209.947 67.8C209.81 67.8736 209.674 67.9471 209.534 68.0229C208.954 68.3331 208.373 68.6398 207.792 68.9465C207.191 69.2651 206.6 69.5833 206.022 69.943C205.6 70.1892 205.275 70.306 204.8 70.4C204.295 70.5003 203.931 70.6329 203.469 70.8742C199.657 72.739 192.893 73.6705 188.763 72.5C188.233 72.3811 187.719 72.3467 187.176 72.3125C185.101 72.1571 183.394 71.5832 181.57 70.6C180.896 70.2767 180.24 70.0143 179.511 69.8375C178.734 69.5808 178.223 69.226 177.561 68.7555C176.736 68.227 175.859 67.8122 174.974 67.396C173.899 66.8773 173.078 66.2547 172.244 65.3875C171.841 64.9691 171.841 64.9691 171.264 64.625C170.592 64.1555 170.179 63.636 169.664 63C169.374 62.765 169.084 62.53 168.792 62.2977C168.262 61.8025 167.861 61.2089 167.443 60.6172C167.104 60.1764 167.104 60.1764 166.611 59.9305C165.907 59.4826 165.515 58.9153 165.038 58.2375C164.942 58.1038 164.847 57.97 164.749 57.8322C163.926 56.6606 163.203 55.4544 162.529 54.1889C162.302 53.7641 162.071 53.3423 161.839 52.9203C160.692 50.8058 159.748 48.6535 158.909 46.3977C158.752 45.9906 158.752 45.9906 158.538 45.5765C158.265 45.0219 158.193 44.4495 158.087 43.8438C157.982 43.3864 157.982 43.3864 157.669 43.0402C157.312 42.5312 157.197 42.1179 157.056 41.5125C157.006 41.3003 156.956 41.0881 156.905 40.8695C156.855 40.6486 156.805 40.4276 156.753 40.2C156.702 39.9852 156.651 39.7705 156.599 39.5492C156.3 38.2632 156.055 36.9785 155.859 35.6727C155.795 35.1983 155.795 35.1983 155.575 34.8C155.487 34.0676 155.413 33.3352 155.344 32.6008C155.268 31.8475 155.173 31.1362 154.967 30.407C154.719 29.475 154.744 28.5711 154.769 27.6125C154.781 27.0076 154.785 26.4052 154.781 25.8C154.716 25.734 154.65 25.668 154.583 25.6C154.563 25.1168 154.555 24.6395 154.556 24.1563C154.556 24.0099 154.556 23.8635 154.556 23.7127C154.556 23.4013 154.556 23.0899 154.557 22.7785C154.558 22.3075 154.557 21.8366 154.555 21.3656C154.555 20.0671 154.559 18.7863 154.732 17.4975C154.802 16.7843 154.815 16.0707 154.83 15.3547C154.835 15.1277 154.835 15.1277 154.84 14.8962C154.853 14.2653 154.865 13.6345 154.876 13.0036C154.884 12.5373 154.894 12.071 154.904 11.6047C154.906 11.4683 154.908 11.332 154.909 11.1915C154.945 9.69371 155.176 8.3158 155.376 6.8C155.311 4.556 155.245 2.312 155.178 0Z" fill="#F1EBF9"/>
<path d="M187.325 142.2C187.521 142.398 187.521 142.398 187.721 142.6C186.404 144.273 185.004 145.845 183.554 147.4C183.697 147.373 183.839 147.347 183.986 147.32C185.954 146.981 187.912 146.881 189.904 146.8C188.98 147.945 188.98 147.945 188.366 148.437C186.748 149.75 185.604 151.627 184.546 153.4C184.743 153.4 184.939 153.4 185.142 153.4C185.195 153.252 185.248 153.105 185.302 152.952C186.24 150.762 188.577 148.354 190.5 147C191.418 146.689 192.386 146.808 193.34 146.862C193.502 146.87 193.664 146.877 193.831 146.884C195.648 146.982 197.22 147.517 198.921 148.156C199.424 148.33 199.893 148.468 200.407 148.587C201.262 148.794 202.031 149.13 202.827 149.5C203.735 149.916 204.627 150.3 205.581 150.6C204.96 151.017 204.427 151.203 203.72 151.437C201.82 152.11 200.033 152.891 198.635 154.4C198.836 154.284 199.036 154.169 199.242 154.05C199.37 153.977 199.497 153.904 199.628 153.828C199.877 153.685 200.125 153.541 200.373 153.397C204.766 150.855 204.766 150.855 207.168 151.4C207.508 151.724 207.837 152.059 208.16 152.4C208.441 152.567 208.727 152.724 209.016 152.875C209.985 153.392 210.733 154.052 211.534 154.8C211.802 155.038 212.071 155.276 212.34 155.512C212.471 155.628 212.601 155.743 212.736 155.862C213.103 156.184 213.471 156.505 213.841 156.825C213.954 156.923 214.067 157.021 214.183 157.122C214.486 157.379 214.796 157.627 215.106 157.875C216.218 158.856 217.079 159.954 217.884 161.2C217.762 161.192 217.641 161.184 217.515 161.175C214.993 161.014 212.64 160.987 210.145 161.4C209.616 161.471 209.087 161.536 208.557 161.6C208.557 161.798 208.557 161.996 208.557 162.2C208.699 162.159 208.84 162.118 208.986 162.076C209.176 162.022 209.366 161.968 209.562 161.912C209.748 161.859 209.935 161.806 210.127 161.751C212.616 161.139 216.089 160.944 218.479 162C219.107 162.582 219.462 163.25 219.868 164C220.084 164.327 220.3 164.654 220.518 164.979C221.429 166.347 222.172 167.778 222.88 169.262C223.122 169.768 223.384 170.254 223.666 170.739C224.033 171.395 224.238 171.98 224.432 172.699C224.617 173.165 224.825 173.506 225.1 173.92C225.714 174.885 226.029 175.896 226.355 176.987C226.442 177.269 226.442 177.269 226.532 177.556C226.843 178.572 227.11 179.58 227.306 180.625C227.405 181.062 227.405 181.062 227.806 181.6C227.914 182.109 228.008 182.612 228.091 183.125C228.242 184.011 228.388 184.851 228.724 185.687C229.099 186.694 229.092 187.748 229.12 188.812C229.145 189.591 229.227 190.12 229.592 190.8C229.623 191.302 229.623 191.302 229.604 191.825C229.564 192.541 229.564 192.541 229.79 193.2C229.82 193.469 229.839 193.739 229.853 194.009C229.861 194.174 229.87 194.34 229.878 194.511C229.89 194.771 229.89 194.771 229.902 195.037C229.91 195.201 229.919 195.365 229.928 195.534C229.977 196.572 229.989 197.606 229.982 198.645C229.977 200.183 230.073 201.704 230.187 203.237C230.316 205.048 230.413 206.847 230.385 208.662C230.371 209.603 230.361 210.503 230.571 211.425C230.895 212.921 230.896 214.471 230.981 216C208.192 216 185.404 216 161.925 216C161.925 213.6 161.925 213.6 162.123 213.2C162.148 212.492 162.103 211.783 162.073 211.075C162.06 210.741 162.06 210.741 162.047 210.4C161.949 208.184 161.791 205.974 161.627 203.762C161.614 203.586 161.601 203.41 161.587 203.229C161.55 202.72 161.511 202.212 161.472 201.704C161.46 201.553 161.449 201.401 161.437 201.245C161.368 200.357 161.262 199.482 161.131 198.6C161.1 198.335 161.07 198.069 161.043 197.803C160.912 196.585 160.757 195.37 160.6 194.156C160.565 193.884 160.531 193.612 160.497 193.34C160.447 192.942 160.396 192.545 160.344 192.147C160.314 191.912 160.284 191.678 160.253 191.436C160.163 190.811 160.163 190.811 159.935 190.3C159.693 189.674 159.657 189.121 159.616 188.45C159.608 188.321 159.6 188.191 159.591 188.058C159.565 187.639 159.542 187.219 159.518 186.8C159.51 186.658 159.502 186.515 159.493 186.368C159.387 184.554 159.309 182.743 159.308 180.925C159.307 180.667 159.307 180.667 159.307 180.404C159.318 179.255 159.318 179.255 159.543 178.8C159.583 178.345 159.612 177.889 159.636 177.433C159.651 177.155 159.667 176.878 159.682 176.6C159.706 176.162 159.729 175.725 159.752 175.287C159.773 174.865 159.797 174.443 159.822 174.02C159.835 173.767 159.848 173.514 159.862 173.254C159.935 172.643 160.049 172.325 160.337 171.8C160.41 171.489 160.47 171.175 160.521 170.859C160.552 170.68 160.583 170.5 160.615 170.315C160.677 169.942 160.738 169.568 160.798 169.195C160.98 168.148 161.232 167.299 161.739 166.368C162.022 165.807 162.152 165.204 162.321 164.6C162.54 164.093 162.787 163.603 163.041 163.112C163.137 162.922 163.137 162.922 163.236 162.727C163.393 162.417 163.552 162.109 163.71 161.8C163.776 161.8 163.841 161.8 163.909 161.8C163.921 162.029 163.933 162.258 163.945 162.495C163.962 162.801 163.979 163.106 163.996 163.412C164.004 163.563 164.011 163.713 164.019 163.868C164.071 164.788 164.129 165.695 164.306 166.6C164.437 166.666 164.568 166.732 164.703 166.8C164.671 166.694 164.639 166.587 164.607 166.477C164.381 165.428 164.442 164.331 164.43 163.262C164.422 163.014 164.415 162.766 164.407 162.51C164.386 160.237 165.061 158.936 166.6 157.337C166.693 157.238 166.786 157.138 166.882 157.036C167.283 156.607 167.692 156.188 168.109 155.775C168.452 155.422 168.734 155.056 169.031 154.662C169.894 153.651 170.985 153.078 172.119 152.424C172.943 151.948 173.683 151.396 174.426 150.8C174.557 150.866 174.688 150.932 174.823 151C174.756 151.208 174.689 151.416 174.62 151.63C173.876 153.963 173.395 156.145 173.235 158.6C173.432 158.6 173.628 158.6 173.831 158.6C173.822 158.452 173.812 158.303 173.803 158.151C173.649 153.614 175.613 149.112 178.51 145.695C180.901 143.234 183.917 141.985 187.325 142.2Z" fill="#DBF4DE"/>
<path d="M333.273 155.323C334.519 155.874 335.205 156.937 335.831 158.112C335.993 158.751 335.98 159.344 335.955 160C336.071 160.053 336.188 160.106 336.308 160.161C337.397 160.752 338.297 161.793 338.799 162.928C339.186 164.313 339.126 165.746 338.547 167.062C337.927 168.151 336.963 169.26 335.791 169.752C335.38 169.932 335.087 170.085 334.764 170.4C334.579 171.074 334.608 171.73 334.628 172.425C334.598 175.26 334.598 175.26 333.772 176.6C333.676 176.757 333.579 176.913 333.48 177.075C332.403 178.632 330.87 179.646 329.009 180C328.547 180.015 328.083 180.019 327.62 180C327.612 180.194 327.604 180.388 327.595 180.587C327.411 181.878 326.562 182.867 325.673 183.762C323.917 184.977 322.19 185.34 320.08 185C318.165 184.402 317.038 183.277 315.937 181.65C315.26 180.285 315.335 178.492 315.516 177C315.76 176.263 316.072 175.639 316.508 175C316.704 175 316.901 175 317.103 175C317.023 175.192 317.023 175.192 316.942 175.387C316.864 175.59 316.786 175.792 316.706 176C316.654 176.131 316.601 176.262 316.547 176.397C315.934 178.05 315.912 179.543 316.521 181.205C316.771 181.738 317.115 182.159 317.5 182.6C317.5 182.732 317.5 182.864 317.5 183C317.618 183.057 317.736 183.114 317.857 183.173C318.294 183.4 318.294 183.4 318.926 183.825C320.364 184.545 322.349 184.459 323.872 184.023C325.3 183.364 326.241 182.387 326.802 180.912C326.875 180.677 326.949 180.442 327.025 180.2C326.902 180.161 326.78 180.122 326.654 180.081C325.283 179.593 324.212 178.917 323.255 177.8C322.89 177.03 322.754 176.454 322.858 175.6C323.484 174.484 323.484 174.484 324.048 174.2C324.858 174.087 325.354 174.039 326.072 174.449C327.091 175.271 327.613 176.101 327.819 177.4C327.859 178.07 327.856 178.729 327.819 179.4C329.723 179.126 331.517 178.582 332.731 176.991C333.85 175.22 334.085 173.473 333.97 171.4C333.905 171.268 333.839 171.136 333.772 171C333.465 171.198 333.465 171.198 333.152 171.4C331.961 172 330.705 171.957 329.406 171.8C328.692 171.553 328.321 171.124 327.831 170.55C327.542 169.794 327.57 169.157 327.819 168.4C328.579 167.415 329.441 166.896 330.659 166.687C331.89 166.877 332.783 167.5 333.555 168.48C333.842 168.913 334.113 169.347 334.367 169.8C336.098 168.779 337.618 167.768 338.336 165.8C338.52 164.212 338.029 162.758 337.046 161.5C336.617 161.068 336.319 160.81 335.756 160.6C335.748 160.736 335.74 160.872 335.731 161.012C335.435 162.016 334.768 162.767 333.871 163.287C332.947 163.497 332.405 163.517 331.552 163.062C330.979 162.587 330.671 162.294 330.398 161.6C330.412 160.809 330.469 160.365 330.957 159.737C331.949 158.966 332.745 158.892 333.97 159C334.452 159.103 334.892 159.24 335.359 159.4C334.958 157.919 334.523 156.916 333.226 156.025C331.949 155.579 330.788 155.695 329.549 156.213C329.088 156.465 328.769 156.816 328.414 157.2C328.218 157.2 328.021 157.2 327.819 157.2C328.163 156.316 328.772 155.876 329.554 155.381C330.665 154.932 332.126 155.036 333.273 155.323Z" fill="#20423A"/>
<path d="M164.008 77.5246C165.269 78.7314 166.103 79.8564 166.179 81.6496C166.15 82.8643 165.774 83.8941 165.298 84.9996C165.483 84.9831 165.667 84.9666 165.856 84.9496C166.94 84.9518 167.885 85.3821 168.87 85.7996C169.048 85.8743 169.226 85.9491 169.41 86.0261C171.06 86.7825 171.878 87.7581 172.641 89.3996C172.784 89.5769 172.927 89.7543 173.075 89.9371C173.598 90.9006 173.501 91.7255 173.434 92.7996C173.437 92.9507 173.44 93.1017 173.443 93.2574C173.413 94.7573 172.57 95.8767 171.648 96.9996C171.088 97.5305 170.504 97.974 169.862 98.3996C169.707 98.5151 169.551 98.6306 169.391 98.7496C168.689 99.0867 167.964 99.2532 167.208 99.4308C166.683 99.5645 166.683 99.5645 166.33 99.9027C165.669 100.353 164.958 100.378 164.182 100.45C163.933 100.473 163.933 100.473 163.679 100.497C160.929 100.724 158.589 100.876 156.369 98.9996C156.161 98.8391 156.161 98.8391 155.949 98.6754C155.27 98.1297 154.753 97.6084 154.384 96.7996C154.384 96.6016 154.384 96.4036 154.384 96.1996C154.98 96.3996 154.98 96.3996 155.302 96.9246C155.862 97.8293 156.71 98.389 157.559 98.9996C157.727 99.1233 157.895 99.2471 158.068 99.3746C159.974 100.261 162.679 99.8988 164.703 99.5996C164.916 99.5748 165.129 99.5501 165.348 99.5246C165.902 99.429 165.902 99.429 166.35 99.1152C166.916 98.7819 167.436 98.6086 168.064 98.4246C169.092 98.0921 169.691 97.7539 170.458 96.9996C170.626 96.8799 170.793 96.7603 170.966 96.6371C172.394 95.3455 172.731 93.8209 172.873 91.9504C172.838 90.3342 171.758 88.8492 170.76 87.6464C169.318 86.3032 166.998 85.6291 165.1 85.3996C165.055 85.5439 165.01 85.6883 164.963 85.8371C164.651 86.5127 164.245 86.8872 163.711 87.3996C163.6 87.5563 163.49 87.7131 163.376 87.8746C162.376 89.019 161.108 89.9089 159.593 90.0871C158.7 90.0821 158.26 89.7018 157.628 89.1011C157.112 88.5186 157.081 87.9771 157.097 87.205C157.214 86.4822 157.584 86.2222 158.155 85.7996C158.599 85.5709 159.045 85.3681 159.507 85.1785C159.937 85.0117 159.937 85.0117 160.305 84.7908C160.8 84.5703 161.141 84.5535 161.68 84.5605C161.856 84.5618 162.033 84.5631 162.215 84.5644C162.397 84.5678 162.58 84.5711 162.768 84.5746C162.954 84.5764 163.14 84.5782 163.331 84.58C163.788 84.5847 164.246 84.5913 164.703 84.5996C165.486 83.2271 165.495 81.9482 165.298 80.3996C164.848 79.2001 164.275 78.3672 163.116 77.7996C161.825 77.5799 160.51 77.8096 159.345 78.3996C158.96 78.6852 158.614 78.9874 158.266 79.3175C157.956 79.5996 157.956 79.5996 157.41 79.9121C156.87 80.26 156.681 80.6449 156.369 81.1996C156.238 81.1996 156.107 81.1996 155.972 81.1996C156.102 80.4883 156.325 79.9731 156.766 79.3996C157.154 79.1752 157.551 78.992 157.96 78.8074C158.409 78.5961 158.409 78.5961 158.862 78.0746C160.106 76.8527 162.496 76.8168 164.008 77.5246Z" fill="#264640"/>
<path d="M257.621 77.8248C258.62 78.5112 259.359 79.4484 259.754 80.5998C259.821 81.7934 259.628 82.7768 258.862 83.7053C257.993 84.5644 257.291 84.8482 256.096 84.8998C255.056 84.8538 254.218 84.6773 253.404 83.9998C252.53 82.9831 252.455 81.7268 252.495 80.4264C252.73 79.1503 253.557 78.5103 254.57 77.7998C255.638 77.4555 256.561 77.455 257.621 77.8248Z" fill="#13382E"/>
<path d="M134.787 73.4789C135.821 74.4305 136.308 75.5129 136.376 76.9226C136.268 77.9601 135.683 78.4995 134.926 79.1523C133.902 79.9197 133.229 80.1854 131.961 79.9999C130.785 79.6116 129.78 79.0393 129.108 77.9624C128.872 76.8921 128.741 75.9044 129.23 74.8914C130.372 73.141 130.372 73.141 131.146 72.8671C132.513 72.6477 133.633 72.6381 134.787 73.4789Z" fill="#13382E"/>
<path d="M109.934 161C110.71 161.802 111.127 162.696 111.323 163.8C111.301 165.017 110.86 165.86 110.132 166.8C109.172 167.677 108.563 167.887 107.287 167.866C106.209 167.731 105.524 167.193 104.809 166.396C104.16 165.524 103.785 164.758 103.864 163.655C104.145 162.56 104.806 161.688 105.68 161C107.013 160.449 108.629 160.328 109.934 161Z" fill="#13382E"/>
<path d="M188.067 174.737C189.164 175.132 189.77 175.507 190.301 176.6C190.699 177.805 190.708 179.148 190.177 180.3C189.433 181.09 188.833 181.553 187.746 181.713C187.473 181.717 187.2 181.717 186.928 181.712C186.723 181.72 186.723 181.72 186.515 181.727C185.752 181.725 185.255 181.607 184.669 181.133C183.807 180.249 183.523 179.407 183.48 178.187C183.53 176.737 184.206 175.84 185.142 174.8C186.026 174.354 187.134 174.502 188.067 174.737Z" fill="#12372C"/>
<path d="M195.746 38.1123C195.999 38.1084 196.253 38.1046 196.514 38.1006C197.632 38.252 198.227 38.7273 198.908 39.6123C199.39 40.568 199.403 41.5567 199.231 42.5998C198.98 43.2114 198.65 43.6877 198.238 44.1998C198.103 44.3978 197.968 44.5958 197.829 44.7998C196.887 45.4466 195.967 45.3704 194.865 45.1998C193.992 44.9276 193.348 44.5594 192.793 43.817C192.176 42.625 192.069 41.3166 192.285 39.9998C192.97 38.5576 194.258 38.1138 195.746 38.1123Z" fill="#12372D"/>
<path d="M99.7478 151.057C100.784 151.794 101.468 152.313 101.798 153.6C101.839 153.738 101.88 153.876 101.923 154.018C102.09 154.774 102.077 155.232 101.74 155.938C101.116 156.893 100.547 157.687 99.4168 158C98.2855 158.186 97.4505 158.1 96.4651 157.488C95.55 156.789 94.9908 156.141 94.7722 154.967C94.7018 153.935 94.9353 153.204 95.521 152.359C96.5792 151.188 98.2272 150.319 99.7478 151.057Z" fill="#13382E"/>
<path d="M211.036 37.8698C211.992 38.6708 212.414 39.364 212.581 40.6112C212.656 41.6803 212.438 42.4956 211.882 43.4089C211.11 44.2747 210.052 44.5045 208.954 44.712C207.871 44.5074 206.761 43.9886 205.978 43.1995C205.547 41.8252 205.244 40.4655 205.916 39.137C207.169 37.6687 209.195 36.8633 211.036 37.8698Z" fill="#13382E"/>
<path d="M175.945 176.896C176.8 177.454 177.122 178.238 177.403 179.2C177.599 180.202 177.491 180.964 177.006 181.862C176.418 182.689 175.799 183.139 174.823 183.4C173.698 183.558 172.622 183.624 171.636 182.987C170.827 182.274 170.511 181.519 170.402 180.463C170.36 179.208 170.47 178.266 171.324 177.29C172.662 176.093 174.4 176.231 175.945 176.896Z" fill="#12382D"/>
<path d="M139.303 60.7997C140.455 61.2353 141.362 62.0717 141.883 63.1997C142.047 64.316 141.841 65.4183 141.287 66.3997C140.692 67.0566 140.077 67.5702 139.303 67.9997C138.584 68.0247 138.584 68.0247 137.914 67.7997C137.783 67.7801 137.652 67.7605 137.518 67.7403C136.484 67.5749 136.003 67.1685 135.36 66.3505C134.781 65.444 134.854 64.4362 134.937 63.3997C135.222 62.3874 135.666 61.6693 136.481 61.0216C137.39 60.5634 138.322 60.6262 139.303 60.7997Z" fill="#12382D"/>
<path d="M264.355 89.3998C265.196 90.0026 266.102 90.7967 266.438 91.8084C266.624 92.9693 266.548 93.8067 265.905 94.7998C264.951 95.7754 264.103 96.2579 262.743 96.2873C261.632 96.2669 261.632 96.2669 260.957 95.7748C260.754 95.4901 260.754 95.4901 260.548 95.1998C260.368 95.0389 260.187 94.878 260.002 94.7123C259.352 93.8934 259.283 92.9175 259.236 91.8998C259.424 90.8142 260.019 90.3627 260.862 89.7146C261.954 88.9977 263.119 89.0088 264.355 89.3998Z" fill="#12372D"/>
<path d="M333.272 155.323C334.518 155.874 335.204 156.937 335.83 158.112C335.992 158.751 335.979 159.344 335.954 160C336.07 160.053 336.187 160.106 336.307 160.161C337.396 160.752 338.297 161.793 338.799 162.928C339.185 164.313 339.125 165.746 338.546 167.062C337.626 168.673 336.226 169.669 334.565 170.4C334.499 170.202 334.434 170.004 334.366 169.8C334.51 169.715 334.654 169.63 334.802 169.543C336.379 168.579 337.68 167.598 338.335 165.8C338.519 164.212 338.028 162.758 337.045 161.5C336.616 161.068 336.318 160.81 335.755 160.6C335.747 160.736 335.739 160.872 335.731 161.012C335.434 162.016 334.767 162.767 333.87 163.287C332.947 163.497 332.404 163.517 331.551 163.062C330.978 162.587 330.67 162.294 330.398 161.6C330.411 160.809 330.468 160.365 330.956 159.737C331.948 158.966 332.745 158.892 333.969 159C334.451 159.103 334.891 159.24 335.358 159.4C334.957 157.919 334.522 156.916 333.225 156.025C331.948 155.579 330.788 155.695 329.548 156.213C329.087 156.465 328.768 156.816 328.413 157.2C328.217 157.2 328.02 157.2 327.818 157.2C328.162 156.316 328.771 155.876 329.553 155.381C330.664 154.932 332.125 155.036 333.272 155.323Z" fill="#25463F"/>
<path d="M80.4536 115.775C81.7575 116.899 82.8427 118.269 82.9821 120.057C82.9835 120.438 82.9667 120.819 82.9465 121.2C82.75 121.266 82.5536 121.332 82.3512 121.4C82.3435 121.211 82.3435 121.211 82.3356 121.018C82.2127 119.148 81.5684 117.664 80.1683 116.4C76.9689 113.981 73.0175 113.612 69.1545 114.057C64.6121 114.721 60.597 117.277 57.7596 120.885C57.4058 121.381 57.0754 121.883 56.7527 122.4C56.5716 122.688 56.5716 122.688 56.3868 122.982C54.7791 125.642 53.8398 128.507 54.5071 131.635C55.0973 133.417 56.0141 134.493 57.6379 135.391C57.7891 135.494 57.7891 135.494 57.9433 135.6C57.9433 135.732 57.9433 135.864 57.9433 136C56.865 135.932 56.1265 135.317 55.3637 134.6C53.9085 132.876 53.4394 130.989 53.4971 128.754C53.8426 125.52 55.4795 122.64 57.5465 120.2C57.6739 120.042 57.8012 119.885 57.9325 119.723C63.1663 113.514 73.5327 110.453 80.4536 115.775Z" fill="#23433D"/>
<path d="M161.13 77.5995C162.113 77.5098 163.015 77.4296 163.871 77.987C164.885 78.8609 165.423 79.7932 165.584 81.1339C165.627 82.5779 165.598 83.6433 164.702 84.7995C163.654 84.7335 162.607 84.6675 161.527 84.5995C161.658 82.3555 161.789 80.1115 161.924 77.7995C161.662 77.7335 161.4 77.6675 161.13 77.5995Z" fill="#DBCDEE"/>
<path d="M162.718 85.1622C162.977 85.1663 162.977 85.1663 163.242 85.1704C163.663 85.1774 164.084 85.1882 164.504 85.1997C164.19 86.754 162.408 88.3183 161.146 89.206C160.357 89.5771 159.59 89.6005 158.75 89.3997C158.142 88.9122 158.142 88.9122 157.757 88.3997C157.692 88.3337 157.627 88.2677 157.559 88.1997C157.447 87.6622 157.447 87.6622 157.559 86.9997C158.962 85.4721 160.742 85.1026 162.718 85.1622Z" fill="#D8F1DB"/>
<path d="M331.799 167.612C332.681 168.199 333.448 168.885 333.705 169.945C333.727 170.095 333.749 170.245 333.771 170.4C332.468 171.182 331.337 171.693 329.802 171.4C329.037 171 328.692 170.72 328.215 170C328.117 169.24 328.15 168.902 328.562 168.25C329.531 167.274 330.489 167.154 331.799 167.612Z" fill="#EDE8F5"/>
<path d="M207.323 142.458C208.284 143.204 208.9 144.052 209.351 145.2C209.388 145.875 209.388 145.875 209.351 146.4C209.155 146.4 208.958 146.4 208.756 146.4C208.724 146.269 208.693 146.139 208.66 146.004C208.311 144.687 207.98 143.716 206.786 142.957C203.949 141.443 200.744 142.319 197.842 143.2C192.844 144.836 188.035 148.35 185.427 153.003C185.333 153.134 185.239 153.265 185.142 153.4C184.945 153.4 184.749 153.4 184.546 153.4C186.19 148.778 191.349 145.381 195.522 143.327C198.934 141.753 203.882 140.335 207.323 142.458Z" fill="#20413A"/>
<path d="M104.179 125.4C106.37 125.727 108.311 127.168 109.934 128.6C110.07 128.708 110.206 128.816 110.345 128.928C113.283 131.324 114.884 135.016 115.887 138.6C115.936 138.772 115.985 138.944 116.035 139.122C116.595 141.566 116.808 145.283 115.689 147.6C115.492 147.666 115.296 147.732 115.093 147.8C115.274 146.68 115.274 146.68 115.395 146.129C115.919 143.218 115.649 139.984 114.696 137.2C114.622 136.973 114.548 136.747 114.472 136.513C112.726 131.568 109.329 128.397 104.787 126.087C104.586 125.993 104.386 125.898 104.179 125.8C104.179 125.668 104.179 125.536 104.179 125.4Z" fill="#24443E"/>
<path d="M186.344 141.762C186.535 141.765 186.726 141.768 186.922 141.771C187.387 141.778 187.851 141.787 188.316 141.8C188.316 141.932 188.316 142.064 188.316 142.2C188.196 142.207 188.077 142.214 187.953 142.221C184.792 142.417 182.374 142.858 179.783 144.8C179.583 144.944 179.382 145.089 179.176 145.237C176.697 147.427 175.147 151.028 174.426 154.2C174.384 154.359 174.342 154.518 174.298 154.682C173.974 155.969 173.907 157.278 173.83 158.6C173.634 158.6 173.437 158.6 173.235 158.6C172.938 154.36 174.626 149.762 177.235 146.457C179.713 143.609 182.487 141.657 186.344 141.762Z" fill="#23453C"/>
<path d="M324.929 174.575C325.939 174.896 326.38 175.442 326.975 176.3C327.481 177.319 327.44 178.284 327.422 179.4C326.014 179.348 325.128 178.909 324.048 178C323.543 177.398 323.463 177.084 323.366 176.3C323.501 175.211 323.782 174.617 324.929 174.575Z" fill="#EAE6F2"/>
<path d="M172.442 146.2C172.442 146.398 172.442 146.596 172.442 146.8C172.261 146.822 172.261 146.822 172.077 146.845C170.387 147.112 168.919 147.751 167.828 149.125C165.048 153.296 164.597 158.046 164.665 162.925C164.668 163.303 164.671 163.682 164.674 164.061C164.68 164.974 164.69 165.887 164.703 166.8C164.506 166.734 164.31 166.668 164.107 166.6C163.193 161.382 163.739 154.26 166.62 149.675C168.001 147.795 169.941 145.934 172.442 146.2Z" fill="#284742"/>
<path d="M88.7011 123C93.0455 122.735 96.7812 124.23 100.069 127.1C100.246 127.265 100.424 127.43 100.607 127.6C100.711 127.696 100.815 127.792 100.921 127.89C103.142 129.97 105.049 132.315 106.164 135.2C106.164 135.464 106.164 135.728 106.164 136C106.033 136 105.902 136 105.767 136C105.626 135.695 105.626 135.695 105.482 135.384C104.617 133.554 103.681 131.968 102.393 130.4C102.201 130.16 102.201 130.16 102.004 129.915C99.7898 127.274 96.8688 125.383 93.6621 124.2C93.4853 124.128 93.3085 124.055 93.1264 123.981C92.2236 123.731 91.345 123.707 90.4126 123.675C90.2287 123.667 90.0448 123.659 89.8553 123.651C89.4045 123.633 88.9536 123.616 88.5027 123.6C88.5682 123.402 88.6337 123.204 88.7011 123Z" fill="#24453E"/>
<path d="M316.508 175C316.704 175 316.901 175 317.103 175C317.05 175.128 316.997 175.256 316.942 175.388C316.864 175.59 316.786 175.792 316.706 176C316.654 176.131 316.601 176.262 316.547 176.397C315.933 178.05 315.912 179.543 316.521 181.205C316.771 181.738 317.115 182.159 317.5 182.6C317.5 182.732 317.5 182.864 317.5 183C317.677 183.086 317.677 183.086 317.857 183.173C318.294 183.4 318.294 183.4 318.926 183.825C320.364 184.546 322.349 184.459 323.872 184.023C325.3 183.364 326.241 182.387 326.802 180.912C326.875 180.677 326.949 180.442 327.025 180.2C327.123 180.398 327.123 180.398 327.223 180.6C327.354 180.666 327.485 180.732 327.62 180.8C326.877 182.589 325.945 183.75 324.247 184.688C322.73 185.292 320.939 185.268 319.394 184.786C317.738 184.018 316.532 182.848 315.714 181.2C315.239 179.772 315.265 177.756 315.737 176.332C315.972 175.867 316.214 175.43 316.508 175Z" fill="#25463E"/>
<path d="M214.709 152.4C215.661 153.309 216.46 154.193 216.52 155.562C216.512 155.706 216.504 155.851 216.495 156C216.2 155.901 216.2 155.901 215.9 155.8C215.774 155.442 215.774 155.442 215.677 154.987C215.301 153.766 214.557 153.098 213.519 152.4C210.582 150.922 207.483 150.747 204.34 151.718C202.737 152.3 201.003 152.969 199.667 154.05C199.231 154.4 199.231 154.4 198.636 154.4C199.049 153.151 200.64 152.581 201.756 152.018C205.845 150.054 210.906 149.413 214.709 152.4Z" fill="#294943"/>
<path d="M334.565 159.6C335.042 159.805 335.042 159.805 335.359 160C335.302 161.175 334.781 161.813 333.97 162.6C333.345 162.915 332.874 162.87 332.184 162.8C331.644 162.525 331.412 162.273 330.993 161.8C330.815 161.017 330.927 160.714 331.328 160.025C332.342 159.37 333.391 159.456 334.565 159.6Z" fill="#EDE8F5"/>
<path d="M119.261 138.8C120.35 139.166 120.743 140.414 121.245 141.4C122.923 145.171 123.239 149.275 121.84 153.2C121.342 154.505 120.826 155.834 120.054 157C119.924 157 119.793 157 119.658 157C119.776 156.273 119.978 155.695 120.303 155.037C121.966 151.352 122.555 147.459 121.328 143.508C120.885 142.394 120.36 141.33 119.798 140.272C119.533 139.746 119.383 139.361 119.261 138.8Z" fill="#21423B"/>
<path d="M161.33 85.1997C162.377 85.1997 163.425 85.1997 164.505 85.1997C164.084 86.8948 162.42 88.2105 161.051 89.2146C160.734 89.3997 160.734 89.3997 160.337 89.3997C160.427 88.8494 160.518 88.2995 160.61 87.7497C160.648 87.5165 160.648 87.5165 160.686 87.2786C160.712 87.1278 160.737 86.977 160.764 86.8216C160.787 86.6833 160.809 86.5451 160.833 86.4026C160.933 85.9997 160.933 85.9997 161.33 85.1997Z" fill="#D8CBEC"/>
<path d="M213.741 160.775C217.499 160.664 220.709 161.886 223.466 164.402C223.837 164.8 223.837 164.8 223.837 165.2C223.1 165.086 222.772 164.786 222.25 164.263C219.664 161.898 216.376 161.448 213.009 161.539C211.892 161.597 210.824 161.813 209.737 162.069C209.153 162.2 209.153 162.2 208.558 162.2C208.558 162.002 208.558 161.804 208.558 161.6C210.289 161.2 211.969 160.88 213.741 160.775Z" fill="#26483F"/>
<path d="M126.008 150.6C126.603 150.8 126.603 150.8 126.926 151.45C127.68 153.522 127.724 155.979 126.802 158C126.737 158.157 126.671 158.314 126.604 158.476C125.524 160.884 123.562 163.132 121.246 164.4C121.115 164.4 120.984 164.4 120.849 164.4C121.141 163.668 121.526 163.339 122.151 162.875C124.544 160.992 126.272 158.66 126.802 155.6C126.94 154.33 126.765 153.27 126.356 152.065C126.2 151.58 126.099 151.101 126.008 150.6Z" fill="#23433D"/>
<path d="M240.506 99C240.274 99.7008 240.169 99.7296 239.563 100.088C238.212 100.958 237.094 102.086 235.942 103.2C235.806 103.328 235.671 103.457 235.531 103.589C234.077 105 232.863 106.637 231.675 108.275C231.589 108.392 231.503 108.508 231.415 108.628C230.952 109.277 230.667 109.8 230.584 110.6C230.387 110.6 230.191 110.6 229.989 110.6C230.056 109.325 230.489 108.636 231.266 107.65C231.373 107.511 231.48 107.371 231.59 107.227C232.386 106.2 233.226 105.226 234.112 104.275C234.497 103.86 234.861 103.436 235.222 103C238.684 99 238.684 99 240.506 99Z" fill="#24443E"/>
<path d="M238.124 94.3999C237.874 95.1572 237.597 95.2721 236.946 95.7124C235.949 96.4203 235.11 97.1922 234.271 98.0819C233.873 98.4845 233.475 98.8515 233.047 99.2202C232.052 100.089 231.125 101.024 230.197 101.963C229.898 102.266 229.598 102.568 229.297 102.869C229.106 103.062 228.915 103.255 228.724 103.448C228.553 103.621 228.381 103.794 228.204 103.973C227.798 104.367 227.798 104.367 227.607 104.8C227.411 104.8 227.214 104.8 227.012 104.8C227.248 103.82 227.835 103.394 228.57 102.777C229.118 102.292 229.574 101.753 230.046 101.194C230.936 100.16 231.931 99.2541 232.96 98.3624C233.368 97.9942 233.749 97.6087 234.131 97.2124C236.878 94.3999 236.878 94.3999 238.124 94.3999Z" fill="#21433C"/>
<path d="M81.7926 127.212C83.923 127.995 85.8211 129.068 87.5101 130.6C87.6229 130.702 87.7357 130.804 87.8519 130.909C88.1302 131.175 88.1302 131.175 88.5023 131.6C88.5023 131.732 88.5023 131.864 88.5023 132C87.907 132 87.907 132 87.4853 131.587C87.3986 131.496 87.3119 131.404 87.2225 131.31C84.988 129.058 81.9106 127.597 78.7435 127.56C78.1596 127.563 77.5765 127.578 76.9929 127.6C76.9929 127.468 76.9929 127.336 76.9929 127.2C78.1955 126.594 80.5152 126.861 81.7926 127.212Z" fill="#25463F"/>
<path d="M233.759 89.3999C233.89 89.3999 234.021 89.3999 234.156 89.3999C233.985 90.3255 233.438 90.7771 232.767 91.3874C232.644 91.5007 232.521 91.6139 232.395 91.7306C230.939 93.0499 229.383 94.2328 227.806 95.3999C227.601 95.5524 227.601 95.5524 227.392 95.7079C227.006 95.9944 226.619 96.2789 226.231 96.5624C226.115 96.6478 225.999 96.7332 225.879 96.8211C225.075 97.3999 225.075 97.3999 224.631 97.3999C224.631 97.2019 224.631 97.0039 224.631 96.7999C224.897 96.5464 224.897 96.5464 225.271 96.2937C225.478 96.1511 225.478 96.1511 225.689 96.0058C225.915 95.8544 225.915 95.8544 226.144 95.6999C226.456 95.4838 226.768 95.2671 227.079 95.0499C227.236 94.9408 227.392 94.8318 227.553 94.7194C229.782 93.1414 231.834 91.3401 233.759 89.3999Z" fill="#24463F"/>
<path d="M166.687 85.1997C168.457 85.3774 170.382 86.1437 171.586 87.5122C172.017 88.1033 172.332 88.7357 172.64 89.3997C172.783 89.5771 172.927 89.7545 173.074 89.9372C173.776 91.2301 173.484 92.7896 173.235 94.1997C173.104 94.1997 172.973 94.1997 172.839 94.1997C172.848 94.0017 172.857 93.8037 172.866 93.5997C172.916 92.0909 172.922 90.8783 172.045 89.5997C171.905 89.3685 171.905 89.3685 171.762 89.1325C170.506 87.1118 168.723 86.2694 166.489 85.5997C166.554 85.4677 166.619 85.3357 166.687 85.1997Z" fill="#21413B"/>
<path d="M331.86 167.042C332.65 167.543 333.21 167.909 333.573 168.8C332.801 168.685 332.38 168.29 331.787 167.8C331.069 167.559 330.559 167.535 329.803 167.6C328.961 168.052 328.961 168.052 328.414 168.8C328.314 169.375 328.314 169.375 328.414 170C328.845 170.514 329.204 170.898 329.803 171.2C329.803 171.398 329.803 171.596 329.803 171.8C329.107 171.624 328.679 171.464 328.153 170.962C327.737 170.263 327.62 169.817 327.62 169C327.979 168.071 328.304 167.595 329.17 167.112C330.127 166.705 330.895 166.544 331.86 167.042Z" fill="#2C4B45"/>
<path d="M297.259 161C297.259 161.198 297.259 161.396 297.259 161.6C296.872 161.625 296.872 161.625 296.477 161.65C295.191 161.797 294.15 162.237 293.129 163.037C291.816 164.738 291.803 166.311 291.901 168.4C291.705 168.4 291.508 168.4 291.306 168.4C291.166 164.152 291.166 164.152 292.595 162.537C293.92 161.308 295.488 160.865 297.259 161Z" fill="#34514C"/>
<path d="M115.49 137.8C116.878 140.398 116.62 144.431 115.877 147.21C115.815 147.339 115.753 147.467 115.689 147.6C115.394 147.699 115.394 147.699 115.093 147.8C115.275 146.676 115.275 146.676 115.396 146.131C115.575 145.122 115.527 144.097 115.527 143.075C115.53 142.85 115.532 142.625 115.535 142.393C115.537 140.951 115.404 139.607 115.093 138.2C115.224 138.2 115.355 138.2 115.49 138.2C115.49 138.068 115.49 137.936 115.49 137.8Z" fill="#3A5752"/>
<path d="M164.032 77.5622C164.188 77.7066 164.343 77.8509 164.504 77.9997C164.688 78.1544 164.688 78.1544 164.876 78.3122C165.099 78.5997 165.099 78.5997 165.099 79.1997C164.364 78.9528 164.047 78.553 163.511 77.9997C162.536 77.5084 161.214 77.7262 160.2 78.0247C159.415 78.3176 158.87 78.7433 158.265 79.3176C157.955 79.5997 157.955 79.5997 157.409 79.9122C156.869 80.2602 156.68 80.645 156.368 81.1997C156.237 81.1997 156.106 81.1997 155.971 81.1997C156.101 80.4884 156.323 79.9732 156.764 79.3997C157.153 79.1753 157.55 78.9921 157.959 78.8075C158.408 78.5962 158.408 78.5962 158.86 78.0747C160.019 76.9369 162.658 76.6561 164.032 77.5622Z" fill="#26493E"/>
<path d="M307.776 144.4C307.776 144.532 307.776 144.664 307.776 144.8C307.618 144.834 307.46 144.868 307.297 144.903C305.485 145.321 304.316 145.824 303.212 147.4C302.822 148.49 302.765 149.447 302.79 150.587C302.793 150.821 302.793 150.821 302.796 151.06C302.8 151.44 302.807 151.82 302.815 152.2C302.684 152.2 302.553 152.2 302.418 152.2C301.909 150.539 302.001 148.398 302.738 146.83C303.522 145.605 304.572 144.881 305.953 144.484C306.578 144.363 307.141 144.359 307.776 144.4Z" fill="#1D4037"/>
<path d="M190.698 146.2C190.993 146.299 190.993 146.299 191.293 146.4C190.606 147.106 189.895 147.769 189.16 148.425C187.759 149.702 186.531 151.094 185.563 152.738C185.424 152.956 185.285 153.175 185.142 153.4C184.945 153.4 184.749 153.4 184.546 153.4C185.53 150.635 188.246 147.763 190.698 146.2Z" fill="#22453A"/>
<path d="M122.039 146.6C122.104 146.6 122.17 146.6 122.237 146.6C122.303 147.392 122.368 148.184 122.436 149C122.501 149 122.567 149 122.634 149C122.481 151.794 121.607 154.653 120.055 157C119.924 157 119.793 157 119.658 157C119.776 156.273 119.978 155.696 120.303 155.038C121.59 152.208 122.004 149.7 122.039 146.6Z" fill="#395553"/>
<path d="M175.22 150C175.351 150 175.482 150 175.617 150C175.495 150.703 175.307 151.325 175.046 151.988C174.259 154.138 173.94 156.319 173.831 158.6C173.634 158.6 173.438 158.6 173.235 158.6C173.033 155.715 173.736 152.777 175.021 150.2C175.087 150.134 175.152 150.068 175.22 150Z" fill="#2A4D42"/>
<path d="M243.283 102.4C243.414 102.4 243.545 102.4 243.68 102.4C243.574 103.239 243.322 103.691 242.787 104.337C242.644 104.511 242.501 104.684 242.354 104.862C239.124 108.639 239.124 108.639 237.926 109.4C237.795 109.4 237.664 109.4 237.529 109.4C237.529 108.8 237.529 108.8 237.799 108.512C237.927 108.409 238.055 108.306 238.186 108.2C239.923 106.721 241.393 105.186 242.654 103.284C242.855 102.983 243.068 102.691 243.283 102.4Z" fill="#24463F"/>
<path d="M53.5775 128C53.643 128 53.7085 128 53.776 128C53.8415 128.33 53.9069 128.66 53.9744 129C54.0399 129 54.1054 129 54.1728 129C54.19 129.179 54.2071 129.358 54.2248 129.542C54.4467 131.467 54.7705 133.153 56.2564 134.488C56.6714 134.812 57.0806 135.078 57.5339 135.35C57.7365 135.474 57.7365 135.474 57.9432 135.6C57.9432 135.732 57.9432 135.864 57.9432 136C56.8648 135.932 56.1264 135.318 55.3635 134.6C53.6742 132.6 53.4791 130.551 53.5775 128Z" fill="#254540"/>
<path d="M71.9827 113.162C72.2317 113.159 72.2317 113.159 72.4857 113.155C72.7263 113.154 72.7263 113.154 72.9718 113.154C73.1873 113.153 73.1873 113.153 73.4072 113.151C73.8789 113.207 74.2016 113.365 74.612 113.6C74.2873 113.927 73.9117 113.833 73.464 113.842C73.2657 113.847 73.0675 113.853 72.8632 113.858C72.6504 113.864 72.4376 113.869 72.2183 113.875C70.2473 113.939 68.3965 114.147 66.476 114.6C66.4105 114.402 66.3451 114.204 66.2776 114C66.6079 113.903 66.9387 113.807 67.2698 113.712C67.454 113.659 67.6381 113.606 67.8279 113.551C69.2112 113.221 70.5678 113.164 71.9827 113.162Z" fill="#264540"/>
<path d="M315.912 159.6C316.043 159.6 316.174 159.6 316.308 159.6C316.431 161.236 316.08 162.632 315.099 163.964C314.383 164.789 313.722 165.509 312.737 166C312.475 166 312.213 166 311.943 166C311.943 165.868 311.943 165.736 311.943 165.6C312.241 165.398 312.241 165.398 312.65 165.175C314.377 164.115 315.18 162.739 315.713 160.8C315.864 160.111 315.864 160.111 315.912 159.6Z" fill="#2A4A43"/>
<path d="M327.025 180.2C327.123 180.398 327.123 180.398 327.223 180.6C327.354 180.666 327.485 180.732 327.62 180.8C326.771 182.845 325.677 184.008 323.647 184.874C323.254 185 323.254 185 322.659 185C322.659 184.868 322.659 184.736 322.659 184.6C321.939 184.6 321.218 184.6 320.476 184.6C320.476 184.534 320.476 184.468 320.476 184.4C320.654 184.397 320.831 184.394 321.014 184.391C322.968 184.313 324.543 184.021 325.921 182.537C326.478 181.815 326.753 181.067 327.025 180.2Z" fill="#264740"/>
<path d="M172.639 93.1997C172.705 93.1997 172.77 93.1997 172.838 93.1997C172.838 93.5297 172.838 93.8597 172.838 94.1997C172.969 94.1997 173.1 94.1997 173.235 94.1997C172.573 96.016 171.467 97.3619 169.861 98.3997C169.681 98.5276 169.501 98.6555 169.316 98.7872C168.869 98.9997 168.869 98.9997 168.423 98.9622C168.075 98.7997 168.075 98.7997 167.877 98.3997C168.184 98.3316 168.184 98.3316 168.497 98.2622C169.318 98.0269 169.826 97.5796 170.457 96.9997C170.624 96.8801 170.792 96.7605 170.965 96.6372C172.027 95.6763 172.551 94.6269 172.639 93.1997Z" fill="#284742"/>
<path d="M84.7318 170.2C84.8627 170.266 84.9937 170.332 85.1286 170.4C85.0959 170.61 85.0632 170.82 85.0294 171.037C84.7019 173.529 84.7019 173.529 85.5255 175.8C85.7203 176.003 85.9176 176.205 86.1208 176.4C86.1208 176.532 86.1208 176.664 86.1208 176.8C85.5252 176.735 85.3306 176.603 84.9054 176.162C83.9673 174.744 83.9476 173.147 84.2194 171.496C84.4632 170.47 84.4632 170.47 84.7318 170.2Z" fill="#2B4B44"/>
<path d="M265.607 60.7176C266.473 61.2086 267.246 61.8356 267.89 62.5997C267.89 62.7977 267.89 62.9957 267.89 63.1997C267.08 62.8293 266.454 62.2966 265.77 61.7309C264.839 61.0599 264.102 60.9515 262.966 60.9747C262.736 60.9783 262.505 60.9819 262.268 60.9856C262.006 60.9926 262.006 60.9926 261.739 60.9997C261.739 60.8017 261.739 60.6037 261.739 60.3997C263.087 59.9468 264.321 60.1511 265.607 60.7176Z" fill="#274941"/>
<path d="M185.539 22.3999C185.474 22.5979 185.408 22.7959 185.341 22.9999C184.856 23.228 184.856 23.228 184.237 23.4499C182.952 23.9662 181.801 24.5644 181.143 25.8452C180.953 26.3266 180.953 26.3266 180.777 26.9999C180.646 26.9999 180.515 26.9999 180.38 26.9999C180.493 25.5797 180.976 24.7383 181.992 23.7749C183.018 22.9262 184.211 22.3999 185.539 22.3999Z" fill="#2C4B45"/>
<path d="M203.199 191.4C203.33 191.4 203.461 191.4 203.596 191.4C203.704 192.42 203.685 192.997 203.075 193.837C202.052 195.066 200.936 195.882 199.429 196.4C199.232 196.4 199.036 196.4 198.833 196.4C199.032 195.8 199.032 195.8 199.523 195.535C199.73 195.445 199.936 195.355 200.148 195.262C201.432 194.639 202.455 193.928 202.974 192.542C203.105 192.061 203.105 192.061 203.199 191.4Z" fill="#2A4D41"/>
<path d="M163.909 160.2C164.105 160.266 164.302 160.332 164.504 160.4C164.57 162.512 164.635 164.624 164.703 166.8C164.506 166.734 164.31 166.668 164.107 166.6C163.864 165.272 163.887 163.96 163.897 162.613C163.897 162.381 163.898 162.148 163.899 161.909C163.902 161.34 163.905 160.77 163.909 160.2Z" fill="#315449"/>
<path d="M110.926 76.3999C111.057 76.3999 111.188 76.3999 111.323 76.3999C111.3 76.6557 111.276 76.9114 111.252 77.1749C111.226 77.5166 111.2 77.8582 111.174 78.1999C111.158 78.3677 111.142 78.5356 111.125 78.7085C111.041 79.9274 111.22 80.7882 111.918 81.7999C112.026 81.9012 112.133 82.0025 112.243 82.1069C112.514 82.3999 112.514 82.3999 112.514 82.9999C111.619 82.6456 111.148 82.0253 110.708 81.1804C110.459 80.3724 110.472 79.6155 110.48 78.7749C110.478 78.6127 110.477 78.4506 110.475 78.2835C110.476 78.1275 110.476 77.9715 110.477 77.8108C110.477 77.6695 110.478 77.5282 110.478 77.3826C110.529 76.9999 110.529 76.9999 110.926 76.3999Z" fill="#204439"/>
<path d="M168.274 98.7999C167.944 99.0014 167.613 99.2009 167.282 99.3999C167.08 99.534 166.878 99.668 166.67 99.8061C165.806 100.303 164.962 100.376 163.983 100.45C163.818 100.465 163.652 100.481 163.482 100.497C162.697 100.567 161.92 100.619 161.13 100.6C161.13 100.468 161.13 100.336 161.13 100.2C162.283 99.8645 163.358 99.5543 164.566 99.6124C165.567 99.6513 166.062 99.3587 166.885 98.7999C167.507 98.591 167.677 98.613 168.274 98.7999Z" fill="#2B4945"/>
<path d="M240.505 99C240.271 99.7089 240.127 99.7626 239.513 100.138C238.646 100.694 237.908 101.326 237.16 102.034C236.713 102.419 236.251 102.703 235.743 103C235.409 103.262 235.077 103.528 234.751 103.8C235.178 102.824 235.896 102.228 236.661 101.513C236.797 101.381 236.933 101.25 237.074 101.115C239.318 99 239.318 99 240.505 99Z" fill="#264740"/>
<path d="M161.949 84.7875C162.099 84.7884 162.248 84.7893 162.403 84.7902C162.772 84.7926 163.142 84.7962 163.512 84.8C163.512 84.866 163.512 84.932 163.512 85C163.295 85.0043 163.295 85.0043 163.075 85.0086C161.108 85.1026 159.219 85.5981 157.757 87C157.674 87.7336 157.674 87.7336 157.757 88.4C157.561 88.4 157.364 88.4 157.162 88.4C157.042 86.9718 157.042 86.9718 157.546 86.25C158.301 85.6915 159.075 85.3492 159.94 85C160.573 84.6812 161.255 84.7797 161.949 84.7875Z" fill="#1A3E33"/>
<path d="M327.422 177.6C327.553 177.6 327.684 177.6 327.819 177.6C327.819 178.194 327.819 178.788 327.819 179.4C328.342 179.4 328.866 179.4 329.406 179.4C329.406 179.532 329.406 179.664 329.406 179.8C328.819 180.096 328.267 180.012 327.62 180C327.62 180.198 327.62 180.396 327.62 180.6C327.489 180.6 327.358 180.6 327.223 180.6C327.223 180.402 327.223 180.204 327.223 180C326.765 179.868 326.307 179.736 325.834 179.6C325.834 179.468 325.834 179.336 325.834 179.2C326.358 179.266 326.882 179.332 327.422 179.4C327.422 178.806 327.422 178.212 327.422 177.6Z" fill="#1D4037"/>
<path d="M303.212 146.6C303.277 146.732 303.343 146.864 303.41 147C303.316 147.235 303.222 147.47 303.125 147.713C302.61 149.148 302.769 150.697 302.815 152.2C302.684 152.2 302.553 152.2 302.418 152.2C301.894 150.514 302.01 148.36 302.815 146.8C302.946 146.734 303.077 146.668 303.212 146.6Z" fill="#173B32"/>
<path d="M207.169 142.6C208.145 142.928 208.598 143.733 209.103 144.587C209.369 145.242 209.401 145.7 209.351 146.4C209.155 146.4 208.959 146.4 208.756 146.4C208.725 146.269 208.693 146.139 208.661 146.004C208.284 144.583 207.8 143.836 206.772 142.8C206.903 142.734 207.034 142.668 207.169 142.6Z" fill="#264540"/>
<path d="M229.393 88C229.124 88.6434 228.871 88.9483 228.284 89.3156C228.145 89.4033 228.005 89.4909 227.862 89.5813C227.644 89.7143 227.644 89.7143 227.421 89.85C227.277 89.9418 227.132 90.0336 226.983 90.1281C225.901 90.8 225.901 90.8 225.226 90.8C225.459 90.0951 225.6 90.0325 226.211 89.6602C226.449 89.5142 226.449 89.5142 226.692 89.3652C226.859 89.2653 227.026 89.1654 227.198 89.0625C227.364 88.9603 227.53 88.8581 227.702 88.7527C228.941 88 228.941 88 229.393 88Z" fill="#274942"/>
<path d="M322.857 175.6C323.453 176 323.453 176 323.626 176.663C323.941 177.704 324.477 178.188 325.4 178.725C325.543 178.816 325.686 178.907 325.834 179C325.834 179.198 325.834 179.396 325.834 179.6C324.64 179.262 323.578 178.358 322.956 177.288C322.84 176.714 322.83 176.184 322.857 175.6Z" fill="#2B4A44"/>
<path d="M126.007 150.6C126.603 150.8 126.603 150.8 126.925 151.45C127.316 152.525 127.42 153.418 127.409 154.563C127.407 154.795 127.405 155.027 127.403 155.267C127.401 155.443 127.399 155.619 127.396 155.8C127.265 155.734 127.134 155.668 127 155.6C126.92 155.122 126.861 154.657 126.813 154.175C126.691 153.081 126.496 152.186 126.007 151.2C126.007 151.002 126.007 150.804 126.007 150.6Z" fill="#1C3E37"/>
<path d="M88.7011 123C89.2138 122.994 89.7264 122.99 90.239 122.987C90.3838 122.986 90.5286 122.984 90.6777 122.982C91.3774 122.979 91.9972 123.009 92.6699 123.2C92.6044 123.398 92.5389 123.596 92.4714 123.8C91.1617 123.734 89.8521 123.668 88.5027 123.6C88.5682 123.402 88.6337 123.204 88.7011 123Z" fill="#1E3F38"/>
<path d="M161.131 77.2C162.487 77.1124 163.43 77.052 164.504 78C164.627 78.1031 164.75 78.2062 164.877 78.3125C165.1 78.6 165.1 78.6 165.1 79.2C164.365 78.9531 164.048 78.5533 163.512 78C163.003 77.7431 162.567 77.734 161.999 77.6875C161.8 77.6707 161.601 77.6539 161.396 77.6367C161.243 77.6246 161.09 77.6124 160.933 77.6C160.998 77.468 161.064 77.336 161.131 77.2Z" fill="#173A32"/>
<path d="M330.398 160.6C330.594 160.666 330.791 160.732 330.993 160.8C331.054 160.99 331.116 161.18 331.179 161.375C331.414 162.07 331.554 162.256 332.184 162.6C332.709 162.743 332.709 162.743 333.176 162.8C333.241 162.998 333.307 163.196 333.374 163.4C332.323 163.501 331.805 163.273 330.993 162.6C330.471 161.916 330.325 161.459 330.398 160.6Z" fill="#32514B"/>
<path d="M121.444 153.2C121.509 153.332 121.575 153.464 121.642 153.6C121.465 154.129 121.465 154.129 121.196 154.762C121.109 154.97 121.022 155.177 120.932 155.391C120.67 155.957 120.406 156.485 120.055 157C119.924 157 119.793 157 119.658 157C119.781 156.167 120.062 155.511 120.439 154.762C120.543 154.553 120.647 154.344 120.755 154.129C121.047 153.6 121.047 153.6 121.444 153.2Z" fill="#284842"/>
<path d="M53.5778 128C53.6433 128 53.7088 128 53.7763 128C53.8417 128.33 53.9072 128.66 53.9747 129C54.0402 129 54.1057 129 54.1731 129C54.1995 129.193 54.2258 129.386 54.253 129.584C54.288 129.837 54.3231 130.09 54.3592 130.35C54.411 130.726 54.411 130.726 54.4638 131.109C54.5423 131.62 54.6304 132.104 54.7685 132.6C54.572 132.666 54.3755 132.732 54.1731 132.8C53.5548 131.19 53.5117 129.713 53.5778 128Z" fill="#395453"/>
<path d="M330.001 166.8C331.2 166.646 331.81 166.982 332.796 167.659C333.193 168.015 333.373 168.309 333.573 168.8C333.011 168.716 332.765 168.588 332.321 168.213C331.701 167.733 331.143 167.613 330.398 167.4C330.267 167.202 330.136 167.004 330.001 166.8Z" fill="#2E4E47"/>
<path d="M84.7321 170.2C84.8631 170.266 84.994 170.332 85.129 170.4C84.9325 171.654 84.7361 172.908 84.5337 174.2C84.4027 174.134 84.2717 174.068 84.1368 174C84.09 172.721 84.1577 171.625 84.5337 170.4C84.5991 170.334 84.6646 170.268 84.7321 170.2Z" fill="#284941"/>
<path d="M297.259 161C297.259 161.198 297.259 161.396 297.259 161.6C297.146 161.609 297.034 161.619 296.917 161.629C295.928 161.726 295.032 161.895 294.084 162.2C294.019 162.002 293.953 161.804 293.886 161.6C295.056 161.141 296.002 160.931 297.259 161Z" fill="#35534D"/>
<path d="M190.698 146.2C190.895 146.266 191.091 146.332 191.294 146.4C190.566 147.145 189.816 147.859 189.049 148.563C188.885 148.713 188.885 148.713 188.718 148.867C188.452 149.112 188.186 149.356 187.92 149.6C187.92 148.753 188.298 148.513 188.863 147.9C189.038 147.708 189.213 147.517 189.393 147.319C190.212 146.489 190.212 146.489 190.698 146.2Z" fill="#1D4136"/>
<path d="M70.0476 113.2C70.6594 113.188 71.2712 113.181 71.8832 113.175C72.1429 113.17 72.1429 113.17 72.4079 113.165C72.5755 113.163 72.743 113.162 72.9156 113.161C73.0694 113.159 73.2232 113.156 73.3817 113.154C73.8693 113.205 74.1896 113.355 74.6117 113.6C74.1669 114.048 73.15 113.846 72.5529 113.85C72.3789 113.854 72.205 113.858 72.0258 113.862C71.7748 113.864 71.7748 113.864 71.5188 113.865C71.2885 113.868 71.2885 113.868 71.0535 113.871C70.5448 113.783 70.3711 113.594 70.0476 113.2Z" fill="#3B5555"/>
<path d="M333.176 159C333.504 159.304 333.504 159.304 333.772 159.6C333.654 159.603 333.537 159.606 333.416 159.608C332.542 159.662 332.102 159.705 331.403 160.275C330.981 160.802 330.981 160.802 330.597 161.4C330.5 160.325 330.5 160.325 330.944 159.75C331.686 159.168 332.216 158.876 333.176 159Z" fill="#23443C"/>
<path d="M200.818 142C200.883 142.132 200.949 142.264 201.016 142.4C200.64 142.501 200.264 142.601 199.887 142.7C199.678 142.756 199.468 142.811 199.253 142.869C198.692 142.988 198.212 143.026 197.643 143C197.708 142.802 197.774 142.604 197.841 142.4C198.31 142.203 198.31 142.203 198.895 142.05C199.087 141.997 199.278 141.945 199.476 141.891C200.015 141.801 200.316 141.792 200.818 142Z" fill="#334F4D"/>
<path d="M201.414 152.2C201.545 152.266 201.676 152.332 201.811 152.4C201.086 153.226 200.186 153.868 199.231 154.4C199.035 154.4 198.838 154.4 198.636 154.4C198.895 153.616 199.223 153.5 199.913 153.075C200.109 152.953 200.306 152.83 200.508 152.704C200.804 152.527 201.105 152.355 201.414 152.2Z" fill="#23473B"/>
<path d="M194.072 144.6C193.616 145.088 193.131 145.471 192.583 145.85C192.353 146.012 192.353 146.012 192.118 146.178C191.977 146.251 191.836 146.325 191.691 146.4C191.494 146.334 191.298 146.268 191.095 146.2C192.906 144.209 192.906 144.209 194.072 144.6Z" fill="#274641"/>
<path d="M291.703 164.4C291.768 164.4 291.834 164.4 291.901 164.4C291.901 165.72 291.901 167.04 291.901 168.4C291.705 168.4 291.508 168.4 291.306 168.4C291.295 167.883 291.287 167.367 291.281 166.85C291.278 166.704 291.274 166.558 291.271 166.408C291.264 165.639 291.271 165.051 291.703 164.4Z" fill="#183B33"/>
<path d="M236.14 102.4C236.271 102.466 236.402 102.532 236.537 102.6C236.405 102.73 236.274 102.861 236.138 102.995C235.233 103.898 234.35 104.792 233.56 105.8C233.429 105.734 233.299 105.668 233.164 105.6C233.48 104.755 234.109 104.244 234.763 103.662C234.874 103.563 234.984 103.463 235.097 103.36C235.378 103.106 235.66 102.853 235.942 102.6C236.007 102.534 236.073 102.468 236.14 102.4Z" fill="#1C3E37"/>
<path d="M157.361 88.3994C157.557 88.3994 157.754 88.3994 157.956 88.3994C157.956 88.5314 157.956 88.6634 157.956 88.7994C158.604 89.1762 159.203 89.298 159.941 89.3994C159.941 89.5314 159.941 89.6634 159.941 89.7994C160.071 89.8654 160.202 89.9314 160.337 89.9994C158.985 90.1429 158.985 90.1429 158.335 89.7463C157.981 89.4458 157.656 89.1586 157.361 88.7994C157.361 88.6674 157.361 88.5354 157.361 88.3994Z" fill="#294C41"/>
<path d="M316.507 175C316.704 175 316.9 175 317.103 175C317.049 175.128 316.996 175.256 316.941 175.388C316.636 176.182 316.373 176.99 316.11 177.8C315.914 177.8 315.718 177.8 315.515 177.8C315.608 176.659 315.9 175.968 316.507 175Z" fill="#2D4D46"/>
<path d="M330.447 155.375C330.562 155.449 330.676 155.524 330.794 155.6C330.641 155.674 330.641 155.674 330.484 155.75C329.272 156.289 329.272 156.289 328.413 157.2C328.217 157.2 328.02 157.2 327.818 157.2C328.175 156.285 328.826 155.856 329.616 155.325C330.001 155.2 330.001 155.2 330.447 155.375Z" fill="#2A4943"/>
<path d="M79.0021 126.987C79.1517 126.988 79.3014 126.989 79.4556 126.99C79.8253 126.992 80.1951 126.996 80.5648 127C80.5648 127.132 80.5648 127.264 80.5648 127.4C79.3861 127.466 78.2074 127.532 76.9929 127.6C76.9929 127.468 76.9929 127.336 76.9929 127.2C77.6256 126.881 78.3084 126.979 79.0021 126.987Z" fill="#1B3D36"/>
<path d="M164.504 156.6C164.57 156.6 164.635 156.6 164.702 156.6C164.726 157.887 164.667 159.124 164.504 160.4C164.373 160.4 164.242 160.4 164.107 160.4C164.068 159.059 164.046 157.87 164.504 156.6Z" fill="#173A32"/>
<path d="M115.887 144.4C115.952 144.4 116.018 144.4 116.085 144.4C116.154 145.667 115.945 146.62 115.49 147.8C115.359 147.8 115.228 147.8 115.093 147.8C115.212 147.043 115.347 146.29 115.49 145.537C115.523 145.365 115.556 145.192 115.589 145.015C115.689 144.6 115.689 144.6 115.887 144.4Z" fill="#1E4039"/>
<path d="M188.515 148C188.646 148.066 188.777 148.132 188.912 148.2C188.764 148.336 188.617 148.472 188.465 148.613C188.051 149.023 187.786 149.417 187.523 149.938C187.101 150.641 186.907 150.805 186.134 151C186.454 150.22 186.983 149.657 187.547 149.05C187.64 148.949 187.733 148.847 187.829 148.743C188.057 148.495 188.286 148.247 188.515 148Z" fill="#284B3F"/>
<path d="M331.39 178.2C331.521 178.266 331.652 178.332 331.787 178.4C331.589 179 331.589 179 331.192 179.233C331.033 179.301 330.873 179.368 330.708 179.437C330.549 179.506 330.389 179.575 330.225 179.646C329.803 179.8 329.803 179.8 329.406 179.8C329.406 179.602 329.406 179.404 329.406 179.2C329.727 179.027 330.05 178.857 330.373 178.687C330.553 178.592 330.732 178.497 330.917 178.399C331.151 178.3 331.151 178.3 331.39 178.2Z" fill="#2C4B44"/>
<path d="M164.504 99.7997C163.517 100.463 162.314 100.677 161.13 100.6C161.13 100.468 161.13 100.336 161.13 100.2C162.283 99.8986 163.313 99.7561 164.504 99.7997Z" fill="#173A32"/>
<path d="M86.5183 130C87.3391 130.318 87.9534 130.921 88.5027 131.6C88.5027 131.732 88.5027 131.864 88.5027 132C87.9074 132 87.9074 132 87.3989 131.525C87.2393 131.352 87.0796 131.179 86.9152 131C86.7842 130.868 86.6532 130.736 86.5183 130.6C86.5183 130.402 86.5183 130.204 86.5183 130Z" fill="#22443C"/>
<path d="M173.037 91.1997C173.168 91.1997 173.299 91.1997 173.434 91.1997C173.452 92.2301 173.403 93.1835 173.235 94.1997C173.104 94.1997 172.973 94.1997 172.838 94.1997C172.818 93.1745 172.831 92.2097 173.037 91.1997Z" fill="#14382F"/>
<path d="M209.55 150.8C209.55 150.866 209.55 150.932 209.55 151C207.88 151.099 207.88 151.099 206.176 151.2C206.176 151.068 206.176 150.936 206.176 150.8C206.045 150.734 205.914 150.668 205.78 150.6C207.121 150.344 208.223 150.502 209.55 150.8Z" fill="#395552"/>
<path d="M208.407 150.347C208.666 150.348 208.666 150.348 208.93 150.35C209.101 150.349 209.272 150.348 209.449 150.347C209.967 150.402 210.294 150.536 210.74 150.8C210.74 150.866 210.74 150.932 210.74 151C209.693 150.934 208.645 150.868 207.565 150.8C207.962 150.4 207.962 150.4 208.407 150.347Z" fill="#1C3E36"/>
<path d="M304.601 145C304.732 145.066 304.863 145.132 304.998 145.2C304.998 145.332 304.998 145.464 304.998 145.6C304.664 145.902 304.664 145.902 304.229 146.225C304.015 146.387 304.015 146.387 303.796 146.552C303.41 146.8 303.41 146.8 303.013 146.8C303.327 145.945 303.907 145.547 304.601 145Z" fill="#284942"/>
<path d="M109.141 128.8C110.036 129.264 110.518 129.813 111.125 130.6C110.31 130.31 109.65 129.898 108.942 129.4C109.008 129.202 109.073 129.004 109.141 128.8Z" fill="#D3C7E6"/>
<path d="M319.881 184.4C321.256 184.499 321.256 184.499 322.659 184.6C322.659 184.732 322.659 184.864 322.659 185C321.808 185 320.957 185 320.08 185C320.014 184.802 319.949 184.604 319.881 184.4Z" fill="#1B3E36"/>
<path d="M166.29 150.8C166.531 151.528 166.422 151.666 166.104 152.337C166.028 152.499 165.953 152.661 165.875 152.827C165.815 152.95 165.756 153.073 165.694 153.2C165.564 153.2 165.433 153.2 165.298 153.2C165.407 152.413 165.547 151.717 165.893 151C166.024 150.934 166.155 150.868 166.29 150.8Z" fill="#1F4039"/>
<path d="M172.442 146.2C172.442 146.398 172.442 146.596 172.442 146.8C171.722 146.866 171.001 146.932 170.259 147C170.863 146.087 171.421 146.177 172.442 146.2Z" fill="#344F4D"/>
<path d="M110.926 76.3999C111.057 76.3999 111.188 76.3999 111.323 76.3999C111.258 77.1259 111.192 77.8519 111.125 78.5999C110.928 78.5339 110.732 78.4679 110.529 78.3999C110.48 77.0749 110.48 77.0749 110.926 76.3999Z" fill="#36584C"/>
<path d="M82.3511 119.399C82.5475 119.465 82.744 119.531 82.9464 119.599C82.9464 120.127 82.9464 120.655 82.9464 121.199C82.7499 121.265 82.5535 121.331 82.3511 121.399C82.3511 120.739 82.3511 120.079 82.3511 119.399Z" fill="#314D4B"/>
<path d="M185.539 22.3999C185.341 22.9999 185.341 22.9999 184.894 23.2374C184.349 23.3998 183.921 23.4324 183.356 23.3999C184.039 22.6434 184.513 22.3999 185.539 22.3999Z" fill="#274740"/>
<path d="M183.356 142.4C183.422 142.532 183.487 142.664 183.554 142.8C182.67 143.097 182.67 143.097 181.769 143.4C181.769 143.136 181.769 142.872 181.769 142.6C182.686 142.175 182.686 142.175 183.356 142.4Z" fill="#33524B"/>
<path d="M327.025 180.2C327.091 180.332 327.156 180.464 327.224 180.6C327.355 180.666 327.486 180.732 327.621 180.8C327.372 181.487 327.372 181.487 327.025 182.2C326.591 182.387 326.591 182.387 326.231 182.4C326.289 182.259 326.346 182.119 326.405 181.975C326.633 181.389 326.832 180.798 327.025 180.2Z" fill="#304E48"/>
<path d="M173.236 156.2C173.301 156.2 173.367 156.2 173.434 156.2C173.434 156.53 173.434 156.86 173.434 157.2C173.565 157.2 173.696 157.2 173.831 157.2C173.831 157.662 173.831 158.124 173.831 158.6C173.635 158.6 173.438 158.6 173.236 158.6C173.236 157.808 173.236 157.016 173.236 156.2Z" fill="#436557"/>
<path d="M173.83 154.8C173.896 154.8 173.961 154.8 174.029 154.8C173.963 155.592 173.898 156.384 173.83 157.2C173.699 157.2 173.568 157.2 173.434 157.2C173.423 156.912 173.415 156.625 173.409 156.337C173.404 156.177 173.4 156.017 173.395 155.852C173.434 155.4 173.434 155.4 173.83 154.8Z" fill="#1A3E34"/>
<path d="M303.212 146.6C303.41 147 303.41 147 303.299 147.433C303.242 147.595 303.184 147.758 303.125 147.925C303.068 148.089 303.011 148.252 302.952 148.42C302.907 148.546 302.861 148.671 302.815 148.8C302.618 148.8 302.422 148.8 302.219 148.8C302.588 147.057 302.588 147.057 303.212 146.6Z" fill="#1E4038"/>
<path d="M80.5648 127C81.4488 127.198 81.4488 127.198 82.3507 127.4C82.2852 127.598 82.2198 127.796 82.1523 128C81.432 127.868 80.7116 127.736 79.9695 127.6C80.1659 127.534 80.3624 127.468 80.5648 127.4C80.5648 127.268 80.5648 127.136 80.5648 127Z" fill="#35534D"/>
<path d="M263.723 60.2C263.788 60.332 263.854 60.464 263.921 60.6C262.841 60.798 262.841 60.798 261.739 61C261.739 60.802 261.739 60.604 261.739 60.4C262.428 60.1684 263.001 60.1862 263.723 60.2Z" fill="#264841"/>
<path d="M323.651 184.4C323.651 184.532 323.651 184.664 323.651 184.8C323.324 184.866 322.996 184.932 322.659 185C322.659 184.868 322.659 184.736 322.659 184.6C321.939 184.6 321.218 184.6 320.476 184.6C320.476 184.534 320.476 184.468 320.476 184.4C320.931 184.361 321.385 184.323 321.84 184.287C322.22 184.256 322.22 184.256 322.608 184.224C323.254 184.2 323.254 184.2 323.651 184.4Z" fill="#59706E"/>
<path d="M338.534 164C338.665 164 338.796 164 338.931 164C338.936 164.325 338.94 164.65 338.943 164.975C338.945 165.156 338.948 165.337 338.95 165.523C338.931 166 338.931 166 338.732 166.4C338.601 166.4 338.47 166.4 338.335 166.4C338.401 165.608 338.466 164.816 338.534 164Z" fill="#14382E"/>
<path d="M240.506 99C240.308 99.6 240.308 99.6 239.836 99.95C239.316 100.2 239.316 100.2 238.72 100C239.68 99 239.68 99 240.506 99Z" fill="#294C44"/>
<path d="M330.596 167C330.327 167.541 330.038 167.592 329.492 167.825C329.328 167.896 329.164 167.966 328.995 168.039C328.868 168.092 328.742 168.145 328.611 168.2C329.041 166.993 329.349 166.973 330.596 167Z" fill="#1D3F37"/>
<path d="M315.912 159.6C316.043 159.6 316.174 159.6 316.309 159.6C316.334 161.125 316.334 161.125 316.111 161.8C315.98 161.8 315.849 161.8 315.714 161.8C315.779 161.074 315.845 160.348 315.912 159.6Z" fill="#173B32"/>
<path d="M195.461 143.4C195.592 143.466 195.723 143.532 195.858 143.6C195.436 144.068 195.052 144.361 194.469 144.6C194.272 144.6 194.076 144.6 193.873 144.6C193.873 144.468 193.873 144.336 193.873 144.2C194.129 144.06 194.385 143.923 194.642 143.787C194.785 143.711 194.928 143.634 195.075 143.555C195.202 143.504 195.33 143.453 195.461 143.4Z" fill="#1C3D36"/>
<path d="M208.954 144.8C209.351 145.2 209.351 145.2 209.376 145.825C209.368 146.015 209.36 146.204 209.351 146.4C209.155 146.4 208.958 146.4 208.756 146.4C208.691 145.938 208.625 145.476 208.558 145C208.689 144.934 208.82 144.868 208.954 144.8Z" fill="#3E5757"/>
<path d="M88.7011 123C89.0285 123 89.356 123 89.6933 123C89.6933 123.066 89.6933 123.132 89.6933 123.2C90.1517 123.266 90.6101 123.332 91.0824 123.4C91.0824 123.466 91.0824 123.532 91.0824 123.6C90.2311 123.6 89.3798 123.6 88.5027 123.6C88.5682 123.402 88.6337 123.204 88.7011 123Z" fill="#4E6367"/>
<path d="M84.5338 172.6C84.5993 172.6 84.6648 172.6 84.7323 172.6C84.7978 173.392 84.8632 174.184 84.9307 175C84.7343 175.066 84.5378 175.132 84.3354 175.2C84.2699 174.804 84.2044 174.408 84.137 174C84.2024 174 84.2679 174 84.3354 174C84.4009 173.538 84.4664 173.076 84.5338 172.6Z" fill="#4F6864"/>
<path d="M294.084 161.8C293.812 162.432 293.689 162.598 293.092 163C292.895 162.934 292.699 162.868 292.496 162.8C293.414 161.8 293.414 161.8 294.084 161.8Z" fill="#1E4139"/>
<path d="M206.176 150.8C206.176 150.932 206.176 151.064 206.176 151.2C205.589 151.495 205.037 151.412 204.39 151.4C204.908 150.704 205.349 150.744 206.176 150.8Z" fill="#23483C"/>
<path d="M74.4135 113.6C75.0029 113.666 75.5922 113.732 76.1995 113.8C76.1995 113.932 76.1995 114.064 76.1995 114.2C75.5446 114.134 74.8898 114.068 74.2151 114C74.2806 113.868 74.3461 113.736 74.4135 113.6Z" fill="#1B3E36"/>
<path d="M216.702 160.985C217.293 161.093 217.293 161.093 217.884 161.2C217.688 161.299 217.688 161.299 217.487 161.4C217.487 161.532 217.487 161.664 217.487 161.8C216.898 161.734 216.309 161.668 215.701 161.6C216.297 161 216.297 161 216.702 160.985Z" fill="#3D5F53"/>
<path d="M121.443 152C121.64 152.066 121.836 152.132 122.039 152.2C121.989 152.675 121.989 152.675 121.84 153.2C121.431 153.463 121.431 153.463 121.046 153.6C121.177 153.072 121.308 152.544 121.443 152Z" fill="#405C57"/>
<path d="M55.7598 123.2C55.8253 123.332 55.8907 123.464 55.9582 123.6C55.7102 124.212 55.7102 124.212 55.3629 124.8C55.1664 124.866 54.97 124.932 54.7676 125C54.984 124.245 55.1463 123.706 55.7598 123.2Z" fill="#173A32"/>
<path d="M167.94 98.6625C168.05 98.7078 168.161 98.7532 168.274 98.8C167.395 99.4153 167.395 99.4153 166.823 99.3375C166.658 99.2694 166.658 99.2694 166.489 99.2C167.368 98.5846 167.368 98.5846 167.94 98.6625Z" fill="#1D3F38"/>
<path d="M164.107 165.2C164.238 165.2 164.369 165.2 164.504 165.2C164.569 165.728 164.635 166.256 164.702 166.8C164.506 166.734 164.309 166.668 164.107 166.6C164.107 166.138 164.107 165.676 164.107 165.2Z" fill="#23463A"/>
<path d="M333.176 159C333.7 159.066 334.224 159.132 334.764 159.2C334.698 159.398 334.633 159.596 334.566 159.8C334.042 159.668 333.518 159.536 332.978 159.4C333.044 159.268 333.109 159.136 333.176 159Z" fill="#1C3E36"/>
<path d="M158.353 85.5996C158.484 85.6656 158.615 85.7316 158.749 85.7996C158.684 85.9976 158.618 86.1956 158.551 86.3996C158.043 86.6371 158.043 86.6371 157.559 86.7996C157.559 86.6016 157.559 86.4036 157.559 86.1996C157.956 85.8621 157.956 85.8621 158.353 85.5996Z" fill="#274B3F"/>
<path d="M156.764 79.7998C156.895 79.8658 157.026 79.9318 157.161 79.9998C156.909 80.4075 156.643 80.8075 156.368 81.1998C156.237 81.1998 156.106 81.1998 155.971 81.1998C156.083 80.5459 156.268 80.2347 156.764 79.7998Z" fill="#2D5044"/>
<path d="M263.723 60.1997C264.312 60.2987 264.312 60.2987 264.914 60.3997C264.848 60.5977 264.783 60.7957 264.715 60.9997C264.06 60.9337 263.405 60.8677 262.731 60.7997C262.731 60.7337 262.731 60.6677 262.731 60.5997C263.058 60.5337 263.386 60.4677 263.723 60.3997C263.723 60.3337 263.723 60.2677 263.723 60.1997Z" fill="#40605A"/>
<path d="M183.157 23C183.579 23.1875 183.579 23.1875 183.951 23.4C183.422 23.6667 182.893 23.9333 182.364 24.2C182.711 23.225 182.711 23.225 183.157 23Z" fill="#36544E"/>
<path d="M217.487 161.4C217.952 161.451 218.416 161.518 218.876 161.6C218.942 161.732 219.007 161.864 219.075 162C217.934 162.025 217.934 162.025 217.487 161.8C217.487 161.668 217.487 161.536 217.487 161.4Z" fill="#1F4238"/>
<path d="M332.184 159C332.642 158.962 332.642 158.962 333.176 159C333.372 159.198 333.569 159.396 333.771 159.6C333.182 159.6 332.592 159.6 331.985 159.6C332.051 159.402 332.116 159.204 332.184 159Z" fill="#3A5751"/>
<path d="M121.443 153.2C121.641 153.6 121.641 153.6 121.455 154.225C121.386 154.414 121.316 154.604 121.244 154.8C121.048 154.8 120.852 154.8 120.649 154.8C120.996 153.65 120.996 153.65 121.443 153.2Z" fill="#21433C"/>
<path d="M122.039 145.4C122.17 145.4 122.301 145.4 122.436 145.4C122.501 145.928 122.567 146.456 122.634 147C122.438 146.868 122.241 146.736 122.039 146.6C122.002 145.975 122.002 145.975 122.039 145.4Z" fill="#25443F"/>
<path d="M122.039 144C122.329 144.529 122.436 144.779 122.436 145.4C122.305 145.4 122.174 145.4 122.039 145.4C121.973 145.532 121.908 145.664 121.841 145.8C121.717 145.125 121.717 145.125 121.642 144.4C121.773 144.268 121.904 144.136 122.039 144Z" fill="#415A5A"/>
<path d="M115.093 136.6C115.52 137.245 115.53 137.456 115.49 138.2C115.359 138.2 115.228 138.2 115.093 138.2C114.962 137.738 114.831 137.276 114.696 136.8C114.827 136.734 114.958 136.668 115.093 136.6Z" fill="#2B4A43"/>
<path d="M53.9746 126.4C54.04 126.532 54.1055 126.664 54.173 126.8C54.304 126.866 54.4349 126.932 54.5699 127C54.5044 127.33 54.4389 127.66 54.3714 128C54.175 128 53.9785 128 53.7761 128C53.8416 127.472 53.9071 126.944 53.9746 126.4Z" fill="#35514F"/>
<path d="M172.64 93.1997C172.706 93.1997 172.771 93.1997 172.839 93.1997C172.839 93.5297 172.839 93.8597 172.839 94.1997C172.969 94.1997 173.1 94.1997 173.235 94.1997C173.104 94.5297 172.973 94.8597 172.839 95.1997C172.708 95.1337 172.577 95.0677 172.442 94.9997C172.507 94.4057 172.573 93.8117 172.64 93.1997Z" fill="#3E5757"/>
<path d="M333.176 170.8C333.111 170.998 333.045 171.196 332.978 171.4C332.37 171.638 332.37 171.638 331.787 171.8C332.139 171.015 332.279 170.8 333.176 170.8Z" fill="#2D4D46"/>
<path d="M126.801 155.6C126.997 155.666 127.194 155.732 127.396 155.8C127.331 156.262 127.265 156.724 127.198 157.2C127.001 157.068 126.805 156.936 126.602 156.8C126.668 156.404 126.733 156.008 126.801 155.6Z" fill="#35514F"/>
<path d="M115.49 139.2C115.686 139.266 115.883 139.332 116.085 139.4C116.085 139.73 116.085 140.06 116.085 140.4C115.889 140.4 115.692 140.4 115.49 140.4C115.49 140.004 115.49 139.608 115.49 139.2Z" fill="#32504A"/>
<path d="M160.138 100C160.793 100 161.448 100 162.123 100C162.123 100.066 162.123 100.132 162.123 100.2C161.795 100.2 161.468 100.2 161.13 100.2C161.13 100.332 161.13 100.464 161.13 100.6C160.803 100.534 160.476 100.468 160.138 100.4C160.138 100.268 160.138 100.136 160.138 100Z" fill="#304D4A"/>
</g>
<defs>
<clipPath id="clip0_1566_14411">
<rect width="381" height="216" fill="white"/>
</clipPath>
</defs>
</svg>
