<svg width="34" height="34" viewBox="0 0 34 34" fill="none" xmlns="http://www.w3.org/2000/svg">
<path d="M34 17C34 26.3888 26.3888 34 17 34C7.61116 34 0 26.3888 0 17C0 7.61116 7.61116 0 17 0C26.3888 0 34 7.61116 34 17Z" fill="#51CB59"/>
<path d="M12.6349 21.776L17.2789 16.844C17.6629 16.436 17.9749 16.07 18.2149 15.746C18.4549 15.422 18.6289 15.116 18.7369 14.828C18.8449 14.54 18.8989 14.246 18.8989 13.946C18.8989 13.382 18.7129 12.944 18.3409 12.632C17.9809 12.308 17.5189 12.146 16.9549 12.146C16.3549 12.146 15.8269 12.296 15.3709 12.596C14.9149 12.896 14.5069 13.364 14.1469 14L12.7069 12.812C13.1989 11.96 13.8049 11.318 14.5249 10.886C15.2449 10.442 16.0789 10.22 17.0269 10.22C17.8069 10.22 18.4909 10.376 19.0789 10.688C19.6669 11 20.1229 11.438 20.4469 12.002C20.7709 12.554 20.9329 13.196 20.9329 13.928C20.9329 14.456 20.8669 14.93 20.7349 15.35C20.6149 15.758 20.4049 16.172 20.1049 16.592C19.8049 17 19.3909 17.48 18.8629 18.032L15.2989 21.722L12.6349 21.776ZM12.6349 23V21.776L14.4169 21.146H21.1849V23H12.6349Z" fill="#10352B"/>
</svg>
