<?xml version="1.0" encoding="UTF-8"?><svg id="Capa_1" xmlns="http://www.w3.org/2000/svg" viewBox="0 0 2254.43 520"><defs><style>.cls-1{fill:#10352b;}</style></defs><path class="cls-1" d="m2136.08,21.71h-18.52s0-11.71,0-11.71h52.58s0,11.71,0,11.71h-18.52s0,45.87,0,45.87h-15.55s0-45.87,0-45.87Z"/><path class="cls-1" d="m2176.38,10.01h17.37s15.64,36.56,15.64,36.56l15.64-36.56h16.98s0,57.57,0,57.57h-13.72s0-31.38,0-31.38c0-1.34.29-5.76.38-6.14l-2.11,6.14-12.95,31.38h-9.21s-12.96-31.38-12.96-31.38c-.58-1.34-1.92-5.47-2.11-6.14,0,.38.38,4.8.38,6.14v31.38s-13.34,0-13.34,0V10.01Z"/><path class="cls-1" d="m550.54,10h101.28c3.83,0,6.94,3.11,6.94,6.94v483.92c0,3.83-3.11,6.94-6.94,6.94h-101.28c-3.83,0-6.94-3.11-6.94-6.94V16.94c0-3.83,3.11-6.94,6.94-6.94Z"/><path class="cls-1" d="m1309.68,110.6h-103.59c-3.83,0-6.94-3.11-6.94-6.94V16.94c0-3.83,3.11-6.94,6.94-6.94h322.33c3.83,0,6.94,3.11,6.94,6.94v86.72c0,3.83-3.11,6.94-6.94,6.94h-102.92s0,390.26,0,390.26c0,3.83-3.11,6.94-6.94,6.94h-101.95c-3.83,0-6.94-3.11-6.94-6.94V110.6Z"/><path class="cls-1" d="m1981.23,258.9l-75.54,130.83h-158.35s-75.54-130.83-75.54-130.83l75.54-130.84h158.35s75.54,130.84,75.54,130.84Zm-15.38-248.9h-278.66c-4.96,0-9.54,2.64-12.01,6.94l-135.69,235.03c-2.48,4.29-2.48,9.58,0,13.87l135.69,235.02c2.48,4.29,7.06,6.94,12.01,6.94h278.66c4.96,0,9.54-2.64,12.01-6.94l135.69-235.02c2.48-4.29,2.48-9.58,0-13.87l-135.69-235.02c-2.48-4.29-7.06-6.94-12.01-6.94Z"/><path class="cls-1" d="m1088.74,332.31c53.61-29.78,84.71-81.4,84.71-152.22,0-106.55-74.78-170.09-204.5-170.09h-218.73c-3.83,0-6.94,3.1-6.94,6.94v483.92c0,3.83,3.11,6.94,6.94,6.94h103.27c3.83,0,6.94-3.11,6.94-6.94v-129.5s124.7,0,124.7,0l71.27,132.79c1.21,2.25,3.56,3.66,6.11,3.66h109.93c5.26,0,8.61-5.63,6.09-10.25l-89.8-165.24Zm-146.93-62.21h-81.39s0-158.84,0-158.84h97.28c70.81,0,97.29,28.46,97.29,74.79,0,54.93-35.07,84.05-113.17,84.05Z"/><path class="cls-1" d="m264.07,503.82L492.39,19.9c2.17-4.6-1.19-9.9-6.27-9.9h-106.32c-2.74,0-5.23,1.62-6.34,4.13l-120.61,272.26L131.58,14.11c-1.11-2.5-3.6-4.11-6.34-4.11H16.95c-5.09,0-8.45,5.3-6.27,9.9l228.96,483.92c1.15,2.42,3.59,3.97,6.27,3.97h11.89c2.68,0,5.13-1.55,6.27-3.98Z"/></svg>