<?xml version="1.0" encoding="UTF-8" standalone="no"?>
<svg version="1.1" viewBox="0 0 69 70.1" xmlns="http://www.w3.org/2000/svg">
   <defs><linearGradient id="gradient"
	   x1="155" y1="450" x2="300" y2="600" gradientUnits="userSpaceOnUse">
		<stop offset="0" style="stop-color:#715296" />
		<stop offset="1" style="stop-color:#3A3387" />
	</linearGradient></defs>
	<path style="fill:url(#gradient)" d="m 50.794596,60.106504 2.778125,-0.82021 c 3.280833,-0.97896 5.794374,-3.67771 6.588124,-6.985 l 5.609167,-23.75959 c 0.132292,-0.52916 0.185208,-1.05833 0.238125,-1.5875 z m -45.825833,-41.93646 -1.905,8.12271 17.145,37.22687 0.608541,0.58208 c 1.243542,1.16417 2.751667,1.95792 4.392084,2.3548 0.687916,0.15875 1.42875,0.23812 2.143125,0.26458 z m 25.267708,48.10125 6.111875,-1.82563 -22.251458,-48.28646 c -0.343959,-0.76729 -0.291042,-1.66687 0.15875,-2.35479 0.449791,-0.71437 1.243541,-1.13771 2.090208,-1.13771 h 7.593542 c 0.9525,0 1.852083,0.55563 2.248958,1.42875 l 16.377708,35.56 L 58.33522,14.995044 45.158971,2.612542 C 42.671887,0.257751 39.100012,-0.588916 35.819179,0.416501 L 12.456471,7.401504 c -3.069167,0.92604 -5.450417,3.30729 -6.402917,6.35 z M 2.00543,30.764204 0.25918,38.146084 c -0.79375,3.33375 0.264583,6.85271 2.778125,9.2075 l 11.694583,11.00667 z" />
	<path d="m 16.345846,14.783374 h 7.593542 l 18.600208,40.40188 18.388541,-40.40188 h 7.646458 l -25.373541,55.43021 h -1.322917 z" />
</svg>
