<svg aria-labelledby="Logo virto" role="img" width="1028" height="230" viewBox="0 0 1028 230" fill="none" xmlns="http://www.w3.org/2000/svg">
<title id="Logo virto">Logo virto</title>
<g clip-path="url(#clip0_52_10)">
<path d="M248.94 0H295.688C297.53 0 298.912 1.38 298.912 3.22V225.86C298.912 227.7 297.53 229.08 295.688 229.08H248.94C247.098 229.08 245.716 227.7 245.716 225.86V3.22C245.716 1.38 247.098 0 248.94 0Z" fill="#10352B"/>
<path d="M598.515 46.23H550.846C549.003 46.23 547.622 44.85 547.622 43.01V3.22C547.622 1.38 549.003 0 550.846 0H699.381C701.223 0 702.605 1.38 702.605 3.22V43.01C702.605 44.85 701.223 46.23 699.381 46.23H651.941V225.86C651.941 227.7 650.56 229.08 648.717 229.08H601.739C599.897 229.08 598.515 227.7 598.515 225.86V46.23Z" fill="#10352B"/>
<path d="M907.79 114.54L873.017 174.8H800.016L765.243 114.54L800.016 54.28H873.017L907.79 114.54ZM891.21 0H782.054C773.763 0 766.164 4.37 762.019 11.5L709.053 103.04C704.908 110.17 704.908 118.91 709.053 126.04L762.019 217.58C766.164 224.71 773.763 229.08 782.054 229.08H891.21C899.5 229.08 907.099 224.71 911.245 217.58L964.21 126.04C968.356 118.91 968.356 110.17 964.21 103.04L911.245 11.5C907.099 4.37 899.5 0 891.21 0Z" fill="#10352B"/>
<path d="M496.728 148.35C521.369 134.55 535.647 110.86 535.647 78.43C535.647 29.44 501.104 0.23 441.459 0.23L340.824 0C338.982 0 337.6 1.38 337.6 3.22V225.86C337.6 227.7 338.982 229.08 340.824 229.08H388.493C390.336 229.08 391.717 227.7 391.717 225.86V166.29H449.059L481.99 227.47C482.45 228.62 483.602 229.08 484.753 229.08H535.416C537.95 229.08 539.331 226.55 538.18 224.48L496.728 148.35ZM429.254 119.6H391.717V46.46H436.623C469.324 46.46 481.529 59.57 481.529 80.96C481.299 106.26 465.179 119.6 429.254 119.6Z" fill="#10352B"/>
<path d="M116.986 227.24L222.227 4.6C223.148 2.53 221.766 0 219.233 0H170.412C169.261 0 168.109 0.69 167.419 1.84L111.919 127.19L55.9597 1.84C55.4992 0.69 54.3477 0 52.966 0H3.22409C0.921223 0 -0.690785 2.53 0.230362 4.6L105.702 227.24C106.162 228.39 107.314 229.08 108.695 229.08H114.222C115.374 229.08 116.525 228.16 116.986 227.24Z" fill="#10352B"/>
</g>
<defs>
<clipPath id="clip0_52_10">
<rect width="1028" height="230" fill="white"/>
</clipPath>
</defs>
</svg>
