<!-- Virto Logo {% capture h %}{% if domain %}100{% else %}88{% endif %}{% endcapture %}-->
<svg width="228" height="{{h}}" version="1.1" viewBox="0 0 228 {{h}}">
	<defs>
		<linearGradient id="gradient{{h}}" x1="0" x2="40" y1="0" y2="30" gradientUnits="userSpaceOnUse">
			<stop stop-color="var(--color-alt, #715296)" offset="0"/>
			<stop stop-color="var(--color-accent, #3A3387)" offset="1"/>
		</linearGradient>
	</defs>
	<path d="m52.2 70 2.85-0.842c3.37-1.01 5.95-3.78 6.76-7.17l5.76-24.4c0.136-0.543 0.19-1.09 0.244-1.63zm-47.1-43.1-1.96 8.34 17.6 38.2 0.625 0.598c1.28 1.2 2.83 2.01 4.51 2.42 0.706 0.163 1.47 0.244 2.2 0.272zm25.9 49.4 6.28-1.87-22.8-49.6c-0.353-0.788-0.299-1.71 0.163-2.42 0.462-0.733 1.28-1.17 2.15-1.17h7.8c0.978 0 1.9 0.57 2.31 1.47l16.8 36.5 16.2-35.6-13.5-12.7c-2.55-2.42-6.22-3.29-9.59-2.25l-24 7.17c-3.15 0.951-5.6 3.4-6.57 6.52zm-29-36.5-1.79 7.58c-0.815 3.42 0.272 7.04 2.85 9.45l12 11.3z" fill="url(#gradient{{h}})"/>
	<path d="m16.8 23.4h7.8l19.1 41.5 18.9-41.5h7.85l-26.1 56.9h-1.36z"/>
	<path id="letters" d="m198 22c8.77 0 16 3.18 21.8 9.51 5.24 5.79 7.85 12.6 7.85 20.6 0 7.96-2.77 14.9-8.31 20.8-5.54 5.95-12.7 8.91-21.4 8.91-8.75 0-15.9-2.96-21.4-8.91s-8.31-12.9-8.31-20.8c0-7.88 2.61-14.7 7.85-20.5 5.81-6.36 13.1-9.56 21.9-9.56zm-0.0272 7.17c-6.09 0-11.3 2.25-15.7 6.74-4.37 4.51-6.57 9.94-6.57 16.3 0 4.1 1.01 7.96 2.99 11.5 1.98 3.56 4.7 6.3 8.1 8.23 3.4 1.93 7.12 2.91 11.2 2.91 4.05 0 7.8-0.978 11.2-2.91 3.4-1.93 6.09-4.67 8.1-8.23 1.98-3.56 2.99-7.39 2.99-11.5 0-6.38-2.2-11.8-6.6-16.3-4.37-4.48-9.62-6.74-15.7-6.74zm-56.8-26.8h7.33v21.1h11.6v6.33h-11.6v50.6h-7.33v-50.6h-10v-6.33h10zm-41.4 21.1h7.47v8.31c2.23-3.29 4.59-5.73 7.06-7.36 2.47-1.63 5.05-2.44 7.74-2.44 2.01 0 4.18 0.652 6.49 1.93l-3.83 6.17c-1.55-0.652-2.83-1.01-3.88-1.01-2.44 0-4.81 1.01-7.06 3.02-2.25 2.01-3.99 5.11-5.19 9.35-0.896 3.23-1.36 9.81-1.36 19.7v19.3h-7.44zm-16.1-23.4c1.66 0 3.1 0.598 4.27 1.77 1.17 1.2 1.77 2.61 1.77 4.29 0 1.63-0.598 3.04-1.77 4.24-1.17 1.2-2.61 1.77-4.27 1.77-1.63 0-3.04-0.598-4.21-1.77-1.17-1.2-1.77-2.61-1.77-4.24 0-1.68 0.598-3.1 1.77-4.29 1.17-1.17 2.58-1.77 4.21-1.77zm-3.64 23.4h7.33v56.9h-7.33z"/>
	{% if domain %}
	<path d="m163 89.1h0.978v6.09l3.56-3.1h1.47l-4.24 3.67 4.48 4.02h-1.39l-3.88-3.48v3.48h-0.978zm-12.8 2.99h1.01v1.11c0.299-0.435 0.625-0.788 0.951-1.01 0.326-0.217 0.679-0.326 1.06-0.326 0.272 0 0.57 0.0815 0.869 0.272l-0.516 0.842c-0.217-0.0815-0.38-0.136-0.516-0.136-0.326 0-0.652 0.136-0.951 0.408-0.299 0.272-0.543 0.706-0.706 1.28-0.136 0.435-0.19 1.33-0.19 2.66v2.61h-1.01zm-13.5-0.217c1.2 0 2.17 0.435 2.96 1.28 0.706 0.788 1.06 1.71 1.06 2.77 0 1.09-0.38 2.01-1.11 2.83-0.761 0.815-1.71 1.2-2.88 1.2-1.2 0-2.15-0.408-2.91-1.2-0.761-0.815-1.11-1.74-1.11-2.83 0-1.06 0.353-1.98 1.06-2.77 0.761-0.842 1.74-1.28 2.93-1.28zm0 0.978c-0.815 0-1.52 0.299-2.12 0.924-0.598 0.598-0.896 1.36-0.896 2.2 0 0.57 0.136 1.09 0.408 1.55 0.272 0.489 0.625 0.842 1.09 1.11 0.462 0.272 0.951 0.38 1.52 0.38 0.543 0 1.06-0.136 1.52-0.38 0.462-0.244 0.815-0.625 1.09-1.11 0.272-0.489 0.407-1.01 0.407-1.55 0-0.869-0.299-1.6-0.896-2.2-0.598-0.598-1.3-0.924-2.12-0.924zm-24.8-0.761h1.03l2.36 5.6 2.47-5.6h0.19l2.47 5.6 2.42-5.6h1.03l-3.34 7.72h-0.19l-2.47-5.51-2.47 5.51h-0.217zm-11-2.88h0.978v2.85h1.58v0.869h-1.58v6.85h-0.978v-6.85h-1.36v-0.869h1.36zm-11.8 8.01 0.842 0.435c-0.272 0.543-0.598 0.978-0.951 1.3-0.353 0.326-0.761 0.57-1.22 0.761-0.462 0.163-0.951 0.272-1.52 0.272-1.25 0-2.23-0.408-2.96-1.22-0.706-0.815-1.06-1.77-1.06-2.8 0-0.978 0.299-1.85 0.896-2.61 0.761-0.978 1.79-1.47 3.04-1.47 1.3 0 2.36 0.489 3.15 1.49 0.57 0.706 0.842 1.58 0.842 2.64h-6.93c0.0272 0.896 0.299 1.63 0.869 2.2 0.543 0.57 1.25 0.869 2.04 0.869 0.38 0 0.761-0.0815 1.14-0.217s0.679-0.326 0.951-0.543c0.299-0.244 0.57-0.598 0.869-1.11zm0-2.06c-0.136-0.516-0.326-0.951-0.57-1.28s-0.598-0.57-1.01-0.761c-0.408-0.19-0.842-0.299-1.3-0.299-0.761 0-1.41 0.244-1.96 0.733-0.408 0.353-0.706 0.896-0.896 1.6zm-23.4-3.07h0.978v1.39c0.408-0.516 0.842-0.924 1.3-1.2 0.489-0.272 1.01-0.38 1.58-0.38 0.57 0 1.09 0.136 1.52 0.435 0.435 0.299 0.788 0.679 0.978 1.2 0.217 0.489 0.326 1.28 0.326 2.31v3.97h-0.978v-3.67c0-0.896-0.0272-1.47-0.109-1.77-0.109-0.516-0.326-0.896-0.652-1.14-0.326-0.244-0.761-0.38-1.28-0.38-0.598 0-1.14 0.19-1.6 0.598-0.462 0.407-0.788 0.896-0.951 1.47-0.0815 0.38-0.136 1.09-0.136 2.09v2.83h-0.978zm-10.9 6.14c0.244 0 0.435 0.0815 0.625 0.244 0.163 0.163 0.244 0.38 0.244 0.625 0 0.244-0.0815 0.435-0.244 0.625-0.163 0.163-0.38 0.272-0.625 0.272-0.244 0-0.435-0.0815-0.625-0.272-0.163-0.163-0.244-0.38-0.244-0.625 0-0.244 0.0815-0.462 0.244-0.625 0.163-0.163 0.38-0.244 0.625-0.244z"/>
	{% endif %}
</svg>
