<svg width="274" height="202" viewBox="0 0 274 202" fill="none" xmlns="http://www.w3.org/2000/svg">
<path d="M232.807 8.42964H225.61V3.88464H246.071V8.42964H238.875V26.26H232.845L232.807 8.42964Z" fill="#DECFF1"/>
<path d="M248.482 3.88464H255.251L261.319 18.1023L267.387 3.88464H274V26.26H268.671V14.0623C268.671 13.5573 268.787 11.8093 268.826 11.6927L268.009 14.0623L262.953 26.26H259.374L254.317 14.0623C254.084 13.5573 253.578 11.9258 253.5 11.6927C253.5 11.8481 253.656 13.5573 253.656 14.0623V26.26H248.482V3.88464Z" fill="#DECFF1"/>
<path d="M172.553 100.573L143.185 151.383H81.5699L52.2016 100.573L81.5699 49.762H143.185L172.553 100.573ZM166.563 3.88464H58.1531C56.2082 3.88464 54.4577 4.89464 53.4853 6.56503L0.73911 97.8923C-0.233349 99.5627 -0.233349 101.622 0.73911 103.292L53.5242 194.58C54.4966 196.251 56.286 197.261 58.192 197.261H166.602C168.547 197.261 170.297 196.251 171.269 194.58L224.055 103.292C225.027 101.622 225.027 99.5627 224.055 97.8923L171.269 6.60387C170.297 4.93349 168.508 3.88464 166.563 3.88464Z" fill="#DECFF1"/>
</svg>
