<svg width="341" height="244" viewBox="0 0 341 244" fill="none" xmlns="http://www.w3.org/2000/svg">
<g clip-path="url(#clip0_52_2)">
<path d="M213.674 121.512L176.842 185.196H99.5192L62.6873 121.512L99.5192 57.584H176.842L213.674 121.512ZM196.111 0H80.4934C71.7123 0 63.663 4.636 59.2724 12.2L3.17085 109.312C-1.21971 116.876 -1.21971 126.148 3.17085 133.712L59.2724 230.824C63.663 238.388 71.7123 243.024 80.4934 243.024H196.111C204.893 243.024 212.942 238.388 217.333 230.824L273.434 133.712C277.825 126.148 277.825 116.876 273.434 109.312L217.089 12.2C212.698 4.636 204.649 0 196.111 0Z" fill="#DECFF1"/>
</g>
<defs>
<clipPath id="clip0_52_2">
<rect width="341" height="244" fill="white"/>
</clipPath>
</defs>
</svg>
