<svg enable-background="new 0 0 497 496.3" version="1.1" viewBox="0 0 497 496.3" xmlns="http://www.w3.org/2000/svg">
	<path d="m449.3 497c-7.654-1.444-15.56-1.601-23.03-3.968-8.25-0.7964-16.93 1.011-24.79-2.331-9.401-0.5156-18.8-2.089-28.23-1.274-10.33-0.5844-20.3-4.147-30.7-3.958-10.36-0.4525-20.34-3.566-30.52-5.215-9.34-1.028-18.76-0.7168-28.12-1.348-10.57-3.536-21.99-5.57-33.06-3.334-9.615 1.305-18.2-5.089-27.75-4.604-5.781 2.403-11.94 0.0682-17.79-0.7115-2.443-0.6767-5.106 0.4723-7.372-0.574-8.868-3.624-18.65-3.255-28.03-2.828-9.622-4.01-20.68-0.5273-30.17-5.021-7.834-2.529-16.15 2.127-23.91-0.8919-2.306-1.25-5.055-0.8013-7.57-1.355-6.505-0.8847-12.97-2.231-19.56-2.352-9.341 1.712-18.53-1.559-27.47-3.832-9.725-1.632-19.59-2.204-29.43-2.5-5.621-0.7462-11.54 0.8006-16.96-1.298-2.764-1.012-3.945-4.439-2.793-7.052 1.811-7.222-0.1257-15.02 2.808-22.01-39.83-384.4 397.1 39.96 397.1 39.96l53.56-405.3s9.433 0.8442 13.99 1.922c2.754 0.73 5.687 0.4239 8.28-0.7296 3.47-1.228 7.912-0.04139 9.554 3.451 1.659 3.257 0.718 7.275-1.417 10.08 0.4948 8.726-5.107 16.54-4.37 25.29 2.342 3.99 0.8912 8.719-0.5587 12.74-1.167 3.358-2.201 7.135-0.8042 10.59 1.413 9.782-3.258 18.98-4.064 28.59 2.376 4.583 1.068 9.852-0.3263 14.51-1.073 3.631-1.736 7.533-0.6466 11.24 1.212 7.835-2.189 15.49-1.451 23.33-1.638 12.37-3.818 24.66-5.643 37-2.353 11.21-2.189 22.74-3.557 34.08-0.6251 9.258-0.8685 18.66-3.419 27.64-3.431 5.741-2.651 12.71-1.677 19.01 0.2239 2.489 1.21 5.082-0.0268 7.445-2.582 8.332-2.433 17.14-2.867 25.76-2.071 12.14-6.184 24.26-4.679 36.73 0.2087 2.195 1.008 4.316 0.6677 6.539-0.5364 11.48-2.897 22.77-5.628 33.9 2.267 8.658-0.8677 17.4-1.189 26.09-3.368 9.228-2.786 19.21-4.307 28.78-2.643 3.471-1.877 8.028-1.438 12.04 0.1706 1.95 0.1964 4.003-0.6522 5.814z" fill="#85da8b"/>
	<path d="m437.9 485.5c-5.163 2.931-10.85-1.712-16.39-0.4452-7.78-1.336-15.09-6.018-23.23-4.454-7.006 1.763-13.68-3.521-20.63-1.086-9.604 0.0499-18.8-4.441-28.47-3.051-5.565-1.132-11.03-3.888-16.7-1.443-7.527-0.1917-14.43-4.056-21.99-4.41-4.931-0.7348-9.863 0.1604-14.71 0.6929-5.89-1.401-11.36-4.698-17.69-3.578-6.406 0.6024-12.75 1.473-19.01-0.7297-7.048-0.8489-14.06-2.288-21.17-2.57-7.379 1.982-13.78-4.821-21.09-2.78-5.806 0.4734-11.32-5.31-16.97-1.422-5.725 1.183-10.64-3.334-16.36-2.678-7.209-0.1216-14.62 7e-3 -21.45-2.638-10.33-2.16-21.66 2.685-31.35-2.634-5.176-4.661-11.31-1.365-17.24-1.203-5.847 1.618-10.16-2.502-15.32-3.972-6.101 1.722-12.12 1.664-18.17-0.9223-6.66 0.6057-13.43 0.0572-19.88-1.852-5.329-2.158-10.96-1.688-16.57-1.453-6.574-0.671-13.47 0.4509-19.8-1.713-4.635-4.598-11.01-2.328-16.66-2.136-5.94 3.223-11.18-3.913-6.89-8.983-0.5677-7.929 3.43-14.66 4.291-22.19-1.027-6.103 1.906-11.62 2.288-17.59 0.3609-8.647-0.7372-17.35 0.9589-25.93 0.5127-6.068 2.974-11.68 4.336-17.53 1.464-8.39-1.821-16.66-0.608-25.07 0.5254-9.569 4.604-18.56 4.472-28.21 0.435-14.87 1.531-29.78 4.926-44.29 1.193-8.675 0.7875-17.5 1.576-26.18 3.154-5.165 5.381-10.66 2.828-16.6 0.1864-6.092 0.1346-12.26 1.077-18.29 2.265-8.131 6.137-16.31 4.596-24.98 0.2764-8.307 1.791-16.52 1.971-24.85 0.6534-7.712 0.3764-15.62 1.86-23.19 3.169-5.86 1.319-12.27 1.224-18.38 0.9537-8.783 3.261-17.37 4.164-26.16 3.748-6.047 1.329-12.41 1.412-18.86 1.185-7.845 1.542-15.84 4.12-23.41 1.606-5.521 2.669-11.42 0.6581-16.98-2.262-6.439 3.41-14.04 10.39-11.72 5.855 1.952 11.54 4.627 17.82 4.973 6.954-1.638 13.55-0.4016 20.36 1.559 7.387-0.1452 15.67-1.611 22.12 2.986 5.481 1.806 11.3-1.144 16.87 0.72 6.775 1.253 13.68 0.1892 20.34 2.357 8.438 1.945 17.8-0.7145 25.62 3.956 5.672 1.307 11.63-1.107 17.19 1.233 5.642 0.9838 11.34-1.8 16.85 0.4788 6.739 2.126 13.74 3.56 20.82 2.66 6.997 1.521 13.93 4.373 21.39 3.001 17.66-1.779 34.5 6.14 52.1 5.372 9.962 0.697 19.96 1.389 29.84 2.856 9.197 1.437 18.23 5.529 27.68 3.471 6.516-0.616 14.09-1.136 19.42 3.421 4.654 2.436 9.363-3.598 13.97-0.563 4.322 3.999 9.333 2.358 14.18 0.9096 5.564 0.08348 10.78 2.934 16.47 1.815 7.143-0.3502 13.85 2.454 20.64 4.175 6.876-1.533 14.27-1.802 20.92 0.8273 3.66 4.227 9.065 0.3322 13.15 2.705 2.51 5.318-3.398 11.01-1.23 16.79 0.708 7.526-1.214 14.78-2.981 21.99-2.617 6.029 2.2 12.39-0.8994 18.08-3.981 6.163-1.526 13.66-1.67 20.48 0.4981 11.24-3.769 21.93-5.44 32.88-1.017 6.512 2.469 13.15-0.3532 19.35-2.58 6.786-2e-3 14.07-2.161 20.95-2.343 6.37-2.671 12.67-0.9258 19.16-1.455 4.934-3.817 9.82-2.46 15.23 0.358 6.057-4.578 11.52-2.481 17.68 0.0839 5.74 0.6065 12.03-2.818 16.97-3.309 5.579 2.406 10.97 0.3026 16.82-1.131 6.151-0.6807 12.67-4.084 18.21-2.652 5.683-1.362 12.24-0.8093 18.26 1.766 6.314-4.362 12.15-1.746 18.53-0.2798 6.812-3.353 13.3-2.051 20.22-1.939 6.433-1.589 12.97-1.973 19.52-2.086 6.098-2.939 12.37-3.035 18.8-0.3904 8.532-2.323 16.86-4.051 25.17-0.1165 7.516-0.9605 14.94-1.989 22.37-1.153 6.376 3.374 13.34-1.732 18.76-4.535 6.348 4.481 15.08-1.961 20.73z" fill="#bd9fe3"/>
	<path d="m407.2 271.8c-1.016 3.714-1.889 7.47-2.595 11.25-1.06 3.48-2.734 6.783-3.288 10.41-0.8344 2.734-1.785 5.454-3.005 8.038-1.363 2.168-3.136 4.113-3.944 6.59-1.438 3.274-3.38 6.286-5.155 9.373-1.305 2.746-2.554 5.677-5.007 7.614-1.718 1.753-2.214 4.222-3.096 6.417-1.292 2.3-3.725 3.642-5.15 5.853-1.741 2.397-3.479 4.816-5.688 6.813-3.22 3.329-6.072 6.988-9.183 10.41-4.156 4.044-8.961 7.354-13.17 11.35-2.878 2.385-6.13 4.265-9.182 6.41-2.696 1.718-5.069 3.961-7.945 5.38-2.275 0.8798-4.801 1.4-6.603 3.167-3.75 2.707-8 4.595-11.98 6.927-2.978 1.498-6.011 3.093-9.317 3.704-1.944 0.2166-3.907 0.5201-5.649 1.469-2.4 1.112-4.941 2.169-7.641 2.02-2.511 0.1838-4.665 1.583-6.922 2.531-5.545 1.75-11.39 2.153-17.13 2.888-3.274 0.0991-6.171 2.056-9.468 1.967-4.089 0.1983-8.226 0.5444-12.29-0.0571-2.352-0.5381-4.836-0.8798-7.198-0.2108-3.24 0.4287-6.527 7e-3 -9.743-0.4038-2.715-0.6843-5.469-1.898-8.32-1.249-2.24 0.2329-4.485-0.3656-6.41-1.498-2.896-1.14-6.052-1.254-9.08-1.835-2.07-0.1322-4.248 0.1861-6.178-0.7721-3.54-1.447-7.092-2.85-10.63-4.301-3.534-1.353-7.033-2.8-10.44-4.452-2.53-1.054-5.421-1.354-7.564-3.207-1.823-1.387-3.742-2.863-6.092-3.141-2.115-0.4978-4.106-1.577-5.536-3.23-3.493-2.906-7.652-4.84-11.38-7.406-1.711-1.233-3.653-2.052-5.518-3.001-2.343-1.258-3.445-3.833-5.568-5.358-2.488-1.932-5.074-3.756-7.233-6.071-1.773-1.642-3.189-3.599-4.67-5.491-1.565-1.973-3.928-3.086-5.436-5.104-1.922-2.414-3.568-5.194-6.306-6.79-2.761-2.358-3.962-5.922-6.171-8.723-1.666-2.35-3.033-4.906-3.952-7.638-1.107-2.266-2.797-4.178-4.054-6.357-1.396-2.019-3.824-3.487-4.15-6.106-0.334-1.952-0.4083-4.049-1.637-5.705-2.876-5.157-4.824-10.76-6.928-16.25-0.9622-3.148-1.858-6.341-3.34-9.292-0.9929-3.221-0.3407-6.871-2.208-9.831-1.38-3.322-1.69-6.972-1.915-10.53 0.09202-2.173 0.3106-4.378-0.2791-6.507-0.5118-2.706-0.9245-5.429-1.608-8.098-0.4103-1.832-0.2718-3.729 0.2456-5.52 0.4383-2.263 0.04069-4.562-0.5052-6.764-0.357-3.123 0.9037-6.126 0.9465-9.235 0.1442-2.588 0.6114-5.184 0.1607-7.767-0.2622-1.9-0.08708-3.87 0.8088-5.588 0.774-2.018 1.132-4.222 0.7555-6.366-0.06766-3.209 1.109-6.256 1.839-9.333 1.054-2.618 2.481-5.232 2.316-8.146 0.2773-3.579 2.364-6.618 3.381-9.988 1.642-4.603 3.115-9.383 6.067-13.36 1.608-2.313 2.042-5.164 3.317-7.645 1.391-3.201 3.214-6.184 5.28-8.992 1.884-2.928 4.646-5.413 5.485-8.912 0.5967-2.01 2.046-3.557 3.56-4.929 2.057-2.082 3.526-4.644 5.356-6.901 1.861-1.814 4.742-2.6 5.819-5.166 0.9243-1.917 1.694-4.305 3.917-5.068 2.088-0.9472 3.955-2.338 5.447-4.077 2.031-1.909 3.973-3.931 5.588-6.207 2.226-2.272 5.882-2.597 7.695-5.366 1.328-1.68 2.856-3.292 4.884-4.104 3.557-1.816 6.473-4.592 9.88-6.643 2.719-1.686 5.422-3.411 8.164-5.052 2.29-1.025 4.798-1.464 7.067-2.539 2.746-0.7867 5.466-1.782 7.829-3.417 2.146-1.181 4.612-1.453 6.969-1.931 2.682-0.8923 4.68-3.214 7.523-3.732 6.704-1.893 13.63-2.844 20.35-4.69 3.467-1.001 7.215 0.5114 10.59-1.005 3.433-0.9445 7.048-0.848 10.57-0.7434 2.506 0.2933 5.151 0.9685 7.581-0.07224 2.933-0.6319 5.968-0.533 8.949-0.5029 3.601 0.1805 7.187 0.6862 10.65 1.692 4.702 1.077 9.487 1.785 14.25 2.504 2.334-0.08157 4.802-0.4771 6.989 0.587 5.157 1.51 10.11 3.619 15.24 5.19 2.825 1.005 5.894 1.539 8.349 3.371 2.654 1.88 5.704 3.082 8.577 4.568 2.375 0.7656 5.174 0.5052 7.142 2.285 2.988 2.101 6.332 3.652 9.273 5.812 1.839 1.462 3.068 3.816 5.492 4.421 1.904 0.5462 3.896 1.059 5.369 2.476 4.166 3.178 8.251 6.516 11.71 10.47 1.532 1.666 3.775 2.341 5.486 3.749 1.985 1.901 2.372 4.971 4.678 6.605 2.626 1.9 4.842 4.277 7.046 6.636 2.658 2.992 4.914 6.331 6.784 9.867 1.373 2.395 4.017 3.74 5.195 6.272 1.165 2.065 1.721 4.522 3.579 6.134 1.547 1.499 3.093 3.147 3.591 5.313 0.6956 2.239 1.79 4.31 2.968 6.325 2.279 4.172 4.28 8.517 5.553 13.11 1.04 3.117 1.874 6.35 3.625 9.166 1.525 2.697 2.046 5.786 3.04 8.689 1.154 3.943 2.365 7.909 2.883 11.99 0.0347 2.322-1.061 4.695-0.1181 6.965 0.7422 2.984 1.246 6.027 2.048 8.995 0.4801 3.092 0.6076 6.258 0.3668 9.374-0.3836 2.352-0.845 4.913 0.3415 7.123 0.834 2.193 0.4561 4.61-0.3218 6.756-0.4924 2.436-0.7349 4.917-1.275 7.345-0.4174 3.044-0.068 6.185-1.031 9.149-0.5641 2.096-1.106 4.308-0.4951 6.459 0.3909 1.769 0.5445 3.757-0.5536 5.32-0.5207 0.9863-1.096 1.971-1.317 3.078z" fill="#bfe9f8"/>
	<path d="m221.9 74.48c-2.508 0.05089-4.986 0.5164-7.342 1.596-2.019 0.7944-3.119 2.858-3.977 4.721-3.028 2.251-3.411 6.758-0.2578 9.129 3.431 4.263 9.191 4.87 13.34 8.123 3.018 2.322 6.176 4.563 8.852 7.26 2.324 3.822 1.735 8.714 0.6816 12.86-1.536 4.947-4.362 9.915-3.174 15.27 0.1036 4.423 1.274 9.282 5.514 11.53 3.726 2.179 7.646 4.916 12.12 4.934 5.037-0.2883 8.041-5.061 10.33-8.994 1.474-2.321 2.167-6.68 5.891-5.674 4.195 1.582 8.759-0.1668 11.77-3.262 2.316-3.037 6.326-4.589 7.758-8.287 0.8026-6.068 5.141-10.65 7.74-15.96 1.124-4.682 5.15-7.667 7.266-11.81 1.083-2.725 3.63-6.507 0.5254-8.918-3.827-3.314-8.432-5.857-13.41-6.918-3.759-1.386-7.413-3.578-11.59-2.221-4.729 0.2343-9.571-0.6185-14.19 0.8418-3.297 1.43-6.841 1.496-10.16 0.08203-5.003-1.345-10.3-0.635-15.32-2.02-3.923-1.291-8.186-2.356-12.37-2.271zm-47.75 4.801c-1.341 0.416-2.716 0.7877-3.969 1.414-1.8 0.8-3.899 1.1-5.699 2-1.7 0.9-3.4 2.201-5.1 3.201s-3.4 2.099-5.1 3.199-3.2 2.5-4.9 3.6-3.601 1.902-5.201 3.102-2.599 3.198-4.199 4.398-3.801 1.7-5.301 3-2.5 3.302-4 4.602c-1.5 1.4-2.799 2.799-4.299 4.199-1.4 1.4-3.801 1.901-5.201 3.301-1.4 1.5-1.8 3.898-3.1 5.398s-3.6 2.201-4.9 3.701c-1.3 1.6-2.4 3.3-3.6 4.9s-2.9 2.9-4.1 4.5-1.4 3.9-2.5 5.6c-0.3134 0.4844-0.6771 0.9353-1.025 1.396-0.349 3.453-0.102 6.874 0.2227 10.29-0.84 4.363-0.7662 8.739-1.117 13.12-0.9454 4.226-3.218 8.203-2.596 12.68 0.965 5.08-1.924 9.64-2.094 14.67-0.7838 4.235 0.1452 8.431 1.486 12.45-0.05404 3.602-0.5198 7.379 1.168 10.75 1.911 4.929 6.704 7.642 9.826 11.67 3.196 3.533 8.036 4.992 11.64 8.084 3.832 2.331 8.324 4.488 10.26 8.838 1.46 4.767 2.668 9.649 3.588 14.56-0.2599 4.186 3.7 7.043 3.68 11.11-0.7986 2.902-2.792 5.379-4.664 7.701-2.305 2.694-5.363 4.591-6.82 7.939-2.46 3.774-7.01 8.198-4.248 13.01 2.445 4.043 5.93 7.567 10.15 9.762 3.245 2.081 7.588 2.679 9.916 5.979 2.852 4.38 2.069 10.1-0.7344 14.29-2.9 4.677-3.739 10.23-6.605 14.93-2.859 4.183-4.169 9.102-5.16 14.01-0.1274 0.6143-0.3413 1.233-0.5254 1.848 0.187 0.1702 0.3669 0.3668 0.5566 0.5312 1.5 1.3 3.299 2.399 4.799 3.699s2.601 3.2 4.201 4.4 3.8 1.7 5.4 2.9 3.4 2.099 5.1 3.199c0.2968 0.1921 0.5938 0.3716 0.8906 0.5586 3.023-6.756 7.505-12.79 12.52-18.21 2.52-3.569 5.188-7.046 8.33-10.15 2.127-3.505 4.633-6.781 7.391-9.826 2.448-3.732 6.278-6.086 9.402-9.168 2.785-4.405 6.277-8.31 9.871-12.08 2.78-2.578 4.691-5.868 5.912-9.434 1.176-3.988 4.956-6.552 5.73-10.7 0.9617-4.27-1.737-8.198-3.75-11.73-3.248-3.185-5.948-7-9.566-9.797-2.835-1.204-4.994-3.442-6.973-5.734-2.238-2.915-5.647-4.349-8.986-5.59-4.061-1.256-5.69-5.548-9.697-6.895-4.484-2.843-9.848-3.786-14.27-6.721-3.251-2.948-7.479-4.105-11.31-6.018-8.936-6.081-15.88-15.92-16.77-26.88-0.6264-5.334 2.259-11.66 7.926-12.77 4.984-0.3362 9.834 1.468 14.79 1.811 6.386 0.9839 12.39-1.894 18.2-4.092 8.139-3.141 15.36-8.086 23.16-11.91 5.559-3.377 11.46-6.155 17.01-9.541 4.827-2.356 5.531-8.245 5.615-13.02 0.4929-4.493-3.18-7.989-3.262-12.36 0.1146-8.394-5.322-17.46-13.98-19.08-6.031-0.6038-10.14 4.685-14.14 8.346-2.364 2.586-6.826 3.195-9.164 0.2383-2.241-3.362-5.508-6.682-5.305-11.03 0.519-5.422 5.72-8.629 10.33-10.43 4.067-3.758 8.859-6.641 12.72-10.64 4.001-2.696 7.042-7.888 3.465-12.25-2.074-4.598-8.054-4.615-10.2-9.111-2.707-3.774-7.587-5.092-10.27-9.047-0.2671-0.234-0.5815-0.4186-0.8555-0.6465zm182.6 59.02c-5.003-0.3065-9.821 1.414-14.57 2.686-3.478 1.873-6.09 5.019-9.736 6.646-3.507 2.625-6.123 6.244-9.676 8.824-3.162 3.267-7.649 4.808-10.78 8.037-2.765 4.015-6.145 7.602-10.33 10.16-3.158 2.561-6.012 5.557-9.217 8.035-1.839 3.713-4.51 6.646-7.834 8.99-3.348 4.494-2.36 10.42-2.326 15.66 0.4411 4.786 1.319 9.926 4.4 13.76 4.037 3.605 9.742 1.685 14.5 1.199 4.984-0.3753 9.947-1.467 14.34-3.945 4.447-1.213 9.183-1.38 13.75-1.396 4.444 0.9712 8.632 2.875 13.13 3.697 6.459 1.515 12.79 3.521 19.06 5.67 4.009 1.207 6.228-2.664 8.85-4.801 2.476-2.426 7.776-3.977 9.096 0.4219 1.024 3.644 2.973 6.959 3.891 10.63 1.311 3.95-3.636 5.687-6.625 4.418-3.378-0.8661-7.102 0.00939-10.23-1.914-4.141-2.045-9.006-2.833-13.52-1.738-4.71 1.518-5.417 7.255-5.188 11.5-0.2078 4.705-1.892 9.457-0.6191 14.18 0.778 6.186 1.484 12.42 2.758 18.51 2.536 7.097 9.826 11.43 16.9 12.86 6.877 1.443 13.2-5.113 13.5-11.7 0.2607-5.375-3.378-10.64-1.525-15.98 2.429-3.664 7.511-1.521 10.64 0.0625 3.305 1.234 6.927 2.499 8.672 5.863 2.328 2.698 3.493 6.56 1.832 9.912-1.358 3.476-0.5769 7.283-1.695 10.75-2.052 3.579-0.4656 7.096 0.7832 10.57 0.623-1.593 1.175-3.187 1.762-4.779 0.8-1.9 0.8996-4 1.6-5.9 0.6-1.9 1.5-3.799 2.1-5.699s0.6992-4 1.199-5.9 1-3.799 1.5-5.799c0.4-2 2.002-3.701 2.102-5.201 0.4-2-0.8-4.199-0.5-6.199s0.9988-3.9 1.299-5.9 0.2004-4 0.4004-6 0.9-4 1-6 1.199-4 1.199-6c0.1-2-1.299-4-1.299-6 0-2.1 0.6996-4.1 0.5996-6.1s-0.1008-4-0.3008-6-1.099-3.9-1.299-5.9c-0.3-2-1.001-3.9-1.301-5.9s0.8004-4.199 0.4004-6.199c-0.4-1.9-0.8008-3.9-1.301-5.9-0.5-1.9-1.199-3.901-1.699-5.801-0.5-2-1.201-3.899-1.801-5.799-0.6-2-1.999-3.6-2.699-5.5s-1.2-3.801-1.9-5.701c-0.7-1.8-1.1-3.899-1.9-5.699-0.8-1.9-1.7-3.7-2.6-5.5-0.8-1.8-1.899-3.501-2.799-5.301-1-1.7-1.301-3.9-2.301-5.6s-2.9-2.9-4-4.6c-1-1.7-1.599-3.7-2.699-5.4-0.1236-0.1911-0.3136-0.334-0.4531-0.5137-3.678-0.02146-7.344 0.4165-11.02 0.6641-5.206-0.0372-10.39-0.6591-15.53-1.449zm-67.4 98.95c-3.794 0.1082-7.576 1.271-11.41 1.148-10.11 1.114-19.77 7.676-23.49 17.33-1.655 4.057-2.234 8.427-3.582 12.58-1.999 7.074-1.058 15.73 4.908 20.67 3.811 3.728 8.678 6.528 14.04 7.102 4.598 1.623 8.865 5.128 10.68 9.732 1.1 3.992 0.5932 8.247 1.717 12.27 1.282 6.811 3.76 13.29 5.932 19.84 1.355 4.182 0.6674 8.679-1.193 12.59-1.758 4.377-4.998 8.195-5.354 13.06-0.6017 4.263-2.196 8.568-0.9356 12.88 0.8072 3.545 3.059 6.961 6.676 8.086 3.55 1.354 7.781 4.169 11.29 1.152 3.287-2.796 7.456-4.487 10.11-8.014 4.355-5.363 7.453-11.85 13.19-15.99 4.018-4.577 6.435-10.3 10.41-14.92 6.041-7.987 11.56-16.49 14.96-25.97 2.3-4.951 3.459-10.65 1.727-15.97-1.189-5.019-7.468-6.003-9.326-10.62-4.124-6.345-6.785-13.8-6.451-21.43-0.4802-5.219 1.672-10.88-1.406-15.64-2.307-2.991-5.125-5.624-7.971-8.119l-0.4199-0.3262c-4.245-4.915-10.45-7.527-16.41-9.719-4.496-1.485-9.265-0.9921-13.89-1.404-1.27-0.2848-2.536-0.3661-3.801-0.3301z" fill="#51cb59"/>
	<path d="m361.2 207.2c-2.61-1.519-0.285-5.12 1.496-6.41 2.642-2.224 6.055-3.571 9.532-3.368 3.293 1.247 4.464-2.883 4.691-5.338 0.6545-4.945 2.528-9.622 3.286-14.55 1.066-2.231-0.452-6.171 1.912-7.205 2.24 2.396-0.6467 6.554-0.0898 9.661-0.0683 3.664-1.185 7.236-2.359 10.67-1.65 2.378-1.924 5.404-3.298 7.814-2.147 1.929-5.148 0.849-7.615 0.3673-2.677 0.3342-5.183 2.144-6.556 4.465 2.885-0.0665 0.9747 4.353-1 3.9zm-8.2-24.8c-0.3866-2.792-3.07-4.698-3.118-7.62-0.2632-3.187 1.737-5.96 3.525-8.397 2.3-2.083 5.615-2.63 8.623-2.795 2.237-0.4486 6.954 0.5771 4.346 3.53-3.123 0.8046-6.474-1.816-9.531-0.0668-2.7 1.271-5.2 4.155-4.339 7.319-0.1311 2.588 1.814 5.245 0.9284 7.617zm-21.8 1.6c-3.04-0.7883 0.0854-4.337-0.0969-6.341 0.192-3.295 0.8312-6.564 2.397-9.504 1.269-2.953 3.003-5.819 6.006-7.272 4.66-3.041 9.347-6.226 14.76-7.786 3.894-1.46 8.023-2.132 12.09-2.886 2.872-0.2773 5.47 1.303 8.023 2.359 2.473 2.87-2.599 3.33-4.239 1.742-4.708-1.173-9.672-0.7906-14.4 0.0594-3.474 1.14-6.043 3.993-9.484 5.23-3.252 1.768-5.938 4.405-8.484 7.044-1.746 2.642-2.786 5.684-4.019 8.583-0.9733 2.774-0.846 5.781-1.396 8.613-0.2659 0.3612-0.801 0.3652-1.158 0.1593zm-27.8 117.8c-3.015-2.049 1.22-4.533 1.603-6.818 0.7358-3.74 0.665-7.665 0.017-11.42 0.8038-2.51 3.392 1.443 2.137 2.843-0.883 2.768-0.1114 5.493 0.5034 8.172-0.1217 2.917-2.546 5.2-4.261 7.219zm-14.8 8.8c-1.701 1.36-0.3911-3.108-0.3728-4.111 0.5567-4.117 1.902-8.077 2.802-12.12 0.2085-3.428-0.5621-6.964-2.633-9.756-0.392-2.216-4.312-4.541-2.227-6.522 3.118-0.5557 3.017 4.133 4.663 5.858 2.432 2.417 3.231 5.756 3.066 9.097 0.1582 3.507-2.05 6.574-1.757 10.11-0.081 2.495-0.3507 5.22-2.287 7.031-0.1923 0.592-0.811 0.463-1.255 0.4159zm-14.4-28.6c-2.795-0.029-4.152-3.406-5.367-5.502-1.473-3.132-1.806-6.744-0.6308-10.02 0.7704-2.911 2.509-5.538 5.002-7.251 3.3-3.208 6.245-6.993 10.54-8.954 3.778-1.714 8.44-2.007 12.22-0.1782 3.209 2.006-1.909 3.448-3.114 1.313-2.811-1.543-5.831-0.0899-8.351 1.287-2.789 1.325-5.223 3.238-7.965 4.645-2.426 1.472-3.268 4.355-4.743 6.621-1.448 2.779-1.487 6.038-1.76 9.098-0.4228 3.24 2.248 5.909 5.166 6.746 1.542 0.9058 1.075 3.475-0.995 2.199zm-10.4-156.1c-3.899-1.432-7.914-2.513-11.76-4.07-2.714-1.346-1.878-4.803-2.907-7.154-1.152-3.158-0.7137-6.492-0.7754-9.756 0.0845-5.718-4.023-10.44-8.678-13.24-2.326-1.684-5.2-2.397-8.044-1.897-3.176 0.9416-2.049-4.871 0.6986-2.877 3.225 0.8228 6.509 1.546 9.674 2.511 2.931 1.635 4.348 4.875 6.522 7.291 2.294 2.344 2.031 5.527 1.791 8.493 0.9022 2.696 1.678 5.444 1.731 8.343 0.4954 2.674 0.5567 5.897 3.091 7.556 2.721 1.394 5.716 2.248 8.551 3.413 1.453-1.008 5.378-1.976 4.195 1.039-1.051 1.127-2.8 0.7439-4.093 0.3461zm22.6-20.2c-1.924 1.401-0.1626-2.071 0.0982-2.858 0.3197-2.687 0.6649-5.566-0.0316-8.201-1.221-2.738-4.662-2.846-6.967-4.247-1.613-0.9433-5.69 0.3857-4.418-2.808 2.609-2.022 6.225 0.8688 8.795 2.013 3.657 2.179 6.164 6.532 5.849 10.82-0.3962 1.423-1.364 5.983-3.325 5.281zm-41.3 32.9c-4.558-0.584-8.109-5.272-7.153-9.835 0.4384-2.741 0.8405-5.727 2.524-8.015 2.196-2.176 3.292 1.445 1.135 2.453-2.038 1.89-3.392 5.131-1.651 7.665 1.215 2.881 3.274 6.285 6.819 6.241 1.784 0.522 4.844-2.933 5.363-0.3247-1.886 1.516-4.604 2.441-7.037 1.815zm-77.5 14.2c-2.795-1.251-5.995-2.012-7.969-4.56-1.435-2.256-4.371-3.505-4.917-6.252-0.4776-3.261 2.171-5.678 3.311-8.475 2.84-0.3159-0.6238 4.006-0.7001 5.463-1.365 3.355 1.529 5.956 4.185 7.409 2.347 1.337 3.48 3.97 5.882 5.237 0.6936 0.2823 1.672 1.601 0.2079 1.178zm-53.7 54.5c-2.65-0.8383-3.578-3.994-4.663-6.263-0.539-3.227-1.231-6.408-1.999-9.585-0.4353-3.575-0.7901-7.333 0.6296-10.75 1.081-2.582 1.684-5.39 3.092-7.816 3.086-2.297 2.676 2.517 0.8212 3.723-2.131 4.629-2.917 10.1-1.309 15.02 1.159 2.836-0.0728 5.991 1.201 8.768 0.7264 2.361 4.457 3.174 3.929 5.959-0.3126 0.5682-1.041 1.035-1.702 0.9446zm44.9 135.1c-1.808 2.063-1.509-2.445-0.1438-2.897 1.474-2.881 2.988-5.745 4.672-8.498 1.227-3.344 0.3199-6.993 1.139-10.42 0.2724-1.65-0.4756-5.93 2.316-3.763 1.046 2.664-0.1196 5.787-0.3096 8.6-0.9808 3.169-1.807 6.371-2.339 9.652-0.927 2.728-2.189 6.11-4.334 7.798-0.3547-0.1152-0.6279-0.3961-1.001-0.4669zm-9.8-11.2c-2.815 0.1952 0.9876-2.076 1.344-3.142 2.041-3.336 3.578-7.242 2.779-11.21-0.5862-3.549-3.916-5.641-6.288-8.005-2.702-1.451-6.112-0.9698-8.53-3.126-1.92-1.123-5.436-2.551-4.154-5.377 0.977-1.946 0.6374-4.365 2.245-6.023 1.406-1.714 3.475-2.817 5.637-3.23 0.8258 2.293-3.663 2.234-3.984 4.632-0.7005 1.996-1.954 4.147-1.877 6.037 2.548 0.1761 4.552 2.115 6.892 3.09 3.028 1.742 6.505 2.996 8.94 5.581 2.146 2.721 3.035 6.263 3.352 9.651 2e-3 3.313-2.08 6.078-3.514 8.912-0.6744 0.8838-1.607 2.344-2.841 2.214zm25.8-21.7c-2.699-1.241 0.9854-3.859 2.603-2.23 2.777 0.2529 5.597-0.5638 8.082-1.728 2.723-1.707 3.018-5.204 4.849-7.625 2.519-4.396 1.351-9.954-0.9996-14.17-2.002-3.263-5.732-4.789-8.73-6.948-1.523-1.444-2.833 1.854-3.09-0.7623 0.5531-3.78 4.424-0.8468 5.936 0.6383 2.498 2.131 5.543 3.632 7.431 6.425 1.884 2.135 3.634 4.621 3.672 7.587 0.3977 5.506-1.656 11.71-6.749 14.47-2.629 1.734-4.432 4.943-7.856 5.233-1.188-0.1332-5.584 1.174-5.149-0.8948z" fill="#A8E6A5"/>
	<path d="m184.9 245.6c-0.5538 0.6219-1.662-0.3349-2.395-0.5453-2.12-1.099-4.028-2.743-5.192-4.846-0.4224-1.166-0.3837-2.451-0.913-3.588-0.4701-1.525-0.5023-3.469-2.067-4.354-2.116-1.267-4.672-1.127-7.036-1.414-1.095-0.4874-0.3117-2.483 0.8891-1.756 1.546 0.3364 2.976 1.052 4.508 1.442 1.454 0.4069 2.532 1.485 3.588 2.495 1.321 1.117 3.192 2.144 3.31 4.076-0.1391 1.268 0.3774 2.461 1.308 3.316 2.261 2.355 5.693 3.176 8.862 3.074 1.179 0.1309 2.286-0.8787 3.271-0.8847 0.566 0.7206 1.115 1.928-0.2281 2.154-2.436 1.167-5.279 1.437-7.905 0.8302zm23.5-121.9c-2.29-0.6455-4.83-1.537-6.072-3.727-0.8118-1.686-1.01-3.601-1.887-5.263 0.0244-0.9839 1.927-1.142 2.458-0.4094 0.7031 1.66 0.7807 3.683 2.222 4.948 1.406 1.555 3.388 2.714 5.54 2.613 1.25-0.0635 2.691-0.295 3.544-1.295 0.9992-1.088-0.1835-3.435 1.522-3.783 1.411-0.368 2.151 0.911 1.657 2.115-0.3941 2.327-2.21 4.388-4.572 4.82-1.446 0.3276-2.968 0.3005-4.413-0.0195zm33.9 201.9c-2.01-0.505-4.103-1.006-5.9-2.097-2.424-1.451-3.142-4.465-3.208-7.101-0.1082-0.9368-0.1467-2.428 1.244-2.002 1.11-0.204 1.967 0.4571 1.728 1.62 0.4037 2.736 2.449 5.029 4.845 6.278 1.602 0.7453 3.353 1.164 5.098 1.407 2.168 0.2916 4.162-1.058 5.372-2.759 0.557-0.86 1.252-2.252 2.322-1.075 0.8911 0.2366 1.387 0.9945 0.5418 1.677-1.624 2.32-4.286 3.687-6.978 4.347-1.681 0.3194-3.417 0.114-5.064-0.2961zm-133.9-54.3c-1.056-0.2017-2.2 1.074-3.125 0.1166-1.71-1.454-2.135-3.815-3.506-5.532-1.232-1.654-2.29-3.573-2.241-5.697-0.0034-1.407-0.04515-2.818-0.3348-4.199-0.205-1.233 1.415-0.7747 1.169 0.251 0.4769 2.76 2.429 4.935 3.323 7.546 0.8206 2.021 2.131 3.923 4.096 4.969 1.134 0.9187 2.508 2.054 4.07 1.509 1.964-0.4748 3.625-1.696 5.225-2.872 0.7749 0.0641 1.968 1.552 0.6108 1.925-2.047 1.494-4.424 2.953-7.047 2.855-0.8031-0.1315-1.45-0.6935-2.238-0.8695zm216.5-146.8c-1.201-0.3242-1.705-1.63-2.737-2.234-1.483-1.275-2.456-3.011-3.263-4.766 0.379-1.385-0.9105-2.527-1.781-3.461-2.007-1.793-4.848-2.306-7.461-2.193-2.686 0.2517-5.164 1.876-6.712 4.047-0.4768 0.7609-0.7057 2.394-1.921 1.393-0.252-0.8695 0.4674-1.819 0.7469-2.661 0.701-1.552 2.08-2.862 3.824-3.07 1.657-0.2186 3.287-0.5744 4.909-0.9715 1.875-0.4452 3.865-0.2777 5.623 0.5202 2.433 0.8626 4.698 2.658 5.472 5.197 0.7723 1.612 1.155 3.633 2.858 4.569 0.9565 0.5718 2.391 0.7032 3.134-0.2818 0.5501-0.9233 1.131-0.3559 1.708 0.1125 2.515-1.832 5.622-2.825 8.737-2.712 1.924-0.1098 4.032-0.2792 5.702 0.8845 1.34 0.9693 2.562 2.128 3.586 3.427 1.132 1.442 2.059 3.118 3.575 4.2 1.488 0.265 0.3688 1.723-0.5214 1.922-1.063 0.1133-1.726-1.054-2.304-1.797-0.6971-1.124-1.369-2.331-2.561-3.008-1.453-1.137-2.894-2.372-4.698-2.919-2.665-0.9453-5.693-0.5342-8.08 0.9559-0.9945 0.4799-2.129 1.984-2.851 0.3747-0.8415-0.0271-1.326 1.4-2.071 1.91-0.6906 0.7861-1.726 0.8429-2.659 0.6074z" fill="#2F9AE6"/>
	<path d="m249 63.97c-1.012 0.05-2.012 0.125-3.012 0.125-2-0.1-4 1-6 1s-4-0.6996-6-0.5996-4-7.81e-4 -6 0.1992-3.9 1.101-5.9 1.301c-2 0.3-4.1-0.3-6.1 0s-3.9 1-5.9 1.4-3.9 0.7988-5.9 1.299c-1.9 0.4-3.998 0.7012-5.898 1.201-1.9 0.5-3.901 0.9996-5.801 1.6s-3.401 2.3-5.301 3-3.998 0.7004-5.898 1.4c-1.9 0.7-3.6 1.999-5.4 2.799s-3.901 1.1-5.701 2c-1.8 0.8-3.899 1.1-5.699 2-1.7 0.9-3.4 2.201-5.1 3.201s-3.4 2.099-5.1 3.199-3.2 2.5-4.9 3.6-3.601 1.902-5.201 3.102-2.599 3.198-4.199 4.398-3.801 1.7-5.301 3-2.5 3.302-4 4.602c-1.5 1.4-2.799 2.799-4.299 4.199-1.4 1.4-3.801 1.901-5.201 3.301-1.4 1.5-1.8 3.898-3.1 5.398s-3.6 2.201-4.9 3.701c-1.3 1.6-2.4 3.3-3.6 4.9s-2.9 2.9-4.1 4.5-1.4 3.9-2.5 5.6-2.5 3.2-3.6 4.9c-1 1.7-2.4 3.2-3.4 5-1 1.7-1.799 3.598-2.699 5.398-0.9 1.7-1.301 3.802-2.201 5.602s-2.399 3.399-3.199 5.199c-0.8 1.9-1.601 3.7-2.301 5.6-0.8 1.9-1.3 3.801-2 5.701s-1.699 3.7-2.299 5.6-0.4004 4.1-0.9004 6c-0.5 2-1.701 3.699-2.201 5.699-0.4 2-0.9984 3.9-1.398 5.9-0.4 2 0.1984 4.1-0.1016 6.1-0.3 1.9-1.399 3.801-1.699 5.801-0.109 1.09 0.02978 2.207 0.1641 3.324 0.5602-1.57 1.123-3.139 1.709-4.691 0.8312-5.769 4.721-10.35 7.266-15.41 1.895-5.546 4.136-11.06 7.564-15.87 2.547-5.832 7.784-9.862 10.83-15.38 4.562-9.917 12.76-17.4 20.35-24.99 4.329-5.393 8.963-10.63 14.52-14.8 3.33-3.677 7.852-5.932 11.54-9.199 5.689-5.955 12.96-9.963 19.62-14.68 7.493-4.666 14.75-10.13 23.36-12.58 5.404-0.7666 10.35-3.253 15.02-5.971 5.618-1.608 11.48-2.053 17.13-3.529 5.913-1.94 11.93-4.335 18.28-3.938 6.407-1.625 13.05 0.2686 19.51-0.8418 7.126 0.7501 14.3 0.3317 21.45 0.7832 6.083 0.1994 11.91 2.055 17.85 3.186 6.61 1.357 15.72 9.451 20.3 5.84-1.782-0.8123-4.09-0.5722-5.84-1.447-1.8-0.9-3.6-1.899-5.4-2.699s-3.299-2.4-5.199-3.1c-1.9-0.8-3.901-1.2-5.801-1.9s-3.799-1.3-5.699-1.9-3.799-1.6-5.699-2.1-3.801-1.301-5.801-1.801-4.199 0.3004-6.199-0.09961c-1.9-0.4-3.9-0.7-5.9-1s-3.9-0.7996-5.9-1.1-3.9-1.2-5.9-1.4-4-0.4996-6-0.5996c-1.05-0.1-2.075-0.07539-3.088-0.02539z" fill="#fff" opacity=".25"/>
	<path d="m217.4 191.7c3.108 0.94 6.172 2.405 9.495 2.251 4.31 0.6063 8.386 2.241 12.65 3.051 2.366 0.5427 4.145 2.562 6.618 2.811 2.687 0.226 5.683 0.0911 7.9 1.894 1.968 1.245 4.446 1.191 6.619 0.5958 2.73-0.286 4.937 1.724 7.472 2.35 2.869 0.6756 5.717 1.439 8.502 2.414 1.491 0.5499 3.021 0.9588 4.609 1.096 1.881 0.2281 3.853 0.9088 4.95 2.559 1.701 2.165 2.993 4.614 4.329 7.009 1.25 2.975 0.4676 6.42-1.015 9.161-1.287 2.045-3.364 3.428-4.647 5.48-1.731 2.42-3.848 4.54-5.509 7.015-2.248 2.425-5.947 2.423-8.345 4.643-4.054 3.162-9.001 5.591-14.25 5.457-3.282-7e-3 -6.399 1.802-9.714 1.152-2.514-0.5458-5.038-1.036-7.593-1.344-3.419-0.5204-6.916-0.8952-10.17-2.133-1.97-0.835-3.538-2.353-5.495-3.213-2.848-1.458-5.773-2.931-8.02-5.265-5.081-4.433-9.982-9.362-12.83-15.57-2.194-4.591-3.705-9.534-4.351-14.58-0.0775-2.714 0.8321-5.32 1.381-7.943 1.042-2.953 2.975-5.743 5.732-7.31 2.56-1.123 5.454-0.6935 8.097-1.504 1.174-0.237 2.408-0.3925 3.583-0.0751z" fill="#10352B"/>
	<path d="m264.4 222.2-0.1 0.5c-2.3-0.6-3.9-2.5-5-4.4s-1.2-3.9-0.7-6.2c0.3-1.1-1.4-2.4-0.2-2.6 2.9-0.4 3 0.1 5.9 0.8 2.8 0.7 2.8 0.7 5.7 1.3 2.8 0.7 3.1 0.4 5.5 2.1 1 0.7 0.2 1.2-0.1 2.3-0.6 2.3-2.7 3.7-4.6 4.9-2 1.2-4 1.9-6.4 1.3zm-20.4-4.9-0.1 0.6c-2.3-0.6-4.8-1.9-6-3.8s-1.7-4.8-1.2-7.2c0.3-1.1 0-2.6 1.2-2.8 2.9-0.4 3 1 5.9 1.6 2.8 0.7 2.7 1.4 5.5 2 2.8 0.7 3.2-0.3 5.5 1.4 1 0.7 0.1 0.9-0.2 2.1-0.6 2.3-1.8 4.9-3.7 6.1-1.9 1-4.6 0.5-6.9 0zm-20.4-5.3-0.3 1.3c-2.3-0.6-4.5-2.4-5.6-4.3-1.2-1.9-0.9-4.4-0.3-6.7 0.3-1.1-0.9-1.6 0.3-1.7 2.9-0.4 2.6 0.8 5.4 1.5s3-0.1 5.8 0.6 3.8-1 6.1 0.7c1 0.7-1.4 1.6-1.6 2.8-0.6 2.3-1.2 4.7-3.1 5.9-2 1-4.4 0.4-6.7-0.1z" fill="#fff"/>
	<path d="m214.6 229.2c-0.0623-1.001 0.8577-1.766 1.771-1.944 1.025-0.2227 2.074 0.0623 3.109-0.0748 2.087-0.162 4.165-0.5136 6.265-0.4378 2.473 0.0635 4.899 0.587 7.342 0.9235 2.402 0.2237 4.889-0.2705 7.22 0.5319 3.386 1.045 6.612 2.55 10.01 3.549 2.378 0.8663 4.358 2.525 6.106 4.314 1.511 1.413 3.533 2.184 5.57 2.399 1.33 0.4458 1.683 2.518 0.5282 3.342-0.7228 0.4511-1.608 0.1358-2.365-0.0434-1.162-0.3245-2.398-0.65-3.596-0.3158-2.108 0.4304-4.111 1.559-6.319 1.356-2.312-0.1645-4.598-0.577-6.879-0.9662-2.087-0.5013-4.225-1.177-6.395-0.8259-2.404 0.2361-4.721-0.6486-6.93-1.478-3.804-1.496-7.327-3.716-10.28-6.542-1.635-1.377-3.594-2.32-5.159-3.787z" fill="#FA8181"/>
	<path d="m314.1 212.3c-0.4 1.7 0.9 3.7 2.2 5.4 1 1.3 2.9 1.9 4.6 3 1.4 0.9 2.4 3.2 4.2 3.9 1.6 0.7 3.6 1.2 5.4 1.6 1.9 0.4 3.9-0.1 5.7 0 2 0.2 3.9 0.7 5.6 0.5 2.1-0.2 3.9-1 5.3-1.7 2-0.9 3.3-2.3 3.7-3.9 0.4-1.7-0.5-3.2-1.8-4.9-1-1.3-1.7-3.4-3.5-4.5-1.4-0.9-3.8-0.4-5.7-1.1-1.6-0.7-3.2-1.8-5.1-2.2s-3.7-0.1-5.5-0.3c-2-0.2-3.8-0.8-5.5-0.6-2.1 0.2-4.2 0-5.6 0.7-1.8 0.8-3.6 2.5-4 4.1zm-127.4-30.3c-0.4 1.7-2.4 2.8-4.3 3.8-1.5 0.7-3.3 1.3-5.4 1.5-1.7 0.2-3.7 0.8-5.6 0.6-1.8-0.1-3.5-1.3-5.4-1.7s-3.5-1.4-5.1-2c-1.8-0.7-3.9-0.9-5.3-1.8-1.7-1.1-2.4-3.1-3.4-4.3-1.3-1.7-3.1-3.2-2.7-4.9s2.3-2.9 4.3-3.8c1.5-0.7 3.2-1.8 5.3-2.1 1.7-0.2 3.7-0.1 5.7 0 1.8 0.1 3.6 0.9 5.5 1.4 1.9 0.4 3.7 1.1 5.3 1.8 1.8 0.7 3.1 2.2 4.6 3.1 1.7 1.1 3.2 2.2 4.2 3.4 1.1 1.6 2.7 3.3 2.3 5z" fill="#915FD0"/>
	<path d="m224.2 176.6c-2.3-0.5-3.2-2-2.6-4.2 0.5-2-0.8-2.3-0.3-4.3 0.4-1.8 0-3-0.8-4.4-0.9-1.4-1.5-3.6-3.2-4-1.8-0.4-3.8 0.3-5.3 1.1-1.4 0.9-2.8 2.5-3.2 4.2-0.4 1.9 0 2-0.5 3.8-0.5 2.3-2.7 3.8-5 3.2-2.3-0.5-3.8-2.9-3.3-5.2 0.4-1.9 0.8-1.8 1.2-3.7 0.5-2 1.2-3.8 2.3-5.3 1.2-1.6 2.8-2.7 4.4-3.7 1.7-1 3.4-1.7 5.3-2s3.7 0.1 5.6 0.5c2 0.5 3.9 0.7 5.5 1.8 1.6 1.2 2.6 2.8 3.6 4.5s1.7 3.4 2 5.3 1.3 4 0.9 5.9c-0.5 2-0.6 2-1.1 4-0.5 2.5-3.2 3-5.5 2.5zm76.3 19.1c-2.3-0.5-4.4-3.2-3.8-5.5 0.5-2 1-1.9 1.5-3.9 0.4-1.8 0.5-3.6-0.4-5s-2.4-2.7-4.1-3.1c-1.8-0.4-3.5 0.4-4.9 1.2-1.4 0.9-2.4 2.2-2.8 4-0.4 1.9 0.1 2-0.4 3.9-0.5 2.3-3.6 3.5-5.8 3s-3.6-2.8-3-5.1c0.4-1.9 0.1-2 0.6-3.8 0.5-2 1.1-4.1 2.2-5.6 1.2-1.6 3.6-1.9 5.2-2.9 1.7-1 3.1-2.4 5-2.7s3.7 0.3 5.7 0.8 4.1 0.5 5.6 1.6c1.6 1.2 2.4 3.1 3.5 4.7 1 1.7 1.4 3.4 1.7 5.4 0.3 1.9 1.4 3.9 0.9 5.9s-1.1 1.9-1.6 3.9c-0.6 2.1-2.8 3.8-5.1 3.2z" fill="#10352B"/>
</svg>
