<svg enable-background="new 0 0 501.5 502.1" version="1.1" viewBox="0 0 501.5 502.1" xmlns="http://www.w3.org/2000/svg" xmlns:xlink="http://www.w3.org/1999/xlink">
	<style type="text/css">.st0{fill:#85DA8B;}
	.st1{fill:#BD9FE3;}
	.st2{clip-path:url(#SVGID_00000157298304823541244670000008197067533115565960_);}
	.st3{fill:#51CB59;}
	.st4{fill:#A8E6A5;}
	.st5{fill:#2F9AE6;}
	.st6{opacity:0.25;clip-path:url(#SVGID_00000157298304823541244670000008197067533115565960_);}
	.st7{fill:#FFFFFF;}
	.st8{fill:#10352B;}
	.st9{fill:#FA8181;}
	.st10{fill:#915FD0;}
	.st11{fill:#091E18;}
	.st12{fill:#BFE9F8;}
	.st13{clip-path:url(#SVGID_00000062158310907290632450000017545872795197619108_);}
	.st14{opacity:0.25;clip-path:url(#SVGID_00000102511907121864089340000005290581180809833101_);fill:#FFFFFF;}
	.st15{clip-path:url(#SVGID_00000057149970948943561080000002369145619361135240_);}
	.st16{fill:#00A8E3;}
	.st17{fill:#F3F5F4;}
	.st18{filter:url(#Adobe_OpacityMaskFilter);}
	.st19{fill:#020202;}
	.st20{mask:url(#SVGID_00000095307725732918333320000006406517625707199678_);}
	.st21{fill:#80D4F1;}
	.st22{filter:url(#Adobe_OpacityMaskFilter_00000152223700212894639330000004369819415398234541_);}
	.st23{mask:url(#SVGID_00000163068731262602263540000013856403212822659237_);}
	.st24{fill-rule:evenodd;clip-rule:evenodd;fill:#A8E6A5;}
	.st25{clip-path:url(#SVGID_00000183210861189265587790000017721025249634124976_);}
	.st26{fill:#F2D54C;}
	.st27{opacity:0.25;clip-path:url(#SVGID_00000124873203316756682910000015594740192471171501_);fill:#F3F5F4;}
	.st28{fill:#F0F0F0;}
	.st29{fill-rule:evenodd;clip-rule:evenodd;fill:#80D4F1;}
	.st30{fill:#DECFF1;}
	.st31{clip-path:url(#SVGID_00000041991171018631450790000013589315866479754925_);fill:#BD9FE3;}
	.st32{clip-path:url(#SVGID_00000041991171018631450790000013589315866479754925_);fill:#915FD0;}
	.st33{clip-path:url(#SVGID_00000041991171018631450790000013589315866479754925_);}
	.st34{fill:url(#SVGID_00000069395462247402449130000000600612070646181014_);}
	.st35{fill:url(#SVGID_00000067230291607177414580000012628966316424984245_);}
	.st36{fill:url(#SVGID_00000171711766516540963880000001780359353690516102_);}
	.st37{fill:url(#SVGID_00000053509706235176077810000008143969920943658121_);}
	.st38{fill:url(#SVGID_00000100374920048212458110000004447964374892617356_);}
	.st39{fill:url(#SVGID_00000132778911503455458130000002522294105056449724_);}
	.st40{fill:url(#SVGID_00000028321071711197699780000001675320628805780916_);}
	.st41{fill:url(#SVGID_00000031202519503758684870000003995073622411779235_);}
	.st42{fill:url(#SVGID_00000147183695255448700790000003658262513035697539_);}
	.st43{fill:url(#SVGID_00000183248675435234693540000002066691834826382740_);}
	.st44{fill:url(#SVGID_00000047029166530554873490000009367908227103677608_);}
	.st45{fill:url(#SVGID_00000165940486281937145920000014797964475756538761_);}
	.st46{fill:url(#SVGID_00000057125339042060120140000007822567256277880966_);}
	.st47{fill-rule:evenodd;clip-rule:evenodd;fill:#DECFF1;}
	.st48{clip-path:url(#SVGID_00000018929334699435642020000009281562307576100017_);}
	.st49{fill:#3B5A51;}
	.st50{fill:#E3E3E3;}
	.st51{fill:#617A73;}
	.st52{fill:#405E55;}
	.st53{fill:none;stroke:#51CB59;stroke-width:3;stroke-miterlimit:10;}
	.st54{fill:none;stroke:#A8E6A5;stroke-width:3;stroke-miterlimit:10;}</style>
	<path class="st11" d="m48.2 501c5.18 2.58 10.39-1.624 15.43-2.663 5.539-1.958 11.64 0.8847 16.93-2.079 5.438-2.856 11.62-1.329 17.45-1.09 7.269 1.114 14.21-2.549 21.49-1.931 5.339-1.545 10.36-5.473 16.1-2.773 5.782 0.0708 10.95-3.815 16.83-2.65 5.866 0.8799 10.85-3.384 16.75-2.446 5.68-0.9852 10.92 2.276 16.56 0.8554 5.685-1.997 11.85-3.278 17.9-2.903 5.75 0.7597 11.67 0.2615 17.2-1.482 4.572-4.05 10.63-2.211 15.81-1.19 4.679-1.26 9.237-3.429 14.24-2.206 5.558 0.7845 10.26-2.922 15.67-3.417 5.028-1.085 10.16-0.2016 15.19-0.1514 5.117-2.01 10.27-3.462 15.69-1.87 5.791-0.1783 11.28-2.465 17.08-2.678 7.256-0.9469 14.59-1.107 21.84-2.069 5.144-3.119 11-2.181 16.55-1.664 6.104 0.3253 11.8-1.839 17.59-3.282 7.873-1.466 16.05 0.5934 23.79-1.702 5.901-1.439 11.78 1.256 17.72 6e-3 11.37-0.8391 22.12-6.659 33.7-5.014 6.69 1.132 12.95-2.136 19.5-2.866 6.38-1.324 12.89-0.1315 19.24 0.6625 5.259-0.8322 3.243-6.548 1.624-9.691-1.345-5.474-0.9247-11.23-2.542-16.66-0.7236-6.298-7e-3 -12.71-1.598-18.92-1.55-8.68-2.292-17.52-4.28-26.09-0.5536-5.721 1.56-11.32 0.3057-17.05-0.1149-5.482-4.959-9.549-4.287-15.16 0.1296-6.719 0.4092-13.56-1.412-20.1-1.351-5.986 1.982-12.02-1.201-17.69-2.341-6.202-0.8752-12.9-1.762-19.34-0.1659-4.943-2.652-9.412-2.567-14.38-0.1602-4.722-0.7934-9.444-1.92-14 0.4202-4.785 3.383-10.57-1.153-14.32-3.126-4.535 0.4535-9.564 0.1293-14.42 1.011-5.931-2-10.91-3.972-16.05-0.4234-4.442 1.078-8.83 0.4691-13.3 0.7355-5.244-2.286-9.79-2.514-14.83-0.0518-5.659 0.1098-11.41-1.695-16.85-1.883-8.696-4.314-17.43-3.84-26.42-1.105-5.498-2.237-11.04-0.4792-16.53-0.0744-8.614-4.787-16.85-3.072-25.56 0.2723-5.345 0.7467-10.99-1.82-15.89-3.475-5.513 0.2971-11.93-2.001-17.77-3.469-4.918 0.8407-10.28-0.5238-15.44-2.82-4.776-3.392-10.42-2.081-15.68-1.267-5.073-5.419-9.956-1.862-15.13 0.6367-4.547 2.943-12.78-3.627-13.8-5.941 1.068-11.77 2.69-18 2.75-8.127 2.086-16.34 4.131-24.67 5.337-5.542-1.014-11.09-2.388-16.75-1.346-5.757 0.3758-11.88 0.7302-16.64 4.317-5.29 2.738-10.26-3.194-15.9-1.05-9.885 0.9446-19.18 5.813-29.26 5.085-5.656 0.2142-10.93 4.601-16.68 2.391-5.869-1.229-11.4 4.128-17.17 1.406-6.154-1.517-11.71 3.985-17.94 1.996-4.863-1.615-8.367 2.647-12.86 2.916-5.281-0.8241-10.61-2.316-15.66 0.5234-5.952 1.67-12.31-0.6253-18.14 2.289-4.47 0.8984-8.89 2.597-13.55 1.609-4.42-0.8353-8.869-0.1667-12.95 1.595-6.325 0.1266-12.71-0.9789-18.67 1.835-5.344 0.7047-10.72-1.679-15.93 0.5817-8.119 2.176-16.44 3.821-24.89 3.623-9.774-0.1308-19.66 0.3088-29.05 3.292-4.034 1.955-7.817-1.132-11.83-1.066-6.289 0.3363-11.96 3.354-17.96 4.787-5.867 0.1307-11.72 0.2456-17.58 0.5613-6.165-0.7691-11.79 0.8727-17.54 2.669-4.886 0.6256-9.762-0.6544-14.67 0.0515-5.441 0.1425-10.93 1.468-16.31 0.5049-5.723-0.6677-8.066 5.381-4.734 9.5 1.735 4.389 0.5205 9.161 1.036 13.74-0.3302 4.526 0.3449 9.196 2.631 13.18 1.525 8.662 4.525 17.33 3.22 26.23 0.06106 5.669 3.725 11.26 1.513 16.9-0.902 6.106 4.219 12.26 0.5737 18.13-0.9105 5.021 2.65 9.355 3.243 14.21 1.318 4.6 1.751 9.402 0.8476 14.11 0.2013 5.116 3.882 9.675 2.96 14.96 0.4559 6.833 1.851 13.67 0.9185 20.52-0.6066 6.418 0.1443 12.8 2.933 18.63 1.506 5.093 2.541 10.51 0.7113 15.66-1.198 5.966 0.982 11.93 0.9839 17.94 0.6765 7.837 1.362 15.69 2.868 23.43 3.511 5.395 0.2744 11.87 1.89 17.53 2.936 5.721 0.9481 11.9 2.085 17.83 1.575 6.024 3.522 11.97 4.654 18.09 1.461 5.942-1.368 11.88-0.1265 17.75 2.886 4.608 1.625 10.01 0.5529 14.82 1.166 5.547 3.96 10.7 3.891 16.53 0.4983 5.714 0.2342 11.5 1.904 17.05 1.918 7.398 1.179 15.07 2.255 22.57 1.308 9.574 0.03277 19.33 2.195 28.81 0.6172 5.409 3.375 10.47 3.412 15.9-0.3179 5.248-3.821 10.67-1.63 15.83l0.5309 0.64z"/>
	<path class="st12" d="m61.2 488c3.869 2.682 8.388-0.9686 12.45-1.422 4.425-2.258 9.286-2.291 14.08-1.721 4.993-0.1682 8.955-4.32 14.21-3.131 5.039-0.3427 9.957 0.9652 14.98 0.6433 5.581-1.492 11.35-2.09 17.11-2.428 4.865-2.936 10.49-4.38 15.96-2.39 5.497-0.9902 10.64-3.834 16.44-2.703 5.663 0.3388 10.6-3.451 16.32-2.474 5.171-0.8687 9.892 1.85 15.03 1.114 5.731-2.228 11.99-3.144 18.11-3.373 7.182 1.369 14.81 0.3235 21.38-2.859 5.14-3.652 11.3 2.994 16.49-0.7945 3.951-2.108 8.38-1.018 12.59-0.9333 4.528-0.1556 8.281-3.272 12.86-3.347 4.976-1.299 10.07-0.531 15.1-0.1434 5.243-1.98 10.67-3.813 16.24-1.996 6.129-0.464 12.05-2.459 18.21-2.863 6.984-0.9441 14.11-0.8471 21.04-2.022 4.625-2.749 9.626-2.467 14.66-1.492 5.734-0.0125 11.4-0.7987 16.78-2.808 7.426-2.301 15.25-0.2534 22.78-1.48 5.487-2.439 11.37-0.3234 17.03-0.5397 8.588-0.1735 16.85-2.567 25.08-4.742 5.611-0.9988 11.33-0.7126 16.97-0.2739 8.45-1.198 16.75-4.611 25.43-3.462 4.056-0.5725 10.74 3.654 12.46-2.087-0.8944-4.988-3.612-9.54-2.983-14.91-0.7861-6.085-2.452-12.07-1.796-18.26-0.1437-5.664-2.06-11.1-2.511-16.75-0.8563-6.762-1.985-13.5-3.295-20.17 0.3428-5.502 1.738-10.97 0.4053-16.47-0.7627-5.046-4.898-9.184-4.106-14.49 0.3258-7.45 0.0213-15.02-1.947-22.25 0.4125-5.29 1.987-10.69-1.009-15.6-2.163-8.772 0.0659-18.16-3.1-26.79-1.684-6.362-0.5151-13.19-2.814-19.42-0.1702-5.139 3.752-11.17-1.197-15.31-3.214-4.447 0.4957-9.313 0.158-14.06 0.4629-5.404-0.8151-10.54-3.708-15.1-1.409-4.932 1.179-10.05 0.1353-15.17 0.424-4.042-1.006-7.78-2.314-11.51-0.7039-5.231 0.5739-10.62-1.072-15.76-1.965-9.906-5.098-19.74-4.574-29.96-0.8906-5.038-2.389-10.11-0.819-15.2 1.01-5.521-1.517-10.75-2.301-16.14-1.248-3.913-1.123-8.088-0.2466-12.06-0.0291-6.336-0.1596-12.89-3.611-18.42-0.3695-5.251 1.483-10.67-1.06-15.7-2.708-5.327 2.694-10.75-0.7039-15.88-3.578-4.831-0.7345-10.52-1.705-15.83-2.906-4.139-3.901-9.354-1.216-13.97 0.2995-4.218 2.305-11.26-3.37-12.84-4.686 0.149-8.901 3.177-13.82 2.352-5.776 0.04115-11.04 2.622-16.72 3.392-6.194 1.014-12.81 3.918-18.95 1.115-4.94-0.803-10 0.06506-14.96 0.3377-4.62 0.2134-8.917 1.569-12.63 4.282-4.754 2.083-9.203-3.301-14.06-1.367-8.683 0.3438-16.74 3.95-25.28 5.077-5.74-1.101-11.01 1.294-16.37 2.908-4.665-0.1826-9.515-1.576-13.93 0.6979-4.603 2.43-9.226-0.8912-13.86 0.1546-4.929 2.086-10.11 2.919-15.4 1.845-5.184 0.07669-9.452 5.211-14.93 2.438-5.68-2.834-10.91 3.023-16.68 1.773-10-1.21-19.5 5.805-29.49 2.866-5.379-0.7819-10.18 3.66-15.63 1.989-5.917-1.892-10.94 2.9-16.69 1.948-5.532-1.667-11 0.4841-16.4 1.596-8.266 2.304-16.85 2.704-25.38 2.576-8.592-0.08427-17.17 1.087-25.36 3.666-5.543 0.6799-10.79-3.551-16.32-0.2567-5.248 0.3348-9.662 4.25-15 3.808-7.974-0.3321-15.99 0.711-23.99 0.3281-4.291 1.278-8.447 3.992-13.11 2.652-8.885-0.8065-17.72 1.444-26.58 0.8383-5.299-1.569-7.764 5.495-4.299 8.9 1.599 5.758 0.8815 11.87 1.041 17.77 0.0019 5.255 3.35 9.554 3.759 14.74 1.589 6.956 3.107 14.08 2.262 21.25-0.1602 5.452 3.543 10.63 1.534 16.11-1.624 5.84 4.111 11.85 0.7436 17.48-1.799 5.358 2.273 10.13 2.834 15.31 1.614 4.514 1.657 9.259 0.978 13.95-0.2552 4.343 2.959 7.896 2.841 12.28 0.3308 5.134 0.4688 10.29 1.404 15.35-0.07072 7.034-1.304 14.23 0.3353 21.17 2.711 5.023 3.489 10.75 4.08 16.37-1.009 4.155-2.626 8.36-1.155 12.65 1.657 12.02 1.189 24.43 4.78 36.12 2.52 5.317-1.374 11.3 1.394 16.61 2.423 4.547 0.7803 9.49 1.26 14.28 1.174 6.038 3.178 11.86 4.695 17.82 1.005 5.748 0.5675 11.59-0.2916 17.33 1.012 5.061 4.175 10.34 1.146 15.36-0.7215 5.105 3.118 9.351 3.229 14.39 1.088 5.367 0.7495 10.87 1.262 16.27 1.4 5.18 2.546 10.42 2.581 15.81 0.2376 9.047 1.981 17.99 1.659 27.05 0.05538 9.013 2.104 17.88 4.786 26.41 0.8589 6.055-3.187 11.77-2.017 17.78 0.3061 0.8841 0.9104 1.634 1.658 2.184z"/>
	<path class="st1" d="m364.3 91.4c4.803-2.925 11.39-3.114 15.93 0.4512 3.537 2.38 6.867 5.078 10.61 7.143 5.508 3.873 8.605 10.07 12.04 15.67 1.963 3.581 4.256 7.221 4.391 11.43 0.2329 3.547-0.1007 7.136 0.7099 10.63 0.5837 3.462 1.805 7.316-0.3228 10.52-2.619 3.593-6.858 5.447-10.69 7.458-3.248 1.486-7.046 1.504-10.34 0.1544-4.413-1.379-9.231-3.41-11.33-7.85-1.573-3.03-3.137-6.25-6.081-8.195-2.653-2.148-5.082-4.653-6.657-7.709-2.56-3.549-5.764-7.323-5.392-12 0.086-3.622 0.5876-7.263 0.0238-10.87-0.1888-6.201 1.472-13.37 7.115-16.84zm-136.5 79.6c3.741-2.236 8.155-0.7455 12.08 0.0343 4.166 0.5961 8.872 1.455 11.44 5.175 2.574 3.331 4.518 7.396 8.378 9.476 2.669 1.731 5.169 3.945 6.328 6.99 3.051 6.173 5.521 12.73 6.629 19.54 0.6752 6.331 0.0836 13.45-4.342 18.4-2.133 2.389-5.105 4.734-8.517 4.15-3.271-0.4492-6.364-1.698-9.592-2.361-3.457-0.9021-6.699-2.49-9.59-4.574-3.695-2.074-7.535-4.27-9.895-7.922-3.269-3.958-6.462-8.472-6.627-13.8-0.2986-3.289-1.223-6.54-3.135-9.267-1.795-2.955-3.311-6.569-2.019-10.02 1.018-3.405 2.792-6.53 3.802-9.938 1.041-2.401 2.69-4.66 5.059-5.883zm135.8 19.8c2.694-4.137 6.239-7.646 9.805-11.02 3.693-2.632 8.174-4.453 10.76-8.374 1.797-2.371 4.624-4.536 7.769-3.816 3.795 0.6604 6.969 3.037 10.21 4.961 2.821 1.928 4.813 4.94 5.452 8.299 1.189 4.343 2.614 9.358 0.036 13.5-2.151 3.201-4.885 6.552-4.612 10.66-0.0324 3.36-0.194 7.054-2.595 9.675-2.774 3.68-5.882 7.173-9.454 10.09-3.316 2.304-6.743 4.496-10.34 6.324-4.215 1.8-8.906 3.117-13.51 2.433-5.502-1.318-8.984-6.716-9.718-12.07-0.9209-5.623-0.1252-11.36 0.82-16.92 1.1-4.81 3.099-9.381 5.38-13.74zm-135.7-78.4c2.243-3.956 2.219-9.172 5.947-12.25 4.653-4.744 10.44-8.675 17.08-9.844 2.88-0.7737 6.024-0.8374 8.74 0.5392 3.812 1.655 7.611 4.196 9.103 8.266 1.15 3.069 2.243 6.209 2.795 9.446 0.5868 3.749-0.8591 7.354-2.461 10.66-1.423 2.969-2.362 6.159-2.53 9.456-0.3777 3.284-1.709 6.72-4.713 8.443-2.785 1.903-5.845 3.593-7.807 6.431-4.568 4.983-10.55 8.801-17.25 10.07-3.749 0.9339-8.122 0.507-10.95-2.367-2.218-1.988-3.272-4.853-4.067-7.637-1.599-3.847-4.084-8.021-2.533-12.3 1.225-3.545 3.251-6.754 4.407-10.33 1.087-3.016 2.599-5.836 4.235-8.585zm86 109.7c4.464-0.0988 9-1.415 13.41-0.1213 5.811 0.8851 11.3 3.157 16.5 5.804 2.768 1.454 4.815 4.19 5.085 7.346 0.4223 3.452 0.3076 6.982-0.1448 10.42-0.5915 3.552-2.918 6.5-5.756 8.593-3.609 2.858-7.898 5.255-12.62 5.271-3.075 0.0362-6.105 0.4989-9.123 1.026-5.069 0.4989-10.2 0.2491-15.23 1.143-3.431 0.3006-6.844-0.8838-9.527-3.001-2.768-1.951-5.856-3.589-9.285-3.884-3.004-0.4569-6.333-1.685-7.522-4.761-1.949-4.29-1.309-9.137-1.306-13.71 0.1672-3.38 1.713-7.046 5.076-8.34 3.858-1.79 8.155-2.569 11.74-4.961 3.554-2.008 7.799-3.881 11.9-2.393 2.239 0.6289 4.444 1.57 6.808 1.561zm0-160.2c7.6 0.0089 15.23 1.28 22.38 3.841 4.724 2.152 7.598 6.682 11.32 10.09 2.169 2.187 4.461 4.936 3.923 8.247-0.685 4.635-3.078 9.429-7.336 11.71-3.685 1.493-7.864 1.849-11.14 4.282-3.511 2.215-7.526 4.333-11.82 3.624-3.559-0.3657-7.111-0.8689-10.69-0.8867-6.986-0.6099-13.82-2.501-20.21-5.376-3.457-1.28-7.696-1.868-9.71-5.373-1.936-3.566-1.574-7.814-1.4-11.73 8e-3 -4.26 2.572-8.319 6.392-10.2 3.823-2.144 7.942-3.697 11.86-5.654 5.177-2.239 10.89-2.454 16.44-2.58z"/>
	<path class="st1" d="m204.2 257.8c-0.8417 0.0177-1.686 0.1596-2.502 0.4316-4.214 0.7546-8.22 2.505-11.56 5.193-3.931 2.511-8.007 5.014-10.84 8.811-2.962 3.172-6.089 6.264-9.939 8.344-3.427 2.331-5.225 6.348-8.822 8.467-6.905 4.394-11.89 10.99-17.21 17.06-2.388 2.784-5.458 4.905-7.484 8.004-1.733 2.555-4.143 4.471-6.617 6.25-3.058 2.564-6.719 4.82-8.217 8.713-1.477 3.596-4.492 6.118-6.832 9.123-2.56 3.005-5.492 5.694-8.674 8.012-2.384 2.658-2.933 6.688-6.07 8.713-1.493 2.575-4.854-0.3831-2.818-2.41 0.7843-7.058-1.986-14.09-0.8027-21.15 0.3034-3.718 0.4932-7.534-0.003906-11.22-1.392-3.491-2.855-7.39-1.025-11.01 0.6942-3.777-3.03-6.104-4.676-9.021-1.31-3.009-3.707-5.758-7.061-6.426-2.882-0.7446-6.053 0.4646-7.643 2.998-2.494 2.779-6.891 4.158-7.646 8.262-0.7369 3.394-2.569 6.352-4.951 8.795-2.809 4.805-3.774 10.43-6.359 15.35-1.711 2.847-3.402 5.712-4.453 8.889-0.9077 2.365-1.41 4.855-1.422 7.381-0.1187 2.909-2.305 4.797-3.607 7.135-0.01175 0.07962-0.01152 0.1606-0.02344 0.2402 1.012 5.061 4.174 10.34 1.145 15.36-0.7215 5.105 3.118 9.351 3.229 14.39 1.088 5.367 0.7509 10.87 1.264 16.27 1.4 5.18 2.545 10.42 2.58 15.81 0.2376 9.047 1.98 17.99 1.658 27.05 0.05538 9.013 2.105 17.88 4.787 26.41 0.8589 6.055-3.188 11.77-2.018 17.78 0.3061 0.8841 0.9104 1.634 1.658 2.184 3.869 2.682 8.39-0.968 12.45-1.422 4.425-2.258 9.286-2.292 14.08-1.723 4.993-0.1682 8.955-4.32 14.21-3.131 5.039-0.3427 9.958 0.9664 14.98 0.6445 5.581-1.492 11.35-2.092 17.11-2.43 4.865-2.936 10.5-4.379 15.96-2.389 5.497-0.9902 10.64-3.834 16.44-2.703 5.663 0.3388 10.6-3.45 16.32-2.473 5.171-0.8687 9.893 1.849 15.03 1.113 1.321-0.5135 2.675-0.9424 4.043-1.324 0.04695-0.2085 0.1113-0.4068 0.1387-0.627 0.7155-3.617 4.265-4.371 6.914-5.945 2.482-2.416 3.347-5.959 5.58-8.586 3.239-4.949 7.075-9.563 11.78-13.19 2.67-2.75 3.048-7.33 6.715-9.182 3.239-2.355 4.042-6.708 6.979-9.268 3.273-1.854 6.652-3.495 9.754-5.65 5.224-3.409 10.38-7.188 14.43-11.94 1.965-3.36 5.773-4.65 8.719-6.838 2.938-2.157 6.348-4.31 7.371-8.053 1.454-4.078 6.523-4.497 8.541-7.854 0.9157-3.652 2.287-7.124 3.467-10.69 1.264-3.68-0.8407-7.112-3.426-9.58-2.943-3.647-7.306-0.5926-10.92-0.2539-3.53-1.21-7.326 0.01147-9.658 2.928-5.564 3.953-12.15 6.076-18.13 9.291-4.165 2.005-6.541 6.82-11.32 7.693-3.456 0.776-3.448 5.653-6.146 6.637-3.291-2.213 1.289-4.139 3.055-5.266 3.002-2.683 6.866-4.712 8.527-8.586 2.592-4.614 6.902-7.897 10.8-11.35 4.018-3.393 8.096-7.014 10.65-11.68 1.099-2.6 1.247-5.722 3.479-7.717 2.491-3.118 5.46-5.869 7.742-9.139 1.634-3.714 2.598-7.728 3.373-11.69 0.4084-3.091 1.423-8.603-2.891-9.225-2.809-0.1944-5.604 0.5339-8.428 0.1992-2.808-0.1988-5.835 0.4807-7.654 2.787-2.785 2.321-6.631 2.146-9.854 3.361-3.148 2.438-5.434 6.069-9.631 6.842-3.495 1.453-5.337 4.88-8.221 7.078-2.73 2.471-5.626 4.974-9.271 5.916-2.418 1.388-4.885 2.861-7.061 4.643 1.4-2.234 2.16-4.964 4.346-6.631 4.308-2.839 5.609-8.772 10.55-10.83 3.798-1.219 3.164-5.459 5.121-8.129 1.62-2.583 5.514-2.207 6.75-5.184 1.092-2.56 1.52-5.654 3.969-7.377 2.995-3.32 5.99-6.792 7.99-10.81 0.707-3.75 3.576-6.062 5.973-8.684 2.067-2.942 1.427-6.653 2.592-9.9 0.9311-3.116 1.01-7.06-1.881-9.191-2.387-2.317-5.93-3.585-9.15-2.303-5.711 1.599-10.12 5.798-15.46 8.199-3.34 1.713-7.92 1.726-9.324 5.924-1.495 3.896-5.833 4.573-9.006 6.506-2.592 1.997-4.815 4.461-7.459 6.422-2.548 2.02-4.731 4.479-6.316 7.314-3.051 2.64-8.357 2.336-9.58 7.021-1.766 3.707-5.867 4.679-8.695 7.227-1.619 1.464-3.152 3.021-4.658 4.604 1.041-1.535 2.167-3.01 3.461-4.357 1.707-1.884 2.912-4.198 3.283-6.723 1.508-4.299 6.466-6.411 7.424-11.01 1.592-4.054 5.117-6.862 7.584-10.34 2.678-2.895 4.593-6.492 5.711-10.24 0.5515-3.359-0.7137-7.097 1.428-10.09 1.481-2.533 1.418-5.987-0.957-7.951-1.728-1.903-4.241-2.953-6.766-2.9zm-27.14 70.39c-0.7101 1.663-1.14 3.863-2.424 2.596 0.00679-1.61 1.143-2.133 2.424-2.596zm37.39 21.85c-1.687 2.277-3.371 4.569-5.479 6.41-1.542 1.515-4.133-0.5181-1.439-1.432 2.302-1.676 4.536-3.426 6.918-4.979z"/>
	<path d="m204.2 257.8c-0.8417 0.0177-1.686 0.1596-2.502 0.4316-4.214 0.7546-8.22 2.505-11.56 5.193-3.931 2.511-8.007 5.014-10.84 8.811-2.962 3.172-6.089 6.264-9.939 8.344-3.427 2.331-5.225 6.348-8.822 8.467-6.905 4.394-11.89 10.99-17.21 17.06-2.388 2.784-5.458 4.905-7.484 8.004-1.733 2.555-4.143 4.471-6.617 6.25-3.058 2.564-6.719 4.82-8.217 8.713-1.477 3.596-4.492 6.118-6.832 9.123-2.56 3.005-5.492 5.694-8.674 8.012-2.384 2.658-2.933 6.688-6.07 8.713-1.493 2.575-4.854-0.3831-2.818-2.41 0.7843-7.058-1.986-14.09-0.8027-21.15 0.3034-3.718 0.4932-7.534-0.003906-11.22-1.392-3.491-2.855-7.39-1.025-11.01 0.6942-3.777-3.03-6.104-4.676-9.021-1.31-3.009-3.707-5.758-7.061-6.426-2.882-0.7446-6.053 0.4646-7.643 2.998-2.494 2.779-6.891 4.158-7.646 8.262-0.7369 3.394-2.569 6.352-4.951 8.795-2.809 4.805-3.774 10.43-6.359 15.35-1.711 2.847-3.402 5.712-4.453 8.889-0.9077 2.365-1.41 4.855-1.422 7.381-0.1168 2.863-2.283 4.714-3.594 7-0.01819 0.1243-0.01851 0.2508-0.03711 0.375 1.012 5.061 4.174 10.34 1.145 15.36-0.7215 5.105 3.118 9.351 3.229 14.39 0.8722 4.302 0.8856 8.682 1.098 13.04 8.226-17.08 25.52-51.19 31.53-49.23 8 2.6 19 35.7 19 35.7s58-66 79-87c10.12-10.12 21.58-20.42 30.79-28.43 0.4781-2.119-1e-3 -4.409-1.77-5.871-1.728-1.903-4.241-2.953-6.766-2.9z" fill="#fff" opacity=".25"/>
	<path class="st10" d="m233.9 404.6c5.156-0.3579 3.463-7.417-0.18-8.653-1.334-4.324-2.397-8.913-6.814-11.14-6.071-6.311-6.963-16.35-14.48-21.49-5.229-3.413-8.036-9.417-13.31-12.8-3.805-2.334-6.599-5.764-9.253-9.214-3.624-3.049-8.366-4.469-11.71-7.908-3.164-3.02-6.122-6.557-10.47-7.873-3.409-0.5729-8.3-3.763-11.09-1.244 0.7099 3.351 4.73 3.694 7.312 5.016 3.738 1.832 7.468 3.697 11.41 5.062 5.99 3.07 9.789 8.927 14.95 13.07 3.452 2.779 5.476 7.081 9.591 9.063 4.396 2.377 5.611 7.858 9.276 11.06 5.194 5.572 10.93 10.87 14.27 17.85 2.122 3.766 4.753 7.237 7.664 10.4 1.608 2.634 3.339 5.586 2.841 8.803z"/>
	<path class="st10" d="m116.2 431.2c-0.8216 3.055 4.12 1.176 3.498-1.039 4.163-7.911 5.286-17.25 3.541-25.99-0.3861-4.258 0.0226-8.598-1.152-12.77-1.081-4.969-3.317-9.676-6.582-13.58-1.624-1.941-1.495-4.572-2.59-6.724-1.89-3.283-5.076-5.528-7.278-8.579-2.509-2.898-5.172-5.922-8.81-7.394-3.663 0.9024-0.5175 5.105 1.386 6.263 1.796 2.502 4.947 3.148 7.153 5.036 2.144 2.423 1.782 6.371 4.712 8.203 1.898 1.407 4.141 2.846 4.625 5.343 1.451 3.925 3.8 7.588 4.266 11.82-0.5118 2.801-1.48 6.357 1.02 8.514 2.478 2.495 0.979 6.013-0.6213 8.474-1.134 2.424 0.2776 4.826 0.3037 7.267 0.0632 2.997-0.2954 6.069-1.354 8.878-1.128 1.725-5.025 4.26-2.284 6.22l0.134 0.0437z"/>
</svg>
