<svg width="153" height="179" viewBox="0 0 153 179" fill="none" xmlns="http://www.w3.org/2000/svg">
<path d="M22.8974 49.114C23.633 49.684 23.633 49.684 24.4293 50.4476C24.6496 50.6562 24.6496 50.6562 24.8743 50.869C25.197 51.1748 25.5186 51.4817 25.8393 51.7896C26.5733 52.4923 27.3158 53.1858 28.0581 53.8798C28.4523 54.2488 28.8459 54.6184 29.239 54.9886C30.1504 55.8469 31.0649 56.6999 31.9976 57.5349C34.5503 59.8255 36.7242 62.2505 38.685 65.0818C41.2668 68.6593 44.5619 71.2768 48.1186 73.8283C51.0662 75.9484 53.6984 78.4038 56.3223 80.907C57.4642 81.996 58.626 83.0524 59.8181 84.0862C61.4897 85.5509 63.095 87.0918 64.7093 88.619C64.9405 88.8375 65.1717 89.0561 65.4099 89.2813C66.4128 90.256 67.3017 91.2707 68.1695 92.3676C71.1717 96.0816 74.6029 99.2092 78.5504 101.883C80.0739 102.92 81.5069 103.942 82.8578 105.2C85.8039 107.918 89.4045 110.165 93.5216 110.042C96.5212 109.757 99.1938 108.183 101.781 106.749C102.137 106.555 102.493 106.361 102.849 106.167C103.382 105.877 103.915 105.586 104.448 105.294C105.715 104.6 106.991 103.927 108.274 103.263C111.341 101.675 114.28 100.023 116.992 97.8644C121.026 94.6754 127.138 91.0663 132.473 91.5025C133.037 91.8849 133.037 91.8849 133.575 92.4206C133.775 92.6155 133.976 92.8105 134.182 93.0113C134.391 93.2212 134.601 93.431 134.816 93.6472C135.255 94.0741 135.695 94.5003 136.135 94.9257C136.348 95.1319 136.561 95.3382 136.78 95.5507C137.973 96.6837 139.257 97.6925 140.547 98.7115C140.765 98.8984 140.984 99.0854 141.208 99.2781C142.679 100.522 144.216 101.506 145.882 102.46C151.54 105.702 151.54 105.702 152.947 108.516C153.158 110.49 152.753 112.129 151.505 113.706C149.756 115.09 147.752 116.085 145.774 117.094C145.185 117.398 144.596 117.702 144.008 118.006C143.57 118.23 143.57 118.23 143.124 118.46C141.889 119.097 140.659 119.744 139.43 120.392C139.211 120.508 138.992 120.623 138.767 120.742C136.475 121.949 134.185 123.162 131.897 124.375C132.965 125.521 134.074 126.35 135.393 127.187C138.155 128.986 140.616 131.064 143.049 133.284C143.636 133.816 144.233 134.332 144.837 134.846C146.018 135.872 147.11 136.981 148.205 138.097C149.037 138.939 149.884 139.72 150.802 140.469C152.131 141.61 152.548 142.649 152.802 144.398C152.577 146.008 151.92 147.147 150.665 148.192C149.744 148.821 148.787 149.369 147.816 149.916C146.226 150.817 144.752 151.765 143.323 152.905C137.608 157.416 130.376 160.233 123.823 163.304C123.588 163.414 123.354 163.524 123.113 163.637C120.808 164.714 118.519 165.676 116.091 166.439C111.412 167.927 107.224 170.11 103.349 173.108C101.72 174.325 100.051 175.397 98.2669 176.37C98.0911 176.467 97.9153 176.565 97.7341 176.665C94.8404 178.201 91.4793 178.542 88.3005 177.685C87.8331 177.518 87.3703 177.337 86.9128 177.145C86.5465 176.991 86.5465 176.991 86.1727 176.834C84.0017 175.785 82.4042 174.253 80.6883 172.6C79.8536 171.797 78.9866 171.056 78.0818 170.332C76.6201 169.161 75.248 167.913 73.8759 166.64C73.2028 166.02 72.5216 165.415 71.8281 164.817C70.9277 164.038 70.0909 163.212 69.2565 162.363C68.7376 161.853 68.1995 161.379 67.6469 160.907C66.721 160.11 65.8562 159.271 64.9976 158.401C64.1567 157.55 63.3119 156.728 62.4024 155.95C60.2006 154.06 58.2328 151.951 56.3469 149.751C54.4614 147.561 52.4415 145.617 50.2914 143.695C49.92 143.356 49.92 143.356 49.5412 143.009C48.3371 141.91 47.1136 140.856 45.8399 139.838C44.4191 138.691 43.138 137.444 41.8716 136.133C41.2567 135.524 40.6411 134.96 39.986 134.398C38.3417 132.975 36.8403 131.411 35.316 129.862C33.9165 128.449 32.4811 127.111 30.9714 125.817C30.5079 125.398 30.0451 124.977 29.5837 124.556C28.5976 123.664 27.592 122.811 26.556 121.978C24.8511 120.597 23.2531 119.117 21.6528 117.618C21.161 117.16 20.6648 116.708 20.167 116.257C18.6695 114.898 17.2344 113.539 15.9318 111.987C14.8514 110.792 13.6205 109.744 12.4242 108.668C11.9216 108.211 11.4254 107.748 10.9306 107.282C9.41489 105.857 7.90207 104.451 6.28084 103.145C0.412918 98.4072 0.412918 98.4072 0.0135672 95.7029C-0.102872 93.5779 0.532404 92.1429 1.83382 90.5057C3.06937 89.4745 4.39578 89.0402 5.90237 88.5108C6.36354 88.3434 6.36354 88.3434 6.83404 88.1725C8.99114 87.3927 11.1574 86.6374 13.326 85.8903C15.2087 85.2381 17.0645 84.5261 18.9121 83.7804C19.9456 83.3679 20.9301 83.0201 22.0324 82.8518C20.2788 80.9168 18.0741 79.4897 15.8507 78.148C14.118 77.0663 12.7128 75.7403 11.2406 74.3352C10.7303 73.8606 10.2069 73.4038 9.6803 72.9474C8.43707 71.8664 7.24053 70.7403 6.04655 69.6054C4.73264 68.357 3.41762 67.129 2.02756 65.9649C0.819541 64.8924 0.225113 63.9076 0.0394743 62.2692C-0.0284145 60.6222 0.159387 59.2048 0.982268 57.7647C2.6965 55.9678 4.70515 55.2679 7.00173 54.4306C7.5947 54.2096 8.18715 53.9872 8.77956 53.7647C9.19221 53.6098 9.60504 53.4554 10.0181 53.3015C11.5534 52.7272 13.0751 52.1235 14.5936 51.5065C15.0281 51.3309 15.4625 51.1554 15.897 50.9799C16.5288 50.7246 17.16 50.4683 17.7899 50.2084C18.3745 49.9675 18.9607 49.7312 19.5475 49.4958C20.0489 49.291 20.0489 49.291 20.5603 49.0821C21.5078 48.8107 21.9741 48.7979 22.8974 49.114Z" fill="black"/>
<path d="M68.9344 1.69484C71.209 3.25136 73.1678 5.20964 75.1571 7.10619C76.8482 8.71266 78.5718 10.272 80.3887 11.7355C81.6007 12.7127 82.7495 13.736 83.885 14.7993C85.2723 16.0983 86.6998 17.3203 88.1833 18.5097C88.9087 19.1061 89.5954 19.7289 90.2829 20.3682C92.2116 22.1254 94.3325 23.6318 96.4286 25.1802C100.367 28.0934 103.794 31.3814 107.238 34.8609C108.58 36.2073 109.951 37.4471 111.45 38.6181C112.601 39.5676 113.675 40.5901 114.757 41.6166C114.97 41.8185 115.183 42.0204 115.402 42.2284C115.814 42.6192 116.226 43.01 116.638 43.4009C118.507 45.1688 120.442 46.8283 122.443 48.4459C123.538 49.3567 124.578 50.3222 125.626 51.2867C126.394 51.9764 127.181 52.6297 127.986 53.277C129.464 54.4705 130.859 55.7369 132.251 57.0279C132.894 57.6207 133.542 58.2018 134.203 58.7738C135.013 59.4744 135.803 60.193 136.588 60.9208C138.085 62.3074 139.616 63.6227 141.206 64.9026C142.296 65.8045 143.328 66.765 144.369 67.7231C145.138 68.4128 145.925 69.066 146.729 69.7134C147.912 70.6735 149.072 71.6536 150.207 72.6691C150.49 72.92 150.772 73.1709 151.063 73.4294C152.092 74.5168 152.607 75.4506 152.766 76.9404C152.575 78.7235 151.874 79.7939 150.484 80.9256C149.367 81.688 148.172 82.305 146.983 82.9472C145.591 83.7164 144.367 84.5788 143.142 85.5911C139.511 88.5721 135.261 90.7569 130.671 91.7727C125.432 92.9333 120.843 95.1004 116.668 98.4771C113.757 100.818 110.445 102.37 107.117 104.03C105.962 104.616 104.833 105.24 103.71 105.884C103.356 106.086 103.002 106.287 102.649 106.488C102.396 106.632 102.396 106.632 102.139 106.779C94.5775 111.073 94.5775 111.073 90.4339 110.046C87.5392 109.072 85.3102 107.535 83.0954 105.466C81.5852 104.14 79.9102 103.03 78.262 101.883C73.841 98.7857 69.9054 95.1045 66.5487 90.8761C64.7191 88.7011 62.6325 86.7095 60.4672 84.8713C59.5048 84.0288 58.5769 83.1504 57.6445 82.275C56.3507 81.0619 55.0556 79.8564 53.7077 78.7032C53.3242 78.3682 52.9488 78.0238 52.5791 77.6736C51.0488 76.2365 49.4454 75.0143 47.7322 73.8045C45.5351 72.2486 43.5674 70.6025 41.6407 68.7222C41.4143 68.5136 41.1879 68.3051 40.9547 68.0903C39.5129 66.7287 38.3997 65.2595 37.2767 63.6386C35.2175 60.6999 32.6757 58.2825 30.0116 55.8943C29.1012 55.0696 28.2085 54.2259 27.3129 53.3852C25.9101 52.0684 24.4931 50.7768 23.0247 49.5329C22.6091 49.1139 22.6091 49.1139 22.6091 48.5371C22.4518 48.4665 22.2946 48.3959 22.1326 48.3231C21.3045 47.8795 20.5981 47.3415 19.8516 46.771C18.7054 45.8976 17.5495 45.0449 16.3733 44.2118C15.0336 43.2427 13.8102 42.1874 12.5965 41.0658C12.0358 40.5512 11.4642 40.0631 10.8765 39.58C9.61697 38.5042 8.59052 37.2449 7.5276 35.9794C7.10108 35.4726 6.67329 34.9668 6.24478 34.4617C6.09793 34.2883 5.95108 34.1149 5.79978 33.9363C4.57603 32.5082 3.26847 31.1979 1.89914 29.9099C0.821299 28.722 0.571779 27.6416 0.622933 26.0408C0.815033 24.4918 1.61557 23.5995 2.79194 22.6471C3.60447 22.0743 4.49549 21.7168 5.41688 21.3617C5.6222 21.2795 5.82753 21.1973 6.03907 21.1126C6.71325 20.8435 7.38911 20.5789 8.06503 20.3142C8.5414 20.1248 9.01763 19.9351 9.49373 19.7451C10.4846 19.3498 11.4761 18.9561 12.468 18.5635C14.584 17.7244 16.6925 16.8668 18.8012 16.0094C19.4727 15.7367 20.1445 15.4648 20.8164 15.1932C22.8233 14.3816 24.828 13.5655 26.8252 12.7301C30.3309 11.2686 33.8036 9.99156 37.4551 8.9515C42.5923 7.48046 47.3296 5.47846 52.1269 3.15254C57.5657 0.516553 63.2673 -1.62695 68.9344 1.69484Z" fill="#F2F4F3"/>
<path d="M22.8971 49.114C23.6326 49.684 23.6326 49.684 24.429 50.4476C24.6492 50.6562 24.6492 50.6562 24.874 50.869C25.1967 51.1748 25.5183 51.4817 25.8389 51.7896C26.573 52.4923 27.3155 53.1858 28.0577 53.8798C28.452 54.2488 28.8456 54.6184 29.2386 54.9886C30.15 55.8469 31.0645 56.6999 31.9972 57.5349C34.55 59.8255 36.7239 62.2505 38.6846 65.0818C41.2664 68.6593 44.5615 71.2768 48.1182 73.8283C51.0659 75.9484 53.6981 78.4038 56.3219 80.9069C57.4639 81.996 58.6256 83.0524 59.8177 84.0862C61.4893 85.5509 63.0946 87.0918 64.7089 88.619C64.9401 88.8375 65.1713 89.0561 65.4095 89.2813C66.4125 90.256 67.3014 91.2706 68.1692 92.3676C71.1713 96.0816 74.6026 99.2091 78.5501 101.883C80.0735 102.92 81.5066 103.942 82.8574 105.2C85.8035 107.918 89.4042 110.165 93.5213 110.042C96.5208 109.756 99.1935 108.183 101.781 106.749C102.136 106.555 102.492 106.361 102.848 106.167C103.381 105.877 103.915 105.586 104.447 105.294C105.714 104.6 106.991 103.927 108.274 103.263C111.341 101.675 114.28 100.023 116.992 97.8644C121.026 94.6754 127.138 91.0663 132.473 91.5025C133.036 91.8849 133.036 91.8849 133.575 92.4205C133.775 92.6155 133.975 92.8105 134.182 93.0113C134.391 93.2212 134.6 93.431 134.816 93.6472C135.255 94.0741 135.694 94.5003 136.135 94.9257C136.348 95.1319 136.56 95.3382 136.78 95.5507C137.972 96.6837 139.256 97.6925 140.547 98.7115C140.765 98.8984 140.983 99.0854 141.208 99.278C142.679 100.522 144.216 101.506 145.882 102.46C151.54 105.702 151.54 105.702 152.946 108.516C153.158 110.49 152.753 112.129 151.504 113.706C149.755 115.09 147.752 116.085 145.773 117.094C145.185 117.398 144.596 117.702 144.007 118.006C143.57 118.23 143.57 118.23 143.124 118.46C141.889 119.097 140.659 119.744 139.43 120.392C139.096 120.568 139.096 120.568 138.756 120.747C137.68 121.314 136.605 121.883 135.531 122.455C132.458 124.091 129.358 125.666 126.232 127.197C123.742 128.421 121.292 129.712 118.848 131.026C118.537 131.192 118.227 131.359 117.907 131.53C116.389 132.35 114.887 133.188 113.403 134.067C111.853 134.977 110.274 135.778 108.647 136.54C108.229 136.738 108.229 136.738 107.802 136.94C104.689 138.41 101.565 139.855 98.4338 141.286C97.8569 141.55 97.2813 141.818 96.707 142.088C96.4291 142.218 96.1513 142.347 95.865 142.481C95.6192 142.597 95.3734 142.713 95.1202 142.832C92.3258 143.959 88.8584 143.737 86.1284 142.577C82.5719 140.829 80.0571 137.654 77.5425 134.69C76.0557 132.942 74.563 131.269 72.8077 129.788C72.1297 129.212 71.475 128.615 70.8185 128.016C69.8385 127.13 68.8394 126.283 67.8087 125.457C66.5622 124.451 65.3987 123.388 64.2403 122.285C62.0382 120.198 59.6422 118.399 57.2116 116.59C55.5694 115.352 54.0117 114.061 52.4943 112.672C51.9483 112.173 51.3995 111.679 50.8452 111.19C50.6255 110.994 50.6255 110.994 50.4013 110.795C49.9859 110.425 49.5697 110.057 49.1534 109.688C48.5609 109.092 48.5609 109.092 48.5609 108.516C48.3157 108.412 48.3157 108.412 48.0656 108.306C47.2715 107.863 46.7402 107.332 46.1042 106.682C45.8568 106.431 45.6095 106.181 45.3546 105.923C45.0983 105.66 44.842 105.398 44.5779 105.127C42.3743 102.88 42.3743 102.88 40.026 100.787C39.5279 100.361 39.1033 99.9001 38.6846 99.3963C35.0228 94.9327 35.0228 94.9327 30.6827 91.2142C30.6827 91.0239 30.6827 90.8335 30.6827 90.6375C30.5135 90.5637 30.3442 90.4899 30.1698 90.4139C29.4669 90.0264 29.0475 89.616 28.5088 89.0233C28.3191 88.8172 28.1294 88.6111 27.9339 88.3987C27.7348 88.18 27.5357 87.9612 27.3306 87.7359C25.6375 85.9076 23.9441 84.1652 22.032 82.5635C21.8197 82.3802 21.6075 82.1969 21.3888 82.0081C19.9136 80.7751 18.3584 79.744 16.7334 78.7247C14.8402 77.5325 13.2016 76.2477 11.5959 74.6922C10.9713 74.0911 10.3412 73.519 9.68669 72.9519C8.44075 71.8698 7.24217 70.7422 6.04618 69.6054C4.73227 68.357 3.41726 67.129 2.0272 65.9649C0.819176 64.8924 0.224748 63.9076 0.0391085 62.2692C-0.0287803 60.6222 0.159021 59.2048 0.981902 57.7647C2.69614 55.9678 4.70478 55.2679 7.00136 54.4306C7.59433 54.2096 8.18678 53.9872 8.7792 53.7647C9.19184 53.6098 9.60468 53.4554 10.0177 53.3015C11.553 52.7272 13.0747 52.1235 14.5933 51.5065C15.0277 51.3309 15.4622 51.1554 15.8967 50.9799C16.5284 50.7246 17.1597 50.4683 17.7895 50.2084C18.3741 49.9675 18.9604 49.7312 19.5472 49.4958C20.0485 49.291 20.0485 49.291 20.5599 49.0821C21.5074 48.8107 21.9737 48.7979 22.8971 49.114Z" fill="#51CB5A"/>
<path d="M124.688 94.0978C125.249 94.565 125.769 95.0327 126.292 95.5396C127.396 96.5829 128.509 97.5837 129.698 98.5313C131.009 99.5966 132.294 100.687 133.555 101.811C133.737 101.968 133.92 102.125 134.108 102.286C135.324 103.389 135.324 103.389 135.467 104.382C134.848 105.429 133.889 105.692 132.798 106.101C132.556 106.197 132.314 106.293 132.064 106.392C131.529 106.605 130.992 106.815 130.455 107.024C129.247 107.496 128.047 107.988 126.847 108.479C125.847 108.889 124.846 109.295 123.845 109.702C121.9 110.494 119.959 111.297 118.019 112.102C113.596 113.937 109.161 115.744 104.727 117.552C100.349 119.337 95.9734 121.129 91.6004 122.927C90.7759 123.265 89.9511 123.604 89.1261 123.941C88.4715 124.209 87.8173 124.479 87.1639 124.75C86.9089 124.854 86.6539 124.959 86.3912 125.067C86.1818 125.154 85.9723 125.24 85.7565 125.33C84.6864 125.701 84.011 125.712 82.8757 125.529C82.0019 125.073 81.3073 124.447 80.5689 123.799C80.2554 123.533 79.9415 123.269 79.6272 123.005C78.073 121.691 76.5416 120.355 75.036 118.987C74.0868 118.124 73.116 117.303 72.1164 116.5C70.7059 115.36 69.3721 114.154 68.0514 112.913C67.0623 111.985 66.0469 111.105 64.9976 110.246C65.0291 109.58 65.0291 109.58 65.2859 108.804C66.0293 108.343 66.0293 108.343 67.0881 107.921C67.2833 107.841 67.4784 107.761 67.6794 107.679C68.1397 107.491 68.601 107.306 69.063 107.122C70.0479 106.726 71.0271 106.317 72.006 105.907C73.4783 105.291 74.9511 104.677 76.426 104.068C76.7379 103.938 77.0498 103.809 77.3712 103.676C79.1562 102.973 79.1562 102.973 79.9921 102.749C80.7739 103.189 80.7739 103.189 81.5421 103.884C81.8186 104.127 82.0952 104.369 82.3801 104.62C82.8387 105.043 83.2959 105.468 83.7498 105.897C86.4308 108.379 89.805 110.159 93.518 110.041C96.5186 109.761 99.1938 108.183 101.781 106.75C102.137 106.555 102.493 106.361 102.848 106.167C103.382 105.877 103.915 105.586 104.448 105.294C105.715 104.6 106.991 103.927 108.274 103.263C111.341 101.675 114.281 100.023 116.992 97.8645C118.391 96.7539 119.84 95.7983 121.389 94.9088C121.585 94.7938 121.781 94.6788 121.983 94.5603C123.012 93.9867 123.57 93.6784 124.688 94.0978Z" fill="#74D57B"/>
<path d="M126.706 127.836C127.415 128.347 128.018 128.947 128.634 129.566C128.989 129.909 129.344 130.251 129.7 130.593C129.875 130.762 130.05 130.93 130.231 131.104C131.182 131.995 132.2 132.796 133.222 133.603C133.999 134.249 134.707 134.843 135.357 135.621C135.396 136.534 135.396 136.534 135.357 137.351C131.664 138.998 127.929 140.534 124.183 142.055C123.557 142.31 122.932 142.564 122.306 142.819C121.346 143.21 120.387 143.601 119.427 143.991C116.343 145.246 113.261 146.507 110.18 147.768C109.145 148.192 108.11 148.615 107.075 149.039C106.819 149.143 106.564 149.248 106.3 149.356C104.657 150.029 103.013 150.7 101.369 151.372C100.23 151.837 99.0913 152.302 97.9525 152.767C97.4174 152.986 96.8822 153.205 96.347 153.423C95.5987 153.728 94.8506 154.034 94.1025 154.34C93.8648 154.437 93.627 154.534 93.3821 154.633C92.1552 155.135 90.9332 155.647 89.7161 156.172C89.3449 156.332 89.3449 156.332 88.9662 156.494C88.498 156.696 88.0306 156.9 87.5641 157.105C85.9167 157.814 84.3766 158.332 82.5874 157.825C81.6878 157.372 81.011 156.783 80.2805 156.095C80.059 155.896 79.8374 155.698 79.6092 155.493C79.1222 155.057 78.6376 154.618 78.155 154.176C77.4033 153.505 76.6322 152.869 75.847 152.238C74.6898 151.302 73.5836 150.331 72.4949 149.318C71.3939 148.294 70.2746 147.311 69.1067 146.362C68.8502 146.154 68.5937 145.945 68.3294 145.729C67.8544 145.347 67.3755 144.97 66.8922 144.599C65.1824 143.23 65.1824 143.23 64.9976 141.983C64.9976 141.692 64.9976 141.4 64.9976 141.1C67.5391 139.709 70.2349 138.692 72.9264 137.635C73.9976 137.214 75.0666 136.787 76.1354 136.36C76.4781 136.224 76.8208 136.087 77.1739 135.947C77.9445 135.645 77.9445 135.645 78.5504 135.333C78.7762 135.626 78.7762 135.626 79.0065 135.925C81.6857 139.313 84.3633 142.054 88.6429 143.118C89.6877 143.219 89.6877 143.219 90.7515 143.209C91.1013 143.213 91.451 143.218 91.8114 143.223C94.6152 143.068 97.0976 141.714 99.5644 140.487C100.258 140.146 100.952 139.807 101.647 139.468C101.986 139.302 102.325 139.137 102.675 138.966C103.974 138.343 105.29 137.765 106.611 137.189C109.446 135.938 112.135 134.455 114.841 132.949C116.408 132.085 117.987 131.242 119.564 130.398C120.101 130.111 120.637 129.824 121.173 129.537C123.03 128.543 123.03 128.543 123.822 128.124C124.03 128.011 124.238 127.897 124.452 127.78C125.311 127.398 125.819 127.556 126.706 127.836Z" fill="#3F5E55"/>
<path d="M39.0455 21.1431C40.9613 22.0359 42.4733 23.5924 44.0017 25.0168C44.7678 25.7159 45.5533 26.3702 46.3626 27.0184C47.5746 27.9956 48.7234 29.0189 49.8589 30.0822C51.4834 31.6027 53.1657 33.0188 54.9052 34.4076C55.8052 35.1287 56.5641 35.7425 57.2121 36.7144C57.1769 37.4507 57.1769 37.4507 56.9237 38.1562C56.425 38.5159 56.425 38.5159 55.7568 38.7757C55.5002 38.879 55.2437 38.9822 54.9795 39.0886C54.6933 39.1972 54.4071 39.3058 54.1122 39.4178C53.4833 39.6678 52.8544 39.9179 52.2255 40.1679C51.7001 40.3733 51.7001 40.3733 51.164 40.5827C49.8785 41.0865 48.5997 41.6066 47.3212 42.1279C46.8516 42.3192 46.3819 42.5106 45.9123 42.7019C45.6791 42.797 45.4459 42.892 45.2056 42.9899C43.663 43.6178 42.1189 44.2419 40.574 44.8642C39.7476 45.1972 38.9228 45.5337 38.0989 45.8729C37.7116 46.031 37.3242 46.1892 36.9369 46.3474C36.4295 46.5562 36.4295 46.5562 35.9119 46.7692C34.7018 47.206 33.6663 47.459 32.4133 47.0953C31.5308 46.6353 30.8392 46.034 30.1065 45.3651C29.863 45.1455 29.6195 44.9258 29.3687 44.6994C28.8303 44.21 28.2938 43.7184 27.759 43.225C26.717 42.2854 25.631 41.4086 24.5398 40.5273C23.282 39.4901 22.085 38.3875 20.879 37.2911C20.5137 36.9654 20.1473 36.641 19.7797 36.3179C19.599 36.1588 19.4184 35.9997 19.2322 35.8358C18.6964 35.3786 18.1546 34.9343 17.6057 34.4932C17.4354 34.3543 17.2651 34.2154 17.0896 34.0723C16.7503 33.7961 16.4087 33.5227 16.0645 33.2526C15.3084 32.6332 14.8633 32.2291 14.5701 31.2829C14.5586 31.077 14.547 30.8711 14.5352 30.6589C15.6078 29.7156 16.6797 29.1474 18.0011 28.6415C18.1982 28.5637 18.3953 28.4858 18.5985 28.4055C19.2436 28.1512 19.8901 27.9002 20.5366 27.6492C21.2151 27.3825 21.8933 27.1149 22.5716 26.8473C23.0368 26.6638 23.5021 26.4806 23.9676 26.2978C26.3943 25.3439 28.8095 24.3625 31.2238 23.3779C31.8027 23.1421 32.3816 22.9065 32.9605 22.6708C33.4558 22.4691 33.9511 22.2673 34.4463 22.0654C34.727 21.9513 35.0077 21.8373 35.2969 21.7198C35.5497 21.6125 35.8025 21.5052 36.063 21.3946C37.0833 21.0149 37.9876 20.9327 39.0455 21.1431Z" fill="#C3ECC7"/>
<path d="M90.0676 65.3398C90.9376 65.832 91.5777 66.3429 92.3013 67.0283C93.3025 67.9562 94.3183 68.8413 95.3831 69.6956C96.6964 70.7574 97.9386 71.8739 99.1739 73.0235C100.1 73.8802 101.05 74.6913 102.033 75.4808C103.281 76.4963 104.518 77.521 105.728 78.5806C105.897 78.7211 106.066 78.8616 106.24 79.0063C106.706 79.422 106.706 79.422 107.386 80.2567C107.371 81.1281 107.371 81.1281 107.098 81.9869C106.512 82.414 106.512 82.414 105.717 82.7201C105.41 82.8427 105.103 82.9653 104.786 83.0916C104.443 83.2206 104.099 83.3497 103.745 83.4827C103.384 83.624 103.022 83.7661 102.661 83.9088C102.057 84.1467 101.453 84.3837 100.848 84.6182C98.9659 85.3488 97.0999 86.1171 95.2344 86.8901C94.316 87.2687 93.3975 87.6469 92.4789 88.0249C91.8692 88.2763 91.2599 88.5286 90.651 88.7818C89.7854 89.141 88.9181 89.4955 88.0502 89.8491C87.7907 89.958 87.5312 90.0668 87.2638 90.179C85.5271 90.8797 84.0992 91.2839 82.2752 90.5858C81.3366 90.0002 80.5926 89.3481 79.7938 88.583C78.6836 87.5352 77.5605 86.5305 76.3695 85.5733C75.0028 84.4733 73.7119 83.3088 72.4215 82.1209C71.6531 81.4312 70.866 80.7779 70.0617 80.1305C68.8668 79.1584 67.6855 78.1745 66.5293 77.1569C66.3766 77.0277 66.2238 76.8986 66.0664 76.7655C65.3958 76.1653 65.0257 75.7712 64.8296 74.8815C65.0515 73.9821 65.3844 73.8371 66.1509 73.3361C66.6307 73.1084 67.1188 72.8975 67.6118 72.6997C67.9077 72.58 68.2036 72.4604 68.5085 72.3371C68.8307 72.2088 69.153 72.0806 69.485 71.9484C69.8215 71.8129 70.1581 71.6774 70.5049 71.5378C71.4428 71.1602 72.3816 70.785 73.3206 70.4102C74.1862 70.0644 75.0514 69.7175 75.9165 69.3706C78.0787 68.5037 80.2409 67.6368 82.4054 66.776C83.2463 66.4413 84.0856 66.1038 84.9218 65.7575C85.1755 65.6528 85.4291 65.548 85.6904 65.4401C85.9011 65.3516 86.1117 65.2631 86.3288 65.1719C87.644 64.7256 88.7822 64.7851 90.0676 65.3398Z" fill="#C3ECC7"/>
<path d="M65.0086 43.3152C65.2349 43.5092 65.2349 43.5092 65.4659 43.7072C65.6551 43.8648 65.8443 44.0224 66.0392 44.1847C66.2663 44.384 66.4934 44.5832 66.7274 44.7885C67.0375 45.0503 67.3481 45.3116 67.659 45.5725C69.2702 46.9317 70.8518 48.3188 72.4045 49.7446C73.4123 50.67 74.4389 51.5535 75.5043 52.4119C76.9903 53.6101 78.3881 54.8821 79.7824 56.1842C80.5541 56.9051 80.5541 56.9051 81.3728 57.5235C82.0104 58.0529 82.0104 58.0529 82.2987 58.7919C82.2987 59.4947 82.2987 59.4947 81.9332 59.9404C81.4166 60.3741 80.9854 60.6038 80.361 60.8531C80.1462 60.9401 79.9314 61.0271 79.7102 61.1168C79.4771 61.2086 79.2441 61.3004 79.004 61.395C78.7596 61.4933 78.5151 61.5916 78.2633 61.6929C77.4646 62.0136 76.6647 62.3311 75.8648 62.6486C75.3159 62.8683 74.7672 63.0881 74.2185 63.3081C73.1139 63.7507 72.0088 64.1919 70.9033 64.6321C69.4765 65.2002 68.051 65.7715 66.6261 66.3443C65.1588 66.9337 63.6914 67.5227 62.223 68.1094C61.9422 68.2217 61.6614 68.3339 61.3721 68.4496C60.0871 68.9499 59.175 69.1671 57.7884 69.0105C55.881 68.1351 54.378 66.5695 52.8693 65.1462C51.8899 64.2229 50.8913 63.3475 49.8405 62.5045C48.5459 61.4654 47.3218 60.3649 46.108 59.2342C45.1406 58.3388 44.145 57.4931 43.1182 56.6652C40.0057 54.1383 40.0057 54.1383 39.73 52.9526C39.9686 52.0697 40.3048 51.9164 41.0636 51.4207C41.5787 51.1784 42.102 50.9533 42.6302 50.7411C42.9443 50.614 43.2583 50.4869 43.582 50.3559C44.0906 50.1531 44.0906 50.1531 44.6095 49.9463C44.9618 49.8044 45.314 49.6625 45.6769 49.5163C46.4241 49.2155 47.1716 48.9157 47.9196 48.6169C48.8644 48.2394 49.8084 47.86 50.7522 47.4798C52.6967 46.6966 54.6435 45.9199 56.5928 45.1486C57.3881 44.8329 58.1817 44.5131 58.975 44.1922C59.3798 44.0321 59.7848 43.8723 60.1898 43.7128C60.6778 43.5175 60.6778 43.5175 61.1757 43.3183C62.4306 42.9705 63.7796 42.7784 65.0086 43.3152Z" fill="#C3ECC6"/>
<path d="M32.1247 57.7646C34.2999 59.5233 36.1505 61.4848 37.7275 63.8016C40.716 68.1835 44.562 71.3709 48.8936 74.3776C49.4087 74.7647 49.8484 75.1759 50.2912 75.6428C49.881 75.7935 49.881 75.7935 49.4625 75.9471C46.4595 77.0575 43.4971 78.252 40.5411 79.4816C39.8818 79.7552 39.2224 80.0286 38.5628 80.3017C38.1577 80.4695 37.7527 80.6376 37.3478 80.8062C35.6569 81.5076 34.25 82.0458 32.413 81.6983C31.432 81.1521 30.6422 80.4372 29.8178 79.6798C29.5892 79.475 29.3606 79.2702 29.1251 79.0592C28.6423 78.6252 28.1614 78.1892 27.6822 77.7514C26.9336 77.084 26.1656 76.4517 25.3843 75.823C24.2271 74.8875 23.1209 73.9163 22.0322 72.9034C20.262 71.257 18.4181 69.7025 16.4937 68.2379C15.1682 67.1958 15.1682 67.1958 14.8413 66.0189C14.8323 65.6442 14.8323 65.6442 14.8232 65.2619C16.1589 64.382 17.5927 63.8213 19.0698 63.2277C19.3418 63.1171 19.6139 63.0065 19.8942 62.8926C20.7626 62.5399 21.6316 62.1887 22.5008 61.8377C23.6403 61.3767 24.7794 60.9149 25.9182 60.4522C26.1886 60.3424 26.459 60.2326 26.7375 60.1194C28.5545 59.3778 30.3531 58.6101 32.1247 57.7646Z" fill="#74D57B"/>
<path d="M30.3948 90.6373C31.9108 91.9046 33.3274 93.2375 34.7202 94.6383C34.9142 94.8312 35.1082 95.0241 35.3082 95.2229C36.9758 96.8937 38.5128 98.6584 40.0368 100.46C40.6943 101.211 41.3688 101.881 42.1307 102.525C43.4088 103.63 44.599 104.809 45.7859 106.01C45.9907 106.216 46.1955 106.423 46.4065 106.635C46.7821 107.013 47.1574 107.391 47.5322 107.77C47.8743 108.116 48.2175 108.46 48.5613 108.804C48.2837 108.906 48.006 109.008 47.72 109.113C45.6469 109.879 43.5882 110.669 41.5495 111.523C41.3534 111.605 41.1573 111.686 40.9553 111.771C40.1565 112.104 39.3579 112.437 38.5614 112.776C37.9668 113.028 37.3704 113.276 36.7736 113.523C36.427 113.669 36.0803 113.816 35.7232 113.966C34.6461 114.306 33.8241 114.375 32.7017 114.283C31.3389 113.539 30.1921 112.505 29.0251 111.489C28.7601 111.26 28.7601 111.26 28.4897 111.027C27.4611 110.136 26.4457 109.232 25.4387 108.317C24.4832 107.449 23.5061 106.622 22.501 105.812C21.0212 104.615 19.6234 103.347 18.2286 102.053C17.3502 101.243 16.4557 100.455 15.5512 99.6744C15.2008 99.3662 14.8651 99.0413 14.5352 98.7113C14.5674 97.999 14.5674 97.999 14.8235 97.2696C15.3443 96.8678 15.3443 96.8678 16.0378 96.5554C16.2994 96.4364 16.561 96.3173 16.8305 96.1947C18.4223 95.5284 20.0245 94.895 21.636 94.2778C24.5892 93.1337 27.512 91.9489 30.3948 90.6373Z" fill="#3F5D55"/>
<path d="M55.1936 79.9681C56.8363 81.3434 58.4073 82.7917 59.9774 84.2484C60.756 84.9706 61.5399 85.6867 62.3259 86.4008C64.4243 88.3108 66.4708 90.2155 68.2418 92.4396C69.7995 94.3902 71.5731 96.109 73.3601 97.8463C72.6457 98.5607 71.986 98.7921 71.0499 99.1754C70.8766 99.2469 70.7034 99.3183 70.5249 99.3919C69.9627 99.6231 69.3997 99.8522 68.8365 100.081C68.4519 100.238 68.0674 100.395 67.6829 100.552C67.1139 100.785 66.5449 101.017 65.9756 101.248C64.975 101.655 63.9781 102.069 62.986 102.496C62.7926 102.578 62.5992 102.66 62.3999 102.744C61.9234 102.946 61.4482 103.151 60.9731 103.357C59.4639 103.798 58.3104 103.892 56.9012 103.139C55.9586 102.379 55.0253 101.615 54.1122 100.82C53.8472 100.591 53.8472 100.591 53.5769 100.358C52.5483 99.467 51.5328 98.5632 50.5258 97.6481C49.5704 96.7799 48.5933 95.953 47.5882 95.1429C46.2597 94.0681 44.9931 92.9438 43.7441 91.779C42.7336 90.8372 41.6935 89.9465 40.6101 89.0897C40.0794 88.4819 40.0109 87.9661 39.9106 87.1771C41.0952 86.4333 42.2572 85.8798 43.5692 85.3929C45.9638 84.4842 48.315 83.4794 50.67 82.4732C51.1113 82.2853 51.5527 82.0973 51.9941 81.9095C53.0609 81.4553 54.1273 81.0003 55.1936 80.5449C55.1936 80.3545 55.1936 80.1642 55.1936 79.9681Z" fill="#74D57B"/>
<path d="M54.3283 113.994C54.8981 114.428 55.4066 114.906 55.9289 115.395C56.7613 116.123 57.6542 116.74 58.5636 117.364C60.6969 118.848 62.5419 120.569 64.4208 122.357C65.6153 123.437 66.8451 124.475 68.0769 125.513C69.4453 126.666 70.8094 127.824 72.1524 129.007C72.3862 129.212 72.62 129.418 72.8609 129.63C73.3599 130.142 73.3599 130.142 73.3599 130.719C73.0306 130.849 72.7013 130.978 72.3619 131.112C71.8895 131.299 71.4172 131.487 70.9449 131.674C70.6919 131.774 70.4389 131.874 70.1782 131.978C68.6449 132.59 67.1244 133.224 65.6114 133.885C65.2791 134.03 64.9467 134.174 64.6043 134.322C63.9505 134.607 63.298 134.895 62.6469 135.187C59.7864 136.429 59.7864 136.429 58.077 136.198C56.3311 135.459 55.0942 134.205 53.719 132.922C52.9399 132.209 52.142 131.542 51.3186 130.881C50.0109 129.826 48.7759 128.716 47.547 127.572C46.6085 126.704 45.646 125.881 44.6503 125.078C44.127 124.652 43.6044 124.226 43.0824 123.798C42.9351 123.678 42.7878 123.558 42.6361 123.434C42.1853 123.062 41.7413 122.684 41.2982 122.302C41.0324 122.078 40.7666 121.854 40.4928 121.623C39.9105 120.915 39.9105 120.915 39.8237 119.963C39.8667 119.578 39.8667 119.578 39.9105 119.185C41.4403 118.402 42.9751 117.691 44.567 117.046C44.78 116.958 44.9929 116.871 45.2124 116.781C45.8838 116.506 46.5556 116.232 47.2275 115.959C47.9055 115.682 48.5834 115.404 49.2612 115.127C49.6809 114.955 50.1006 114.784 50.5205 114.613C52.9998 113.601 52.9998 113.601 54.3283 113.994Z" fill="#3F5D55"/>
<path d="M95.2752 39.0213C96.1065 39.4752 96.1065 39.4752 96.753 40.0846C96.9738 40.282 97.1946 40.4794 97.4221 40.6827C97.8704 41.3282 97.8704 41.3282 97.8449 42.0461C97.5821 42.77 97.5821 42.77 96.9637 43.1607C96.6894 43.2604 96.4151 43.36 96.1324 43.4627C95.6624 43.6395 95.6624 43.6395 95.183 43.82C94.6666 44.005 94.6666 44.005 94.1398 44.1937C93.4061 44.4675 92.6729 44.7423 91.9399 45.0182C91.6497 45.1265 91.6497 45.1265 91.3536 45.237C89.8379 45.806 88.3427 46.4171 86.8509 47.0458C86.6304 47.1384 86.41 47.231 86.1829 47.3264C85.3092 47.6938 84.4359 48.0618 83.5646 48.4346C82.9554 48.6949 82.3447 48.9514 81.7337 49.2073C81.5538 49.2855 81.3738 49.3638 81.1885 49.4444C80.0748 49.9065 79.1767 50.0958 77.9738 49.9789C77.174 49.525 77.174 49.525 76.4238 48.9156C76.1718 48.7182 75.9198 48.5208 75.6601 48.3175C74.9707 47.5367 75.0376 47.2346 75.0902 46.2302C77.3799 45.2455 79.6755 44.2752 81.9752 43.3142C82.3936 43.1393 82.8119 42.9642 83.2302 42.7889C84.5752 42.2253 85.9223 41.6674 87.2723 41.1157C87.7148 40.9341 88.1566 40.7509 88.5978 40.566C93.1337 38.6684 93.1337 38.6684 95.2752 39.0213Z" fill="#53CC5C"/>
<path d="M64.0503 11.7299C64.2618 11.9042 64.4733 12.0785 64.6913 12.2581C65.0163 12.5141 65.0163 12.5141 65.3479 12.7752C65.951 13.4574 66.0066 13.9165 66.1511 14.7993C64.0133 15.7936 61.8563 16.7106 59.663 17.5747C57.6453 18.3724 55.6321 19.178 53.6312 20.0168C53.281 20.1626 52.9309 20.3085 52.5701 20.4587C51.8921 20.7418 51.2151 21.0271 50.5392 21.3151C50.2303 21.4435 49.9214 21.5718 49.6032 21.7041C49.1963 21.8759 49.1963 21.8759 48.7813 22.0512C47.8888 22.3261 47.1833 22.37 46.2544 22.2966C45.5279 21.8652 45.5279 21.8652 44.8667 21.3054C44.5338 21.0294 44.5338 21.0294 44.1942 20.7478C43.9139 20.5017 43.6346 20.2535 43.3708 19.9897C43.3591 19.5093 43.3585 19.0284 43.3708 18.5479C46.135 17.378 48.9031 16.2176 51.6742 15.0642C52.2981 14.8042 52.9217 14.5433 53.5451 14.2821C54.5252 13.8723 55.507 13.467 56.4902 13.0648C56.8604 12.9127 57.23 12.7592 57.5989 12.6042C62.0569 10.7346 62.0569 10.7346 64.0503 11.7299Z" fill="#53CC5C"/>
<path d="M114.495 55.5883C114.821 55.8448 114.821 55.8448 115.154 56.1064C115.376 56.2744 115.599 56.4424 115.828 56.6155C116.456 57.3381 116.367 57.7013 116.325 58.6295C113.541 59.7953 110.75 60.9427 107.957 62.0879C107.205 62.3965 106.453 62.7053 105.701 63.014C104.537 63.4919 103.372 63.9683 102.207 64.4441C101.695 64.6537 101.185 64.8655 100.675 65.0778C100.423 65.1816 100.171 65.2855 99.9113 65.3924C99.7096 65.4765 99.5078 65.5606 99.3 65.6473C98.2246 66.0114 97.2418 66.1346 96.1401 65.8385C95.2278 65.2849 94.4791 64.6717 93.8333 63.82C93.7249 63.342 93.6272 62.8613 93.5449 62.3782C96.0527 61.1877 98.5775 60.1132 101.168 59.1161C103.2 58.3308 105.229 57.5447 107.231 56.6843C107.66 56.5013 107.66 56.5013 108.097 56.3146C108.629 56.0861 109.16 55.8539 109.688 55.6172C111.454 54.8632 112.723 54.6178 114.495 55.5883Z" fill="#53CC5C"/>
<path d="M117.19 61.8014C117.834 62.1495 117.834 62.1495 118.398 62.6124C118.681 62.8382 118.681 62.8382 118.969 63.0686C119.23 63.2978 119.23 63.2978 119.497 63.5316C119.669 63.6695 119.84 63.8074 120.016 63.9495C120.362 64.3966 120.362 64.3966 120.304 64.967C120.074 65.5501 120.074 65.5501 119.632 65.8598C119.438 65.9386 119.245 66.0174 119.046 66.0986C118.708 66.24 118.708 66.24 118.364 66.3843C118.113 66.4837 117.863 66.5831 117.605 66.6855C117.344 66.7923 117.083 66.8991 116.815 67.0092C116.222 67.2512 115.63 67.4915 115.036 67.7304C114.104 68.1103 113.178 68.5001 112.252 68.8948C111.426 69.2464 110.598 69.5936 109.77 69.9402C109.36 70.1125 108.951 70.2863 108.542 70.4616C107.961 70.7102 107.378 70.9524 106.794 71.1933C106.287 71.4064 106.287 71.4064 105.771 71.6237C104.644 71.9344 103.904 71.867 102.772 71.6056C102.081 71.1866 102.081 71.1866 101.511 70.6684C101.318 70.5004 101.126 70.3324 100.927 70.1593C100.384 69.4859 100.319 68.9867 100.177 68.1453C102.743 66.9256 105.33 65.8327 107.981 64.8112C108.663 64.5468 109.346 64.2821 110.028 64.017C110.357 63.8899 110.686 63.7627 111.025 63.6317C112.256 63.1411 113.467 62.6076 114.676 62.0617C115.565 61.7668 116.259 61.7313 117.19 61.8014Z" fill="#54CC5C"/>
<path d="M86.0477 34.4077C86.8407 34.9405 86.8407 34.9405 87.4895 35.5792C87.7095 35.7907 87.9296 36.0022 88.1563 36.2201C88.3169 36.3833 88.4774 36.5464 88.6429 36.7146C88.575 37.2516 88.575 37.2516 88.3545 37.868C87.8486 38.2067 87.8486 38.2067 87.1346 38.5022C86.8472 38.6235 86.5597 38.7448 86.2635 38.8698C86.0954 38.9381 85.9273 39.0065 85.7541 39.0769C85.1055 39.3412 84.46 39.6123 83.8144 39.8838C82.5006 40.4343 81.1831 40.9753 79.864 41.5129C79.3095 41.7395 78.7556 41.9675 78.2022 42.1967C77.3954 42.5308 76.5871 42.8609 75.7783 43.1902C75.5323 43.2929 75.2862 43.3956 75.0328 43.5014C73.7648 44.0122 72.7334 44.384 71.3414 44.2119C70.5417 43.7579 70.5417 43.7579 69.7915 43.1485C69.5395 42.9512 69.2875 42.7538 69.0278 42.5504C68.3384 41.7697 68.4053 41.4675 68.4579 40.4632C70.4085 39.6313 72.3612 38.8044 74.3163 37.9831C75.4044 37.5254 76.4898 37.0617 77.5734 36.5933C78.438 36.2211 79.3055 35.8558 80.1724 35.489C80.4948 35.3479 80.8172 35.2067 81.1493 35.0612C82.9327 34.3151 84.1605 33.8474 86.0477 34.4077Z" fill="#54CC5D"/>
<path d="M67.3042 18.2595C68.069 18.6785 68.069 18.6785 68.7279 19.1967C68.9506 19.3647 69.1732 19.5327 69.4026 19.7058C70.0299 20.4283 69.9414 20.7916 69.8994 21.7198C69.7019 21.8019 69.5043 21.8841 69.3008 21.9687C67.6151 22.6703 65.9304 23.3744 64.2471 24.0819C64.0586 24.1611 63.87 24.2403 63.6758 24.3219C62.8993 24.6481 62.1229 24.9743 61.3466 25.3008C54.102 28.3482 54.102 28.3482 52.8863 28.0637C51.7317 27.3064 50.6901 26.4442 49.7144 25.4685C49.7353 24.8991 49.7353 24.8991 50.0027 24.315C50.6001 23.9433 50.6001 23.9433 51.3972 23.62C51.8436 23.4351 51.8436 23.4351 52.2991 23.2464C52.6237 23.1173 52.9483 22.9882 53.2828 22.8552C53.615 22.7198 53.9473 22.5844 54.2896 22.4449C54.8151 22.2309 55.3408 22.0169 55.8673 21.8052C56.9587 21.3662 58.0436 20.9148 59.1244 20.4504C59.9932 20.0771 60.8645 19.7097 61.7353 19.3409C62.0601 19.1996 62.3849 19.0583 62.7196 18.9128C65.6179 17.7047 65.6179 17.7047 67.3042 18.2595Z" fill="#53CC5C"/>
<path d="M64.1328 49.979C64.687 50.6706 64.687 50.6706 65.2141 51.5289C65.4795 51.9515 65.4795 51.9515 65.7503 52.3827C66.1513 53.1509 66.1513 53.1509 66.1513 54.016C65.8383 54.1308 65.5253 54.2457 65.2028 54.364C64.7861 54.5183 64.3693 54.6726 63.9525 54.827C63.6442 54.9399 63.6442 54.9399 63.3296 55.0551C62.3784 55.4085 61.482 55.7744 60.5756 56.2361C59.8074 56.6112 59.8074 56.6112 58.9423 56.6112C59.0851 56.8967 59.0851 56.8967 59.2307 57.1879C61.215 56.9792 62.9888 56.1396 64.8216 55.3986C65.0823 55.2958 65.3431 55.1931 65.6117 55.0872C65.9644 54.945 65.9644 54.945 66.3242 54.7999C67.069 54.5769 67.685 54.5549 68.4581 54.5927C68.6009 55.0209 68.6009 55.0209 68.7465 55.4578C67.6363 55.9622 66.5235 56.46 65.4078 56.952C65.0292 57.12 64.6513 57.2898 64.2743 57.4614C63.7301 57.7087 63.1834 57.9495 62.6358 58.1893C62.3081 58.3357 61.9804 58.4822 61.6428 58.6331C59.9235 59.138 58.5721 58.6841 57.032 57.8728C56.7357 57.7196 56.4395 57.5665 56.1342 57.4087C55.488 57.0589 54.8461 56.7009 54.2081 56.3363C53.8851 56.1535 53.5621 55.9706 53.2293 55.7822C52.7893 55.5246 52.7893 55.5246 52.3405 55.2618C51.308 54.8228 50.5374 54.8114 49.4265 54.881C49.3314 54.5956 49.2362 54.3101 49.1382 54.016C50.1263 53.4079 50.8759 53.3915 52.0218 53.4393C53.248 53.4393 54.0736 53.1299 55.1757 52.6643C55.5623 52.5053 55.949 52.3464 56.3359 52.1878C56.5302 52.1076 56.7245 52.0273 56.9247 51.9447C57.7911 51.5903 58.6636 51.2525 59.5371 50.9161C59.8259 50.8046 60.1147 50.6931 60.4123 50.5782C60.8266 50.4243 60.8266 50.4243 61.2492 50.2673C61.5462 50.1528 61.8432 50.0384 62.1492 49.9204C63.3671 49.5833 63.3671 49.5833 64.1328 49.979Z" fill="#54CC5D"/>
<path d="M87.4896 71.3174C87.7751 71.3174 88.0605 71.3174 88.3547 71.3174C88.4271 71.604 88.4996 71.8906 88.5743 72.1858C88.9211 73.3973 89.4519 74.4733 90.0307 75.5887C90.2376 75.9942 90.4445 76.3997 90.6514 76.8052C90.7517 77.0003 90.852 77.1955 90.9554 77.3965C91.4442 78.3523 91.9153 79.317 92.3894 80.2801C92.7029 80.8999 92.7029 80.8999 93.2567 81.6983C93.2567 81.9837 93.2567 82.2692 93.2567 82.5633C92.2732 82.3757 91.5627 81.9909 90.7156 81.464C90.4617 81.3097 90.2078 81.1554 89.9463 80.9965C89.5151 80.7285 89.0867 80.456 88.6644 80.1742C87.3296 79.3181 86.431 79.2612 84.8944 79.3914C84.7041 79.4865 84.5137 79.5817 84.3177 79.6797C83.9009 79.7426 83.4822 79.7921 83.0629 79.8341C82.8175 79.8592 82.5722 79.8842 82.3194 79.9101C82.063 79.9352 81.8065 79.9603 81.5422 79.9861C81.2835 80.0123 81.0248 80.0385 80.7582 80.0655C80.1185 80.1302 79.4788 80.1938 78.8389 80.2565C78.8389 79.971 78.8389 79.6855 78.8389 79.3914C79.3815 78.9302 79.9172 78.5214 80.4969 78.1118C82.1174 76.9235 83.5399 75.6305 84.9313 74.1824C85.5682 73.5203 86.1437 72.9836 86.9129 72.4708C87.2567 71.8797 87.2567 71.8797 87.4896 71.3174Z" fill="#53CC5C"/>
<path d="M44.524 33.8308C45.184 34.2847 45.184 34.2847 45.6774 34.6959C45.5822 35.362 45.4871 36.0281 45.389 36.7144C45.2117 36.7701 45.0344 36.8259 44.8517 36.8833C44.6187 36.9584 44.3856 37.0335 44.1455 37.1109C43.7992 37.2213 43.7992 37.2213 43.446 37.3339C42.7283 37.5761 42.7283 37.5761 41.9287 38.1562C41.5305 38.3062 41.1273 38.4435 40.7212 38.5707C39.8478 38.8477 39.0068 39.1539 38.1621 39.5078C36.9506 39.9625 36.0106 40.0369 34.7198 39.8863C33.7644 39.1514 33.3411 38.5529 33.1519 37.3632C33.3055 36.2221 33.6221 35.8333 34.4551 35.0755C35.2483 34.5311 36.0611 34.2681 36.9839 34.0155C37.6121 33.8508 37.6121 33.8508 38.1756 33.5244C39.9737 32.6881 42.703 33.2334 44.524 33.8308Z" fill="#53CC5C"/>
<path d="M89.7964 49.6906C90.6243 50.2864 90.6243 50.2864 91.3644 51.0062C91.6138 51.2445 91.8632 51.4827 92.1202 51.7282C92.3049 51.9122 92.4897 52.0962 92.68 52.2858C92.3917 53.1509 92.3917 53.1509 91.8305 53.4873C91.5893 53.5915 91.3482 53.6957 91.0997 53.803C90.703 53.9745 90.703 53.9745 90.2983 54.1494C89.8804 54.3242 89.8804 54.3242 89.454 54.5025C89.181 54.6224 88.908 54.7423 88.6267 54.8658C85.934 56.0101 85.934 56.0101 84.606 55.7461C83.7432 55.2189 83.7432 55.2189 82.9119 54.5206C82.6331 54.2931 82.3543 54.0656 82.0671 53.8312C81.4341 53.1509 81.4341 53.1509 81.4341 51.9974C82.446 51.5509 83.4624 51.1155 84.4799 50.6818C84.7655 50.5556 85.0512 50.4294 85.3455 50.2994C88.1307 49.1242 88.1307 49.1242 89.7964 49.6906Z" fill="#C5ECC8"/>
<path d="M64.7093 27.7753C65.5372 28.3712 65.5372 28.3712 66.2773 29.091C66.5267 29.3292 66.7761 29.5675 67.0331 29.813C67.2178 29.997 67.4026 30.181 67.5929 30.3706C67.31 31.094 67.1262 31.457 66.4533 31.8667C66.2276 31.9573 66.0018 32.0479 65.7693 32.1413C65.52 32.2416 65.2708 32.342 65.014 32.4454C64.7529 32.5457 64.4918 32.6461 64.2227 32.7495C63.9672 32.8543 63.7116 32.9592 63.4483 33.0672C62.0202 33.6295 60.7825 34.0939 59.2305 33.8309C58.5668 33.361 58.0751 32.9588 57.5184 32.3891C57.3762 32.2515 57.234 32.114 57.0876 31.9723C56.7402 31.6351 56.3988 31.2918 56.0586 30.9473C56.347 30.0822 56.347 30.0822 56.93 29.7412C57.755 29.3932 58.5808 29.0485 59.4107 28.7125C59.6951 28.5902 59.9795 28.4679 60.2724 28.3419C61.8403 27.6993 63.0314 27.2118 64.7093 27.7753Z" fill="#C5ECC8"/>
<path d="M114.595 71.3175C115.234 71.7846 115.739 72.2065 116.289 72.7593C116.433 72.8969 116.576 73.0344 116.724 73.1761C117.075 73.514 117.422 73.857 117.767 74.2011C117.479 75.0662 117.479 75.0662 116.886 75.4026C116.631 75.5068 116.376 75.611 116.113 75.7184C115.695 75.8898 115.695 75.8898 115.269 76.0647C114.975 76.1813 114.681 76.2978 114.379 76.4179C114.09 76.5377 113.8 76.6576 113.502 76.7811C111.004 77.79 111.004 77.79 109.693 77.6614C108.858 77.1343 108.858 77.1343 108.017 76.4359C107.735 76.2084 107.454 75.9809 107.164 75.7465C106.521 75.0662 106.521 75.0662 106.521 73.9128C107.54 73.4752 108.562 73.0446 109.585 72.6152C109.873 72.4914 110.161 72.3676 110.458 72.2401C110.738 72.123 111.019 72.0059 111.308 71.8852C111.565 71.7765 111.822 71.6678 112.086 71.5558C112.976 71.2836 113.669 71.2332 114.595 71.3175Z" fill="#C4ECC8"/>
<path d="M36.7386 29.7938C37.5223 30.4397 37.5935 30.5889 37.7478 31.6501C37.6036 32.6774 37.6036 32.6774 36.9368 33.3622C35.4605 34.2549 34.0955 34.2637 32.4132 34.1191C31.0639 33.6354 30.1318 32.9385 29.2413 31.8123C29.0791 30.9112 29.0791 30.9112 29.2413 30.0821C31.2104 28.113 34.4673 28.6987 36.7386 29.7938Z" fill="#53CC5C"/>
<path d="M67.8811 56.8995C68.8543 56.8634 68.8543 56.8634 69.8996 56.8995C70.0899 57.0898 70.2802 57.2801 70.4763 57.4762C70.3218 58.4957 70.3218 58.4957 69.8996 58.918C69.0714 59.0051 68.6195 59.0258 67.9171 58.5575C67.5927 58.0529 67.5927 58.0529 67.6828 57.4221C67.7482 57.2496 67.8137 57.0772 67.8811 56.8995Z" fill="#5BCE63"/>
<path d="M62.4021 59.2064C63.3753 59.1703 63.3753 59.1703 64.4206 59.2064C64.6109 59.3967 64.8013 59.587 64.9973 59.7831C64.8892 60.3958 64.8892 60.3958 64.709 60.9365C62.7626 60.9725 62.7626 60.9725 62.1138 60.6481C62.2089 60.1724 62.3041 59.6966 62.4021 59.2064Z" fill="#57CD60"/>
<path d="M80.8574 77.9496C80.9525 78.1399 81.0477 78.3302 81.1457 78.5263C80.7651 78.8118 80.3845 79.0972 79.9923 79.3914C80.8487 79.5341 80.8487 79.5341 81.7224 79.6797C81.7224 79.7749 81.7224 79.87 81.7224 79.9681C80.7709 80.0632 79.8193 80.1584 78.8389 80.2564C78.8389 79.971 78.8389 79.6855 78.8389 79.3914C79.2804 78.9915 79.2804 78.9915 79.8481 78.6164C80.0355 78.4904 80.2228 78.3644 80.4158 78.2346C80.6344 78.0935 80.6344 78.0935 80.8574 77.9496Z" fill="#65D16E"/>
</svg>
