<?xml version="1.0" encoding="utf-8"?>
<!-- Generator: Adobe Illustrator 27.8.1, SVG Export Plug-In . SVG Version: 6.00 Build 0)  -->
<svg version="1.1" id="Capa_1" xmlns="http://www.w3.org/2000/svg" xmlns:xlink="http://www.w3.org/1999/xlink" x="0px" y="0px"
	 viewBox="0 0 595.39 593.12" style="enable-background:new 0 0 595.39 593.12;" xml:space="preserve">
<style type="text/css">
	.st0{fill:#10352B;}
	.st1{fill:#51CB59;}
	.st2{fill:#A8E6A5;}
	.st3{fill:#DECFF1;}
	.st4{fill:#915FD0;}
	.st5{fill:#C8AFE7;}
	.st6{fill:#80D4F1;}
	.st7{fill:#F3F5F4;}
	.st8{fill:#F2E770;}
	.st9{fill:#FFFFFF;}
	.st10{fill:#F2D54C;}
	.st11{fill-rule:evenodd;clip-rule:evenodd;fill:#F2E770;}
	.st12{fill-rule:evenodd;clip-rule:evenodd;fill:#C8AFE7;}
	.st13{fill-rule:evenodd;clip-rule:evenodd;fill:#915FD0;}
	.st14{fill-rule:evenodd;clip-rule:evenodd;fill:#FD6085;}
	.st15{fill-rule:evenodd;clip-rule:evenodd;fill:#DECFF1;}
	.st16{fill:#00A8E3;}
	.st17{fill:#59A57C;}
	.st18{fill:#7ED4A7;}
	.st19{fill:#EDDFCE;}
	.st20{fill:#DBCBB9;}
	.st21{fill:#FDCE5E;}
	.st22{fill-rule:evenodd;clip-rule:evenodd;fill:#A8E6A5;}
	.st23{fill-rule:evenodd;clip-rule:evenodd;fill:#51CB59;}
	.st24{fill-rule:evenodd;clip-rule:evenodd;fill:#EBFDFF;}
	.st25{fill-rule:evenodd;clip-rule:evenodd;fill:#7DB8B5;}
	.st26{fill-rule:evenodd;clip-rule:evenodd;fill:#9CDAD7;}
	.st27{fill-rule:evenodd;clip-rule:evenodd;fill:#007976;}
	.st28{fill-rule:evenodd;clip-rule:evenodd;fill:#2C4B5F;}
	.st29{fill-rule:evenodd;clip-rule:evenodd;fill:#182F3B;}
</style>
<g>
	<path class="st2" d="M539.32,240.1c-5.23,0.23-5.23,0.3-10.46,0.53c-5.24,0.23-5.17,1.82-10.4,2.06
		c-5.24,0.23-5.23,0.38-10.47,0.61c-5.24,0.23-5.27-0.32-10.51-0.08c-1.39,0.06-4.59,0.37-5.91,0.66c-1.03-3.8,0.17-8.94-1.08-12.64
		c-1.25-3.73-2.73-7.4-4.19-11.03c-1.47-3.65-2.31-7.61-3.98-11.15c-1.68-3.55-5.94-5.78-7.81-9.22c-1.88-3.45-0.91-8.57-2.99-11.89
		c-2.08-3.33-7.48-5.12-9.75-8.32c1.09-0.85,2.55-3.33,3.5-4.38c3.52-3.88,4.35-3.13,7.87-7.01c3.52-3.89,3.18-4.19,6.7-8.08
		c3.52-3.89,5.36-2.22,8.88-6.11s3.84-3.6,7.36-7.49c2.89-3.19,3.26-8.28,4.1-12.22c0.87-4.06,0.59-8.24-0.67-12.19
		c-1.23-3.83-3.14-7.66-6.33-10.55c-3.88-3.52-5.34-1.91-9.22-5.42c-3.89-3.52-2.6-4.94-6.49-8.46c-3.89-3.52-2.66-4.88-6.54-8.4
		c-3.89-3.52-6.54-0.59-10.43-4.11c-3.19-2.89-5.52-6.54-9.46-7.38c-4.06-0.87-8.24-0.08-12.19,1.18
		c-3.83,1.23-8.13,2.57-11.02,5.76c-3.52,3.88-4.4,3.08-7.91,6.97c-3.52,3.89-0.79,6.36-4.31,10.24c-3.52,3.89-5.91,1.72-9.43,5.61
		c-3.52,3.89-1.65,5.59-5.17,9.48c-0.95,1.04-2.06-0.69-2.8,0.48c-3.31-1.88-6.89-1.82-10.31-3.52c-3.41-1.69-7.72-1.37-11.24-2.87
		c-3.5-1.5-5.75-6.22-9.35-7.52c-3.58-1.29-7.55-1.72-11.21-2.81c-3.65-1.09-7.53-1.49-11.26-2.37c-3.7-0.88-7.81-0.74-11.58-1.41
		c0.17-1.34,0.02-3.16-0.05-4.55c-0.23-5.23-0.84-5.21-1.07-10.44c-0.23-5.24-0.86-5.21-1.09-10.45c-0.23-5.24,0.63-5.28,0.4-10.52
		s2.31-5.35,2.07-10.59c-0.19-4.3-2.44-8.7-4.61-12.09c-2.24-3.49-6.41-5.32-10.09-7.24c-3.57-1.86-7.43-4.6-11.73-4.4
		c-5.23,0.23-5.26-0.38-10.49-0.15c-5.24,0.23-5.26-0.19-10.49,0.04c-5.24,0.23-5.09,3.57-10.33,3.81
		c-5.24,0.23-5.38-2.77-10.62-2.54c-4.3,0.19-7.42,4.68-10.81,6.85c-3.49,2.24-7.44,3.99-9.36,7.67c-1.86,3.57-1.21,7.76-1.01,12.07
		c0.23,5.23-1.66,5.32-1.42,10.55c0.23,5.24-0.78,5.28-0.54,10.52c0.23,5.24,1.29,5.19,1.53,10.43c0.23,5.24-0.41,5.27-0.18,10.51
		c0.06,1.39,2,3.53,2.29,4.85c-3.8,1.03-8.83-0.81-12.54,0.43c-3.73,1.25-6.1,6.21-9.73,7.67c-3.65,1.47-8.45,0.27-11.98,1.94
		c-3.55,1.68-6.28,5.05-9.71,6.92c-3.45,1.88-5.82,5.45-9.14,7.52c-3.33,2.08-7.37,3.72-10.57,5.98c-0.85-1.09-2.19-3.42-3.24-4.37
		c-3.88-3.52-3.46-3.98-7.35-7.49c-3.89-3.52-5.35-1.91-9.23-5.42c-3.89-3.52-1.98-5.63-5.87-9.15c-3.89-3.52-4.04-3.35-7.93-6.87
		c-2.33-2.11-5.42-3.63-8.29-4.66c-2.87-1.03-6.15-0.1-9.28,0.04c-0.04,0-0.01,1.29-0.05,1.29c-3.16,0.16-7.18-2.99-9.95-1.67
		c-2.77,1.31-5.54,4.01-7.67,6.36c-3.52,3.88-2.87,4.47-6.39,8.35c-3.52,3.89-4.73,2.79-8.25,6.68c-3.52,3.89-0.76,6.39-4.28,10.28
		s-3.74,3.69-7.26,7.58c0,0-2.22-2.01-2.23-2.01c-2.89,3.19-4.52,7.97-5.36,11.91c-0.87,4.06,0.69,8.48,1.96,12.43
		c1.23,3.83,2.4,8.42,5.59,11.31c3.88,3.52,4.42,2.92,8.31,6.43c3.89,3.52,5.7,1.52,9.59,5.03c3.89,3.52,0.89,6.83,4.78,10.36
		s4.78,2.54,8.67,6.06c1.05,0.95,4.31,1.33,5.47,2.06c-1.88,3.31-5.14,6.44-6.83,9.86c-1.69,3.41-2.68,7.14-4.18,10.65
		c-1.5,3.5-5.12,6.21-6.42,9.8c-1.29,3.58-0.2,7.99-1.29,11.65c-1.09,3.65-1,7.54-1.88,11.27c-0.88,3.7-4.75,6.28-5.42,10.06
		c-1.34-0.17-1.32,2.13-2.71,2.19c-5.23,0.23-5.38-3.06-10.61-2.82c-5.24,0.23-5.24,0.12-10.48,0.35c-5.24,0.23-5.26-0.18-10.5,0.06
		c-5.24,0.23-5.04,4.66-10.28,4.9c-4.3,0.19-7.67,0.39-11.06,2.57c-3.49,2.24-7.3,4.12-9.22,7.8c-1.86,3.57-4.73,7.88-4.54,12.18
		c0.23,5.23,3.79,5.07,4.03,10.31c0.23,5.24-2.15,5.34-1.91,10.58c0.23,5.24,3.16,5.11,3.4,10.35c0.23,5.24-2.19,5.35-1.95,10.59
		c0.19,4.3,3.69,7.17,5.87,10.55c2.24,3.49,3.92,6.93,7.6,8.84c3.57,1.86,7.29,1.33,11.6,1.13c5.23-0.23,5.32,1.64,10.55,1.4
		c5.24-0.23,5.32,1.71,10.56,1.48c5.24-0.23,5.1-3.26,10.35-3.5c5.24-0.23,5.25,0.04,10.49-0.2c1.39-0.06,3.86-0.02,5.18-0.31
		c1.03,3.8,1.39,8.17,2.64,11.88c1.25,3.73,2.83,7.3,4.29,10.93c1.47,3.65,2.99,7.23,4.66,10.77c1.68,3.55,3.11,7.21,4.99,10.64
		c1.88,3.45,5.2,5.99,7.27,9.31c2.08,3.33,3.93,7.17,6.19,10.37c-1.09,0.84-3.89,1.52-4.84,2.57c-3.52,3.88-1.86,5.38-5.37,9.27
		c-3.52,3.89-3.83,3.6-7.35,7.49c-3.52,3.89-4.98,2.56-8.5,6.45c-3.52,3.89-2.63,4.7-6.15,8.58c-2.12,2.34-2.75,5.29-3.78,8.18
		c-1.03,2.89-2.73,5.58-2.57,8.74c0.16,3.16,1.91,5.76,3.22,8.54c1.31,2.77,2.01,6.01,4.35,8.13c3.88,3.52,3.36,4.09,7.24,7.61
		c3.89,3.52,3.17,4.31,7.05,7.83c3.89,3.52,6.6,0.53,10.49,4.05s1.86,5.76,5.75,9.28c0,0,1.96-2.16,1.96-2.16
		c2.36,2.14,3.98,4.77,6.81,5.79c2.93,1.05,6.04,3.75,9.1,3.61c3.1-0.14,5.51-4.16,8.36-5.5c2.75-1.29,5.57-2.19,7.74-4.58
		c3.52-3.88,5.31-2.26,8.82-6.14c3.52-3.89,3.31-4.08,6.83-7.96c3.52-3.89,1.41-5.8,4.94-9.69c3.52-3.89,4.28-3.21,7.8-7.09
		c0.95-1.05,1.63-1.06,2.35-2.22c3.31,1.88,7.86,0.62,11.28,2.32c3.41,1.69,5.72,5.68,9.24,7.18c3.5,1.5,7.59,1.48,11.19,2.78
		c3.58,1.29,6.39,5.01,10.06,6.11c3.65,1.09,7.35,2.4,11.07,3.29c3.7,0.88,7.87-0.18,11.64,0.49c-0.17,1.34,1.01,2.64,1.07,4.04
		c0.23,5.23-0.68,5.27-0.45,10.51c0.23,5.24-0.72,5.28-0.49,10.52c0.23,5.24,3.11,5.11,3.34,10.35c0.23,5.24-0.27,5.26-0.04,10.5
		c0.19,4.3,0.58,7.85,2.76,11.24c2.24,3.49,3.94,8.05,7.62,9.97c3.57,1.86,8.22,0.45,12.53,0.25c5.23-0.23,5.31,1.46,10.54,1.22
		c5.24-0.23,5.15-2.1,10.39-2.34c5.24-0.23,5.22-0.79,10.46-1.02c5.24-0.23,5.38,2.88,10.62,2.65c4.3-0.19,8.33-2.57,11.72-4.75
		c3.49-2.24,7.38-4.92,9.3-8.6c1.86-3.57,2.17-8.26,1.98-12.57c-0.23-5.23-1.24-5.19-1.48-10.42c-0.23-5.24,0.49-5.27,0.25-10.51
		c-0.23-5.24,1.86-5.33,1.63-10.58s-1.43-5.19-1.66-10.43c-0.06-1.39-2.05-3.74-2.34-5.06c3.8-1.03,8.56-0.21,12.26-1.46
		c3.73-1.25,7.91-1.51,11.54-2.97c3.65-1.47,6.8-4.26,10.34-5.94c3.55-1.68,6.23-5.08,9.66-6.95c3.45-1.88,6.08-4.97,9.4-7.05
		c3.33-2.08,8.46-0.08,11.65-2.35c0.84,1.09,0.69,0.37,1.74,1.33c3.88,3.52,4.27,3.09,8.15,6.6c3.89,3.52,4.64,2.69,8.52,6.21
		c3.89,3.52,3.05,4.45,6.94,7.97c3.89,3.52,4.69,2.63,8.58,6.15c2.36,2.14,4.31,4.59,7.13,5.6c2.93,1.05,6.01,0.31,9.07,0.17
		c3.1-0.14,5.56-1.21,8.41-2.55c2.75-1.29,4.62-2.94,6.78-5.33c3.52-3.88,3.75-3.67,7.27-7.55c3.52-3.89,6.06-1.58,9.58-5.47
		c3.52-3.89,1.04-6.14,4.56-10.03c3.52-3.89,6.2-1.47,9.72-5.35c2.89-3.19,4.71-8.1,5.55-12.04c0.87-4.06,0.93-9.23-0.33-13.18
		c-1.23-3.83-3.96-8.3-7.16-11.19c-3.88-3.52-6.15-1.01-10.03-4.53c-3.89-3.52-2.51-5.04-6.39-8.56c-3.89-3.52-2.87-4.65-6.76-8.17
		c-3.89-3.52-6.23-0.93-10.12-4.45c-1.05-0.95-3.03-3.01-4.2-3.75c1.88-3.31,6.44-5.86,8.14-9.28c1.69-3.41,3.95-6.67,5.45-10.18
		c1.5-3.5,0.83-7.91,2.13-11.51c1.29-3.58,4.92-6.46,6.01-10.12c1.09-3.65,1.07-7.7,1.95-11.42c0.88-3.7,1.61-7.12,2.28-10.89
		c1.34,0.17,1.63-1.34,3.03-1.41c5.23-0.23,5.19-1.13,10.42-1.37c5.24-0.23,5.27,0.4,10.5,0.17c5.24-0.23,5.26,0.09,10.5-0.14
		c5.24-0.23,5.38,2.87,10.62,2.64c4.3-0.19,8.51-3.18,11.9-5.35c3.49-2.24,6.94-5.39,8.85-9.07c1.86-3.57,3.61-8.2,3.41-12.51
		c-0.23-5.23-1.15-5.19-1.39-10.42c-0.23-5.24-1.85-5.16-2.08-10.4c-0.23-5.24,2.82-5.38,2.59-10.62
		c-0.23-5.24-4.44-5.05-4.67-10.29c-0.19-4.3-1.36-7.2-3.54-10.59c-2.24-3.49-3.12-8.31-6.8-10.22
		C548.12,240.24,543.62,239.91,539.32,240.1z M303.12,406.65c-3.67,0.16-7.3,0.21-10.9,0.02c-3.66-0.19-7.52,1.01-11.08,0.46
		c-3.62-0.55-7.37-1.17-10.87-2.06c-3.54-0.91-6.99-2.55-10.39-3.79c-3.43-1.25-7.34-1.75-10.61-3.32
		c-3.29-1.58-5.25-5.75-8.36-7.64c-3.11-1.89-6.15-3.81-9.06-5.99c-2.91-2.18-5.13-5.08-7.82-7.53c-2.68-2.45-7.23-3.09-9.67-5.79
		c-2.43-2.7-2.07-7.67-4.23-10.6c-2.15-2.92-7.15-3.96-9.01-7.09c-1.86-3.11-3.6-6.49-5.15-9.8c-1.54-3.28-1.92-7.17-3.14-10.62
		c-1.2-3.41-2.7-6.83-3.58-10.39c-0.86-3.51,0.88-7.52,0.36-11.15c-0.51-3.57-0.41-7.06-0.57-10.73c-0.16-3.67-2.14-7.23-1.95-10.82
		c0.19-3.66,0.5-7.3,1.04-10.87c0.55-3.62,1.68-7.09,2.58-10.6c0.91-3.54-0.07-7.73,1.17-11.14c1.25-3.43,4.46-6.13,6.03-9.39
		c1.58-3.29,4.88-5.53,6.77-8.63c1.89-3.11,0.66-8.35,2.84-11.26c2.18-2.91,6.36-4.29,8.81-6.98c2.45-2.68,4.62-5.67,7.32-8.11
		c2.7-2.43,6.24-3.81,9.17-5.97c2.92-2.15,6.49-3.1,9.63-4.97c3.11-1.86,4.59-6.8,7.89-8.35c3.28-1.54,7.87,0.06,11.32-1.16
		c3.41-1.2,6.14-4.66,9.7-5.53c3.51-0.86,7.63,1.61,11.26,1.09c3.57-0.51,6.89-2.67,10.56-2.84c3.67-0.16,7.38-2.25,10.98-2.06
		c3.66,0.19,6.91,4.12,10.48,4.66c3.62,0.55,7.21,0.43,10.71,1.33c3.54,0.91,7.13,1.37,10.53,2.61c3.43,1.25,7.17,1.75,10.44,3.32
		c3.29,1.58,6.51,3.38,9.62,5.26c3.11,1.89,6.53,3.47,9.44,5.65c2.91,2.18,6.22,4.12,8.9,6.57c2.68,2.45,4.72,5.74,7.16,8.44
		c2.43,2.7,2.74,7.1,4.9,10.03c2.15,2.92,4.74,5.42,6.61,8.55c1.86,3.11,4.9,5.6,6.45,8.91c1.54,3.28,1.22,7.31,2.43,10.76
		c1.2,3.41,1.61,6.93,2.49,10.48c0.86,3.51,1.1,6.96,1.62,10.59c0.51,3.57,4.17,6.82,4.34,10.49c0.16,3.67-2.86,7.26-3.05,10.86
		c-0.19,3.66,2.8,7.6,2.25,11.17c-0.55,3.62-3.05,6.88-3.94,10.38c-0.91,3.54-0.4,7.56-1.64,10.96c-1.25,3.43-4.42,6.09-5.99,9.35
		c-1.58,3.29-4.15,5.91-6.04,9.01c-1.89,3.11-3,6.64-5.18,9.54c-2.18,2.91-4.95,5.24-7.4,7.92c-2.45,2.68-3.5,6.79-6.2,9.22
		c-2.7,2.43-7.54,2.16-10.47,4.32c-2.92,2.15-3.81,7.34-6.94,9.2c-3.11,1.86-7.75,0.9-11.05,2.45c-3.28,1.54-5.92,4.53-9.37,5.75
		c-3.41,1.2-6.48,4.09-10.03,4.96c-3.5,0.86-7.4,0.8-11.04,1.32C310.62,407.65,306.79,406.49,303.12,406.65z"/>
	<path class="st11" d="M395.38,558.97c4.32,3.96,5.85,2.62,11.64,3.55c5.78,0.93,5.93-0.01,11.71,0.92
		c5.78,0.93,5.93,0.02,11.71,0.95c5.78,0.93,5.73,1.24,11.52,2.17c5.78,0.93,5.64,1.83,11.42,2.76c5.78,0.93,5.69,1.51,11.47,2.44
		c5.78,0.93,6.39-2.83,12.17-1.9c5.79,0.93,5.31,3.88,11.1,4.81c5.78,0.93,5.89,0.25,11.67,1.17c5.78,0.93,5.63,1.87,11.42,2.8
		c5.78,0.93,5.91,0.16,11.69,1.09c5.78,0.93,5.78,0.96,11.56,1.89c5.79,0.93,5.6,2.09,11.39,3.02c5.78,0.93,6.06-0.82,11.85,0.11
		c5.79,0.93,5.83,0.64,11.62,1.57c5.79,0.93,5.6,2.12,11.39,3.06c5.79,0.93,9.07,6.35,13.22,2.21c4.14-4.13-1.75-7.34-2.69-13.11
		c-0.94-5.77-1.64-5.66-2.58-11.43c-0.94-5.77-2.89-5.45-3.83-11.22c-0.94-5.77,1.79-6.22,0.85-11.99c-0.94-5.77,0-5.93-0.94-11.7
		c-0.94-5.77-4.87-5.13-5.82-10.9c-0.94-5.77,3.37-6.48,2.43-12.25c-0.94-5.77-4.71-5.16-5.66-10.93
		c-0.94-5.77,2.23-6.29,1.29-12.06c-0.94-5.77-3.25-5.4-4.19-11.17c-0.94-5.77,2.01-6.25,1.06-12.02
		c-0.94-5.77-2.71-5.48-3.65-11.25c-0.94-5.77,0.69-6.04-0.26-11.81c-0.94-5.77-4.05-5.26-5-11.03c-0.94-5.77-1.86-5.63-2.8-11.4
		c-0.94-5.78,2.7-6.37,1.75-12.15c-0.94-5.78,0.58-7.06-3.38-11.37c-4.07-4.43-6.16-0.46-11.97-2.03s-5.7-1.98-11.51-3.55
		c-5.81-1.56-6.22-0.03-12.03-1.6c-5.81-1.56-4.8-5.33-10.61-6.9c-5.81-1.56-6.44,0.77-12.24-0.79c-5.81-1.56-6.24,0.02-12.05-1.55
		c-5.82-1.57-4.76-5.5-10.57-7.07c-5.82-1.57-7.31-5.18-12.02-1.42c-4.8,3.84-0.8,6.08-0.71,12.22c0.1,6.14,1.43,6.12,1.53,12.26
		c0.1,6.14-1.14,6.16-1.04,12.3c0.1,6.14,2.46,6.1,2.56,12.25c0.1,6.15-0.21,6.15-0.11,12.3c0.1,6.14-0.69,6.16-0.59,12.3
		c0.1,6.15-2.65,6.19-2.55,12.34c0.1,6.15,6.31,7.42,1.97,11.77c-4.34,4.35-5.64-0.79-11.78-0.89c-6.14-0.1-6.16,0.99-12.3,0.89
		c-6.14-0.1-6.11-1.75-12.26-1.85c-6.14-0.1-6.21,3.98-12.35,3.88c-6.15-0.1-6.14-0.25-12.29-0.34c-6.14-0.1-6.13-1-12.27-1.1
		c-6.15-0.1-6.11-2.21-12.26-2.31c-6.15-0.1-9.91-5.33-13.76-0.54c-3.77,4.69,1.79,7.3,3.36,13.11c1.56,5.81,4.32,5.07,5.89,10.88
		c1.56,5.81,2.04,5.68,3.61,11.49c1.56,5.81,0.87,6,2.43,11.81c1.56,5.81-1.66,6.67-0.09,12.48c1.56,5.81,4.22,5.1,5.79,10.91
		c1.57,5.82,1.98,5.83,2.42,11.83C393.17,553.32,390.94,554.9,395.38,558.97z"/>
	<path class="st12" d="M18.93,181.13c-2.89-2.89-5.5-5.96-7.65-9.28c-2.19-3.4-4.31-6.9-5.72-10.63c-1.42-3.76-4.45-7.42-5.08-11.38
		c-0.63-3.95-0.52-8.43-0.36-12.46c0.15-3.99,2.19-8.02,3.11-11.96c0.9-3.87,1.57-8.07,3.21-11.78c1.6-3.62,5.35-6.19,7.66-9.54
		c2.24-3.25,2.74-8.21,5.63-11.1c4.18-4.18,6.57-1.79,10.75-5.96c4.18-4.18,3.2-5.16,7.38-9.34c4.18-4.18,3.52-4.84,7.7-9.02
		c4.18-4.18,6.55-1.81,10.73-5.99c4.18-4.18,3.97-4.4,8.15-8.58c4.18-4.18,3.83-4.53,8.01-8.71c4.18-4.18,3.69-4.67,7.88-8.86
		c4.19-4.19,3.99-4.39,8.17-8.57c4.19-4.19,3.28-5.09,7.47-9.27c2.89-2.89,7.08-4.08,10.33-6.31c3.35-2.31,5.92-5.89,9.55-7.49
		c3.71-1.64,8.32-0.15,12.19-1.05c3.94-0.92,7.52-1.59,11.5-1.74c4.03-0.15,8.09-2.62,12.05-1.99c3.96,0.63,7.49,3.05,11.25,4.48
		c3.73,1.41,7.92,2.03,11.32,4.23c3.32,2.14,7.58,3.73,10.47,6.62c4.54,4.54,2.06,7.02,6.6,11.57s6.72,2.37,11.26,6.91
		c2.89,2.89,3.85,7.44,6,10.77c2.19,3.4,4.92,6.55,6.33,10.28c1.42,3.76,2.91,7.7,3.54,11.66c0.63,3.95,0.41,8.15,0.26,12.18
		c-0.15,3.99-0.4,8.15-1.32,12.09c-0.9,3.87-3.38,7.34-5.02,11.04c-1.6,3.63-4.19,6.62-6.5,9.97c-2.24,3.25-5.2,5.64-8.09,8.53
		c-4.18,4.18-3.93,4.43-8.11,8.61c-4.18,4.18-2.71,5.65-6.89,9.83c-4.18,4.18-2.86,5.51-7.04,9.69c-4.18,4.18-4.37,3.99-8.55,8.17
		c-4.18,4.18-4.15,4.22-8.33,8.4c-4.18,4.18-4.5,3.85-8.68,8.03c-4.18,4.18-5.95,2.41-10.14,6.6c-4.19,4.19-3.59,4.78-7.77,8.97
		c-4.19,4.19-5.57,2.8-9.75,6.99c-2.89,2.89-4.13,7.52-7.38,9.76c-3.35,2.31-6.89,4.58-10.52,6.18c-3.71,1.64-7.43,4.2-11.31,5.1
		c-3.94,0.92-8.43-0.22-12.42-0.07c-4.03,0.15-7.85-2.04-11.81-2.67c-3.96-0.63-8.68,1.3-12.44-0.13c-3.73-1.41-6.02-5.9-9.42-8.1
		c-3.32-2.14-7.02-3.71-9.91-6.6c-4.54-4.54-4.17-4.91-8.7-9.46C23.98,185.16,23.47,185.67,18.93,181.13z"/>
	<path class="st13" d="M34.54,195.72c-0.13-5.8,1.74-5.4,5.84-9.51c4.1-4.1,4.01-4.2,8.12-8.3c4.1-4.1,6.86-1.35,10.96-5.46
		c4.11-4.11,1.71-6.5,5.82-10.61c4.1-4.1,3.78-4.43,7.88-8.54c4.11-4.11,5.7-2.51,9.81-6.62c4.11-4.11,4.66-3.56,8.76-7.66
		c4.11-4.11,4.26-3.95,8.37-8.05c4.1-4.1,2.05-6.15,6.15-10.25c4.11-4.11,4.36-3.85,8.46-7.96c4.1-4.1,5.52-2.69,9.62-6.79
		c4.11-4.11,4.82-3.39,8.93-7.49c4.11-4.11,1.92-6.29,6.03-10.4c4.11-4.11,4.15-4.06,8.26-8.17c4.11-4.11,4.23-3.99,8.33-8.1
		c4.11-4.11,4.71-3.5,8.82-7.61c4.11-4.11,5.81-2.4,9.92-6.51c4.11-4.11,3.75-4.47,7.86-8.58c4.11-4.11,4.65-3.58,8.76-7.69
		c4.11-4.11,0.73-11.75,6.55-11.63c6.06,0.13,2.83,7.4,7.12,11.69c4.29,4.29,4.65,3.93,8.93,8.21c4.29,4.29,4.01,4.57,8.3,8.86
		c4.29,4.29,5.41,3.18,9.7,7.47s7.59,2.32,7.73,8.39c0.13,5.8-4.07,3.03-8.17,7.14c-4.1,4.1-4.63,3.58-8.74,7.68
		c-4.1,4.1-2.48,5.73-6.59,9.83c-4.11,4.11-3.47,4.75-7.57,8.85c-4.1,4.1-4.38,3.83-8.49,7.93c-4.11,4.11-5.86,2.35-9.97,6.45
		c-4.11,4.11-2.13,6.08-6.24,10.19c-4.11,4.11-4.26,3.95-8.37,8.06c-4.1,4.1-4.74,3.46-8.85,7.56c-4.11,4.11-5.42,2.79-9.53,6.9
		c-4.1,4.1-1.92,6.29-6.02,10.39c-4.11,4.11-4.23,3.98-8.33,8.09c-4.11,4.11-4.2,4.01-8.31,8.12s-6.03,2.19-10.14,6.29
		c-4.11,4.11-3.69,4.52-7.8,8.63c-4.11,4.11-3.28,4.94-7.39,9.05c-4.11,4.11-3.93,4.28-8.03,8.39c-4.11,4.11-2.84,5.38-6.95,9.49
		c-4.11,4.11-5.16,3.06-9.28,7.17c-4.11,4.11-2.65,9.77-8.46,9.65c-6.06-0.13-4.72-5.45-9.01-9.74c-4.29-4.29-5.37-3.21-9.65-7.49
		c-4.29-4.29-3.65-4.93-7.94-9.22c-4.29-4.29-2.84-5.81-7.83-9.28C36.94,201.07,34.67,201.79,34.54,195.72z"/>
	<path class="st12" d="M553.47,384.36c-4.15-4.14-6.97-1.32-11.12-5.47c-4.15-4.14-1.4-6.89-5.54-11.04
		c-4.14-4.14-5.19-3.09-9.33-7.23c-4.14-4.14-3.14-5.15-7.29-9.29c-4.14-4.14-4.46-3.83-8.6-7.97c-4.14-4.14-6.15-2.14-10.29-6.27
		c-4.14-4.14-2.3-5.99-6.44-10.12c-4.14-4.14-3.63-4.65-7.77-8.79c-4.14-4.14-6.53-1.74-10.67-5.87c-4.14-4.14-4.59-3.69-8.73-7.83
		c-4.14-4.13-2.14-6.13-6.28-10.27c-4.14-4.14-3.09-5.2-7.23-9.33c-4.14-4.14-6.54-1.74-10.69-5.88c-4.14-4.14-2.09-6.2-6.23-10.33
		c-4.14-4.14-5.39-2.89-9.53-7.03c-4.14-4.14-2.49-5.79-6.64-9.93c-4.14-4.14-6.11-2.17-10.25-6.3c-4.14-4.14-1.91-6.37-6.05-10.51
		c-4.14-4.14-5.25-3.02-9.39-7.16c-4.14-4.14-4.99-3.29-9.13-7.43c-4.14-4.14-4.22-4.05-8.36-8.19c-4.14-4.14-3.32-4.96-7.46-9.1
		c-4.14-4.14-5.79-2.49-9.93-6.62c-4.14-4.14-1.44-6.83-5.58-10.97c-4.14-4.14-6.77-1.51-10.91-5.64c-4.14-4.14-2.84-5.43-6.98-9.57
		c-4.14-4.13-4.66-3.62-8.79-7.75c-4.14-4.13-4.33-3.95-8.47-8.08c-4.14-4.14-5.15-3.13-9.29-7.27c-4.14-4.13-4.22-4.05-8.36-8.18
		c-4.14-4.13-3.14-5.13-7.27-9.27c-4.14-4.13-4.05-4.22-8.19-8.35c-4.14-4.14-3.92-4.36-8.06-8.49c-4.14-4.14-4.69-3.59-8.83-7.72
		c-4.14-4.13-2.27-6-6.41-10.14c-4.14-4.13-5.59-2.67-9.73-6.81c-4.14-4.13-4.58-3.69-8.72-7.82c-4.14-4.13-1.65-6.96-7.49-7.19
		c-5.4-0.21-5.05,1.28-8.01,5.39c-3.17,4.38-4.07,3.44-7.89,7.26c-3.82,3.82-1.61,6.03-5.43,9.84c-3.81,3.81-6.72,0.91-10.54,4.72
		c-3.81,3.81-2.84,4.79-6.65,8.6c-3.81,3.81-6.98,2.65-6.74,8.04c0.1,2.33,0.56,3.62,1.31,4.59l-78.64,69.72l0.02,0.02
		c-1.64,0.74-2.4,2.29-4.84,4.74c-3.81,3.81-1.73,5.89-5.55,9.71c-3.81,3.82-3.05,4.58-6.87,8.39c-3.82,3.82-6.39,1.24-10.21,5.06
		c-3.82,3.82-1.57,6.58-6.27,9.25c-5.78,3.28-10.23,1.77-10.02,7.17c0.23,5.84,5.39,4.86,9.52,9c4.13,4.14,4.71,3.55,8.85,7.69
		c4.13,4.14,2.9,5.37,7.03,9.5c4.13,4.14,5.84,2.43,9.98,6.56c4.14,4.14,5.5,2.78,9.63,6.92c4.14,4.14,2.23,6.04,6.37,10.18
		c4.13,4.14,3.26,5.01,7.39,9.15c4.13,4.14,5.11,3.16,9.24,7.3c4.13,4.14,5.33,2.94,9.47,7.08c4.14,4.14,4.82,3.46,8.96,7.6
		c4.13,4.14,2.66,5.62,6.79,9.75c4.13,4.14,4.22,4.05,8.36,8.19c4.14,4.14,3.59,4.68,7.73,8.82c4.14,4.14,2.89,5.38,7.03,9.52
		c4.13,4.14,5.42,2.85,9.55,6.99c4.14,4.14,5.54,2.73,9.68,6.87c4.14,4.14,4.47,3.81,8.6,7.96c4.14,4.14,1.97,6.3,6.11,10.44
		c4.14,4.14,3.74,4.53,7.88,8.68c4.14,4.14,5.18,3.1,9.31,7.24c4.14,4.14,2.61,5.67,6.75,9.81c4.14,4.14,7.2,1.08,11.34,5.22
		c4.14,4.14,4.26,4.02,8.4,8.17c4.14,4.14,3.59,4.69,7.73,8.83c4.14,4.14,3.47,4.81,7.61,8.95c4.14,4.14,2.86,5.42,7,9.56
		c4.14,4.14,4.27,4.01,8.41,8.15c4.13,4.14,3.24,5.03,7.38,9.17c4.14,4.14,6.84,1.44,10.98,5.58c4.14,4.14,2.6,5.67,6.74,9.81
		c4.14,4.14,5.54,2.74,9.68,6.88c4.14,4.14,3.14,5.14,7.28,9.28c4.14,4.14,3.54,4.74,7.68,8.89c4.14,4.14,3.82,4.47,7.96,8.61
		c4.14,4.14,4.51,3.77,8.65,7.92c4.14,4.14,3.74,4.54,7.88,8.68c4.14,4.15,3.7,4.58,7.85,8.73c4.14,4.15,4.9,3.4,9.04,7.55
		c4.15,4.15,2.98,7.58,8.79,6.81c5.63-0.75,1.45-4.83,4.06-9.88c2.61-5.05,2-5.36,4.61-10.41c2.61-5.04,5.33-3.64,7.94-8.68
		c2.61-5.05,1.13-5.82,3.74-10.86c2.61-5.05,2.69-5.01,5.3-10.06s7.37-4.31,6.43-9.92c-0.12-0.69-0.3-1.24-0.53-1.7l0.28-0.03
		l41.27-41.63l31.04-29.05c5.61,0.94,4.64-3.71,9.69-6.32c5.05-2.61,6.57,0.31,11.62-2.3c5.05-2.61,4.48-3.71,9.53-6.32
		c5.04-2.61,4.68-3.32,9.72-5.93c5.05-2.61,5.82-1.12,10.87-3.73c5.05-2.61,10.76-1.01,11.51-6.64
		C563.6,388.4,557.62,388.5,553.47,384.36z"/>
	<path class="st13" d="M586.25,592.32c5.35,1.23,9.44-3.38,8.21-8.72c-1.17-5.53-0.35-5.69-1.46-11.23
		c-1.11-5.54-3.98-4.96-5.1-10.5c-1.11-5.54-1.27-5.51-2.38-11.04c-1.11-5.54,2.85-6.34,1.73-11.88c-1.12-5.55-2.72-5.22-3.83-10.77
		s3.08-11.58-2.45-12.77c-6.04-1.3-5.67,5.25-10.04,9.62c-4.37,4.37-1.82,6.92-6.19,11.29c-4.37,4.37-7.42,1.32-11.79,5.69
		c-4.37,4.37-2.91,5.82-7.28,10.19c-4.37,4.37-3.17,5.58-7.54,9.95c-4.37,4.37-6.51,2.24-10.88,6.61
		c-4.37,4.37-10.48,3.89-9.14,9.92c1.24,5.55,6.48,2.79,12.07,3.86c5.59,1.07,5.94-0.76,11.53,0.31c5.59,1.07,6.01-1.14,11.59-0.07
		c5.59,1.07,4.84,4.98,10.43,6.05c5.59,1.07,6.37-2.46,11.88-1.04C581.17,589.2,580.67,591.18,586.25,592.32z"/>
	<g>
		<path class="st15" d="M192.41,116.48c-4.04,4.04-5.76,3.56-9.8,7.59c-4.04,4.04-3.85,4.23-7.89,8.27s-4.31,3.77-8.35,7.81
			c-4.04,4.04-0.94,7.14-4.98,11.18c-4.04,4.04-8.26-0.18-12.31,3.86c-4.04,4.04-3.47,4.61-7.51,8.65
			c-4.04,4.04-5.62,4.04-9.66,8.08c-4.05,4.05-2.02,5.5-6.07,9.54c-4.05,4.05-9.48,2.62-9.4,8.34c0.08,5.88,5.12,5.7,9.28,9.86
			c4.16,4.16,4.75,3.57,8.91,7.73c4.16,4.16,4.32,4,8.49,8.17c4.16,4.16,4.9,3.43,9.06,7.59c4.16,4.16,4.04,4.29,8.2,8.45
			c4.16,4.16,2.89,5.43,7.05,9.59c4.16,4.16,8,0.32,12.16,4.49c4.17,4.17-0.87,9.2,3.29,13.37c4.16,4.16,4.91,3.41,9.07,7.58
			c4.16,4.16,7.29,1.03,11.45,5.2c4.16,4.16,1.65,6.67,5.82,10.84c4.16,4.16,6.55,1.78,10.71,5.95c4.16,4.16,3.27,5.06,7.43,9.22
			c4.16,4.16,4.46,3.87,8.62,8.03c4.17,4.17,2.05,6.28,6.22,10.45c4.16,4.16,5.82,2.5,9.99,6.67c4.17,4.17,3.14,5.19,7.31,9.35
			c4.16,4.16,4.38,3.95,8.55,8.11c4.17,4.17,3.87,4.46,8.04,8.62c4.16,4.16,3.54,4.79,7.71,8.95c4.17,4.17,4.75,3.59,8.91,7.75
			c4.17,4.17,5.64,2.69,9.8,6.86c4.17,4.17,1.55,6.78,5.71,10.95c4.17,4.17,8.59-0.26,12.76,3.91c4.17,4.17-1.09,9.42,3.08,13.59
			c4.16,4.16,5.67,2.66,9.83,6.82c4.17,4.17,4.5,3.83,8.66,8c4.16,4.16,2.84,5.48,7.01,9.65c4.17,4.17,4.72,3.61,8.88,7.78
			c4.17,4.17,6.94,1.39,11.11,5.56c4.17,4.17,3.49,4.84,7.66,9.01c4.17,4.17,4.17,4.17,8.34,8.33c4.17,4.17,4.12,4.22,8.28,8.39
			c4.17,4.17,4.15,4.18,8.32,8.35c4.17,4.17,1.39,6.95,5.56,11.12c4.17,4.17,6.23,2.12,10.4,6.29c4.17,4.17,3.2,6.9,8.97,8.13
			c5.45,1.16,5.72-1.57,10.84-3.77c5.12-2.19,5.46-1.39,10.57-3.59c5.12-2.2,2.47-8.38,7.59-10.57c5.12-2.2,5.4-1.54,10.53-3.74
			c5.12-2.2,7.66,2.96,11.61-0.98c3.9-3.9,5.15-3.7,7.3-8.78c2.15-5.07-1.63-6.68,0.52-11.75c2.15-5.08,1.82-5.22,3.97-10.3
			c2.16-5.08,4.17-4.23,6.33-9.31c2.16-5.08-0.65-4.35,1.51-9.43c-2.46-5.34-2.86-4.29-7.02-8.45c-4.16-4.16-2.45-5.87-6.61-10.03
			c-4.16-4.16-5.79-2.53-9.95-6.69c-4.16-4.16-1.94-6.38-6.1-10.54c-4.16-4.16-6.49-1.83-10.65-5.98c-4.16-4.16-3.78-4.54-7.94-8.7
			c-4.16-4.16-4.52-3.8-8.68-7.96c-4.16-4.16-4.63-3.7-8.79-7.86c-4.16-4.16-1.3-7.02-5.46-11.18c-4.16-4.16-6.07-2.25-10.23-6.41
			c-4.16-4.16-5.39-2.93-9.55-7.09c-4.16-4.16-2.34-5.98-6.5-10.14c-4.16-4.16-3.76-4.55-7.92-8.71c-4.16-4.16-5.91-2.41-10.07-6.57
			c-4.16-4.16-3.18-5.14-7.34-9.3c-4.16-4.16-2.28-6.04-6.43-10.2c-4.16-4.16-6.5-1.82-10.67-5.98c-4.16-4.16-2.17-6.15-6.33-10.31
			c-4.16-4.16-6.03-2.29-10.19-6.45c-4.16-4.16-2.17-6.15-6.33-10.31c-4.16-4.16-6.39-1.93-10.55-6.09
			c-4.16-4.16-2.11-6.21-6.27-10.37c-4.16-4.16-5.28-3.05-9.44-7.21c-4.16-4.16-3.15-5.18-7.31-9.34c-4.16-4.16-4.75-3.57-8.91-7.73
			c-4.16-4.16-3.17-5.15-7.33-9.31c-4.16-4.16-6.74-1.58-10.91-5.74c-4.16-4.16-4.87-3.45-9.03-7.61c-4.16-4.16-3.8-4.52-7.96-8.68
			c-4.16-4.16-3.56-4.77-7.72-8.93c-4.16-4.16-1.81-6.52-5.97-10.68c-4.16-4.16-5.13-3.19-9.29-7.35
			c-4.16-4.16-5.95-2.37-10.11-6.54c-4.16-4.16-1.49-6.83-5.66-11c-4.16-4.16-5.97-2.36-10.13-6.52c-4.17-4.16-6.14-2.77-9.48-7.62
			C195.43,121.51,197.98,118.41,192.41,116.48z"/>
	</g>
</g>
</svg>
