<svg id="Capa_1" data-name="Capa 1" xmlns="http://www.w3.org/2000/svg" viewBox="0 0 500.96 532.78"><defs><style>.cls-1{fill:#8d52cb;}.cls-2{fill:#a8e6a5;}.cls-3{fill:#c8afe7;}</style></defs><title>Vector</title><path class="cls-1" d="M171.15,224.1a67.1,67.1,0,0,1-8-.71c-2.38-.4-5.15-.55-7.92-1-2.19-.38-4.32-3-7.09-3.48-2.33-.4-5,.27-7.66-.19-2.39-.41-4.74-1.75-7.32-2.19-2.43-.42-5.37,1.71-7.91,1.27s-4.24-5.07-6.75-5.5-5.49,2.06-8,1.63-5.3.79-7.76.36-5-1.26-7.4-1.68c-5.07-.87-4.5-5.15-9.62-5.63-.49,0,1.14,3.71.81,4.08a49.21,49.21,0,0,0-5.89,5.88c-1.6,1.91-6.46,1.61-8.39,3.92-1.24,1.49-.27,5.23-1.83,7.1-1.34,1.61-3.61,2.64-5.07,4.4s-1.15,4.8-2.56,6.49-5.59,1.21-7,2.85c-1.52,1.83,0,6-1.31,7.52-1.41,1.69-3.8,2.76-5.32,4.59s-2.89,3.67-4.34,5.42-2.32,4.31-3.69,6c-1.77,2.13-4.93,2.62-6.06,4-1.25,1.51-1.44,3.77-2.46,5-1.95,2.38-5.77,2.53-5.86,2.7a30.09,30.09,0,0,1,4.37,7.66c.69,1.91,2.83,3.75,3.83,6.49.76,2.07-.3,5.09.64,7.66.79,2.14,1.13,4.65,2.05,7.15.81,2.18,4.16,3.57,5.07,6,.81,2.21,1.19,4.7,2.09,7.14s-1.16,5.81-.31,8.09,4.9,3.58,5.74,5.83c.91,2.45-2,6.21-1.19,8.42.94,2.51,3,4.43,3.76,6.58,1,2.66,4.26,4.12,5,6.11A17.61,17.61,0,0,1,59,361.57c.15.35.36,2.53,7,3.74,1.89.35,4.79-2,7.82-1.51,2.12.37,4.28,2.29,7.06,2.77,2.21.38,4.58,1.13,7.26,1.59,2.26.39,5-.83,7.61-.37,2.29.39,5-.69,7.58-.24s4.4,4.19,6.81,4.6,5,1,7.36,1.36c2.57.45,5.44-1.46,7.78-1.06,2.64.45,5.32-.29,7.58.1,2.8.48,4.94,2.93,7,3.29a19.63,19.63,0,0,1,7.17,2.72c.63.09-1.68-1.53,3.31-7.48,1.16-1.39,4.24-1.81,6.12-4.06,1.29-1.56,3.74-2.56,5.46-4.63,1.35-1.63,3.13-3.2,4.78-5.18,1.29-1.56,1.27-4.48,2.76-6.28,1.37-1.64,2-4,3.44-5.72s5.35-1.33,6.74-3,2.29-4,3.62-5.58c1.57-1.89.37-5.81,1.58-7.26,1.52-1.83,5.18-2.06,6.77-4s2.07-4.91,3.53-6.66c2-2.39,4.26-3.93,5.29-5.17,2.28-2.75,1.83-2.9,3.69-5.95.36-.59-.44.55-.64-.12a25.38,25.38,0,0,0-1.58-7.27c-.74-2,.4-5.1-.58-7.75-.8-2.15-1.87-4.42-2.79-6.93-.83-2.22-1.33-4.7-2.24-7.14-.84-2.26-4.79-3.45-5.68-5.86s.85-5.58,0-8-2.06-4.57-2.87-6.74c-.9-2.42-4.12-3.82-4.92-6-.92-2.47,1.05-5.81.26-7.91-1-2.53-3-4.37-3.76-6.4-1-2.7.13-5.75-.59-7.61a15.82,15.82,0,0,0-4.56-6.76C173.84,223.09,172.24,224.27,171.15,224.1Z" transform="translate(-0.8 0.18)"/><path class="cls-2" d="M290.55,321.1c-1.34-.21-4.73-.61-8.84-1.31-2.76-.48-6.09.44-9.1-.08-2.17-.37-4.86-1-7.89-1.53-2.49-.43-5.32,0-8.07-.51s-5.1-2.19-7.7-2.64c-2.79-.48-5.5-.9-7.93-1.33-2.12-.36-4.35-.59-6.54-1s-4.34-1.22-6.44-1.58c-2.33-.4-4.76.46-6.73.12-2.76-.48-5.37,1-6.83.75a26.94,26.94,0,0,1-8.08-3.11c-.11,0-2.61,0-6.2,4.31-1.19,1.42,0,5.42-1.86,7.63-1.31,1.58-5.67,1-7.37,3-1.37,1.64-.33,5.56-2,7.53-1.39,1.68-2.94,3.44-4.56,5.38-1.41,1.7-2.34,4-3.93,5.91s-4.18,3.18-6,5.39c-1.65,2-5.51,2.31-7.23,4.39s-2.32,5.16-3.94,7.12c-1.89,2.28-4.22,3.91-5.67,5.67-1.79,2.14-3.88,3.83-5.33,5.58a32.32,32.32,0,0,0-4.34,6.73,39.32,39.32,0,0,1,3.37,6.87c.65,1.78.46,4.25,1.34,6.63.71,1.93,2.87,3.52,3.7,5.77.73,2-.28,4.74.54,6.93.74,2,.77,4.4,1.57,6.56s2.65,3.73,3.45,5.86c.87,2.36,2.76,4.32,3.61,6.62s.18,5.31,1,7.58c.9,2.43,5,3.56,5.85,5.78.93,2.49-1.15,5.93-.35,8.09,1,2.64,3.86,4.25,4.61,6.25,1.38,3.7,2.31,6.19,2.6,7,.92,2.49.49,5.9.62,6a13.33,13.33,0,0,1,8-1.49c2.09.36,4.52.81,7.2,1.27,2.26.39,4.13,4.08,6.65,4.51,2.19.38,4.69.67,7.35,1.13,2.33.4,5.41-2.8,7.95-2.36s4.72,1.66,7.18,2.09,4.48,3.41,6.89,3.83,5.51-2.15,7.85-1.75c2.62.46,4.79,2.61,7,3,2.67.46,5.1,1.73,7.49,2.13,2.84.48,5.21,2.25,7.42,2.61a13.31,13.31,0,0,0,7.9-1c.11-.06-.38-3.05,1.11-4.84.7-.85,4.25-1.31,6.64-4.19,1.37-1.65,3.35-3.26,5.14-5.42,1.47-1.77,2.9-3.83,4.6-5.87,1.51-1.83,3.28-3.6,4.94-5.59s3-3.86,4.66-5.82,1.75-5,3.37-6.91,3.72-3.33,5.33-5.26,5.54-1.86,7.13-3.78,1.63-5.14,3.21-7,1.27-5.46,2.84-7.35,6.25-1.34,7.81-3.21a8.94,8.94,0,0,0,1.22-2.84,26.88,26.88,0,0,0-1.79-7.55c-.65-1.84-1.08-4.2-2-6.76-.72-2-4.29-3.18-5.18-5.59-.77-2.06,0-5-1-7.58-.82-2.2-4-3.69-4.92-6.12s-.89-4.94-1.77-7.3-1.92-4.62-2.78-6.93-.7-5.13-1.54-7.39c-.92-2.47-.94-5.14-1.74-7.3-1-2.66-1.48-5.4-2.38-7.78-1.06-2.82-5.16-4.2-6-6.39-1.75-4.56-.42-9.65-.54-9.7A16,16,0,0,0,290.55,321.1Z" transform="translate(-0.8 0.18)"/><path class="cls-3" d="M102.53,368.32c-2.51-.43-5.38,1.48-7.78,1.07s-4.8-2-7.17-2.44c-2.57-.43-5.31.73-7.64.34-2.65-.45-5.16-.59-7.43-1-2.8-.47-5.41-.09-7.5-.44a37.08,37.08,0,0,1-6.8-1.67,27.29,27.29,0,0,1-3.08,4.55c-1.14,1.36-3.59,2-5,3.64s-2.37,3.91-3.86,5.7-3.51,3-5,4.76-1.7,4.51-3.17,6.27-2.2,4.13-3.66,5.88-6.32.72-7.77,2.46.33,6.26-1.11,8-3.09,3.45-4.51,5.16-5.09,1.81-6.5,3.5c-1.53,1.85-1.43,4.91-2.81,6.56-2.12,2.54-4.64,3.94-6,5.61-3.79,4.61-4,5.61-4,5.84.17.57-1.92,4.16-.48,8.05.74,2,1.12,4.56,2.1,7.18.8,2.17,5.27,3.18,6.19,5.65.84,2.24,2.59,4.25,3.49,6.66s-.25,5.36.64,7.73,3.62,3.94,4.5,6.28-.12,5.39.75,7.7,1.8,4.69,2.65,7,1.13,5,2,7.23c.93,2.48.09,5.48.9,7.64,1,2.62,1.79,5,2.55,7a19.94,19.94,0,0,0,4.51,7,49.18,49.18,0,0,0,10.64,3.19c1.74.3,4.3,0,7.11.47,2.15.37,4.66,0,7.12.41,2.29.39,5.11-1.89,7.45-1.49s4.42,2.8,6.65,3.19c2.42.41,4.92,1.91,7.71,2.39,2.59.44,5.37.29,8,.74s5.66-.53,8.14-.1c3,.51,5.23,3.75,7.4,4.13,2.82.49,6.25-2.89,8.67-2.47,4.1.71,7.2,1.27,8,1.39,1.13.19,1.77,4.18,2.65,3.45,3.61-3,2.31-4.46,5.31-8.06,1-1.25,2.29-3.39,4.21-5.71,1.35-1.62,4.17-2.37,5.83-4.36,1.42-1.72.6-5.5,2.18-7.4s4.46-2.36,6-4.22,2.26-4.24,3.79-6.07,5-2,6.54-3.79,2.42-4.19,3.91-6,4.17-2.79,5.63-4.54c1.6-1.93-.3-6.6,1.11-8.3,1.7-2,3.86-3.35,5.17-4.93,2.35-2.82,3.07-5.52,3.62-6.18,1.42-1.72,4.54-1.12,4.35-1.49a21.2,21.2,0,0,1-3.59-6.48c-.74-2,.28-5-.71-7.7-.8-2.14-2.65-4.12-3.58-6.63-.82-2.21-4.17-3.63-5.08-6.07-.84-2.26-2.5-4.3-3.39-6.71s2.19-6.07,1.3-8.46-4.56-3.65-5.41-5.92-2.88-4.3-3.72-6.54c-.9-2.43,1.47-6,.64-8.17-.93-2.49-2.52-4.55-3.32-6.69-1-2.64-4.24-4.08-5-6.05-1.64-4.34.64-9.25.59-9.28s-4.37,3.5-9,2.69c-2.09-.36-4.08-3.58-6.87-4.06-2.26-.39-4.62-1.43-7.26-1.89-2.33-.4-5.2,1.52-7.77,1.08-2.38-.41-4.57-2.39-7.11-2.83C107.13,371.37,105,368.75,102.53,368.32Z" transform="translate(-0.8 0.18)"/><path class="cls-1" d="M346.09,16c-.69-.11-3.51-2.27-7.6-3-2.37-.41-4.85-2.25-7.62-2.73-2.19-.38-5,.91-7.77.44-2.33-.4-4.7-1.58-7.34-2-2.4-.41-5.05,0-7.62-.43s-5.28,1.17-7.82.73-4.27-4.89-6.78-5.32S288.6,2.47,286.11,2,280.46,4.9,278,4.48,273.24,2,270.8,1.57c-5.07-.87-5.16.17-10.28-.31-.49,0-1.2-1.76-1.53-1.39s-.37,4.54-3.36,8.13c-1.6,1.92-3.23,4.29-5.16,6.61-1.24,1.49-4.38,1.81-5.93,3.68-1.35,1.62-1.71,4.23-3.18,6s-4.37,2.11-5.78,3.81-2.37,3.88-3.73,5.52c-1.52,1.83-2.19,4.19-3.47,5.73s-3.18,3.27-4.71,5.1-2.26,4.18-3.72,5.93-2.48,4.18-3.85,5.82c-1.77,2.13-5.34,2.29-6.47,3.64-1.25,1.51,0,4.93-1,6.18a18.39,18.39,0,0,1-3.88,3.45c-.07.14-.07,1.6,1.58,6.22.69,1.92,1.77,4.14,2.77,6.88.76,2.07.25,4.89,1.2,7.45.79,2.15,2.54,4.14,3.46,6.63.81,2.18,2.62,4.14,3.53,6.6.82,2.2-1.62,5.75-.72,8.18s2,4.62,2.89,6.9,5,3.55,5.82,5.81c.91,2.44-.75,5.73.07,7.94.94,2.51,1.29,5.05,2.09,7.2,1,2.66,1.91,5,2.65,7a13.24,13.24,0,0,0,4.72,6.18c.15.35-.33,2.76,6.27,4,1.88.34,4.45-.12,7.48.41,2.11.37,4.38,1.68,7.17,2.17,2.2.38,4.57,1.21,7.25,1.67,2.26.39,4.86-.16,7.49.29,2.29.4,5.25-2.21,7.84-1.76s4.56,3.3,7,3.71,5.37-1.23,7.74-.83c2.58.45,4.46,4.26,6.8,4.66,2.64.46,5.63-2.11,7.89-1.72,2.8.48,5.18,1.5,7.28,1.86a22.5,22.5,0,0,0,7.52.11c.63.09-.13,2.85,4.87-3.1,1.16-1.38,1.52-4.08,3.39-6.33,1.3-1.57,3.75-2.56,5.47-4.62,1.35-1.64,1.72-4.38,3.37-6.37,1.29-1.55,3.79-2.38,5.28-4.18,1.37-1.64,1.15-4.71,2.58-6.44s6.4-.46,7.78-2.13,2.12-4.12,3.45-5.72c1.57-1.89,1.5-4.87,2.71-6.33,1.52-1.82,3.35-3.57,4.93-5.48s3.19-4,4.64-5.73c2-2.39,5.11-3.23,6.14-4.48,2.28-2.75-.44-4.62,1.42-7.67.36-.6,2.4.3,2.2-.36a20.51,20.51,0,0,0-1.26-7.54c-.74-2-4.84-3.15-5.83-5.81-.79-2.15-1-4.72-2-7.22-.82-2.22-1-4.83-1.9-7.27-.83-2.26-.21-5.15-1.1-7.56s-4.36-3.64-5.25-6-2.7-4.32-3.51-6.49c-.91-2.43,1.57-6,.77-8.1-.93-2.46-5-3.53-5.79-5.63-.95-2.54-.75-5.21-1.52-7.24-1-2.7-1.68-5.05-2.4-6.9-1.75-4.55-3-4.69-3.11-4.77C347.5,17.36,347.17,16.12,346.09,16Z" transform="translate(-0.8 0.18)"/><path class="cls-2" d="M465.48,113c-1.34-.21-4.67-1-8.78-1.73-2.76-.47-6.5,2.83-9.51,2.31-2.17-.37-4.64-2.32-7.67-2.84-2.48-.43-5.09-1.39-7.83-1.86s-5.27-1.2-7.88-1.65c-2.79-.48-5.88,1.37-8.32,1-2.12-.37-4.22-1.34-6.41-1.72s-3.89-3.78-6-4.14c-2.33-.4-4.75.44-6.72.1-2.76-.47-4.93-1.51-6.4-1.76a12.45,12.45,0,0,0-8.06,1.69c-.12,0-2.22-1.53-5.82,2.76-1.18,1.42-.42,5.08-2.27,7.29-1.31,1.58-4.31,2.11-6,4.16-1.36,1.64-1.08,4.92-2.73,6.9-1.39,1.68-5.43,1.37-7,3.31-1.42,1.7-1.54,4.66-3.14,6.58s-2.42,4.63-4.26,6.84c-1.66,2-6.65,1.37-8.37,3.44s-1.29,6-2.92,8c-1.89,2.28-5.44,2.89-6.89,4.65-1.79,2.14-.95,6.25-2.4,8a35.9,35.9,0,0,0-4.15,6S324,172,325.47,176c.65,1.78,1.18,4,2.06,6.37.7,1.93,1.6,4,2.43,6.23.74,2,3.84,3.23,4.65,5.42.74,2-.27,4.78.53,6.94s3.87,3.27,4.67,5.41c.87,2.36-.7,5.61.15,7.9s.59,5.17,1.43,7.43c.91,2.43,2.21,4.61,3,6.84.92,2.48,4.09,4,4.89,6.14,1,2.63,2.06,4.91,2.8,6.91,1.38,3.7.61,6.83.9,7.62.92,2.49,1.75,5.52,1.88,5.59a13.34,13.34,0,0,1,8.08-1.54c2.09.36,4,3.91,6.67,4.38,2.26.39,5.15-1.88,7.67-1.45,2.2.38,4.7.66,7.36,1.12,2.32.4,4.63,1.74,7.16,2.18s5,0,7.48.4,4.75,1.84,7.16,2.26,4.75,2.23,7.09,2.63c2.62.46,5.64-2.33,7.88-1.94,2.67.46,4.7,4,7.09,4.41,2.84.49,5.61-.18,7.82.18a47.67,47.67,0,0,1,8,2.13A30,30,0,0,1,447,265.4c.7-.85,3.94-1.56,6.33-4.44,1.37-1.64,1.62-4.7,3.41-6.86,1.47-1.77,2.21-4.4,3.91-6.44,1.52-1.82,3.33-3.56,5-5.56,1.54-1.85,2.45-4.34,4.08-6.3s4.43-2.73,6-4.68,2.82-4.1,4.42-6,4.31-2.88,5.9-4.79,1.89-4.93,3.47-6.83,2.29-4.61,3.86-6.5,3.4-3.71,5-5.59c.8-1,3.33-.7,3.45-.94a18.91,18.91,0,0,1-4.34-6.53c-.65-1.84-2-3.84-2.92-6.41-.72-2,.73-5-.16-7.42-.77-2.06,0-5.05-.93-7.61-.82-2.21-3.8-3.77-4.7-6.21-.85-2.27-1.22-4.81-2.1-7.17s-4.34-3.72-5.2-6,2.06-6.16,1.22-8.42c-.91-2.47-5.46-3.46-6.26-5.62-1-2.66-1-5.56-1.91-7.94-1.06-2.82-1-5.79-1.83-8a63.35,63.35,0,0,1-2.44-8.88A29.83,29.83,0,0,0,465.48,113Z" transform="translate(-0.8 0.18)"/><path class="cls-3" d="M277.33,160.92c-2.51-.43-4.74-2.24-7.14-2.65s-5.06-.52-7.44-.92c-2.57-.44-5-1.26-7.3-1.66-2.65-.44-5.6,2-7.86,1.61-2.8-.47-5.36-.4-7.45-.75a32.11,32.11,0,0,1-7.18-2,11.82,11.82,0,0,1-2.43,5.68c-1.14,1.35-4.61,1.11-6,2.78s-1.63,4.53-3.12,6.32-3.53,3-5,4.74-1.64,4.57-3.11,6.33-4.8,2-6.26,3.71-2.34,4-3.79,5.77S201,194,199.6,195.77s-3.68,3-5.1,4.67-4.3,2.48-5.7,4.17-2.9,3.68-4.28,5.33c-2.12,2.54-2,6.16-3.35,7.83-3.79,4.61-3.41,5-3.34,5.23.18.57-1.7,4-.27,7.91.75,2,3.12,3.81,4.09,6.44.81,2.17,1.25,4.67,2.18,7.15.83,2.23-1.06,5.61-.16,8s5.36,3.26,6.25,5.63,1,4.91,1.91,7.25,2.37,4.45,3.24,6.76-1.49,5.94-.63,8.21,4.05,3.9,4.89,6.13c.93,2.48,1.85,4.81,2.67,7,1,2.63,1.48,5.14,2.24,7.13a23.92,23.92,0,0,0,3.18,6.22,30.23,30.23,0,0,0,10,3.77c1.74.3,4.12,1,6.94,1.49,2.15.36,4.71-.36,7.18.06,2.28.39,4.83-.25,7.17.15s4.34,3.29,6.56,3.68c2.42.41,5.22.18,8,.66,2.59.45,5.16,1.54,7.79,2s5.71-.84,8.19-.41c3,.52,5.44,2.61,7.61,3,2.81.49,6.21-2.7,8.63-2.28,4.1.7,6.64,4.7,7.42,4.82,1.13.19,1.38-.48,2.26-1.21,3.61-3,3.36-3.22,6.35-6.82,1.05-1.26,2.32-3.37,4.24-5.69,1.35-1.61,4-2.51,5.67-4.5,1.42-1.71,2.11-4.23,3.7-6.14s3.05-3.52,4.6-5.39,4.4-2.45,5.93-4.28,2.46-4.12,4-5.93,3.2-3.56,4.68-5.34,1.54-5,3-6.73c1.6-1.92,3-3.84,4.43-5.53,1.69-2,4.9-2.49,6.21-4.06,2.35-2.83,2.73-5.82,3.28-6.48,1.42-1.72-.53-.94-.72-1.31,0-.08,3-4.4,1.34-8.74-.74-2-4.6-3.23-5.59-5.88-.79-2.15,1.1-5.52.17-8-.82-2.21-2.27-4.34-3.17-6.78-.84-2.26-1.59-4.64-2.48-7s-3.18-4.08-4.07-6.46-3.5-4-4.35-6.31-1.09-5-1.93-7.21c-.9-2.43.36-5.56-.46-7.76-.94-2.49-1.26-5-2.06-7.16-1-2.64-4.52-4-5.27-5.95-1.64-4.34-2.65-5.53-2.69-5.57s-1-4.53-5.57-5.34c-2.08-.36-5,1.7-7.79,1.22-2.26-.4-4.28-3.4-6.92-3.85-2.33-.41-5.59,3.74-8.16,3.3-2.37-.41-4.11-5-6.65-5.45S279.84,161.36,277.33,160.92Z" transform="translate(-0.8 0.18)"/></svg>