<svg width="385" height="439" viewBox="0 0 385 439" fill="none" xmlns="http://www.w3.org/2000/svg">
<path class="floating-rotation" d="M281.111 289.917L258.507 289.01H254.854L264.593 271.655L271.022 263.899L283.368 238.274L285.642 237.198L292.494 251.611L304.407 275.052L311.45 283.683L314.405 286.821L290.411 290.918L281.111 289.917Z" fill="#10352B"/>
<path class="floating-rotation" d="M254.368 288.778C254.352 290.739 256.594 289.451 258.281 290.442C259.967 291.434 260.29 290.888 261.982 291.879C263.668 292.87 262.706 294.519 264.398 295.515C266.09 296.507 266.09 296.501 267.782 297.493C269.474 298.484 269.5 298.436 271.192 299.428C272.879 300.419 273.82 298.807 275.512 299.799C277.204 300.79 276.564 301.882 278.256 302.879C279.948 303.87 280.572 302.804 282.264 303.796C283.956 304.787 283.179 306.934 285.14 306.945C287.097 306.96 286.658 305.349 288.36 304.379C290.063 303.409 290.544 304.262 292.252 303.292C293.96 302.322 293.986 302.375 295.689 301.405C297.391 300.435 297 299.746 298.702 298.776C300.405 297.806 300.881 298.643 302.583 297.673C304.286 296.703 304.138 296.443 305.84 295.468C307.543 294.498 307.331 294.127 309.039 293.151C310.742 292.181 310.271 291.349 311.979 290.373C313.681 289.403 316.246 291.137 316.262 289.17C316.278 287.209 314.617 287.32 312.931 286.329C311.239 285.337 311.207 285.396 309.515 284.404C307.823 283.413 307.263 284.367 305.576 283.376C303.889 282.385 304.016 282.162 302.324 281.171C300.632 280.18 300.754 279.968 299.067 278.976C297.375 277.985 297.084 278.483 295.398 277.492C293.706 276.501 293.373 277.073 291.681 276.077C289.989 275.08 290.163 274.788 288.466 273.792C286.774 272.795 287.202 272.064 285.505 271.078C285.5 271.072 285.822 272.08 285.817 272.085C284.12 273.06 283.692 272.307 281.989 273.278C280.287 274.248 279.805 273.4 278.103 274.37C276.4 275.34 277.172 276.697 275.47 277.667C273.767 278.637 273.069 277.412 271.372 278.382C269.67 279.353 270.32 280.492 268.617 281.468C266.915 282.438 266.264 281.287 264.562 282.258C262.859 283.228 263.224 283.874 261.522 284.844C259.819 285.815 260.173 286.843 258.281 287.347C256.018 287.946 254.384 286.811 254.368 288.778Z" fill="#10352B"/>
<path class="floating-rotation" d="M284.638 271.708C285.605 273.415 286.795 272.725 288.487 273.722C290.179 274.713 290.168 274.729 291.86 275.721C293.552 276.712 293.573 276.675 295.265 277.666C296.957 278.657 297.01 278.562 298.702 279.558C300.394 280.55 300.146 280.974 301.838 281.965C303.53 282.956 303.921 282.283 305.613 283.275C307.305 284.266 307.088 284.637 308.78 285.628C310.472 286.625 310.556 286.476 312.248 287.473C313.94 288.47 314.384 290.643 316.092 289.673C317.795 288.703 315.405 287.203 315.415 285.241C315.426 283.28 315.289 283.28 315.299 281.313C315.31 279.352 315.696 279.352 315.706 277.39C315.717 275.429 315.341 275.424 315.352 273.462C315.363 271.501 315.934 271.501 315.944 269.54C315.955 267.573 315.299 267.573 315.31 265.606C315.32 263.645 315.373 263.645 315.384 261.678C315.394 259.711 316.769 259.722 316.78 257.755C316.79 255.789 317.435 255.269 316.468 253.562C315.5 251.855 314.617 252.327 312.93 251.336C311.244 250.344 311.286 250.265 309.599 249.274C307.913 248.282 307.061 249.735 305.375 248.738C303.683 247.747 304.016 247.174 302.329 246.183C300.637 245.192 300.812 244.895 299.125 243.904C297.438 242.912 297.756 242.366 296.064 241.375C294.372 240.384 294.033 240.967 292.341 239.976C290.65 238.984 290.242 239.684 288.55 238.687C286.858 237.691 287.17 234.749 285.463 235.714C283.76 236.684 285.489 237.919 285.478 239.88C285.468 241.842 286.245 241.847 286.229 243.808C286.213 245.77 284.606 245.759 284.596 247.726C284.585 249.687 284.585 249.687 284.569 251.654C284.558 253.615 286.092 253.626 286.081 255.592C286.071 257.554 286.15 257.559 286.139 259.521C286.129 261.482 285.256 261.477 285.241 263.443C285.23 265.41 285.293 265.315 284.786 267.212C284.188 269.428 283.67 270.001 284.638 271.708Z" fill="#51CB59"/>
<path class="floating-rotation" d="M255.145 288.051C256.831 289.048 256.615 288.157 258.317 287.187C260.02 286.217 259.301 284.95 261.003 283.98C262.706 283.01 263.319 284.091 265.022 283.121C266.724 282.151 266.264 281.345 267.967 280.375C269.669 279.405 270.023 280.031 271.726 279.061C273.428 278.09 273.402 278.043 275.105 277.073C276.807 276.103 276.342 275.281 278.044 274.311C279.747 273.341 280.244 274.21 281.946 273.24C283.649 272.27 283.681 272.323 285.383 271.353C285.388 271.348 285.843 271.31 285.843 271.305C285.859 269.344 286.361 269.344 286.377 267.382C286.388 265.421 285.748 265.416 285.764 263.454C285.774 261.493 287.096 261.249 287.112 259.288C287.123 257.326 288.45 257.332 288.46 255.37C288.471 253.409 285.917 253.642 285.928 251.675C285.938 249.714 284.68 249.703 284.696 247.742C284.706 245.781 286.546 245.791 286.557 243.825C286.568 241.858 286.055 241.815 286.07 239.849C286.081 237.882 286.8 237.787 285.108 236.79C283.422 235.799 284.119 237.325 282.417 238.296C280.714 239.266 280.852 239.509 279.149 240.48C277.447 241.45 276.691 240.119 274.988 241.089C273.286 242.059 273.682 242.759 271.98 243.729C270.277 244.699 270.367 244.858 268.665 245.828C266.962 246.798 266.56 246.088 264.858 247.058C263.155 248.028 263.747 249.078 262.045 250.048C260.342 251.018 259.57 249.661 257.868 250.631C256.165 251.601 255.853 251.686 254.859 253.382C253.87 255.073 254.785 255.397 254.769 257.358C254.759 259.319 254.071 259.319 254.061 261.281C254.05 263.242 255.092 263.253 255.081 265.214C255.071 267.176 255.853 267.181 255.843 269.148C255.832 271.109 255.42 271.109 255.409 273.07C255.399 275.037 255.848 275.037 255.832 277.004C255.822 278.965 255.05 278.965 255.034 280.927C255.023 282.893 254.362 282.766 253.95 284.685C253.58 286.445 253.458 287.055 255.145 288.051Z" fill="#A8E6A5"/>
<path class="floating-rotation" d="M281.111 185.58L258.507 184.673H254.854L264.593 167.318L271.022 159.562L283.368 133.937L285.642 132.861L292.494 147.274L304.407 170.721L311.45 179.346L314.405 182.484L290.411 186.582L281.111 185.58Z" fill="#10352B"/>
<path class="floating-rotation" d="M254.368 184.439C254.352 186.4 256.594 185.112 258.28 186.103C259.967 187.095 260.29 186.549 261.982 187.54C263.668 188.531 262.706 190.18 264.398 191.177C266.09 192.168 266.09 192.163 267.782 193.154C269.474 194.145 269.5 194.097 271.192 195.089C272.879 196.08 273.82 194.469 275.512 195.46C277.204 196.451 276.564 197.543 278.256 198.54C279.948 199.531 280.572 198.466 282.264 199.457C283.956 200.448 283.179 202.595 285.14 202.606C287.096 202.622 286.658 201.01 288.36 200.04C290.063 199.07 290.544 199.923 292.252 198.953C293.959 197.983 293.986 198.036 295.688 197.066C297.391 196.096 297 195.407 298.702 194.437C300.405 193.467 300.881 194.304 302.583 193.334C304.286 192.364 304.138 192.104 305.84 191.129C307.543 190.159 307.331 189.788 309.039 188.812C310.742 187.842 310.271 187.01 311.979 186.035C313.681 185.064 316.246 186.798 316.262 184.831C316.277 182.87 314.617 182.981 312.931 181.99C311.239 180.999 311.207 181.057 309.515 180.066C307.823 179.074 307.262 180.028 305.576 179.037C303.884 178.046 304.016 177.823 302.324 176.832C300.632 175.841 300.754 175.629 299.067 174.637C297.375 173.646 297.084 174.144 295.398 173.153C293.706 172.162 293.373 172.734 291.681 171.738C289.989 170.741 290.163 170.45 288.466 169.453C286.774 168.456 287.202 167.725 285.505 166.739C285.5 166.733 285.822 167.741 285.817 167.746C284.12 168.721 283.691 167.969 281.989 168.939C280.286 169.909 279.805 169.061 278.103 170.031C276.4 171.001 277.172 172.358 275.47 173.328C273.767 174.298 273.069 173.074 271.372 174.044C269.669 175.014 270.32 176.153 268.617 177.129C266.915 178.099 266.264 176.949 264.562 177.919C262.859 178.889 263.224 179.536 261.522 180.506C259.819 181.476 260.173 182.504 258.28 183.008C256.017 183.607 254.384 182.472 254.368 184.439Z" fill="#10352B"/>
<path class="floating-rotation" d="M284.638 167.371C285.605 169.078 286.795 168.389 288.487 169.385C290.179 170.377 290.168 170.393 291.86 171.384C293.552 172.375 293.573 172.338 295.265 173.329C296.957 174.321 297.01 174.225 298.702 175.222C300.394 176.213 300.146 176.637 301.838 177.628C303.53 178.62 303.921 177.947 305.613 178.938C307.305 179.929 307.088 180.3 308.78 181.291C310.472 182.288 310.556 182.14 312.248 183.136C313.94 184.133 314.384 186.306 316.092 185.336C317.795 184.366 315.405 182.866 315.415 180.905C315.426 178.943 315.289 178.943 315.299 176.976C315.31 175.015 315.696 175.015 315.706 173.054C315.717 171.092 315.341 171.087 315.352 169.126C315.363 167.164 315.934 167.164 315.944 165.203C315.955 163.236 315.299 163.236 315.31 161.269C315.32 159.308 315.373 159.308 315.384 157.341C315.394 155.375 316.769 155.385 316.78 153.419C316.79 151.452 317.435 150.932 316.468 149.225C315.5 147.519 314.617 147.99 312.93 146.999C311.244 146.008 311.286 145.928 309.599 144.937C307.913 143.946 307.061 145.398 305.375 144.402C303.683 143.41 304.016 142.838 302.329 141.846C300.637 140.855 300.812 140.558 299.125 139.567C297.438 138.576 297.756 138.03 296.064 137.038C294.372 136.047 294.033 136.63 292.341 135.639C290.65 134.648 290.242 135.347 288.55 134.351C286.858 133.359 287.17 130.412 285.463 131.377C283.76 132.347 285.489 133.582 285.478 135.544C285.468 137.505 286.245 137.51 286.229 139.472C286.219 141.433 284.606 141.422 284.596 143.389C284.585 145.35 284.585 145.35 284.569 147.317C284.558 149.279 286.092 149.289 286.081 151.256C286.071 153.217 286.15 153.222 286.139 155.184C286.129 157.145 285.256 157.14 285.241 159.107C285.23 161.073 285.293 160.978 284.786 162.876C284.188 165.091 283.67 165.664 284.638 167.371Z" fill="#A8E6A5"/>
<path class="floating-rotation" d="M255.145 183.714C256.831 184.711 256.615 183.82 258.317 182.85C260.02 181.88 259.301 180.613 261.003 179.643C262.706 178.673 263.319 179.754 265.022 178.784C266.724 177.814 266.264 177.008 267.967 176.038C269.669 175.068 270.023 175.694 271.726 174.724C273.428 173.754 273.402 173.706 275.105 172.736C276.807 171.766 276.342 170.944 278.044 169.974C279.747 169.004 280.244 169.873 281.946 168.903C283.649 167.933 283.681 167.986 285.383 167.016C285.388 167.011 285.843 166.974 285.843 166.968C285.859 165.007 286.361 165.007 286.377 163.045C286.388 161.084 285.748 161.079 285.764 159.117C285.774 157.156 287.096 156.912 287.112 154.951C287.123 152.989 288.45 152.995 288.46 151.033C288.471 149.072 285.917 149.305 285.928 147.338C285.938 145.377 284.68 145.366 284.696 143.405C284.706 141.444 286.546 141.454 286.557 139.488C286.568 137.521 286.055 137.479 286.07 135.512C286.081 133.545 286.8 133.45 285.108 132.453C283.422 131.462 284.119 132.989 282.417 133.959C280.714 134.929 280.852 135.173 279.149 136.143C277.447 137.113 276.691 135.782 274.988 136.752C273.286 137.722 273.682 138.422 271.98 139.392C270.277 140.362 270.367 140.521 268.665 141.491C266.962 142.462 266.56 141.751 264.858 142.721C263.155 143.691 263.747 144.741 262.045 145.711C260.342 146.681 259.57 145.324 257.868 146.294C256.165 147.264 255.853 147.349 254.859 149.045C253.87 150.736 254.785 151.06 254.769 153.021C254.759 154.983 254.071 154.983 254.061 156.944C254.05 158.905 255.092 158.916 255.081 160.877C255.071 162.839 255.853 162.844 255.843 164.811C255.832 166.772 255.42 166.772 255.409 168.733C255.399 170.7 255.848 170.7 255.832 172.667C255.822 174.634 255.05 174.628 255.034 176.59C255.023 178.556 254.362 178.429 253.95 180.348C253.58 182.108 253.458 182.718 255.145 183.714Z" fill="#51CB59"/>
<path class="floating-rotation" d="M189.882 132.393L167.279 131.487H163.631L173.365 114.131L179.799 106.376L192.145 80.7504L194.419 79.6743L201.271 94.0825L213.179 117.529L220.221 126.159L223.177 129.297L199.183 133.39L189.882 132.393Z" fill="#A8E6A5"/>
<path class="floating-rotation" d="M163.144 131.253C163.128 133.215 165.37 131.927 167.057 132.918C168.743 133.909 169.066 133.363 170.758 134.355C172.444 135.346 171.482 136.995 173.174 137.991C174.866 138.982 174.866 138.977 176.558 139.968C178.25 140.96 178.276 140.912 179.968 141.903C181.655 142.895 182.596 141.283 184.288 142.274C185.98 143.266 185.34 144.358 187.032 145.354C188.724 146.346 189.348 145.28 191.04 146.271C192.732 147.263 191.955 149.41 193.916 149.42C195.873 149.436 195.434 147.825 197.136 146.854C198.839 145.884 199.32 146.738 201.028 145.768C202.73 144.798 202.762 144.851 204.465 143.881C206.167 142.91 205.776 142.221 207.479 141.251C209.181 140.281 209.657 141.119 211.359 140.149C213.062 139.179 212.914 138.919 214.616 137.943C216.319 136.973 216.107 136.602 217.815 135.627C219.518 134.657 219.047 133.824 220.755 132.849C222.458 131.879 225.022 133.612 225.038 131.646C225.054 129.684 223.393 129.796 221.707 128.804C220.015 127.813 219.983 127.871 218.291 126.88C216.599 125.889 216.039 126.843 214.352 125.852C212.66 124.86 212.792 124.638 211.1 123.646C209.408 122.655 209.53 122.443 207.843 121.452C206.151 120.461 205.861 120.959 204.174 119.968C202.482 118.976 202.879 117.269 201.192 116.278C199.5 115.281 200.002 114.958 198.31 113.967C196.618 112.97 195.984 114.545 194.287 113.559C194.281 113.553 194.604 114.561 194.599 114.566C192.901 115.541 192.473 114.788 190.77 115.759C189.068 116.729 188.587 115.88 186.884 116.851C185.182 117.821 185.954 119.178 184.251 120.148C182.549 121.118 181.851 119.893 180.153 120.863C178.451 121.834 179.101 122.973 177.399 123.949C175.696 124.919 175.046 123.768 173.343 124.739C171.641 125.709 172.006 126.355 170.303 127.325C168.601 128.296 168.955 129.324 167.062 129.828C164.794 130.421 163.16 129.287 163.144 131.253Z" fill="#A8E6A5"/>
<path class="floating-rotation" d="M193.409 114.185C194.376 115.892 195.566 115.203 197.258 116.2C198.95 117.191 198.939 117.207 200.631 118.198C202.323 119.19 202.345 119.152 204.036 120.144C205.728 121.135 205.781 121.04 207.473 122.036C209.165 123.028 208.917 123.452 210.609 124.443C212.301 125.434 212.692 124.761 214.384 125.752C216.076 126.744 215.859 127.115 217.551 128.106C219.243 129.103 219.328 128.954 221.019 129.951C222.711 130.947 223.156 133.121 224.863 132.151C226.566 131.181 224.176 129.68 224.187 127.719C224.197 125.758 224.06 125.758 224.07 123.791C224.081 121.83 224.467 121.83 224.477 119.868C224.488 117.907 224.113 117.901 224.123 115.94C224.134 113.979 224.705 113.979 224.715 112.017C224.726 110.051 224.07 110.051 224.081 108.084C224.091 106.123 224.144 106.123 224.155 104.156C224.165 102.189 225.54 102.2 225.551 100.233C225.561 98.2664 226.206 97.7469 225.239 96.0399C224.271 94.333 223.388 94.8048 221.702 93.8135C220.015 92.8222 220.057 92.7427 218.371 91.7514C216.684 90.7601 215.833 92.2126 214.146 91.216C212.454 90.2247 212.787 89.6522 211.1 88.6609C209.408 87.6696 209.583 87.3727 207.896 86.3814C206.21 85.3902 206.527 84.8441 204.835 83.8528C203.143 82.8616 202.805 83.4447 201.113 82.4534C199.421 81.4621 199.013 82.1618 197.322 81.1652C195.63 80.1739 195.942 77.2265 194.234 78.1913C192.531 79.1614 194.26 80.3966 194.25 82.358C194.239 84.3193 195.016 84.3246 195 86.286C194.99 88.2474 193.377 88.2368 193.367 90.2035C193.356 92.1649 193.356 92.1649 193.34 94.1316C193.33 96.093 194.863 96.1036 194.852 98.0702C194.842 100.032 194.921 100.037 194.91 101.998C194.9 103.96 194.028 103.954 194.012 105.921C194.001 107.888 194.065 107.792 193.557 109.69C192.959 111.906 192.441 112.478 193.409 114.185Z" fill="#10352B"/>
<path class="floating-rotation" d="M163.922 130.528C165.609 131.524 165.392 130.634 167.094 129.664C168.797 128.694 168.078 127.427 169.78 126.456C171.483 125.486 172.096 126.568 173.799 125.598C175.501 124.628 175.041 123.822 176.744 122.852C178.446 121.882 178.8 122.507 180.503 121.537C182.206 120.567 182.179 120.519 183.882 119.549C185.584 118.579 185.119 117.757 186.821 116.787C188.524 115.817 189.021 116.687 190.723 115.717C192.426 114.746 192.458 114.8 194.16 113.829C194.166 113.824 194.62 113.787 194.62 113.782C194.636 111.82 195.138 111.82 195.154 109.859C195.165 107.898 194.525 107.892 194.541 105.931C194.552 103.969 195.873 103.726 195.889 101.764C195.9 99.8029 197.227 99.8082 197.237 97.8468C197.248 95.8854 194.694 96.1186 194.705 94.1519C194.715 92.1906 193.457 92.18 193.473 90.2186C193.483 88.2572 195.323 88.2678 195.334 86.3011C195.345 84.3344 194.832 84.292 194.848 82.3253C194.863 80.3586 195.577 80.2632 193.885 79.2666C192.199 78.2753 192.897 79.802 191.194 80.7721C189.492 81.7422 189.629 81.9861 187.926 82.9562C186.224 83.9262 185.468 82.5957 183.765 83.5658C182.063 84.5359 182.459 85.2356 180.757 86.2057C179.054 87.1758 179.144 87.3348 177.442 88.3049C175.739 89.275 175.337 88.5647 173.635 89.5347C171.932 90.5048 172.524 91.5544 170.822 92.5245C169.119 93.4946 168.347 92.1376 166.645 93.1076C164.942 94.0777 164.63 94.1626 163.636 95.8589C162.648 97.5499 163.562 97.8733 163.546 99.8347C163.536 101.796 162.849 101.796 162.838 103.757C162.827 105.719 163.869 105.729 163.858 107.691C163.848 109.652 164.63 109.657 164.62 111.624C164.609 113.586 164.197 113.586 164.186 115.547C164.176 117.514 164.625 117.514 164.609 119.48C164.599 121.447 163.827 121.442 163.811 123.403C163.8 125.37 163.139 125.243 162.727 127.162C162.351 128.921 162.23 129.531 163.922 130.528Z" fill="#51CB59"/>
<path class="floating-rotation" d="M103.889 144.941L126.492 145.848H130.146L120.406 163.204L113.972 170.959L101.631 196.584L99.3575 197.66L92.505 183.247L80.5926 159.806L73.5499 151.175L70.5942 148.037L94.5883 143.945L103.889 144.941Z" fill="#A8E6A5"/>
<path class="floating-rotation" d="M130.632 146.083C130.648 144.122 128.406 145.41 126.719 144.419C125.032 143.427 124.71 143.973 123.018 142.982C121.331 141.991 122.294 140.342 120.602 139.346C118.91 138.354 118.91 138.36 117.218 137.368C115.526 136.377 115.499 136.425 113.807 135.433C112.121 134.442 111.18 136.054 109.488 135.062C107.796 134.071 108.435 132.979 106.743 131.983C105.051 130.991 104.428 132.057 102.736 131.065C101.044 130.074 101.821 127.927 99.8593 127.917C97.903 127.901 98.3418 129.512 96.6393 130.482C94.9368 131.452 94.4556 130.599 92.7478 131.569C91.0453 132.539 91.0135 132.486 89.311 133.456C87.6085 134.426 87.9997 135.115 86.2972 136.086C84.5947 137.056 84.1188 136.218 82.4163 137.188C80.7138 138.158 80.8618 138.418 79.1593 139.393C77.4568 140.363 77.6683 140.735 75.9604 141.71C74.2579 142.68 74.7285 143.512 73.0207 144.488C71.3181 145.458 68.7538 143.724 68.7379 145.691C68.722 147.652 70.3823 147.541 72.0689 148.532C73.7609 149.524 73.7926 149.465 75.4846 150.457C77.1765 151.448 77.737 150.494 79.4237 151.485C81.1156 152.476 80.9834 152.699 82.6754 153.69C84.3673 154.682 84.2457 154.894 85.9324 155.885C87.6243 156.876 87.9152 156.378 89.6018 157.369C91.2938 158.36 90.8972 160.067 92.5839 161.059C94.2758 162.055 93.7735 162.379 95.4655 163.37C97.1574 164.361 97.7919 162.792 99.4892 163.778C99.4945 163.783 99.1719 162.776 99.1772 162.771C100.874 161.796 101.303 162.548 103.005 161.578C104.708 160.608 105.189 161.456 106.891 160.486C108.594 159.516 107.822 158.159 109.525 157.189C111.227 156.219 111.925 157.443 113.622 156.473C115.325 155.503 114.674 154.364 116.377 153.388C118.08 152.418 118.73 153.568 120.432 152.598C122.135 151.628 121.77 150.981 123.473 150.011C125.175 149.041 124.821 148.013 126.714 147.509C128.977 146.916 130.616 148.05 130.632 146.083Z" fill="#A8E6A5"/>
<path class="floating-rotation" d="M100.362 163.152C99.3946 161.445 98.205 162.134 96.513 161.137C94.8211 160.146 94.8316 160.13 93.1397 159.139C91.4477 158.148 91.4266 158.185 89.7346 157.193C88.0427 156.202 87.9898 156.297 86.2979 155.301C84.6059 154.31 84.8544 153.886 83.1624 152.894C81.4705 151.903 81.0792 152.576 79.3873 151.585C77.6953 150.594 77.9121 150.223 76.2201 149.231C74.5282 148.235 74.4436 148.383 72.7516 147.386C71.0597 146.39 70.6156 144.216 68.9077 145.187C67.2052 146.157 69.5951 147.657 69.5845 149.618C69.5739 151.58 69.7114 151.58 69.7008 153.546C69.6903 155.513 69.3043 155.508 69.2937 157.469C69.2831 159.43 69.6585 159.436 69.648 161.397C69.6374 163.358 69.0664 163.358 69.0558 165.32C69.0452 167.287 69.7008 167.287 69.6903 169.253C69.6797 171.215 69.6268 171.215 69.6162 173.181C69.6057 175.148 68.231 175.137 68.2204 177.104C68.2098 179.071 67.5647 179.59 68.5323 181.297C69.4999 183.004 70.3829 182.532 72.0696 183.524C73.7562 184.515 73.7139 184.594 75.4006 185.586C77.0873 186.577 77.9385 185.125 79.6252 186.121C81.3172 187.112 80.9841 187.685 82.6707 188.676C84.3627 189.668 84.1882 189.964 85.8749 190.956C87.5615 191.947 87.2443 192.493 88.9362 193.484C90.6282 194.476 90.9666 193.892 92.6585 194.884C94.3505 195.875 94.7576 195.175 96.4496 196.172C98.1415 197.163 97.8296 200.111 99.5374 199.146C101.24 198.176 99.511 196.941 99.5215 194.979C99.5321 193.018 98.7549 193.013 98.7707 191.051C98.7813 189.09 100.394 189.1 100.405 187.134C100.415 185.172 100.415 185.172 100.431 183.206C100.442 181.244 98.9082 181.234 98.9188 179.267C98.9293 177.306 98.85 177.3 98.8606 175.339C98.8712 173.377 99.7436 173.383 99.7595 171.416C99.77 169.449 99.7066 169.545 100.214 167.647C100.812 165.431 101.33 164.859 100.362 163.152Z" fill="#10352B"/>
<path class="floating-rotation" d="M129.856 146.808C128.169 145.811 128.386 146.702 126.683 147.672C124.981 148.642 125.7 149.909 123.997 150.879C122.295 151.849 121.681 150.768 119.979 151.738C118.276 152.708 118.736 153.514 117.034 154.484C115.331 155.454 114.977 154.828 113.275 155.798C111.572 156.768 111.598 156.816 109.896 157.786C108.193 158.756 108.659 159.578 106.956 160.548C105.254 161.518 104.757 160.649 103.054 161.619C101.352 162.589 101.32 162.536 99.6173 163.506C99.6121 163.511 99.1573 163.548 99.1573 163.554C99.1415 165.515 98.6392 165.515 98.6233 167.476C98.6127 169.438 99.2525 169.443 99.2367 171.405C99.2261 173.366 97.9042 173.61 97.8884 175.571C97.8778 177.533 96.5507 177.527 96.5401 179.489C96.5295 181.45 99.0833 181.217 99.0727 183.183C99.0622 185.145 100.321 185.155 100.305 187.117C100.294 189.078 98.4541 189.068 98.4436 191.034C98.433 193.001 98.9459 193.043 98.93 195.01C98.9194 196.977 98.2003 197.072 99.8923 198.069C101.579 199.06 100.881 197.533 102.584 196.563C104.286 195.593 104.149 195.349 105.851 194.379C107.554 193.409 108.31 194.74 110.012 193.77C111.715 192.8 111.318 192.1 113.021 191.13C114.723 190.16 114.633 190.001 116.336 189.03C118.038 188.06 118.44 188.771 120.143 187.801C121.845 186.831 121.253 185.781 122.956 184.811C124.658 183.841 125.43 185.198 127.133 184.228C128.835 183.258 129.147 183.173 130.141 181.477C131.13 179.785 130.215 179.462 130.231 177.501C130.242 175.539 130.929 175.539 130.94 173.578C130.95 171.617 129.909 171.606 129.919 169.645C129.93 167.683 129.147 167.678 129.158 165.711C129.168 163.75 129.581 163.75 129.591 161.788C129.602 159.822 129.153 159.822 129.168 157.855C129.179 155.888 129.951 155.894 129.967 153.932C129.977 151.966 130.638 152.093 131.051 150.174C131.421 148.414 131.542 147.804 129.856 146.808Z" fill="#51CB59"/>
<path class="floating-rotation" d="M103.889 255.296L126.492 256.202H130.146L120.406 273.558L113.972 281.313L101.631 306.939L99.3575 308.015L92.505 293.601L80.5926 270.16L73.5499 261.53L70.5942 258.392L94.5883 254.294L103.889 255.296Z" fill="#A8E6A5"/>
<path class="floating-rotation" d="M130.632 256.434C130.648 254.472 128.406 255.761 126.719 254.769C125.032 253.778 124.71 254.324 123.018 253.333C121.331 252.341 122.294 250.693 120.602 249.696C118.91 248.705 118.91 248.71 117.218 247.719C115.526 246.728 115.499 246.775 113.807 245.784C112.121 244.793 111.18 246.404 109.488 245.413C107.796 244.422 108.435 243.33 106.743 242.333C105.051 241.342 104.428 242.407 102.736 241.416C101.044 240.425 101.821 238.278 99.8593 238.267C97.903 238.251 98.3418 239.863 96.6393 240.833C94.9368 241.803 94.4556 240.95 92.7478 241.92C91.0453 242.89 91.0135 242.837 89.311 243.807C87.6085 244.777 87.9997 245.466 86.2972 246.436C84.5947 247.406 84.1188 246.569 82.4163 247.539C80.7138 248.509 80.8618 248.769 79.1593 249.744C77.4568 250.714 77.6683 251.085 75.9604 252.061C74.2579 253.031 74.7285 253.863 73.0207 254.838C71.3181 255.808 68.7538 254.075 68.7379 256.042C68.722 258.003 70.3823 257.892 72.0689 258.883C73.7609 259.874 73.7926 259.816 75.4846 260.807C77.1765 261.799 77.737 260.844 79.4237 261.836C81.1156 262.827 80.9834 263.05 82.6754 264.041C84.3673 265.032 84.2457 265.244 85.9324 266.236C87.6243 267.227 87.9152 266.729 89.6018 267.72C91.2938 268.711 90.8972 270.418 92.5839 271.409C94.2758 272.406 93.7735 272.729 95.4655 273.721C97.1574 274.717 97.7919 273.143 99.4892 274.129C99.4945 274.134 99.1719 273.127 99.1772 273.122C100.874 272.146 101.303 272.899 103.005 271.929C104.708 270.959 105.189 271.807 106.891 270.837C108.594 269.867 107.822 268.51 109.525 267.54C111.227 266.569 111.925 267.794 113.622 266.824C115.325 265.854 114.674 264.714 116.377 263.739C118.08 262.769 118.73 263.919 120.432 262.949C122.135 261.979 121.77 261.332 123.473 260.362C125.175 259.392 124.821 258.363 126.714 257.86C128.977 257.266 130.616 258.401 130.632 256.434Z" fill="#51CB59"/>
<path class="floating-rotation" d="M100.362 273.504C99.3946 271.797 98.205 272.486 96.513 271.49C94.8211 270.499 94.8316 270.483 93.1397 269.491C91.4477 268.5 91.4266 268.537 89.7346 267.546C88.0427 266.555 87.9898 266.65 86.2979 265.653C84.6059 264.662 84.8544 264.238 83.1624 263.247C81.4705 262.255 81.0792 262.929 79.3873 261.937C77.6953 260.946 77.9121 260.575 76.2201 259.584C74.5282 258.587 74.4436 258.736 72.7516 257.739C71.0597 256.742 70.6156 254.569 68.9077 255.539C67.2052 256.509 69.5951 258.009 69.5845 259.971C69.5739 261.932 69.7114 261.932 69.7008 263.899C69.6903 265.865 69.3043 265.86 69.2937 267.822C69.2831 269.783 69.6585 269.788 69.648 271.75C69.6374 273.711 69.0664 273.711 69.0558 275.672C69.0452 277.639 69.7008 277.639 69.6903 279.606C69.6797 281.567 69.6268 281.567 69.6162 283.534C69.6057 285.501 68.231 285.49 68.2204 287.457C68.2098 289.423 67.5647 289.943 68.5323 291.65C69.4999 293.357 70.3829 292.885 72.0696 293.876C73.7562 294.867 73.7139 294.947 75.4006 295.938C77.0873 296.93 77.9385 295.477 79.6252 296.474C81.3172 297.465 80.9841 298.037 82.6707 299.029C84.3627 300.02 84.1882 300.317 85.8749 301.308C87.5615 302.3 87.2443 302.846 88.9362 303.837C90.6282 304.828 90.9666 304.245 92.6585 305.236C94.3505 306.228 94.7576 305.528 96.4496 306.524C98.1415 307.521 97.8296 310.463 99.5374 309.498C101.24 308.528 99.511 307.293 99.5215 305.332C99.5321 303.37 98.7549 303.365 98.7707 301.404C98.7813 299.442 100.394 299.453 100.405 297.486C100.415 295.525 100.415 295.525 100.431 293.558C100.442 291.597 98.9082 291.586 98.9188 289.619C98.9293 287.658 98.85 287.653 98.8606 285.691C98.8712 283.73 99.7436 283.735 99.7595 281.769C99.77 279.802 99.7066 279.897 100.214 278C100.812 275.784 101.33 275.211 100.362 273.504Z" fill="#10352B"/>
<path class="floating-rotation" d="M129.855 257.162C128.169 256.165 128.386 257.056 126.683 258.026C124.98 258.996 125.7 260.263 123.997 261.233C122.294 262.203 121.681 261.122 119.979 262.092C118.276 263.062 118.736 263.868 117.034 264.838C115.331 265.808 114.977 265.182 113.274 266.152C111.572 267.122 111.598 267.17 109.896 268.14C108.193 269.11 108.658 269.932 106.956 270.902C105.253 271.872 104.756 271.003 103.054 271.973C101.351 272.943 101.32 272.89 99.617 273.86C99.6117 273.865 99.157 273.902 99.157 273.908C99.1411 275.869 98.6388 275.869 98.623 277.83C98.6124 279.792 99.2522 279.797 99.2363 281.759C99.2257 283.72 97.9039 283.964 97.888 285.925C97.8775 287.887 96.5503 287.881 96.5398 289.843C96.5292 291.804 99.083 291.571 99.0724 293.537C99.0618 295.499 100.32 295.509 100.304 297.471C100.294 299.432 98.4538 299.422 98.4432 301.388C98.4326 303.355 98.9455 303.397 98.9297 305.364C98.9191 307.331 98.2 307.426 99.892 308.423C101.579 309.414 100.881 307.887 102.583 306.917C104.286 305.947 104.148 305.703 105.851 304.733C107.553 303.763 108.309 305.094 110.012 304.124C111.714 303.154 111.318 302.454 113.02 301.484C114.723 300.514 114.633 300.355 116.336 299.385C118.038 298.414 118.44 299.125 120.143 298.155C121.845 297.185 121.253 296.135 122.955 295.165C124.658 294.195 125.43 295.552 127.132 294.582C128.835 293.612 129.147 293.527 130.141 291.831C131.13 290.139 130.215 289.816 130.231 287.855C130.241 285.893 130.929 285.893 130.939 283.932C130.95 281.971 129.908 281.96 129.919 279.999C129.929 278.037 129.147 278.032 129.157 276.065C129.168 274.104 129.58 274.104 129.591 272.142C129.602 270.176 129.152 270.176 129.168 268.209C129.179 266.242 129.951 266.248 129.966 264.286C129.977 262.32 130.638 262.447 131.05 260.528C131.42 258.768 131.542 258.158 129.855 257.162Z" fill="#A8E6A5"/>
<path class="floating-rotation" d="M197.121 201.488L219.725 202.389H223.373L213.639 219.745L207.204 227.505L194.864 253.125L192.585 254.201L185.732 239.793L173.825 216.347L166.782 207.716L163.827 204.584L187.821 200.486L197.121 201.488Z" fill="#A8E6A5"/>
<path class="floating-rotation" d="M223.86 202.622C223.875 200.66 221.634 201.949 219.947 200.957C218.26 199.966 217.938 200.512 216.246 199.521C214.559 198.529 215.521 196.881 213.829 195.884C212.138 194.893 212.138 194.898 210.446 193.907C208.754 192.916 208.727 192.963 207.035 191.972C205.349 190.981 204.407 192.592 202.715 191.601C201.024 190.61 201.663 189.518 199.971 188.521C198.279 187.53 197.655 188.595 195.964 187.604C194.272 186.613 195.049 184.466 193.087 184.455C191.131 184.439 191.57 186.051 189.867 187.021C188.165 187.991 187.684 187.138 185.976 188.108C184.268 189.078 184.241 189.025 182.539 189.995C180.836 190.965 181.228 191.654 179.525 192.624C177.823 193.594 177.347 192.757 175.644 193.727C173.942 194.697 174.09 194.957 172.387 195.932C170.685 196.902 170.896 197.273 169.188 198.249C167.486 199.219 167.956 200.051 166.249 201.026C164.546 201.996 161.982 200.263 161.966 202.23C161.95 204.191 163.61 204.08 165.297 205.071C166.989 206.062 167.021 206.004 168.712 206.995C170.404 207.987 170.965 207.032 172.652 208.024C174.344 209.015 174.211 209.238 175.903 210.229C177.595 211.22 177.474 211.432 179.16 212.423C180.852 213.415 181.143 212.916 182.83 213.908C184.522 214.899 184.125 216.606 185.812 217.597C187.504 218.594 187.001 218.917 188.693 219.909C190.385 220.905 191.02 219.331 192.717 220.317C192.722 220.322 192.4 219.315 192.405 219.31C194.102 218.334 194.531 219.087 196.233 218.117C197.936 217.147 198.417 217.995 200.119 217.025C201.822 216.055 201.05 214.698 202.752 213.728C204.455 212.757 205.153 213.982 206.85 213.012C208.553 212.042 207.902 210.902 209.605 209.927C211.307 208.957 211.958 210.107 213.66 209.137C215.363 208.167 214.998 207.52 216.701 206.55C218.403 205.58 218.049 204.551 219.942 204.048C222.21 203.459 223.844 204.589 223.86 202.622Z" fill="#DECFF1"/>
<path class="floating-rotation" d="M193.595 219.692C192.627 217.985 191.437 218.674 189.746 217.677C188.054 216.686 188.064 216.67 186.372 215.679C184.68 214.688 184.659 214.725 182.967 213.733C181.275 212.742 181.222 212.838 179.53 211.841C177.838 210.85 178.087 210.426 176.395 209.434C174.703 208.443 174.312 209.116 172.62 208.125C170.928 207.134 171.145 206.763 169.453 205.771C167.761 204.775 167.676 204.923 165.984 203.926C164.292 202.93 163.848 200.756 162.14 201.727C160.438 202.697 162.828 204.197 162.817 206.158C162.806 208.12 162.944 208.12 162.933 210.086C162.923 212.048 162.537 212.048 162.526 214.009C162.516 215.97 162.891 215.976 162.88 217.937C162.87 219.899 162.299 219.899 162.288 221.86C162.278 223.827 162.933 223.827 162.923 225.793C162.912 227.755 162.859 227.755 162.849 229.721C162.838 231.688 161.463 231.677 161.453 233.644C161.442 235.611 160.797 236.13 161.765 237.837C162.732 239.544 163.615 239.072 165.302 240.064C166.989 241.055 166.946 241.134 168.633 242.126C170.32 243.117 171.171 241.665 172.858 242.661C174.55 243.652 174.217 244.225 175.903 245.216C177.595 246.208 177.421 246.504 179.107 247.496C180.794 248.487 180.477 249.033 182.169 250.024C183.861 251.016 184.199 250.433 185.891 251.424C187.583 252.415 187.99 251.715 189.682 252.712C191.374 253.703 191.062 256.651 192.77 255.686C194.472 254.716 192.743 253.481 192.754 251.519C192.765 249.558 191.987 249.553 192.003 247.591C192.019 245.63 193.626 245.64 193.637 243.674C193.648 241.712 193.648 241.712 193.663 239.746C193.674 237.784 192.141 237.774 192.151 235.807C192.162 233.846 192.083 233.84 192.093 231.879C192.104 229.917 192.976 229.923 192.992 227.956C193.003 225.989 192.939 226.085 193.447 224.187C194.044 221.977 194.562 221.399 193.595 219.692Z" fill="#915FD0"/>
<path class="floating-rotation" d="M223.082 203.354C221.396 202.357 221.612 203.248 219.91 204.218C218.207 205.188 218.926 206.455 217.224 207.425C215.521 208.395 214.908 207.313 213.205 208.284C211.503 209.254 211.963 210.059 210.26 211.03C208.558 212 208.204 211.374 206.501 212.344C204.799 213.314 204.825 213.362 203.123 214.332C201.42 215.302 201.885 216.124 200.183 217.094C198.48 218.064 197.983 217.195 196.281 218.165C194.578 219.135 194.546 219.082 192.844 220.052C192.839 220.057 192.384 220.094 192.384 220.1C192.368 222.061 191.866 222.061 191.85 224.022C191.839 225.984 192.479 225.989 192.463 227.95C192.453 229.912 191.131 230.156 191.115 232.117C191.104 234.078 189.777 234.073 189.767 236.035C189.756 237.996 192.31 237.763 192.299 239.729C192.289 241.691 193.547 241.701 193.531 243.663C193.521 245.624 191.681 245.614 191.67 247.58C191.66 249.547 192.172 249.589 192.157 251.556C192.146 253.523 191.427 253.618 193.119 254.615C194.805 255.606 194.108 254.079 195.81 253.109C197.513 252.139 197.375 251.895 199.078 250.925C200.78 249.955 201.536 251.286 203.239 250.316C204.941 249.345 204.545 248.646 206.247 247.676C207.95 246.706 207.86 246.546 209.563 245.576C211.265 244.606 211.667 245.317 213.369 244.347C215.072 243.376 214.48 242.327 216.182 241.357C217.885 240.387 218.657 241.744 220.359 240.774C222.062 239.804 222.374 239.719 223.368 238.022C224.357 236.331 223.442 236.008 223.458 234.047C223.468 232.085 224.156 232.085 224.166 230.124C224.177 228.162 223.135 228.152 223.146 226.19C223.156 224.229 222.374 224.224 222.384 222.257C222.395 220.296 222.807 220.296 222.818 218.334C222.828 216.368 222.379 216.368 222.395 214.401C222.405 212.434 223.177 212.44 223.193 210.478C223.204 208.512 223.865 208.639 224.277 206.72C224.653 204.955 224.774 204.35 223.082 203.354Z" fill="#C8AFE7"/>
<path class="floating-rotation" d="M197.168 307.664L219.772 308.57H223.425L213.686 325.926L207.257 333.682L194.911 359.307L192.637 360.383L185.785 345.969L173.872 322.528L166.83 313.898L163.874 310.76L187.868 306.662L197.168 307.664Z" fill="#A8E6A5"/>
<path class="floating-rotation" d="M223.912 308.804C223.927 306.843 221.686 308.131 219.999 307.14C218.312 306.149 217.99 306.695 216.298 305.703C214.611 304.712 215.573 303.063 213.881 302.067C212.19 301.076 212.19 301.081 210.498 300.09C208.806 299.098 208.779 299.146 207.087 298.155C205.401 297.163 204.459 298.775 202.767 297.784C201.076 296.792 201.715 295.7 200.023 294.704C198.331 293.712 197.707 294.778 196.016 293.787C194.324 292.795 195.101 290.648 193.139 290.638C191.183 290.622 191.622 292.233 189.919 293.204C188.217 294.174 187.736 293.32 186.028 294.29C184.325 295.26 184.293 295.207 182.591 296.177C180.888 297.147 181.28 297.837 179.577 298.807C177.875 299.777 177.399 298.939 175.696 299.909C173.994 300.879 174.142 301.139 172.439 302.115C170.737 303.085 170.948 303.456 169.24 304.431C167.538 305.401 168.008 306.233 166.301 307.209C164.598 308.179 162.034 306.446 162.018 308.412C162.002 310.374 163.662 310.262 165.349 311.254C167.041 312.245 167.073 312.187 168.764 313.178C170.456 314.169 171.017 313.215 172.704 314.206C174.396 315.198 174.263 315.42 175.955 316.411C177.647 317.403 177.526 317.615 179.212 318.606C180.904 319.597 181.195 319.099 182.882 320.09C184.574 321.082 184.177 322.789 185.864 323.78C187.556 324.777 187.053 325.1 188.745 326.091C190.437 327.088 191.072 325.513 192.769 326.499C192.774 326.505 192.452 325.497 192.457 325.492C194.154 324.517 194.583 325.27 196.285 324.299C197.988 323.329 198.469 324.178 200.171 323.207C201.874 322.237 201.102 320.88 202.804 319.91C204.507 318.94 205.205 320.165 206.902 319.195C208.605 318.224 207.954 317.085 209.657 316.109C211.359 315.139 212.01 316.29 213.712 315.319C215.415 314.349 215.05 313.703 216.753 312.733C218.455 311.762 218.101 310.734 219.994 310.23C222.262 309.637 223.896 310.771 223.912 308.804Z" fill="#A8E6A5"/>
<path class="floating-rotation" d="M193.642 325.874C192.674 324.167 191.485 324.857 189.793 323.86C188.101 322.869 188.111 322.853 186.419 321.861C184.727 320.87 184.706 320.907 183.014 319.916C181.322 318.925 181.27 319.02 179.578 318.024C177.886 317.032 178.134 316.608 176.442 315.617C174.75 314.626 174.359 315.299 172.667 314.308C170.975 313.316 171.192 312.945 169.5 311.954C167.808 310.957 167.723 311.106 166.031 310.109C164.339 309.113 163.895 306.939 162.187 307.909C160.485 308.879 162.875 310.379 162.864 312.341C162.854 314.302 162.991 314.302 162.981 316.269C162.97 318.23 162.584 318.23 162.573 320.192C162.563 322.153 162.938 322.158 162.928 324.12C162.917 326.081 162.346 326.081 162.335 328.043C162.325 330.009 162.981 330.009 162.97 331.976C162.959 333.937 162.907 333.937 162.896 335.904C162.885 337.871 161.511 337.86 161.5 339.827C161.489 341.793 160.844 342.313 161.812 344.02C162.78 345.727 163.663 345.255 165.349 346.246C167.036 347.238 166.994 347.317 168.68 348.308C170.367 349.3 171.218 347.847 172.905 348.844C174.597 349.835 174.264 350.408 175.95 351.399C177.642 352.39 177.468 352.687 179.155 353.678C180.841 354.67 180.524 355.216 182.216 356.207C183.908 357.198 184.246 356.615 185.938 357.606C187.63 358.598 188.037 357.898 189.729 358.895C191.421 359.886 191.109 362.833 192.817 361.868C194.52 360.898 192.791 359.663 192.801 357.702C192.812 355.74 192.035 355.735 192.05 353.774C192.066 351.812 193.674 351.823 193.684 349.856C193.695 347.895 193.695 347.895 193.711 345.928C193.721 343.967 192.188 343.956 192.198 341.99C192.209 340.028 192.13 340.023 192.14 338.061C192.151 336.1 193.023 336.105 193.039 334.139C193.05 332.172 192.986 332.267 193.494 330.37C194.091 328.154 194.61 327.581 193.642 325.874Z" fill="#10352B"/>
<path class="floating-rotation" d="M223.135 309.53C221.448 308.534 221.665 309.424 219.962 310.394C218.26 311.365 218.979 312.631 217.276 313.602C215.574 314.572 214.961 313.49 213.258 314.46C211.555 315.43 212.015 316.236 210.313 317.206C208.61 318.176 208.256 317.551 206.554 318.521C204.851 319.491 204.878 319.539 203.175 320.509C201.472 321.479 201.938 322.301 200.235 323.271C198.533 324.241 198.036 323.371 196.333 324.341C194.631 325.312 194.599 325.259 192.896 326.229C192.891 326.234 192.436 326.271 192.436 326.276C192.421 328.238 191.918 328.238 191.902 330.199C191.892 332.161 192.532 332.166 192.516 334.127C192.505 336.089 191.183 336.332 191.167 338.294C191.157 340.255 189.83 340.25 189.819 342.211C189.809 344.173 192.362 343.939 192.352 345.906C192.341 347.867 193.6 347.878 193.584 349.839C193.573 351.801 191.733 351.79 191.723 353.757C191.712 355.724 192.225 355.766 192.209 357.733C192.193 359.699 191.479 359.795 193.171 360.791C194.858 361.783 194.16 360.256 195.863 359.286C197.565 358.316 197.428 358.072 199.13 357.102C200.833 356.132 201.589 357.462 203.291 356.492C204.994 355.522 204.597 354.822 206.3 353.852C208.002 352.882 207.912 352.723 209.615 351.753C211.318 350.783 211.719 351.493 213.422 350.523C215.124 349.553 214.532 348.504 216.235 347.534C217.937 346.563 218.709 347.921 220.412 346.95C222.114 345.98 222.426 345.896 223.42 344.199C224.409 342.508 223.494 342.185 223.51 340.223C223.521 338.262 224.208 338.262 224.219 336.301C224.229 334.339 223.188 334.329 223.198 332.367C223.209 330.406 222.426 330.401 222.437 328.434C222.447 326.472 222.86 326.472 222.87 324.511C222.881 322.544 222.432 322.544 222.447 320.578C222.458 318.616 223.23 318.616 223.246 316.655C223.256 314.688 223.917 314.815 224.33 312.897C224.7 311.137 224.821 310.527 223.135 309.53Z" fill="#51CB59"/>
</svg>
