<svg width="699" height="754" viewBox="0 0 699 754" fill="none" xmlns="http://www.w3.org/2000/svg">
<path d="M448.49 676.299C453.877 680.422 459.367 683.718 465.309 686.882C466.806 687.686 468.29 688.511 469.774 689.343C470.732 689.877 471.691 690.41 472.65 690.943C473.503 691.418 474.357 691.893 475.236 692.383C477.609 693.533 477.609 693.533 479.747 693.989C482.276 694.597 483.657 695.694 485.776 697.299C489.88 700.282 494.086 702.28 498.69 704.255C504.096 706.578 508.393 708.937 512.924 712.846C514.479 714.052 514.479 714.052 517.062 714.515C518.127 715.028 519.175 715.583 520.207 716.167C520.81 716.505 521.414 716.842 522.035 717.191C522.661 717.546 523.287 717.902 523.932 718.268C525.167 718.963 526.401 719.657 527.635 720.351C528.231 720.687 528.827 721.023 529.442 721.369C536.247 725.186 536.247 725.186 539.608 726.625C542.944 728.101 546.11 729.859 549.302 731.663C551.104 732.567 551.104 732.567 553.688 733.03C555.008 731.905 556.07 730.839 557.178 729.528C557.495 729.158 557.813 728.789 558.14 728.408C560.605 725.404 561.995 722.293 563.31 718.581C564.487 715.843 566.053 713.576 567.766 711.179C570.23 707.72 571.89 704.539 573.097 700.362C574.089 697.703 575.745 695.656 577.496 693.485C578.543 691.961 578.779 690.82 579.15 688.993C580.006 687.701 580.006 687.701 581.08 686.424C583.437 683.246 584.777 679.853 586.182 676.14C587.474 672.78 589.082 670.11 591.155 667.236C591.24 666.753 591.326 666.269 591.414 665.77C592.034 663.257 593.872 661.855 595.623 660.084C596.675 658.623 596.675 658.623 596.702 656.916C596.772 654.416 597.854 653.347 599.344 651.496C601.931 648.268 601.931 648.268 602.151 645.495C602.857 644.493 603.607 643.522 604.385 642.576C606.464 639.728 606.464 639.728 606.453 636.994C605.125 634.343 603.986 633.086 601.45 631.456C598.618 631.339 597.233 631.857 594.979 633.31C592.495 634.736 590.784 634.887 587.872 635.059C583.837 635.401 580.388 636.897 577.024 638.806C575.56 639.471 575.56 639.471 573.498 639.637C571.044 639.955 569.072 640.61 566.819 641.48C564.415 642.386 562.112 643.229 559.539 643.691C557.511 644.161 557.511 644.161 555.738 646.194C553.575 641.768 551.591 637.472 550.313 632.791C549.59 630.19 548.883 628.272 547.246 626.032C544.826 622.536 544.128 618.772 543.127 614.837C541.91 610.207 540.135 606.18 537.993 601.793C536.539 598.548 535.682 595.321 534.812 591.941C534.146 589.601 533.25 587.532 532.08 585.352C531.321 583.51 531.024 581.687 530.64 579.779C530.073 577.504 529.045 575.465 527.996 573.324C525.148 567.357 523.045 561.338 521.255 555.08C519.792 550.074 517.876 545.191 515.974 540.292C514.764 537.141 513.672 534.059 512.866 530.822C512.02 527.478 510.722 524.481 509.18 521.33C507.102 517.034 505.327 512.892 504.369 508.294C503.75 505.903 502.849 503.92 501.7 501.69C500.935 499.789 500.602 497.936 500.209 495.97C499.595 493.496 498.502 491.211 497.419 488.861C495.771 485.165 494.396 481.646 493.483 477.766C492.162 472.552 490.203 467.48 487.825 462.552C487.095 460.887 486.573 459.235 486.049 457.516C485.141 454.584 483.991 451.875 482.65 449.068C481.123 445.839 480.033 442.839 479.231 439.44C478.471 436.511 477.4 433.662 476.361 430.792C475.601 428.628 475.601 428.628 475.126 426.365C474.588 424.137 473.839 422.21 472.893 420.082C471.712 417.349 470.669 414.666 469.805 411.849C468.987 409.197 467.975 406.749 466.757 404.212C465.483 401.544 464.971 399.533 464.671 396.686C463.734 394.203 462.599 391.808 461.184 389.512C459.077 386.081 457.776 382.82 456.646 379.057C456.304 377.956 455.96 376.856 455.616 375.756C455.455 375.236 455.294 374.716 455.128 374.181C454.574 372.423 453.963 370.685 453.329 368.946C452.353 366.396 452.353 366.396 451.937 364.263C451.26 362.228 450.398 361.568 448.611 360.299C442.931 359.478 437.841 361.615 432.916 363.542C429.65 364.789 426.599 365.519 423.053 365.984C418.787 366.545 415.484 367.77 411.742 369.592C408.719 370.955 405.66 371.565 402.174 371.448C399.196 371.61 396.663 372.458 393.911 373.354C391.013 374.281 388.167 375.181 385.156 375.81C382.859 376.339 381.07 377.113 379.018 378.157C375.355 379.857 371.988 380.465 367.863 380.859C365.286 381.171 363.018 381.851 360.614 382.664C358.746 383.282 356.852 383.789 354.937 384.29C352.617 384.907 350.375 385.582 348.154 386.43C346.074 387.211 344.007 387.759 341.801 388.22C335.188 389.603 328.891 391.575 322.656 393.902C319.017 395.256 315.556 396.335 311.593 396.807C309.375 397.097 307.279 397.669 305.145 398.229C303.896 398.553 302.634 398.838 301.369 399.115C300.506 399.304 299.643 399.493 298.754 399.687C297.808 399.892 297.808 399.892 296.842 400.1C291.637 401.284 286.81 402.897 281.916 404.812C279.745 405.688 279.745 405.688 277.167 405.03C274.46 403.182 273.375 402.213 272.56 399.11C272.487 398.634 272.414 398.159 272.339 397.669C271.853 395.144 270.851 392.788 269.909 390.353C268.924 387.799 267.982 385.234 267.049 382.666C266.742 381.823 266.434 380.981 266.118 380.112C265.51 378.396 264.936 376.671 264.39 374.941C263.613 372.62 263.613 372.62 262.329 370.381C260.62 367.309 260.049 364.094 259.336 360.777C258.609 357.401 257.761 354.775 256.06 351.65C253.877 347.293 252.402 342.751 251.321 338.121C250.225 333.457 248.564 329.173 246.165 324.882C244.66 322.063 243.878 319.244 243.093 316.23C242.056 312.25 240.699 308.995 238.723 305.257C238.007 303.224 237.443 301.169 236.867 299.107C235.375 293.996 233.505 289.173 231.267 284.264C229.12 279.554 227.555 275.216 226.598 270.222C225.978 267.682 224.811 265.598 223.508 263.276C222.658 261.707 222.658 261.707 222.511 259.339C222.221 256.963 221.888 256.059 220.728 253.976C218.642 250.02 217.171 245.974 215.7 241.818C215.433 241.084 215.167 240.35 214.892 239.593C213.783 236.493 212.728 233.467 212.102 230.28C211.662 228.182 211.314 227.057 210.083 225.281C208.02 221.959 207.051 218.578 205.978 214.932C200.478 196.53 200.478 196.53 196.184 188.486C194.473 184.461 193.13 180.378 191.941 176.225C190.944 172.796 189.606 169.698 188.034 166.439C186.835 163.706 186.079 160.931 185.274 158.102C184.524 155.638 183.555 153.301 182.528 150.913C181.319 147.943 180.346 144.92 179.35 141.895C178.658 140.079 178.658 140.079 177.527 139.093C177.653 138.666 177.778 138.24 177.907 137.801C178.36 134.827 177.536 133.046 175.828 130.337C174.059 127.431 173.014 124.447 171.947 121.302C171.698 120.569 171.698 120.569 171.444 119.822C170.754 117.737 170.133 115.705 169.727 113.575C168.901 110.524 167.552 107.942 166.025 105.115C165.746 104.589 165.467 104.063 165.18 103.521C164.498 102.236 163.809 100.953 163.119 99.6706C157.485 105.838 151.886 112.035 146.329 118.271C143.747 121.166 141.154 124.05 138.535 126.911C136.006 129.674 133.508 132.463 131.03 135.271C130.081 136.337 129.121 137.392 128.15 138.438C120.562 146.628 120.562 146.628 120.53 151.182C121.192 153.645 122.012 155.676 123.222 157.974C123.529 158.641 123.836 159.308 124.152 159.995C124.696 161.179 125.257 162.356 125.83 163.529C126.762 165.683 127.334 167.77 127.911 170.009C128.858 173.615 130.16 176.895 131.819 180.299C133.633 184.077 134.734 187.349 135.333 191.361C135.775 194.283 136.646 196.361 138.528 198.794C140.658 201.74 141.222 205.015 142.093 208.376C142.781 210.763 143.644 212.933 144.669 215.228C145.84 217.887 146.615 220.206 147.038 223.001C147.675 227.072 149.32 230.639 151.036 234.481C151.857 236.393 152.511 238.184 153.047 240.159C153.752 242.708 154.706 244.872 155.844 247.298C156.41 248.907 156.952 250.518 157.474 252.136C158.151 253.786 158.151 253.786 159.375 255.647C160.864 258.102 161.543 260.311 162.308 263.006C163.492 267.075 164.823 271.046 166.368 275.034C166.91 276.461 167.383 277.907 167.839 279.355C168.45 281.179 169.091 282.708 169.943 284.435C171.127 286.931 171.856 289.328 172.534 291.954C173.659 296.184 175.223 300.133 176.966 304.212C179.23 309.53 180.805 314.596 181.911 320.162C182.666 322.961 183.193 324.722 185.028 327.077C186.725 329.375 187.06 331.479 187.566 334.158C188.71 339.905 191.083 344.892 193.696 350.265C196.241 355.523 196.241 355.523 197.477 361.041C197.882 364.059 199.004 366.292 200.36 369.098C202.087 372.864 203.175 376.771 204.304 380.689C205.399 384.461 206.534 388.003 208.372 391.563C209.203 393.521 209.574 395.474 210.041 397.512C212.081 404.342 214.6 410.43 218.125 416.794C219.489 419.467 219.908 421.595 220.401 424.451C221.054 425.973 221.783 427.454 222.515 428.948C223.29 430.616 223.29 430.616 223.712 433.213C224.25 435.59 224.65 436.639 225.924 438.668C227.339 440.928 227.884 442.786 228.324 445.344C228.967 448.03 230.19 450.54 231.302 453.11C233.592 458.551 235.368 463.664 235.985 469.374C236.756 472.131 237.78 474.391 239.688 476.688C242.358 478.3 243.721 478.195 246.609 477.744C247.464 477.291 248.299 476.805 249.117 476.295C252.466 474.287 256.04 473.96 259.997 473.413C265.21 472.591 270.243 471.19 274.925 469.038C278.887 467.285 283.237 466.576 287.54 465.683C290.591 465.046 293.559 464.238 296.534 463.39C298.547 462.871 300.577 462.514 302.643 462.161C305.39 461.658 307.633 460.97 310.054 459.728C313.36 458.06 316.685 457.493 320.432 456.922C324.266 456.297 327.97 455.322 331.704 454.385C332.516 454.207 333.328 454.029 334.165 453.846C335.086 453.353 335.991 452.836 336.883 452.3C339.369 450.907 341.385 450.501 344.332 450.18C345.561 449.754 346.78 449.305 347.991 448.839C349.99 448.083 351.394 447.565 353.612 447.532C356.411 447.489 358.571 446.475 361.051 445.46C363.06 444.831 364.767 444.823 366.928 444.822C371.419 443.944 375.628 442.391 379.832 440.802C383.456 439.44 386.941 438.631 390.879 438.191C397.474 437.255 403.539 434.813 409.48 432.268C411.222 431.422 411.222 431.422 412.885 432.088C416.24 434.578 417.465 436.389 418.587 440.249C418.849 441.129 419.111 442.008 419.382 442.915C419.998 445.21 420.552 447.5 421.079 449.808C421.781 452.805 422.806 454.973 424.507 457.62C425.681 459.757 426.131 461.933 426.681 464.233C427.102 465.895 427.625 467.459 428.23 469.081C429.21 471.73 429.947 474.367 430.657 477.072C431.785 481.199 433.406 484.882 435.296 488.79C436.194 490.854 436.723 492.697 437.183 494.849C438.004 498.613 439.52 501.883 441.23 505.419C442.987 509.125 444.079 512.756 445.092 516.643C446.301 521.083 447.856 525.467 450.137 529.589C451.397 531.763 451.397 531.763 451.794 533.853C452.508 536.89 453.52 539.789 454.585 542.756C454.777 543.305 454.969 543.853 455.168 544.418C456.318 547.645 457.62 550.754 459.092 553.88C460.116 556.12 460.953 558.382 461.792 560.68C462.115 561.552 462.438 562.424 462.77 563.323C463.616 565.714 463.616 565.714 463.775 567.874C464.096 570.197 464.924 571.636 466.162 573.722C469.055 578.887 471.431 584.232 471.993 589.942C472.354 592.361 472.841 593.171 474.246 595.208C476.316 598.235 476.249 600.268 476.265 603.738C476.849 604.937 477.44 606.136 478.124 607.289C479.431 609.711 480.257 612.269 481.18 614.819C481.889 616.699 481.889 616.699 483.069 619.128C484.072 621.189 484.072 621.189 484.183 623.484C484.586 626.36 485.47 628.81 486.634 631.524C487.944 634.681 489.182 637.791 490.162 641.036C491.313 644.765 492.957 648.263 494.659 651.828C495.522 653.465 495.522 653.465 495.61 654.627C491.985 658.783 486.346 659.268 480.898 660.217C476.675 660.954 473.225 662.028 469.492 663.903C467.002 665.037 464.554 665.19 461.726 665.065C458.918 665.243 456.586 666.083 454.072 667.075C453.367 667.329 453.367 667.329 452.647 667.588C449.605 668.772 448.011 669.91 446.793 672.924C447.037 674.927 447.037 674.927 448.49 676.299Z" fill="#A8E6A5"/>
<path d="M344.078 21.3537C344.82 22.4675 344.82 22.4675 345.578 23.6037C348.265 23.7914 348.265 23.7914 350.828 23.6037C351.075 22.8612 351.323 22.1187 351.578 21.3537C355.006 21.7651 358.083 22.4168 361.328 23.6037C361.328 24.3462 361.328 25.0887 361.328 25.8537C362.07 25.3587 362.813 24.8637 363.578 24.3537C375.252 30.6472 375.252 30.6472 376.984 36.2131C377.015 36.7545 377.046 37.2959 377.078 37.8537C376.83 38.1012 376.583 38.3487 376.328 38.6037C376.9 38.9905 377.472 39.3772 378.062 39.7756C380.539 42.0226 381.192 43.7466 382.328 46.8537C380.605 47.7148 379.27 47.8345 377.359 48.0256C376.746 48.0885 376.133 48.1513 375.502 48.216C375.032 48.2615 374.562 48.3069 374.078 48.3537C374.325 48.3537 374.573 48.3537 374.828 48.3537C377.828 48.3537 380.828 48.3537 383.828 48.3537C385.89 52.499 387.227 56.3145 387.885 60.9074C388.233 62.6816 388.233 62.6816 389.488 64.1477C391.109 66.3133 390.729 68.2335 390.578 70.8537C391.073 70.8537 391.568 70.8537 392.078 70.8537C394.242 75.6623 396.158 80.1876 396.838 85.4436C397.291 87.2097 397.858 88.4486 398.705 90.0461C400.661 93.821 401.809 97.7689 403 101.838C403.218 102.565 403.436 103.291 403.66 104.04C407.588 117.213 407.588 117.213 408.531 122.744C409.103 125.772 410.105 128.117 411.575 130.807C412.419 132.542 412.934 134.246 413.453 136.104C414.275 139.013 415.33 141.53 416.746 144.193C418.158 147.013 419.29 149.951 420.466 152.876C421.308 154.968 421.308 154.968 422.828 157.104C423.193 158.588 423.556 160.072 423.906 161.56C424.675 164.373 425.923 166.792 427.75 169.057C429.221 171.168 429.661 173.386 430.328 175.854C433.175 175.453 436.017 175.023 438.859 174.588C439.655 174.476 440.45 174.365 441.27 174.25C447.495 173.276 452.382 171.257 457.703 167.932C459.524 166.885 461.271 166.187 463.234 165.447C466.225 164.291 468.557 162.926 471.083 160.974C472.395 160.057 473.656 159.477 475.14 158.885C477.556 158.076 477.556 158.076 478.703 156.541C479.828 155.604 479.828 155.604 482.593 155.838C483.823 156.093 483.823 156.093 485.078 156.354C485.774 159.603 485.774 162.104 485.078 165.354C485.867 164.967 486.656 164.58 487.468 164.182C489.949 163.117 491.471 162.886 494.078 163.854C494.573 164.349 495.068 164.844 495.578 165.354C495.343 167.463 495.343 167.463 494.828 169.854C494.688 170.565 494.549 171.277 494.406 172.01C494.298 172.536 494.189 173.062 494.078 173.604C496.91 173.827 496.91 173.827 498.578 172.854C500.077 172.824 501.578 172.821 503.078 172.854C503.593 174.541 503.593 174.541 503.828 176.604C502.75 178.244 502.75 178.244 501.578 179.604C501.578 180.099 501.578 180.594 501.578 181.104C502.088 180.995 502.599 180.887 503.125 180.776C505.615 180.299 508.051 179.842 510.578 179.604C512.078 181.104 512.078 181.104 512.245 182.489C511.859 187.821 509.562 190.702 506.078 194.604C505.647 195.123 505.217 195.642 504.774 196.177C500.639 201.111 495.551 206.614 489.484 209.041C486.272 210.34 483.644 212.361 480.841 214.367C477.031 217.039 473.937 218.092 469.328 218.604C468.323 218.836 467.32 219.076 466.328 219.354C466.823 220.591 467.318 221.829 467.828 223.104C467.267 223.249 466.706 223.394 466.128 223.543C465.39 223.738 464.651 223.934 463.89 224.135C462.794 224.422 462.794 224.422 461.675 224.715C459.63 225.272 459.63 225.272 458.048 226.13C456.291 226.995 454.659 227.309 452.734 227.651C450.069 228.116 450.069 228.116 447.578 229.104C440.193 230.53 432.785 230.951 425.286 231.161C423.529 231.213 421.775 231.285 420.02 231.358C413.087 231.596 407.047 231.036 400.328 229.104C399.274 228.86 398.219 228.619 397.164 228.383C393.739 227.442 390.496 226.205 387.203 224.885C386.277 224.52 386.277 224.52 385.334 224.147C383.83 223.552 382.329 222.954 380.828 222.354C382.391 223.059 383.956 223.758 385.527 224.446C386.887 225.048 388.239 225.669 389.582 226.309C399.256 230.719 409.288 231.784 419.828 231.354C421.338 231.304 422.849 231.254 424.36 231.204C438.587 231.223 438.587 231.223 452.078 227.604C453.701 227.178 455.328 226.841 456.973 226.511C459.764 225.898 462.485 225.052 465.217 224.22C467.837 223.704 469.254 224.12 471.531 225.456C478.344 230.579 485.307 237.559 488.283 245.689C488.86 247.34 488.86 247.34 490.421 249.494C491.898 251.709 492.547 253.567 493.328 256.104C493.841 257.292 494.357 258.479 494.875 259.666C496.236 262.993 496.748 266.004 496.946 269.58C496.988 271.154 496.988 271.154 497.828 272.604C498.003 277.504 498.003 277.504 497.078 279.354C496.875 280.773 496.69 282.196 496.515 283.619C495.096 292.993 492.128 300.916 486.578 308.604C486.172 309.193 485.766 309.783 485.347 310.391C483.411 313.119 482.116 314.65 479.078 316.104C478.552 317.09 478.054 318.092 477.578 319.104C475.501 321.61 474.071 322.493 470.828 322.854C471.769 325.678 472.993 326.3 475.328 328.104C482.922 335.276 489.82 343.351 495.135 352.34C496.291 354.291 497.469 356.225 498.657 358.156C499.427 359.42 500.198 360.684 500.968 361.947C501.358 362.579 501.749 363.21 502.15 363.861C504.146 367.149 505.845 370.313 507.084 373.957C507.629 375.575 507.629 375.575 508.788 377.911C510.052 381.185 510.413 384.208 510.718 387.682C510.81 388.612 510.81 388.612 510.904 389.561C511.053 391.075 511.191 392.589 511.328 394.104C511.988 394.214 512.648 394.324 513.329 394.438C521.339 395.985 521.339 395.985 523.609 398.463C524.828 400.854 524.828 400.854 524.921 403.197C523.616 406.533 521.29 407.907 518.098 409.388C517.333 409.681 516.569 409.974 515.781 410.276C512.673 411.444 512.673 411.444 509.914 413.23C508.167 414.467 506.907 414.842 504.821 415.262C503.804 415.476 503.804 415.476 502.766 415.695C502.049 415.84 501.332 415.985 500.593 416.135C489.55 418.474 489.55 418.474 479.078 422.604C477.422 422.657 475.765 422.667 474.109 422.651C473.218 422.644 472.326 422.637 471.408 422.63C470.721 422.621 470.035 422.613 469.328 422.604C467.352 419.672 466.184 417.526 465.953 413.979C464.833 397.822 456.854 379.522 445.187 368.276C440.537 364.35 435.337 361.278 430.115 358.187C428.828 357.354 428.828 357.354 426.83 355.59C425.179 354.15 425.179 354.15 423.206 354.477C422.586 354.684 421.966 354.891 421.328 355.104C420.387 355.344 420.387 355.344 419.426 355.59C418.801 355.77 418.175 355.95 417.531 356.135C416.59 356.399 416.59 356.399 415.629 356.668C413.783 357.271 413.783 357.271 412.31 358.529C410.567 359.793 409.532 359.914 407.406 360.026C404.793 360.171 404.121 360.325 401.828 361.854C392.17 364.008 382.237 364.177 372.39 364.244C371.138 364.259 371.138 364.259 369.86 364.274C364.186 364.28 359.205 363.646 353.828 361.854C352.5 361.777 351.172 361.717 349.843 361.666C345.131 361.313 341.144 359.98 336.753 358.288C334.839 357.551 332.967 356.935 331 356.369C317 351.669 301.102 340.469 293.078 328.104C292.474 327.516 291.871 326.928 291.25 326.322C288.881 323.896 287.286 321.264 285.578 318.354C285.191 317.72 284.804 317.085 284.406 316.432C283.563 315.003 282.739 313.563 281.921 312.119C280.853 310.234 279.724 308.407 278.546 306.588C274.039 299.311 271.3 292.338 269.147 284.077C268.128 280.19 268.128 280.19 266.374 276.6C264.947 274.219 264.788 272.119 264.484 269.369C264.396 268.586 264.396 268.586 264.307 267.787C260.983 236.746 260.983 236.746 266.078 229.104C266.366 227.124 266.366 227.124 266.453 224.979C266.608 222.098 266.686 221.066 268.328 218.604C268.48 217.053 268.631 215.503 268.77 213.951C269.401 209.649 270.836 205.513 272.078 201.354C273.054 197.897 273.716 194.453 274.234 190.901C274.689 188.013 275.279 185.642 276.578 183.026C278.301 179.528 278.656 176.093 279.156 172.256C279.669 169.332 280.679 166.872 281.866 164.167C282.846 161.67 283.322 159.159 283.782 156.524C284.078 154.854 284.078 154.854 284.47 153.462C285.164 150.338 285.133 147.1 285.294 143.911C285.566 141.46 286.157 139.863 287.078 137.604C287.578 135.433 287.919 133.244 288.25 131.041C288.347 130.392 288.445 129.743 288.545 129.074C289.607 121.424 289.789 113.753 290.005 106.042C290.109 102.902 290.302 99.7701 290.5 96.635C291.672 86.8375 291.672 86.8375 290.078 77.6037C290.134 67.9586 290.805 56.9927 297.012 49.2824C298.332 47.5984 299.218 45.9581 300.156 44.0412C302.115 40.4161 304.678 38.5733 308.078 36.3537C309.377 35.4507 310.674 34.5444 311.968 33.635C312.866 33.0172 312.866 33.0172 313.782 32.3869C315.029 31.4958 316.244 30.5579 317.429 29.5862C322.535 25.599 328.438 23.3691 334.656 21.7756C335.414 21.5777 335.414 21.5777 336.187 21.3757C339.028 20.7028 341.301 20.341 344.078 21.3537Z" fill="#F2F4F3"/>
<path d="M486.578 242.604C493.068 242.766 498.824 243.045 504.892 245.574C506.922 246.391 508.925 246.945 511.047 247.479C515.839 248.741 520.178 250.568 524.406 253.15C526.501 254.402 528.524 255.079 530.875 255.729C534.098 256.635 536.352 257.866 539.078 259.854C540.294 260.562 541.513 261.265 542.734 261.963C545.847 263.81 548.433 265.879 551.087 268.326C552.606 269.627 554.154 270.626 555.859 271.666C559.571 274.044 562.231 277.142 565.111 280.446C566.463 281.948 567.724 283.19 569.312 284.416C571.811 286.507 573.32 288.613 575.078 291.354C575.078 291.849 575.078 292.344 575.078 292.854C575.883 292.81 576.689 292.767 577.519 292.722C587.237 292.355 587.237 292.355 590.406 294.635C592.591 296.873 593.008 297.387 593.307 300.453C593.027 304.004 591.943 306.226 590.172 309.26C589.87 309.786 589.568 310.311 589.257 310.853C586.479 315.476 583.14 318.859 578.828 322.104C577.973 322.759 577.973 322.759 577.1 323.428C576.108 324.176 575.108 324.915 574.097 325.637C572.798 326.579 572.798 326.579 571.683 327.77C570.247 329.178 568.569 329.982 566.819 330.945C565.22 331.919 563.827 333.015 562.375 334.197C559.157 336.747 555.796 339.013 552.344 341.229C551.823 341.572 551.303 341.915 550.766 342.269C550.269 342.583 549.771 342.897 549.259 343.221C548.815 343.505 548.371 343.79 547.913 344.083C546.159 344.767 545.305 344.554 543.578 343.854C542.131 341.996 542.131 341.996 540.672 339.635C538.665 336.487 536.644 333.645 534.145 330.884C532.917 329.41 531.938 327.854 530.922 326.229C528.965 323.209 526.757 321.046 523.984 318.772C522.578 317.604 522.578 317.604 520.656 315.588C518.921 313.942 517.235 312.844 515.128 311.729C513.578 310.854 513.578 310.854 511.724 309.579C507.333 306.566 503.551 304.91 498.341 303.819C495.884 303.251 493.995 302.368 491.828 301.104C492.573 297.55 493.383 294.105 494.5 290.65C495.515 287.391 495.944 284.278 496.17 280.877C496.328 279.354 496.328 279.354 497.078 277.854C497.307 274.364 497.307 274.364 496.328 271.104C496.109 269.434 495.909 267.761 495.719 266.088C495.12 261.679 494.228 259.029 491.828 255.354C491.581 254.456 491.333 253.559 491.078 252.635C490.268 249.901 489.108 248.535 487.328 246.354C487.037 245.112 486.781 243.862 486.578 242.604Z" fill="#51CB59"/>
<path d="M470.172 99.1187C470.856 99.1066 471.541 99.0945 472.246 99.082C476.83 99.0788 480.897 99.6303 485.078 101.603C485.821 102.346 485.821 102.346 486.578 103.103C486.297 105.822 486.297 105.822 485.828 108.353C483.848 109.096 481.868 109.838 479.828 110.603C479.828 111.098 479.828 111.593 479.828 112.103C480.679 112.335 481.53 112.567 482.406 112.806C485.078 113.603 485.078 113.603 485.828 114.353C486.109 116.134 486.109 116.134 485.828 118.103C483.953 119.462 483.953 119.462 482.078 120.353C482.101 122.165 482.101 122.165 482.828 124.103C485.003 125.409 485.003 125.409 487.328 126.353C487.823 126.848 488.318 127.343 488.828 127.853C488.688 129.728 488.688 129.728 488.078 131.603C485.89 133.062 484.609 133.443 482.078 133.853C482.114 135.262 482.114 135.262 482.828 136.853C483.942 137.596 483.942 137.596 485.078 138.353C487.328 139.853 487.328 139.853 488.125 141.4C488.078 142.853 488.078 142.853 487.179 144.004C485.528 145.347 484.242 145.661 482.172 146.134C477.216 147.385 472.57 149.215 467.828 151.103C466.775 151.487 466.775 151.487 465.701 151.879C462.339 153.126 459.818 154.314 457.149 156.784C454.02 159.316 450.32 161.12 446.828 163.103C441.342 166.27 436.11 170.555 432.578 175.853C431.836 175.853 431.093 175.853 430.328 175.853C430.084 175.346 429.839 174.84 429.587 174.318C429.095 173.314 429.095 173.314 428.594 172.291C428.272 171.629 427.95 170.968 427.618 170.287C426.651 168.488 425.572 166.965 424.328 165.353C423.303 163.181 422.738 161.193 422.219 158.837C421.457 155.64 420.065 152.94 418.551 150.037C416.307 145.576 414.648 140.844 412.923 136.165C411.973 133.671 410.937 131.213 409.905 128.752C409.328 127.103 409.328 127.103 409.328 124.853C409.781 124.617 410.233 124.381 410.699 124.138C411.299 123.817 411.898 123.496 412.516 123.166C413.107 122.852 413.699 122.539 414.309 122.216C416.109 121.187 416.109 121.187 417.391 119.709C419.84 117.378 422.678 115.951 425.641 114.353C426.221 114.034 426.801 113.715 427.398 113.386C430.602 111.634 433.836 109.979 437.119 108.382C438.647 107.566 440.022 106.626 441.446 105.643C444.976 103.388 448.598 102.833 452.688 102.212C454.084 101.988 455.479 101.758 456.874 101.524C457.789 101.383 457.789 101.383 458.722 101.239C467.578 99.1097 467.578 99.1097 470.172 99.1187Z" fill="#51CB59"/>
<path d="M361.328 48.3535C361.699 49.096 361.699 49.096 362.078 49.8535C361.831 50.3485 361.583 50.8435 361.328 51.3535C360.843 57.2508 361.522 62.3216 363.578 67.8535C363.207 68.2248 363.207 68.2248 362.828 68.6035C362.729 70.2743 362.655 71.9466 362.594 73.6191C362.317 77.8272 361.976 80.3832 359.078 83.6035C358.537 84.346 357.995 85.0885 357.438 85.8535C354.303 89.433 350.981 92.2153 346.185 92.9902C341.179 93.1527 336.866 92.7375 332.828 89.6035C331.411 88.1786 330.293 86.7233 329.078 85.1035C328.537 84.593 327.995 84.0826 327.438 83.5566C325.826 81.8344 325.164 80.6422 324.578 78.3535C324.766 75.9629 324.766 75.9629 325.328 73.1035C325.405 72.5205 325.481 71.9376 325.56 71.3369C326.435 65.5141 328.819 61.3187 333.01 57.2012C337.369 54.3608 344.608 54.5263 349.656 55.5723C353.973 57.2384 358.142 59.2431 360.578 63.3535C360.207 62.2398 360.207 62.2398 359.828 61.1035C359.738 59.3552 359.697 57.6041 359.688 55.8535C359.677 54.9254 359.666 53.9973 359.655 53.041C359.828 50.6035 359.828 50.6035 361.328 48.3535Z" fill="#E3E7E5"/>
<path d="M375.738 39.0142C377.83 39.354 377.83 39.354 379.798 40.9946C380.743 42.9273 381.632 44.8184 382.33 46.854C380.607 47.7151 379.272 47.8348 377.361 48.0259C376.748 48.0887 376.135 48.1516 375.503 48.2163C375.034 48.2617 374.564 48.3072 374.08 48.354C374.327 48.354 374.575 48.354 374.83 48.354C377.83 48.354 380.83 48.354 383.83 48.354C385.892 52.4993 387.229 56.3147 387.887 60.9077C388.404 62.8903 389.359 63.9791 390.58 65.604C391.093 67.834 390.878 69.2556 390.58 71.604C387.201 74.8739 381.3 75.3923 376.752 75.6821C372.221 75.5866 368.08 73.413 364.59 70.6079C360.825 65.9365 360.118 59.1057 360.336 53.3228C360.654 50.7509 361.394 49.0068 362.83 46.854C363.309 46.0806 363.789 45.3071 364.283 44.5102C367.781 39.634 369.761 38.8106 375.738 39.0142Z" fill="#EAEDEC"/>
<path d="M379.141 37.5254C384.145 37.6045 389.193 40.4445 392.852 43.7158C393.96 44.9734 394.93 46.1891 395.828 47.6035C396.117 48.0173 396.406 48.4311 396.704 48.8574C397.682 51.5944 397.317 54.208 397.094 57.0723C397.057 57.6543 397.021 58.2363 396.984 58.8359C396.689 63.1311 396.689 63.1311 395.828 64.8535C395.333 64.8535 394.838 64.8535 394.328 64.8535C394.127 65.4259 393.926 65.9982 393.719 66.5879C392.857 68.5377 392.102 69.4301 390.578 70.8535C390.487 70.3837 390.396 69.9138 390.303 69.4297C390.177 68.8167 390.051 68.2038 389.922 67.5723C389.8 66.9632 389.678 66.3541 389.553 65.7266C389.178 63.9635 389.178 63.9635 387.578 62.6035C387.183 61.0273 387.183 61.0273 386.875 59.1348C386.228 55.5757 385.191 52.4497 383.828 49.1035C383.205 49.1035 382.581 49.1035 381.938 49.1035C378.818 49.1035 375.698 49.1035 372.578 49.1035C374.376 47.3053 375.078 47.3464 377.547 47.1348C378.466 47.0507 378.466 47.0507 379.404 46.9648C379.874 46.9281 380.344 46.8914 380.828 46.8535C380.828 43.6475 379.985 42.4657 377.828 40.1035C375.327 39.492 372.897 39.3633 370.328 39.3535C370.328 39.106 370.328 38.8585 370.328 38.6035C373.261 38.1846 376.199 37.8686 379.141 37.5254Z" fill="#10352B" fill-opacity="0.2"/>
<path d="M425.078 292.854C426.329 293.1 427.579 293.351 428.828 293.604C430.1 293.86 430.1 293.86 431.397 294.122C440.2 296.095 448.311 299.265 455.646 304.61C457.971 306.435 457.971 306.435 460.562 307.291C463.978 308.614 466.345 311.22 468.933 313.736C470.946 315.454 472.925 316.515 475.328 317.604C475.328 318.099 475.328 318.594 475.328 319.104C470.143 317.178 466.735 314.553 463.038 310.449C461.654 309.196 460.417 308.639 458.688 307.947C456.36 306.96 454.246 305.901 452.125 304.525C446.243 300.773 440.665 298.406 433.86 296.927C430.653 296.214 427.956 295.185 425.078 293.604C425.078 293.356 425.078 293.109 425.078 292.854Z" fill="#10352B" fill-opacity="0.3"/>
<path d="M361.329 48.3535C361.577 48.8485 361.824 49.3435 362.079 49.8535C361.832 50.3485 361.584 50.8435 361.329 51.3535C360.844 57.2508 361.523 62.3216 363.579 67.8535C363.332 68.101 363.084 68.3485 362.829 68.6035C362.615 71.2961 362.492 73.9886 362.363 76.6865C362.079 79.1035 362.079 79.1035 360.579 80.6035C360.592 79.1939 360.592 79.1939 360.605 77.7559C360.613 76.5176 360.619 75.2793 360.626 74.041C360.632 73.4223 360.639 72.8035 360.645 72.166C360.649 71.2669 360.649 71.2669 360.652 70.3496C360.656 69.7997 360.66 69.2499 360.664 68.6833C360.63 67.0743 360.63 67.0743 360.153 65.4475C360.046 65.004 359.939 64.5605 359.829 64.1035C360.077 63.856 360.324 63.6085 360.579 63.3535C360.332 62.611 360.084 61.8685 359.829 61.1035C359.739 59.3552 359.698 57.6041 359.688 55.8535C359.678 54.9254 359.667 53.9973 359.656 53.041C359.829 50.6035 359.829 50.6035 361.329 48.3535Z" fill="#6D837C"/>
<path d="M370.328 39.3535C369.364 41.5037 368.4 43.0856 366.578 44.6035C366.083 44.6035 365.588 44.6035 365.078 44.6035C364.831 45.0985 364.583 45.5935 364.328 46.1035C364.674 42.993 366.965 39.3535 370.328 39.3535Z" fill="#98A8A2"/>
<path d="M325.256 74.0118C324.892 74.4288 324.529 74.8457 324.154 75.2754C323.602 75.2343 323.05 75.1933 322.482 75.151C316.843 76.9414 312.411 79.4953 308.075 83.4985C307.753 83.3634 307.43 83.2284 307.097 83.0893C304.525 83.9133 301.988 84.8225 299.444 85.7276C297.101 86.3824 297.101 86.3824 295.144 85.5641C296.453 85.0409 296.453 85.0409 297.788 84.5071C298.936 84.0434 300.084 83.5795 301.231 83.1155C301.806 82.8863 302.381 82.6572 302.973 82.4211C303.806 82.083 303.806 82.083 304.655 81.7381C305.166 81.533 305.676 81.3278 306.201 81.1164C307.676 80.4733 307.676 80.4733 309 79.4143C309.369 79.1471 309.739 78.8799 310.12 78.6046C310.443 78.7396 310.766 78.8746 311.098 79.0137C311.691 78.5028 312.284 77.9918 312.894 77.4654C314.477 76.7179 316.081 76.0149 317.697 75.3417C318.551 74.9794 319.405 74.6171 320.286 74.2439C322.606 73.4782 322.606 73.4782 325.256 74.0118Z" fill="#6D837C"/>
<path d="M356.062 112.223C352.055 112.989 348.048 113.756 344.041 114.522C342.526 115.801 342.526 115.801 341.044 117.36C340.533 117.879 340.021 118.397 339.495 118.931C339.107 119.332 338.719 119.733 338.32 120.147C338.105 120.001 337.89 119.855 337.669 119.705C339.27 116.538 340.728 113.819 344.045 112.3C347.374 111.427 350.657 110.838 354.109 110.897C354.753 111.335 355.398 111.772 356.062 112.223Z" fill="#284A40"/>
<path d="M340.905 64.2957C344.813 64.5436 347.554 66.1011 350.688 68.3322C351.677 70.3812 351.677 70.3812 352.005 72.0389C351.516 72.2128 351.027 72.3867 350.523 72.5659C349.843 71.671 349.843 71.671 349.15 70.7579C347.226 68.2818 347.226 68.2818 344.923 66.2069C341.955 65.9788 339.17 67.1503 336.506 68.3645C334.581 70.6383 334.581 70.6383 333.112 72.9111C332.623 73.085 332.134 73.2589 331.63 73.4382C332.081 75.4822 332.532 77.5263 332.996 79.6323C332.507 79.8062 332.018 79.9802 331.514 80.1594C329.678 74.9929 329.678 74.9929 330.982 72.1387C333.853 67.852 335.806 65.7284 340.905 64.2957Z" fill="#34534B"/>
<path d="M377.623 51.3905C381.532 51.6383 384.272 53.1958 387.407 55.427C388.396 57.4759 388.396 57.4759 388.724 59.1336C388.235 59.3075 387.746 59.4815 387.242 59.6607C386.562 58.7657 386.562 58.7657 385.869 57.8526C383.945 55.3765 383.945 55.3765 381.642 53.3016C378.673 53.0735 375.889 54.2451 373.225 55.4592C371.3 57.733 371.3 57.733 369.831 60.0058C369.342 60.1797 368.853 60.3537 368.349 60.5329C368.799 62.5769 369.25 64.621 369.715 66.727C369.226 66.901 368.736 67.0749 368.232 67.2541C366.396 62.0876 366.396 62.0876 367.701 59.2334C370.572 54.9467 372.524 52.8231 377.623 51.3905Z" fill="#34534B"/>
<path d="M348.144 21.7896C347.802 25.9001 347.802 25.9001 346.127 27.8437C345.991 28.2495 345.856 28.6553 345.717 29.0734C344.852 30.9399 343.812 31.7844 342.091 32.8888C340.252 32.8888 339.112 32.7298 337.551 31.7536C337.046 30.8707 337.046 30.8707 337.109 29.6725C337.988 27.0353 339.104 25.589 341.523 24.2175C342.161 23.8478 342.161 23.8478 342.812 23.4706C344.636 22.5251 346.071 21.7896 348.144 21.7896Z" fill="#EFF1F0"/>
<path d="M337.425 0.0328442C337.776 0.0373966 338.128 0.041949 338.491 0.0466394C339.355 0.0584739 340.218 0.0765696 341.082 0.095908C341.082 0.262397 341.082 0.428885 341.082 0.600419C340.486 0.584811 340.486 0.584811 339.878 0.568887C334.553 0.669715 330.781 2.54473 326.876 6.1461C324.768 8.45378 323.083 11.0873 321.408 13.7177C321.075 14.2172 320.742 14.7166 320.399 15.2312C319.016 19.2255 318.383 24.3119 319.973 28.2973C320.654 29.5051 320.654 29.5051 321.41 30.5498C321.658 30.9586 321.658 30.9586 321.912 31.3756C321.746 31.7086 321.579 32.0415 321.408 32.3846C320.91 31.7571 320.417 31.1257 319.926 30.4927C319.651 30.1415 319.376 29.7903 319.092 29.4285C317.088 26.3862 317.623 22.2593 317.876 18.7628C318.733 15.1402 320.753 12.1504 322.921 9.1771C323.318 8.59862 323.318 8.59862 323.723 8.00845C325.877 5.01263 328.347 3.00969 331.497 1.10493C331.799 0.907875 332.102 0.71082 332.413 0.507794C334.061 -0.108397 335.692 -0.00973665 337.425 0.0328442Z" fill="#1F403A"/>
<path d="M347.479 4.28564C349.651 6.80939 350.611 9.70576 350.704 13.0239C350.537 15.0135 350.105 16.4971 349.154 18.2582C349.171 17.8433 349.189 17.4284 349.207 17.0009C349.425 10.7578 349.425 10.7578 346.529 5.48188C345.719 4.77241 344.89 4.08386 344.04 3.42245C343.73 3.15711 343.419 2.89177 343.1 2.61839C343.1 2.28541 343.1 1.95244 343.1 1.60937C340.27 1.44288 337.44 1.27639 334.524 1.10486C334.524 0.938369 334.524 0.771881 334.524 0.600347C335.564 0.487693 336.604 0.384402 337.645 0.285028C338.225 0.226497 338.804 0.167965 339.401 0.107661C342.915 0.0829403 344.997 1.98152 347.479 4.28564Z" fill="#36514F"/>
<path d="M347.64 22.7988C348.649 24.3124 348.649 24.3124 348.554 25.5106C348.1 26.9792 347.468 28.0701 346.631 29.3575C346.303 29.9974 346.303 29.9974 345.969 30.6503C344.568 32.6744 342.999 33.7279 340.578 34.1819C338.346 33.7633 337.541 33.0993 336.037 31.3755C336.067 29.6156 336.261 28.4063 337.046 26.8349C337.379 26.8349 337.712 26.8349 338.055 26.8349C337.889 28.1668 337.722 29.4987 337.551 30.871C338.347 31.7332 338.347 31.7332 339.569 32.3845C341.486 32.3503 342.669 32.1915 344.235 31.0602C346.061 28.5814 346.861 25.7343 347.64 22.7988Z" fill="#3A5950"/>
<path d="M349.658 16.2402C349.824 16.2402 349.991 16.2402 350.162 16.2402C350.162 17.7386 350.162 19.237 350.162 20.7808C351.993 20.7808 353.825 20.7808 355.711 20.7808C355.711 20.9473 355.711 21.1138 355.711 21.2853C352.715 21.5351 352.715 21.5351 349.658 21.7899C349.325 22.6223 348.992 23.4547 348.649 24.3124C348.482 24.3124 348.316 24.3124 348.144 24.3124C348.144 23.48 348.144 22.6475 348.144 21.7899C344.633 23.1449 341.515 24.484 338.559 26.835C338.227 26.6685 337.894 26.502 337.551 26.3305C338.74 25.0281 340.01 24.1711 341.523 23.2719C342.161 22.8885 342.161 22.8885 342.812 22.4974C344.99 21.3089 346.653 20.638 349.153 20.7808C349.32 19.2824 349.486 17.784 349.658 16.2402Z" fill="#2A4A44"/>
<path d="M318.885 16.2402C319.421 17.1862 319.421 17.1862 319.894 18.2583C319.728 18.5913 319.561 18.9242 319.39 19.2673C319.026 23.4708 318.905 26.9853 321.41 30.5498C321.576 30.8223 321.741 31.0948 321.912 31.3756C321.746 31.7085 321.579 32.0415 321.408 32.3846C320.91 31.7571 320.417 31.1257 319.926 30.4927C319.651 30.1415 319.376 29.7903 319.092 29.4285C317.658 27.2503 317.795 25.1471 317.782 22.5782C317.771 21.5958 317.771 21.5958 317.76 20.5936C317.869 18.8865 318.143 17.7633 318.885 16.2402Z" fill="#304E4A"/>
<path d="M347.64 22.7988C348.649 24.3124 348.649 24.3124 348.554 25.5106C348.1 26.9792 347.468 28.0701 346.631 29.3575C346.402 29.7945 346.173 30.2315 345.937 30.6818C344.992 32.063 344.07 32.6361 342.595 33.3936C342.429 33.0606 342.262 32.7276 342.091 32.3845C342.793 31.8695 342.793 31.8695 343.51 31.344C346.128 29.1565 346.797 25.9776 347.64 22.7988Z" fill="#304F47"/>
<path d="M346.631 3.62743C346.298 3.96041 345.965 4.29338 345.622 4.63645C344.761 3.99036 343.92 3.31581 343.1 2.61841C343.1 2.28543 343.1 1.95245 343.1 1.60939C340.27 1.4429 337.44 1.27641 334.524 1.10487C334.524 0.938386 334.524 0.771897 334.524 0.600364C335.564 0.48771 336.604 0.384418 337.645 0.285044C338.225 0.226513 338.804 0.167982 339.401 0.107677C342.635 0.0849273 344.321 1.58542 346.631 3.62743Z" fill="#465E5F"/>
<path d="M355.712 20.7808C358.527 21.8532 360.435 23.6322 361.765 26.3304C361.594 27.4675 361.594 27.4675 361.261 28.3484C360.97 27.901 360.678 27.4535 360.378 26.9926C358.888 24.7673 357.448 22.8058 355.207 21.2853C355.374 21.1188 355.54 20.9523 355.712 20.7808Z" fill="#294843"/>
<path d="M323.426 8.67236C323.758 8.83885 324.091 9.00534 324.434 9.17687C324.234 9.46368 324.033 9.75048 323.826 10.046C322.221 12.3842 320.909 14.6004 319.894 17.249C319.728 17.249 319.561 17.249 319.39 17.249C319.219 15.4088 319.195 14.5006 320.273 12.9607C320.647 12.5445 321.022 12.1283 321.408 11.6994C322.106 10.7059 322.763 9.69039 323.426 8.67236Z" fill="#1F403A"/>
<path d="M327.461 3.62744C327.794 3.62744 328.127 3.62744 328.47 3.62744C327.629 5.61592 326.338 7.05271 324.939 8.67255C324.44 8.50606 323.94 8.33957 323.426 8.16804C324.074 7.4083 324.726 6.6522 325.38 5.89774C325.925 5.2656 325.925 5.2656 326.48 4.6207C326.804 4.29292 327.128 3.96515 327.461 3.62744Z" fill="#314E4B"/>
<g clip-path="url(#clip0_2415_1088)">
<path d="M584.094 31.8453C583.338 31.6052 583.347 31.5772 582.59 31.3371C581.834 31.097 581.884 30.9416 581.127 30.7015C580.371 30.4614 580.302 30.6799 579.546 30.4398C578.789 30.1997 578.801 30.1634 578.045 29.9233C577.289 29.6832 577.288 29.6863 576.531 29.4462C575.775 29.206 575.788 29.1646 575.032 28.9245C574.276 28.6844 574.323 28.5352 573.567 28.2951C572.811 28.0549 572.799 28.0943 572.042 27.8542C571.286 27.6141 571.239 27.7632 570.483 27.5231C569.727 27.283 569.727 27.2809 568.971 27.0408C568.215 26.8007 568.178 26.9157 567.422 26.6755C566.666 26.4354 566.719 26.2686 565.963 26.0285C565.207 25.7884 565.178 25.8795 564.422 25.6394C563.665 25.3993 563.66 25.4148 562.904 25.1747C562.148 24.9346 562.201 24.7668 561.445 24.5267C560.689 24.2865 560.681 24.3124 559.925 24.0723C559.168 23.8322 559.183 23.7876 558.426 23.5475C557.67 23.3074 557.683 23.268 556.927 23.0279C556.17 22.7878 556.149 22.8551 555.393 22.615C554.637 22.3749 554.594 22.5106 553.837 22.2705C553.081 22.0303 553.137 21.8563 552.38 21.6162C551.624 21.3761 551.619 21.3926 550.863 21.1525C550.107 20.9124 550.093 20.9549 549.337 20.7147C548.581 20.4746 548.563 20.5316 547.805 20.2911C547.049 20.051 547.024 20.1318 546.267 19.8917C545.511 19.6516 545.54 19.5604 544.783 19.32C544.027 19.0798 544.055 18.9928 543.298 18.7527C542.541 18.5122 542.491 18.6697 541.735 18.4296C540.978 18.1891 541.017 18.0659 540.261 17.8257C539.76 17.6669 539.254 17.4936 538.751 17.4262C538.234 17.3566 537.709 17.6095 537.2 17.6302C536.68 17.6524 536.173 17.6133 535.673 17.7235C535.168 17.8345 534.601 17.788 534.126 17.9838C533.65 18.1804 533.165 18.4303 532.729 18.7067C532.295 18.9817 531.866 19.3178 531.483 19.666C531.105 20.011 530.925 20.5573 530.609 20.9688C530.297 21.3727 530.077 21.8216 529.835 22.2843C529.6 22.7342 529.269 23.1421 529.11 23.6424C528.87 24.3966 528.803 24.3752 528.564 25.1283C528.324 25.8824 528.375 25.8985 528.136 26.6526C527.896 27.4068 527.934 27.4186 527.694 28.1727C527.455 28.9269 527.357 28.8959 527.118 29.649C526.879 30.4032 527.107 30.4755 526.867 31.2297C526.628 31.9838 526.446 31.9262 526.207 32.6793C525.968 33.4334 526.099 33.4752 525.86 34.2293C525.62 34.9835 525.591 34.9743 525.352 35.7284C525.112 36.4825 524.967 36.4365 524.728 37.1906C524.488 37.9447 524.556 37.9661 524.316 38.7202C524.077 39.4743 524.209 39.5164 523.97 40.2706C523.73 41.0247 523.461 40.9392 523.222 41.6933C522.982 42.4474 523.046 42.4678 522.807 43.2219C522.567 43.9761 522.701 44.0185 522.462 44.7726C522.222 45.5268 522.127 45.4965 521.887 46.2506C521.648 47.0047 521.59 46.9863 521.35 47.7405C521.111 48.4946 521.163 48.511 520.923 49.2651C520.684 50.0193 520.834 50.067 520.594 50.8211C520.355 51.5752 520.288 51.5538 520.048 52.308C519.809 53.0621 519.683 53.0223 519.444 53.7764C519.204 54.5305 519.313 54.5651 519.074 55.3182C518.835 56.0723 518.865 56.0818 518.625 56.836C518.386 57.5901 518.402 57.5954 518.163 58.3495C517.923 59.1036 517.807 59.0668 517.568 59.8209C517.328 60.575 517.255 60.5517 517.015 61.3058C516.776 62.0599 516.87 62.0899 516.631 62.844C516.391 63.5981 516.345 63.5833 516.105 64.3374C515.866 65.0916 515.935 65.1136 515.696 65.8677C515.456 66.6218 515.432 66.6143 515.193 67.3684C514.953 68.1225 515.123 68.1765 514.884 68.9306C514.644 69.6847 514.485 69.6341 514.245 70.3882C514.006 71.1423 513.975 71.1325 513.735 71.8866C513.496 72.6407 513.639 72.6861 513.399 73.4402C513.16 74.1944 513.099 74.1749 512.859 74.9291C512.62 75.6832 512.729 75.7181 512.49 76.4732C512.25 77.2274 512.104 77.181 511.864 77.9361C511.705 78.4365 511.7 78.9559 511.633 79.4591C511.563 79.9764 511.398 80.4805 511.42 80.9903C511.442 81.5094 511.688 81.9899 511.799 82.4905C511.91 82.9955 511.939 83.5145 512.136 83.9898C512.332 84.4662 512.569 84.9234 512.846 85.3601C513.121 85.7941 513.319 86.3075 513.668 86.6896C514.013 87.0683 514.507 87.3107 514.918 87.6273C515.322 87.9391 515.814 88.1043 516.277 88.3448C516.726 88.5801 517.172 88.7923 517.672 88.9512C518.429 89.1913 518.425 89.2017 519.182 89.4418C519.938 89.6819 519.897 89.8114 520.653 90.0515C521.409 90.2916 521.398 90.3269 522.154 90.567C522.91 90.8071 522.889 90.8734 523.645 91.1135C524.401 91.3537 524.454 91.1889 525.21 91.4291C525.966 91.6692 525.951 91.7179 526.707 91.958C527.463 92.1981 527.513 92.0396 528.269 92.2798C529.026 92.5199 529.005 92.5862 529.761 92.8263C530.517 93.0664 530.463 93.2363 531.219 93.4764C531.975 93.7166 532.004 93.6254 532.76 93.8655C533.517 94.1056 533.543 94.0217 534.299 94.2619C535.056 94.502 534.998 94.6833 535.754 94.9234C536.51 95.1635 536.509 95.1676 537.265 95.4078C538.021 95.6479 538.007 95.6945 538.763 95.9346C539.519 96.1747 539.561 96.0422 540.317 96.2823C541.073 96.5224 541.078 96.5089 541.834 96.7491C542.59 96.9892 542.586 97.0026 543.342 97.2428C544.098 97.4829 544.1 97.4767 544.856 97.7168C545.612 97.9569 545.654 97.8264 546.41 98.0665C547.166 98.3066 547.14 98.3885 547.896 98.6286C548.652 98.8687 548.683 98.7734 549.439 99.0135C550.195 99.2537 550.162 99.3573 550.918 99.5974C551.675 99.8375 551.673 99.8416 552.429 100.082C553.186 100.322 553.151 100.43 553.909 100.67C554.665 100.91 554.716 100.75 555.472 100.99C556.228 101.23 556.166 101.427 556.923 101.667C557.679 101.907 557.714 101.797 558.47 102.038C559.227 102.278 559.266 102.156 560.022 102.396C560.779 102.636 560.755 102.714 561.511 102.954C562.011 103.113 562.492 103.345 562.994 103.414C563.512 103.483 564.037 103.402 564.548 103.381C565.067 103.359 565.596 103.388 566.096 103.277C566.601 103.166 567.027 102.815 567.503 102.62C567.98 102.423 568.528 102.369 568.965 102.094C569.398 101.819 569.778 101.451 570.161 101.103C570.539 100.758 570.925 100.404 571.242 99.9925C571.554 99.5886 571.686 99.0674 571.928 98.6047C572.163 98.1548 572.313 97.6849 572.472 97.1845C572.712 96.4304 572.915 96.4949 573.154 95.7418C573.393 94.9877 573.329 94.9673 573.569 94.2131C573.808 93.459 573.769 93.4465 574.008 92.6934C574.247 91.9393 574.192 91.9219 574.432 91.1688C574.671 90.4147 574.861 90.4748 575.1 89.7207C575.34 88.9666 575.33 88.9636 575.569 88.2105C575.809 87.4564 575.687 87.4176 575.926 86.6635C576.166 85.9093 576.129 85.8978 576.369 85.1437C576.608 84.3896 576.691 84.4159 576.931 83.6618C577.17 82.9076 577.044 82.8675 577.283 82.1134C577.523 81.3593 577.681 81.4096 577.921 80.6555C578.16 79.9013 578.091 79.8793 578.33 79.1252C578.57 78.371 578.737 78.4243 578.977 77.6702C579.216 76.9161 579.159 76.898 579.399 76.1439C579.638 75.3897 579.7 75.4091 579.939 74.655C580.178 73.9009 580.198 73.9071 580.438 73.153C580.677 72.3989 580.553 72.3594 580.792 71.6053C581.032 70.8512 580.858 70.7959 581.097 70.0418C581.337 69.2876 581.409 69.3107 581.649 68.5565C581.888 67.8024 581.922 67.8133 582.162 67.0592C582.401 66.305 582.332 66.283 582.571 65.5299C582.81 64.7758 582.927 64.8129 583.167 64.0588C583.406 63.3047 583.258 63.2577 583.498 62.5035C583.737 61.7494 583.798 61.7688 584.038 61.0147C584.277 60.2606 584.434 60.3102 584.673 59.5561C584.913 58.802 584.836 58.7776 585.076 58.0235C585.315 57.2694 585.349 57.2802 585.589 56.5261C585.828 55.772 585.924 55.8026 586.164 55.0484C586.403 54.2943 586.239 54.242 586.478 53.4879C586.718 52.7338 586.822 52.767 587.062 52.0129C587.301 51.2587 587.139 51.2071 587.378 50.453C587.618 49.6988 587.713 49.7291 587.952 48.975C588.192 48.2209 588.226 48.2317 588.465 47.4776C588.705 46.7235 588.655 46.7077 588.895 45.9535C589.134 45.1994 589.275 45.2441 589.515 44.489C589.755 43.7338 589.773 43.7408 590.013 42.9856C590.172 42.4853 590.128 41.9342 590.196 41.4314C590.266 40.9141 590.224 40.4026 590.203 39.8931C590.181 39.374 590.098 38.8789 589.987 38.3783C589.876 37.8732 589.787 37.3706 589.59 36.8953C589.393 36.4189 589.12 35.9877 588.844 35.5523C588.569 35.1183 588.407 34.5858 588.059 34.2037C587.714 33.8251 587.209 33.602 586.798 33.2844C586.394 32.9726 585.98 32.6746 585.517 32.433C585.068 32.1968 584.594 32.0042 584.094 31.8453Z" fill="#A8E6A5"/>
<path d="M578.188 53.672C577.45 53.4378 577.458 53.413 576.721 53.1788C575.983 52.9446 575.963 53.0088 575.225 52.7746C574.488 52.5404 574.511 52.4658 573.774 52.2316C573.036 51.9974 573.014 52.0678 572.276 51.8336C571.539 51.5994 571.494 51.7393 570.757 51.5051C570.019 51.2709 570.049 51.1787 569.311 50.9445C568.574 50.7103 568.584 50.6761 567.847 50.4419C567.109 50.2077 567.144 50.0989 566.406 49.8647C565.669 49.6305 565.68 49.5953 564.943 49.3611C564.205 49.1269 564.142 49.3247 563.405 49.0905C562.667 48.8563 562.684 48.8035 561.946 48.5693C561.209 48.3351 561.178 48.4325 560.44 48.1983C559.703 47.9641 559.709 47.9434 558.972 47.7092C558.234 47.475 558.235 47.4739 557.497 47.2397C556.76 47.0055 556.807 46.8553 556.07 46.6211C555.332 46.3869 555.277 46.562 554.54 46.3281C553.803 46.0939 553.862 45.9064 553.125 45.6722C552.387 45.438 552.391 45.4266 551.653 45.1924C550.916 44.9582 550.844 45.183 550.107 44.9488C549.369 44.7146 549.445 44.4753 548.708 44.2411C547.97 44.0069 547.916 44.1778 547.179 43.9436C546.441 43.7094 546.45 43.6814 545.712 43.4472C544.975 43.213 544.966 43.242 544.228 43.0078C543.491 42.7736 543.477 42.8171 542.739 42.5829C542.002 42.3487 542.007 42.3322 541.269 42.098C540.532 41.8638 540.566 41.756 539.829 41.5218C539.091 41.2876 539.132 41.1581 538.395 40.9239C537.657 40.6897 537.65 40.7115 536.913 40.4773C536.175 40.2431 536.165 40.2742 535.428 40.04C534.69 39.8058 534.708 39.7509 533.969 39.5163C533.232 39.2821 533.162 39.5007 532.424 39.2662C531.951 39.1162 531.519 38.8295 531.208 38.4878C530.887 38.1349 530.857 37.6249 530.754 37.1599C530.654 36.7087 530.597 36.2801 530.747 35.8078C530.976 35.0889 531.02 35.103 531.249 34.3841C531.477 33.6652 531.309 33.6119 531.538 32.892C531.766 32.1731 531.679 32.1454 531.907 31.4265C532.136 30.7076 532.125 30.7043 532.354 29.9854C532.582 29.2665 532.813 29.3399 533.041 28.6199C533.27 27.901 533.134 27.8579 533.362 27.139C533.591 26.4191 533.518 26.3961 533.747 25.6772C533.975 24.9572 534.027 24.9737 534.255 24.2548C534.405 23.7824 534.758 23.4154 535.1 23.1043C535.453 22.783 535.88 22.5755 536.345 22.4722C536.796 22.3726 537.262 22.3952 537.734 22.5449C538.471 22.7791 538.483 22.7418 539.22 22.976C539.958 23.2102 539.926 23.3117 540.663 23.5459C541.401 23.7801 541.417 23.7293 542.154 23.9635C542.892 24.1977 542.911 24.1387 543.648 24.3729C544.386 24.6071 544.428 24.4724 545.166 24.7066C545.904 24.9408 545.901 24.9481 546.639 25.1823C547.376 25.4165 547.351 25.4973 548.088 25.7315C548.826 25.9657 548.831 25.9481 549.569 26.1823C550.306 26.4165 550.285 26.4849 551.022 26.7191C551.76 26.9533 551.715 27.0952 552.452 27.3294C553.19 27.5636 553.242 27.3999 553.979 27.6341C554.717 27.8683 554.739 27.7979 555.477 28.0321C556.214 28.2663 556.148 28.4755 556.885 28.7097C557.623 28.9439 557.676 28.7751 558.414 29.0093C559.151 29.2435 559.088 29.4434 559.825 29.6776C560.563 29.9118 560.631 29.6964 561.368 29.9302C562.105 30.1644 562.126 30.0992 562.864 30.3334C563.601 30.5676 563.531 30.7872 564.269 31.0214C565.006 31.2556 565.032 31.1737 565.77 31.4079C566.507 31.6422 566.493 31.6888 567.23 31.923C567.968 32.1572 567.999 32.0598 568.736 32.294C569.474 32.5282 569.504 32.4329 570.241 32.6671C570.979 32.9013 570.964 32.9479 571.702 33.1821C572.439 33.4163 572.452 33.3749 573.19 33.6091C573.927 33.8433 573.923 33.8568 574.661 34.091C575.398 34.3252 575.386 34.3635 576.124 34.5977C576.861 34.8319 576.832 34.922 577.57 35.1562C578.308 35.3904 578.27 35.5075 579.008 35.7417C579.745 35.9759 579.773 35.8889 580.511 36.1231C581.248 36.3573 581.304 36.1812 582.043 36.4157C582.78 36.6499 582.76 36.7131 583.499 36.9476C583.971 37.0976 584.411 37.389 584.722 37.7307C585.043 38.0836 585.058 38.6048 585.16 39.0705C585.259 39.5217 585.539 40.0199 585.389 40.4913C585.161 41.2102 585.024 41.1668 584.796 41.8857C584.568 42.6046 584.626 42.623 584.397 43.3429C584.169 44.0618 583.957 43.9944 583.728 44.7133C583.5 45.4322 583.49 45.4289 583.261 46.1478C583.033 46.8667 583.284 46.9463 583.055 47.6663C582.827 48.3852 582.857 48.3947 582.629 49.1136C582.4 49.8336 582.401 49.8339 582.173 50.5528C581.944 51.2728 581.779 51.2205 581.551 51.9394C581.401 52.4117 581.163 52.8173 580.822 53.1288C580.469 53.45 580.031 53.6165 579.565 53.7183C579.112 53.8197 578.66 53.822 578.188 53.672Z" fill="#F3F5F4"/>
<path d="M533.969 54.3076C533.251 54.0797 533.296 53.9377 532.58 53.7101C531.862 53.4822 531.815 53.6293 531.098 53.4016C530.38 53.1737 530.397 53.1219 529.679 52.8939C528.961 52.666 528.995 52.5603 528.277 52.3334C527.804 52.1834 527.419 51.9449 527.108 51.6042C526.787 51.2513 526.629 50.8308 526.526 50.3658C526.427 49.9145 526.22 49.4167 526.369 48.9454C526.63 48.1249 526.833 48.1894 527.094 47.369C527.354 46.5486 527.221 46.5065 527.482 45.6871C527.632 45.2147 527.865 44.7381 528.207 44.4269C528.56 44.1056 529.045 43.8423 529.509 43.7401C529.961 43.6405 530.499 43.6985 530.971 43.8485C531.689 44.0764 531.679 44.1065 532.396 44.3341C533.114 44.562 533.049 44.7671 533.766 44.9948C534.483 45.2227 534.559 44.9845 535.277 45.2124C535.995 45.4404 535.973 45.5087 536.691 45.7367C537.163 45.8867 537.64 46.0995 537.951 46.4412C538.272 46.7941 538.563 47.2664 538.667 47.7313C538.766 48.1826 538.673 48.7208 538.523 49.1922C538.263 50.0126 538.267 50.0139 538.007 50.8333C537.746 51.6537 537.562 51.5952 537.301 52.4156C537.151 52.8879 537.069 53.4071 536.728 53.7182C536.375 54.0395 535.842 54.0629 535.377 54.1651C534.927 54.2651 534.442 54.4576 533.969 54.3076Z" fill="#51CB59"/>
<path d="M547.296 58.5459C546.578 58.318 546.649 58.0942 545.932 57.8666C545.214 57.6386 545.177 57.7547 544.46 57.527C543.743 57.2991 543.733 57.3281 543.016 57.1001C542.298 56.8722 542.285 56.9116 541.567 56.6836C541.095 56.5336 540.712 56.2091 540.401 55.8674C540.08 55.5145 539.892 55.0762 539.79 54.6105C539.69 54.1592 539.522 53.6382 539.671 53.1668C539.932 52.3464 540.187 52.4273 540.447 51.6069C540.708 50.7865 540.754 50.8013 541.015 49.9819C541.165 49.5095 541.28 49.0614 541.621 48.7502C541.974 48.429 542.392 48.1545 542.858 48.0527C543.309 47.9531 543.761 48.1433 544.233 48.2932C544.951 48.5212 544.997 48.3762 545.714 48.6038C546.431 48.8317 546.4 48.9291 547.117 49.1567C547.835 49.3847 547.883 49.2355 548.6 49.4635C549.318 49.6914 549.311 49.7153 550.028 49.9432C550.501 50.0932 550.899 50.3941 551.21 50.7358C551.531 51.0887 551.605 51.5603 551.708 52.0252C551.808 52.4765 551.803 52.8867 551.653 53.359C551.393 54.1794 551.373 54.1732 551.113 54.9926C550.852 55.813 551.057 55.8781 550.797 56.6986C550.647 57.1709 550.331 57.5621 549.989 57.8733C549.636 58.1945 549.174 58.2964 548.708 58.3993C548.256 58.4996 547.768 58.6959 547.296 58.5459Z" fill="#51CB59"/>
<path d="M560.701 62.5343C559.983 62.3063 559.913 62.528 559.196 62.3004C558.478 62.0724 558.549 61.8518 557.832 61.6241C557.114 61.3962 557.087 61.4801 556.369 61.2522C555.652 61.0242 555.605 61.1703 554.887 60.9423C554.415 60.7923 554.093 60.3947 553.782 60.0531C553.461 59.7002 553.09 59.3384 552.988 58.8737C552.888 58.4225 552.881 57.8832 553.031 57.4109C553.292 56.5904 553.285 56.5881 553.545 55.7677C553.806 54.9473 553.816 54.9506 554.076 54.1312C554.226 53.6588 554.684 53.3787 555.025 53.0686C555.378 52.7473 555.753 52.545 556.219 52.4421C556.671 52.3425 557.152 52.1751 557.625 52.3251C558.343 52.553 558.273 52.7737 558.989 53.0013C559.707 53.2293 559.73 53.1578 560.447 53.3854C561.165 53.6134 561.227 53.4176 561.945 53.6455C562.662 53.8735 562.624 53.9957 563.342 54.2237C563.814 54.3737 564.106 54.738 564.418 55.0797C564.739 55.4325 564.922 55.7974 565.025 56.2623C565.124 56.7136 565.116 57.1169 564.966 57.5893C564.706 58.4097 564.922 58.4785 564.662 59.2979C564.401 60.1183 564.358 60.1045 564.097 60.9249C563.947 61.3972 563.763 61.911 563.421 62.2222C563.068 62.5434 562.552 62.757 562.086 62.8599C561.633 62.9578 561.174 62.6843 560.701 62.5343Z" fill="#51CB59"/>
<path d="M573.991 66.8876C573.273 66.6597 573.256 66.7146 572.539 66.4869C571.821 66.259 571.873 66.0974 571.156 65.8698C570.438 65.6418 570.387 65.8024 569.669 65.5744C568.951 65.3465 568.958 65.3258 568.24 65.0978C567.768 64.9478 567.338 64.7041 567.026 64.3624C566.705 64.0095 566.638 63.523 566.536 63.057C566.436 62.6058 566.284 62.1391 566.434 61.6667C566.695 60.8463 566.828 60.8887 567.089 60.0683C567.349 59.2479 567.157 59.1867 567.417 58.3673C567.567 57.8949 567.929 57.5206 568.27 57.2095C568.623 56.8882 569.056 56.6596 569.521 56.5574C569.972 56.4578 570.457 56.4794 570.929 56.6294C571.647 56.8574 571.676 56.7673 572.392 56.9949C573.11 57.2228 573.051 57.4103 573.767 57.638C574.485 57.8659 574.479 57.8845 575.197 58.1125C575.915 58.3405 575.988 58.1115 576.706 58.3395C577.178 58.4895 577.47 58.938 577.781 59.2797C578.102 59.6326 578.457 59.9836 578.56 60.4496C578.66 60.9009 578.48 61.3616 578.33 61.834C578.07 62.6544 578.179 62.689 577.918 63.5083C577.658 64.3288 577.769 64.364 577.508 65.1844C577.358 65.6567 576.896 65.9308 576.554 66.2419C576.201 66.5632 575.824 66.7398 575.358 66.8427C574.906 66.9409 574.464 67.0376 573.991 66.8876Z" fill="#51CB59"/>
<path d="M530.802 64.28C530.084 64.0521 530.1 64.0034 529.383 63.7758C528.665 63.5478 528.664 63.552 527.947 63.3243C527.229 63.0964 527.24 63.0612 526.523 62.8332C525.805 62.6053 525.81 62.5897 525.092 62.3618C524.62 62.2118 524.299 61.8592 523.988 61.5175C523.667 61.1646 523.363 60.8036 523.26 60.3386C523.16 59.8874 523.067 59.3686 523.217 58.8963C523.478 58.0758 523.515 58.0877 523.775 57.2683C524.035 56.4489 524.251 56.5163 524.511 55.6969C524.661 55.2245 524.78 54.7684 525.122 54.4573C525.475 54.136 525.904 53.8731 526.369 53.7713C526.821 53.6717 527.304 53.7637 527.777 53.9137C528.495 54.1417 528.493 54.1469 529.21 54.3745C529.928 54.6024 529.929 54.5983 530.646 54.8259C531.364 55.0539 531.326 55.173 532.044 55.401C532.762 55.6289 532.82 55.4456 533.538 55.6735C534.01 55.8235 534.491 56.0425 534.802 56.3841C535.124 56.737 535.38 57.2232 535.483 57.6892C535.582 58.1405 535.544 58.6814 535.394 59.1537C535.133 59.9741 535.168 59.9853 534.908 60.8047C534.648 61.6241 534.384 61.5413 534.123 62.3607C533.973 62.833 533.919 63.3666 533.577 63.6777C533.225 63.999 532.685 64.0146 532.219 64.1165C531.767 64.2157 531.275 64.43 530.802 64.28Z" fill="#51CB59"/>
<path d="M544.138 68.4896C543.42 68.2617 543.484 68.0607 542.767 67.8331C542.049 67.6051 542.031 67.6631 541.314 67.4355C540.596 67.2076 540.563 67.3112 539.845 67.0832C539.127 66.8552 539.183 66.6812 538.465 66.4533C537.992 66.3033 537.522 66.188 537.21 65.8463C536.889 65.4934 536.783 65.0161 536.68 64.5511C536.58 64.0999 536.362 63.5915 536.512 63.1191C536.772 62.2987 536.946 62.354 537.207 61.5346C537.467 60.7152 537.381 60.6869 537.641 59.8675C537.791 59.3951 538.077 58.9693 538.419 58.6581C538.772 58.3369 539.274 58.3001 539.738 58.1979C540.19 58.0983 540.619 58.0341 541.091 58.1838C541.809 58.4117 541.844 58.2988 542.561 58.5264C543.279 58.7544 543.278 58.7565 543.995 58.9841C544.713 59.212 544.67 59.3467 545.388 59.5747C546.106 59.8026 546.139 59.7001 546.856 59.928C547.329 60.078 547.728 60.3552 548.039 60.6969C548.36 61.0498 548.579 61.4832 548.682 61.9481C548.782 62.3994 548.653 62.8443 548.504 63.3157C548.243 64.1361 548.449 64.2015 548.189 65.0209C547.929 65.8403 547.697 65.7677 547.436 66.5871C547.286 67.0594 547.085 67.4208 546.743 67.7319C546.39 68.0532 546.031 68.3302 545.565 68.4331C545.114 68.5327 544.61 68.6396 544.138 68.4896Z" fill="#51CB59"/>
<path d="M557.453 72.7624C556.735 72.5345 556.744 72.5065 556.027 72.2789C555.309 72.0509 555.365 71.8748 554.649 71.6472C553.931 71.4193 553.913 71.4762 553.195 71.2483C552.477 71.0203 552.516 70.8981 551.798 70.6701C551.326 70.5201 550.866 70.405 550.555 70.0633C550.234 69.7104 550.176 69.2338 550.073 68.7678C549.974 68.3165 549.692 67.8222 549.841 67.3508C550.102 66.5304 550.196 66.5603 550.456 65.741C550.717 64.9205 550.672 64.9064 550.933 64.087C551.083 63.6146 551.477 63.2804 551.818 62.9689C552.171 62.6477 552.588 62.4757 553.053 62.3735C553.504 62.2739 553.968 62.1944 554.441 62.3444C555.158 62.5723 555.181 62.4998 555.898 62.7274C556.616 62.9554 556.566 63.1139 557.283 63.3415C558 63.5695 558.016 63.5208 558.734 63.7487C559.452 63.9767 559.46 63.9508 560.178 64.1787C560.65 64.3287 560.973 64.6617 561.284 65.0033C561.605 65.3562 561.869 65.7227 561.972 66.1887C562.071 66.6399 562.07 67.1047 561.92 67.576C561.659 68.3964 561.636 68.3889 561.375 69.2083C561.115 70.0277 561.287 70.0833 561.027 70.9027C560.877 71.375 560.494 71.7428 560.152 72.0539C559.8 72.3752 559.352 72.5363 558.887 72.6385C558.435 72.7391 557.925 72.9124 557.453 72.7624Z" fill="#51CB59"/>
<path d="M570.855 76.764C570.137 76.536 570.148 76.5029 569.431 76.2753C568.713 76.0473 568.637 76.2856 567.92 76.0579C567.203 75.83 567.19 75.8704 566.472 75.6424C565.754 75.4145 565.829 75.1773 565.112 74.9493C564.639 74.7993 564.294 74.5471 563.983 74.2054C563.662 73.8526 563.499 73.4678 563.397 73.0022C563.297 72.5509 563.018 72.0541 563.168 71.5827C563.428 70.7623 563.708 70.8511 563.968 70.0317C564.229 69.2124 564.231 69.212 564.491 68.3926C564.641 67.9202 564.775 67.478 565.116 67.1669C565.469 66.8456 565.882 66.542 566.347 66.4388C566.798 66.3392 567.33 66.3292 567.802 66.4792C568.52 66.7071 568.53 66.6761 569.247 66.9037C569.965 67.1316 569.924 67.2601 570.641 67.4877C571.359 67.7157 571.4 67.5851 572.118 67.8131C572.836 68.041 572.782 68.2099 573.5 68.4378C573.972 68.5878 574.35 68.8537 574.661 69.1953C574.982 69.5482 575.276 69.9393 575.378 70.405C575.478 70.8563 575.407 71.3402 575.258 71.8115C574.997 72.632 575.112 72.6685 574.852 73.4879C574.592 74.3072 574.644 74.3251 574.384 75.1444C574.234 75.6168 573.782 75.9295 573.441 76.2407C573.088 76.5619 572.672 76.7219 572.206 76.8248C571.754 76.9251 571.327 76.914 570.855 76.764Z" fill="#51CB59"/>
<path d="M527.658 74.1834C526.94 73.9554 526.942 73.9471 526.226 73.7195C525.508 73.4915 525.538 73.3962 524.821 73.1686C524.103 72.9407 524.133 72.8474 523.415 72.6195C522.697 72.3915 522.648 72.5469 521.93 72.319C521.458 72.169 521.12 71.827 520.809 71.4863C520.488 71.1334 520.169 70.763 520.066 70.2983C519.967 69.8471 520.077 69.3746 520.227 68.9032C520.487 68.0828 520.277 68.016 520.537 67.1967C520.798 66.3762 520.799 66.3766 521.059 65.5572C521.209 65.0848 521.683 64.7928 522.024 64.4816C522.377 64.1603 522.724 63.7494 523.19 63.6465C523.641 63.5469 524.13 63.7524 524.603 63.9024C525.321 64.1303 525.37 63.9749 526.087 64.2026C526.805 64.4305 526.75 64.6014 527.467 64.8291C528.185 65.057 528.167 65.113 528.885 65.3409C529.603 65.5689 529.664 65.3772 530.382 65.6052C530.854 65.7552 531.207 66.1055 531.518 66.4472C531.839 66.8001 532.189 67.1815 532.292 67.6465C532.392 68.0977 532.172 68.5663 532.023 69.0376C531.762 69.858 532.021 69.9403 531.761 70.7596C531.5 71.5801 531.286 71.512 531.026 72.3314C530.876 72.8037 530.726 73.2819 530.384 73.5931C530.032 73.9143 529.544 74.0536 529.079 74.1569C528.626 74.2548 528.13 74.3334 527.658 74.1834Z" fill="#51CB59"/>
<path d="M541.053 78.2043C540.335 77.9764 540.265 78.198 539.548 77.9704C538.83 77.7425 538.867 77.6254 538.151 77.3978C537.433 77.1698 537.407 77.2506 536.689 77.0227C535.971 76.7947 535.948 76.8672 535.231 76.6393C534.758 76.4893 534.434 76.0728 534.124 75.7315C533.803 75.3786 533.602 74.9728 533.499 74.5068C533.4 74.0555 533.433 73.6144 533.582 73.143C533.843 72.3226 533.832 72.319 534.092 71.4996C534.352 70.6792 534.191 70.6279 534.451 69.8085C534.601 69.3361 534.906 68.9073 535.247 68.5961C535.6 68.2748 536.051 67.9676 536.517 67.8658C536.968 67.7662 537.467 67.9632 537.939 68.1132C538.657 68.3412 538.645 68.3785 539.362 68.6061C540.08 68.834 540.082 68.8268 540.799 69.0544C541.517 69.2824 541.562 69.1404 542.28 69.3684C542.998 69.5964 542.978 69.6564 543.696 69.8844C544.169 70.0344 544.521 70.3514 544.832 70.6931C545.153 71.046 545.411 71.4369 545.513 71.9026C545.612 72.3539 545.487 72.7943 545.338 73.2656C545.077 74.086 545.317 74.1623 545.057 74.9817C544.797 75.8021 544.683 75.7659 544.423 76.5853C544.273 77.0577 544.105 77.5712 543.763 77.8824C543.41 78.2036 542.887 78.3589 542.421 78.4608C541.971 78.5597 541.525 78.3543 541.053 78.2043Z" fill="#51CB59"/>
<path d="M554.356 82.5164C553.638 82.2885 553.571 82.4998 552.854 82.2722C552.136 82.0442 552.155 81.9842 551.439 81.7565C550.721 81.5286 550.771 81.3691 550.054 81.1411C549.336 80.9132 549.36 80.8355 548.643 80.6075C548.17 80.4575 547.669 80.3908 547.358 80.0491C547.037 79.6962 546.738 79.2467 546.635 78.7818C546.535 78.3305 546.762 77.8471 546.912 77.3757C547.172 76.5553 547.185 76.5593 547.445 75.7399C547.705 74.9195 547.478 74.8474 547.739 74.028C547.889 73.5557 548.177 73.0782 548.519 72.7671C548.872 72.4458 549.441 72.4875 549.907 72.3846C550.358 72.285 550.768 72.2771 551.24 72.4271C551.958 72.6551 551.954 72.6696 552.67 72.8972C553.388 73.1251 553.406 73.0702 554.122 73.2979C554.84 73.5258 554.823 73.5786 555.541 73.8066C556.259 74.0345 556.299 73.9082 557.017 74.1361C557.49 74.2861 557.939 74.5007 558.251 74.8414C558.572 75.1943 558.781 75.6598 558.883 76.1244C558.983 76.5757 558.938 77.0644 558.788 77.5368C558.528 78.3572 558.561 78.3677 558.3 79.1871C558.04 80.0075 558.075 80.0187 557.815 80.8381C557.665 81.3105 557.376 81.7422 557.035 82.0533C556.682 82.3746 556.183 82.4512 555.717 82.5541C555.268 82.6533 554.828 82.6664 554.356 82.5164Z" fill="#51CB59"/>
<path d="M524.503 84.1163C523.785 83.8883 523.78 83.907 523.063 83.6793C522.345 83.4514 522.369 83.3768 521.652 83.1492C520.934 82.9212 520.899 83.0321 520.181 82.8041C519.463 82.5762 519.45 82.6166 518.732 82.3886C518.26 82.2386 517.814 81.9112 517.504 81.5699C517.183 81.217 516.948 80.7274 516.846 80.2614C516.746 79.8101 517 79.3504 517.15 78.879C517.411 78.0586 517.282 78.0178 517.542 77.1984C517.802 76.3791 517.895 76.4073 518.156 75.5869C518.306 75.1145 518.574 74.7962 518.916 74.485C519.269 74.1637 519.573 73.7277 520.038 73.6245C520.489 73.5249 520.994 73.6283 521.467 73.7783C522.184 74.0063 522.14 74.1471 522.856 74.3748C523.574 74.6027 523.614 74.4784 524.331 74.706C525.048 74.934 525.052 74.9216 525.77 75.1495C526.488 75.3775 526.536 75.2262 527.254 75.4542C527.726 75.6042 528.133 75.9751 528.444 76.3168C528.765 76.6697 528.895 77.158 528.997 77.6236C529.097 78.0749 529.229 78.5821 529.079 79.0534C528.819 79.8738 528.656 79.8222 528.396 80.6426C528.135 81.4631 528.256 81.5015 527.996 82.3209C527.846 82.7933 527.531 83.1927 527.189 83.5039C526.836 83.8251 526.383 84.0038 525.917 84.1057C525.467 84.2067 524.976 84.2663 524.503 84.1163Z" fill="#51CB59"/>
<path d="M537.811 88.4118C537.094 88.1838 537.117 88.1092 536.401 87.8816C535.683 87.6537 535.667 87.7044 534.95 87.4768C534.232 87.2489 534.269 87.1328 533.551 86.9049C532.833 86.6769 532.83 86.6852 532.113 86.4573C531.64 86.3073 531.121 86.1641 530.81 85.8224C530.489 85.4695 530.43 84.9252 530.328 84.4606C530.228 84.0093 530.253 83.5597 530.403 83.0874C530.663 82.2669 530.628 82.2557 530.888 81.4364C531.148 80.617 531.136 80.612 531.397 79.7916C531.547 79.3192 531.692 78.7974 532.034 78.4863C532.387 78.165 532.926 78.0751 533.392 77.9722C533.843 77.8726 534.276 78.0112 534.748 78.1612C535.466 78.3891 535.464 78.3964 536.181 78.624C536.898 78.852 536.992 78.5567 537.709 78.7843C538.427 79.0123 538.383 79.1511 539.101 79.3791C539.818 79.607 539.803 79.6557 540.521 79.8836C540.993 80.0336 541.332 80.3272 541.643 80.6688C541.964 81.0217 542.398 81.3534 542.5 81.8191C542.6 82.2704 542.361 82.7533 542.211 83.2246C541.951 84.045 541.972 84.0516 541.711 84.872C541.451 85.6925 541.647 85.755 541.387 86.5743C541.237 87.0467 540.886 87.4553 540.545 87.7654C540.192 88.0866 539.712 88.2341 539.246 88.336C538.795 88.4366 538.284 88.5618 537.811 88.4118Z" fill="#51CB59"/>
<path d="M551.144 92.6309C550.426 92.403 550.424 92.4102 549.707 92.1826C548.989 91.9547 549.057 91.7402 548.341 91.5126C547.623 91.2847 547.542 91.5395 546.824 91.3115C546.106 91.0836 546.112 91.066 545.394 90.838C544.921 90.688 544.63 90.2306 544.319 89.8889C543.998 89.536 543.823 89.1429 543.719 88.6779C543.62 88.2266 543.485 87.7607 543.635 87.2884C543.895 86.4679 544.028 86.51 544.288 85.6907C544.548 84.8713 544.558 84.8732 544.819 84.0528C544.969 83.5804 545.133 83.1525 545.474 82.8424C545.827 82.5211 546.246 82.2745 546.712 82.1727C547.163 82.0731 547.603 82.2424 548.076 82.3924C548.794 82.6204 548.882 82.3417 549.599 82.5694C550.317 82.7973 550.272 82.9382 550.989 83.1658C551.707 83.3938 551.748 83.2632 552.466 83.4912C553.184 83.7191 553.139 83.86 553.857 84.088C554.329 84.238 554.834 84.4016 555.144 84.743C555.465 85.0959 555.51 85.6345 555.612 86.0992C555.711 86.5504 555.68 86.984 555.53 87.4553C555.269 88.2757 555.235 88.2649 554.975 89.0853C554.714 89.9057 554.992 89.9939 554.732 90.8133C554.582 91.2856 554.167 91.6387 553.826 91.9499C553.473 92.2711 553.051 92.5271 552.585 92.6289C552.136 92.7281 551.616 92.7809 551.144 92.6309Z" fill="#51CB59"/>
<path d="M570.371 78.2878C569.653 78.0598 569.633 78.123 568.916 77.8954C568.198 77.6674 568.214 77.6198 567.497 77.3921C566.779 77.1642 566.76 77.2253 566.042 76.9974C565.324 76.7694 565.369 76.6275 564.651 76.3995C564.179 76.2495 563.643 76.3143 563.192 76.4138C562.726 76.5167 562.37 76.8635 562.017 77.1848C561.676 77.4959 561.257 77.7996 561.107 78.2719C560.926 78.8417 560.902 78.8341 560.721 79.4038C560.381 80.4749 560.529 80.522 560.189 81.5921C559.963 82.3027 559.878 82.2757 559.653 82.9863C559.427 83.6969 559.367 83.6779 559.141 84.3885C558.916 85.0991 559.025 85.1336 558.799 85.8443C558.573 86.5549 558.686 86.5907 558.46 87.3013C558.235 88.012 558.094 87.9672 557.868 88.6778C557.643 89.3885 557.808 89.4411 557.582 90.1528C557.357 90.8634 557.36 90.8644 557.134 91.576C556.984 92.0484 556.884 92.474 556.983 92.9249C557.085 93.3909 557.309 93.7847 557.63 94.1373C557.941 94.479 558.321 94.6911 558.794 94.8411C559.512 95.0691 559.519 95.0463 560.236 95.2739C560.954 95.5018 560.916 95.6189 561.633 95.8465C562.351 96.0745 562.315 96.1864 563.033 96.4143C563.751 96.6423 563.747 96.6547 564.465 96.8826C564.937 97.0326 565.426 96.7943 565.877 96.6947C566.343 96.5918 566.807 96.5089 567.16 96.1887C567.502 95.8775 567.731 95.4611 567.881 94.9887C568.106 94.2781 568.21 94.311 568.436 93.6004C568.661 92.8897 568.496 92.8371 568.721 92.1265C568.947 91.4159 568.943 91.4146 569.168 90.704C569.394 89.9933 569.395 89.9937 569.621 89.283C569.846 88.5724 569.813 88.5619 570.039 87.8513C570.265 87.1407 570.458 87.2022 570.684 86.4905C570.91 85.7799 570.883 85.7713 571.109 85.0597C571.449 83.9886 571.266 83.9304 571.606 82.8603C571.786 82.2906 571.793 82.2925 571.974 81.7228C572.124 81.2504 572.271 80.8149 572.171 80.3636C572.069 79.8976 571.788 79.5245 571.466 79.1727C571.159 78.8309 570.843 78.4377 570.371 78.2878Z" fill="#915FD0"/>
<path d="M567.464 86.671C566.901 87.0977 566.823 86.4595 566.149 86.2453C565.475 86.0315 565.473 86.0378 564.8 85.8239C564.127 85.6101 564.094 85.7127 563.42 85.4986C562.746 85.2847 562.391 85.6384 562.178 84.9649C561.875 84.0103 561.886 83.6578 562.683 83.0524C563.246 82.6257 563.339 83.4191 564.012 83.6329C564.685 83.8467 564.678 83.8705 565.351 84.0844C566.025 84.2982 566.078 84.1293 566.752 84.3435C567.426 84.5573 567.599 84.286 568.069 84.8141C568.757 85.5856 568.262 86.0656 567.464 86.671Z" fill="white"/>
<path d="M566.403 89.9446C565.84 90.3713 565.751 89.8367 565.077 89.6229C564.404 89.4091 564.392 89.4464 563.719 89.2326C563.045 89.0188 563.116 88.7982 562.441 88.584C561.768 88.3702 561.348 88.9324 561.134 88.259C560.832 87.3043 560.83 86.9389 561.628 86.3336C562.191 85.9069 562.31 86.6641 562.983 86.8779C563.656 87.0917 563.68 87.0161 564.354 87.2299C565.027 87.4437 565.011 87.4924 565.686 87.7065C566.359 87.9204 566.51 87.6195 566.981 88.1462C567.662 88.9113 567.2 89.3393 566.403 89.9446Z" fill="white"/>
<path d="M534.262 46.7715C534.688 47.3346 533.984 47.3481 533.77 48.0214C533.556 48.6948 533.773 48.7635 533.559 49.4368C533.345 50.1102 533.262 50.0838 533.048 50.7582C532.834 51.4326 533.34 52.0344 532.666 52.2482C531.712 52.5506 531.364 52.2613 530.759 51.4636C530.332 50.9005 530.927 50.827 531.141 50.1526C531.355 49.4793 531.433 49.504 531.646 48.8307C531.86 48.1573 531.845 48.1524 532.059 47.478C532.273 46.8037 531.87 46.5526 532.398 46.0814C533.156 45.4044 533.657 45.9741 534.262 46.7715Z" fill="white"/>
<path d="M534.997 51.0268C534.434 51.4535 534.223 50.7639 533.55 50.5501C532.877 50.3363 532.925 50.183 532.252 49.9692C531.579 49.7554 531.529 49.9108 530.855 49.6966C530.182 49.4828 529.747 49.8795 529.533 49.2051C529.231 48.2504 529.307 47.865 530.104 47.2596C530.667 46.8329 530.792 47.5578 531.466 47.7719C532.139 47.9857 532.18 47.8594 532.853 48.0732C533.526 48.287 533.523 48.2984 534.197 48.5125C534.871 48.7267 534.96 48.5621 535.428 49.0927C536.148 49.9132 535.795 50.4215 534.997 51.0268Z" fill="white"/>
<path d="M546.349 54.4307C547.238 53.9705 547.606 53.4922 547.146 52.6037C546.686 51.7152 546.042 51.6626 545.154 52.1228C544.265 52.583 544.293 52.9851 544.412 53.9785C544.532 54.9791 545.46 54.8906 546.349 54.4307Z" fill="white"/>
<path d="M548.69 53.2417C548.993 54.1964 548.921 54.4679 548.122 55.0729C547.559 55.4996 547.484 54.926 546.811 54.7122C546.137 54.4984 546.135 54.5067 545.461 54.2929C544.788 54.0791 544.834 53.933 544.16 53.7189C543.487 53.5051 542.989 54.0872 542.776 53.4138C542.473 52.4591 542.591 52.1237 543.39 51.5186C543.953 51.0919 544.028 51.801 544.701 52.0148C545.374 52.2286 545.363 52.2639 546.037 52.4777C546.71 52.6915 546.725 52.6359 547.429 52.6963C548.163 52.7594 548.477 52.5672 548.69 53.2417Z" fill="white"/>
<path d="M560.874 54.9901C561.331 55.7807 560.994 56.3578 560.165 56.7399C559.255 57.1591 558.917 56.989 558.417 56.1221C557.96 55.3315 558.221 55.1304 558.868 54.4863C559.661 53.6992 560.373 54.1239 560.874 54.9901Z" fill="white"/>
<path d="M557.627 57.9948C558.537 57.5755 559.183 57.7898 559.684 58.657C560.141 59.4476 559.819 59.9737 558.99 60.3547C558.08 60.774 557.758 60.6376 557.025 59.9565C556.27 59.2561 556.799 58.3772 557.627 57.9948Z" fill="white"/>
<path d="M572.037 58.9654C572.737 59.0613 572.379 59.6889 572.705 60.3167C573.03 60.9445 572.914 61.0046 573.238 61.6311C573.563 62.2589 573.552 62.2645 573.878 62.8924C574.203 63.5202 575.046 63.5233 574.72 64.1507C574.258 65.0397 573.843 65.0903 572.851 64.9543C572.151 64.8584 572.535 64.3841 572.21 63.7562C571.885 63.1284 571.982 63.0782 571.657 62.4518C571.332 61.824 571.111 61.9385 570.786 61.3107C570.46 60.6829 570.264 60.7094 570.308 60.0038C570.376 58.9214 571.044 58.8294 572.037 58.9654Z" fill="white"/>
<path d="M575.278 61.6208C575.182 62.3213 574.772 61.9562 574.144 62.2814C573.517 62.6066 573.593 62.754 572.966 63.0785C572.339 63.4037 572.308 63.3437 571.68 63.6689C571.052 63.9941 571.037 64.5126 570.409 64.1868C569.52 63.7255 569.353 63.4557 569.489 62.4634C569.585 61.7629 570.042 62.0451 570.67 61.7209C571.298 61.3957 571.356 61.509 571.983 61.1845C572.611 60.8593 572.546 60.7338 573.173 60.4086C573.801 60.0834 573.772 59.8882 574.478 59.9266C575.481 59.9817 575.414 60.6285 575.278 61.6208Z" fill="white"/>
</g>
<defs>
<clipPath id="clip0_2415_1088">
<rect width="64.0541" height="75" fill="white" transform="translate(531.699 15) rotate(17.6173)"/>
</clipPath>
</defs>
</svg>
