<svg width="64" height="64" viewBox="0 0 168 168" fill="none" xmlns="http://www.w3.org/2000/svg">
<path d="M83.88 167.76C100.47 167.76 116.687 162.841 130.481 153.624C144.275 144.407 155.026 131.307 161.375 115.98C167.724 100.652 169.385 83.787 166.148 67.5159C162.912 51.2447 154.923 36.2988 143.192 24.5679C131.461 12.8371 116.515 4.8483 100.244 1.61177C83.9731 -1.62476 67.1076 0.0363441 51.7805 6.38502C36.4535 12.7337 23.3532 23.4848 14.1364 37.2788C4.9195 51.0728 0 67.2902 0 83.8801C0.00265159 106.126 8.84082 127.459 24.5708 143.189C40.3008 158.919 61.6345 167.757 83.88 167.76ZM43.05 60.2601C44.0437 57.8612 45.7488 55.8246 47.9355 54.4246C50.1222 53.0246 52.6855 52.3285 55.28 52.43H112.28C114.84 52.3191 117.375 52.9745 119.561 54.3124C121.747 55.6502 123.484 57.6096 124.55 59.94C124.9 60.4333 125.042 61.0447 124.945 61.6418C124.847 62.2389 124.519 62.7736 124.03 63.13C123.821 63.2795 123.588 63.3912 123.34 63.4601L85.53 83.2101C85.0527 83.4857 84.5112 83.6307 83.96 83.6307C83.4088 83.6307 82.8674 83.4857 82.39 83.2101L44.08 63.3C43.5736 63.1433 43.1501 62.792 42.9026 62.3232C42.6551 61.8545 42.6038 61.3066 42.76 60.8C42.8271 60.6057 42.925 60.4234 43.05 60.2601ZM45.55 72.86C57.4633 79.0934 69.3633 85.3 81.25 91.48C82.0499 91.9514 82.9615 92.2001 83.89 92.2001C84.8185 92.2001 85.7301 91.9514 86.53 91.48C98.3634 85.2667 110.213 79.1167 122.08 73.0301C122.422 72.8319 122.793 72.6901 123.18 72.61C123.496 72.5016 123.835 72.4742 124.164 72.5302C124.494 72.5862 124.804 72.724 125.067 72.9309C125.329 73.1378 125.536 73.4072 125.667 73.7145C125.799 74.0218 125.851 74.3572 125.82 74.69V98.3901C125.912 100.439 125.838 102.493 125.6 104.53C125.125 107.574 123.566 110.343 121.21 112.328C118.854 114.313 115.86 115.379 112.78 115.33H55.24C52.332 115.397 49.4864 114.482 47.1623 112.733C44.8381 110.984 43.171 108.503 42.43 105.69C42.1218 104.596 41.9571 103.467 41.94 102.33V74.94C41.94 72.64 43.42 71.7701 45.55 72.8801V72.86Z" fill="#10352B"/>
</svg>
