<svg width="532" height="785" viewBox="0 0 532 785" fill="none" xmlns="http://www.w3.org/2000/svg">
<path d="M480.434 247.754C482.975 241.463 484.691 235.294 486.159 228.724C486.536 227.068 486.937 225.417 487.344 223.766C487.603 222.7 487.862 221.634 488.12 220.568C488.351 219.619 488.583 218.67 488.821 217.692C489.298 215.098 489.298 215.098 489.168 212.915C489.081 210.316 489.771 208.693 490.754 206.224C492.538 201.474 493.345 196.888 494.022 191.924C494.824 186.095 495.955 181.325 498.517 175.917C499.265 174.098 499.265 174.098 499.024 171.484C499.235 170.321 499.492 169.163 499.779 168.013C499.944 167.342 500.11 166.67 500.28 165.979C500.456 165.28 500.632 164.582 500.814 163.863C501.155 162.488 501.496 161.114 501.836 159.739C502.001 159.075 502.166 158.411 502.336 157.727C504.205 150.151 504.205 150.151 504.698 146.528C505.232 142.92 506.085 139.4 506.974 135.843C507.366 133.866 507.366 133.866 507.125 131.252C505.689 130.279 504.379 129.539 502.82 128.82C502.38 128.612 501.939 128.404 501.485 128.19C497.933 126.614 494.564 126.101 490.636 125.822C487.684 125.416 485.082 124.51 482.316 123.496C478.325 122.041 474.817 121.288 470.47 121.236C467.642 120.987 465.229 119.936 462.67 118.826C460.923 118.222 459.76 118.298 457.9 118.427C456.427 117.945 456.427 117.945 454.91 117.25C451.22 115.823 447.592 115.434 443.639 115.069C440.056 114.717 437.055 113.877 433.733 112.644C433.244 112.691 432.755 112.737 432.251 112.784C429.663 112.856 427.822 111.457 425.649 110.24C423.962 109.615 423.962 109.615 422.309 110.044C419.881 110.642 418.562 109.883 416.381 108.939C412.581 107.305 412.581 107.305 409.85 107.831C408.696 107.416 407.56 106.952 406.442 106.453C403.143 105.207 403.143 105.207 400.511 105.946C398.308 107.931 397.399 109.364 396.504 112.242C397.144 115.003 398.012 116.201 400.012 117.986C402.048 120.001 402.649 121.61 403.59 124.371C404.993 128.17 407.353 131.097 410.088 133.831C411.119 135.066 411.119 135.066 411.828 137.009C412.787 139.29 413.943 141.017 415.382 142.957C416.894 145.033 418.32 147.028 419.45 149.386C420.442 151.216 420.442 151.216 422.875 152.384C419.184 155.647 415.571 158.703 411.399 161.18C409.083 162.569 407.423 163.761 405.699 165.935C402.974 169.198 399.531 170.872 396.004 172.885C391.865 175.289 388.455 178.073 384.797 181.304C382.056 183.57 379.173 185.254 376.146 186.992C374.068 188.257 372.312 189.672 370.521 191.38C368.948 192.601 367.27 193.373 365.533 194.251C363.491 195.402 361.799 196.936 360.014 198.517C355.02 202.85 349.778 206.479 344.222 209.87C339.786 212.613 335.589 215.759 331.373 218.896C328.658 220.9 325.977 222.773 323.071 224.412C320.073 226.117 317.529 228.166 314.902 230.491C311.315 233.637 307.793 236.45 303.617 238.597C301.476 239.83 299.805 241.226 297.961 242.928C296.333 244.171 294.635 244.985 292.845 245.887C290.622 247.137 288.711 248.798 286.734 250.467C283.61 253.04 280.583 255.302 277.087 257.215C272.412 259.875 268.045 263.113 263.926 266.717C262.516 267.864 261.063 268.807 259.545 269.77C256.96 271.424 254.655 273.254 252.306 275.294C249.599 277.625 246.998 279.474 243.934 281.152C241.313 282.664 238.852 284.454 236.363 286.22C234.479 287.528 234.479 287.528 232.424 288.588C230.419 289.699 228.761 290.935 226.961 292.412C224.641 294.278 222.333 295.998 219.848 297.58C217.508 299.075 215.418 300.701 213.297 302.55C211.064 304.488 209.262 305.517 206.597 306.564C204.453 308.128 202.446 309.859 200.609 311.834C197.863 314.778 195.066 316.901 191.739 318.991C190.77 319.614 189.8 320.238 188.831 320.862C188.373 321.155 187.915 321.449 187.443 321.751C185.896 322.754 184.383 323.805 182.876 324.879C180.677 326.498 180.677 326.498 178.732 327.467C176.951 328.661 176.543 329.668 175.796 331.728C176.516 337.421 179.93 341.76 183.098 345.994C185.169 348.81 186.685 351.557 188.077 354.851C189.753 358.814 191.813 361.673 194.565 364.794C196.684 367.346 198.085 370.133 198.9 373.524C199.849 376.351 201.34 378.567 202.936 380.981C204.601 383.528 206.226 386.032 207.634 388.767C208.755 390.841 209.977 392.359 211.529 394.059C214.143 397.138 215.625 400.221 217.102 404.093C218.089 406.495 219.348 408.499 220.771 410.6C221.864 412.237 222.857 413.927 223.849 415.64C225.062 417.712 226.309 419.693 227.718 421.609C229.023 423.406 230.102 425.252 231.133 427.256C234.226 433.263 237.802 438.808 241.705 444.199C243.978 447.346 245.94 450.396 247.449 454.09C248.319 456.151 249.428 458.019 250.536 459.927C251.18 461.045 251.791 462.186 252.395 463.331C252.806 464.113 253.218 464.894 253.642 465.7C254.091 466.557 254.091 466.557 254.549 467.433C257.075 472.135 259.915 476.359 263.063 480.567C264.485 482.427 264.485 482.427 264.537 485.086C263.476 488.188 262.831 489.491 260.056 491.103C259.617 491.3 259.178 491.497 258.726 491.7C256.422 492.84 254.417 494.433 252.321 495.988C250.121 497.618 247.9 499.208 245.672 500.791C244.942 501.311 244.211 501.832 243.458 502.368C241.966 503.411 240.456 504.424 238.933 505.41C236.902 506.776 236.902 506.776 235.086 508.61C232.579 511.075 229.632 512.481 226.625 514.05C223.563 515.65 221.258 517.166 218.699 519.638C215.079 522.901 211.094 525.531 206.918 527.806C202.714 530.103 199.026 532.845 195.529 536.299C193.212 538.499 190.703 540.004 188.007 541.563C184.446 543.621 181.67 545.795 178.592 548.696C176.823 549.927 174.992 551.016 173.158 552.121C168.627 554.919 164.477 558.005 160.34 561.469C156.371 564.792 152.606 567.455 148.047 569.706C145.764 570.98 144.065 572.659 142.173 574.533C140.888 575.769 140.888 575.769 138.644 576.542C136.43 577.453 135.648 578.015 133.949 579.688C130.69 582.752 127.182 585.246 123.567 587.77C122.93 588.222 122.294 588.675 121.638 589.141C118.944 591.035 116.309 592.857 113.403 594.308C111.497 595.291 110.506 595.926 109.122 597.585C106.468 600.458 103.466 602.291 100.237 604.296C83.9632 614.495 83.9632 614.495 77.3516 620.774C73.9271 623.495 70.3486 625.876 66.6621 628.127C63.6221 630 60.9918 632.115 58.2686 634.498C55.9526 636.38 53.479 637.847 50.9662 639.377C48.7906 640.755 46.7961 642.311 44.7671 643.937C42.2265 645.892 39.5708 647.635 36.9209 649.4C35.354 650.55 35.354 650.55 34.7041 651.902C34.2599 651.895 33.8158 651.888 33.3582 651.88C30.3705 652.235 28.8733 653.503 26.7167 655.87C24.3864 658.349 21.7878 660.15 19.0394 662.016C18.3999 662.451 18.3999 662.451 17.7474 662.894C15.921 664.114 14.1274 665.254 12.1818 666.212C9.46056 667.82 7.3309 669.807 5.01229 672.032C4.57959 672.44 4.14688 672.849 3.70106 673.27C2.64334 674.27 1.59012 675.276 0.537826 676.282C7.98223 680.071 15.4457 683.819 22.9355 687.517C26.413 689.235 29.8828 690.967 33.3378 692.731C36.6742 694.433 40.0271 696.098 43.3938 697.74C44.6733 698.371 45.9464 699.016 47.2128 699.674C57.127 704.809 57.127 704.809 61.5249 703.628C63.7229 702.334 65.4629 701.003 67.356 699.225C67.9173 698.752 68.4785 698.278 69.0567 697.791C70.0526 696.951 71.0387 696.097 72.0163 695.233C73.8451 693.761 75.7045 692.654 77.7086 691.502C80.9328 689.631 83.7481 687.503 86.5876 684.997C89.7469 682.243 92.608 680.311 96.3157 678.666C99.0153 677.462 100.786 676.07 102.631 673.608C104.904 670.771 107.91 669.356 110.918 667.622C113.036 666.323 114.899 664.915 116.838 663.315C119.089 661.479 121.118 660.115 123.7 658.963C127.455 657.266 130.456 654.731 133.703 652.054C135.327 650.754 136.88 649.647 138.64 648.605C140.91 647.247 142.742 645.752 144.778 644.009C146.178 643.035 147.587 642.084 149.008 641.15C150.418 640.058 150.418 640.058 151.886 638.383C153.856 636.296 155.805 635.053 158.199 633.598C161.807 631.374 165.28 629.035 168.713 626.483C169.945 625.581 171.213 624.741 172.487 623.916C174.083 622.842 175.385 621.817 176.824 620.536C178.915 618.73 181.032 617.39 183.383 616.038C187.161 613.827 190.551 611.269 194.019 608.504C198.542 604.906 203.007 602.039 208.078 599.492C210.576 598.02 212.133 597.043 213.914 594.647C215.677 592.4 217.617 591.517 220.064 590.317C225.299 587.684 229.476 584.07 233.959 580.121C238.35 576.269 238.35 576.269 243.341 573.61C246.142 572.416 247.996 570.74 250.34 568.686C253.511 566.019 256.988 563.931 260.463 561.8C263.808 559.74 266.92 557.704 269.862 554.985C271.529 553.662 273.312 552.785 275.153 551.793C281.194 548.009 286.393 543.961 291.589 538.869C293.802 536.843 295.742 535.872 298.364 534.638C299.657 533.603 300.891 532.507 302.137 531.403C303.537 530.212 303.537 530.212 305.929 529.115C308.077 527.963 308.982 527.298 310.598 525.53C312.4 523.565 314.047 522.546 316.396 521.441C318.813 520.106 320.907 518.259 323.089 516.503C327.724 512.847 332.18 509.775 337.52 507.66C339.972 506.184 341.878 504.595 343.585 502.145C344.428 499.142 343.965 497.857 342.761 495.193C342.097 494.489 341.406 493.813 340.697 493.161C337.87 490.467 336.604 487.109 335.023 483.44C332.844 478.633 330.154 474.155 326.834 470.214C324.09 466.862 322.249 462.857 320.243 458.947C318.817 456.176 317.249 453.53 315.639 450.888C314.603 449.085 313.719 447.224 312.828 445.326C311.613 442.812 310.353 440.833 308.512 438.83C306.024 436.087 304.592 433.032 303.045 429.573C301.421 426.043 299.497 422.732 297.599 419.382C297.212 418.647 296.824 417.911 296.425 417.153C295.705 416.397 294.965 415.662 294.211 414.945C292.207 412.919 291.28 411.084 290.186 408.328C289.448 407.257 288.691 406.201 287.92 405.158C286.659 403.433 285.786 402.217 285.163 400.088C284.378 397.401 282.825 395.589 281.186 393.468C280.046 391.7 279.584 390.056 279.008 387.973C276.967 383.878 274.349 380.234 271.699 376.604C269.422 373.473 267.715 370.329 266.242 366.65C263.586 360.542 259.618 355.346 255.583 350.296C254.304 348.842 254.304 348.842 254.503 347.062C256.011 343.165 257.43 341.503 260.853 339.394C261.631 338.907 262.409 338.42 263.211 337.918C265.259 336.713 267.32 335.57 269.404 334.448C272.106 332.974 273.923 331.408 276.022 329.065C277.769 327.364 279.748 326.351 281.818 325.209C283.308 324.361 284.677 323.441 286.079 322.426C288.371 320.776 290.717 319.364 293.136 317.96C296.814 315.774 299.933 313.232 303.197 310.37C304.947 308.955 306.583 307.955 308.536 306.938C311.945 305.145 314.694 302.814 317.648 300.224C320.752 297.545 323.962 295.526 327.439 293.515C331.397 291.168 335.209 288.502 338.576 285.207C340.336 283.413 340.336 283.413 342.245 282.475C344.982 280.978 347.508 279.231 350.084 277.416C350.562 277.084 351.039 276.753 351.531 276.412C354.336 274.444 356.986 272.361 359.608 270.11C361.495 268.527 363.452 267.119 365.443 265.698C366.198 265.155 366.953 264.612 367.731 264.052C369.811 262.601 369.811 262.601 371.851 261.872C374.004 260.945 375.172 259.763 376.853 258.015C381.062 253.852 385.582 250.139 390.936 248.078C393.172 247.087 393.823 246.401 395.412 244.505C397.78 241.705 399.757 241.228 403.098 240.289C404.098 239.407 405.097 238.519 406.027 237.552C408.013 235.648 410.259 234.171 412.471 232.603C414.096 231.419 414.096 231.419 416.122 229.635C417.843 228.119 417.843 228.119 420.025 227.402C422.69 226.249 424.816 224.744 427.123 222.9C429.817 220.797 432.486 218.776 435.353 216.968C438.642 214.866 441.576 212.351 444.559 209.761C445.908 208.494 445.908 208.494 447.004 208.1C451.975 210.488 453.943 215.795 456.307 220.794C458.142 224.668 460.095 227.708 462.896 230.808C464.651 232.906 465.451 235.225 466.082 237.984C467.001 240.644 468.432 242.667 470.057 244.827C470.489 245.44 470.489 245.44 470.93 246.065C472.881 248.681 474.403 249.916 477.632 250.287C479.498 249.519 479.498 249.519 480.434 247.754Z" fill="#A8E6A5"/>
<path d="M101.077 21.3537C101.82 22.4675 101.82 22.4675 102.577 23.6037C105.265 23.7914 105.265 23.7914 107.827 23.6037C108.075 22.8612 108.322 22.1187 108.577 21.3537C112.006 21.7651 115.083 22.4168 118.327 23.6037C118.327 24.3462 118.327 25.0887 118.327 25.8537C119.07 25.3587 119.812 24.8637 120.577 24.3537C132.252 30.6472 132.252 30.6472 133.984 36.2131C134.015 36.7545 134.046 37.2959 134.077 37.8537C133.83 38.1012 133.582 38.3487 133.327 38.6037C133.9 38.9905 134.472 39.3772 135.062 39.7756C137.539 42.0226 138.192 43.7466 139.327 46.8537C137.605 47.7148 136.27 47.8345 134.359 48.0256C133.746 48.0885 133.133 48.1513 132.501 48.216C132.031 48.2615 131.562 48.3069 131.077 48.3537C131.325 48.3537 131.572 48.3537 131.827 48.3537C134.827 48.3537 137.827 48.3537 140.827 48.3537C142.89 52.499 144.227 56.3145 144.885 60.9074C145.233 62.6816 145.233 62.6816 146.488 64.1477C148.109 66.3133 147.729 68.2335 147.577 70.8537C148.072 70.8537 148.567 70.8537 149.077 70.8537C151.242 75.6623 153.158 80.1876 153.838 85.4436C154.291 87.2097 154.858 88.4486 155.704 90.0461C157.661 93.821 158.809 97.7689 159.999 101.838C160.217 102.565 160.435 103.291 160.66 104.04C164.588 117.213 164.588 117.213 165.531 122.744C166.103 125.772 167.105 128.117 168.575 130.807C169.419 132.542 169.934 134.246 170.452 136.104C171.275 139.013 172.33 141.53 173.745 144.193C175.158 147.013 176.29 149.951 177.466 152.876C178.308 154.968 178.308 154.968 179.827 157.104C180.192 158.588 180.556 160.072 180.906 161.56C181.674 164.373 182.923 166.792 184.749 169.057C186.221 171.168 186.661 173.386 187.327 175.854C190.175 175.453 193.017 175.023 195.859 174.588C196.654 174.476 197.45 174.365 198.27 174.25C204.495 173.276 209.382 171.257 214.702 167.932C216.524 166.885 218.271 166.187 220.234 165.447C223.225 164.291 225.557 162.926 228.082 160.974C229.394 160.057 230.656 159.477 232.14 158.885C234.556 158.076 234.556 158.076 235.702 156.541C236.827 155.604 236.827 155.604 239.593 155.838C240.823 156.093 240.823 156.093 242.077 156.354C242.774 159.603 242.774 162.104 242.077 165.354C242.866 164.967 243.655 164.58 244.468 164.182C246.948 163.117 248.471 162.886 251.077 163.854C251.572 164.349 252.067 164.844 252.577 165.354C252.343 167.463 252.343 167.463 251.827 169.854C251.688 170.565 251.549 171.277 251.406 172.01C251.297 172.536 251.189 173.062 251.077 173.604C253.91 173.827 253.91 173.827 255.577 172.854C257.077 172.824 258.578 172.821 260.077 172.854C260.593 174.541 260.593 174.541 260.827 176.604C259.749 178.244 259.749 178.244 258.577 179.604C258.577 180.099 258.577 180.594 258.577 181.104C259.088 180.995 259.598 180.887 260.124 180.776C262.615 180.299 265.051 179.842 267.577 179.604C269.077 181.104 269.077 181.104 269.244 182.489C268.859 187.821 266.562 190.702 263.077 194.604C262.647 195.123 262.217 195.642 261.774 196.177C257.638 201.111 252.551 206.614 246.484 209.041C243.272 210.34 240.644 212.361 237.841 214.367C234.03 217.039 230.937 218.092 226.327 218.604C225.323 218.836 224.32 219.076 223.327 219.354C223.822 220.591 224.317 221.829 224.827 223.104C224.267 223.249 223.706 223.394 223.128 223.543C222.39 223.738 221.651 223.934 220.89 224.135C219.794 224.422 219.794 224.422 218.675 224.715C216.63 225.272 216.63 225.272 215.048 226.13C213.291 226.995 211.659 227.309 209.734 227.651C207.069 228.116 207.069 228.116 204.577 229.104C197.192 230.53 189.785 230.951 182.285 231.161C180.529 231.213 178.775 231.285 177.019 231.358C170.087 231.596 164.047 231.036 157.327 229.104C156.274 228.86 155.219 228.619 154.163 228.383C150.739 227.442 147.496 226.205 144.202 224.885C143.277 224.52 143.277 224.52 142.333 224.147C140.83 223.552 139.329 222.954 137.827 222.354C139.391 223.059 140.956 223.758 142.527 224.446C143.887 225.048 145.239 225.669 146.581 226.309C156.256 230.719 166.288 231.784 176.827 231.354C178.338 231.304 179.849 231.254 181.36 231.204C195.586 231.223 195.586 231.223 209.077 227.604C210.7 227.178 212.328 226.841 213.973 226.511C216.764 225.898 219.485 225.052 222.217 224.22C224.837 223.704 226.253 224.12 228.531 225.456C235.344 230.579 242.307 237.559 245.283 245.689C245.859 247.34 245.859 247.34 247.421 249.494C248.898 251.709 249.547 253.567 250.327 256.104C250.841 257.292 251.357 258.479 251.874 259.666C253.235 262.993 253.748 266.004 253.946 269.58C253.988 271.154 253.988 271.154 254.827 272.604C255.002 277.504 255.002 277.504 254.077 279.354C253.874 280.773 253.69 282.196 253.515 283.619C252.096 292.993 249.128 300.916 243.577 308.604C243.171 309.193 242.765 309.783 242.347 310.391C240.411 313.119 239.116 314.65 236.077 316.104C235.551 317.09 235.053 318.092 234.577 319.104C232.501 321.61 231.071 322.493 227.827 322.854C228.769 325.678 229.993 326.3 232.327 328.104C239.921 335.276 246.82 343.351 252.135 352.34C253.29 354.291 254.469 356.225 255.657 358.156C256.427 359.42 257.198 360.684 257.968 361.947C258.358 362.579 258.748 363.21 259.15 363.861C261.146 367.149 262.844 370.313 264.084 373.957C264.629 375.575 264.629 375.575 265.787 377.911C267.052 381.185 267.413 384.208 267.718 387.682C267.81 388.612 267.81 388.612 267.904 389.561C268.053 391.075 268.191 392.589 268.327 394.104C268.988 394.214 269.648 394.324 270.328 394.438C278.338 395.985 278.338 395.985 280.609 398.463C281.827 400.854 281.827 400.854 281.921 403.197C280.616 406.533 278.29 407.907 275.098 409.388C274.333 409.681 273.568 409.974 272.781 410.276C269.673 411.444 269.673 411.444 266.914 413.23C265.167 414.467 263.907 414.842 261.821 415.262C260.804 415.476 260.804 415.476 259.766 415.695C259.049 415.84 258.332 415.985 257.593 416.135C246.55 418.474 246.55 418.474 236.077 422.604C234.422 422.657 232.765 422.667 231.109 422.651C230.217 422.644 229.326 422.637 228.408 422.63C227.721 422.621 227.035 422.613 226.327 422.604C224.352 419.672 223.184 417.526 222.952 413.979C221.833 397.822 213.854 379.522 202.187 368.276C197.537 364.35 192.337 361.278 187.114 358.186C185.827 357.354 185.827 357.354 183.829 355.59C182.179 354.15 182.179 354.15 180.205 354.477C179.586 354.684 178.966 354.891 178.327 355.104C177.386 355.344 177.386 355.344 176.426 355.59C175.801 355.77 175.175 355.95 174.531 356.135C173.589 356.399 173.589 356.399 172.629 356.668C170.783 357.271 170.783 357.271 169.31 358.529C167.567 359.793 166.532 359.914 164.406 360.026C161.793 360.171 161.121 360.325 158.827 361.854C149.17 364.008 139.236 364.177 129.39 364.244C128.137 364.259 128.137 364.259 126.86 364.274C121.186 364.28 116.205 363.646 110.827 361.854C109.5 361.777 108.172 361.717 106.843 361.666C102.131 361.313 98.1437 359.98 93.7532 358.288C91.8388 357.551 89.9666 356.935 87.9993 356.369C74.0001 351.669 58.1013 340.469 50.0774 328.104C49.4742 327.516 48.8709 326.928 48.2493 326.322C45.881 323.896 44.2855 321.264 42.5774 318.354C42.1907 317.72 41.804 317.085 41.4056 316.432C40.5628 315.003 39.7384 313.563 38.9212 312.119C37.8529 310.234 36.7237 308.407 35.5462 306.588C31.039 299.311 28.2994 292.338 26.1465 284.077C25.1283 280.19 25.1283 280.19 23.3733 276.6C21.9472 274.219 21.7876 272.119 21.4837 269.369C21.3961 268.586 21.3961 268.586 21.3068 267.787C17.9825 236.746 17.9825 236.746 23.0774 229.104C23.3655 227.124 23.3655 227.124 23.4524 224.979C23.6073 222.098 23.6857 221.066 25.3274 218.604C25.4799 217.053 25.6304 215.503 25.7698 213.951C26.4008 209.649 27.8362 205.513 29.0774 201.354C30.054 197.897 30.7153 194.453 31.2337 190.901C31.6885 188.013 32.2788 185.642 33.5774 183.026C35.3009 179.528 35.6559 176.093 36.1556 172.256C36.669 169.332 37.6787 166.872 38.8655 164.167C39.8457 161.67 40.3222 159.159 40.7815 156.524C41.0774 154.854 41.0774 154.854 41.47 153.462C42.1642 150.338 42.133 147.1 42.2933 143.911C42.5657 141.46 43.1563 139.863 44.0774 137.604C44.5777 135.433 44.9189 133.244 45.2493 131.041C45.3468 130.392 45.4444 129.743 45.5448 129.074C46.6072 121.424 46.7883 113.753 47.0046 106.042C47.1091 102.902 47.3017 99.7701 47.4993 96.635C48.672 86.8375 48.672 86.8375 47.0774 77.6037C47.1333 67.9586 47.8049 56.9927 54.012 49.2824C55.3316 47.5984 56.2178 45.9581 57.1556 44.0412C59.1144 40.4161 61.6773 38.5733 65.0774 36.3537C66.3765 35.4507 67.6734 34.5444 68.9681 33.635C69.8657 33.0172 69.8657 33.0172 70.7815 32.3869C72.0288 31.4958 73.2434 30.5579 74.429 29.5862C79.5351 25.599 85.438 23.3691 91.6556 21.7756C92.4137 21.5777 92.4137 21.5777 93.1872 21.3757C96.0274 20.7028 98.3012 20.341 101.077 21.3537Z" fill="#F2F4F3"/>
<path d="M243.578 242.604C250.068 242.766 255.824 243.045 261.891 245.574C263.922 246.391 265.925 246.945 268.047 247.479C272.839 248.741 277.178 250.568 281.406 253.15C283.5 254.402 285.524 255.079 287.875 255.729C291.097 256.635 293.352 257.866 296.078 259.854C297.293 260.562 298.512 261.265 299.734 261.963C302.847 263.81 305.432 265.879 308.087 268.326C309.605 269.627 311.153 270.626 312.859 271.666C316.571 274.044 319.231 277.142 322.111 280.446C323.462 281.948 324.724 283.19 326.312 284.416C328.81 286.507 330.32 288.613 332.078 291.354C332.078 291.849 332.078 292.344 332.078 292.854C332.883 292.81 333.689 292.767 334.518 292.722C344.237 292.355 344.237 292.355 347.406 294.635C349.591 296.873 350.008 297.387 350.306 300.453C350.027 304.004 348.943 306.226 347.172 309.26C346.87 309.786 346.568 310.311 346.256 310.853C343.478 315.476 340.14 318.859 335.828 322.104C334.972 322.759 334.972 322.759 334.099 323.428C333.107 324.176 332.108 324.915 331.096 325.637C329.798 326.579 329.798 326.579 328.682 327.77C327.247 329.178 325.569 329.982 323.819 330.945C322.22 331.919 320.827 333.015 319.375 334.197C316.157 336.747 312.796 339.013 309.344 341.229C308.823 341.572 308.302 341.915 307.766 342.269C307.269 342.583 306.771 342.897 306.259 343.221C305.814 343.505 305.37 343.79 304.913 344.083C303.159 344.767 302.305 344.554 300.578 343.854C299.131 341.996 299.131 341.996 297.672 339.635C295.665 336.487 293.643 333.645 291.144 330.884C289.917 329.41 288.938 327.854 287.922 326.229C285.965 323.209 283.756 321.046 280.984 318.772C279.578 317.604 279.578 317.604 277.656 315.588C275.921 313.942 274.234 312.844 272.128 311.729C270.578 310.854 270.578 310.854 268.723 309.579C264.333 306.566 260.551 304.91 255.341 303.819C252.883 303.251 250.995 302.368 248.828 301.104C249.573 297.55 250.383 294.105 251.5 290.65C252.515 287.391 252.944 284.278 253.17 280.877C253.328 279.354 253.328 279.354 254.078 277.854C254.307 274.364 254.307 274.364 253.328 271.104C253.109 269.434 252.909 267.761 252.719 266.088C252.12 261.679 251.228 259.029 248.828 255.354C248.58 254.456 248.333 253.559 248.078 252.635C247.268 249.901 246.107 248.535 244.328 246.354C244.037 245.112 243.781 243.862 243.578 242.604Z" fill="#51CB59"/>
<path d="M227.172 99.1187C227.856 99.1066 228.541 99.0945 229.246 99.082C233.83 99.0788 237.896 99.6303 242.078 101.603C242.82 102.346 242.82 102.346 243.578 103.103C243.297 105.822 243.297 105.822 242.828 108.353C240.848 109.096 238.868 109.838 236.828 110.603C236.828 111.098 236.828 111.593 236.828 112.103C237.679 112.335 238.529 112.567 239.406 112.806C242.078 113.603 242.078 113.603 242.828 114.353C243.109 116.134 243.109 116.134 242.828 118.103C240.953 119.462 240.953 119.462 239.078 120.353C239.101 122.165 239.101 122.165 239.828 124.103C242.003 125.409 242.003 125.409 244.328 126.353C244.823 126.848 245.318 127.343 245.828 127.853C245.687 129.728 245.687 129.728 245.078 131.603C242.89 133.062 241.609 133.443 239.078 133.853C239.114 135.262 239.114 135.262 239.828 136.853C240.942 137.596 240.942 137.596 242.078 138.353C244.328 139.853 244.328 139.853 245.125 141.4C245.078 142.853 245.078 142.853 244.178 144.004C242.528 145.347 241.241 145.661 239.172 146.134C234.216 147.385 229.57 149.215 224.828 151.103C223.775 151.487 223.775 151.487 222.701 151.879C219.339 153.126 216.818 154.314 214.149 156.784C211.02 159.316 207.319 161.12 203.828 163.103C198.342 166.27 193.11 170.555 189.578 175.853C188.835 175.853 188.093 175.853 187.328 175.853C187.083 175.346 186.839 174.84 186.587 174.318C186.095 173.314 186.095 173.314 185.594 172.291C185.272 171.629 184.95 170.968 184.618 170.287C183.651 168.488 182.572 166.965 181.328 165.353C180.302 163.181 179.738 161.193 179.219 158.837C178.457 155.64 177.064 152.94 175.551 150.037C173.307 145.576 171.648 140.844 169.923 136.165C168.973 133.671 167.936 131.213 166.905 128.752C166.328 127.103 166.328 127.103 166.328 124.853C166.78 124.617 167.233 124.381 167.699 124.138C168.298 123.817 168.898 123.496 169.515 123.166C170.107 122.852 170.699 122.539 171.308 122.216C173.109 121.187 173.109 121.187 174.39 119.709C176.84 117.378 179.677 115.951 182.64 114.353C183.22 114.034 183.801 113.715 184.398 113.386C187.602 111.634 190.836 109.979 194.119 108.382C195.647 107.566 197.022 106.626 198.446 105.643C201.976 103.388 205.598 102.833 209.687 102.212C211.084 101.988 212.479 101.758 213.874 101.524C214.789 101.383 214.789 101.383 215.722 101.239C224.578 99.1097 224.578 99.1097 227.172 99.1187Z" fill="#51CB59"/>
<path d="M118.328 48.3535C118.699 49.096 118.699 49.096 119.078 49.8535C118.83 50.3485 118.583 50.8435 118.328 51.3535C117.843 57.2508 118.522 62.3216 120.578 67.8535C120.207 68.2248 120.207 68.2248 119.828 68.6035C119.728 70.2743 119.655 71.9466 119.594 73.6191C119.316 77.8272 118.976 80.3832 116.078 83.6035C115.536 84.346 114.995 85.0885 114.437 85.8535C111.303 89.433 107.981 92.2153 103.184 92.9902C98.1783 93.1527 93.8656 92.7375 89.8279 89.6035C88.4106 88.1786 87.2927 86.7233 86.0779 85.1035C85.5365 84.593 84.9951 84.0826 84.4373 83.5566C82.8261 81.8344 82.1634 80.6422 81.5779 78.3535C81.7654 75.9629 81.7654 75.9629 82.3279 73.1035C82.4043 72.5205 82.4806 71.9376 82.5593 71.3369C83.435 65.5141 85.819 61.3187 90.0095 57.2012C94.369 54.3608 101.607 54.5263 106.656 55.5723C110.973 57.2384 115.142 59.2431 117.578 63.3535C117.207 62.2398 117.207 62.2398 116.828 61.1035C116.738 59.3552 116.696 57.6041 116.687 55.8535C116.677 54.9254 116.666 53.9973 116.655 53.041C116.828 50.6035 116.828 50.6035 118.328 48.3535Z" fill="#E3E7E5"/>
<path d="M132.738 39.0142C134.829 39.354 134.829 39.354 136.798 40.9946C137.743 42.9273 138.632 44.8184 139.329 46.854C137.607 47.7151 136.272 47.8348 134.361 48.0259C133.748 48.0887 133.135 48.1516 132.503 48.2163C132.033 48.2617 131.564 48.3072 131.079 48.354C131.327 48.354 131.574 48.354 131.829 48.354C134.829 48.354 137.829 48.354 140.829 48.354C142.892 52.4993 144.229 56.3147 144.887 60.9077C145.404 62.8903 146.359 63.9791 147.579 65.604C148.093 67.834 147.878 69.2556 147.579 71.604C144.201 74.8739 138.3 75.3923 133.751 75.6821C129.221 75.5866 125.08 73.413 121.59 70.6079C117.825 65.9365 117.118 59.1057 117.336 53.3228C117.654 50.7509 118.394 49.0068 119.829 46.854C120.309 46.0806 120.788 45.3071 121.283 44.5102C124.781 39.634 126.761 38.8106 132.738 39.0142Z" fill="#EAEDEC"/>
<path d="M136.14 37.5254C141.145 37.6045 146.193 40.4445 149.851 43.7158C150.96 44.9734 151.93 46.1891 152.828 47.6035C153.117 48.0173 153.406 48.4311 153.704 48.8574C154.682 51.5944 154.317 54.208 154.094 57.0723C154.057 57.6543 154.021 58.2363 153.984 58.8359C153.689 63.1311 153.689 63.1311 152.828 64.8535C152.333 64.8535 151.838 64.8535 151.328 64.8535C151.127 65.4259 150.926 65.9982 150.719 66.5879C149.857 68.5377 149.101 69.4301 147.578 70.8535C147.487 70.3837 147.396 69.9138 147.302 69.4297C147.177 68.8167 147.051 68.2038 146.922 67.5723C146.8 66.9632 146.678 66.3541 146.552 65.7266C146.178 63.9635 146.178 63.9635 144.578 62.6035C144.182 61.0273 144.182 61.0273 143.875 59.1348C143.228 55.5757 142.191 52.4497 140.828 49.1035C140.204 49.1035 139.581 49.1035 138.938 49.1035C135.818 49.1035 132.698 49.1035 129.578 49.1035C131.376 47.3053 132.077 47.3464 134.547 47.1348C135.466 47.0507 135.466 47.0507 136.404 46.9648C136.874 46.9281 137.344 46.8914 137.828 46.8535C137.828 43.6475 136.985 42.4657 134.828 40.1035C132.327 39.492 129.897 39.3633 127.328 39.3535C127.328 39.106 127.328 38.8585 127.328 38.6035C130.26 38.1846 133.198 37.8686 136.14 37.5254Z" fill="#10352B" fill-opacity="0.2"/>
<path d="M182.078 292.854C183.329 293.1 184.578 293.351 185.828 293.604C187.1 293.86 187.1 293.86 188.397 294.122C197.199 296.095 205.311 299.265 212.646 304.61C214.971 306.435 214.971 306.435 217.562 307.291C220.977 308.614 223.345 311.22 225.932 313.736C227.946 315.454 229.924 316.515 232.328 317.604C232.328 318.099 232.328 318.594 232.328 319.104C227.143 317.178 223.735 314.553 220.038 310.449C218.654 309.196 217.417 308.639 215.687 307.947C213.36 306.96 211.246 305.901 209.125 304.525C203.243 300.773 197.665 298.406 190.86 296.927C187.653 296.214 184.956 295.185 182.078 293.604C182.078 293.356 182.078 293.109 182.078 292.854Z" fill="#10352B" fill-opacity="0.3"/>
<path d="M118.329 48.3535C118.576 48.8485 118.824 49.3435 119.079 49.8535C118.831 50.3485 118.584 50.8435 118.329 51.3535C117.844 57.2508 118.523 62.3216 120.579 67.8535C120.331 68.101 120.084 68.3485 119.829 68.6035C119.614 71.2961 119.492 73.9886 119.363 76.6865C119.079 79.1035 119.079 79.1035 117.579 80.6035C117.592 79.1939 117.592 79.1939 117.605 77.7559C117.612 76.5176 117.619 75.2793 117.626 74.041C117.632 73.4223 117.638 72.8035 117.645 72.166C117.648 71.2669 117.648 71.2669 117.652 70.3496C117.656 69.7997 117.66 69.2499 117.664 68.6833C117.629 67.0743 117.629 67.0743 117.152 65.4475C117.046 65.004 116.939 64.5605 116.829 64.1035C117.076 63.856 117.324 63.6085 117.579 63.3535C117.331 62.611 117.084 61.8685 116.829 61.1035C116.739 59.3552 116.697 57.6041 116.688 55.8535C116.678 54.9254 116.667 53.9973 116.656 53.041C116.829 50.6035 116.829 50.6035 118.329 48.3535Z" fill="#6D837C"/>
<path d="M127.328 39.3535C126.364 41.5037 125.399 43.0856 123.578 44.6035C123.083 44.6035 122.588 44.6035 122.078 44.6035C121.83 45.0985 121.583 45.5935 121.328 46.1035C121.673 42.993 123.965 39.3535 127.328 39.3535Z" fill="#98A8A2"/>
<path d="M82.2561 74.0118C81.8922 74.4288 81.5284 74.8457 81.1536 75.2754C80.6018 75.2343 80.0499 75.1933 79.4814 75.151C73.8428 76.9414 69.4108 79.4953 65.0752 83.4985C64.7523 83.3634 64.4294 83.2284 64.0968 83.0893C61.525 83.9133 58.9882 84.8225 56.444 85.7276C54.1007 86.3824 54.1007 86.3824 52.1437 85.5641C53.4524 85.0409 53.4524 85.0409 54.7875 84.5071C55.9355 84.0434 57.0833 83.5795 58.2311 83.1155C58.8058 82.8863 59.3804 82.6572 59.9725 82.4211C60.8055 82.083 60.8055 82.083 61.6552 81.7381C62.1653 81.533 62.6753 81.3278 63.2009 81.1164C64.6759 80.4733 64.6759 80.4733 65.9994 79.4143C66.369 79.1471 66.7387 78.8799 67.1195 78.6046C67.4424 78.7396 67.7653 78.8746 68.098 79.0137C68.6908 78.5028 69.2835 77.9918 69.8942 77.4654C71.4769 76.7179 73.0808 76.0149 74.6965 75.3417C75.5508 74.9794 76.4052 74.6171 77.2855 74.2439C79.6055 73.4782 79.6055 73.4782 82.2561 74.0118Z" fill="#6D837C"/>
<path d="M94.1865 112.767C97.7721 114.713 101.358 116.659 104.943 118.605C106.926 118.574 106.926 118.574 109.06 118.307C109.784 118.23 110.508 118.153 111.254 118.074C111.808 118.009 112.362 117.944 112.933 117.877C113.007 118.126 113.081 118.375 113.157 118.631C109.912 120.067 107.061 121.247 103.532 120.321C100.403 118.887 97.4905 117.263 94.8574 115.03C94.636 114.283 94.4146 113.536 94.1865 112.767Z" fill="#284A40"/>
<path d="M97.9044 64.2957C101.813 64.5436 104.553 66.1011 107.688 68.3322C108.677 70.3812 108.677 70.3812 109.005 72.0389C108.516 72.2128 108.027 72.3867 107.523 72.5659C106.843 71.671 106.843 71.671 106.15 70.7579C104.226 68.2818 104.226 68.2818 101.923 66.2069C98.9544 65.9788 96.1702 67.1503 93.5059 68.3645C91.5811 70.6383 91.5811 70.6383 90.112 72.9111C89.6228 73.085 89.1336 73.2589 88.6295 73.4382C89.0804 75.4822 89.5313 77.5263 89.9958 79.6323C89.5066 79.8062 89.0173 79.9802 88.5133 80.1594C86.6773 74.9929 86.6773 74.9929 87.9818 72.1387C90.8526 67.852 92.8053 65.7284 97.9044 64.2957Z" fill="#34534B"/>
<path d="M134.623 51.3905C138.531 51.6383 141.272 53.1958 144.407 55.427C145.396 57.4759 145.396 57.4759 145.724 59.1336C145.235 59.3075 144.746 59.4815 144.241 59.6607C143.562 58.7657 143.562 58.7657 142.868 57.8526C140.944 55.3765 140.944 55.3765 138.642 53.3016C135.673 53.0735 132.889 54.2451 130.225 55.4592C128.3 57.733 128.3 57.733 126.831 60.0058C126.342 60.1797 125.852 60.3537 125.348 60.5329C125.799 62.5769 126.25 64.621 126.715 66.727C126.225 66.901 125.736 67.0749 125.232 67.2541C123.396 62.0876 123.396 62.0876 124.701 59.2334C127.571 54.9467 129.524 52.8231 134.623 51.3905Z" fill="#34534B"/>
<path d="M105.144 21.7896C104.802 25.9001 104.802 25.9001 103.126 27.8437C102.991 28.2495 102.856 28.6553 102.716 29.0734C101.852 30.9399 100.812 31.7844 99.0906 32.8888C97.2517 32.8888 96.1121 32.7298 94.5504 31.7536C94.0459 30.8707 94.0459 30.8707 94.109 29.6725C94.988 27.0353 96.1039 25.589 98.5231 24.2175C99.161 23.8478 99.161 23.8478 99.8118 23.4706C101.636 22.5251 103.07 21.7896 105.144 21.7896Z" fill="#EFF1F0"/>
<path d="M94.4243 0.0328442C94.7761 0.0373966 95.128 0.041949 95.4904 0.0466394C96.3543 0.0584739 97.218 0.0765696 98.0817 0.095908C98.0817 0.262397 98.0817 0.428885 98.0817 0.600419C97.4857 0.584811 97.4857 0.584811 96.8777 0.568887C91.5532 0.669715 87.7805 2.54473 83.8758 6.1461C81.7676 8.45378 80.0831 11.0873 78.4075 13.7177C78.0745 14.2172 77.7416 14.7166 77.3985 15.2312C76.016 19.2255 75.3831 24.3119 76.9729 28.2973C77.6533 29.5051 77.6533 29.5051 78.4094 30.5498C78.6582 30.9586 78.6582 30.9586 78.9119 31.3756C78.7455 31.7086 78.579 32.0415 78.4075 32.3846C77.9095 31.7571 77.4165 31.1257 76.9256 30.4927C76.6505 30.1415 76.3754 29.7903 76.092 29.4285C74.0881 26.3862 74.6229 22.2593 74.8762 18.7628C75.7328 15.1402 77.7525 12.1504 79.9209 9.1771C80.3179 8.59862 80.3179 8.59862 80.7229 8.00845C82.8771 5.01263 85.3471 3.00969 88.4968 1.10493C88.7992 0.907875 89.1016 0.71082 89.4131 0.507794C91.0611 -0.108397 92.6918 -0.00973665 94.4243 0.0328442Z" fill="#1F403A"/>
<path d="M104.478 4.28564C106.651 6.80939 107.61 9.70576 107.704 13.0239C107.537 15.0135 107.105 16.4971 106.153 18.2582C106.171 17.8433 106.188 17.4284 106.206 17.0009C106.425 10.7578 106.425 10.7578 103.528 5.48188C102.718 4.77241 101.889 4.08386 101.04 3.42245C100.729 3.15711 100.419 2.89177 100.1 2.61839C100.1 2.28541 100.1 1.95244 100.1 1.60937C97.2696 1.44288 94.4395 1.27639 91.5237 1.10486C91.5237 0.938369 91.5237 0.771881 91.5237 0.600347C92.5634 0.487693 93.6041 0.384402 94.6451 0.285028C95.2245 0.226497 95.8039 0.167965 96.4009 0.107661C99.915 0.0829403 101.997 1.98152 104.478 4.28564Z" fill="#36514F"/>
<path d="M104.64 22.7988C105.649 24.3124 105.649 24.3124 105.554 25.5106C105.1 26.9792 104.468 28.0701 103.631 29.3575C103.303 29.9974 103.303 29.9974 102.969 30.6503C101.568 32.6744 99.9985 33.7279 97.5773 34.1819C95.3455 33.7633 94.5407 33.0993 93.0371 31.3755C93.0669 29.6156 93.2604 28.4063 94.046 26.8349C94.379 26.8349 94.7119 26.8349 95.055 26.8349C94.8885 28.1668 94.722 29.4987 94.5505 30.871C95.347 31.7332 95.347 31.7332 96.5684 32.3845C98.4862 32.3503 99.6685 32.1915 101.235 31.0602C103.061 28.5814 103.861 25.7343 104.64 22.7988Z" fill="#3A5950"/>
<path d="M106.658 16.2402C106.824 16.2402 106.99 16.2402 107.162 16.2402C107.162 17.7386 107.162 19.237 107.162 20.7808C108.993 20.7808 110.824 20.7808 112.711 20.7808C112.711 20.9473 112.711 21.1138 112.711 21.2853C109.715 21.5351 109.715 21.5351 106.658 21.7899C106.325 22.6223 105.992 23.4547 105.649 24.3124C105.482 24.3124 105.316 24.3124 105.144 24.3124C105.144 23.48 105.144 22.6475 105.144 21.7899C101.633 23.1449 98.5145 24.484 95.5592 26.835C95.2263 26.6685 94.8933 26.502 94.5503 26.3305C95.7398 25.0281 97.0098 24.1711 98.523 23.2719C99.1609 22.8885 99.1609 22.8885 99.8117 22.4974C101.99 21.3089 103.653 20.638 106.153 20.7808C106.32 19.2824 106.486 17.784 106.658 16.2402Z" fill="#2A4A44"/>
<path d="M75.8852 16.2402C76.4212 17.1862 76.4212 17.1862 76.8941 18.2583C76.7277 18.5913 76.5612 18.9242 76.3897 19.2673C76.026 23.4708 75.9044 26.9853 78.4095 30.5498C78.5753 30.8223 78.7412 31.0948 78.912 31.3756C78.7455 31.7085 78.5791 32.0415 78.4076 32.3846C77.9096 31.7571 77.4166 31.1257 76.9257 30.4927C76.6506 30.1415 76.3755 29.7903 76.0921 29.4285C74.6574 27.2503 74.7944 25.1471 74.7817 22.5782C74.771 21.5958 74.771 21.5958 74.76 20.5936C74.8684 18.8865 75.1428 17.7633 75.8852 16.2402Z" fill="#304E4A"/>
<path d="M104.64 22.7988C105.649 24.3124 105.649 24.3124 105.554 25.5106C105.1 26.9792 104.468 28.0701 103.631 29.3575C103.402 29.7945 103.173 30.2315 102.937 30.6818C101.992 32.063 101.07 32.6361 99.595 33.3936C99.4286 33.0606 99.2621 32.7276 99.0906 32.3845C99.7929 31.8695 99.7929 31.8695 100.509 31.344C103.128 29.1565 103.796 25.9776 104.64 22.7988Z" fill="#304F47"/>
<path d="M103.631 3.62743C103.298 3.96041 102.965 4.29338 102.622 4.63645C101.761 3.99036 100.92 3.31581 100.1 2.61841C100.1 2.28543 100.1 1.95245 100.1 1.60939C97.2696 1.4429 94.4395 1.27641 91.5237 1.10487C91.5237 0.938386 91.5237 0.771897 91.5237 0.600364C92.5634 0.48771 93.6041 0.384418 94.6451 0.285044C95.2245 0.226513 95.8039 0.167982 96.4009 0.107677C99.6349 0.0849273 101.32 1.58542 103.631 3.62743Z" fill="#465E5F"/>
<path d="M112.711 20.7808C115.526 21.8532 117.434 23.6322 118.765 26.3304C118.594 27.4675 118.594 27.4675 118.261 28.3484C117.969 27.901 117.678 27.4535 117.378 26.9926C115.887 24.7673 114.448 22.8058 112.207 21.2853C112.374 21.1188 112.54 20.9523 112.711 20.7808Z" fill="#294843"/>
<path d="M80.4253 8.67236C80.7583 8.83885 81.0912 9.00534 81.4342 9.17687C81.2333 9.46368 81.0324 9.75048 80.8253 10.046C79.2211 12.3842 77.9083 14.6004 76.894 17.249C76.7275 17.249 76.5611 17.249 76.3896 17.249C76.2184 15.4088 76.1945 14.5006 77.2724 12.9607C77.6469 12.5445 78.0215 12.1283 78.4074 11.6994C79.1059 10.7059 79.7625 9.69039 80.4253 8.67236Z" fill="#1F403A"/>
<path d="M84.461 3.62744C84.794 3.62744 85.1269 3.62744 85.47 3.62744C84.6288 5.61592 83.3375 7.05271 81.9387 8.67255C81.4393 8.50606 80.9399 8.33957 80.4253 8.16804C81.0734 7.4083 81.7258 6.6522 82.3801 5.89774C82.9244 5.2656 82.9244 5.2656 83.4797 4.6207C83.8035 4.29292 84.1274 3.96515 84.461 3.62744Z" fill="#314E4B"/>
<g clip-path="url(#clip0_2415_1088)">
<path d="M341.094 31.8453C340.337 31.6052 340.346 31.5772 339.59 31.3371C338.834 31.097 338.883 30.9416 338.127 30.7015C337.371 30.4614 337.302 30.6799 336.545 30.4398C335.789 30.1997 335.801 30.1634 335.045 29.9233C334.288 29.6832 334.287 29.6863 333.531 29.4462C332.775 29.206 332.788 29.1646 332.032 28.9245C331.276 28.6844 331.323 28.5352 330.567 28.2951C329.811 28.0549 329.798 28.0943 329.042 27.8542C328.286 27.6141 328.239 27.7632 327.482 27.5231C326.726 27.283 326.727 27.2809 325.971 27.0408C325.215 26.8007 325.178 26.9157 324.422 26.6755C323.666 26.4354 323.719 26.2686 322.963 26.0285C322.206 25.7884 322.177 25.8795 321.421 25.6394C320.665 25.3993 320.66 25.4148 319.904 25.1747C319.148 24.9346 319.201 24.7668 318.445 24.5267C317.689 24.2865 317.681 24.3124 316.924 24.0723C316.168 23.8322 316.182 23.7876 315.426 23.5475C314.67 23.3074 314.683 23.268 313.926 23.0279C313.17 22.7878 313.149 22.8551 312.393 22.615C311.636 22.3749 311.593 22.5106 310.837 22.2705C310.081 22.0303 310.136 21.8563 309.38 21.6162C308.624 21.3761 308.619 21.3926 307.863 21.1525C307.106 20.9124 307.093 20.9549 306.337 20.7147C305.581 20.4746 305.562 20.5316 304.805 20.2911C304.049 20.051 304.023 20.1318 303.267 19.8917C302.511 19.6516 302.54 19.5604 301.783 19.32C301.027 19.0798 301.054 18.9928 300.298 18.7527C299.541 18.5122 299.491 18.6697 298.735 18.4296C297.978 18.1891 298.017 18.0659 297.26 17.8257C296.76 17.6669 296.254 17.4936 295.751 17.4262C295.234 17.3566 294.709 17.6095 294.199 17.6302C293.68 17.6524 293.173 17.6133 292.672 17.7235C292.167 17.8345 291.601 17.788 291.126 17.9838C290.649 18.1804 290.165 18.4303 289.728 18.7067C289.294 18.9817 288.866 19.3178 288.483 19.666C288.104 20.011 287.925 20.5573 287.609 20.9688C287.297 21.3727 287.077 21.8216 286.835 22.2843C286.6 22.7342 286.269 23.1421 286.11 23.6424C285.87 24.3966 285.803 24.3752 285.564 25.1283C285.324 25.8824 285.375 25.8985 285.136 26.6526C284.896 27.4068 284.933 27.4186 284.694 28.1727C284.454 28.9269 284.357 28.8959 284.118 29.649C283.878 30.4032 284.106 30.4755 283.867 31.2297C283.627 31.9838 283.446 31.9262 283.207 32.6793C282.967 33.4334 283.099 33.4752 282.86 34.2293C282.62 34.9835 282.591 34.9743 282.352 35.7284C282.112 36.4825 281.967 36.4365 281.728 37.1906C281.488 37.9447 281.555 37.9661 281.316 38.7202C281.077 39.4743 281.209 39.5164 280.97 40.2706C280.73 41.0247 280.461 40.9392 280.221 41.6933C279.982 42.4474 280.046 42.4678 279.807 43.2219C279.567 43.9761 279.701 44.0185 279.461 44.7726C279.222 45.5268 279.127 45.4965 278.887 46.2506C278.648 47.0047 278.59 46.9863 278.35 47.7405C278.111 48.4946 278.162 48.511 277.923 49.2652C277.683 50.0193 277.834 50.067 277.594 50.8211C277.355 51.5752 277.287 51.5538 277.048 52.308C276.808 53.0621 276.683 53.0223 276.444 53.7764C276.204 54.5305 276.313 54.5651 276.074 55.3182C275.834 56.0723 275.864 56.0818 275.625 56.836C275.385 57.5901 275.402 57.5954 275.163 58.3495C274.923 59.1036 274.807 59.0668 274.568 59.8209C274.328 60.575 274.255 60.5517 274.015 61.3058C273.776 62.0599 273.87 62.0899 273.63 62.844C273.391 63.5981 273.344 63.5833 273.105 64.3374C272.865 65.0916 272.935 65.1136 272.695 65.8677C272.456 66.6219 272.432 66.6143 272.192 67.3684C271.953 68.1225 272.123 68.1765 271.883 68.9306C271.644 69.6847 271.484 69.6341 271.245 70.3882C271.005 71.1423 270.974 71.1325 270.735 71.8866C270.495 72.6407 270.638 72.6861 270.399 73.4402C270.159 74.1944 270.098 74.1749 269.859 74.9291C269.619 75.6832 269.729 75.7181 269.489 76.4732C269.25 77.2274 269.104 77.181 268.864 77.9361C268.705 78.4365 268.7 78.9559 268.632 79.4591C268.563 79.9764 268.398 80.4805 268.42 80.9903C268.442 81.5094 268.687 81.9899 268.799 82.4905C268.91 82.9955 268.939 83.5145 269.136 83.9898C269.332 84.4662 269.569 84.9234 269.845 85.3601C270.12 85.7941 270.319 86.3075 270.667 86.6896C271.012 87.0683 271.507 87.3107 271.918 87.6273C272.322 87.9391 272.813 88.1043 273.276 88.3448C273.726 88.5801 274.172 88.7923 274.672 88.9512C275.428 89.1913 275.425 89.2017 276.181 89.4418C276.937 89.6819 276.896 89.8114 277.653 90.0515C278.409 90.2916 278.398 90.3269 279.154 90.567C279.91 90.8071 279.889 90.8734 280.645 91.1135C281.401 91.3537 281.453 91.1889 282.21 91.4291C282.966 91.6692 282.95 91.7179 283.706 91.958C284.463 92.1981 284.513 92.0396 285.269 92.2797C286.025 92.5199 286.004 92.5862 286.76 92.8263C287.517 93.0664 287.463 93.2363 288.219 93.4764C288.975 93.7165 289.004 93.6254 289.76 93.8655C290.516 94.1056 290.543 94.0217 291.299 94.2619C292.055 94.502 291.998 94.6833 292.754 94.9234C293.51 95.1635 293.509 95.1676 294.265 95.4078C295.021 95.6479 295.006 95.6945 295.762 95.9346C296.519 96.1747 296.561 96.0422 297.317 96.2823C298.073 96.5224 298.077 96.5089 298.834 96.7491C299.59 96.9892 299.585 97.0026 300.342 97.2428C301.098 97.4829 301.1 97.4767 301.856 97.7168C302.612 97.9569 302.654 97.8264 303.41 98.0665C304.166 98.3066 304.14 98.3885 304.896 98.6286C305.652 98.8687 305.682 98.7734 306.439 99.0136C307.195 99.2537 307.162 99.3573 307.918 99.5974C308.674 99.8375 308.673 99.8416 309.429 100.082C310.185 100.322 310.151 100.43 310.908 100.67C311.664 100.91 311.715 100.75 312.472 100.99C313.228 101.23 313.165 101.427 313.922 101.667C314.679 101.907 314.714 101.797 315.47 102.038C316.227 102.278 316.266 102.156 317.022 102.396C317.779 102.636 317.754 102.714 318.511 102.954C319.011 103.113 319.491 103.345 319.994 103.414C320.511 103.483 321.037 103.402 321.547 103.381C322.066 103.359 322.595 103.388 323.096 103.277C323.601 103.166 324.027 102.815 324.503 102.62C324.979 102.423 325.528 102.369 325.964 102.094C326.398 101.819 326.777 101.451 327.16 101.103C327.539 100.758 327.925 100.404 328.242 99.9925C328.554 99.5886 328.686 99.0674 328.928 98.6047C329.163 98.1548 329.313 97.6849 329.472 97.1845C329.711 96.4304 329.915 96.4949 330.154 95.7418C330.393 94.9877 330.329 94.9673 330.568 94.2131C330.808 93.459 330.769 93.4465 331.008 92.6934C331.247 91.9393 331.192 91.9219 331.431 91.1688C331.671 90.4147 331.86 90.4748 332.1 89.7207C332.339 88.9666 332.33 88.9636 332.569 88.2105C332.809 87.4564 332.686 87.4176 332.926 86.6635C333.165 85.9093 333.129 85.8978 333.369 85.1437C333.608 84.3896 333.691 84.4159 333.93 83.6618C334.17 82.9076 334.043 82.8675 334.283 82.1134C334.522 81.3593 334.681 81.4096 334.92 80.6555C335.16 79.9013 335.09 79.8793 335.33 79.1252C335.569 78.371 335.737 78.4243 335.977 77.6702C336.216 76.9161 336.159 76.898 336.399 76.1439C336.638 75.3897 336.699 75.4091 336.939 74.655C337.178 73.9009 337.198 73.9071 337.437 73.153C337.677 72.3989 337.553 72.3594 337.792 71.6053C338.031 70.8512 337.857 70.7959 338.097 70.0418C338.336 69.2876 338.409 69.3107 338.648 68.5565C338.888 67.8024 338.922 67.8133 339.162 67.0592C339.401 66.305 339.332 66.283 339.571 65.5299C339.81 64.7758 339.927 64.8129 340.167 64.0588C340.406 63.3047 340.258 63.2577 340.498 62.5035C340.737 61.7494 340.798 61.7688 341.038 61.0147C341.277 60.2606 341.434 60.3102 341.673 59.5561C341.912 58.802 341.836 58.7776 342.075 58.0235C342.315 57.2694 342.349 57.2802 342.588 56.5261C342.828 55.772 342.924 55.8026 343.164 55.0484C343.403 54.2943 343.238 54.242 343.478 53.4879C343.717 52.7338 343.822 52.767 344.061 52.0129C344.301 51.2587 344.138 51.2071 344.378 50.453C344.617 49.6988 344.713 49.7291 344.952 48.975C345.192 48.2209 345.226 48.2317 345.465 47.4776C345.705 46.7235 345.655 46.7077 345.894 45.9535C346.134 45.1994 346.275 45.2441 346.515 44.489C346.754 43.7338 346.773 43.7408 347.012 42.9856C347.171 42.4853 347.127 41.9342 347.196 41.4314C347.265 40.9141 347.224 40.4026 347.203 39.8931C347.181 39.374 347.098 38.8789 346.986 38.3783C346.875 37.8732 346.786 37.3706 346.589 36.8953C346.393 36.4189 346.119 35.9877 345.844 35.5523C345.569 35.1183 345.407 34.5858 345.059 34.2037C344.714 33.8251 344.209 33.602 343.798 33.2844C343.394 32.9726 342.98 32.6746 342.517 32.433C342.068 32.1968 341.594 32.0042 341.094 31.8453Z" fill="#A8E6A5"/>
<path d="M335.187 53.672C334.45 53.4378 334.458 53.413 333.72 53.1788C332.983 52.9446 332.962 53.0088 332.225 52.7746C331.487 52.5404 331.511 52.4658 330.774 52.2316C330.036 51.9974 330.014 52.0678 329.276 51.8336C328.539 51.5994 328.494 51.7393 327.757 51.5051C327.019 51.2709 327.048 51.1787 326.311 50.9445C325.573 50.7103 325.584 50.6761 324.847 50.4419C324.109 50.2077 324.144 50.0989 323.406 49.8647C322.669 49.6305 322.68 49.5953 321.942 49.3611C321.205 49.1269 321.142 49.3247 320.404 49.0905C319.667 48.8563 319.684 48.8035 318.946 48.5693C318.209 48.3351 318.178 48.4325 317.44 48.1983C316.703 47.9641 316.709 47.9434 315.972 47.7092C315.234 47.475 315.235 47.4739 314.497 47.2397C313.759 47.0055 313.807 46.8553 313.07 46.6211C312.332 46.3869 312.277 46.562 311.54 46.3281C310.803 46.0939 310.862 45.9064 310.125 45.6722C309.387 45.438 309.391 45.4266 308.653 45.1924C307.916 44.9582 307.844 45.183 307.107 44.9488C306.369 44.7146 306.445 44.4753 305.708 44.2411C304.97 44.0069 304.916 44.1778 304.178 43.9436C303.441 43.7094 303.45 43.6814 302.712 43.4472C301.975 43.213 301.965 43.242 301.228 43.0078C300.49 42.7736 300.476 42.8171 299.739 42.5829C299.001 42.3487 299.007 42.3322 298.269 42.098C297.532 41.8638 297.566 41.756 296.828 41.5218C296.091 41.2876 296.132 41.1581 295.394 40.9239C294.657 40.6897 294.65 40.7115 293.912 40.4773C293.175 40.2431 293.165 40.2742 292.428 40.04C291.69 39.8058 291.707 39.7509 290.969 39.5163C290.231 39.2821 290.162 39.5007 289.423 39.2662C288.951 39.1162 288.519 38.8295 288.208 38.4878C287.886 38.1349 287.857 37.6249 287.753 37.1599C287.654 36.7087 287.597 36.2801 287.747 35.8078C287.976 35.0889 288.02 35.103 288.248 34.3841C288.477 33.6652 288.309 33.6119 288.537 32.892C288.766 32.1731 288.679 32.1454 288.907 31.4265C289.135 30.7076 289.125 30.7043 289.353 29.9854C289.582 29.2665 289.813 29.3399 290.041 28.6199C290.269 27.901 290.134 27.8579 290.362 27.139C290.591 26.4191 290.518 26.3961 290.746 25.6772C290.975 24.9572 291.027 24.9737 291.255 24.2548C291.405 23.7824 291.758 23.4154 292.099 23.1043C292.452 22.783 292.88 22.5755 293.345 22.4722C293.796 22.3726 294.262 22.3952 294.733 22.5449C295.471 22.7791 295.483 22.7418 296.22 22.976C296.958 23.2102 296.925 23.3117 297.663 23.5459C298.4 23.7801 298.417 23.7293 299.154 23.9635C299.892 24.1977 299.91 24.1387 300.648 24.3729C301.385 24.6071 301.428 24.4724 302.166 24.7066C302.903 24.9408 302.901 24.9481 303.638 25.1823C304.376 25.4165 304.35 25.4973 305.088 25.7315C305.825 25.9657 305.831 25.9481 306.569 26.1823C307.306 26.4165 307.284 26.4849 308.022 26.7191C308.759 26.9533 308.714 27.0952 309.452 27.3294C310.189 27.5636 310.241 27.3999 310.979 27.6341C311.716 27.8683 311.739 27.7979 312.476 28.0321C313.214 28.2663 313.147 28.4755 313.885 28.7097C314.622 28.9439 314.676 28.7751 315.414 29.0093C316.151 29.2435 316.088 29.4434 316.825 29.6776C317.563 29.9118 317.631 29.6964 318.368 29.9302C319.105 30.1644 319.126 30.0992 319.863 30.3334C320.601 30.5676 320.531 30.7872 321.269 31.0214C322.006 31.2556 322.032 31.1737 322.77 31.4079C323.507 31.6422 323.492 31.6888 324.23 31.923C324.967 32.1572 324.998 32.0598 325.736 32.294C326.473 32.5282 326.504 32.4329 327.241 32.6671C327.979 32.9013 327.964 32.9479 328.701 33.1821C329.439 33.4163 329.452 33.3749 330.19 33.6091C330.927 33.8433 330.923 33.8568 331.66 34.091C332.398 34.3252 332.386 34.3635 333.123 34.5977C333.861 34.8319 333.832 34.922 334.57 35.1562C335.307 35.3904 335.27 35.5075 336.008 35.7417C336.745 35.9759 336.773 35.8889 337.51 36.1231C338.248 36.3573 338.304 36.1812 339.042 36.4157C339.78 36.6499 339.76 36.7131 340.498 36.9476C340.971 37.0976 341.411 37.389 341.722 37.7307C342.043 38.0836 342.058 38.6048 342.16 39.0705C342.259 39.5218 342.539 40.0199 342.389 40.4913C342.161 41.2102 342.024 41.1668 341.796 41.8857C341.568 42.6046 341.626 42.623 341.397 43.3429C341.169 44.0618 340.956 43.9944 340.728 44.7133C340.5 45.4322 340.489 45.4289 340.261 46.1478C340.033 46.8667 340.283 46.9463 340.055 47.6663C339.827 48.3852 339.857 48.3947 339.628 49.1136C339.4 49.8336 339.401 49.8339 339.172 50.5528C338.944 51.2728 338.779 51.2205 338.551 51.9394C338.401 52.4117 338.163 52.8173 337.822 53.1288C337.469 53.45 337.031 53.6165 336.565 53.7183C336.112 53.8197 335.66 53.822 335.187 53.672Z" fill="#F3F5F4"/>
<path d="M290.969 54.3076C290.251 54.0797 290.296 53.9377 289.579 53.7101C288.862 53.4822 288.815 53.6293 288.098 53.4016C287.38 53.1737 287.397 53.1219 286.679 52.8939C285.961 52.666 285.995 52.5603 285.276 52.3334C284.804 52.1834 284.419 51.9449 284.108 51.6042C283.786 51.2513 283.629 50.8308 283.526 50.3658C283.426 49.9145 283.22 49.4167 283.369 48.9454C283.63 48.1249 283.833 48.1894 284.093 47.369C284.354 46.5486 284.221 46.5065 284.481 45.6871C284.631 45.2147 284.865 44.7381 285.207 44.4269C285.559 44.1056 286.044 43.8423 286.509 43.7401C286.96 43.6405 287.498 43.6985 287.971 43.8485C288.689 44.0764 288.679 44.1065 289.396 44.3341C290.114 44.562 290.049 44.7671 290.765 44.9948C291.483 45.2227 291.559 44.9845 292.277 45.2124C292.995 45.4404 292.973 45.5087 293.691 45.7367C294.163 45.8867 294.639 46.0995 294.951 46.4412C295.272 46.7941 295.563 47.2664 295.666 47.7313C295.766 48.1826 295.673 48.7208 295.523 49.1922C295.262 50.0126 295.266 50.0139 295.006 50.8333C294.746 51.6537 294.561 51.5952 294.301 52.4156C294.151 52.8879 294.069 53.4071 293.728 53.7182C293.375 54.0395 292.842 54.0629 292.377 54.1651C291.927 54.2651 291.441 54.4576 290.969 54.3076Z" fill="#51CB59"/>
<path d="M304.295 58.5459C303.577 58.318 303.649 58.0942 302.932 57.8666C302.214 57.6386 302.177 57.7547 301.46 57.527C300.742 57.2991 300.733 57.3281 300.015 57.1001C299.297 56.8722 299.285 56.9116 298.567 56.6836C298.095 56.5336 297.712 56.2091 297.401 55.8674C297.08 55.5145 296.892 55.0762 296.79 54.6105C296.69 54.1592 296.522 53.6382 296.671 53.1668C296.932 52.3464 297.187 52.4273 297.447 51.6069C297.708 50.7865 297.754 50.8013 298.014 49.9819C298.164 49.5095 298.279 49.0614 298.621 48.7502C298.974 48.429 299.392 48.1545 299.857 48.0527C300.309 47.9531 300.76 48.1433 301.233 48.2932C301.95 48.5212 301.997 48.3762 302.713 48.6038C303.431 48.8317 303.4 48.9291 304.117 49.1567C304.835 49.3847 304.882 49.2355 305.6 49.4635C306.318 49.6914 306.31 49.7153 307.028 49.9432C307.501 50.0932 307.899 50.3941 308.21 50.7358C308.531 51.0887 308.605 51.5603 308.708 52.0252C308.808 52.4765 308.803 52.8867 308.653 53.359C308.392 54.1794 308.373 54.1732 308.113 54.9926C307.852 55.813 308.057 55.8781 307.797 56.6986C307.647 57.1709 307.331 57.5621 306.989 57.8733C306.636 58.1945 306.174 58.2964 305.708 58.3993C305.255 58.4996 304.768 58.6959 304.295 58.5459Z" fill="#51CB59"/>
<path d="M317.701 62.5343C316.983 62.3063 316.913 62.528 316.196 62.3004C315.478 62.0724 315.548 61.8518 314.831 61.6242C314.114 61.3962 314.087 61.4801 313.369 61.2522C312.651 61.0242 312.605 61.1703 311.887 60.9423C311.415 60.7923 311.093 60.3947 310.782 60.0531C310.46 59.7002 310.09 59.3384 309.987 58.8737C309.888 58.4225 309.881 57.8832 310.031 57.4109C310.292 56.5904 310.284 56.5881 310.545 55.7677C310.805 54.9473 310.816 54.9506 311.076 54.1312C311.226 53.6588 311.683 53.3787 312.025 53.0686C312.378 52.7473 312.753 52.545 313.219 52.4421C313.67 52.3425 314.152 52.1751 314.625 52.3251C315.342 52.553 315.272 52.7737 315.989 53.0013C316.707 53.2293 316.73 53.1578 317.447 53.3854C318.164 53.6134 318.227 53.4176 318.944 53.6455C319.662 53.8735 319.623 53.9957 320.341 54.2237C320.814 54.3737 321.106 54.738 321.417 55.0797C321.739 55.4325 321.921 55.7974 322.025 56.2623C322.124 56.7136 322.116 57.1169 321.966 57.5893C321.705 58.4097 321.922 58.4785 321.662 59.2979C321.401 60.1183 321.358 60.1045 321.097 60.9249C320.947 61.3972 320.762 61.911 320.421 62.2222C320.068 62.5434 319.552 62.757 319.086 62.8599C318.633 62.9578 318.173 62.6843 317.701 62.5343Z" fill="#51CB59"/>
<path d="M330.991 66.8876C330.273 66.6597 330.256 66.7146 329.539 66.4869C328.821 66.259 328.872 66.0974 328.155 65.8698C327.438 65.6418 327.387 65.8024 326.669 65.5744C325.951 65.3465 325.958 65.3258 325.24 65.0978C324.767 64.9478 324.337 64.7041 324.026 64.3624C323.705 64.0095 323.638 63.523 323.535 63.057C323.436 62.6058 323.284 62.1391 323.434 61.6667C323.695 60.8463 323.828 60.8887 324.089 60.0683C324.349 59.2479 324.157 59.1867 324.417 58.3673C324.567 57.8949 324.929 57.5206 325.27 57.2095C325.623 56.8882 326.056 56.6596 326.521 56.5574C326.972 56.4578 327.456 56.4794 327.929 56.6294C328.647 56.8574 328.675 56.7673 329.392 56.9949C330.11 57.2228 330.05 57.4103 330.767 57.638C331.485 57.8659 331.479 57.8845 332.197 58.1125C332.915 58.3405 332.988 58.1115 333.705 58.3395C334.178 58.4895 334.47 58.938 334.781 59.2797C335.102 59.6326 335.457 59.9836 335.56 60.4496C335.66 60.9009 335.48 61.3616 335.33 61.834C335.07 62.6544 335.178 62.689 334.918 63.5083C334.658 64.3288 334.768 64.364 334.508 65.1844C334.358 65.6567 333.896 65.9308 333.554 66.2419C333.201 66.5632 332.824 66.7398 332.358 66.8427C331.906 66.9409 331.463 67.0376 330.991 66.8876Z" fill="#51CB59"/>
<path d="M287.802 64.28C287.084 64.0521 287.1 64.0034 286.383 63.7758C285.665 63.5478 285.664 63.552 284.947 63.3243C284.229 63.0964 284.24 63.0612 283.522 62.8332C282.805 62.6053 282.809 62.5897 282.092 62.3618C281.619 62.2118 281.299 61.8592 280.988 61.5175C280.667 61.1646 280.363 60.8036 280.26 60.3386C280.16 59.8874 280.067 59.3686 280.217 58.8963C280.478 58.0758 280.515 58.0877 280.775 57.2683C281.035 56.4489 281.251 56.5163 281.511 55.6969C281.661 55.2245 281.78 54.7684 282.122 54.4573C282.474 54.136 282.903 53.8731 283.369 53.7713C283.82 53.6717 284.304 53.7637 284.777 53.9137C285.494 54.1417 285.493 54.1469 286.21 54.3745C286.927 54.6024 286.929 54.5983 287.646 54.8259C288.363 55.0539 288.326 55.173 289.043 55.401C289.761 55.6289 289.819 55.4456 290.537 55.6735C291.01 55.8235 291.491 56.0425 291.802 56.3841C292.123 56.737 292.379 57.2232 292.482 57.6892C292.582 58.1405 292.544 58.6814 292.394 59.1537C292.133 59.9741 292.168 59.9853 291.908 60.8047C291.648 61.6241 291.383 61.5413 291.123 62.3607C290.973 62.833 290.919 63.3666 290.577 63.6777C290.224 63.999 289.685 64.0146 289.219 64.1165C288.767 64.2157 288.274 64.43 287.802 64.28Z" fill="#51CB59"/>
<path d="M301.137 68.4896C300.42 68.2617 300.483 68.0607 299.767 67.8331C299.049 67.6051 299.03 67.6631 298.313 67.4355C297.596 67.2076 297.563 67.3112 296.845 67.0832C296.127 66.8552 296.182 66.6812 295.464 66.4533C294.992 66.3033 294.521 66.188 294.21 65.8463C293.889 65.4934 293.783 65.0161 293.68 64.5511C293.58 64.0999 293.362 63.5915 293.512 63.1191C293.772 62.2987 293.946 62.354 294.206 61.5346C294.467 60.7152 294.381 60.6869 294.641 59.8675C294.791 59.3951 295.077 58.9693 295.419 58.6581C295.771 58.3369 296.273 58.3001 296.738 58.1979C297.189 58.0983 297.619 58.0341 298.09 58.1838C298.808 58.4117 298.844 58.2988 299.561 58.5264C300.279 58.7544 300.278 58.7565 300.995 58.9841C301.713 59.212 301.67 59.3467 302.388 59.5747C303.106 59.8026 303.138 59.7001 303.856 59.928C304.328 60.078 304.727 60.3552 305.038 60.6969C305.36 61.0498 305.579 61.4832 305.682 61.9481C305.782 62.3994 305.653 62.8443 305.503 63.3157C305.243 64.1361 305.449 64.2015 305.189 65.0209C304.929 65.8403 304.696 65.7677 304.436 66.5871C304.286 67.0594 304.085 67.4208 303.743 67.7319C303.39 68.0532 303.031 68.3302 302.565 68.4331C302.113 68.5327 301.61 68.6396 301.137 68.4896Z" fill="#51CB59"/>
<path d="M314.453 72.7624C313.735 72.5345 313.744 72.5065 313.027 72.2789C312.309 72.0509 312.365 71.8748 311.648 71.6472C310.93 71.4193 310.912 71.4762 310.194 71.2483C309.477 71.0203 309.515 70.8981 308.798 70.6701C308.325 70.5201 307.866 70.405 307.555 70.0633C307.233 69.7104 307.176 69.2338 307.073 68.7678C306.974 68.3165 306.692 67.8222 306.841 67.3508C307.102 66.5304 307.196 66.5603 307.456 65.741C307.717 64.9205 307.672 64.9064 307.932 64.087C308.082 63.6146 308.477 63.2804 308.818 62.9689C309.171 62.6477 309.588 62.4757 310.052 62.3735C310.504 62.2739 310.968 62.1944 311.44 62.3444C312.158 62.5723 312.181 62.4998 312.898 62.7274C313.616 62.9554 313.566 63.1139 314.282 63.3415C315 63.5695 315.016 63.5208 315.733 63.7487C316.451 63.9767 316.46 63.9508 317.177 64.1787C317.65 64.3287 317.973 64.6617 318.284 65.0033C318.605 65.3562 318.868 65.7227 318.971 66.1887C319.071 66.6399 319.069 67.1047 318.92 67.576C318.659 68.3964 318.635 68.3889 318.375 69.2083C318.115 70.0277 318.287 70.0833 318.026 70.9027C317.876 71.375 317.494 71.7428 317.152 72.0539C316.799 72.3752 316.351 72.5363 315.887 72.6385C315.435 72.7391 314.925 72.9124 314.453 72.7624Z" fill="#51CB59"/>
<path d="M327.855 76.764C327.137 76.536 327.147 76.5029 326.431 76.2753C325.713 76.0473 325.637 76.2856 324.92 76.0579C324.202 75.83 324.19 75.8704 323.472 75.6424C322.754 75.4145 322.829 75.1773 322.111 74.9493C321.639 74.7993 321.294 74.5471 320.983 74.2054C320.661 73.8526 320.498 73.4678 320.397 73.0022C320.297 72.5509 320.018 72.0541 320.168 71.5827C320.428 70.7623 320.708 70.8511 320.968 70.0317C321.228 69.2124 321.231 69.212 321.491 68.3926C321.641 67.9202 321.774 67.478 322.116 67.1669C322.469 66.8456 322.881 66.542 323.346 66.4388C323.798 66.3392 324.33 66.3292 324.802 66.4792C325.52 66.7071 325.53 66.6761 326.247 66.9037C326.965 67.1316 326.924 67.2601 327.641 67.4877C328.358 67.7157 328.4 67.5851 329.118 67.8131C329.836 68.041 329.782 68.2099 330.5 68.4378C330.972 68.5878 331.35 68.8537 331.661 69.1953C331.982 69.5482 332.276 69.9393 332.378 70.405C332.478 70.8563 332.407 71.3402 332.258 71.8115C331.997 72.632 332.112 72.6685 331.852 73.4879C331.592 74.3072 331.644 74.3251 331.384 75.1444C331.234 75.6168 330.782 75.9295 330.441 76.2407C330.088 76.5619 329.672 76.7219 329.206 76.8248C328.753 76.9251 328.327 76.914 327.855 76.764Z" fill="#51CB59"/>
<path d="M284.657 74.1834C283.94 73.9554 283.942 73.9471 283.225 73.7195C282.507 73.4915 282.538 73.3962 281.821 73.1686C281.103 72.9407 281.133 72.8474 280.415 72.6195C279.697 72.3915 279.648 72.5469 278.93 72.319C278.457 72.169 278.12 71.827 277.809 71.4863C277.488 71.1334 277.168 70.763 277.066 70.2983C276.967 69.8471 277.077 69.3746 277.226 68.9032C277.487 68.0828 277.277 68.016 277.537 67.1967C277.797 66.3762 277.798 66.3766 278.059 65.5572C278.209 65.0848 278.682 64.7928 279.024 64.4816C279.377 64.1603 279.724 63.7494 280.19 63.6465C280.641 63.5469 281.13 63.7524 281.603 63.9024C282.32 64.1303 282.37 63.9749 283.087 64.2026C283.804 64.4305 283.75 64.6014 284.467 64.8291C285.185 65.057 285.167 65.113 285.885 65.3409C286.603 65.5689 286.664 65.3772 287.381 65.6052C287.854 65.7552 288.207 66.1055 288.518 66.4472C288.839 66.8001 289.189 67.1815 289.292 67.6465C289.392 68.0977 289.172 68.5663 289.022 69.0376C288.762 69.858 289.021 69.9403 288.761 70.7596C288.5 71.5801 288.286 71.512 288.026 72.3314C287.876 72.8037 287.726 73.2819 287.384 73.5931C287.031 73.9143 286.544 74.0536 286.079 74.1569C285.626 74.2548 285.13 74.3334 284.657 74.1834Z" fill="#51CB59"/>
<path d="M298.053 78.2043C297.335 77.9764 297.265 78.198 296.548 77.9704C295.83 77.7425 295.867 77.6254 295.15 77.3978C294.433 77.1698 294.407 77.2506 293.689 77.0227C292.971 76.7947 292.948 76.8672 292.23 76.6393C291.758 76.4893 291.434 76.0728 291.124 75.7315C290.803 75.3786 290.602 74.9728 290.499 74.5068C290.4 74.0555 290.432 73.6144 290.582 73.143C290.843 72.3226 290.831 72.319 291.091 71.4996C291.352 70.6792 291.19 70.6279 291.451 69.8085C291.601 69.3361 291.906 68.9073 292.247 68.5961C292.6 68.2748 293.051 67.9676 293.517 67.8658C293.968 67.7662 294.467 67.9632 294.939 68.1132C295.657 68.3412 295.645 68.3785 296.362 68.6061C297.08 68.834 297.082 68.8268 297.799 69.0544C298.517 69.2824 298.562 69.1404 299.279 69.3684C299.997 69.5964 299.978 69.6564 300.696 69.8844C301.168 70.0344 301.52 70.3514 301.832 70.6931C302.153 71.046 302.411 71.4369 302.512 71.9026C302.612 72.3539 302.487 72.7943 302.337 73.2656C302.077 74.086 302.317 74.1623 302.057 74.9817C301.796 75.8021 301.683 75.7659 301.422 76.5853C301.272 77.0577 301.105 77.5712 300.763 77.8824C300.41 78.2036 299.886 78.3589 299.421 78.4608C298.971 78.5597 298.525 78.3543 298.053 78.2043Z" fill="#51CB59"/>
<path d="M311.356 82.5164C310.638 82.2885 310.571 82.4998 309.854 82.2722C309.136 82.0442 309.155 81.9842 308.438 81.7565C307.721 81.5286 307.771 81.3691 307.053 81.1411C306.336 80.9132 306.36 80.8355 305.642 80.6075C305.17 80.4575 304.669 80.3908 304.358 80.0491C304.037 79.6962 303.738 79.2467 303.635 78.7818C303.535 78.3305 303.762 77.8471 303.911 77.3757C304.172 76.5553 304.184 76.5593 304.445 75.7399C304.705 74.9195 304.478 74.8474 304.738 74.028C304.888 73.5557 305.177 73.0782 305.519 72.7671C305.871 72.4458 306.441 72.4875 306.907 72.3846C307.358 72.285 307.768 72.2771 308.24 72.4271C308.958 72.6551 308.953 72.6696 309.67 72.8972C310.388 73.1251 310.405 73.0702 311.122 73.2979C311.84 73.5258 311.823 73.5786 312.541 73.8066C313.259 74.0345 313.299 73.9082 314.017 74.1361C314.489 74.2861 314.939 74.5007 315.25 74.8414C315.572 75.1943 315.781 75.6598 315.883 76.1244C315.982 76.5757 315.938 77.0644 315.788 77.5368C315.527 78.3572 315.56 78.3677 315.3 79.1871C315.04 80.0075 315.075 80.0187 314.815 80.8381C314.665 81.3105 314.376 81.7422 314.034 82.0533C313.681 82.3746 313.183 82.4512 312.717 82.5541C312.268 82.6533 311.828 82.6664 311.356 82.5164Z" fill="#51CB59"/>
<path d="M281.503 84.1163C280.785 83.8883 280.779 83.907 280.062 83.6793C279.345 83.4514 279.368 83.3768 278.652 83.1492C277.934 82.9212 277.898 83.0321 277.181 82.8041C276.463 82.5762 276.45 82.6166 275.732 82.3886C275.26 82.2386 274.814 81.9112 274.504 81.5699C274.183 81.217 273.948 80.7274 273.845 80.2614C273.746 79.8101 274 79.3504 274.15 78.879C274.41 78.0586 274.282 78.0178 274.542 77.1984C274.802 76.3791 274.895 76.4073 275.155 75.5869C275.305 75.1145 275.574 74.7962 275.916 74.485C276.269 74.1637 276.572 73.7277 277.037 73.6245C277.489 73.5249 277.994 73.6283 278.466 73.7783C279.184 74.0063 279.139 74.1471 279.856 74.3748C280.574 74.6027 280.614 74.4784 281.33 74.706C282.048 74.934 282.052 74.9216 282.77 75.1495C283.488 75.3775 283.536 75.2262 284.254 75.4542C284.726 75.6042 285.133 75.9751 285.444 76.3168C285.765 76.6697 285.895 77.158 285.997 77.6236C286.097 78.0749 286.229 78.5821 286.079 79.0534C285.818 79.8738 285.656 79.8222 285.395 80.6426C285.135 81.4631 285.256 81.5015 284.996 82.3209C284.846 82.7933 284.531 83.1927 284.189 83.5039C283.836 83.8251 283.383 84.0038 282.917 84.1057C282.466 84.2067 281.975 84.2663 281.503 84.1163Z" fill="#51CB59"/>
<path d="M294.811 88.4118C294.093 88.1838 294.117 88.1092 293.4 87.8816C292.682 87.6537 292.666 87.7044 291.95 87.4768C291.232 87.2489 291.269 87.1328 290.551 86.9049C289.833 86.6769 289.83 86.6852 289.112 86.4573C288.64 86.3073 288.121 86.1641 287.81 85.8224C287.489 85.4695 287.43 84.9252 287.328 84.4606C287.228 84.0093 287.252 83.5597 287.402 83.0874C287.663 82.2669 287.628 82.2557 287.888 81.4364C288.148 80.617 288.136 80.612 288.397 79.7916C288.547 79.3192 288.692 78.7974 289.033 78.4863C289.386 78.165 289.926 78.0751 290.392 77.9722C290.843 77.8726 291.276 78.0112 291.748 78.1612C292.466 78.3891 292.463 78.3964 293.18 78.624C293.898 78.852 293.992 78.5567 294.709 78.7843C295.427 79.0123 295.382 79.1511 296.1 79.3791C296.818 79.607 296.803 79.6557 297.521 79.8836C297.993 80.0336 298.332 80.3272 298.643 80.6688C298.964 81.0217 299.398 81.3534 299.5 81.8191C299.6 82.2704 299.361 82.7533 299.211 83.2246C298.951 84.045 298.971 84.0516 298.711 84.872C298.45 85.6925 298.647 85.755 298.387 86.5743C298.237 87.0467 297.886 87.4553 297.545 87.7654C297.192 88.0866 296.712 88.2341 296.246 88.336C295.794 88.4366 295.284 88.5618 294.811 88.4118Z" fill="#51CB59"/>
<path d="M308.144 92.6309C307.426 92.403 307.424 92.4102 306.707 92.1826C305.989 91.9547 306.057 91.7402 305.34 91.5126C304.622 91.2847 304.542 91.5395 303.824 91.3115C303.106 91.0836 303.111 91.066 302.394 90.838C301.921 90.688 301.63 90.2306 301.319 89.8889C300.997 89.536 300.822 89.1429 300.719 88.6779C300.62 88.2266 300.485 87.7607 300.635 87.2884C300.895 86.4679 301.028 86.51 301.288 85.6907C301.548 84.8713 301.558 84.8732 301.818 84.0528C301.968 83.5804 302.133 83.1525 302.474 82.8424C302.827 82.5211 303.246 82.2745 303.712 82.1727C304.163 82.0731 304.603 82.2424 305.075 82.3924C305.793 82.6204 305.882 82.3417 306.599 82.5694C307.316 82.7973 307.272 82.9382 307.989 83.1658C308.706 83.3938 308.748 83.2632 309.466 83.4912C310.184 83.7191 310.139 83.86 310.857 84.088C311.329 84.238 311.833 84.4016 312.144 84.743C312.465 85.0959 312.509 85.6345 312.611 86.0992C312.711 86.5504 312.679 86.984 312.53 87.4553C312.269 88.2757 312.235 88.2649 311.975 89.0853C311.714 89.9057 311.992 89.9939 311.731 90.8133C311.581 91.2856 311.167 91.6387 310.825 91.9499C310.473 92.2711 310.05 92.5271 309.585 92.6289C309.136 92.7281 308.616 92.7809 308.144 92.6309Z" fill="#51CB59"/>
<path d="M327.371 78.2878C326.653 78.0598 326.633 78.123 325.916 77.8954C325.198 77.6674 325.213 77.6198 324.497 77.3921C323.779 77.1642 323.759 77.2253 323.041 76.9974C322.324 76.7694 322.369 76.6275 321.651 76.3995C321.178 76.2495 320.643 76.3143 320.191 76.4138C319.725 76.5167 319.37 76.8635 319.017 77.1848C318.675 77.4959 318.256 77.7996 318.106 78.2719C317.925 78.8417 317.902 78.8341 317.721 79.4038C317.38 80.4749 317.529 80.522 317.189 81.5921C316.963 82.3027 316.878 82.2757 316.653 82.9863C316.427 83.6969 316.367 83.6779 316.141 84.3885C315.916 85.0991 316.024 85.1336 315.799 85.8443C315.573 86.5549 315.686 86.5907 315.46 87.3013C315.235 88.012 315.094 87.9672 314.868 88.6778C314.642 89.3885 314.808 89.4411 314.582 90.1528C314.356 90.8634 314.36 90.8644 314.134 91.576C313.984 92.0484 313.884 92.474 313.982 92.9249C314.085 93.3909 314.309 93.7847 314.629 94.1373C314.94 94.479 315.321 94.6911 315.794 94.8411C316.511 95.0691 316.519 95.0463 317.235 95.2739C317.953 95.5018 317.916 95.6189 318.633 95.8465C319.351 96.0745 319.315 96.1864 320.033 96.4143C320.751 96.6423 320.747 96.6547 321.465 96.8826C321.937 97.0326 322.426 96.7943 322.877 96.6947C323.343 96.5918 323.807 96.5089 324.16 96.1887C324.501 95.8775 324.731 95.4611 324.881 94.9887C325.106 94.2781 325.21 94.311 325.435 93.6004C325.661 92.8897 325.495 92.8371 325.721 92.1265C325.947 91.4159 325.943 91.4146 326.168 90.704C326.394 89.9933 326.395 89.9937 326.621 89.283C326.846 88.5724 326.813 88.5619 327.039 87.8513C327.264 87.1407 327.458 87.2022 327.684 86.4905C327.91 85.7799 327.883 85.7713 328.109 85.0597C328.449 83.9886 328.266 83.9304 328.605 82.8603C328.786 82.2906 328.792 82.2925 328.973 81.7228C329.123 81.2504 329.271 80.8149 329.171 80.3636C329.068 79.8976 328.788 79.5245 328.466 79.1727C328.158 78.8309 327.843 78.4377 327.371 78.2878Z" fill="#915FD0"/>
<path d="M324.464 86.671C323.9 87.0977 323.823 86.4595 323.148 86.2453C322.475 86.0315 322.473 86.0378 321.8 85.8239C321.126 85.6101 321.094 85.7127 320.42 85.4986C319.746 85.2847 319.391 85.6384 319.177 84.9649C318.875 84.0103 318.885 83.6578 319.683 83.0524C320.246 82.6257 320.339 83.4191 321.012 83.6329C321.685 83.8467 321.678 83.8705 322.351 84.0844C323.024 84.2982 323.078 84.1293 323.752 84.3435C324.426 84.5573 324.598 84.286 325.069 84.8141C325.757 85.5856 325.261 86.0656 324.464 86.671Z" fill="white"/>
<path d="M323.402 89.9446C322.839 90.3713 322.75 89.8367 322.077 89.6229C321.404 89.4091 321.392 89.4464 320.719 89.2326C320.045 89.0188 320.115 88.7982 319.441 88.584C318.768 88.3702 318.347 88.9324 318.134 88.259C317.831 87.3043 317.83 86.9389 318.628 86.3336C319.191 85.9069 319.309 86.6641 319.983 86.8779C320.656 87.0917 320.68 87.0161 321.353 87.2299C322.027 87.4437 322.011 87.4924 322.686 87.7065C323.359 87.9204 323.51 87.6195 323.98 88.1462C324.662 88.9113 324.2 89.3393 323.402 89.9446Z" fill="white"/>
<path d="M291.261 46.7715C291.688 47.3346 290.984 47.3481 290.77 48.0214C290.556 48.6948 290.773 48.7635 290.559 49.4368C290.345 50.1102 290.262 50.0838 290.048 50.7582C289.834 51.4326 290.339 52.0344 289.666 52.2482C288.711 52.5506 288.364 52.2613 287.759 51.4636C287.332 50.9005 287.927 50.827 288.141 50.1526C288.355 49.4793 288.432 49.504 288.646 48.8307C288.86 48.1573 288.845 48.1524 289.059 47.478C289.273 46.8037 288.87 46.5526 289.397 46.0814C290.156 45.4044 290.657 45.9741 291.261 46.7715Z" fill="white"/>
<path d="M291.997 51.0268C291.434 51.4535 291.223 50.7639 290.55 50.5501C289.876 50.3363 289.925 50.183 289.252 49.9692C288.578 49.7554 288.529 49.9108 287.855 49.6966C287.181 49.4828 286.746 49.8795 286.533 49.2051C286.231 48.2504 286.306 47.865 287.104 47.2596C287.667 46.8329 287.792 47.5578 288.466 47.7719C289.139 47.9857 289.179 47.8594 289.853 48.0732C290.526 48.287 290.522 48.2984 291.197 48.5125C291.871 48.7267 291.96 48.5621 292.428 49.0927C293.148 49.9132 292.795 50.4215 291.997 51.0268Z" fill="white"/>
<path d="M303.349 54.4307C304.237 53.9705 304.606 53.4922 304.146 52.6037C303.686 51.7152 303.042 51.6626 302.154 52.1228C301.265 52.583 301.292 52.9851 301.411 53.9785C301.532 54.9791 302.459 54.8906 303.349 54.4307Z" fill="white"/>
<path d="M305.69 53.2417C305.992 54.1964 305.921 54.4679 305.122 55.0729C304.559 55.4996 304.484 54.926 303.81 54.7122C303.137 54.4984 303.134 54.5067 302.461 54.2929C301.788 54.0791 301.834 53.933 301.16 53.7189C300.486 53.5051 299.989 54.0872 299.775 53.4138C299.473 52.4591 299.591 52.1237 300.39 51.5186C300.953 51.0919 301.028 51.801 301.701 52.0148C302.374 52.2286 302.363 52.2639 303.036 52.4777C303.71 52.6915 303.725 52.6359 304.429 52.6963C305.162 52.7594 305.477 52.5672 305.69 53.2417Z" fill="white"/>
<path d="M317.874 54.9901C318.331 55.7807 317.994 56.3578 317.165 56.7399C316.255 57.1591 315.917 56.989 315.417 56.1221C314.959 55.3315 315.221 55.1304 315.868 54.4863C316.66 53.6992 317.373 54.1239 317.874 54.9901Z" fill="white"/>
<path d="M314.627 57.9948C315.536 57.5755 316.182 57.7898 316.683 58.657C317.141 59.4476 316.818 59.9737 315.989 60.3547C315.08 60.774 314.758 60.6376 314.024 59.9565C313.27 59.2561 313.798 58.3772 314.627 57.9948Z" fill="white"/>
<path d="M329.036 58.9654C329.737 59.0613 329.379 59.6889 329.704 60.3167C330.029 60.9445 329.913 61.0046 330.238 61.6311C330.563 62.2589 330.552 62.2645 330.877 62.8924C331.203 63.5202 332.045 63.5233 331.72 64.1507C331.258 65.0397 330.843 65.0903 329.851 64.9543C329.15 64.8584 329.535 64.3841 329.21 63.7562C328.884 63.1284 328.981 63.0782 328.657 62.4518C328.332 61.824 328.111 61.9385 327.785 61.3107C327.46 60.6829 327.264 60.7094 327.308 60.0038C327.375 58.9214 328.044 58.8294 329.036 58.9654Z" fill="white"/>
<path d="M332.278 61.6208C332.182 62.3213 331.772 61.9562 331.144 62.2814C330.516 62.6066 330.593 62.754 329.966 63.0785C329.338 63.4037 329.307 63.3437 328.679 63.6689C328.052 63.9941 328.036 64.5126 327.409 64.1868C326.52 63.7255 326.353 63.4557 326.489 62.4634C326.584 61.7629 327.042 62.0451 327.67 61.7209C328.297 61.3957 328.356 61.509 328.983 61.1845C329.61 60.8593 329.545 60.7338 330.173 60.4086C330.801 60.0834 330.772 59.8882 331.478 59.9266C332.481 59.9817 332.414 60.6285 332.278 61.6208Z" fill="white"/>
</g>
<defs>
<clipPath id="clip0_2415_1088">
<rect width="64.0541" height="75" fill="white" transform="translate(288.699 15) rotate(17.6173)"/>
</clipPath>
</defs>
</svg>
