<?xml version="1.0" encoding="UTF-8" standalone="no"?>
<svg
   width="170.41599"
   height="149.98833"
   version="1.1"
   viewBox="0 0 170.41599 149.98833"
   id="svg9"
   sodipodi:docname="kreivo.svg"
   inkscape:version="1.4.3 (0d15f75042, 2025-12-25)"
   xmlns:inkscape="http://www.inkscape.org/namespaces/inkscape"
   xmlns:sodipodi="http://sodipodi.sourceforge.net/DTD/sodipodi-0.dtd"
   xmlns="http://www.w3.org/2000/svg"
   xmlns:svg="http://www.w3.org/2000/svg">
  <defs
     id="defs9" />
  <sodipodi:namedview
     id="namedview9"
     pagecolor="#505050"
     bordercolor="#eeeeee"
     borderopacity="1"
     inkscape:showpageshadow="0"
     inkscape:pageopacity="0"
     inkscape:pagecheckerboard="0"
     inkscape:deskcolor="#505050"
     inkscape:zoom="1.0269097"
     inkscape:cx="-148.5038"
     inkscape:cy="98.840237"
     inkscape:window-width="2560"
     inkscape:window-height="1015"
     inkscape:window-x="0"
     inkscape:window-y="0"
     inkscape:window-maximized="1"
     inkscape:current-layer="svg9" />
  <path
     sodipodi:type="star"
     style="fill:none;stroke:#decff1;stroke-width:20.2655;stroke-linecap:round;stroke-linejoin:round;paint-order:markers stroke fill"
     id="path10"
     inkscape:flatsided="true"
     sodipodi:sides="6"
     sodipodi:cx="-54.893349"
     sodipodi:cy="88.456711"
     sodipodi:r1="27.775854"
     sodipodi:r2="24.054596"
     sodipodi:arg1="1.0471976"
     sodipodi:arg2="1.5707963"
     inkscape:rounded="1.0408341e-17"
     inkscape:randomized="0"
     d="m -41.005423,112.51131 -27.775854,0 -13.887926,-24.054601 13.887928,-24.054594 27.775855,1e-6 13.887925,24.054596 z"
     transform="matrix(2.247731,0,0,2.1936234,208.59347,-119.04655)" />
  <path
     d="m 121.608,14.894165 -16.43,27.76 18.54,32.12 0.2334,-0.3612 16.94,-28.87 -15.28,-26.46 c -0.9965,-1.726 -2.385,-3.135 -3.999,-4.189 z"
     fill="#b5f1b1"
     id="path2" />
  <path
     d="m 141.108,46.124165 c -11.77,20.13 -23.64,40.21 -35.43,60.330005 0.1644,0.164 0.358,-0.2034 0.5334,-0.2239 26.79,-16.450005 44.64,-27.430005 49.66,-30.700005 0.0918,-2.108 -0.3519,-4.223 -1.328,-6.157 -4.481,-7.749 -8.951,-15.5 -13.43,-23.25 z"
     fill="#00a9e0"
     id="path3" />
  <path
     d="m 155.808,76.394165 c -16.91,10.2 -33.55,20.84 -50.44,31.070005 5.322,9.261 10.61,18.54 16.01,27.76 1.399,-0.8813 2.617,-2.04 3.583,-3.428 4.734,-8.134 9.461,-16.27 14.18,-24.42 l 15.08,-26.130005 c 0.8755,-1.517 1.394,-3.173 1.582,-4.857 z"
     fill="#00a9e0"
     id="path4" />
  <path
     d="m 66.008006,107.79417 0.3264,0.5577 c 5.527,9.591 11.02,19.2 16.54,28.79 0.9919,0.0157 1.984,0.0243 2.976,0.0346 H 110.0904 c 1.571,-0.005 3.141,0 4.711,0 2.176,0 4.268,-0.5775 6.101,-1.608 -1.811,-3.193 -12.08,-21.01 -15.95,-27.74 z"
     fill="#137d97"
     id="path5" />
  <g
     fill="#294940"
     id="g8"
     transform="translate(-39.791994,-50.005835)">
    <path
       d="m 96.07,141.9 c -8.493,4.89 -17.08,9.778 -25.53,14.75 l 14.03,24.3 c 2.23,3.863 6.352,6.243 10.81,6.243 h 26.6 l -0.0708,-0.1362 c -8.621,-15.05 -17.2,-30.11 -25.84,-45.14 z"
       id="path6" />
    <path
       d="m 69.08,95.92 -0.0285,0.04975 -13.16,22.79 c -2.23,3.863 -2.23,8.623 0,12.49 l 14.32,24.81 c 0.1318,-0.0569 25.55,-14.71 25.55,-14.71 l -0.01795,-0.0297 z"
       id="path7" />
    <path
       d="m 122.8,62.85 -27.57,0.0097 c -4.407,0.04975 -8.467,2.41 -10.67,6.232 l -15.16,26.25 17.13,29.29 c 0.0049,-0.009 0.0066,-0.0103 0.01163,-0.0189 l 18.64,-32.29 h 0.3242 c 10.28,-17.51 17.29,-29.48 17.29,-29.48 z"
       id="path8" />
  </g>
  <path
     d="m 83.708006,12.844165 -17.2,29.34 -0.0845,0.1436 H 104.4735 l 16.33,-27.92 c -1.816,-1.002 -3.878,-1.565 -6.024,-1.565 z"
     fill="#b5f1b1"
     id="path9" />
</svg>
