<svg id="lock-icon" width="173" height="161" viewBox="0 0 173 161" fill="none" xmlns="http://www.w3.org/2000/svg">
<path d="M118.299 104.092L50.7797 104.979C45.0169 104.092 43.8644 106.745 43.8644 112.42L43 117.911V126.415L43.8644 132.616L43 141.296L43.8644 150.288C43.8644 155.963 47.2141 160.606 52.4124 160.606H118.299C123.498 160.606 126.847 156.361 126.847 150.686V136.868L128 123.049L126.847 118.797L127.712 114.368C126.847 108.168 123.498 104.092 118.299 104.092Z" fill="#BDA0E3"/>
<path d="M61.4404 103.206L62.593 93.4625V82.8329C62.593 76.0199 63.7455 69.0143 69.0045 64.4907C73.4174 59.6732 78.2504 56.2588 84.4913 56.2588C90.7321 56.2588 97.8695 59.6732 102.282 64.4907C106.695 69.3081 107.542 76.4551 108.695 82.8329L109.175 93.4625L108.695 97.7143L109.175 103.206" stroke="#BDA0E3" stroke-width="13.8305" stroke-linecap="round" stroke-linejoin="round"/>
<ellipse cx="85.4667" cy="130.502" rx="5.5854" ry="5.15128" fill="#10352B"/>
<rect x="81.4773" y="129.765" width="7.97914" height="14.7179" rx="3.98957" fill="#10352B"/>
<path class="lock-glare" d="M172.166 20.5234C172.441 20.5234 172.716 20.5234 173 20.5234C172.975 20.9684 172.975 20.9684 172.722 21.5496C172.119 21.9512 171.537 22.2969 170.897 22.6399C168.778 23.835 167.233 25.2253 165.629 26.9689C164.509 28.1656 163.228 29.0496 161.772 29.876C160.046 30.8656 159.39 31.6436 158.562 33.3623C157.441 35.5883 155.937 36.2842 153.503 37.1192C151.775 37.8381 151.136 38.6529 150.401 40.2447C149.571 41.9051 148.678 42.8596 146.855 43.6118C146.474 43.7337 146.092 43.8515 145.708 43.9645C143.918 44.5257 142.919 46.0374 141.988 47.4759C140.903 49.1288 139.56 50.19 137.781 51.1957C136.52 51.9099 135.752 52.5103 134.895 53.6167C134.601 53.9807 134.305 54.3441 134.009 54.707C133.805 54.963 133.805 54.963 133.597 55.2241C133.227 55.669 133.227 55.669 132.67 56.1821C132.395 56.1821 132.12 56.1821 131.836 56.1821C133.188 53.4787 135.397 51.1723 138.129 49.6244C139.872 48.6331 140.802 47.5523 141.797 45.9206C142.926 44.1547 144.284 43.2827 146.351 42.5856C148.249 41.9273 148.91 40.8942 149.723 39.2667C150.568 37.6628 151.66 36.5634 153.471 35.8796C154.002 35.7133 154.534 35.5483 155.067 35.3846C156.706 34.817 157.224 33.7422 157.928 32.3562C159.06 30.1842 160.759 29.0905 162.938 27.8488C163.853 27.2457 164.589 26.5 165.364 25.7524C168.903 22.3493 168.903 22.3493 171.083 21.2971C171.654 21.0442 171.654 21.0442 172.166 20.5234Z" fill="#51CB59"/>
<path class="lock-glare" d="M0 20.2666C0.521367 20.3428 0.521367 20.3428 1.11254 20.5231C1.53655 21.1554 1.90155 21.7685 2.25985 22.4311C3.21489 24.1022 4.25292 25.3472 5.76261 26.643C7.47321 28.1262 8.47736 29.8954 9.50983 31.8228C10.3022 33.0161 11.3411 33.6146 12.6725 34.2318C14.1138 34.9517 14.9078 35.8243 15.5756 37.1981C15.655 37.5651 15.7243 37.9342 15.7842 38.3044C16.0907 39.6186 16.6901 40.4383 17.8006 41.3026C18.4314 41.668 19.0648 41.9902 19.7335 42.2927C20.3237 42.5955 20.7181 42.8677 21.1383 43.3549C21.1383 43.6089 21.1383 43.8629 21.1383 44.1246C15.9605 41.8243 15.9605 41.8243 15.0193 39.7634C14.7946 39.0474 14.5996 38.3272 14.4044 37.6039C14.0195 36.4424 13.3591 35.7 12.2162 35.0977C12.0054 34.9971 11.7946 34.8966 11.5774 34.793C9.68829 33.8813 8.56914 32.5866 7.68348 30.8167C6.89947 29.2688 5.70692 28.1712 4.45016 26.9366C0 22.3378 0 22.3378 0 20.2666Z" fill="#51CB59"/>
<path class="lock-glare" d="M79.2686 19.2407C79.5439 19.2407 79.8193 19.2407 80.103 19.2407C80.6247 21.85 81.0045 24.3463 80.9418 27.0026C80.9137 28.4911 80.9771 29.9361 81.786 31.2653C82.1231 31.9624 82.1256 32.518 82.1357 33.2801C82.1462 33.7092 82.1462 33.7092 82.1569 34.1469C82.1666 34.7428 82.1753 35.3388 82.183 35.9347C82.2245 37.5592 82.4129 38.9194 82.9773 40.4573C83.2718 41.3943 83.2633 42.2907 83.232 43.259C83.2305 43.4382 83.2291 43.6175 83.2276 43.8021C83.2078 45.0371 83.069 46.2369 82.8843 47.4598C82.609 47.4598 82.3336 47.4598 82.0499 47.4598C82.0543 47.2945 82.0586 47.1292 82.0631 46.9589C82.0807 46.1959 82.0914 45.433 82.1021 44.67C82.109 44.41 82.116 44.1501 82.1232 43.8823C82.1365 42.6059 82.0856 41.5112 81.637 40.2978C80.9635 38.464 81.0944 36.5685 81.0933 34.6525C81.062 32.8955 80.796 31.5797 80.0794 29.9578C79.6112 28.6479 79.6475 27.3109 79.6336 25.9428C79.6189 25.3562 79.6037 24.7696 79.588 24.1831C79.5818 23.9058 79.5756 23.6285 79.5692 23.3428C79.5289 21.9709 79.4095 20.6069 79.2686 19.2407Z" fill="#956DD4"/>
<path class="lock-glare" d="M111.532 33.0938C111.808 33.0938 112.083 33.0938 112.367 33.0938C112.052 34.4538 111.338 35.6512 110.681 36.8937C110.555 37.1432 110.429 37.3927 110.299 37.6498C109.512 39.1312 108.732 40.1626 107.306 41.1689C105.597 42.4992 105.081 44.6904 104.544 46.608C104.387 47.1311 104.387 47.1311 104.023 47.9729C103.424 48.2214 103.424 48.2214 102.91 48.2294C104.601 42.1224 104.601 42.1224 106.499 40.6305C108.796 38.78 109.807 36.3762 111.007 33.8373C111.254 33.3503 111.254 33.3503 111.532 33.0938Z" fill="#A8E6A5"/>
<path class="lock-glare" d="M48.6738 32.5806C50.0486 33.0032 50.4101 34.1971 51.0554 35.3383C51.1951 35.5839 51.3348 35.8294 51.4787 36.0823C52.3474 37.6674 52.8396 39.0305 53.0045 40.8098C53.3492 42.9719 54.7574 44.6961 56.3464 46.2392C56.8929 46.8658 56.9964 47.4368 57.0179 48.2293C55.0385 47.6208 53.5597 44.7686 52.5677 43.0986C52.1296 42.1692 52.0022 41.398 51.956 40.4009C51.7895 38.7922 51.0468 37.5876 50.1862 36.2042C49.8999 35.7355 49.6155 35.2659 49.3333 34.7952C49.2069 34.5912 49.0805 34.3872 48.9503 34.177C48.6738 33.6067 48.6738 33.6067 48.6738 32.5806Z" fill="#A8E6A5"/>
<path class="lock-glare" d="M77.3217 0C77.5971 0.0846573 77.8725 0.169314 78.1562 0.256537C78.856 3.74938 78.7691 7.23485 78.7124 10.7746C78.4371 10.7746 78.1617 10.7746 77.878 10.7746C77.8711 10.5897 77.8641 10.4048 77.8569 10.2143C77.8245 9.36954 77.7904 8.52481 77.7563 7.68008C77.7454 7.38924 77.7345 7.09839 77.7232 6.79873C77.6644 5.36672 77.559 3.98048 77.3217 2.56537C77.3046 2.10064 77.2975 1.63541 77.3044 1.17045C77.3069 0.948556 77.3094 0.726661 77.312 0.498043C77.3152 0.333689 77.3184 0.169335 77.3217 0Z" fill="#956DD4"/>
<path class="lock-glare" d="M26.4229 52.0781C27.2593 52.4212 27.8016 52.7915 28.4219 53.4089C29.1642 54.1186 29.9315 54.7244 30.7861 55.3169C31.7049 55.9576 32.4336 56.586 33.0981 57.4654C33.0063 57.6347 32.9145 57.804 32.82 57.9785C31.8442 57.5883 31.1643 57.0551 30.3863 56.3912C29.3259 55.4885 28.2455 54.627 27.1171 53.7977C26.5917 53.2461 26.5196 52.7968 26.4229 52.0781Z" fill="#51CB59"/>
<path class="lock-glare" d="M111.532 33.0938C111.808 33.0938 112.083 33.0938 112.367 33.0938C112.2 33.9541 111.887 34.4947 111.254 35.146C110.979 35.2307 110.704 35.3154 110.42 35.4026C110.714 34.5296 110.979 33.8599 111.532 33.0938Z" fill="#264C46"/>
</svg>
