<svg class="link-to" width="188" height="127" viewBox="0 0 188 127" fill="none" xmlns="http://www.w3.org/2000/svg">
<path d="M64.7979 51.9023C62.9932 51.9023 61.2539 52.1297 60.5455 52.3219C59.5146 52.6125 59.2574 53.0649 59.0634 54.0024L54.9723 72.9292C54.9069 73.3159 54.8438 73.6394 54.8438 73.9628C54.8438 74.9004 55.4562 75.5121 56.4545 75.5121C57.5509 75.5121 58.0021 74.8019 58.2265 73.7026L59.386 68.3094C60.1902 68.4055 61.2539 68.5039 62.7687 68.5039C69.4384 68.5039 73.5926 64.8874 73.5926 59.4285C73.5926 54.647 70.2729 51.9023 64.7979 51.9023ZM62.6074 65.403C61.5765 65.403 60.77 65.3702 60.0312 65.2741L62.189 55.2283C62.8646 55.1322 63.8652 55.0009 64.8961 55.0009C68.4401 55.0009 70.2449 56.6815 70.2449 59.459C70.2426 63.0123 67.664 65.403 62.6074 65.403Z" fill="black"/>
<path d="M169.752 69.2778C169.204 69.2778 168.849 69.6012 168.174 70.3442C166.981 71.5724 166.24 72.2498 165.307 72.2498C164.471 72.2498 164.019 71.5724 164.019 70.4732C164.019 69.8591 164.148 69.1161 164.309 68.3098L165.501 62.6892H169.078C170.205 62.6892 170.883 62.0423 170.883 60.8797C170.883 60.2328 170.465 59.75 169.499 59.75H166.144L166.724 57.1342C166.79 56.7475 166.853 56.3912 166.853 56.0678C166.853 55.163 166.24 54.5161 165.242 54.5161C164.178 54.5161 163.697 55.2263 163.47 56.3256L162.729 59.75H161.214C160.055 59.75 159.379 60.3969 159.379 61.5594C159.379 62.2063 159.83 62.6892 160.796 62.6892H162.116L160.924 68.2441C160.796 68.8582 160.634 69.8591 160.634 70.8927C160.634 73.5085 161.988 75.414 164.887 75.414C166.563 75.414 168.043 74.5749 169.172 73.5717C170.268 72.6037 171.072 71.4084 171.072 70.6325C171.072 69.8919 170.493 69.2778 169.752 69.2778Z" fill="black"/>
<path d="M95.6585 53.808C95.6585 52.8704 95.0133 52.2563 94.0151 52.2563C92.9514 52.2563 92.4698 52.9665 92.2431 54.0658L88.2175 72.8308C88.1216 73.2175 88.0562 73.541 88.0562 73.8644C88.0562 74.802 88.7014 75.4137 89.6669 75.4137C90.7633 75.4137 91.2449 74.7035 91.4716 73.6043L95.4972 54.8416C95.5627 54.4526 95.6585 54.1314 95.6585 53.808Z" fill="black"/>
<path d="M153.16 59.4265C148.006 59.4265 144.494 64.5619 144.494 69.4395C144.494 69.5309 144.497 69.6223 144.499 69.7114C143.69 70.9419 142.657 72.217 141.949 72.217C141.434 72.217 141.24 71.7318 141.24 70.9888C141.24 70.0841 141.497 68.5653 141.787 67.241L144.462 54.8372C144.527 54.4505 144.59 54.127 144.59 53.8036C144.59 52.866 143.978 52.252 142.98 52.252C141.883 52.252 141.434 52.9621 141.208 54.0614L139.758 60.7789C138.984 59.9726 137.855 59.4218 136.149 59.4218C132.726 59.4218 129.283 62.0634 127.941 66.1159C126.463 69.9458 125.142 72.2123 124.1 72.2123C123.714 72.2123 123.487 71.8889 123.487 71.3404C123.487 69.7255 124.39 65.7854 124.775 63.8799C124.904 63.1697 124.969 62.879 124.969 62.4595C124.969 61.0391 122.618 59.3586 119.558 59.3586C116.018 59.3586 112.813 61.6063 111.207 64.944C108.82 69.1723 106.63 72.2123 105.545 72.2123C105.061 72.2123 104.9 71.5982 104.771 71.0169L103.969 66.5659L108.897 62.5298C109.349 62.1431 109.928 61.5923 109.928 60.8821C109.928 60.0101 109.349 59.4289 108.479 59.4289C107.834 59.4289 107.287 59.8156 106.74 60.268L99.3313 66.4042L101.812 54.8419C101.877 54.4552 101.973 54.1317 101.973 53.8083C101.973 52.8707 101.328 52.2566 100.33 52.2566C99.2659 52.2566 98.7843 52.9668 98.5575 54.0661L94.5319 72.8311C94.4361 73.2178 94.3706 73.5413 94.3706 73.8647C94.3706 74.8023 95.0158 75.414 95.9813 75.414C97.0777 75.414 97.5593 74.7038 97.7861 73.6046L98.3027 71.1834L101.33 68.7293L102.071 72.4748C102.361 73.9608 103.135 75.414 105.131 75.414C107.118 75.414 108.682 73.5952 110.249 71.1365C110.723 73.7124 112.551 75.414 115.088 75.414C117.634 75.414 119.373 73.8952 120.5 71.8607V71.9264C120.5 74.0265 121.563 75.414 123.431 75.414C125.121 75.414 126.524 74.3921 127.777 72.2217C128.488 74.1132 130.077 75.414 132.289 75.414C134.898 75.414 136.766 73.8319 137.958 71.6357V71.8303C137.958 74.1554 139.118 75.4164 141.018 75.4164C142.697 75.4164 144.123 74.439 145.341 72.8498C146.266 74.439 147.926 75.4164 150.168 75.4164C155.323 75.4164 158.834 70.281 158.834 65.3706C158.832 61.9134 156.737 59.4265 153.16 59.4265ZM121.044 65.9847C120.109 70.0208 118.113 72.3154 115.857 72.3154C114.342 72.3154 113.505 71.1529 113.505 69.409C113.505 65.9847 115.985 62.3024 119.303 62.3024C120.301 62.3024 121.075 62.5931 121.75 63.0126L121.044 65.9847ZM138.987 64.2736C137.956 69.0223 135.604 72.3154 133.028 72.3154C131.611 72.3154 130.772 71.2162 130.772 69.409C130.772 65.9542 133.156 62.3681 136.345 62.3681C137.57 62.3681 138.503 62.7876 139.181 63.3361L138.987 64.2736ZM150.552 72.3154C148.684 72.3154 147.91 70.9583 147.91 69.2473C147.91 66.1136 150.068 62.5298 152.775 62.5298C154.643 62.5298 155.416 63.8869 155.416 65.5979C155.416 68.7621 153.259 72.3154 150.552 72.3154Z" fill="black"/>
<path d="M81.6133 59.4263C76.4586 59.4263 72.9473 64.5617 72.9473 69.4393C72.9473 72.9269 75.0419 75.4138 78.6163 75.4138C83.7711 75.4138 87.2824 70.2784 87.2824 65.368C87.2824 61.9131 85.1878 59.4263 81.6133 59.4263ZM79.0044 72.3152C77.1365 72.3152 76.3627 70.9581 76.3627 69.2471C76.3627 66.1133 78.5205 62.5296 81.2276 62.5296C83.0955 62.5296 83.8693 63.8866 83.8693 65.5977C83.8669 68.7619 81.7092 72.3152 79.0044 72.3152Z" fill="black"/>
<path d="M32.4249 53.9043C35.7082 53.9043 38.3698 52.3523 38.3698 50.4378C38.3698 48.5232 35.7082 46.9712 32.4249 46.9712C29.1416 46.9712 26.48 48.5232 26.48 50.4378C26.48 52.3523 29.1416 53.9043 32.4249 53.9043Z" fill="#E6007A"/>
<path d="M32.4249 80.0245C35.7082 80.0245 38.3698 78.4724 38.3698 76.5579C38.3698 74.6434 35.7082 73.0913 32.4249 73.0913C29.1416 73.0913 26.48 74.6434 26.48 76.5579C26.48 78.4724 29.1416 80.0245 32.4249 80.0245Z" fill="#E6007A"/>
<path d="M24.1403 58.7032C25.7819 55.8524 25.7712 52.7649 24.1165 51.807C22.4617 50.849 19.7894 52.3835 18.1477 55.2342C16.5061 58.085 16.5168 61.1725 18.1715 62.1305C19.8263 63.0884 22.4986 61.5539 24.1403 58.7032Z" fill="#E6007A"/>
<path d="M46.6977 71.7609C48.3394 68.9101 48.3296 65.8231 46.676 64.8658C45.0223 63.9086 42.3509 65.4436 40.7093 68.2943C39.0676 71.1451 39.0774 74.2321 40.731 75.1893C42.3847 76.1466 45.0561 74.6116 46.6977 71.7609Z" fill="#E6007A"/>
<path d="M24.116 75.1886C25.7708 74.2307 25.7814 71.1432 24.1398 68.2924C22.4981 65.4417 19.8258 63.9072 18.1711 64.8651C16.5163 65.8231 16.5056 68.9106 18.1473 71.7614C19.7889 74.6121 22.4612 76.1466 24.116 75.1886Z" fill="#E6007A"/>
<path d="M46.6779 62.1312C48.3316 61.174 48.3413 58.0869 46.6997 55.2362C45.058 52.3854 42.3867 50.8505 40.733 51.8077C39.0793 52.765 39.0696 55.852 40.7112 58.7028C42.3529 61.5535 45.0242 63.0885 46.6779 62.1312Z" fill="#E6007A"/>
</svg>
