<svg width="496" height="335" viewBox="0 0 496 335" fill="none" xmlns="http://www.w3.org/2000/svg">
<path d="M181.179 197.666C176.419 197.666 172.331 196.854 168.915 195.23C165.555 193.606 162.503 191.17 159.759 187.922L167.319 180.362C169.055 182.658 171.071 184.45 173.367 185.738C175.663 186.97 178.463 187.586 181.767 187.586C184.735 187.586 187.087 186.998 188.823 185.822C190.615 184.646 191.511 183.022 191.511 180.95C191.511 179.158 191.007 177.702 189.999 176.582C188.991 175.462 187.647 174.51 185.967 173.726C184.343 172.942 182.523 172.242 180.507 171.626C178.547 170.954 176.559 170.198 174.543 169.358C172.583 168.518 170.763 167.482 169.083 166.25C167.459 164.962 166.143 163.338 165.135 161.378C164.127 159.362 163.623 156.842 163.623 153.818C163.623 150.234 164.491 147.182 166.227 144.662C167.963 142.142 170.343 140.21 173.367 138.866C176.391 137.522 179.807 136.85 183.615 136.85C187.647 136.85 191.287 137.606 194.535 139.118C197.783 140.63 200.443 142.59 202.515 144.998L194.955 152.558C193.219 150.654 191.427 149.254 189.579 148.358C187.787 147.462 185.743 147.014 183.447 147.014C180.815 147.014 178.743 147.518 177.231 148.526C175.719 149.534 174.963 150.99 174.963 152.894C174.963 154.518 175.467 155.834 176.475 156.842C177.483 157.85 178.799 158.718 180.423 159.446C182.103 160.174 183.923 160.874 185.883 161.546C187.899 162.218 189.887 162.974 191.847 163.814C193.863 164.654 195.683 165.746 197.307 167.09C198.987 168.434 200.331 170.17 201.339 172.298C202.347 174.37 202.851 176.946 202.851 180.026C202.851 185.514 200.919 189.826 197.055 192.962C193.191 196.098 187.899 197.666 181.179 197.666Z" fill="#10352B"/>
<path d="M229.767 197.666C225.511 197.666 221.731 196.77 218.427 194.978C215.123 193.13 212.491 190.61 210.531 187.418C208.627 184.226 207.675 180.586 207.675 176.498C207.675 172.466 208.599 168.882 210.447 165.746C212.351 162.554 214.927 160.034 218.175 158.186C221.423 156.282 225.035 155.33 229.011 155.33C232.931 155.33 236.375 156.226 239.343 158.018C242.367 159.754 244.719 162.162 246.399 165.242C248.135 168.266 249.003 171.71 249.003 175.574C249.003 176.302 248.947 177.058 248.835 177.842C248.779 178.57 248.639 179.41 248.415 180.362L214.311 180.446V172.214L243.291 172.13L238.839 175.574C238.727 173.166 238.279 171.15 237.495 169.526C236.767 167.902 235.675 166.67 234.219 165.83C232.819 164.934 231.083 164.486 229.011 164.486C226.827 164.486 224.923 164.99 223.299 165.998C221.675 166.95 220.415 168.322 219.519 170.114C218.679 171.85 218.259 173.922 218.259 176.33C218.259 178.794 218.707 180.95 219.603 182.798C220.555 184.59 221.899 185.99 223.635 186.998C225.371 187.95 227.387 188.426 229.683 188.426C231.755 188.426 233.631 188.09 235.311 187.418C236.991 186.69 238.447 185.626 239.679 184.226L246.147 190.694C244.187 192.99 241.779 194.726 238.923 195.902C236.123 197.078 233.071 197.666 229.767 197.666Z" fill="#10352B"/>
<path d="M255.808 196.826V156.254H266.812V196.826H255.808ZM266.812 174.398L262.528 171.542C263.032 166.558 264.488 162.638 266.896 159.782C269.304 156.87 272.776 155.414 277.312 155.414C279.272 155.414 281.036 155.75 282.604 156.422C284.172 157.038 285.6 158.074 286.888 159.53L280 167.426C279.384 166.754 278.628 166.25 277.732 165.914C276.892 165.578 275.912 165.41 274.792 165.41C272.44 165.41 270.508 166.166 268.996 167.678C267.54 169.134 266.812 171.374 266.812 174.398Z" fill="#10352B"/>
<path d="M303.531 196.826L285.639 156.254H297.735L310.587 189.686H304.623L317.559 156.254H329.235L311.427 196.826H303.531Z" fill="#10352B"/>
<path d="M334.312 196.826V156.254H345.4V196.826H334.312ZM339.856 149.702C338.064 149.702 336.58 149.114 335.404 147.938C334.228 146.706 333.64 145.194 333.64 143.402C333.64 141.666 334.228 140.182 335.404 138.95C336.58 137.718 338.064 137.102 339.856 137.102C341.704 137.102 343.188 137.718 344.308 138.95C345.484 140.182 346.072 141.666 346.072 143.402C346.072 145.194 345.484 146.706 344.308 147.938C343.188 149.114 341.704 149.702 339.856 149.702Z" fill="#10352B"/>
<path d="M374.3 197.666C370.156 197.666 366.432 196.742 363.128 194.894C359.824 193.046 357.22 190.526 355.316 187.334C353.412 184.142 352.46 180.558 352.46 176.582C352.46 172.55 353.412 168.938 355.316 165.746C357.22 162.554 359.824 160.034 363.128 158.186C366.488 156.282 370.212 155.33 374.3 155.33C377.492 155.33 380.432 155.918 383.12 157.094C385.808 158.27 388.132 159.95 390.092 162.134L383.036 169.274C381.972 168.098 380.684 167.202 379.172 166.586C377.716 165.97 376.092 165.662 374.3 165.662C372.284 165.662 370.464 166.138 368.84 167.09C367.272 167.986 366.012 169.246 365.06 170.87C364.164 172.438 363.716 174.314 363.716 176.498C363.716 178.626 364.164 180.53 365.06 182.21C366.012 183.834 367.272 185.122 368.84 186.074C370.464 186.97 372.284 187.418 374.3 187.418C376.148 187.418 377.8 187.11 379.256 186.494C380.768 185.822 382.056 184.87 383.12 183.638L390.26 190.778C388.188 193.018 385.808 194.726 383.12 195.902C380.432 197.078 377.492 197.666 374.3 197.666Z" fill="#10352B"/>
<path d="M396.492 196.826V156.254H407.58V196.826H396.492ZM402.036 149.702C400.244 149.702 398.76 149.114 397.584 147.938C396.408 146.706 395.82 145.194 395.82 143.402C395.82 141.666 396.408 140.182 397.584 138.95C398.76 137.718 400.244 137.102 402.036 137.102C403.884 137.102 405.368 137.718 406.488 138.95C407.664 140.182 408.252 141.666 408.252 143.402C408.252 145.194 407.664 146.706 406.488 147.938C405.368 149.114 403.884 149.702 402.036 149.702Z" fill="#10352B"/>
<path d="M436.396 197.666C432.308 197.666 428.612 196.742 425.308 194.894C422.06 192.99 419.456 190.442 417.496 187.25C415.592 184.002 414.64 180.39 414.64 176.414C414.64 172.438 415.592 168.882 417.496 165.746C419.4 162.554 422.004 160.034 425.308 158.186C428.612 156.282 432.28 155.33 436.312 155.33C440.456 155.33 444.152 156.282 447.4 158.186C450.704 160.034 453.308 162.554 455.212 165.746C457.116 168.882 458.068 172.438 458.068 176.414C458.068 180.39 457.116 184.002 455.212 187.25C453.308 190.442 450.704 192.99 447.4 194.894C444.152 196.742 440.484 197.666 436.396 197.666ZM436.312 187.418C438.384 187.418 440.204 186.97 441.772 186.074C443.396 185.122 444.628 183.834 445.468 182.21C446.364 180.53 446.812 178.626 446.812 176.498C446.812 174.37 446.364 172.494 445.468 170.87C444.572 169.246 443.34 167.986 441.772 167.09C440.204 166.138 438.384 165.662 436.312 165.662C434.296 165.662 432.504 166.138 430.936 167.09C429.368 167.986 428.136 169.246 427.24 170.87C426.344 172.494 425.896 174.37 425.896 176.498C425.896 178.626 426.344 180.53 427.24 182.21C428.136 183.834 429.368 185.122 430.936 186.074C432.504 186.97 434.296 187.418 436.312 187.418Z" fill="#10352B"/>
<path d="M479.096 197.75C476.8 197.75 474.532 197.442 472.292 196.826C470.108 196.21 468.092 195.37 466.244 194.306C464.396 193.186 462.8 191.842 461.456 190.274L468.008 183.638C469.408 185.206 471.032 186.382 472.88 187.166C474.728 187.95 476.772 188.342 479.012 188.342C480.804 188.342 482.148 188.09 483.044 187.586C483.996 187.082 484.472 186.326 484.472 185.318C484.472 184.198 483.968 183.33 482.96 182.714C482.008 182.098 480.748 181.594 479.18 181.202C477.612 180.754 475.96 180.278 474.224 179.774C472.544 179.214 470.92 178.514 469.352 177.674C467.784 176.778 466.496 175.574 465.488 174.062C464.536 172.494 464.06 170.478 464.06 168.014C464.06 165.438 464.676 163.198 465.908 161.294C467.196 159.39 469.016 157.906 471.368 156.842C473.72 155.778 476.492 155.246 479.684 155.246C483.044 155.246 486.068 155.834 488.756 157.01C491.5 158.186 493.768 159.95 495.56 162.302L488.924 168.938C487.692 167.426 486.292 166.334 484.724 165.662C483.212 164.99 481.56 164.654 479.768 164.654C478.144 164.654 476.884 164.906 475.988 165.41C475.148 165.914 474.728 166.614 474.728 167.51C474.728 168.518 475.204 169.302 476.156 169.862C477.164 170.422 478.452 170.926 480.02 171.374C481.588 171.766 483.212 172.242 484.892 172.802C486.628 173.306 488.252 174.034 489.764 174.986C491.332 175.938 492.592 177.198 493.544 178.766C494.552 180.334 495.056 182.35 495.056 184.814C495.056 188.79 493.628 191.954 490.772 194.306C487.916 196.602 484.024 197.75 479.096 197.75Z" fill="#10352B"/>
<path d="M176.1 249.189C175.15 250.677 177.463 250.758 178.265 252.314C179.068 253.871 179.573 253.607 180.38 255.166C181.183 256.722 179.666 257.523 180.471 259.086C181.277 260.645 181.28 260.641 182.087 262.2C182.893 263.759 182.936 263.735 183.743 265.294C184.546 266.85 186.029 266.067 186.835 267.626C187.642 269.185 186.636 269.714 187.44 271.277C188.247 272.836 189.228 272.319 190.035 273.878C190.842 275.437 189.227 276.706 190.707 277.644C192.18 278.585 192.618 277.147 194.371 277.215C196.123 277.282 196.08 278.162 197.836 278.232C199.592 278.302 199.587 278.355 201.34 278.423C203.092 278.49 203.125 277.779 204.878 277.847C206.63 277.914 206.59 278.779 208.343 278.847C210.095 278.914 210.107 278.646 211.862 278.71C213.615 278.777 213.632 278.394 215.391 278.46C217.143 278.528 217.185 277.669 218.944 277.736C220.697 277.803 221.809 280.342 222.761 278.849C223.711 277.361 222.401 276.658 221.598 275.102C220.791 273.543 220.74 273.572 219.933 272.014C219.126 270.455 218.246 270.917 217.443 269.36C216.64 267.804 216.843 267.694 216.036 266.136C215.229 264.577 215.422 264.473 214.62 262.916C213.813 261.358 213.355 261.6 212.552 260.043C211.745 258.485 211.219 258.763 210.415 257.201C209.611 255.638 209.882 255.498 209.074 253.933C208.27 252.37 208.944 252.015 208.13 250.458C208.129 250.451 207.891 251.372 207.885 251.374C206.134 251.313 206.17 250.535 204.417 250.468C202.665 250.4 202.706 249.525 200.953 249.457C199.201 249.39 199.136 250.791 197.384 250.723C195.632 250.656 195.689 249.39 193.94 249.325C192.188 249.258 192.135 250.436 190.38 250.372C188.628 250.304 188.685 249.118 186.933 249.051C185.18 248.983 185.147 249.649 183.395 249.582C181.642 249.514 181.419 250.467 179.745 249.953C177.746 249.336 177.052 247.696 176.1 249.189Z" fill="#915FD0"/>
<path d="M207.172 250.526C207.088 252.287 208.318 252.326 209.123 253.889C209.929 255.448 209.914 255.455 210.721 257.014C211.527 258.572 211.561 258.554 212.368 260.113C213.175 261.672 213.26 261.624 214.065 263.187C214.871 264.746 214.48 264.951 215.287 266.51C216.094 268.069 216.712 267.741 217.519 269.3C218.326 270.859 217.984 271.039 218.791 272.598C219.595 274.161 219.73 274.087 220.534 275.65C221.339 277.213 220.636 279.082 222.392 279.152C224.145 279.22 223.053 276.941 223.999 275.45C224.944 273.959 224.84 273.894 225.788 272.399C226.734 270.908 227.026 271.091 227.972 269.6C228.918 268.108 228.636 267.926 229.582 266.435C230.527 264.944 230.96 265.215 231.905 263.724C232.854 262.228 232.357 261.917 233.306 260.422C234.251 258.931 234.291 258.956 235.24 257.461C236.188 255.966 237.223 256.626 238.171 255.131C239.12 253.636 239.856 253.545 239.94 251.784C240.024 250.023 239.13 249.964 238.327 248.408C237.524 246.852 237.594 246.811 236.791 245.255C235.989 243.698 234.65 244.402 233.85 242.842C233.043 241.283 233.569 241.005 232.766 239.448C231.959 237.889 232.233 237.746 231.43 236.189C230.628 234.633 231.129 234.367 230.322 232.808C229.515 231.25 228.98 231.534 228.174 229.975C227.367 228.416 226.724 228.757 225.92 227.194C225.116 225.631 226.758 223.535 225.004 223.461C223.252 223.393 223.97 225.155 223.024 226.646C222.079 228.138 222.665 228.51 221.715 229.999C220.765 231.488 219.554 230.717 218.605 232.212C217.66 233.703 217.66 233.703 216.707 235.196C215.762 236.687 216.917 237.423 215.969 238.918C215.023 240.409 215.081 240.451 214.135 241.942C213.189 243.433 212.532 243.015 211.579 244.508C210.631 246.003 210.725 245.96 209.433 247.167C207.922 248.574 207.256 248.765 207.172 250.526Z" fill="#915FD0"/>
<path d="M177.035 249.002C177.835 250.563 178.097 249.781 179.849 249.848C181.602 249.916 181.663 248.608 183.416 248.676C185.168 248.744 185.116 249.86 186.868 249.927C188.62 249.995 188.657 249.162 190.41 249.23C192.162 249.297 192.132 249.943 193.884 250.01C195.636 250.078 195.639 250.029 197.392 250.097C199.144 250.164 199.185 249.317 200.937 249.384C202.69 249.452 202.65 250.351 204.403 250.419C206.155 250.486 206.154 250.542 207.906 250.609C207.913 250.608 208.275 250.795 208.277 250.791C209.227 249.303 209.607 249.541 210.557 248.052C211.503 246.561 211.021 246.254 211.971 244.765C212.916 243.274 214.033 243.715 214.983 242.226C215.929 240.735 216.931 241.369 217.877 239.877C218.822 238.386 216.778 237.353 217.726 235.857C218.672 234.366 217.724 233.761 218.674 232.273C219.62 230.781 221.007 231.662 221.956 230.167C222.904 228.672 222.536 228.396 223.488 226.904C224.436 225.408 225.026 225.677 224.222 224.114C223.419 222.558 223.218 224.053 221.465 223.986C219.713 223.918 219.7 224.169 217.948 224.102C216.195 224.034 216.259 222.66 214.507 222.593C212.754 222.525 212.72 223.247 210.967 223.179C209.215 223.112 209.207 223.275 207.454 223.208C205.702 223.14 205.737 222.408 203.985 222.34C202.232 222.272 202.179 223.354 200.426 223.286C198.674 223.219 198.738 221.817 196.986 221.75C195.233 221.682 194.957 221.599 193.393 222.421C191.836 223.242 192.374 223.923 191.425 225.411C190.479 226.902 189.959 226.576 189.013 228.067C188.067 229.559 188.851 230.061 187.905 231.552C186.959 233.043 187.549 233.418 186.601 234.914C185.655 236.405 185.343 236.209 184.397 237.7C183.449 239.196 183.789 239.409 182.837 240.901C181.891 242.393 181.307 242.026 180.357 243.515C179.409 245.01 178.969 244.6 177.74 245.868C176.618 247.035 176.235 247.442 177.035 249.002Z" fill="#915FD0"/>
<path d="M182.356 85.7587C181.406 87.2474 183.719 87.3283 184.522 88.8846C185.325 90.4409 185.83 90.1774 186.637 91.7362C187.439 93.2925 185.923 94.0936 186.727 95.6565C187.534 97.2153 187.536 97.2112 188.343 98.77C189.15 100.329 189.193 100.305 189.999 101.864C190.802 103.42 192.285 102.637 193.092 104.196C193.899 105.755 192.892 106.284 193.696 107.847C194.503 109.406 195.485 108.889 196.292 110.448C197.098 112.007 195.484 113.276 196.963 114.215C198.437 115.155 198.875 113.717 200.627 113.785C202.38 113.853 202.336 114.732 204.092 114.802C205.845 114.87 205.844 114.925 207.596 114.993C209.349 115.06 209.382 114.349 211.134 114.417C212.887 114.485 212.847 115.349 214.599 115.417C216.351 115.484 216.364 115.216 218.119 115.28C219.871 115.347 219.888 114.964 221.647 115.03C223.4 115.098 223.442 114.24 225.201 114.306C226.953 114.373 228.065 116.912 229.018 115.42C229.967 113.931 228.657 113.228 227.855 111.672C227.048 110.113 226.996 110.143 226.189 108.584C225.382 107.025 224.502 107.487 223.699 105.931C222.892 104.372 223.099 104.265 222.292 102.706C221.485 101.147 221.679 101.043 220.876 99.4866C220.069 97.9278 219.611 98.17 218.808 96.6137C218.001 95.0548 219.118 93.9409 218.315 92.3846C217.511 90.8217 218.045 90.8133 217.239 89.2545C216.434 87.6917 215.201 88.5917 214.388 87.0344C214.387 87.0278 214.149 87.9491 214.143 87.9507C212.392 87.8896 212.427 87.1122 210.675 87.0445C208.923 86.9769 208.964 86.1016 207.211 86.034C205.459 85.9663 205.394 87.3677 203.642 87.3001C201.889 87.2324 201.947 85.9672 200.198 85.9021C198.446 85.8344 198.393 87.0123 196.638 86.9487C194.886 86.8811 194.943 85.6951 193.191 85.6274C191.438 85.5598 191.405 86.2262 189.653 86.1585C187.9 86.0909 187.677 87.0434 186.003 86.5296C184.003 85.9064 183.308 84.266 182.356 85.7587Z" fill="#51CB59"/>
<path d="M213.425 87.0958C213.342 88.8569 214.572 88.8956 215.376 90.4584C216.183 92.0172 216.167 92.0244 216.974 93.5832C217.78 95.142 217.814 95.1237 218.621 96.6825C219.428 98.2413 219.513 98.1936 220.318 99.7565C221.124 101.315 220.734 101.521 221.54 103.08C222.347 104.639 222.965 104.311 223.772 105.869C224.579 107.428 224.237 107.608 225.044 109.167C225.848 110.73 225.983 110.657 226.787 112.22C227.592 113.783 226.889 115.651 228.645 115.722C230.398 115.789 229.306 113.511 230.252 112.02C231.197 110.529 231.093 110.464 232.042 108.968C232.987 107.477 233.279 107.66 234.225 106.169C235.171 104.678 234.889 104.496 235.835 103.005C236.781 101.514 237.213 101.784 238.158 100.293C239.107 98.7981 238.61 98.487 239.559 96.9918C240.504 95.5007 240.544 95.5258 241.493 94.0306C242.441 92.5353 243.476 93.1956 244.425 91.7004C245.373 90.2052 246.109 90.1149 246.193 88.3538C246.277 86.5927 245.383 86.5337 244.58 84.9774C243.777 83.4211 243.847 83.3805 243.045 81.8242C242.242 80.2679 240.903 80.9721 240.103 79.4117C239.296 77.8529 239.822 77.5742 239.019 76.0179C238.212 74.4591 238.486 74.3154 237.684 72.7591C236.881 71.2028 237.382 70.9368 236.575 69.378C235.768 67.8192 235.233 68.1034 234.427 66.5446C233.62 64.9858 232.977 65.3264 232.173 63.7636C231.366 62.2048 233.011 60.1044 231.257 60.0302C229.505 59.9626 230.223 61.725 229.277 63.2161C228.332 64.7073 228.918 65.08 227.968 66.5687C227.022 68.0599 225.807 67.2868 224.858 68.782C223.913 70.2731 223.913 70.2731 222.96 71.7658C222.015 73.257 223.17 73.9925 222.222 75.4877C221.276 76.9788 221.334 77.0205 220.388 78.5116C219.442 80.0028 218.785 79.5849 217.832 81.0776C216.884 82.5728 216.978 82.5301 215.686 83.737C214.175 85.1438 213.509 85.3347 213.425 87.0958Z" fill="#51CB59"/>
<path d="M183.29 85.572C184.09 87.1324 184.352 86.3502 186.105 86.4179C187.857 86.4855 187.919 85.178 189.671 85.2456C191.423 85.3133 191.371 86.4291 193.123 86.4968C194.876 86.5645 194.913 85.7316 196.665 85.7992C198.418 85.8669 198.387 86.5121 200.139 86.5798C201.892 86.6474 201.894 86.5985 203.647 86.6661C205.399 86.7338 205.44 85.8863 207.192 85.9539C208.945 86.0216 208.906 86.9205 210.658 86.9882C212.41 87.0559 212.409 87.1113 214.162 87.179C214.168 87.1775 214.53 87.3649 214.533 87.3608C215.482 85.8722 215.862 86.1105 216.812 84.6218C217.758 83.1306 217.276 82.8231 218.226 81.3345C219.172 79.8433 220.289 80.2843 221.238 78.7957C222.184 77.3045 223.186 77.9381 224.132 76.447C225.077 74.9558 223.033 73.9223 223.981 72.4271C224.927 70.9359 223.979 70.3309 224.929 68.8422C225.875 67.351 227.262 68.232 228.211 66.7368C229.159 65.2416 228.791 64.9659 229.743 63.4732C230.695 61.9805 231.281 62.2464 230.477 60.6835C229.674 59.1272 229.473 60.6229 227.72 60.5552C225.968 60.4876 225.955 60.7388 224.203 60.6712C222.45 60.6035 222.514 59.2298 220.762 59.1622C219.009 59.0945 218.975 59.8164 217.222 59.7488C215.47 59.6811 215.462 59.8451 213.709 59.7774C211.957 59.7098 211.992 58.9773 210.24 58.9096C208.487 58.842 208.434 59.9235 206.681 59.8559C204.929 59.7882 204.993 58.3868 203.241 58.3192C201.489 58.2515 201.212 58.1682 199.648 58.9907C198.092 59.8116 198.629 60.4922 197.68 61.9808C196.734 63.472 196.214 63.1459 195.268 64.6371C194.322 66.1282 195.106 66.6304 194.16 68.1216C193.214 69.6128 193.804 69.988 192.856 71.4832C191.91 72.9744 191.598 72.7787 190.652 74.2699C189.704 75.7651 190.044 75.9783 189.092 77.471C188.144 78.9662 187.562 78.596 186.612 80.0846C185.664 81.5798 185.225 81.1692 183.995 82.4374C182.87 83.6018 182.486 84.0092 183.29 85.572Z" fill="#51CB59"/>
<path d="M150.657 81.6453C151.607 80.1566 149.294 80.0758 148.491 78.5195C147.689 76.9632 147.184 77.2267 146.377 75.6678C145.574 74.1115 147.091 73.3104 146.286 71.7476C145.48 70.1888 145.477 70.1928 144.67 68.634C143.863 67.0752 143.821 67.099 143.014 65.5402C142.211 63.9839 140.728 64.7667 139.922 63.2079C139.115 61.6491 140.121 61.1196 139.317 59.5567C138.51 57.9979 137.528 58.5147 136.722 56.9559C135.915 55.3971 137.53 54.1281 136.05 53.1895C134.577 52.2493 134.138 53.6868 132.386 53.6191C130.633 53.5515 130.677 52.6722 128.921 52.602C127.168 52.5343 127.17 52.4789 125.417 52.4112C123.665 52.3435 123.631 53.0548 121.879 52.9872C120.126 52.9195 120.167 52.0549 118.414 51.9872C116.662 51.9196 116.65 52.1879 114.895 52.1243C113.142 52.0567 113.125 52.4401 111.366 52.374C109.613 52.3063 109.572 53.1644 107.813 53.0983C106.06 53.0306 104.948 50.4918 103.996 51.9845C103.046 53.4732 104.356 54.1758 105.159 55.7322C105.965 57.291 106.017 57.2615 106.824 58.8204C107.631 60.3792 108.511 59.9172 109.314 61.4735C110.121 63.0323 109.914 63.1394 110.721 64.6982C111.528 66.257 111.334 66.3611 112.137 67.9174C112.944 69.4762 113.402 69.2341 114.205 70.7904C115.012 72.3492 113.896 73.4632 114.698 75.0195C115.503 76.5823 114.968 76.5907 115.775 78.1495C116.581 79.7083 117.812 78.8124 118.625 80.3697C118.627 80.3762 118.864 79.4549 118.871 79.4534C120.622 79.5145 120.586 80.2918 122.338 80.3595C124.091 80.4272 124.049 81.3024 125.802 81.3701C127.554 81.4377 127.619 80.0363 129.371 80.104C131.124 80.1716 131.067 81.4368 132.815 81.502C134.568 81.5696 134.62 80.3917 136.375 80.4553C138.128 80.523 138.07 81.709 139.822 81.7766C141.575 81.8443 141.608 81.1779 143.36 81.2455C145.113 81.3132 145.336 80.3607 147.01 80.8745C149.007 81.4951 149.705 83.138 150.657 81.6453Z" fill="#10352B"/>
<path d="M119.585 80.3076C119.669 78.5465 118.439 78.5079 117.635 76.945C116.828 75.3862 116.843 75.3791 116.037 73.8203C115.23 72.2615 115.196 72.2797 114.389 70.7209C113.583 69.1621 113.497 69.2098 112.693 67.6469C111.886 66.0881 112.277 65.8825 111.47 64.3237C110.663 62.7649 110.045 63.0928 109.238 61.534C108.432 59.9752 108.773 59.795 107.966 58.2362C107.162 56.6733 107.027 56.7464 106.223 55.1835C105.419 53.6207 106.122 51.7521 104.365 51.6819C102.613 51.6142 103.704 53.8923 102.759 55.3835C101.813 56.8747 101.917 56.9399 100.969 58.4351C100.021 59.9303 99.7309 59.7431 98.7852 61.2343C97.8395 62.7255 98.1211 62.9076 97.1754 64.3988C96.2298 65.8899 95.7975 65.619 94.8518 67.1102C93.9036 68.6054 94.3999 68.9164 93.4516 70.4116C92.5059 71.9028 92.4659 71.8777 91.5177 73.3729C90.5695 74.8681 89.534 74.2079 88.5857 75.7031C87.6375 77.1983 86.9009 77.2885 86.8172 79.0496C86.7336 80.8107 87.6275 80.8697 88.4303 82.426C89.233 83.9823 89.163 84.0229 89.9658 85.5792C90.7685 87.1355 92.1073 86.4314 92.9075 87.9917C93.7143 89.5505 93.1885 89.8292 93.9912 91.3855C94.798 92.9444 94.524 93.088 95.3268 94.6443C96.1296 96.2006 95.6284 96.4667 96.4352 98.0255C97.2419 99.5843 97.7768 99.3 98.5836 100.859C99.3904 102.418 100.033 102.077 100.837 103.64C101.644 105.199 99.9989 107.299 101.753 107.373C103.505 107.441 102.787 105.678 103.733 104.187C104.678 102.696 104.093 102.323 105.042 100.835C105.988 99.3436 107.204 100.117 108.152 98.6215C109.098 97.1303 109.098 97.1303 110.05 95.6376C110.996 94.1465 109.84 93.411 110.788 91.9158C111.734 90.4246 111.676 90.383 112.622 88.8918C113.568 87.4006 114.226 87.8185 115.178 86.3258C116.126 84.8306 116.032 84.8733 117.324 83.6665C118.836 82.2596 119.501 82.0687 119.585 80.3076Z" fill="#10352B"/>
<path d="M149.722 81.8304C148.921 80.2701 148.66 81.0522 146.907 80.9846C145.155 80.9169 145.093 82.2245 143.341 82.1569C141.589 82.0892 141.641 80.9733 139.889 80.9057C138.136 80.838 138.099 81.6709 136.347 81.6032C134.594 81.5356 134.625 80.8904 132.873 80.8227C131.12 80.755 131.118 80.804 129.365 80.7363C127.613 80.6687 127.572 81.5162 125.82 81.4485C124.067 81.3809 124.106 80.4819 122.354 80.4143C120.602 80.3466 120.603 80.2911 118.85 80.2235C118.844 80.225 118.482 80.0376 118.479 80.0416C117.53 81.5303 117.149 81.292 116.2 82.7807C115.254 84.2718 115.736 84.5794 114.786 86.068C113.84 87.5592 112.723 87.1181 111.774 88.6068C110.828 90.0979 109.826 89.4643 108.88 90.9555C107.935 92.4466 109.979 93.4802 109.031 94.9754C108.085 96.4666 109.033 97.0716 108.083 98.5603C107.137 100.051 105.75 99.1705 104.801 100.666C103.853 102.161 104.221 102.437 103.269 103.929C102.321 105.424 101.731 105.156 102.535 106.719C103.338 108.275 103.539 106.78 105.292 106.847C107.044 106.915 107.057 106.664 108.809 106.731C110.562 106.799 110.498 108.173 112.25 108.24C114.003 108.308 114.037 107.586 115.79 107.654C117.542 107.721 117.55 107.557 119.303 107.625C121.055 107.693 121.02 108.425 122.772 108.493C124.524 108.56 124.578 107.479 126.331 107.547C128.083 107.614 128.019 109.016 129.771 109.083C131.523 109.151 131.8 109.234 133.363 108.412C134.92 107.591 134.383 106.91 135.332 105.422C136.278 103.93 136.798 104.257 137.744 102.765C138.69 101.274 137.906 100.772 138.852 99.2809C139.798 97.7897 139.208 97.4144 140.156 95.9192C141.102 94.4281 141.414 94.6237 142.36 93.1326C143.308 91.6373 142.968 91.4241 143.92 89.9314C144.868 88.4362 145.45 88.8065 146.4 87.3178C147.348 85.8226 147.787 86.2332 149.017 84.965C150.138 83.7981 150.522 83.3908 149.722 81.8304Z" fill="#10352B"/>
<path d="M97.9034 165.82C98.8531 164.331 96.5403 164.25 95.7376 162.694C94.9348 161.137 94.4296 161.401 93.6229 159.842C92.8201 158.286 94.3366 157.485 93.5324 155.922C92.7256 154.363 92.7231 154.367 91.9163 152.808C91.1095 151.25 91.0667 151.273 90.2599 149.715C89.4572 148.158 87.9744 148.941 87.1676 147.382C86.3608 145.823 87.3672 145.294 86.5629 143.731C85.7561 142.172 84.7745 142.689 83.9677 141.13C83.161 139.571 84.7757 138.302 83.2959 137.364C81.8227 136.424 81.3845 137.861 79.632 137.793C77.8795 137.726 77.9234 136.846 76.1669 136.776C74.4144 136.709 74.4158 136.653 72.6633 136.586C70.9108 136.518 70.8775 137.229 69.1251 137.162C67.3726 137.094 67.4128 136.229 65.6603 136.162C63.9079 136.094 63.8958 136.362 62.1408 136.299C60.3883 136.231 60.371 136.614 58.612 136.548C56.8595 136.481 56.8178 137.339 55.0588 137.273C53.3063 137.205 52.194 134.666 51.2418 136.159C50.2921 137.647 51.602 138.35 52.4047 139.906C53.2115 141.465 53.2634 141.436 54.0702 142.995C54.8769 144.553 55.7573 144.091 56.5601 145.648C57.3669 147.207 57.1604 147.314 57.9672 148.873C58.7739 150.431 58.5805 150.535 59.3833 152.092C60.1901 153.651 60.6484 153.408 61.4512 154.965C62.2579 156.524 61.1417 157.637 61.9445 159.194C62.7488 160.757 62.214 160.765 63.0207 162.324C63.825 163.887 65.0579 162.987 65.8712 164.544C65.8727 164.551 66.1101 163.629 66.1166 163.628C67.8676 163.689 67.8319 164.466 69.5844 164.534C71.3369 164.601 71.2956 165.477 73.048 165.544C74.8005 165.612 74.865 164.211 76.6174 164.278C78.3699 164.346 78.3128 165.611 80.0612 165.676C81.8137 165.744 81.8663 164.566 83.6213 164.63C85.3738 164.697 85.3161 165.883 87.0686 165.951C88.821 166.019 88.8541 165.352 90.6065 165.42C92.359 165.488 92.5825 164.535 94.2561 165.049C96.2528 165.669 96.9511 167.312 97.9034 165.82Z" fill="#00A8E3"/>
<path d="M66.8312 164.48C66.9148 162.719 65.6849 162.68 64.8806 161.117C64.0739 159.559 64.0895 159.551 63.2827 157.993C62.4759 156.434 62.4422 156.452 61.6354 154.893C60.8286 153.334 60.743 153.382 59.9388 151.819C59.132 150.26 59.5228 150.055 58.7161 148.496C57.9093 146.937 57.2913 147.265 56.4845 145.706C55.6777 144.148 56.0192 143.967 55.2124 142.409C54.4082 140.846 54.2732 140.919 53.469 139.356C52.6647 137.793 53.3676 135.924 51.6111 135.854C49.8587 135.787 50.9504 138.065 50.0047 139.556C49.059 141.047 49.1631 141.112 48.2149 142.607C47.2666 144.103 46.977 143.915 46.0313 145.407C45.0856 146.898 45.3672 147.08 44.4215 148.571C43.4759 150.062 43.0436 149.791 42.0979 151.283C41.1497 152.778 41.646 153.089 40.6977 154.584C39.752 156.075 39.712 156.05 38.7638 157.545C37.8155 159.04 36.7801 158.38 35.8318 159.875C34.8836 161.371 34.147 161.461 34.0633 163.222C33.9797 164.983 34.8736 165.042 35.6764 166.598C36.4791 168.155 36.4091 168.195 37.2119 169.752C38.0146 171.308 39.3534 170.604 40.1536 172.164C40.9604 173.723 40.4345 174.002 41.2373 175.558C42.0441 177.117 41.7701 177.26 42.5729 178.817C43.3756 180.373 42.8745 180.639 43.6813 182.198C44.488 183.757 45.0229 183.472 45.8297 185.031C46.6365 186.59 47.2792 186.249 48.0834 187.812C48.8877 189.375 47.245 191.471 48.9989 191.546C50.7514 191.613 50.0332 189.851 50.9789 188.36C51.9246 186.869 51.3388 186.496 52.2885 185.007C53.2342 183.516 54.4498 184.289 55.398 182.794C56.3437 181.303 56.3437 181.303 57.2959 179.81C58.2416 178.319 57.0861 177.583 58.0343 176.088C58.98 174.597 58.9225 174.555 59.8682 173.064C60.8139 171.573 61.4717 171.991 62.4239 170.498C63.3722 169.003 63.2785 169.046 64.57 167.839C66.0816 166.432 66.7475 166.241 66.8312 164.48Z" fill="#00A8E3"/>
<path d="M96.9678 166.004C96.1676 164.444 95.9059 165.226 94.1534 165.158C92.401 165.091 92.3396 166.398 90.5871 166.331C88.8346 166.263 88.8874 165.147 87.1349 165.079C85.3824 165.012 85.3454 165.845 83.5929 165.777C81.8405 165.709 81.8714 165.064 80.1189 164.997C78.3664 164.929 78.3636 164.978 76.6112 164.91C74.8587 164.842 74.8181 165.69 73.0656 165.622C71.3131 165.555 71.3525 164.656 69.6001 164.588C67.8476 164.52 67.8489 164.465 66.0965 164.397C66.0899 164.399 65.728 164.211 65.7255 164.215C64.7758 165.704 64.3956 165.466 63.4459 166.954C62.5002 168.446 62.9819 168.753 62.0322 170.242C61.0865 171.733 59.9694 171.292 59.0197 172.781C58.074 174.272 57.072 173.638 56.1263 175.129C55.1806 176.62 57.2252 177.654 56.2769 179.149C55.3312 180.64 56.2787 181.245 55.329 182.734C54.3833 184.225 52.9956 183.344 52.0474 184.839C51.0991 186.335 51.4671 186.61 50.5148 188.103C49.5666 189.598 48.9767 189.33 49.7809 190.893C50.5837 192.449 50.7853 190.953 52.5378 191.021C54.2902 191.089 54.3028 190.837 56.0552 190.905C57.8077 190.973 57.7439 192.346 59.4964 192.414C61.2488 192.482 61.2832 191.76 63.0357 191.828C64.7881 191.895 64.7961 191.731 66.5486 191.799C68.3011 191.867 68.2656 192.599 70.0181 192.667C71.7706 192.734 71.8241 191.653 73.5766 191.72C75.3291 191.788 75.2646 193.189 77.0171 193.257C78.7695 193.325 79.0462 193.408 80.6096 192.586C82.1664 191.765 81.6287 191.084 82.5784 189.595C83.524 188.104 84.0443 188.43 84.99 186.939C85.9357 185.448 85.1524 184.946 86.0981 183.455C87.0438 181.964 86.454 181.588 87.4022 180.093C88.3479 178.602 88.6601 178.798 89.6058 177.306C90.554 175.811 90.2138 175.598 91.166 174.105C92.1143 172.61 92.6961 172.98 93.6458 171.492C94.594 169.996 95.0334 170.407 96.263 169.139C97.3845 167.972 97.768 167.565 96.9678 166.004Z" fill="#00A8E3"/>
<path d="M143.473 250.017C144.423 248.528 142.11 248.447 141.307 246.891C140.505 245.335 139.999 245.598 139.193 244.039C138.39 242.483 139.906 241.682 139.102 240.119C138.295 238.56 138.293 238.564 137.486 237.006C136.679 235.447 136.637 235.471 135.83 233.912C135.027 232.355 133.544 233.138 132.737 231.58C131.931 230.021 132.937 229.491 132.133 227.928C131.326 226.37 130.344 226.886 129.538 225.328C128.731 223.769 130.345 222.5 128.866 221.561C127.393 220.621 126.954 222.058 125.202 221.991C123.449 221.923 123.493 221.044 121.737 220.974C119.984 220.906 119.986 220.85 118.233 220.783C116.481 220.715 116.447 221.426 114.695 221.359C112.942 221.291 112.983 220.426 111.23 220.359C109.478 220.291 109.466 220.56 107.711 220.496C105.958 220.428 105.941 220.812 104.182 220.746C102.429 220.678 102.388 221.536 100.629 221.47C98.8762 221.402 97.7638 218.863 96.8116 220.356C95.8619 221.845 97.1718 222.547 97.9746 224.104C98.7813 225.663 98.8332 225.633 99.64 227.192C100.447 228.751 101.327 228.289 102.13 229.845C102.937 231.404 102.73 231.511 103.537 233.07C104.344 234.629 104.15 234.733 104.953 236.289C105.76 237.848 106.218 237.606 107.021 239.162C107.828 240.721 106.712 241.835 107.514 243.391C108.319 244.954 107.784 244.962 108.591 246.521C109.395 248.084 110.628 247.184 111.441 248.741C111.443 248.748 111.68 247.826 111.686 247.825C113.437 247.886 113.402 248.663 115.154 248.731C116.907 248.799 116.865 249.674 118.618 249.742C120.37 249.809 120.435 248.408 122.187 248.476C123.94 248.543 123.883 249.808 125.631 249.874C127.384 249.941 127.436 248.763 129.191 248.827C130.944 248.895 130.886 250.081 132.638 250.148C134.391 250.216 134.424 249.549 136.176 249.617C137.929 249.685 138.152 248.732 139.826 249.246C141.827 249.869 142.521 251.51 143.473 250.017Z" fill="#80D4F1"/>
<path d="M112.401 248.678C112.485 246.917 111.255 246.878 110.45 245.316C109.644 243.757 109.659 243.75 108.853 242.191C108.046 240.632 108.012 240.65 107.205 239.092C106.398 237.533 106.313 237.58 105.509 236.018C104.702 234.459 105.093 234.253 104.286 232.694C103.479 231.135 102.861 231.463 102.054 229.905C101.248 228.346 101.589 228.166 100.782 226.607C99.978 225.044 99.843 225.117 99.0388 223.554C98.2345 221.991 98.9374 220.123 97.181 220.053C95.4285 219.985 96.5203 222.263 95.5746 223.754C94.6289 225.245 94.7329 225.31 93.7847 226.806C92.839 228.297 92.5468 228.114 91.6011 229.605C90.6554 231.096 90.9371 231.278 89.9914 232.769C89.0457 234.261 88.6134 233.99 87.6677 235.481C86.7195 236.976 87.2158 237.287 86.2676 238.782C85.3219 240.273 85.2818 240.248 84.3336 241.743C83.3854 243.239 82.3499 242.578 81.4017 244.074C80.4534 245.569 79.7168 245.659 79.6331 247.42C79.5495 249.181 80.4434 249.24 81.2462 250.797C82.049 252.353 81.9789 252.394 82.7817 253.95C83.5845 255.506 84.9232 254.802 85.7234 256.362C86.5302 257.921 86.0044 258.2 86.8071 259.756C87.6139 261.315 87.3399 261.459 88.1427 263.015C88.9455 264.571 88.4443 264.837 89.2511 266.396C90.0579 267.955 90.5928 267.671 91.3995 269.229C92.2063 270.788 92.849 270.448 93.6532 272.01C94.46 273.569 92.8148 275.67 94.5688 275.744C96.3212 275.811 95.603 274.049 96.5487 272.558C97.4944 271.067 96.9086 270.694 97.8583 269.205C98.808 267.717 100.02 268.487 100.968 266.992C101.914 265.501 101.914 265.501 102.866 264.008C103.811 262.517 102.656 261.782 103.604 260.286C104.55 258.795 104.492 258.754 105.438 257.262C106.384 255.771 107.042 256.189 107.994 254.696C108.942 253.201 108.848 253.244 110.14 252.037C111.651 250.63 112.317 250.439 112.401 248.678Z" fill="#80D4F1"/>
<path d="M142.538 250.202C141.738 248.642 141.476 249.424 139.724 249.356C137.971 249.289 137.91 250.596 136.157 250.528C134.405 250.461 134.458 249.345 132.705 249.277C130.953 249.21 130.916 250.042 129.163 249.975C127.411 249.907 127.442 249.262 125.689 249.194C123.937 249.127 123.934 249.176 122.181 249.108C120.429 249.04 120.388 249.888 118.636 249.82C116.883 249.752 116.923 248.853 115.17 248.786C113.418 248.718 113.419 248.663 111.667 248.595C111.66 248.597 111.298 248.409 111.296 248.413C110.346 249.902 109.966 249.664 109.016 251.152C108.07 252.643 108.552 252.951 107.603 254.44C106.657 255.931 105.54 255.49 104.59 256.978C103.644 258.47 102.642 257.836 101.697 259.327C100.751 260.818 102.795 261.852 101.847 263.347C100.902 264.838 101.849 265.443 100.899 266.932C99.9536 268.423 98.5659 267.542 97.6177 269.037C96.6695 270.532 97.0374 270.808 96.0852 272.301C95.1329 273.793 94.547 273.528 95.3512 275.091C96.154 276.647 96.3556 275.151 98.1081 275.219C99.8606 275.286 99.8731 275.035 101.626 275.103C103.378 275.171 103.314 276.544 105.067 276.612C106.819 276.679 106.854 275.958 108.606 276.025C110.358 276.093 110.366 275.929 112.119 275.997C113.871 276.064 113.836 276.797 115.588 276.864C117.341 276.932 117.394 275.851 119.147 275.918C120.899 275.986 120.835 277.387 122.587 277.455C124.34 277.523 124.617 277.606 126.18 276.783C127.737 275.962 127.199 275.282 128.149 273.793C129.094 272.302 129.615 272.628 130.56 271.137C131.506 269.646 130.723 269.144 131.668 267.652C132.614 266.161 132.024 265.786 132.973 264.291C133.918 262.8 134.23 262.995 135.176 261.504C136.124 260.009 135.784 259.796 136.736 258.303C137.682 256.812 138.266 257.178 139.216 255.689C140.164 254.194 140.604 254.605 141.833 253.337C142.955 252.17 143.338 251.762 142.538 250.202Z" fill="#80D4F1"/>
</svg>
