<svg width="34" height="34" viewBox="0 0 34 34" fill="none" xmlns="http://www.w3.org/2000/svg">
<path d="M34 17C34 26.3888 26.3888 34 17 34C7.61116 34 0 26.3888 0 17C0 7.61116 7.61116 0 17 0C26.3888 0 34 7.61116 34 17Z" fill="#51CB59"/>
<path d="M16.5677 23.18C15.7277 23.18 14.9657 23.03 14.2817 22.73C13.6097 22.418 13.0397 21.968 12.5717 21.38L13.9757 19.976C14.2277 20.36 14.5817 20.666 15.0377 20.894C15.4937 21.122 15.9917 21.236 16.5317 21.236C17.0477 21.236 17.4917 21.14 17.8637 20.948C18.2357 20.756 18.5237 20.486 18.7277 20.138C18.9437 19.79 19.0517 19.388 19.0517 18.932C19.0517 18.452 18.9437 18.044 18.7277 17.708C18.5237 17.372 18.2237 17.114 17.8277 16.934C17.4437 16.742 16.9757 16.646 16.4237 16.646C16.2077 16.646 15.9857 16.664 15.7577 16.7C15.5297 16.724 15.3257 16.766 15.1457 16.826L16.0637 15.638C16.3157 15.542 16.5797 15.464 16.8557 15.404C17.1437 15.332 17.4197 15.296 17.6837 15.296C18.3317 15.296 18.9137 15.452 19.4297 15.764C19.9577 16.076 20.3717 16.514 20.6717 17.078C20.9837 17.63 21.1397 18.284 21.1397 19.04C21.1397 19.856 20.9477 20.576 20.5637 21.2C20.1797 21.824 19.6457 22.31 18.9617 22.658C18.2777 23.006 17.4797 23.18 16.5677 23.18ZM15.1457 16.826V15.602L18.5117 11.678L20.9957 11.624L17.4857 15.656L15.1457 16.826ZM13.2017 12.254V10.4H20.9957V11.624L19.2137 12.254H13.2017Z" fill="#10352B"/>
</svg>
