<svg width="70" height="70" viewBox="0 0 70 70" fill="none" xmlns="http://www.w3.org/2000/svg">
<g clip-path="url(#clip0_2327_780)">
<path d="M35 70C54.33 70 70 54.33 70 35C70 15.67 54.33 0 35 0C15.67 0 0 15.67 0 35C0 54.33 15.67 70 35 70Z" fill="url(#paint0_linear_2327_780)"/>
<path fill-rule="evenodd" clip-rule="evenodd" d="M15.8428 34.6306C26.0461 30.1845 32.8493 27.2547 36.2536 25.8383C45.9743 21.7955 47.9936 21.0927 49.3102 21.0695C49.6 21.0654 50.2467 21.1365 50.6664 21.4769C51.0205 21.764 51.1176 22.1523 51.1641 22.4244C51.2106 22.6978 51.2694 23.3172 51.2229 23.8025C50.6965 29.3369 48.4174 42.7668 47.258 48.9656C46.7672 51.5892 45.8006 52.4683 44.8655 52.5545C42.8338 52.7418 41.2903 51.2105 39.3215 49.9199C36.2412 47.9019 34.5008 46.6441 31.5108 44.674C28.0545 42.3963 30.2954 41.1453 32.2641 39.1C32.7795 38.564 41.7346 30.4183 41.9082 29.68C41.9301 29.5871 41.9506 29.2425 41.7455 29.0607C41.5405 28.8789 41.2383 28.9418 41.0209 28.991C40.712 29.0607 35.7914 32.3133 26.258 38.7486C24.8608 39.7084 23.5948 40.1746 22.4614 40.1513C21.2118 40.124 18.8082 39.4445 17.0213 38.8634C14.8297 38.1511 13.0879 37.7738 13.2397 36.5638C13.3176 35.9336 14.1858 35.2896 15.8428 34.6306Z" fill="#ded0f1"/>
</g>
<defs>
<linearGradient id="paint0_linear_2327_780" x1="35" y1="0.525" x2="35" y2="70" gradientUnits="userSpaceOnUse">
<stop stop-color="#10352B"/>
<stop offset="1" stop-color="#10352B"/>
</linearGradient>
<clipPath id="clip0_2327_780">
<rect width="70" height="70" fill="red"/>
</clipPath>
</defs>
</svg>
