<svg width="1535" height="863" viewBox="0 0 1535 863" fill="none" xmlns="http://www.w3.org/2000/svg">
<g clip-path="url(#clip0_774_20513)">
<path d="M0 0C506.55 0 1013.1 0 1535 0C1535 284.79 1535 569.58 1535 863C1028.45 863 521.9 863 0 863C0 578.21 0 293.42 0 0Z" fill="#86DA8C"/>
<path d="M816.268 0C1053.45 0 1290.63 0 1535 0C1535 284.79 1535 569.58 1535 863C1278.03 863 1021.06 863 756.307 863C758.682 860.231 758.682 860.231 761.104 857.406C761.859 855.158 762.342 853.316 762.703 851.014C762.876 850.018 762.876 850.018 763.052 849.002C763.299 847.551 763.541 846.1 763.778 844.647C764.852 838.125 765.986 832.417 769.087 826.517C770.001 824.409 770.154 822.787 770.248 820.499C770.479 816.169 771.778 812.56 773.382 808.587C774.771 805.108 775.964 801.621 777.038 798.031C777.304 797.149 777.57 796.266 777.845 795.357C778.365 793.611 778.874 791.862 779.368 790.109C780.889 785.068 782.62 781.946 786.27 778.172C788.294 775.724 788.442 773.646 788.836 770.507C789.004 769.386 789.177 768.265 789.355 767.145C789.439 766.599 789.523 766.052 789.61 765.489C790.707 759.221 793.002 753.847 796.787 748.76C799.472 744.766 799.689 741.213 799.579 736.497C799.572 735.905 799.565 735.313 799.557 734.703C799.539 733.253 799.51 731.803 799.479 730.354C800.007 730.09 800.535 729.826 801.078 729.555C801.342 730.873 801.606 732.192 801.878 733.55C802.669 731.572 802.669 731.572 803.477 729.555C804.571 733.396 804.264 737.219 804.104 741.171C804.024 745.293 804.562 748.27 806.675 751.929C808.355 753.449 809.804 754.611 811.671 755.824C812.328 756.291 812.328 756.291 812.999 756.767C816.184 758.914 818.817 759.937 822.664 759.919C824.638 758.889 826.097 757.975 827.811 756.623C830.729 754.438 833.59 752.366 836.805 750.63C839.076 749.221 839.412 748.826 840.553 746.235C840.813 744.62 841.073 743.005 841.321 741.388C842.3 735.49 843.917 729.918 845.753 724.237C846.978 720.35 847.769 716.696 848.077 712.628C848.248 711.176 848.248 711.176 849.047 709.578C849.513 705.305 849.016 702.795 847.098 698.94C845.568 695.856 844.836 693.588 844.75 690.15C844.373 682.423 839.086 672.914 833.429 667.692C832.26 666.713 831.061 665.769 829.86 664.83C829.517 664.457 829.175 664.084 828.823 663.7C826.93 661.938 824.811 660.807 822.564 659.536C817.934 656.905 817.934 656.905 817.068 656.04C808.629 655.199 799.893 655.214 792.284 659.236C791.617 659.575 790.95 659.914 790.263 660.263C785.596 662.844 781.787 666.087 777.918 669.74C776.294 671.222 776.294 671.222 774.695 672.021C775.283 667.368 779.436 664.613 782.9 661.863C792.484 654.768 803.553 651.935 815.416 653.171C817.867 653.643 817.867 653.643 819.466 654.442C820.205 648.03 820.623 643.594 817.867 637.661C817.745 635.815 817.666 633.967 817.618 632.117C817.373 627.484 816.705 625.111 813.626 621.692C811.432 619.085 810.009 616.074 808.433 613.068C807.623 611.364 807.623 611.364 806.675 610.493C804.247 610.264 801.82 610.134 799.386 609.996C797.081 609.693 797.081 609.693 794.682 608.095C788.296 607.036 782.22 609.067 776.294 611.292C776.031 611.555 775.767 611.819 775.495 612.091C774.313 612.155 773.13 612.202 771.947 612.241C762.463 613.179 755.011 621.037 748.313 627.273C747.785 628.064 747.257 628.855 746.714 629.67C746.186 629.407 745.658 629.143 745.115 628.871C745.252 628.361 745.389 627.85 745.53 627.324C746.161 624.96 746.787 622.596 747.413 620.231C747.629 619.428 747.844 618.625 748.066 617.798C750.039 610.32 751.614 603.107 751.71 595.36C751.864 591.216 752.465 588.057 754.559 584.423C757.876 578.643 758.586 572.45 759.618 565.96C760.666 559.406 762.07 553.611 764.852 547.565C765.103 546.999 765.354 546.432 765.612 545.849C767.325 542.057 769.235 538.395 771.216 534.736C771.474 534.258 771.733 533.78 771.999 533.288C772.631 532.12 773.263 530.953 773.896 529.786C774.418 529.787 774.94 529.788 775.477 529.788C788.161 529.806 800.845 529.819 813.528 529.828C819.662 529.832 825.796 529.837 831.929 529.846C837.274 529.854 842.619 529.859 847.963 529.861C850.795 529.862 853.626 529.865 856.457 529.871C859.614 529.877 862.771 529.877 865.928 529.877C866.872 529.88 867.815 529.883 868.787 529.886C869.644 529.884 870.5 529.883 871.383 529.882C872.13 529.883 872.878 529.884 873.647 529.884C875.461 529.903 875.461 529.903 877.029 528.987C884.493 528.594 892.015 529.124 899.467 529.572C900.163 529.611 900.858 529.649 901.575 529.689C902.199 529.727 902.823 529.765 903.465 529.803C905.078 529.898 905.078 529.898 906.61 528.987C909.048 529.063 911.47 529.188 913.905 529.337C921.247 529.707 928.591 529.97 935.943 530.06C937.064 530.077 938.185 530.101 939.306 530.133C947.778 530.364 952.607 529.237 959.197 524.04C968.849 513.451 965.968 496.045 965.706 482.714C965.771 481.043 965.771 481.043 966.57 480.243C966.815 476.527 966.815 476.527 965.771 473.052C965.694 471.687 965.666 470.32 965.665 468.953C965.664 468.126 965.663 467.298 965.662 466.445C965.665 465.577 965.668 464.708 965.671 463.813C965.668 462.965 965.665 462.118 965.662 461.245C965.666 457.394 965.745 453.63 966.227 449.807C966.782 446.761 966.782 446.761 965.771 444.285C965.694 442.172 965.662 440.079 965.668 437.966C965.665 437 965.665 437 965.663 436.016C965.66 433.884 965.662 431.753 965.665 429.621C965.664 428.137 965.664 426.652 965.663 425.168C965.661 422.053 965.663 418.937 965.667 415.822C965.671 411.843 965.669 407.863 965.664 403.884C965.661 400.816 965.662 397.747 965.664 394.679C965.665 393.213 965.664 391.747 965.662 390.281C965.66 388.221 965.663 386.162 965.668 384.103C965.666 383.505 965.664 382.907 965.663 382.291C965.677 378.697 965.934 375.2 966.389 371.634C966.693 368.851 966.686 366.076 966.67 363.279C966.674 362.722 966.677 362.165 966.68 361.59C966.675 359.105 966.563 357.164 965.771 354.789C965.696 353.584 965.667 352.376 965.665 351.168C965.663 350.418 965.662 349.668 965.66 348.896C965.664 348.072 965.667 347.248 965.671 346.399C965.673 345.534 965.674 344.669 965.676 343.778C965.721 334.815 965.987 325.859 966.286 316.902C966.474 311.17 966.617 305.441 966.645 299.706C966.654 298.137 966.654 298.137 966.663 296.536C966.744 294.131 966.744 294.131 965.771 292.461C965.748 290.591 965.781 288.721 965.84 286.852C965.857 286.296 965.874 285.74 965.891 285.168C965.928 283.99 965.967 282.813 966.008 281.635C966.07 279.841 966.124 278.047 966.177 276.253C966.214 275.108 966.251 273.963 966.289 272.818C966.324 271.778 966.358 270.738 966.394 269.666C966.57 266.891 966.57 266.891 967.038 264.573C967.147 264.019 967.257 263.466 967.37 262.895C967.106 262.632 966.842 262.368 966.57 262.096C966.51 260.678 966.504 259.258 966.521 257.839C966.531 256.515 966.531 256.515 966.541 255.165C966.551 254.222 966.561 253.279 966.57 252.308C967.542 234.3 967.542 234.3 960.752 218.422C954.483 213.534 948.791 211.617 940.978 211.705C940.363 211.708 939.748 211.711 939.115 211.714C937.157 211.724 935.2 211.738 933.242 211.755C930.657 211.776 928.073 211.792 925.488 211.805C924.591 211.815 924.591 211.815 923.676 211.825C922.251 211.831 920.826 211.797 919.401 211.755C919.137 211.491 918.874 211.227 918.602 210.956C916.952 210.875 915.3 210.851 913.649 210.849C912.121 210.848 912.121 210.848 910.563 210.846C910.029 210.848 909.494 210.85 908.943 210.851C907.332 210.856 905.722 210.851 904.111 210.846C902.575 210.848 902.575 210.848 901.007 210.849C900.07 210.85 899.133 210.851 898.168 210.852C895.349 210.908 895.349 210.908 892.319 211.412C891.495 211.525 890.67 211.638 889.82 211.755C889.557 211.491 889.293 211.227 889.021 210.956C887.379 210.875 885.734 210.851 884.09 210.849C883.061 210.848 882.032 210.847 880.972 210.846C880.429 210.848 879.887 210.85 879.328 210.851C877.721 210.856 876.114 210.851 874.507 210.846C868.407 210.852 862.379 211.092 856.298 211.573C853.319 211.793 850.385 211.861 847.398 211.855C846.432 211.857 845.467 211.859 844.472 211.861C842.151 211.767 840.116 211.435 837.854 210.956C836.623 210.886 835.39 210.851 834.157 210.856C833.553 210.854 832.949 210.852 832.327 210.849C830.503 210.894 830.503 210.894 828.261 211.755C826.725 211.767 825.188 211.728 823.654 211.658C822.76 211.619 821.866 211.581 820.945 211.541C820.012 211.496 819.079 211.451 818.117 211.405C817.175 211.363 816.232 211.322 815.261 211.279C812.932 211.175 810.603 211.067 808.274 210.956C808.652 210.344 809.03 209.732 809.42 209.101C810.757 206.815 811.511 204.699 812.271 202.166C812.568 201.309 812.865 200.452 813.17 199.569C814.213 195.103 814.534 190.573 813.07 186.184C812.849 183.741 812.849 181.295 812.821 178.843C812.786 177.853 812.786 177.853 812.75 176.844C812.706 172.554 813.438 169.973 815.53 166.267C816.922 163.143 816.78 159.84 816.818 156.469C816.852 155.075 816.888 153.682 816.927 152.289C816.953 151.323 816.953 151.323 816.979 150.338C817.081 148.379 817.436 146.544 817.867 144.632C818.146 140.722 818.088 137.115 816.968 133.345C816.062 129.786 816.413 126.458 816.868 122.858C816.937 122.31 817.006 121.761 817.077 121.197C817.397 118.958 817.739 116.946 818.683 114.882C819.696 112.02 819.734 109.301 819.769 106.302C819.79 105.393 819.79 105.393 819.81 104.467C819.853 102.54 819.885 100.613 819.916 98.6856C819.951 96.7586 819.989 94.8317 820.03 92.9047C820.056 91.7086 820.077 90.5124 820.094 89.3161C820.153 86.3463 820.428 83.6036 821.065 80.7065C821.206 76.2931 820.877 72.0931 820.316 67.7215C819.566 61.5702 819.181 55.4473 819.011 49.2531C818.885 45.7422 818.445 43.2168 817.068 39.9537C817.059 37.8717 817.059 37.8717 817.318 35.8085C817.397 35.1215 817.476 34.4344 817.558 33.7265C817.867 31.963 817.867 31.963 818.667 30.3648C818.882 27.3897 818.852 24.4072 818.867 21.4252C818.883 20.6027 818.9 19.7802 818.917 18.9327C818.981 13.8106 818.981 13.8106 817.455 8.99895C816.268 6.39259 816.268 6.39259 816.268 0Z" fill="#86DA8C"/>
<path d="M632.388 0C693.068 0 753.749 0 816.268 0C816.796 2.63694 817.323 5.27389 817.867 7.99074C818.396 9.32399 818.928 10.6562 819.466 11.9861C819.673 14.0507 819.673 14.0507 819.678 16.2281C819.68 17.0228 819.683 17.8174 819.685 18.6362C819.678 19.4577 819.672 20.2792 819.666 21.1255C819.672 21.9439 819.678 22.7623 819.685 23.6055C819.674 27.8005 819.464 31.2199 817.867 35.1593C817.66 37.6951 817.622 39.3964 818.649 41.7346C819.656 44.4643 819.791 46.8597 819.944 49.7642C819.975 50.3147 820.007 50.8653 820.039 51.4325C820.137 53.1828 820.227 54.9335 820.316 56.6843C820.408 58.4322 820.503 60.1799 820.601 61.9276C820.689 63.5153 820.771 65.1033 820.853 66.6913C821.047 69.2781 821.407 71.7628 821.865 74.3139C822.034 77.0729 822.065 79.7901 821.471 82.5028C820.944 85.3568 820.91 88.1772 820.868 91.0695C820.842 92.3128 820.815 93.5562 820.789 94.7995C820.751 96.7458 820.715 98.6921 820.684 100.638C820.652 102.526 820.611 104.414 820.568 106.302C820.562 106.88 820.555 107.459 820.548 108.055C820.469 111.296 819.986 113.719 818.667 116.665C818.168 119.159 817.932 121.677 817.667 124.206C817.585 124.872 817.502 125.538 817.417 126.224C816.991 130.192 817.194 132.862 818.667 136.642C818.851 138.717 818.851 138.717 818.816 140.687C818.811 141.339 818.806 141.991 818.801 142.663C818.667 144.632 818.667 144.632 818.273 146.387C817.906 148.411 817.781 150.239 817.727 152.289C817.708 152.968 817.688 153.648 817.669 154.348C817.635 155.752 817.61 157.157 817.594 158.562C817.479 162.098 817.204 164.716 815.45 167.824C813.401 171.471 813.476 174.739 813.62 178.843C813.628 179.518 813.635 180.193 813.643 180.889C813.695 183.696 813.774 185.897 814.669 188.581C815.327 195.244 814.639 202.957 810.584 208.443C809.836 209.291 809.836 209.291 809.073 210.156C812.22 210.314 815.368 210.461 818.517 210.606C819.412 210.651 820.307 210.696 821.229 210.742C822.516 210.8 822.516 210.8 823.829 210.859C825.016 210.915 825.016 210.915 826.227 210.973C828.36 211.059 828.36 211.059 830.659 210.156C834.421 209.89 838.158 210.161 841.901 210.556C848.503 211.207 855.506 211.554 862.068 210.556C865.018 210.159 867.826 210.053 870.801 210.05C871.585 210.049 871.585 210.049 872.385 210.048C873.477 210.048 874.57 210.049 875.662 210.052C877.341 210.057 879.019 210.052 880.698 210.047C882.279 210.049 882.279 210.049 883.893 210.05C885.34 210.052 885.34 210.052 886.817 210.053C889.021 210.156 889.021 210.156 889.82 210.956C891.687 210.699 893.552 210.431 895.417 210.156C897.279 210.086 899.143 210.052 901.007 210.05C902.031 210.049 903.055 210.048 904.111 210.047C904.635 210.049 905.16 210.051 905.701 210.052C907.321 210.057 908.942 210.052 910.563 210.047C912.09 210.049 912.09 210.049 913.648 210.05C914.58 210.051 915.512 210.052 916.471 210.053C918.602 210.156 918.602 210.156 919.401 210.956C921.381 210.987 923.34 210.969 925.319 210.921C926.555 210.903 927.791 210.886 929.027 210.87C930.975 210.84 932.922 210.806 934.868 210.758C945.445 210.51 953.654 211.451 961.773 218.946C969.531 228.128 967.458 243.751 967.34 254.954C967.334 255.829 967.327 256.704 967.32 257.605C967.306 258.786 967.306 258.786 967.292 259.991C967.294 262.062 967.294 262.062 967.823 263.875C968.169 265.293 968.169 265.293 967.37 266.891C967.236 268.786 967.151 270.685 967.089 272.584C967.07 273.146 967.052 273.707 967.033 274.286C966.994 275.473 966.958 276.661 966.924 277.848C966.87 279.669 966.808 281.489 966.745 283.309C966.709 284.462 966.674 285.615 966.639 286.768C966.59 288.347 966.59 288.347 966.54 289.958C966.387 292.386 966.387 292.386 967.37 294.059C967.44 295.94 967.455 297.824 967.445 299.706C967.44 300.559 967.44 300.559 967.436 301.43C967.394 307.164 967.219 312.893 967.028 318.624C966.723 327.881 966.487 337.135 966.47 346.399C966.467 347.223 966.463 348.047 966.459 348.896C966.462 350.02 966.462 350.02 966.464 351.168C966.465 351.814 966.466 352.461 966.467 353.127C966.509 354.946 966.509 354.946 967.37 357.186C967.448 359.226 967.481 361.24 967.47 363.279C967.473 363.818 967.476 364.356 967.479 364.912C967.474 367.759 967.329 370.527 966.97 373.352C966.561 376.924 966.457 380.434 966.467 384.027C966.465 384.671 966.464 385.315 966.463 385.979C966.459 388.084 966.461 390.19 966.464 392.295C966.464 393.773 966.463 395.25 966.462 396.728C966.461 399.814 966.462 402.901 966.466 405.988C966.471 409.93 966.468 413.871 966.463 417.812C966.46 420.86 966.461 423.908 966.463 426.956C966.464 428.409 966.463 429.861 966.461 431.314C966.459 433.35 966.462 435.385 966.467 437.421C966.465 438.012 966.464 438.602 966.462 439.211C966.476 442.831 966.764 446.326 967.277 449.911C967.37 451.477 967.37 451.477 966.57 453.874C966.495 455.33 966.466 456.789 966.464 458.247C966.463 459.097 966.462 459.948 966.461 460.824C966.464 461.711 966.467 462.599 966.47 463.513C966.467 464.403 966.464 465.294 966.461 466.211C966.462 467.061 966.463 467.91 966.464 468.785C966.465 469.565 966.466 470.345 966.467 471.148C966.444 473.065 966.444 473.065 967.37 474.65C967.47 477.497 967.47 477.497 967.37 480.243C967.106 480.507 966.842 480.771 966.57 481.043C966.52 482.337 966.523 483.634 966.548 484.929C966.991 516.675 966.991 516.675 959.74 524.133C957.104 526.358 954.476 528.258 951.38 529.786C950.852 530.05 950.325 530.313 949.781 530.585C947.454 530.665 945.147 530.697 942.82 530.691C942.119 530.692 941.419 530.693 940.697 530.694C939.207 530.694 937.717 530.693 936.227 530.689C933.981 530.685 931.736 530.689 929.49 530.694C922.433 530.696 915.469 530.61 908.443 529.879C906.586 529.634 906.586 529.634 905.01 530.585C903.865 530.598 902.719 530.557 901.575 530.488C900.879 530.45 900.183 530.411 899.466 530.371C898.724 530.326 897.981 530.282 897.215 530.236C886.026 528.845 886.026 528.845 875.43 530.585C874.082 530.659 872.732 530.683 871.383 530.681C870.526 530.682 869.67 530.683 868.787 530.685C867.844 530.682 866.9 530.679 865.928 530.676C864.937 530.676 863.946 530.676 862.926 530.676C860.206 530.676 857.485 530.672 854.765 530.666C851.923 530.661 849.082 530.661 846.241 530.66C840.858 530.657 835.476 530.651 830.093 530.643C823.966 530.634 817.839 530.629 811.712 530.625C799.107 530.617 786.501 530.603 773.896 530.585C773.469 531.439 773.042 532.292 772.602 533.171C771.465 535.444 770.329 537.716 769.192 539.988C768.912 540.548 768.632 541.107 768.344 541.684C767.779 542.813 767.213 543.942 766.647 545.07C762.773 552.799 760.952 559.954 759.768 568.532C758.937 574.543 757.855 580.165 754.608 585.372C752.784 588.875 752.831 592.231 752.709 596.122C752.471 601.393 751.503 606.436 750.411 611.591C750.244 612.389 750.076 613.186 749.904 614.007C748.808 619.042 747.472 623.961 745.914 628.871C746.178 628.608 746.442 628.344 746.713 628.072C762.967 612.323 762.967 612.323 771.247 611.791C774.937 611.457 777.723 610.482 781.091 608.894C785.575 607.288 789.948 606.734 794.682 607.296C795.474 607.824 796.265 608.351 797.081 608.894C798.659 609.03 800.243 609.107 801.828 609.144C806.409 609.475 806.409 609.475 808.673 611.342C809.32 612.607 809.964 613.874 810.591 615.15C810.848 615.673 811.106 616.196 811.371 616.735C811.63 617.291 811.889 617.846 812.155 618.418C813.128 620.187 814.273 621.479 815.619 622.978C818.566 626.698 818.37 630.448 818.498 635.045C818.648 637.369 818.904 638.758 819.916 640.807C822.143 645.549 821.015 649.701 819.466 654.442C818.428 654.303 817.39 654.164 816.321 654.02C804.239 652.702 792.591 655.239 782.887 662.713C780.279 664.878 777.852 667.188 775.495 669.624C775.759 669.888 776.022 670.151 776.294 670.423C776.578 670.094 776.861 669.764 777.153 669.424C784.953 660.967 795.463 655.362 806.949 654.745C814.805 654.546 819.692 655.701 825.862 660.834C826.915 661.46 826.915 661.46 827.989 662.098C830.272 663.482 831.444 665.111 833.057 667.227C833.684 667.82 834.31 668.413 834.956 669.025C841.32 675.688 845.031 682.973 845.518 692.132C846.005 695.462 847.495 698.13 848.981 701.119C850.248 704.145 850.2 706.339 849.846 709.578C849.582 710.105 849.319 710.633 849.047 711.176C848.848 712.472 848.669 713.771 848.497 715.071C847.639 720.505 846.034 725.613 844.394 730.848C843.007 735.344 841.986 739.72 841.467 744.409C840.788 747.557 839.563 749.667 836.952 751.573C836.31 751.921 835.667 752.269 835.006 752.628C831.286 754.704 827.999 757.078 824.678 759.742C821.777 761.149 820.159 760.749 817.068 759.919C814.987 758.871 813.147 757.599 811.271 756.224C810.783 755.893 810.294 755.562 809.791 755.222C806.332 752.738 804.696 750.532 803.477 746.335C803.227 743.808 803.247 741.33 803.327 738.794C803.337 738.133 803.348 737.472 803.359 736.792C803.387 735.178 803.43 733.565 803.477 731.952C802.949 732.743 802.421 733.534 801.878 734.349C801.35 733.031 800.822 731.712 800.279 730.354C800.325 731.184 800.371 732.014 800.419 732.87C800.743 741.202 799.667 746.515 794.632 753.377C790.839 759.615 789.568 766.81 789.148 774.012C788.226 776.888 787.198 778.094 785.235 780.343C781.36 784.959 780.008 789.611 778.543 795.378C776.856 801.722 775.042 807.726 772.304 813.706C771.201 816.643 771.141 819.394 770.992 822.502C770.663 824.896 769.916 826.47 768.793 828.602C765.9 834.707 765.278 841.082 764.421 847.722C763.452 854.095 761.974 857.889 757.107 862.201C756.843 862.465 756.579 862.728 756.307 863C755.082 863.077 753.853 863.099 752.625 863.098C751.424 863.101 751.424 863.101 750.199 863.103C749.308 863.101 748.418 863.098 747.5 863.096C746.094 863.097 746.094 863.097 744.659 863.098C742.045 863.099 739.43 863.097 736.816 863.093C734.001 863.089 731.186 863.09 728.372 863.091C723.491 863.091 718.61 863.089 713.729 863.084C706.673 863.078 699.616 863.076 692.559 863.075C681.111 863.073 669.663 863.068 658.215 863.06C647.092 863.053 635.968 863.047 624.845 863.044C624.159 863.044 623.474 863.043 622.768 863.043C619.331 863.042 615.894 863.041 612.457 863.04C583.924 863.032 555.39 863.018 526.857 863C527.609 861.59 528.366 860.181 529.124 858.774C529.545 857.989 529.966 857.205 530.399 856.396C531.421 854.616 532.445 853.084 533.752 851.513C536.118 848.363 536.86 844.799 537.918 841.054C539.239 837.044 541.165 833.451 543.124 829.729C544.334 827.267 545.189 824.912 545.994 822.297C547.063 819.134 548.087 817.621 550.741 815.605C555.964 811.524 558.244 804.996 559.317 798.606C559.422 797.706 559.527 796.805 559.635 795.878C560.032 792.496 560.429 790.504 562.833 788.037C565.232 786.289 565.232 786.289 566.831 786.289C567.157 785.417 567.157 785.417 567.49 784.528C568.398 782.37 569.469 780.5 570.678 778.498C573.691 773.077 575.194 767.357 576.816 761.413C578.813 754.097 581.275 746.149 587.467 741.341C596.008 734.486 600.289 722.032 603.6 711.959C607.825 699.472 607.825 699.472 612.201 696.942C614.799 695.994 614.799 695.994 616.398 695.994C616.7 695.02 616.7 695.02 617.007 694.027C618.174 690.694 619.586 687.52 621.045 684.307C622.959 680.08 624.782 675.857 626.442 671.522C627.947 667.872 629.752 665.278 632.469 662.432C637.46 657.177 642.817 651.253 644.63 644.154C646.162 638.71 649.592 635.604 653.559 631.727C658.951 626.228 662.579 620.495 666.265 613.741C669.278 608.292 672.707 603.465 676.576 598.599C681 593.002 684.676 587.03 688.351 580.927C691.293 576.097 694.218 571.684 698.045 567.517C699.885 565.341 701.456 563.013 703.042 560.65C711.007 548.877 711.007 548.877 716.008 546.295C718.698 544.44 719.091 542.482 720.131 539.425C721.199 536.572 722.091 534.27 724.578 532.364C726.354 531.607 728.052 531.046 729.924 530.585C730.452 530.321 730.98 530.058 731.523 529.786C731.02 529.853 730.518 529.92 729.999 529.989C726.175 530.444 722.828 530.581 718.999 529.992C708.657 528.849 697.762 529.96 687.383 530.304C685.38 530.37 683.378 530.429 681.375 530.488C680.769 530.51 680.162 530.532 679.538 530.554C676.481 530.64 673.735 530.509 670.763 529.786C666.647 529.472 666.647 529.472 662.768 530.585C660.671 530.665 658.595 530.697 656.497 530.691C655.845 530.693 655.192 530.694 654.519 530.695C652.339 530.697 650.158 530.692 647.978 530.685C647.23 530.683 646.482 530.68 645.711 530.678C641.674 530.664 637.637 530.642 633.6 530.615C630.054 530.592 626.508 530.582 622.962 530.581C618.425 530.578 613.889 530.55 609.352 530.506C607.596 530.492 605.84 530.487 604.085 530.49C601.607 530.492 599.132 530.464 596.655 530.429C595.927 530.436 595.199 530.444 594.448 530.451C588.003 530.305 584.116 527.489 579.351 523.378C574.071 517.456 573.905 511.511 573.423 503.819C573.347 501.822 573.347 501.822 572.427 500.22C572.404 498.777 572.436 497.333 572.496 495.891C572.531 495.02 572.566 494.149 572.602 493.252C572.643 492.338 572.684 491.424 572.727 490.482C572.762 489.583 572.797 488.684 572.833 487.758C573.145 480.396 573.145 480.396 573.707 476.907C574.238 474.695 574.238 474.695 573.226 473.052C573.15 471.667 573.126 470.28 573.125 468.893C573.123 468.011 573.12 467.13 573.118 466.221C573.12 465.25 573.121 464.278 573.123 463.277C573.122 462.257 573.12 461.237 573.119 460.186C573.115 457.382 573.117 454.579 573.119 451.775C573.121 448.841 573.119 445.906 573.118 442.972C573.117 438.039 573.118 433.106 573.122 428.174C573.127 422.478 573.125 416.783 573.121 411.087C573.117 406.195 573.117 401.304 573.119 396.412C573.12 393.492 573.12 390.571 573.118 387.651C573.115 384.389 573.119 381.128 573.123 377.866C573.121 376.903 573.12 375.939 573.118 374.946C573.137 367.645 573.137 367.645 573.683 364.234C574.241 362.026 574.241 362.026 573.226 360.382C573.155 359.226 573.132 358.067 573.136 356.909C573.136 355.814 573.136 355.814 573.136 354.697C573.14 353.893 573.144 353.09 573.148 352.262C573.15 351.417 573.151 350.572 573.152 349.702C573.155 347.86 573.16 346.019 573.166 344.178C573.177 341.254 573.182 338.33 573.186 335.406C573.196 328.133 573.216 320.86 573.235 313.587C573.251 307.459 573.263 301.331 573.271 295.204C573.276 292.341 573.286 289.479 573.297 286.616C573.315 278.138 573.25 269.735 572.522 261.285C572.437 259.15 572.618 257.719 573.226 255.704C573.264 254.09 573.257 252.476 573.22 250.862C573.207 249.91 573.193 248.958 573.18 247.977C573.145 245.998 573.103 244.019 573.055 242.04C572.949 233.111 573.471 224.258 579.619 217.304C583.878 213.173 587.092 210.675 593.213 210.706C594.326 210.785 594.326 210.785 595.462 210.865C598.118 211.026 598.118 211.026 601.168 210.568C605.713 210.042 610.228 210.042 614.799 210.05C615.692 210.05 616.585 210.049 617.505 210.048C619.378 210.047 621.252 210.049 623.125 210.052C626.005 210.057 628.886 210.052 631.766 210.047C633.589 210.048 635.412 210.049 637.235 210.05C638.533 210.048 638.533 210.048 639.857 210.045C640.65 210.048 641.443 210.05 642.26 210.053C642.96 210.054 643.661 210.054 644.383 210.055C645.979 210.156 645.979 210.156 646.779 210.956C647.95 211.035 649.124 211.06 650.298 211.062C651.366 211.063 651.366 211.063 652.455 211.065C653.203 211.062 653.952 211.059 654.723 211.055C655.842 211.06 655.842 211.06 656.983 211.065C658.052 211.063 658.052 211.063 659.142 211.062C659.799 211.061 660.455 211.06 661.132 211.059C662.821 211.059 662.821 211.059 664.367 210.156C668.795 209.972 668.795 209.972 670.763 210.956C672.041 211.032 673.321 211.058 674.601 211.059C675.399 211.061 676.196 211.064 677.018 211.067C677.882 211.065 678.745 211.063 679.635 211.062C680.96 211.063 680.96 211.063 682.311 211.064C684.18 211.065 686.049 211.063 687.918 211.06C690.791 211.055 693.663 211.06 696.535 211.065C698.347 211.064 700.159 211.063 701.971 211.062C702.836 211.063 703.701 211.065 704.593 211.067C705.388 211.064 706.183 211.062 707.002 211.059C707.706 211.058 708.409 211.058 709.134 211.057C710.736 211.133 710.736 211.133 711.536 210.156C713.992 210.072 716.426 210.045 718.882 210.057C720.042 210.058 720.042 210.058 721.225 210.06C728.885 210.099 736.53 210.424 744.183 210.727C751.352 210.979 758.436 210.874 765.593 210.411C767.293 210.302 768.996 210.225 770.698 210.156C770.962 210.42 771.225 210.684 771.497 210.956C772.627 211.08 773.763 211.156 774.898 211.208C775.581 211.242 776.264 211.275 776.967 211.31C778.044 211.357 778.044 211.357 779.142 211.405C779.863 211.44 780.584 211.474 781.327 211.51C783.114 211.595 784.9 211.676 786.687 211.755C786.63 211.231 786.572 210.708 786.513 210.169C786.104 206.153 785.87 202.257 785.988 198.22C786.015 191.131 784.738 185.305 780.591 179.492C777.109 174.413 777.251 169.802 777.094 163.81C776.414 156.753 775.621 151.832 770.354 146.755C767.209 142.974 766.682 138.078 765.651 133.395C763.934 126.187 762.288 120.666 757.959 114.645C753.89 108.465 752.143 100.488 749.911 93.4917C749.018 96.539 748.177 99.5868 747.422 102.672C745.881 108.912 744.425 114.765 741.258 120.41C740.166 122.557 739.51 124.697 738.819 127.003C737.45 131.368 735.37 134.681 732.807 138.44C731.081 141.395 730.357 144.322 729.687 147.657C729.125 149.427 729.125 149.427 726.726 151.025C725.429 151.1 724.129 151.129 722.829 151.125C719.73 151.321 719.73 151.321 717.461 153.266C716.463 154.992 716.463 154.992 715.718 156.768C714.734 158.217 714.734 158.217 712.976 158.91C705.07 159.284 695.254 154.13 689.464 149.02C686.674 146.031 685.043 142.291 683.38 138.602C681.848 135.634 680.413 134.048 677.958 131.847C678.858 129.15 679.358 128.818 681.606 127.253C686.651 123.592 691.035 120.056 694.463 114.817C696.139 112.731 698.277 111.41 700.528 109.994C704.144 106.619 703.791 101.542 703.966 96.9252C703.991 96.0888 704.016 95.2524 704.041 94.3906C704.088 93.1082 704.088 93.1082 704.135 91.7999C704.21 89.7004 704.278 87.6008 704.341 85.5009C703.813 85.5009 703.286 85.5009 702.742 85.5009C702.751 86.5227 702.761 87.5446 702.77 88.5973C702.778 89.9624 702.785 91.3275 702.792 92.6926C702.799 93.3632 702.805 94.0337 702.812 94.7246C702.856 105.872 702.856 105.872 700.781 108.609C700.307 108.943 699.833 109.278 699.344 109.623C698.837 110.007 698.33 110.391 697.808 110.787C697.326 111.145 696.843 111.502 696.346 111.87C694.542 113.583 692.814 115.288 691.253 117.227C687.363 121.997 682.758 125.561 677.89 129.272C676.265 130.492 676.265 130.492 674.76 131.847C667.049 132.397 659.185 131.333 651.541 130.383C649.813 130.192 649.813 130.192 647.428 130.449C642.79 130.037 639.523 125.394 636.385 122.258C635.44 121.471 634.49 120.689 633.537 119.911C629.971 116.871 627.92 113.525 626.142 109.223C624.953 106.431 623.55 104.244 621.645 101.882C616.912 96.0118 613.813 90.8487 614 83.1037C614.129 82.6064 614.259 82.1092 614.392 81.5969C614.803 79.894 614.924 78.3874 614.968 76.6393C615.649 56.4107 615.649 56.4107 621.195 50.3417C623.88 48.9999 626.884 49.1339 629.84 48.9433C630.485 48.8887 631.131 48.8341 631.796 48.7779C635.636 48.5327 638.142 48.5034 641.182 51.1407C642.532 52.874 643.744 54.5493 644.93 56.3847C647.227 59.9322 647.227 59.9322 649.976 63.1269C650.284 58.2036 650.053 53.9069 647.578 49.5426C646.902 48.8998 646.226 48.2571 645.529 47.5948C642.37 43.9029 643.021 39.1243 642.931 34.51C642.525 25.4012 640.867 18.7966 636.339 10.9459C635.247 8.97896 634.411 6.93527 633.587 4.84439C633.348 4.24386 633.109 3.64334 632.863 3.02462C632.388 1.59815 632.388 1.59815 632.388 0Z" fill="#BD9FE2"/>
<path d="M428.871 404.831C429.546 404.858 430.221 404.884 430.916 404.912C432.518 405.13 432.518 405.13 433.318 405.929C434.601 406.008 435.888 406.032 437.174 406.033C437.996 406.035 438.818 406.038 439.665 406.041C441.008 406.038 441.008 406.038 442.377 406.036C443.292 406.036 444.206 406.037 445.147 406.038C447.086 406.038 449.025 406.037 450.964 406.034C453.933 406.029 456.902 406.034 459.871 406.039C461.751 406.038 463.632 406.037 465.512 406.036C466.403 406.037 467.293 406.039 468.21 406.041C469.04 406.038 469.869 406.035 470.724 406.033C471.453 406.032 472.182 406.032 472.933 406.031C474.772 405.936 476.324 405.633 478.089 405.13C482.695 404.342 485.574 404.996 489.431 407.677C490.726 408.677 492.01 409.692 493.279 410.724C493.741 411.066 494.204 411.408 494.681 411.76C498.101 414.366 500.441 417.624 502.872 421.112C503.639 422.101 503.639 422.101 504.421 423.11C505.401 425.413 505.665 427.275 505.233 429.755C502.776 435.382 496.19 439.407 490.787 441.913C487.994 442.851 485.186 443.324 482.286 443.786C474.18 445.099 466.541 447.749 461.25 454.373C458.25 458.11 455.411 459.112 450.938 460.61C446.645 462.16 442.705 464.418 438.714 466.609C437.977 467.011 437.239 467.412 436.479 467.826C426.907 473.075 426.907 473.075 419.077 480.543C413.761 486.607 407.379 490.947 399.846 493.84C395.53 495.831 392.508 498.536 389.446 502.118C386.235 505.75 382.993 508.734 378.953 511.407C379.984 511.525 379.984 511.525 381.036 511.644C397.53 513.73 397.53 513.73 403.484 518.452C407.297 521.429 411.457 523.239 415.879 525.141C417.424 525.817 418.968 526.494 420.51 527.173C421.186 527.465 421.861 527.757 422.557 528.057C427.985 530.623 431.107 534.036 434.917 538.576C435.466 539.215 436.015 539.855 436.581 540.514C441.62 546.552 447.101 553.545 446.959 561.752C446.953 562.344 446.947 562.936 446.94 563.545C446.93 564.156 446.92 564.766 446.909 565.395C446.77 570.026 446.77 570.026 447.708 574.534C447.783 576.014 447.812 577.497 447.808 578.979C447.81 579.755 447.812 580.53 447.815 581.329C447.708 583.324 447.708 583.324 446.909 584.922C446.381 584.922 445.854 584.922 445.31 584.922C441.777 580.63 439.741 576.06 437.665 570.938C435.671 566.07 433.602 561.482 430.919 556.954C430.392 555.811 429.873 554.663 429.37 553.508C428.334 551.436 427.916 550.686 425.923 549.413C423.599 548.88 423.599 548.88 420.676 548.814C417.613 548.527 416.342 547.461 414.18 545.318C411.842 543.073 410.51 542.177 407.235 542.172C406.065 542.269 404.898 542.4 403.737 542.571C402.797 542.703 401.857 542.835 400.889 542.971C400.246 543.103 399.603 543.234 398.94 543.37C398.94 543.898 398.94 544.425 398.94 544.968C399.748 544.705 400.556 544.441 401.389 544.169C404.479 543.334 406.91 542.87 410.133 543.37C411.917 544.669 413.509 546.047 415.092 547.584C417.532 549.09 418.863 549.185 421.669 549.473C424.311 549.889 425.691 550.129 427.593 552.039C428.831 554.011 429.843 555.99 430.819 558.103C431.184 558.829 431.549 559.554 431.925 560.301C432.955 562.368 433.941 564.451 434.917 566.543C435.588 567.923 435.588 567.923 436.272 569.331C437.745 572.446 439.018 575.581 440.163 578.829C441.278 581.638 442.493 583.496 444.51 585.721C443.469 587.893 442.307 589.868 440.963 591.864C439.446 594.226 438.521 596.356 437.765 599.056C436.634 602.731 434.948 604.325 431.719 606.497C431.243 606.819 430.767 607.142 430.276 607.474C426.625 609.784 426.625 609.784 424.355 609.375C423.883 609.216 423.411 609.058 422.925 608.894C424.896 617.342 424.896 617.342 428.321 625.275C430.059 628.587 431.001 630.673 430.12 634.465C426.083 640.854 420.16 647.033 413.331 650.446C412.803 650.446 412.275 650.446 411.732 650.446C411.732 650.974 411.732 651.501 411.732 652.044C419.919 648.004 425.049 643.589 430.12 636.063C432.177 638.119 432.052 639.086 432.168 641.956C432.129 646.124 431.261 648.437 428.971 651.894C425.853 656.634 425.512 660.469 425.535 666.072C425.231 670.016 424.137 672.562 421.138 675.177C420.474 675.635 419.811 676.094 419.127 676.566C415.25 679.502 413.1 682.566 410.645 686.717C407.972 690.966 404.456 693.924 400.389 696.792C397.198 699.099 395.946 701.304 394.143 704.783C391.272 709.277 391.272 709.277 388.475 710.024C386.504 710.201 384.579 710.244 382.601 710.227C381.269 710.246 379.938 710.268 378.607 710.292C377.662 710.303 377.662 710.303 376.698 710.314C374.472 710.394 372.344 710.758 370.159 711.176C365.513 711.734 362.28 711.359 358.42 708.638C355.968 706.709 353.528 704.771 351.121 702.785C350.671 702.416 350.22 702.046 349.756 701.665C346.776 699.135 344.178 696.887 343.533 692.889C343.394 691.101 343.362 689.346 343.376 687.553C343.38 686.916 343.384 686.278 343.388 685.621C343.63 677.371 346.827 670.006 352.57 664.03C354.378 662.541 356.188 661.301 358.167 660.035C348.213 663.697 338.845 667.5 329.673 672.876C327.537 674.103 325.402 675.192 323.189 676.266C319.148 678.457 316.393 681.899 313.449 685.343C311.797 687.204 311.797 687.204 310.198 688.003C309.083 688.066 307.966 688.113 306.85 688.152C297.32 689.039 289.229 693.409 282.825 700.323C280.362 702.624 277.927 704.199 274.971 705.782C274.448 706.065 273.924 706.348 273.385 706.64C269.224 708.757 265.665 709.278 260.989 709.378C258.818 709.424 258.818 709.424 256.783 711.326C256.206 712.067 255.629 712.809 255.034 713.573C251.766 717.326 249.279 718.586 244.291 719.117C238.662 719.8 236.461 721.532 232.648 725.559C221.25 737.18 221.25 737.18 212.805 739.78C209.864 740.893 207.555 742.515 205.066 744.387C201.742 746.871 198.787 748.432 194.723 749.431C188.496 751.061 184.424 754.816 179.586 758.85C173.652 763.723 169.119 765.775 161.51 766.596C156.698 767.623 153.983 771.209 150.902 774.802C148.008 777.3 144.886 778.313 141.352 779.699C137.62 781.357 135.666 783.976 133.213 787.138C130.663 789.779 128.002 790.082 124.469 790.784C119.798 791.77 117.405 793.155 114.675 797.176C114.128 798.019 113.581 798.861 113.017 799.729C108.217 806.185 100.751 810.448 93.1643 812.824C88.9973 814.128 85.0813 816.076 81.1971 818.052C79.1485 819.051 79.1485 819.051 77.5495 819.051C77.3228 819.523 77.0961 819.994 76.8625 820.48C74.1527 825.73 71.2988 827.944 65.7072 829.988C60.1143 832.041 57.8134 835.14 54.5801 840.02C52.0151 843.136 49.3114 843.933 45.5703 845.202C42.063 846.69 39.6802 849.03 36.9791 851.666C31.9967 856.491 31.9967 856.491 29.1467 856.898C28.449 856.884 27.7513 856.871 27.0324 856.857C23.2453 857.038 21.5901 857.787 18.7378 860.253C14.8337 863.386 11.7041 863.341 6.92364 863.172C5.92352 863.153 5.92352 863.153 4.90318 863.134C3.2685 863.102 1.63418 863.053 3.00407e-05 863C-0.109679 818.365 -0.19425 773.731 -0.244928 729.096C-0.250927 723.831 -0.257132 718.566 -0.26347 713.3C-0.264728 712.252 -0.26598 711.204 -0.267276 710.124C-0.288169 693.133 -0.325988 676.143 -0.370041 659.153C-0.414843 641.729 -0.441539 624.306 -0.451287 606.882C-0.457881 596.124 -0.478765 585.366 -0.51765 574.608C-0.542937 567.239 -0.550685 559.869 -0.544439 552.5C-0.541356 548.243 -0.546165 543.987 -0.571765 539.73C-0.595009 535.837 -0.596379 531.945 -0.579914 528.051C-0.577878 526.639 -0.584064 525.227 -0.599043 523.815C-0.618164 521.902 -0.607978 519.991 -0.59021 518.078C-0.602812 517.524 -0.615435 516.969 -0.628418 516.398C-0.595751 514.853 -0.595735 514.853 3.00407e-05 512.206C2.35592 510.325 2.35592 510.325 4.79691 509.01C5.5939 508.174 6.3789 507.327 7.14538 506.463C9.95632 503.978 12.1007 503.99 15.7897 503.966C24.955 503.738 33.2193 499.193 40.7048 494.121C44.3489 491.801 48.1221 490.99 52.3159 490.132C62.7252 488.167 62.7252 488.167 71.7033 482.94C75.0501 480.439 77.236 479.945 81.397 479.894C88.9885 479.721 93.9058 475.69 99.8693 471.357C105.18 467.797 108.758 467.236 114.946 468.01C122.017 468.739 129.091 466.265 134.703 461.924C136.002 460.625 137.146 459.286 138.31 457.869C140.621 456.714 142.532 457.21 145.105 457.37C154.359 457.637 162.651 453.442 170.689 449.229C177.293 445.834 183.744 445.67 191.024 446.082C196.31 446.261 198.818 444.279 202.684 440.955C208.109 436.949 215.656 437.843 222.055 438.392C229.53 439 235.917 437.663 243.042 435.495C243.893 435.254 244.744 435.013 245.621 434.765C249.505 433.535 251.803 432.344 254.665 429.443C258.757 425.754 262.765 425.874 268.075 425.906C268.942 425.887 269.808 425.867 270.7 425.847C276.939 425.746 276.939 425.746 279.818 426.705C283.923 427.316 286.158 426.459 289.811 424.508C298.203 420.106 306.014 418.438 315.345 418.774C319.298 418.867 321.671 418.131 325.076 416.274C328.56 414.897 332.287 415.091 335.994 414.941C338.68 414.742 340.863 414.295 343.426 413.521C347.978 412.243 352.324 412.094 357.017 411.972C362.822 411.82 368.167 411.259 373.807 409.875C380.963 408.137 392.885 405.7 399.74 409.126C402.699 409.384 405.665 409.385 408.634 409.425C409.858 409.47 409.858 409.47 411.107 409.516C416.134 409.574 419.083 408.99 423.159 406.031C425.077 404.765 426.607 404.697 428.871 404.831Z" fill="#DBF4DE"/>
<path d="M1241.14 444.984C1241.82 445.281 1242.49 445.577 1243.19 445.883C1244.52 446.17 1245.85 446.434 1247.19 446.682C1249.35 447.086 1251.16 447.469 1253.18 448.33C1256.42 449.545 1259.74 449.669 1263.18 449.878C1264.23 449.943 1264.23 449.943 1265.3 450.009C1269.66 450.154 1272.07 449.516 1275.97 447.481C1279.12 447.041 1281.72 447.248 1284.71 448.33C1288.38 449.451 1292.49 449.215 1295.96 447.481C1312.6 446.173 1329.43 448.262 1345.44 452.75C1366.94 458.922 1366.94 458.922 1389.06 458.269C1392.2 457.652 1395.3 457.592 1398.49 457.519C1399.14 457.483 1399.78 457.446 1400.45 457.409C1404.42 457.336 1406.57 457.841 1409.75 460.279C1414.14 463.515 1418.06 463.112 1423.32 462.813C1432.03 462.558 1440.09 463.171 1448.63 464.778C1450.07 465.028 1451.52 465.196 1452.97 465.351C1458.41 465.968 1458.41 465.968 1460.46 468.179C1460.92 468.765 1461.38 469.351 1461.85 469.955C1463.43 471.769 1464.56 472.919 1466.99 473.283C1469.55 473.35 1472.08 473.231 1474.63 473.097C1481.49 472.812 1487.08 474.628 1493.43 477.047C1495.78 477.831 1496.92 477.875 1499.33 477.699C1510.73 477.103 1510.73 477.103 1513.84 479.238C1514.75 480.4 1515.64 481.576 1516.52 482.765C1519.67 485.506 1524.04 485.005 1528.04 485.009C1531 485.038 1531 485.038 1535 485.837C1535 594.215 1535 702.594 1535 814.256C1529.75 811.631 1529.75 811.631 1528.2 809.312C1523.19 803.17 1515.47 799.938 1507.92 798.275C1502.18 796.956 1499.51 794.714 1495.83 790.284C1493.81 789.277 1492.23 789.541 1490.02 789.659C1483.1 789.977 1483.1 789.977 1480.67 788.589C1479.69 787.387 1479.69 787.387 1478.24 784.69C1476.79 782.015 1476.79 782.015 1475.04 779.896C1472.33 779.435 1470.77 779.673 1468.24 780.745C1465.47 781.783 1464.25 781.703 1461.45 780.695C1459.93 779.155 1458.6 777.554 1457.3 775.829C1454.56 772.943 1451.47 772.594 1447.66 772.205C1443.01 771.442 1440.74 769.406 1437.44 766.181C1433.91 762.898 1429.16 762.766 1424.59 761.951C1416.06 760.354 1408.62 757.077 1400.78 753.491C1398.5 752.461 1396.2 751.489 1393.89 750.53C1393.15 750.217 1392.4 749.904 1391.63 749.581C1390.22 749.022 1388.8 748.504 1387.36 748.033C1382.35 746.335 1379.72 744.042 1376.46 739.883C1373.99 737.072 1370.65 737.26 1367.11 736.846C1359.3 735.842 1353.12 734.59 1346.66 730.001C1340.94 726.323 1335.15 724.622 1328.38 724.46C1322.66 724.261 1318.93 722.574 1313.97 719.828C1311.07 718.328 1308.27 717.335 1305.15 716.37C1298.45 714.258 1292.04 711.419 1286.13 707.591C1283.74 706.258 1281.56 705.583 1278.92 704.889C1277.95 704.629 1276.98 704.368 1275.98 704.1C1275.47 703.967 1274.96 703.833 1274.44 703.696C1266.58 701.633 1258.81 699.444 1251.14 696.742C1248.92 696.037 1246.84 695.631 1244.54 695.294C1241.26 694.763 1239.62 693.572 1237.09 691.448C1233.97 689.029 1232.03 688.573 1228.08 688.982C1226.96 689.128 1225.84 689.275 1224.72 689.423C1221.92 689.718 1220.27 689.737 1217.74 688.43C1216.48 687.397 1215.22 686.347 1213.98 685.281C1210.42 682.978 1206.49 683.566 1202.42 684.007C1202.84 684.491 1203.27 684.975 1203.7 685.474C1210.12 693.082 1212.66 699.053 1212.37 709.125C1211.61 715.155 1208.54 719.233 1204.02 723.162C1201.35 724.195 1201.35 724.195 1198.47 724.91C1194.39 725.942 1194.39 725.942 1190.4 727.235C1187.77 728.035 1185.57 728.169 1182.83 728.156C1181.53 728.162 1181.53 728.162 1180.21 728.168C1177.63 727.956 1177.63 727.956 1175.29 727.148C1172.33 726.196 1169.84 726.281 1166.74 726.308C1159.62 726.092 1155.66 723.163 1150.45 718.367C1149.74 717.775 1149.04 717.183 1148.31 716.572C1140.85 710.218 1134.37 703.131 1132.31 693.396C1131.12 688.257 1129.17 684.974 1125.35 681.32C1124.07 680.012 1124.07 680.012 1124.07 678.414C1129.07 679.842 1132.7 681.856 1135.86 686.005C1139.32 690.27 1144.47 691.579 1149.65 692.797C1149.65 692.269 1149.65 691.742 1149.65 691.199C1148.84 691.133 1148.04 691.067 1147.2 690.999C1142.46 690.291 1139.14 688.24 1136.26 684.506C1133.69 681.259 1130.54 679.749 1126.86 677.98C1124.57 676.644 1123.63 676.004 1122.47 673.619C1122.14 670.983 1122.17 668.381 1122.22 665.728C1122.23 664.983 1122.23 664.238 1122.24 663.471C1122.34 657.43 1122.95 651.595 1124.07 645.651C1123.24 645.188 1123.24 645.188 1122.4 644.715C1121.68 644.299 1120.96 643.883 1120.22 643.454C1119.51 643.046 1118.79 642.638 1118.06 642.218C1113.85 639.332 1112.37 635.305 1111.28 630.469C1111.43 628.022 1111.43 628.022 1112.08 625.675C1112.34 624.669 1112.6 623.664 1112.88 622.628C1113.02 622.084 1113.17 621.54 1113.32 620.98C1113.69 619.228 1113.73 617.622 1113.77 615.836C1114.2 611.649 1116.35 609.186 1118.9 605.951C1121.83 602.148 1124.17 597.939 1126.58 593.796C1130.54 587.13 1130.54 587.13 1134.87 585.992C1135.59 585.886 1136.32 585.78 1137.06 585.671C1140.8 585.074 1144.39 584.289 1148.05 583.324C1142.05 583.138 1133.67 583.558 1129 587.875C1128.01 589.509 1127.25 591.175 1126.47 592.913C1125.58 594.245 1124.66 595.559 1123.72 596.858C1121.1 600.56 1118.53 604.288 1116.07 608.095C1115.65 608.699 1115.23 609.302 1114.79 609.924C1113.37 612.674 1113.14 615.064 1112.83 618.133C1112.16 624.531 1112.16 624.531 1110.48 627.273C1107.4 626.066 1105.98 624.345 1104.08 621.679C1103.13 619.298 1103.13 619.298 1102.38 616.735C1102.13 615.9 1101.88 615.064 1101.63 614.204C1099.94 607.609 1098.99 601.428 1098.98 594.611C1098.96 593.873 1098.95 593.136 1098.92 592.376C1098.9 587.052 1098.9 587.052 1100.74 584.494C1102.48 583.324 1102.48 583.324 1105.08 582.075C1109.43 579.701 1111.76 575.34 1114.47 571.338C1115.62 569.718 1116.77 568.103 1117.92 566.493C1118.43 565.775 1118.94 565.057 1119.46 564.318C1122.18 560.9 1125.33 560.305 1129.36 559.255C1132.64 558.042 1133.97 555.827 1135.71 552.909C1136.81 551.063 1137.73 549.695 1139.26 548.164C1141.01 548.283 1142.76 548.479 1144.5 548.714C1150.15 549.237 1153.14 548.211 1157.65 544.968C1153.54 541.202 1149.43 538.552 1144.5 535.979C1138.14 532.572 1131.98 528.948 1125.89 525.066C1125.03 524.514 1124.16 523.962 1123.27 523.393C1122.26 522.716 1122.26 522.716 1121.23 522.026C1118.91 520.805 1116.91 520.451 1114.32 520.097C1109.81 519.462 1109.81 519.462 1108.08 518.599C1106.61 518.557 1105.15 518.525 1103.68 518.499C1098.79 518.142 1096.14 516.603 1092.34 513.623C1090.19 511.977 1088.01 510.864 1085.57 509.721C1084.17 509.047 1082.83 508.257 1081.5 507.462C1075.91 504.245 1069.88 500.979 1063.31 501.818C1062.52 502.082 1061.72 502.346 1060.91 502.617C1055.53 503.044 1051.57 502.112 1046.52 500.279C1044.3 499.486 1042.09 498.84 1039.82 498.222C1034.66 496.683 1031.27 494.242 1028.13 489.832C1026.9 487.378 1026.84 485.285 1027.33 482.64C1029.68 476.922 1032.9 472.133 1037.72 468.257C1038.19 467.852 1038.66 467.447 1039.15 467.03C1043.92 463.635 1048.56 464.129 1054.15 464.335C1061.58 464.504 1068.09 462.411 1074.84 459.402C1077.68 458.391 1080.58 458.048 1083.54 457.619C1088.96 456.839 1088.96 456.839 1093.64 454.173C1097.24 451.408 1101.63 451.787 1105.99 451.768C1110.26 451.714 1113.01 450.875 1116.87 449.079C1119.94 448.647 1122.71 448.895 1125.67 449.878C1129.61 450.186 1133.55 450.32 1137.5 450.456C1138.8 450.503 1140.1 450.558 1141.4 450.621C1143.29 450.712 1145.18 450.78 1147.07 450.843C1147.64 450.874 1148.22 450.906 1148.81 450.938C1151.86 451.014 1153.9 450.706 1156.44 449.087C1159.62 447.053 1162.31 447.079 1166.01 447.197C1166.64 447.203 1167.27 447.21 1167.92 447.216C1169.93 447.239 1171.93 447.284 1173.94 447.331C1175.93 447.365 1177.93 447.395 1179.93 447.42C1181.17 447.437 1182.41 447.46 1183.64 447.49C1189.42 447.594 1194.64 447.263 1200.02 445.084C1202.75 444.799 1204.21 444.649 1206.48 446.276C1209.84 448.013 1212.87 447.861 1216.61 447.831C1217.63 447.855 1217.63 447.855 1218.68 447.879C1223.15 447.876 1226.38 447.091 1230.34 445.001C1233.81 443.501 1237.63 443.724 1241.14 444.984Z" fill="#DBF4DE"/>
<path d="M1193.25 -0.196273C1193.84 -0.198117 1194.43 -0.199961 1195.04 -0.201861C1197.03 -0.206094 1199.02 -0.19892 1201.01 -0.191809C1202.44 -0.192506 1203.88 -0.193905 1205.32 -0.195947C1209.28 -0.199524 1213.23 -0.193123 1217.18 -0.185115C1221.45 -0.17822 1225.71 -0.180548 1229.98 -0.181762C1237.36 -0.182601 1244.75 -0.177582 1252.14 -0.168597C1262.82 -0.155614 1273.5 -0.151447 1284.18 -0.149438C1301.51 -0.14594 1318.84 -0.135302 1336.17 -0.120188C1353.01 -0.105521 1369.84 -0.0942074 1386.68 -0.0874135C1387.72 -0.0869937 1388.75 -0.0865738 1389.82 -0.0861412C1395.03 -0.0840556 1400.23 -0.082036 1405.44 -0.0800492C1448.62 -0.0634789 1491.81 -0.0340153 1535 0.000375375C1535 23.7329 1535 47.4654 1535 71.917C1526.09 76.3675 1526.09 76.3675 1522.36 76.3619C1518.63 76.5613 1516.83 77.0635 1514.21 79.9078C1512.86 81.4916 1511.54 83.0944 1510.22 84.7022C1508.2 85.7107 1506.78 85.5297 1504.52 85.5512C1498.12 86.0205 1493.15 88.8603 1487.65 91.9138C1486.45 92.572 1485.23 93.1939 1484.01 93.8073C1480.27 95.719 1477.54 97.909 1474.72 101.043C1472.25 103.432 1470.07 104.019 1466.69 104.13C1463.88 104.397 1463.16 104.589 1460.85 106.427C1459.03 108.633 1459.03 108.633 1457.53 110.978C1454.47 114.631 1449.98 115.717 1445.61 117.215C1444.76 117.516 1443.92 117.817 1443.05 118.128C1441.41 118.714 1439.76 119.295 1438.12 119.869C1435.22 120.888 1432.34 121.968 1429.47 123.058C1428.66 123.354 1427.85 123.651 1427.02 123.957C1424.61 125.497 1423.59 126.766 1421.92 129.051C1418.71 133.404 1416.09 134.569 1410.73 135.543C1407.7 136.714 1407.02 137.449 1405.03 139.888C1400.91 144.831 1394.69 150.185 1388.19 151.428C1386.92 151.459 1385.66 151.483 1384.39 151.5C1379.55 152.251 1375.2 155.639 1371.11 158.217C1369.31 159.335 1367.51 160.449 1365.71 161.563C1364.87 162.095 1364.02 162.626 1363.15 163.174C1360.91 164.492 1358.7 165.53 1356.32 166.557C1352.57 168.335 1351.37 170.471 1349.62 174.136C1347.02 178.936 1339.74 181.239 1334.73 182.82C1326.28 185.508 1319.14 190.731 1312.29 196.273C1306.52 200.891 1299.75 204.188 1293.26 207.66C1289.43 209.734 1285.72 211.966 1282.01 214.252C1281.47 214.588 1280.92 214.923 1280.35 215.269C1276.33 217.78 1273.26 220.172 1271.02 224.44C1267.53 230.193 1261.12 233.004 1255.18 235.727C1254.29 236.139 1253.4 236.551 1252.48 236.976C1250.14 237.905 1247.91 238.607 1245.49 239.273C1239.94 240.902 1237.4 243.611 1234.4 248.512C1235.27 247.985 1236.14 247.458 1237.04 246.914C1241.86 244.538 1246.62 244.48 1251.76 245.928C1257.16 247.975 1262.29 250.221 1264.78 255.704C1265.13 258.423 1265.11 261.107 1265.08 263.845C1265.08 264.56 1265.09 265.275 1265.1 266.012C1265.06 275.46 1262.29 281.544 1255.98 288.466C1255.44 289.085 1254.89 289.704 1254.33 290.342C1250.34 294.628 1246.02 297.519 1240.97 300.458C1237.78 302.431 1234.99 304.725 1232.17 307.191C1230.17 308.601 1228.83 309.05 1226.4 309.242C1225.11 308.698 1225.11 308.698 1223.8 308.143C1220.37 306.694 1216.99 306.579 1213.31 306.445C1208.7 306.272 1204.83 305.77 1200.46 304.195C1196.92 303.245 1193.28 303.312 1189.63 303.252C1187.23 302.849 1187.23 302.849 1185.78 301.426C1184.89 299.772 1184.15 298.161 1183.48 296.407C1181.44 291.657 1178.36 287.755 1175.23 283.672C1174.3 282.424 1173.37 281.175 1172.44 279.926C1171.77 279.043 1171.1 278.161 1170.44 277.279C1169.89 277.639 1169.35 277.998 1168.79 278.368C1161.23 282.574 1150.76 284.525 1142.36 282.173C1141.6 281.877 1140.84 281.58 1140.06 281.274C1138.71 281.068 1137.36 280.869 1136.01 280.675C1132.98 280.083 1132.12 279.727 1129.71 277.579C1128.23 275.158 1127.36 272.94 1126.48 270.262C1125.08 267.223 1122.85 264.843 1120.66 262.334C1118.65 259.683 1118.38 257.302 1118.3 254.033C1118.29 253.398 1118.27 252.763 1118.26 252.109C1118.21 249.211 1118.17 246.313 1118.15 243.415C1118.13 241.891 1118.1 240.368 1118.07 238.844C1118.01 236.635 1117.99 234.428 1117.97 232.219C1117.95 231.545 1117.93 230.872 1117.91 230.178C1117.92 225.535 1119.06 223.079 1122.13 219.594C1124.03 217.18 1124.47 214.52 1125.02 211.555C1125.27 210.362 1125.52 209.168 1125.78 207.975C1126.01 206.838 1126.24 205.701 1126.47 204.563C1127.75 198.469 1129.16 193.643 1132.86 188.582C1133.39 187.791 1133.92 187 1134.46 186.185C1127.88 186.213 1123.87 188.179 1118.47 191.778C1117.49 192.32 1116.51 192.854 1115.52 193.376C1113.34 194.696 1112.12 195.713 1110.38 197.472C1107.78 199.825 1105.69 200.15 1102.23 200.518C1094.36 201.421 1089.68 206.216 1083.98 211.302C1080.63 214.124 1077.44 215.655 1073.2 216.699C1068.98 217.842 1065.91 220.155 1062.49 222.74C1059.47 224.923 1057.07 225.826 1053.41 226.388C1050.24 226.977 1049.23 227.334 1047.21 229.918C1045.75 232.488 1045.75 232.488 1044.6 235.078C1043.13 237.66 1042 238.499 1039.32 239.723C1038.33 239.887 1037.34 240.052 1036.32 240.222C1033.04 240.918 1031.6 242.511 1029.38 244.967C1027.08 247.402 1025.48 249.044 1022.13 249.661C1017.77 249.753 1014.51 247.309 1011.34 244.517C1009.25 240.339 1009.85 233.21 1011.18 228.813C1012.2 226.774 1013.33 224.873 1014.54 222.942C1015.79 220.856 1017.02 218.756 1018.24 216.649C1018.56 216.1 1018.88 215.55 1019.21 214.984C1021.48 210.953 1022.58 207.19 1023.5 202.65C1024.6 199.015 1027.12 196.824 1029.73 194.175C1031.2 192.377 1032.62 190.544 1034.02 188.691C1034.81 187.655 1035.63 186.636 1036.48 185.651C1039.53 181.953 1040.19 178.15 1040.95 173.468C1041.92 170.364 1043.3 169.159 1045.72 167.007C1054.4 158.746 1060.33 149.805 1064.9 138.707C1066.47 134.908 1067.87 132.436 1071.15 129.8C1074.22 127.21 1076.89 124.594 1079.48 121.531C1081.09 119.634 1082.76 117.803 1084.44 115.966C1087.38 112.712 1090.15 109.364 1092.87 105.925C1094.55 103.795 1096.26 101.687 1097.98 99.585C1098.58 98.8536 1099.18 98.1223 1099.8 97.3688C1101.09 95.8054 1102.4 94.2535 1103.72 92.7117C1108.66 86.9192 1112.74 80.9308 1116.65 74.4141C1121.11 67.4507 1126.61 61.9688 1132.65 56.34C1136.97 52.2108 1140.01 48.1683 1142.78 42.8593C1144.9 39.3679 1147.94 37.4462 1151.25 35.1596C1158.99 29.4904 1158.99 29.4904 1163.85 21.4505C1165.67 16.5104 1167.64 15.0329 1172.25 12.6326C1175.76 10.3064 1178.02 7.02497 1180.49 3.68361C1184.08 -0.174098 1188.19 -0.199181 1193.25 -0.196273Z" fill="#F2F4F3"/>
<path d="M3.57926e-05 -0.000160992C42.1993 -0.0549953 84.3985 -0.0972537 126.598 -0.122576C131.576 -0.125574 136.555 -0.128677 141.534 -0.131844C143.021 -0.132788 143.021 -0.132788 144.537 -0.13375C160.6 -0.144189 176.663 -0.163095 192.725 -0.185113C209.199 -0.207508 225.673 -0.220841 242.147 -0.225712C252.317 -0.229006 262.488 -0.239421 272.658 -0.258861C279.627 -0.271503 286.595 -0.275369 293.563 -0.272249C297.587 -0.270709 301.611 -0.273119 305.635 -0.285923C309.317 -0.297552 312.998 -0.298202 316.68 -0.289982C318.014 -0.288966 319.348 -0.292038 320.683 -0.299534C322.492 -0.309111 324.301 -0.303996 326.11 -0.295134C327.62 -0.296499 327.62 -0.296499 329.16 -0.297892C334.239 0.278449 336.869 3.35004 340.078 7.04168C342.385 9.64384 344.618 12.1549 347.424 14.2333C350.827 16.9543 352.966 20.7489 355.258 24.3975C358.042 28.7924 361.019 32.2441 365.562 34.9094C370.988 38.4158 376.129 43.2899 378.154 49.5424C378.313 50.5364 378.473 51.5304 378.638 52.5546C379.736 57.1087 383.079 59.7754 386.398 62.877C387.006 63.4626 387.613 64.0481 388.239 64.6515C389.416 65.785 390.598 66.9132 391.786 68.0355C393.031 69.2213 394.244 70.4404 395.446 71.6699C397.301 73.4752 399.231 75.0359 401.267 76.6261C408.749 82.5419 408.749 82.5419 409.739 87.7638C410.722 92.0898 413.252 95.4221 416.029 98.7854C416.929 99.8886 416.929 99.8886 417.847 101.014C419.637 103.101 419.637 103.101 421.688 104.604C424.251 106.71 426.047 109.123 428.021 111.77C431.375 116.219 431.375 116.219 435.516 119.911C438.93 122.528 440.359 126.356 442.262 130.118C443.97 133.099 445.961 135.025 448.477 137.316C451.178 140.171 452.967 143.567 454.938 146.948C456.344 149.176 457.754 150.866 459.601 152.723C462.449 155.756 462.818 158.537 463.342 162.577C464.001 166.339 466.254 168.693 468.745 171.451C470.786 173.821 472.11 176.419 473.542 179.192C476.437 184.722 479.939 189.588 484.328 194.041C487.99 198.06 488.079 201.901 488.158 207.122C488.29 211.911 489.517 213.764 492.479 217.348C492.704 220.095 492.33 221.366 490.562 223.478C488.257 225.668 486.378 226.84 483.335 227.836C476.917 227.611 472.041 223.138 467.246 219.246C462.688 215.616 458.098 212.172 453.205 209.008C448.065 205.674 443.382 202.218 439.414 197.521C437.133 195.622 436.486 195.555 433.667 195.224C428.631 194.491 425.799 191.392 422.325 187.954C419.251 185.86 417.43 185.862 413.821 185.663C410.164 185.176 407.245 183.358 404.087 181.539C402.821 180.833 401.554 180.128 400.286 179.426C399.667 179.083 399.048 178.74 398.41 178.386C395.461 176.821 392.42 175.497 389.346 174.198C388.422 173.807 387.498 173.415 386.545 173.012C385.738 172.678 384.931 172.344 384.1 172.001C383.274 171.659 382.449 171.317 381.598 170.964C380.989 170.713 380.38 170.462 379.753 170.203C379.489 170.466 379.225 170.73 378.953 171.002C379.398 171.677 379.844 172.353 380.302 173.049C382.576 176.977 383.754 181.296 385.074 185.61C386.05 188.629 386.05 188.629 387.813 191.266C389.849 194.669 390.031 198.073 390.296 201.966C390.354 202.675 390.413 203.384 390.473 204.115C390.588 205.509 390.698 206.905 390.802 208.3C390.975 210.538 391.209 212.768 391.445 215.001C391.554 216.315 391.655 217.63 391.745 218.946C391.797 219.699 391.85 220.452 391.904 221.228C392.075 225.601 391.87 227.95 389.29 231.622C388.189 234.151 388.346 236.53 388.297 239.273C388.079 244.289 387.448 247.028 383.778 250.5C381.248 252.379 378.68 253.747 375.755 254.904C375.146 255.189 374.537 255.473 373.91 255.766C369.564 257.254 363.203 257.733 358.966 255.757C358.587 255.459 358.208 255.161 357.817 254.855C355.823 253.002 355.823 253.002 352.97 253.456C352.047 253.67 351.123 253.885 350.172 254.105C349.265 254.254 348.358 254.402 347.424 254.555C346.748 254.67 346.072 254.786 345.375 254.904C344.715 249.296 346.491 245.727 348.945 240.724C351.158 236.034 353.444 230.578 352.57 225.339C351.959 224.146 351.322 222.965 350.672 221.793C348.756 218.267 348.228 215.342 347.873 211.355C347.267 205.492 345.417 201.656 341.378 197.371C340.85 197.107 340.322 196.844 339.779 196.572C340.24 197.264 340.702 197.956 341.178 198.67C341.467 199.105 341.757 199.541 342.055 199.99C342.935 201.305 343.83 202.609 344.725 203.914C346.672 206.932 347.049 209.148 347.224 212.653C347.475 215.831 347.997 218.195 349.422 221.044C352.075 226.531 351.364 230.919 349.572 236.626C348.616 239.317 347.628 241.724 346.075 244.117C344.583 246.9 344.26 248.581 343.876 251.658C343.171 256.573 341.545 259.322 338.18 262.895C337.749 263.378 337.318 263.861 336.874 264.359C327.9 273.934 313.897 279.57 301.066 281.577C298.495 281.199 297.401 279.962 295.522 278.257C293.295 276.598 290.685 276.299 288.012 275.83C281.819 274.514 278.026 272.084 273.422 267.69C272.323 266.79 271.224 265.891 270.124 264.993C264.914 260.367 259.658 254.954 258.859 247.76C258.076 234.24 258.076 234.24 262.229 229.334C265.69 225.624 269.114 223.18 274.324 222.826C278.097 222.756 281.699 223.109 285.414 223.741C284.095 222.422 282.776 221.104 281.417 219.745C285.214 220.444 285.214 220.444 287.013 221.343C285.688 219.728 285.013 219.004 282.906 218.7C282.233 218.666 281.56 218.632 280.867 218.597C274.817 217.68 270.769 213.915 266.142 210.191C261.986 206.863 257.599 204.094 252.735 201.916C248.922 200.077 245.947 197.696 242.814 194.868C240.808 193.489 239.5 192.958 237.214 192.286C233.078 191.01 230.142 188.828 226.802 186.134C226.214 185.674 225.626 185.213 225.02 184.739C221.547 182.002 218.168 179.171 214.81 176.296C209.349 171.711 203.681 167.18 196.422 166.357C193.859 165.993 192.985 165.801 191.357 163.741C190.951 163.055 190.545 162.369 190.126 161.663C186.122 155.068 178.606 152.918 171.538 150.675C168.201 149.212 166.515 147.354 164.046 144.742C159.885 140.686 155.297 137.251 149.353 137.041C145.383 136.874 143.855 135.629 141.083 132.886C138.425 130.41 135.537 128.306 132.614 126.154C131.528 125.354 130.443 124.552 129.36 123.75C128.843 123.368 128.326 122.987 127.794 122.593C126.404 121.525 125.097 120.401 123.785 119.24C121.507 117.453 120.169 116.86 117.374 116.315C113.942 115.511 111.306 114.373 108.279 112.569C105.342 110.85 103.433 110.061 100.035 110.072C94.1577 109.838 89.7347 105.224 85.5443 101.482C84.7138 100.546 83.8937 99.5999 83.0959 98.6355C80.3713 96.3758 79.5716 96.4705 76.1504 96.3881C71.0463 96.2248 68.91 94.4712 65.2044 91.1349C62.3669 88.8617 59.3489 87.8022 55.9729 86.5277C53.4466 85.4502 51.3415 84.1392 49.0681 82.6041C46.341 80.7857 44.0519 79.5528 40.8734 78.7586C34.805 77.2036 29.7505 73.3811 24.609 69.9251C21.7224 68.0213 19.0273 66.7268 15.7398 65.6238C10.278 63.7584 3.5713 60.6476 3.57926e-05 55.935C-0.288387 53.5232 -0.288387 53.5232 -0.272248 50.5282C-0.272598 49.9823 -0.272948 49.4364 -0.273309 48.8739C-0.271639 47.0707 -0.252984 45.2682 -0.234187 43.4651C-0.229713 42.2144 -0.226299 40.9638 -0.223903 39.7131C-0.214748 36.4223 -0.191187 33.1317 -0.164652 29.841C-0.140112 26.4827 -0.129161 23.1244 -0.117075 19.766C-0.0913567 13.1772 -0.0504236 6.58853 3.57926e-05 -0.000160992Z" fill="#F2F4F3"/>
<path d="M775.495 491.431C778.072 493.376 779.312 495.156 781.091 497.824C782.61 513.612 774.505 529.874 767.438 543.425C762.823 552.424 760.76 560.932 759.415 570.942C758.673 576.128 757.394 580.906 754.608 585.372C752.784 588.876 752.831 592.232 752.709 596.123C752.471 601.393 751.503 606.437 750.411 611.592C750.244 612.389 750.076 613.186 749.904 614.008C748.808 619.042 747.472 623.961 745.914 628.872C746.178 628.608 746.442 628.344 746.713 628.073C762.967 612.324 762.967 612.324 771.247 611.792C774.937 611.458 777.723 610.483 781.091 608.895C785.575 607.288 789.948 606.734 794.682 607.297C795.474 607.824 796.265 608.352 797.081 608.895C798.659 609.03 800.243 609.107 801.828 609.145C806.409 609.475 806.409 609.475 808.673 611.342C809.32 612.608 809.964 613.875 810.591 615.15C810.848 615.673 811.106 616.197 811.371 616.736C811.759 617.569 811.759 617.569 812.155 618.418C813.128 620.187 814.273 621.479 815.619 622.979C818.566 626.698 818.37 630.448 818.498 635.046C818.648 637.37 818.904 638.759 819.916 640.808C822.143 645.55 821.015 649.702 819.466 654.442C818.428 654.303 817.39 654.164 816.321 654.021C804.239 652.702 792.591 655.239 782.887 662.714C780.279 664.879 777.852 667.188 775.495 669.625C775.759 669.888 776.022 670.152 776.294 670.424C776.719 669.929 776.719 669.929 777.153 669.425C784.953 660.968 795.463 655.362 806.949 654.746C814.805 654.546 819.692 655.701 825.862 660.835C826.564 661.252 827.266 661.669 827.989 662.099C830.272 663.482 831.444 665.111 833.057 667.227C833.997 668.117 833.997 668.117 834.956 669.025C841.32 675.689 845.031 682.973 845.518 692.133C846.005 695.463 847.495 698.131 848.981 701.119C850.248 704.146 850.2 706.339 849.846 709.578C849.582 710.106 849.319 710.633 849.047 711.176C848.848 712.473 848.669 713.772 848.497 715.072C847.639 720.505 846.034 725.614 844.394 730.849C843.007 735.345 841.986 739.72 841.467 744.41C840.788 747.558 839.563 749.668 836.952 751.573C836.31 751.922 835.667 752.27 835.006 752.628C831.286 754.704 827.999 757.079 824.678 759.742C821.777 761.149 820.159 760.749 817.068 759.92C814.987 758.872 813.147 757.6 811.271 756.224C810.783 755.894 810.294 755.563 809.791 755.222C806.332 752.738 804.696 750.533 803.477 746.336C803.227 743.809 803.247 741.33 803.327 738.794C803.337 738.134 803.348 737.473 803.359 736.792C803.387 735.179 803.43 733.565 803.477 731.952C802.949 732.743 802.421 733.535 801.878 734.35C801.35 733.031 800.822 731.713 800.279 730.354C800.325 731.184 800.371 732.015 800.419 732.87C800.743 741.203 799.667 746.516 794.632 753.378C790.839 759.615 789.568 766.81 789.148 774.013C788.226 776.888 787.198 778.095 785.235 780.343C781.36 784.959 780.008 789.611 778.543 795.379C776.856 801.723 775.042 807.726 772.304 813.706C771.201 816.644 771.141 819.394 770.992 822.503C770.663 824.897 769.916 826.471 768.793 828.603C765.9 834.707 765.278 841.082 764.421 847.723C763.452 854.096 761.974 857.889 757.107 862.201C756.843 862.465 756.579 862.729 756.307 863.001C755.082 863.078 753.853 863.099 752.625 863.099C751.424 863.101 751.424 863.101 750.199 863.104C749.308 863.101 748.418 863.099 747.5 863.097C746.563 863.097 745.625 863.098 744.659 863.099C742.045 863.1 739.43 863.097 736.816 863.093C734.001 863.09 731.186 863.091 728.372 863.092C723.491 863.092 718.61 863.09 713.729 863.085C706.673 863.079 699.616 863.076 692.559 863.075C681.111 863.074 669.663 863.068 658.215 863.061C647.092 863.053 635.968 863.048 624.845 863.044C624.159 863.044 623.474 863.044 622.768 863.044C619.331 863.043 615.894 863.042 612.457 863.041C583.924 863.032 555.39 863.018 526.857 863.001C527.609 861.59 528.366 860.182 529.124 858.774C529.545 857.99 529.966 857.205 530.399 856.397C531.421 854.616 532.445 853.085 533.752 851.514C536.118 848.364 536.86 844.8 537.918 841.054C539.239 837.045 541.165 833.451 543.124 829.73C544.334 827.268 545.189 824.913 545.994 822.298C547.063 819.135 548.087 817.621 550.741 815.605C555.964 811.525 558.244 804.996 559.317 798.606C559.422 797.706 559.527 796.806 559.635 795.878C560.032 792.496 560.429 790.504 562.833 788.037C565.232 786.289 565.232 786.289 566.831 786.289C567.048 785.708 567.266 785.128 567.49 784.529C568.398 782.37 569.469 780.501 570.678 778.498C573.691 773.077 575.194 767.358 576.816 761.414C578.813 754.098 581.275 746.15 587.467 741.341C596.008 734.486 600.289 722.033 603.6 711.96C607.825 699.472 607.825 699.472 612.201 696.943C614.799 695.994 614.799 695.994 616.398 695.994C616.599 695.345 616.8 694.696 617.007 694.028C618.174 690.695 619.586 687.521 621.045 684.308C622.959 680.081 624.782 675.857 626.442 671.522C627.947 667.872 629.752 665.279 632.469 662.433C637.46 657.178 642.817 651.253 644.63 644.154C646.162 638.71 649.592 635.605 653.559 631.728C658.951 626.229 662.579 620.495 666.265 613.741C669.278 608.293 672.707 603.466 676.576 598.6C681 593.003 684.676 587.03 688.351 580.927C691.293 576.097 694.218 571.685 698.045 567.518C699.885 565.342 701.456 563.013 703.042 560.651C711.007 548.878 711.007 548.878 716.008 546.296C718.698 544.441 719.091 542.482 720.131 539.425C722.058 534.284 722.058 534.284 724.55 532.421C726.477 531.634 726.477 531.634 728.285 531.126C730.249 530.479 731.076 529.832 732.323 528.188C732.776 526.484 732.776 526.484 733.072 524.593C734.734 518.599 739.508 514.988 744.315 511.408C746.235 510.365 748.05 509.532 750.117 508.836C751.808 508.227 751.808 508.227 753.109 505.814C753.409 504.687 753.691 503.554 753.959 502.418C755.435 497.78 758.631 495.47 762.703 493.029C766.893 491.036 770.923 490.744 775.495 491.431Z" fill="#F1EBF9"/>
<path d="M632.388 0C693.068 0 753.749 0 816.268 0C817.06 3.95542 817.06 3.95542 817.867 7.99074C818.397 9.32399 818.929 10.6562 819.466 11.9861C819.673 14.0507 819.673 14.0507 819.679 16.2281C819.681 17.0228 819.683 17.8174 819.685 18.6362C819.679 19.4577 819.672 20.2792 819.666 21.1255C819.672 21.9439 819.678 22.7623 819.685 23.6055C819.674 27.8005 819.464 31.2199 817.867 35.1593C817.66 37.6951 817.622 39.3964 818.649 41.7346C819.656 44.4643 819.792 46.8597 819.944 49.7642C819.975 50.3147 820.007 50.8653 820.039 51.4325C820.138 53.1828 820.227 54.9335 820.316 56.6843C820.408 58.4322 820.503 60.1799 820.601 61.9276C820.689 63.5153 820.771 65.1033 820.853 66.6913C821.047 69.2781 821.407 71.7628 821.865 74.3139C822.034 77.0729 822.065 79.7901 821.471 82.5028C820.944 85.3568 820.91 88.1772 820.868 91.0695C820.842 92.3128 820.815 93.5562 820.789 94.7995C820.751 96.7458 820.715 98.6921 820.684 100.638C820.652 102.526 820.611 104.414 820.569 106.302C820.562 106.88 820.555 107.459 820.548 108.055C820.469 111.296 819.986 113.719 818.667 116.665C818.169 119.159 817.932 121.677 817.667 124.206C817.544 125.205 817.544 125.205 817.417 126.224C816.991 130.192 817.194 132.862 818.667 136.642C818.851 138.717 818.851 138.717 818.817 140.687C818.811 141.339 818.806 141.991 818.801 142.663C818.667 144.632 818.667 144.632 818.273 146.387C817.906 148.411 817.781 150.239 817.727 152.289C817.708 152.968 817.689 153.648 817.669 154.348C817.635 155.752 817.61 157.157 817.594 158.562C817.479 162.098 817.204 164.716 815.45 167.824C813.401 171.471 813.476 174.739 813.62 178.843C813.632 179.856 813.632 179.856 813.643 180.889C813.695 183.696 813.774 185.897 814.669 188.581C815.286 194.829 814.965 202.783 810.922 207.853C809.925 208.853 808.926 209.851 807.924 210.846C806.31 213.052 806.141 214.8 805.825 217.498C805.205 222.655 805.205 222.655 802.977 224.74C799.4 226.593 797.868 226.833 793.883 226.138C792.095 224.47 791.105 223.358 789.885 221.344C789.44 220.635 788.995 219.926 788.536 219.196C786.106 213.066 785.82 207.128 785.938 200.618C786.042 192.632 785.315 186.171 780.591 179.492C777.109 174.413 777.251 169.802 777.094 163.81C776.414 156.753 775.621 151.832 770.354 146.755C767.209 142.974 766.682 138.078 765.651 133.395C763.935 126.187 762.288 120.666 757.959 114.645C753.89 108.465 752.143 100.488 749.911 93.4917C749.018 96.539 748.177 99.5868 747.422 102.672C745.881 108.912 744.425 114.765 741.258 120.41C740.166 122.557 739.51 124.697 738.819 127.003C737.45 131.368 735.37 134.681 732.807 138.44C731.081 141.395 730.357 144.322 729.687 147.657C729.125 149.427 729.125 149.427 726.727 151.025C725.429 151.1 724.129 151.129 722.829 151.125C719.73 151.321 719.73 151.321 717.461 153.266C716.463 154.992 716.463 154.992 715.718 156.768C714.734 158.217 714.734 158.217 712.976 158.91C705.07 159.284 695.254 154.13 689.464 149.02C686.674 146.031 685.043 142.291 683.38 138.602C681.848 135.634 680.413 134.048 677.958 131.847C678.858 129.15 679.358 128.818 681.606 127.253C686.651 123.592 691.035 120.056 694.463 114.817C696.139 112.731 698.277 111.41 700.528 109.994C704.144 106.619 703.791 101.542 703.966 96.9252C703.991 96.0888 704.016 95.2524 704.041 94.3906C704.072 93.5357 704.103 92.6807 704.135 91.7999C704.21 89.7004 704.279 87.6008 704.341 85.5009C703.813 85.5009 703.286 85.5009 702.742 85.5009C702.751 86.5227 702.761 87.5446 702.77 88.5973C702.778 89.9624 702.785 91.3275 702.792 92.6926C702.799 93.3632 702.806 94.0337 702.812 94.7246C702.856 105.872 702.856 105.872 700.781 108.609C700.307 108.943 699.833 109.278 699.344 109.623C698.837 110.007 698.33 110.391 697.808 110.787C697.326 111.145 696.843 111.502 696.346 111.87C694.543 113.583 692.814 115.288 691.253 117.227C687.363 121.997 682.758 125.561 677.89 129.272C676.266 130.492 676.266 130.492 674.76 131.847C667.049 132.397 659.185 131.333 651.541 130.383C649.813 130.192 649.813 130.192 647.428 130.449C642.79 130.037 639.523 125.394 636.385 122.258C635.44 121.471 634.49 120.689 633.537 119.911C629.971 116.871 627.92 113.525 626.142 109.223C624.954 106.431 623.55 104.244 621.645 101.882C616.912 96.0118 613.813 90.8487 614 83.1037C614.129 82.6064 614.259 82.1092 614.392 81.5969C614.803 79.894 614.924 78.3874 614.968 76.6393C615.649 56.4107 615.649 56.4107 621.195 50.3417C623.88 48.9999 626.884 49.1339 629.84 48.9433C630.485 48.8887 631.131 48.8341 631.796 48.7779C635.636 48.5327 638.142 48.5034 641.182 51.1407C642.532 52.874 643.744 54.5493 644.93 56.3847C647.227 59.9322 647.227 59.9322 649.977 63.1269C650.284 58.2036 650.053 53.9069 647.578 49.5426C646.564 48.5785 646.564 48.5785 645.529 47.5948C642.37 43.9029 643.021 39.1243 642.931 34.51C642.525 25.4012 640.867 18.7966 636.339 10.9459C635.247 8.97896 634.411 6.93527 633.587 4.84439C633.348 4.24386 633.109 3.64334 632.863 3.02462C632.388 1.59815 632.388 1.59815 632.388 0Z" fill="#E4F5FC"/>
<path d="M614.8 210.051C615.692 210.05 616.585 210.049 617.505 210.048C619.379 210.048 621.252 210.049 623.125 210.053C626.006 210.057 628.886 210.053 631.767 210.048C633.589 210.048 635.412 210.049 637.235 210.051C638.533 210.048 638.533 210.048 639.857 210.046C640.65 210.048 641.443 210.051 642.26 210.054C643.311 210.054 643.311 210.054 644.384 210.055C645.979 210.157 645.979 210.157 646.779 210.956C647.95 211.035 649.125 211.061 650.298 211.062C651.366 211.064 651.366 211.064 652.455 211.065C653.203 211.062 653.952 211.059 654.724 211.056C655.469 211.059 656.215 211.062 656.983 211.065C658.052 211.064 658.052 211.064 659.143 211.062C659.799 211.061 660.455 211.06 661.132 211.059C662.821 211.059 662.821 211.059 664.367 210.157C668.795 209.973 668.795 209.973 670.763 210.956C672.041 211.032 673.321 211.058 674.601 211.059C675.399 211.062 676.197 211.064 677.018 211.067C677.882 211.065 678.746 211.064 679.635 211.062C680.96 211.063 680.96 211.063 682.311 211.064C684.18 211.065 686.049 211.064 687.918 211.06C690.791 211.056 693.663 211.06 696.535 211.065C698.347 211.065 700.159 211.064 701.971 211.062C702.836 211.064 703.701 211.065 704.593 211.067C705.388 211.065 706.183 211.062 707.002 211.059C707.706 211.059 708.409 211.058 709.134 211.057C710.736 211.133 710.736 211.133 711.536 210.157C713.992 210.072 716.426 210.045 718.882 210.057C720.042 210.058 720.042 210.058 721.225 210.06C728.885 210.099 736.531 210.425 744.184 210.728C751.353 210.979 758.436 210.875 765.593 210.412C767.294 210.302 768.996 210.226 770.698 210.157C770.962 210.421 771.226 210.684 771.497 210.956C772.627 211.081 773.763 211.156 774.898 211.209C775.581 211.242 776.264 211.276 776.967 211.31C777.685 211.342 778.403 211.373 779.142 211.405C779.863 211.44 780.584 211.474 781.327 211.51C783.114 211.595 784.901 211.677 786.688 211.755C786.939 212.401 787.19 213.047 787.45 213.712C787.963 214.993 787.963 214.993 788.486 216.3C788.987 217.565 788.987 217.565 789.498 218.856C790.714 221.406 791.917 223.311 793.883 225.339C797.454 225.849 799.301 225.764 802.577 224.34C804.92 221.31 805.092 218.446 805.51 214.695C805.875 212.554 805.875 212.554 807.474 210.956C809.526 210.787 809.526 210.787 812.093 210.828C813.015 210.837 813.937 210.846 814.886 210.855C816.337 210.88 816.337 210.88 817.817 210.906C819.723 210.934 821.629 210.958 823.535 210.978C824.384 210.992 825.232 211.007 826.105 211.021C828.341 211.057 828.341 211.057 830.659 210.157C834.422 209.891 838.158 210.161 841.902 210.556C848.503 211.208 855.506 211.554 862.068 210.556C865.019 210.159 867.826 210.054 870.801 210.051C871.585 210.05 871.585 210.05 872.385 210.048C873.477 210.048 874.57 210.049 875.662 210.053C877.341 210.057 879.019 210.053 880.698 210.048C882.28 210.049 882.28 210.049 883.893 210.051C885.34 210.052 885.34 210.052 886.817 210.054C889.021 210.157 889.021 210.157 889.82 210.956C891.687 210.7 893.552 210.431 895.417 210.157C897.279 210.087 899.143 210.053 901.007 210.051C902.031 210.05 903.056 210.049 904.111 210.048C904.898 210.05 904.898 210.05 905.701 210.053C907.322 210.057 908.942 210.053 910.563 210.048C912.09 210.049 912.09 210.049 913.649 210.051C914.58 210.052 915.512 210.053 916.471 210.054C918.602 210.157 918.602 210.157 919.401 210.956C921.381 210.987 923.34 210.97 925.319 210.922C926.555 210.904 927.791 210.887 929.028 210.87C930.975 210.841 932.922 210.807 934.869 210.759C945.445 210.511 953.654 211.452 961.773 218.947C969.531 228.128 967.458 243.751 967.341 254.955C967.334 255.829 967.327 256.704 967.32 257.605C967.306 258.786 967.306 258.786 967.292 259.992C967.29 262.062 967.29 262.062 967.845 263.86C968.169 265.293 968.169 265.293 967.02 267.141C964.749 268.636 964.257 268.64 961.674 268.34C958.576 267.69 958.576 267.69 956.977 266.891C955.2 266.878 953.424 266.921 951.649 266.988C950.507 267.027 949.366 267.066 948.224 267.105C947.616 267.128 947.008 267.15 946.381 267.173C934.573 267.596 922.772 267.783 910.957 267.79C909.942 267.793 909.942 267.793 908.907 267.796C902.264 267.812 895.694 267.811 889.086 267.028C886.607 266.824 884.279 267.316 881.826 267.69C871.274 268.011 871.274 268.011 869.034 266.891C867.367 266.878 865.7 266.92 864.034 266.988C862.984 267.027 861.935 267.065 860.854 267.105C860.009 267.139 860.009 267.139 859.147 267.173C849.153 267.56 839.162 267.791 829.16 267.79C828.348 267.79 828.348 267.79 827.519 267.79C818.721 267.781 809.943 267.535 801.155 267.105C800.323 267.067 799.49 267.028 798.633 266.988C797.905 266.95 797.177 266.913 796.427 266.874C794.644 266.764 794.644 266.764 793.083 267.69C790.388 267.816 787.962 267.642 785.288 267.241C782.786 266.656 782.786 266.656 781.091 267.69C778.921 267.77 776.772 267.802 774.602 267.796C773.936 267.797 773.27 267.798 772.584 267.799C770.39 267.801 768.195 267.796 766.001 267.79C765.256 267.79 764.511 267.789 763.743 267.789C751.622 267.78 739.517 267.55 727.405 267.105C726.828 267.086 726.252 267.066 725.658 267.045C724.113 266.992 722.568 266.933 721.023 266.874C718.775 266.723 718.775 266.723 717.133 267.69C715.933 267.694 714.733 267.644 713.535 267.565C712.826 267.523 712.117 267.481 711.387 267.437C709.888 267.34 708.389 267.242 706.89 267.144C706.18 267.102 705.471 267.06 704.741 267.016C703.764 266.952 703.764 266.952 702.767 266.887C701.087 266.771 701.087 266.771 699.544 267.69C697.57 267.769 695.622 267.801 693.648 267.79C693.11 267.793 692.572 267.796 692.018 267.8C687.938 267.791 687.938 267.791 686.028 267.291C684.067 266.823 682.295 266.788 680.279 266.785C679.506 266.784 678.734 266.783 677.938 266.782C676.736 266.787 676.736 266.787 675.51 266.791C674.706 266.788 673.901 266.785 673.072 266.782C672.301 266.783 671.53 266.784 670.735 266.785C669.679 266.786 669.679 266.786 668.602 266.788C666.636 266.818 666.636 266.818 664.367 267.69C661.469 267.79 661.469 267.79 658.771 267.69C658.507 267.427 658.243 267.163 657.971 266.891C656.257 266.812 654.541 266.788 652.825 266.791C651.416 266.788 651.416 266.788 649.98 266.785C647.639 266.725 647.639 266.725 645.979 267.69C644.845 267.766 643.707 267.792 642.57 267.794C641.859 267.796 641.149 267.799 640.418 267.801C639.255 267.799 639.255 267.799 638.069 267.796C637.264 267.797 636.458 267.798 635.629 267.8C632.999 267.801 630.37 267.796 627.741 267.79C626.852 267.789 625.962 267.789 625.046 267.788C612.767 267.776 600.519 267.611 588.251 267.066C583.508 266.86 578.773 266.853 574.026 266.891C573.296 263.148 573.087 259.503 573.064 255.701C573.06 255.094 573.055 254.487 573.05 253.861C573.043 252.579 573.038 251.297 573.035 250.015C573.027 248.088 573.002 246.162 572.977 244.235C572.91 234.668 572.95 224.848 579.619 217.305C583.878 213.173 587.092 210.675 593.214 210.706C594.327 210.785 594.327 210.785 595.462 210.865C598.118 211.027 598.118 211.027 601.168 210.569C605.714 210.043 610.228 210.042 614.8 210.051Z" fill="#9464D0"/>
<path d="M965.771 482.641C966.035 482.641 966.299 482.641 966.57 482.641C967.399 486.741 967.498 490.681 967.511 494.844C967.517 495.575 967.522 496.306 967.527 497.059C967.543 499.469 967.552 501.88 967.56 504.291C967.564 505.118 967.567 505.946 967.57 506.8C967.587 511.185 967.598 515.571 967.606 519.957C967.615 524.461 967.642 528.966 967.674 533.47C967.695 536.956 967.702 540.441 967.704 543.926C967.708 545.585 967.718 547.244 967.732 548.903C967.92 571.185 967.92 571.185 961.774 578.579C960.975 579.363 960.176 580.146 959.375 580.927C958.897 581.668 958.419 582.41 957.926 583.174C951.482 589.615 935.93 587.391 927.396 587.419C926.613 587.423 925.83 587.427 925.024 587.431C921.742 587.423 918.591 587.38 915.354 586.814C914.579 586.717 913.804 586.62 913.005 586.52C912.478 587.048 911.95 587.575 911.406 588.118C910.161 587.949 908.917 587.769 907.678 587.557C899.712 586.545 891.358 587.424 883.371 587.904C882.676 587.943 881.98 587.982 881.264 588.022C880.64 588.059 880.016 588.097 879.373 588.136C877.828 588.118 877.828 588.118 876.229 587.319C875.129 587.248 874.025 587.225 872.922 587.229C872.229 587.229 871.536 587.229 870.822 587.229C870.061 587.233 869.299 587.237 868.514 587.241C867.313 587.243 867.313 587.243 866.087 587.245C864.344 587.248 862.602 587.253 860.859 587.259C858.105 587.269 855.35 587.275 852.596 587.279C846.749 587.288 840.903 587.303 835.056 587.319C828.284 587.338 821.511 587.354 814.739 587.364C812.018 587.369 809.298 587.379 806.578 587.389C804.918 587.392 803.258 587.395 801.598 587.397C800.837 587.401 800.075 587.406 799.29 587.41C798.597 587.41 797.904 587.41 797.191 587.41C796.285 587.413 796.285 587.413 795.361 587.415C793.883 587.319 793.883 587.319 792.284 586.52C790.687 586.443 789.086 586.417 787.487 586.42C786.63 586.418 785.772 586.416 784.889 586.414C782.721 586.371 782.721 586.371 781.091 587.319C779.105 587.333 777.147 587.298 775.164 587.223C774.581 587.204 773.997 587.185 773.396 587.165C771.531 587.104 769.665 587.037 767.8 586.97C766.536 586.927 765.272 586.885 764.009 586.843C760.908 586.74 757.808 586.632 754.708 586.52C755.17 583.986 755.775 581.655 756.676 579.244C757.87 575.751 758.411 572.345 758.888 568.693C760.572 555.97 765.189 545.926 771.223 534.74C771.61 534.023 771.61 534.023 772.005 533.291C772.635 532.123 773.265 530.954 773.896 529.786C774.418 529.787 774.94 529.787 775.477 529.788C788.161 529.806 800.845 529.819 813.528 529.827C819.662 529.832 825.796 529.837 831.929 529.846C837.274 529.854 842.619 529.859 847.963 529.861C850.795 529.862 853.626 529.865 856.457 529.87C859.614 529.877 862.771 529.877 865.928 529.877C866.871 529.88 867.815 529.882 868.787 529.885C869.644 529.884 870.5 529.883 871.383 529.882C872.504 529.883 872.504 529.883 873.647 529.884C875.461 529.903 875.461 529.903 877.029 528.987C884.493 528.594 892.015 529.124 899.467 529.572C900.163 529.611 900.858 529.649 901.575 529.689C902.199 529.727 902.823 529.765 903.465 529.803C905.078 529.898 905.078 529.898 906.61 528.987C909.048 529.063 911.47 529.187 913.905 529.337C921.247 529.707 928.591 529.97 935.943 530.06C937.064 530.077 938.185 530.101 939.306 530.133C947.778 530.364 952.607 529.237 959.197 524.04C968.822 513.48 966.007 495.971 965.771 482.641Z" fill="#51CB5A"/>
<path d="M574.026 513.006C574.348 513.673 574.348 513.673 574.676 514.354C577.832 520.498 581.675 526.477 588.417 528.987C592.056 529.475 595.673 529.471 599.341 529.474C600.425 529.486 601.508 529.5 602.592 529.514C605.451 529.549 608.309 529.565 611.169 529.577C613.989 529.593 616.81 529.626 619.631 529.658C625.727 529.724 631.823 529.756 637.919 529.779C639.609 529.787 641.299 529.796 642.989 529.806C646.241 529.825 649.492 529.838 652.744 529.849C653.733 529.855 654.722 529.861 655.742 529.867C657.096 529.869 657.096 529.869 658.479 529.871C659.272 529.874 660.065 529.877 660.882 529.88C662.784 529.912 662.784 529.912 664.367 528.987C670.036 528.802 670.036 528.802 672.377 529.4C675.818 529.958 679.179 529.792 682.655 529.69C683.424 529.671 684.192 529.652 684.983 529.632C687.439 529.571 689.894 529.504 692.349 529.437C695.564 529.353 698.778 529.271 701.993 529.19C702.763 529.171 703.533 529.152 704.327 529.132C719.938 528.753 719.938 528.753 724.678 529.437C727.47 529.78 729.594 529.601 732.323 528.987C730.457 531.181 729.115 531.681 726.327 532.234C724.38 532.742 724.38 532.742 722.729 533.782C721.419 536.334 720.928 538.981 720.331 541.773C719.058 544.718 717.599 546.068 715.034 547.865C708.51 552.55 704.124 559.528 699.676 566.103C698.148 568.348 696.598 570.45 694.748 572.437C690.801 576.793 688.086 582.259 685.154 587.32C684.223 587.219 684.223 587.219 683.274 587.117C677.468 586.57 671.999 586.597 666.197 587.195C663.568 587.32 663.568 587.32 661.029 586.935C657.715 586.486 654.532 586.406 651.195 586.415C650.556 586.413 649.916 586.412 649.258 586.411C647.199 586.41 645.14 586.415 643.081 586.421C642.38 586.421 641.679 586.422 640.956 586.423C631.762 586.434 622.606 586.597 613.425 587.145C609.093 587.396 604.772 587.348 600.434 587.27C598.035 587.243 598.035 587.243 595.834 587.785C593.105 588.285 591.597 587.033 589.216 585.722C588.44 585.504 587.664 585.287 586.865 585.063C584.033 583.975 583.04 582.921 581.221 580.528C580.727 579.893 580.232 579.259 579.722 578.605C578.882 577.381 578.882 577.381 578.024 576.133C577.628 575.62 577.233 575.108 576.826 574.581C572.583 568.527 572.586 562.812 572.73 555.706C572.737 554.521 572.742 553.336 572.745 552.151C572.759 549.056 572.802 545.963 572.851 542.868C572.886 540.333 572.9 537.798 572.912 535.263C572.928 532.239 572.953 529.215 572.98 526.191C572.985 525.614 572.99 525.038 572.996 524.444C573.012 522.82 573.036 521.197 573.06 519.573C573.072 518.65 573.085 517.726 573.098 516.775C573.227 514.604 573.227 514.604 574.026 513.006Z" fill="#51CB5A"/>
<path d="M1160.84 198.17C1161.37 198.697 1161.9 199.225 1162.44 199.768C1161.73 200.526 1161.02 201.284 1160.29 202.065C1157.23 206.072 1156.24 210.503 1155.11 215.331C1154.15 219.282 1152.8 221.96 1150.45 225.338C1148.25 234.792 1153.96 245.344 1158.45 253.306C1159 254.135 1159.56 254.964 1160.13 255.819C1161.41 257.744 1162.27 259.409 1163.09 261.546C1165.37 266.845 1168.93 272.599 1174.43 274.881C1175.42 275.079 1176.41 275.277 1177.43 275.48C1180.42 276.107 1181.69 277.233 1183.83 279.376C1189.86 284.445 1199.23 282.446 1206.58 281.873C1207.84 281.746 1209.09 281.601 1210.35 281.43C1212.15 281.26 1213.8 281.418 1215.61 281.573C1220.38 281.693 1223.67 278.567 1227.2 275.68C1227.2 278.077 1227.2 278.077 1226.03 279.332C1225.28 279.947 1225.28 279.947 1224.5 280.574C1224 280.989 1223.5 281.403 1222.98 281.829C1218.59 285.149 1211.61 284.188 1206.28 284.38C1204.08 284.467 1201.88 284.591 1199.68 284.717C1187.42 285.256 1187.42 285.256 1181.76 280.259C1179.81 278.701 1178.34 278.247 1175.93 277.678C1169.37 275.97 1165.4 271.171 1161.88 265.598C1160.5 263.056 1159.5 260.432 1158.49 257.723C1157.6 255.597 1156.52 253.757 1155.3 251.808C1150.13 243.497 1146.76 234.439 1148.05 224.539C1148.9 222.868 1149.91 221.479 1151.02 219.973C1152.37 217.584 1152.69 215.349 1153.15 212.653C1154.23 206.82 1156.63 202.38 1160.84 198.17Z" fill="#92DD97"/>
<path d="M770.248 231.632C774.072 232.839 775.028 233.905 777.094 237.325C777.23 240.663 776.554 241.813 774.396 244.367C772.297 246.115 772.297 246.115 769.898 246.914C767.04 246.271 766.093 245.591 764.402 243.168C763.315 239.968 763.4 238.174 764.302 234.928C766.119 232.134 766.892 231.754 770.248 231.632Z" fill="#BBA0E2"/>
<path d="M410.932 541.772C412.638 543.068 414.073 544.512 415.586 546.027C418.243 548.069 420.942 548.181 424.192 548.624C426.122 548.964 426.122 548.964 428.021 550.163C429.595 552.583 430.883 555.062 432.128 557.666C433.024 559.537 433.94 561.388 434.882 563.235C437.584 568.54 440.217 573.769 442.203 579.394C442.988 581.093 443.983 582.028 445.31 583.324C445.31 583.852 445.31 584.379 445.31 584.922C446.101 585.318 446.101 585.318 446.909 585.721C446.381 585.721 445.854 585.721 445.31 585.721C444.914 586.513 444.914 586.513 444.51 587.32C443.436 585.727 442.372 584.128 441.313 582.525C440.917 581.932 440.521 581.338 440.113 580.727C439.086 578.845 438.328 577.078 437.565 575.084C435.458 569.661 432.799 564.501 430.113 559.346C429.564 558.244 429.058 557.121 428.586 555.984C427.068 552.327 427.068 552.327 423.733 550.381C422.856 550.276 421.979 550.171 421.076 550.063C416.594 549.307 414.53 548.306 411.363 545.156C410.027 543.908 410.027 543.908 407.335 543.82C403.13 544.342 403.13 544.342 398.94 544.969C398.94 544.441 398.94 543.914 398.94 543.37C402.868 541.76 406.743 540.804 410.932 541.772Z" fill="#90DD95"/>
<path d="M1148.85 582.525C1148.59 583.053 1148.32 583.58 1148.05 584.123C1145.07 584.984 1142.2 585.652 1139.12 586.046C1133.84 586.831 1133.84 586.831 1129.6 589.836C1128.16 592.137 1126.92 594.494 1125.67 596.909C1124.46 598.899 1123.19 600.85 1121.92 602.802C1121.62 603.267 1121.33 603.733 1121.02 604.212C1119.69 606.302 1118.37 608.211 1116.71 610.059C1114.84 612.701 1114.71 614.73 1114.42 617.934C1113.96 622.461 1113.15 626.308 1111.28 630.47C1110.88 629.283 1110.88 629.283 1110.48 628.072C1109.95 627.809 1109.42 627.545 1108.88 627.273C1109.41 627.273 1109.93 627.273 1110.48 627.273C1110.61 626.233 1110.75 625.193 1110.89 624.121C1111.08 622.741 1111.28 621.361 1111.48 619.982C1111.56 619.298 1111.65 618.614 1111.74 617.909C1112.37 613.58 1113.35 610.83 1116.07 607.297C1116.66 606.405 1117.24 605.508 1117.82 604.606C1118.11 604.149 1118.41 603.692 1118.71 603.221C1119.01 602.753 1119.31 602.285 1119.62 601.803C1119.94 601.313 1120.25 600.822 1120.58 600.317C1122.53 597.272 1124.46 594.212 1126.33 591.112C1126.64 590.652 1126.95 590.191 1127.27 589.717C1127.71 589.039 1128.15 588.361 1128.61 587.663C1131 585.158 1132.92 584.695 1136.26 583.874C1136.79 583.742 1137.32 583.609 1137.87 583.473C1141.64 582.587 1145.01 582.212 1148.85 582.525Z" fill="#8FDD94"/>
<path d="M339.779 196.572C343.261 197.733 344.483 199.878 346.521 202.846C348.396 206.612 348.579 210.301 348.948 214.448C349.467 217.994 350.686 220.521 352.551 223.544C354.493 227.803 353.046 231.833 351.571 236.027C351.391 236.551 351.212 237.076 351.027 237.617C349.691 241.435 348.125 244.975 346.174 248.512C345.383 248.512 344.591 248.512 343.776 248.512C344.497 246.127 345.177 244.027 346.524 241.92C349.484 236.713 351.167 230.519 350.172 224.54C349.447 222.723 348.603 221.004 347.727 219.255C346.865 217.072 346.7 215.242 346.574 212.903C346.202 206.724 343.651 202.87 339.779 198.17C339.779 197.643 339.779 197.116 339.779 196.572Z" fill="#94DD99"/>
<path d="M702.742 85.501C703.27 85.501 703.798 85.501 704.341 85.501C704.411 88.4474 704.454 91.3937 704.491 94.3407C704.511 95.1704 704.531 96.0002 704.552 96.855C704.598 101.693 704.418 105.26 701.943 109.473C700.506 110.815 700.506 110.815 698.945 111.771C696.392 113.517 694.705 115.204 692.899 117.714C689.651 122.153 685.5 125.33 681.156 128.651C680.629 128.124 680.101 127.596 679.557 127.053C680.252 126.492 680.947 125.932 681.662 125.355C686.242 121.605 690.388 118.129 693.733 113.191C695.345 111.093 697.28 110.011 699.544 108.674C703.037 105.184 702.169 97.4687 702.392 92.6926C702.427 91.9974 702.462 91.3021 702.497 90.5857C702.581 88.8909 702.662 87.196 702.742 85.501Z" fill="#92DE9B"/>
<path d="M817.867 653.642C815.404 656.104 812.431 655.478 809.123 655.54C802.986 655.768 797.837 656.425 792.284 659.236C791.616 659.574 790.948 659.912 790.26 660.26C785.598 662.848 781.787 666.087 777.918 669.739C776.294 671.222 776.294 671.222 774.695 672.021C775.283 667.368 779.436 664.613 782.9 661.862C793.107 654.306 805.335 651.397 817.867 653.642Z" fill="#94DC9A"/>
<path d="M384.549 608.895C383.454 611.378 382.195 612.914 380.252 614.788C374.403 621.34 373.666 630.811 373.357 639.259C372.829 639.259 372.301 639.259 371.758 639.259C371.361 630.151 371.618 621.496 377.71 614.241C378.12 613.795 378.53 613.349 378.953 612.89C379.33 612.469 379.707 612.047 380.096 611.613C382.657 608.895 382.657 608.895 384.549 608.895Z" fill="#91DD96"/>
<path d="M1171.24 645.652C1178.05 647.441 1182.95 652.936 1186.64 658.762C1189.08 663.093 1190.76 666.161 1190.42 671.223C1189.9 671.223 1189.37 671.223 1188.83 671.223C1188.7 670.787 1188.57 670.351 1188.44 669.902C1185.7 661.054 1181.24 653.175 1173.01 648.343C1172.43 647.982 1171.84 647.622 1171.24 647.25C1171.24 646.723 1171.24 646.196 1171.24 645.652Z" fill="#8EDD93"/>
<path d="M1235.89 220.344C1239.04 221.472 1241.02 222.778 1243.19 225.339C1243.19 225.866 1243.19 226.393 1243.19 226.937C1242.66 226.937 1242.13 226.937 1241.59 226.937C1241.59 226.409 1241.59 225.882 1241.59 225.339C1240.27 224.784 1238.93 224.259 1237.59 223.741C1237.14 223.529 1236.68 223.318 1236.2 223.101C1229.77 220.466 1220.26 219.98 1213.61 222.142C1213.87 221.351 1214.14 220.56 1214.41 219.745C1219.98 216.959 1230.19 218.545 1235.89 220.344Z" fill="#93DD99"/>
<path d="M1126.46 677.296C1130.43 679.046 1133.11 680.744 1136.06 684.007C1140.13 688.196 1143.97 689.896 1149.65 691.199C1149.65 691.726 1149.65 692.253 1149.65 692.797C1144.43 692.517 1140.93 691.333 1136.86 688.002C1136.03 687.076 1135.23 686.126 1134.46 685.156C1132.06 682.143 1129.31 680.461 1125.67 679.213C1124.88 679.213 1124.08 679.213 1123.27 679.213C1123.27 678.685 1123.27 678.158 1123.27 677.614C1124.87 676.815 1124.87 676.815 1126.46 677.296Z" fill="#90DD95"/>
<path d="M428.521 635.264C429.312 635.527 430.104 635.791 430.919 636.063C426.242 642.241 421.261 648.582 414.13 652.044C413.339 652.044 412.547 652.044 411.732 652.044C411.732 651.517 411.732 650.989 411.732 650.446C413.284 649.438 413.284 649.438 415.379 648.299C421.117 644.965 425.081 640.901 428.521 635.264Z" fill="#8EDC93"/>
<path d="M1227.2 275.681C1227.2 278.078 1227.2 278.078 1226.03 279.333C1225.27 279.948 1225.27 279.948 1224.5 280.575C1224 280.989 1223.5 281.403 1222.98 281.83C1219.97 284.107 1217.14 283.762 1213.51 283.721C1212.91 283.718 1212.3 283.714 1211.68 283.71C1210.19 283.701 1208.7 283.687 1207.21 283.671C1207.48 282.88 1207.74 282.089 1208.01 281.274C1208.73 281.339 1209.44 281.404 1210.18 281.471C1216.86 281.82 1220.61 281.144 1225.84 276.904C1226.29 276.5 1226.74 276.097 1227.2 275.681Z" fill="#91DD97"/>
<path d="M845.849 688.802C846.376 688.802 846.904 688.802 847.448 688.802C849.072 692.265 849.463 695.423 849.846 699.19C849.055 699.453 848.263 699.717 847.448 699.989C845.317 695.815 844.787 693.531 845.849 688.802Z" fill="#91DC97"/>
<path d="M1148.85 582.525C1148.59 583.053 1148.32 583.58 1148.05 584.124C1144.08 585.288 1140.16 586.008 1136.06 586.521C1136.32 585.73 1136.59 584.939 1136.86 584.124C1140.97 582.532 1144.47 582.372 1148.85 582.525Z" fill="#96DF9B"/>
<path d="M775.495 236.526C776.022 236.79 776.55 237.054 777.094 237.325C776.872 240.498 776.481 241.899 774.396 244.367C772.297 246.115 772.297 246.115 769.898 246.914C769.898 246.387 769.898 245.86 769.898 245.316C770.525 244.871 771.152 244.426 771.797 243.968C774.393 241.682 774.791 239.853 775.495 236.526Z" fill="#B6D1E5"/>
<path d="M330.984 268.489C331.512 268.753 332.04 269.017 332.583 269.288C331.676 271.918 330.99 272.481 328.486 273.883C327.348 274.377 327.348 274.377 326.187 274.882C325.924 274.091 325.66 273.3 325.388 272.485C327.235 271.166 329.082 269.848 330.984 268.489Z" fill="#9ADF9F"/>
<path d="M1175.23 275.681C1180.17 275.95 1180.17 275.95 1182.38 277.728C1182.66 278.107 1182.94 278.486 1183.23 278.877C1180.01 278.435 1176.82 277.953 1173.64 277.279C1174.16 276.751 1174.69 276.224 1175.23 275.681Z" fill="#9ADF9F"/>
<path d="M350.971 224.54C351.763 224.804 352.554 225.067 353.37 225.339C353.47 229.934 353.47 229.934 352.57 231.732C352.043 231.732 351.515 231.732 350.971 231.732C350.971 229.358 350.971 226.985 350.971 224.54Z" fill="#A0E0A5"/>
<path d="M846.648 689.601C847.44 689.996 847.44 689.996 848.247 690.4C849.173 693.175 849.102 695.482 849.047 698.39C847.13 696.475 847.174 695.727 846.948 693.097C846.888 692.443 846.829 691.79 846.767 691.118C846.728 690.617 846.689 690.116 846.648 689.601Z" fill="#DFE9E6"/>
<path d="M426.672 549.513C428.521 550.562 428.521 550.562 429.32 552.959C428.793 553.486 428.265 554.014 427.721 554.557C427.474 553.791 427.474 553.791 427.222 553.009C426.206 551.082 426.206 551.082 423.624 550.761C422.865 550.695 422.107 550.63 421.325 550.562C423.426 549.162 424.171 548.873 426.672 549.513Z" fill="#97DF9C"/>
<path d="M1208.01 281.274C1209.86 281.538 1211.71 281.802 1213.61 282.073C1213.61 282.601 1213.61 283.128 1213.61 283.672C1211.5 283.672 1209.39 283.672 1207.21 283.672C1207.48 282.881 1207.74 282.089 1208.01 281.274Z" fill="#A3E1A8"/>
<line x1="644.38" y1="321.826" x2="882.699" y2="321.826" stroke="#A8E6A5" stroke-width="2"/>
</g>
<defs>
<clipPath id="clip0_774_20513">
<rect width="1535" height="863" fill="white"/>
</clipPath>
</defs>
</svg>
