<svg id="svg-virto-logo"width="337.8" height="80" fill="none" aria-labelledby="Logo virto" role="img" version="1.1" viewBox="0 0 337.8 80" xmlns="http://www.w3.org/2000/svg">
	<title id="a">Logo virto</title>
	<path d="m40.85 79.36 36.75-77.75c0.3216-0.7229-0.161-1.606-1.046-1.606h-17.05c-0.402 0-0.8043 0.241-1.045 0.6426l-19.38 43.78-19.54-43.78c-0.1608-0.4016-0.5629-0.6426-1.045-0.6426h-17.37c-0.8042 0-1.367 0.8835-1.045 1.606l36.83 77.75c0.1606 0.4016 0.5629 0.6426 1.045 0.6426h1.93c0.4023 0 0.8043-0.3213 0.9653-0.6426zm132.6-27.55c8.605-4.819 13.59-13.09 13.59-24.42 0-17.11-12.06-27.31-32.89-27.31l-35.14-0.08032c-0.6433 0-1.126 0.4819-1.126 1.124v77.75c0 0.6426 0.4826 1.124 1.126 1.124h16.65c0.6436 0 1.126-0.4819 1.126-1.124v-20.8h20.03l11.5 21.37c0.1606 0.4016 0.563 0.5622 0.9649 0.5622h17.69c0.8849 0 1.367-0.8835 0.9652-1.606zm-23.56-10.04h-13.11v-25.54h15.68c11.42 0 15.68 4.578 15.68 12.05-0.0803 8.835-5.71 13.49-18.26 13.49zm167.1-1.767-12.14 21.04h-25.49l-12.14-21.04 12.14-21.04h25.49zm-5.79-40h-38.12c-2.895 0-5.549 1.526-6.997 4.016l-18.5 31.97c-1.448 2.49-1.448 5.542 0 8.032l18.5 31.97c1.448 2.49 4.101 4.016 6.997 4.016h38.12c2.895 0 5.549-1.526 6.997-4.016l18.5-31.97c1.448-2.49 1.448-5.542 0-8.032l-18.5-31.97c-1.448-2.49-4.102-4.016-6.997-4.016zm-102.2 16.14h-16.65c-0.6436 0-1.126-0.4819-1.126-1.124v-13.9c0-0.6426 0.4823-1.124 1.126-1.124h51.87c0.6433 0 1.126 0.4819 1.126 1.124v13.9c0 0.6426-0.4826 1.124-1.126 1.124h-16.57v62.73c0 0.6426-0.4823 1.124-1.126 1.124h-16.41c-0.6433 0-1.126-0.4819-1.126-1.124zm-122.1-16.14h16.33c0.6433 0 1.126 0.4819 1.126 1.124v77.75c0 0.6426-0.4826 1.124-1.126 1.124h-16.33c-0.6433 0-1.126-0.4819-1.126-1.124v-77.75c0-0.6426 0.4826-1.124 1.126-1.124z" fill="none" stroke-width="2.864"/>
</svg>
