<svg class="link-to" width="197" height="148" viewBox="0 0 197 148" fill="none" xmlns="http://www.w3.org/2000/svg">
<path d="M53.6169 65.8765V62.4231C53.6169 61.7983 53.4199 61.2063 53.0916 60.68C52.7633 60.1538 52.2708 59.7591 51.6798 59.5289L30.1411 50.6489V52.5565L49.3158 60.4498C49.5128 60.5485 49.6769 60.68 49.7426 60.8774C49.8083 61.0747 49.8083 61.3049 49.7426 61.5023C49.7098 61.6009 49.6441 61.6996 49.5784 61.7654C49.5128 61.8311 49.4143 61.8969 49.3158 61.9298L30.1411 69.856V77.6178L41.6984 72.8489L49.2829 75.9734C49.3814 76.0063 49.4799 76.072 49.5456 76.1378C49.6113 76.2036 49.6769 76.3023 49.7098 76.4009C49.7426 76.4996 49.7754 76.5983 49.7754 76.6969C49.7754 76.7956 49.7426 76.8943 49.7098 76.9929C49.6769 77.0916 49.6113 77.1903 49.5456 77.256C49.4799 77.3218 49.3814 77.3876 49.2829 77.4205L30.1411 85.3138V97.5485L51.6469 88.7014C52.2051 88.4712 52.6976 88.0765 53.0588 87.5503C53.3871 87.024 53.5841 86.432 53.5841 85.8071V77.848C53.5841 77.2231 53.3871 76.6311 53.0588 76.1049C52.7304 75.5787 52.2379 75.184 51.6469 74.9538L44.0296 71.7965L51.6469 68.672C52.2379 68.4418 52.7304 68.0471 53.0588 67.5538C53.4528 67.0934 53.6169 66.5014 53.6169 65.8765Z" fill="#010202"/>
<path d="M75.6154 64.561L76.9944 69.7246L78.3406 64.561H79.6211L77.6182 71.5664H76.5347L74.9916 65.9424L73.5141 71.5664H72.4306L70.4277 64.561H71.7082L73.0544 69.7246L74.4334 64.561H75.6154Z" fill="#010202"/>
<path d="M83.3308 70.6784C83.7248 70.7113 84.1188 70.6126 84.48 70.4153C84.8083 70.218 85.1038 69.8891 85.2351 69.5273H86.45C86.1216 70.7442 85.0053 71.7308 83.3308 71.7308C81.131 71.7308 79.8833 70.1522 79.8833 68.0802C79.8833 65.8766 81.3608 64.4624 83.2651 64.4624C85.3993 64.4624 86.6798 66.2713 86.5156 68.4748H81.1638C81.1638 68.7708 81.1966 69.0668 81.2951 69.33C81.3936 69.5931 81.5578 69.8562 81.7548 70.0535C81.9518 70.2508 82.1816 70.4153 82.4443 70.5468C82.7726 70.6455 83.0681 70.6784 83.3308 70.6784ZM85.3008 67.4224C85.2351 66.8962 85.0053 66.4357 84.6441 66.1068C84.2501 65.778 83.7576 65.5806 83.2651 65.5806C82.7398 65.5806 82.2473 65.778 81.8861 66.1068C81.4921 66.4357 81.2623 66.9291 81.2295 67.4224H85.3008Z" fill="#010202"/>
<path d="M88.9784 65.6793C89.2082 65.2846 89.5366 64.9557 89.9634 64.7584C90.3574 64.5282 90.8171 64.4295 91.2767 64.4624C92.8856 64.4624 94.2646 65.8108 94.2646 68.113C94.2646 70.4153 92.8856 71.7637 91.2767 71.7637C90.8171 71.7966 90.3574 71.6979 89.9634 71.4677C89.5694 71.2375 89.2082 70.9415 88.9784 70.5468V71.5993H87.7964V62.1602H88.9784V65.6793ZM92.9512 68.0802C92.9512 66.4028 92.1632 65.449 90.9484 65.449C89.8977 65.449 88.9127 66.2384 88.9127 68.0802C88.9127 69.9219 89.8977 70.7113 90.9484 70.7113C92.1632 70.7113 92.9512 69.7575 92.9512 68.0802Z" fill="#010202"/>
<path d="M97.8434 67.1265H97.6464V66.0411H97.8106C99.4523 66.0411 100.306 65.5807 100.306 64.4624C100.306 63.4429 99.4851 62.9167 98.4673 62.9167C98.2046 62.8838 97.9419 62.9167 97.7121 63.0153C97.4823 63.0811 97.2524 63.2127 97.0554 63.41C96.8584 63.5744 96.6943 63.8047 96.5958 64.0349C96.4973 64.2651 96.4316 64.5282 96.4316 64.7913H95.2168C95.3481 63.114 96.5301 61.9629 98.5329 61.9629C100.175 61.9629 101.586 62.6207 101.586 64.3638C101.586 64.8571 101.455 65.3176 101.16 65.7122C100.897 66.1069 100.503 66.4029 100.043 66.5673C101.455 66.9949 101.849 67.9487 101.849 68.9353C101.849 70.8429 100.24 71.7638 98.4344 71.7638C96.2346 71.7638 95.2168 70.3824 95.0854 68.8038H96.3003C96.4316 69.9549 97.1211 70.7771 98.4344 70.7771C99.6821 70.7771 100.569 70.1193 100.569 68.9682C100.569 67.554 99.3538 67.1265 97.8434 67.1265Z" fill="#010202"/>
<path d="M108.547 62.127H109.171V63.1136H108.58C107.956 63.1136 107.857 63.2452 107.857 63.9687V64.5278H109.171V65.4816H107.857V71.5332H106.675V65.4816H105.69V64.5278H106.675V64.0345C106.675 62.5874 106.971 62.127 108.547 62.127Z" fill="#010202"/>
<path d="M112.947 71.7308C111.338 71.7308 109.598 70.6126 109.598 68.0802C109.598 65.5477 111.305 64.4624 112.947 64.4624C114.588 64.4624 116.296 65.5806 116.296 68.1131C116.296 70.6455 114.555 71.7308 112.947 71.7308ZM115.048 68.0802C115.048 66.2055 114.03 65.482 112.947 65.482C111.863 65.482 110.845 66.1726 110.845 68.0802C110.845 69.9877 111.863 70.6784 112.947 70.6784C113.997 70.6784 115.048 69.8891 115.048 68.0802Z" fill="#010202"/>
<path d="M119.71 71.7305C118.101 71.7305 117.478 70.6452 117.478 69.0336V64.5607H118.66V68.6718C118.66 69.7572 118.857 70.6781 120.137 70.6781C121.253 70.6781 121.91 69.8887 121.91 68.3758V64.5278H123.092V71.5332H121.91V70.5136C121.68 70.9083 121.352 71.2043 120.991 71.4016C120.597 71.6647 120.137 71.7634 119.71 71.7305Z" fill="#010202"/>
<path d="M128.181 64.4622C129.889 64.4622 130.48 65.5476 130.48 67.1591V71.5991H129.298V67.5209C129.298 66.4356 129.101 65.5147 127.754 65.5147C126.605 65.5147 125.916 66.304 125.916 67.8169V71.632H124.767V64.6267H125.949V65.6791C126.178 65.2844 126.507 64.9884 126.901 64.7911C127.295 64.5938 127.754 64.4293 128.181 64.4622Z" fill="#010202"/>
<path d="M138.13 62.1271V71.5662H136.948V70.5138C136.718 70.9085 136.39 71.2373 135.963 71.4347C135.569 71.6649 135.109 71.7636 134.649 71.7307C133.041 71.7307 131.662 70.4151 131.662 68.08C131.662 65.7778 133.041 64.4293 134.649 64.4293C135.109 64.3965 135.569 64.4951 135.963 64.7253C136.357 64.9556 136.718 65.2516 136.948 65.6462V62.0942L138.13 62.1271ZM132.942 68.08C132.942 69.7573 133.73 70.7111 134.945 70.7111C135.996 70.7111 136.981 69.9218 136.981 68.08C136.981 66.2382 135.996 65.4489 134.945 65.4489C133.73 65.4489 132.942 66.4356 132.942 68.08Z" fill="#010202"/>
<path d="M144.105 67.2578V67.0934C144.105 65.8107 143.383 65.3832 142.529 65.3832C141.544 65.3832 140.986 65.9094 140.921 66.7645H139.706C139.837 65.2516 141.15 64.3965 142.529 64.3965C144.467 64.3965 145.32 65.3174 145.32 67.2907V68.9023C145.287 69.7903 145.353 70.6783 145.517 71.5334H144.335C144.27 71.2045 144.27 70.8756 144.237 70.5796C143.81 71.3032 143.088 71.6978 141.84 71.6978C140.527 71.6978 139.443 70.9743 139.443 69.6916C139.345 68.08 141.216 67.5867 144.105 67.2578ZM140.658 69.6916C140.658 70.3494 141.15 70.8098 142.004 70.8098C143.12 70.8098 144.171 70.3165 144.171 68.6391V68.2116C142.037 68.4089 140.658 68.7378 140.658 69.6916Z" fill="#010202"/>
<path d="M148.308 62.8179V64.561H149.621V65.5148H148.308V69.6588C148.308 70.3823 148.374 70.5797 149.03 70.5797H149.621V71.5663H148.768C147.422 71.5663 147.126 71.2703 147.126 69.8232V65.5148H146.01V64.561H147.126V62.8179H148.308Z" fill="#010202"/>
<path d="M151.952 63.5741H150.771V62.127H151.952V63.5741ZM151.952 71.5661H150.771V64.5607H151.952V71.5661Z" fill="#010202"/>
<path d="M156.549 71.7305C154.908 71.7305 153.2 70.6123 153.2 68.0799C153.2 65.5474 154.94 64.4292 156.549 64.4292C158.191 64.4292 159.898 65.5474 159.898 68.0799C159.898 70.6123 158.191 71.7305 156.549 71.7305ZM158.651 68.0799C158.651 66.2052 157.633 65.4816 156.549 65.4816C155.466 65.4816 154.448 66.1723 154.448 68.0799C154.448 69.9874 155.466 70.6781 156.549 70.6781C157.633 70.6781 158.651 69.8888 158.651 68.0799Z" fill="#010202"/>
<path d="M164.626 64.4624C166.334 64.4624 166.925 65.5477 166.925 67.1593V71.5993H165.743V67.5211C165.743 66.4357 165.546 65.5148 164.199 65.5148C163.05 65.5148 162.361 66.3042 162.361 67.8171V71.6322H161.179V64.6268H162.361V65.6793C162.591 65.2846 162.919 64.9886 163.313 64.7584C163.707 64.4953 164.167 64.4295 164.626 64.4624Z" fill="#010202"/>
<path d="M77.1584 79.0651V85.1167C77.1584 86.5638 76.8957 87.1229 76.5017 87.5833C76.1734 87.9122 75.8122 88.1424 75.3854 88.3069C74.9585 88.4713 74.5317 88.5371 74.072 88.5042C72.496 88.5042 71.4125 87.7807 71.2155 86.3664H72.4632C72.6274 86.9913 72.9885 87.4847 74.072 87.4847C74.3347 87.5176 74.5974 87.4518 74.8272 87.386C75.0899 87.2873 75.2869 87.1558 75.4839 86.9584C75.7465 86.6953 75.9435 86.3664 75.9435 85.4127V84.7549C75.7137 85.1496 75.3854 85.4784 74.9914 85.6758C74.5974 85.906 74.1377 85.9718 73.7109 85.9718C72.1677 85.9718 70.7559 84.722 70.7559 82.4856C70.7559 80.2491 72.1677 78.9993 73.7109 78.9993C74.1705 78.9664 74.5974 79.0651 74.9914 79.2953C75.3854 79.5256 75.7137 79.8216 75.9107 80.2162V79.098H77.1584V79.0651ZM72.0692 82.4527C72.0692 84.0642 72.89 84.9522 74.0392 84.9522C75.0899 84.9522 76.0092 84.2287 76.0092 82.4527C76.0092 80.6767 75.0899 79.9531 74.0392 79.9531C72.89 79.9531 72.0692 80.8411 72.0692 82.4527Z" fill="#010202"/>
<path d="M81.6235 80.2491C80.54 80.2491 79.9818 80.874 79.9818 82.3869V86.0705H78.7998V79.0651H79.949V80.282C80.1131 79.8873 80.4086 79.5913 80.737 79.3611C81.0981 79.1309 81.4921 79.0322 81.919 79.0322C82.0503 79.0322 82.1488 79.0322 82.2801 79.0322V80.282C82.0831 80.2491 81.8533 80.2491 81.6235 80.2491Z" fill="#010202"/>
<path d="M87.5009 81.7619V81.5646C87.5009 80.2819 86.7786 79.8543 85.925 79.8543C84.94 79.8543 84.3818 80.3806 84.3161 81.2357H83.1013C83.2326 79.7228 84.546 78.8677 85.925 78.8677C87.8621 78.8677 88.7158 79.7886 88.7158 81.7619V83.3735C88.683 84.2615 88.7486 85.1495 88.9128 86.0046H87.7308C87.6651 85.6757 87.6323 85.3797 87.6323 85.0508C87.2054 85.7743 86.4831 86.169 85.2355 86.169C83.9221 86.169 82.8386 85.4455 82.8386 84.1628C82.773 82.5512 84.6116 82.0908 87.5009 81.7619ZM84.0863 84.1957C84.0863 84.8535 84.5788 85.3139 85.4325 85.3139C86.5488 85.3139 87.5994 84.8206 87.5994 83.1432V82.7157C85.4324 82.913 84.0863 83.209 84.0863 84.1957Z" fill="#010202"/>
<path d="M93.7063 78.9334C95.3808 78.9334 96.0046 80.0187 96.0046 81.6303V86.0703H94.8226V81.9921C94.8226 80.9067 94.6256 79.9859 93.2795 79.9859C92.1303 79.9859 91.4408 80.7752 91.4408 82.2881V86.1032H90.2588V79.0979H91.4408V80.1503C91.6706 79.7556 91.999 79.4596 92.393 79.2294C92.787 78.9992 93.2466 78.9005 93.7063 78.9334Z" fill="#010202"/>
<path d="M99.0581 77.2891V79.0322H100.371V79.986H99.0581V84.13C99.0581 84.8535 99.1238 85.0508 99.7804 85.0508H100.371V86.0375H99.5178C98.1716 86.0375 97.8761 85.7415 97.8761 84.2944V80.0188H96.7598V79.0651H97.8761V77.2891H99.0581Z" fill="#010202"/>
<path d="M103.885 79.953C103.195 79.953 102.407 80.1832 102.407 80.841C102.407 81.4001 102.801 81.6632 103.491 81.7947L104.476 81.9921C105.756 82.2552 106.873 82.7156 106.873 84.0641C106.873 85.4125 105.625 86.2348 104.016 86.2348C102.177 86.2348 101.127 85.0179 101.028 83.801H102.276C102.342 84.2285 102.539 84.6232 102.867 84.8863C103.195 85.1494 103.622 85.281 104.049 85.2481C104.935 85.2481 105.658 84.8534 105.658 84.1956C105.658 83.5379 105.001 83.1761 104.246 83.0445L103.195 82.8472C102.243 82.6499 101.225 82.2223 101.225 80.9068C101.225 79.657 102.473 78.9663 104.016 78.9663C105.559 78.9663 106.544 79.8214 106.774 81.137H105.526C105.362 80.2819 104.706 79.953 103.885 79.953Z" fill="#010202"/>
<path d="M112.585 80.15C112.815 79.7553 113.143 79.4264 113.57 79.1962C113.964 78.966 114.424 78.8673 114.884 78.9002C116.492 78.9002 117.871 80.2487 117.871 82.5509C117.871 84.8531 116.492 86.2015 114.884 86.2015C114.424 86.2344 113.964 86.1358 113.57 85.9055C113.176 85.6753 112.815 85.3793 112.585 84.9518V88.2735H111.403V78.9989H112.585V80.15ZM116.558 82.5838C116.558 80.9064 115.77 79.9527 114.555 79.9527C113.505 79.9527 112.52 80.742 112.52 82.5838C112.52 84.4255 113.505 85.2149 114.555 85.2149C115.77 85.2149 116.558 84.2611 116.558 82.5838Z" fill="#010202"/>
<path d="M121.91 80.2491C120.827 80.2491 120.268 80.874 120.268 82.3869V86.0705H119.086V79.0651H120.236V80.282C120.4 79.8873 120.695 79.5913 121.024 79.3611C121.385 79.1309 121.779 79.0322 122.206 79.0322C122.337 79.0322 122.435 79.0322 122.567 79.0322V80.282C122.37 80.2491 122.14 80.2491 121.91 80.2491Z" fill="#010202"/>
<path d="M126.375 86.2344C124.734 86.2344 123.026 85.1162 123.026 82.5838C123.026 80.0513 124.767 78.9331 126.375 78.9331C128.017 78.9331 129.724 80.0513 129.724 82.5838C129.724 85.1162 128.017 86.2344 126.375 86.2344ZM128.477 82.5838C128.477 80.7091 127.459 79.9855 126.375 79.9855C125.325 79.9855 124.274 80.6762 124.274 82.5838C124.274 84.4913 125.292 85.182 126.375 85.182C127.459 85.182 128.477 84.3927 128.477 82.5838Z" fill="#010202"/>
<path d="M136.948 79.0651V85.1167C136.948 86.5638 136.685 87.1229 136.291 87.5833C135.963 87.9122 135.602 88.1424 135.175 88.3069C134.748 88.4713 134.321 88.5371 133.862 88.5042C132.286 88.5042 131.202 87.7807 130.972 86.3664H132.253C132.417 86.9913 132.778 87.4847 133.862 87.4847C134.124 87.5176 134.387 87.4518 134.617 87.386C134.879 87.2873 135.076 87.1558 135.273 86.9584C135.536 86.6953 135.733 86.3664 135.733 85.4127V84.7549C135.503 85.1496 135.175 85.4784 134.781 85.6758C134.387 85.906 133.927 85.9718 133.5 85.9718C131.957 85.9718 130.545 84.722 130.545 82.4856C130.545 80.2491 131.957 78.9993 133.5 78.9993C133.96 78.9664 134.387 79.0651 134.781 79.2953C135.175 79.5256 135.503 79.8216 135.7 80.2491V79.1309H136.948V79.0651ZM131.859 82.4527C131.859 84.0642 132.68 84.9522 133.829 84.9522C134.879 84.9522 135.799 84.2287 135.799 82.4527C135.799 80.6767 134.879 79.9531 133.829 79.9531C132.68 79.9531 131.859 80.8411 131.859 82.4527Z" fill="#010202"/>
<path d="M141.413 80.2491C140.33 80.2491 139.771 80.874 139.771 82.3869V86.0705H138.589V79.0651H139.739V80.282C139.903 79.8873 140.198 79.5913 140.527 79.3611C140.888 79.1309 141.282 79.0322 141.709 79.0322C141.84 79.0322 141.938 79.0322 142.07 79.0322V80.282C141.873 80.2491 141.643 80.2491 141.413 80.2491Z" fill="#010202"/>
<path d="M147.291 81.7619V81.5646C147.291 80.2819 146.568 79.8543 145.714 79.8543C144.729 79.8543 144.171 80.3806 144.106 81.2357H142.891C143.022 79.7228 144.335 78.8677 145.714 78.8677C147.652 78.8677 148.505 79.7886 148.505 81.7619V83.3735C148.472 84.2615 148.538 85.1495 148.702 86.0046H147.52C147.455 85.6757 147.455 85.3797 147.422 85.0508C146.995 85.7743 146.273 86.169 145.025 86.169C143.712 86.169 142.628 85.4455 142.628 84.1628C142.563 82.5512 144.401 82.0908 147.291 81.7619ZM143.843 84.1957C143.843 84.8535 144.336 85.3139 145.189 85.3139C146.306 85.3139 147.356 84.8206 147.356 83.1432V82.7157C145.222 82.913 143.843 83.209 143.843 84.1957Z" fill="#010202"/>
<path d="M150.048 86.0703V79.065H151.23V80.1174C151.427 79.7556 151.756 79.4267 152.117 79.2294C152.478 79.0321 152.905 78.9334 153.332 78.9334C154.415 78.9334 155.039 79.3939 155.335 80.1832C155.597 79.7885 155.926 79.4596 156.352 79.2294C156.779 78.9992 157.239 78.9005 157.699 78.9334C159.34 78.9334 159.964 80.0187 159.964 81.6303V86.0374H158.782V81.9921C158.782 80.9067 158.585 79.9859 157.305 79.9859C156.287 79.9859 155.597 80.7752 155.597 82.2881V86.1032H154.415V82.025C154.415 80.9396 154.218 80.0187 152.938 80.0187C151.92 80.0187 151.263 80.8081 151.263 82.321V86.1361H150.048V86.0703Z" fill="#010202"/>
</svg>
