<?xml version="1.0" encoding="utf-8"?>
<!-- Generator: Adobe Illustrator 27.8.1, SVG Export Plug-In . SVG Version: 6.00 Build 0)  -->
<svg version="1.1" id="Capa_1" xmlns="http://www.w3.org/2000/svg" xmlns:xlink="http://www.w3.org/1999/xlink" x="0px" y="0px"
	 viewBox="0 0 658.25 447.63" style="enable-background:new 0 0 658.25 447.63;" xml:space="preserve">
<style type="text/css">
	.st0{fill:#10352B;}
	.st1{fill:#51CB59;}
	.st2{fill:#A8E6A5;}
	.st3{fill:#DECFF1;}
	.st4{fill:#915FD0;}
	.st5{fill:#C8AFE7;}
	.st6{fill:#80D4F1;}
	.st7{fill:#F3F5F4;}
	.st8{fill:#F2E770;}
	.st9{fill:#FFFFFF;}
	.st10{fill:#F2D54C;}
	.st11{fill-rule:evenodd;clip-rule:evenodd;fill:#F2E770;}
	.st12{fill-rule:evenodd;clip-rule:evenodd;fill:#C8AFE7;}
	.st13{fill-rule:evenodd;clip-rule:evenodd;fill:#915FD0;}
	.st14{fill-rule:evenodd;clip-rule:evenodd;fill:#FD6085;}
	.st15{fill-rule:evenodd;clip-rule:evenodd;fill:#DECFF1;}
	.st16{fill:#00A8E3;}
	.st17{fill:#59A57C;}
	.st18{fill:#7ED4A7;}
	.st19{fill:#EDDFCE;}
	.st20{fill:#DBCBB9;}
	.st21{fill:#FDCE5E;}
	.st22{fill-rule:evenodd;clip-rule:evenodd;fill:#A8E6A5;}
	.st23{fill-rule:evenodd;clip-rule:evenodd;fill:#51CB59;}
	.st24{fill-rule:evenodd;clip-rule:evenodd;fill:#EBFDFF;}
	.st25{fill-rule:evenodd;clip-rule:evenodd;fill:#7DB8B5;}
	.st26{fill-rule:evenodd;clip-rule:evenodd;fill:#9CDAD7;}
	.st27{fill-rule:evenodd;clip-rule:evenodd;fill:#007976;}
	.st28{fill-rule:evenodd;clip-rule:evenodd;fill:#2C4B5F;}
	.st29{fill-rule:evenodd;clip-rule:evenodd;fill:#182F3B;}
</style>
<g>
	<path class="st7" d="M656.25,445.41c-2.55,2.54-3.08,1.37-6.68,1.37c-3.6,0-3.6-2-7.2-2c-3.6,0-3.6-0.18-7.2-0.18
		c-3.6,0-3.6,2.75-7.2,2.75c-3.6,0-3.6-0.98-7.2-0.98c-3.6,0-3.6-0.53-7.19-0.53c-3.6,0-3.6-1.33-7.19-1.33
		c-3.6,0-3.6,1.91-7.19,1.91c-3.6,0-3.6-0.03-7.19-0.03c-3.6,0-3.6,0.48-7.19,0.48c-3.6,0-3.6,0.2-7.2,0.2c-3.6,0-3.6-0.27-7.2-0.27
		c-3.6,0-3.6-0.59-7.2-0.59c-3.6,0-3.6,0.08-7.2,0.08c-3.6,0-3.6-0.98-7.2-0.98c-3.6,0-3.6,2.01-7.19,2.01
		c-3.6,0-3.6-1.85-7.19-1.85c-3.6,0-3.6,0.51-7.19,0.51c-3.6,0-3.6-1.04-7.2-1.04c-3.6,0-3.6-0.42-7.2-0.42
		c-3.6,0-3.6,2.24-7.2,2.24c-3.6,0-3.6-1.47-7.2-1.47c-3.6,0-3.6-0.74-7.2-0.74c-3.6,0-3.6,2.46-7.2,2.46c-3.6,0-3.6-0.02-7.2-0.02
		c-3.6,0-3.6-2.03-7.2-2.03c-3.6,0-3.6,1.6-7.2,1.6c-3.6,0-3.6-1.62-7.2-1.62c-3.6,0-3.6,1.57-7.2,1.57c-3.6,0-3.6-1.97-7.2-1.97
		c-3.6,0-3.6,0.23-7.2,0.23c-3.6,0-3.6,0.07-7.2,0.07c-3.6,0-3.6,1.64-7.2,1.64c-3.6,0-3.6-0.97-7.2-0.97c-3.6,0-3.6,1.14-7.2,1.14
		c-3.6,0-3.6-1.93-7.2-1.93c-3.6,0-3.6,0.7-7.2,0.7c-3.6,0-3.6,1.15-7.2,1.15c-3.6,0-3.6-0.46-7.2-0.46c-3.6,0-3.6-1.38-7.2-1.38
		c-3.6,0-3.6,2.64-7.2,2.64c-3.6,0-3.6-1.14-7.2-1.14c-3.6,0-3.6,0.74-7.2,0.74c-3.6,0-3.6-0.73-7.2-0.73c-3.6,0-3.6-1.53-7.2-1.53
		c-3.6,0-3.6,0.7-7.2,0.7c-3.6,0-3.6,1.46-7.2,1.46c-3.6,0-3.6-2.1-7.2-2.1c-3.6,0-3.6,0.34-7.2,0.34c-3.6,0-3.6,1.83-7.2,1.83
		c-3.6,0-3.6-1.11-7.2-1.11c-3.6,0-3.6,1.62-7.2,1.62c-3.6,0-3.6-1.98-7.2-1.98c-3.6,0-3.6-0.74-7.2-0.74c-3.6,0-3.6,1.35-7.2,1.35
		c-3.6,0-3.6-0.65-7.2-0.65c-3.6,0-3.6,0.95-7.2,0.95c-3.6,0-3.6-1.81-7.2-1.81c-3.6,0-3.6,0.01-7.2,0.01c-3.6,0-3.6,2.59-7.2,2.59
		c-3.6,0-3.6-0.98-7.2-0.98c-3.6,0-3.6,0.09-7.2,0.09c-3.6,0-3.6-1.51-7.2-1.51c-3.6,0-3.6,1.08-7.19,1.08c-3.6,0-3.6-0.91-7.2-0.91
		c-3.6,0-3.6,2.31-7.2,2.31c-3.6,0-3.6-0.37-7.2-0.37c-3.6,0-3.6-2.16-7.2-2.16c-3.6,0-3.6,0.5-7.2,0.5c-3.6,0-3.6-0.4-7.2-0.4
		c-3.6,0-3.6,1.53-7.2,1.53c-3.6,0-3.6,0.47-7.2,0.47c-3.6,0-3.6-2.27-7.2-2.27c-3.6,0-3.6,2.38-7.2,2.38c-3.6,0-3.6-2.02-7.2-2.02
		c-3.6,0-3.6,1.01-7.2,1.01c-3.6,0-3.6-0.93-7.2-0.93c-3.6,0-3.6,2.28-7.2,2.28c-3.6,0-3.6-0.65-7.2-0.65c-3.6,0-3.6-1.73-7.2-1.73
		c-3.6,0-3.6-0.21-7.2-0.21c-3.6,0-3.6,1.57-7.2,1.57c-3.6,0-3.6,0.17-7.2,0.17c-3.6,0-3.6-0.93-7.2-0.93c-3.6,0-3.6,0.67-7.2,0.67
		c-3.6,0-3.6,1.17-7.2,1.17c-3.6,0-3.6-0.56-7.2-0.56c-3.6,0-3.6-1.86-7.2-1.86c-3.6,0-3.6,1.1-7.21,1.1
		c-3.61,0-3.61,0.79-7.21,0.79s-5.12,2.16-7.68-0.38c-2.54-2.52,0.64-4.06,0.64-7.64c0-3.58-0.9-3.58-0.9-7.16
		c0-3.58,1.16-3.58,1.16-7.16c0-3.58-1.82-3.58-1.82-7.17c0-3.58,1.24-3.58,1.24-7.17c0-3.58,0.06-3.58,0.06-7.17
		c0-3.58-0.85-3.58-0.85-7.17c0-3.58-0.19-3.58-0.19-7.17c0-3.58,1.11-3.58,1.11-7.17c0-3.58,0.27-3.58,0.27-7.17
		c0-3.58,0.21-3.58,0.21-7.17c0-3.58-1.43-3.58-1.43-7.17c0-3.58,0.62-3.58,0.62-7.17c0-3.58,0.96-3.58,0.96-7.17
		c0-3.58-0.19-3.58-0.19-7.17c0-3.58-0.84-3.58-0.84-7.17c0-3.58-0.17-3.58-0.17-7.17c0-3.58,0.23-3.58,0.23-7.17
		c0-3.58,1.57-3.58,1.57-7.17c0-3.58-0.97-3.58-0.97-7.17c0-3.58-0.92-3.58-0.92-7.17c0-3.58-0.09-3.58-0.09-7.17
		c0-3.58-0.06-3.58-0.06-7.17c0-3.58,2.25-3.58,2.25-7.17c0-3.58-0.58-3.58-0.58-7.17c0-3.58-0.07-3.58-0.07-7.17
		c0-3.58-1.55-3.58-1.55-7.17c0-3.58,1.64-3.58,1.64-7.17c0-3.58,0.45-3.58,0.45-7.17c0-3.58,0.19-3.58,0.19-7.17
		c0-3.58-2.26-3.58-2.26-7.17c0-3.58,0.01-3.58,0.01-7.17c0-3.58,1.86-3.58,1.86-7.17c0-3.58-0.35-3.58-0.35-7.16
		c0-3.58-1.22-3.58-1.22-7.16c0-3.58,0.4-3.58,0.4-7.17c0-3.58,0.25-3.58,0.25-7.17c0-3.58,0.63-3.58,0.63-7.16
		c0-3.58-2.28-3.58-2.28-7.17c0-3.58,0.18-3.58,0.18-7.17c0-3.58,2.33-3.58,2.33-7.17c0-3.58-0.79-3.58-0.79-7.17
		c0-3.58-0.32-3.58-0.32-7.17c0-3.58-0.12-3.58-0.12-7.17c0-3.58,1.12-3.58,1.12-7.17c0-3.59-0.51-3.59-0.51-7.17
		c0-3.58,0.91-3.58,0.91-7.17c0-3.59-1.35-3.59-1.35-7.17c0-3.59-0.63-3.59-0.63-7.17c0-3.59-0.28-3.59-0.28-7.17
		c0-3.59-0.42-3.59-0.42-7.17c0-3.59,2.24-3.59,2.24-7.17c0-3.59-0.31-3.59-0.31-7.17c0-3.58,0.03-3.58,0.03-7.17
		c0-3.59-0.25-3.59-0.25-7.17c0-3.59,0.29-3.59,0.29-7.17c0-3.59,0.59-3.59,0.59-7.17c0-3.59-2.19-3.59-2.19-7.17
		c0-3.58-0.28-3.58-0.28-7.17c0-3.59,1.91-3.59,1.91-7.18c0-3.59-0.94-3.59-0.94-7.18c0-3.59-2.87-5.2-0.33-7.74
		c2.55-2.54,4.16,1.07,7.75,1.07c3.6,0,3.6-0.64,7.2-0.64c3.6,0,3.6-0.19,7.2-0.19c3.6,0,3.6-0.63,7.2-0.63c3.6,0,3.6,1.22,7.2,1.22
		c3.6,0,3.6-0.3,7.19-0.3c3.6,0,3.6-1.3,7.19-1.3c3.6,0,3.6,0.35,7.19,0.35c3.6,0,3.6,1.13,7.19,1.13c3.6,0,3.6,0.35,7.19,0.35
		c3.6,0,3.6,0.73,7.2,0.73c3.6,0,3.6-1.25,7.2-1.25c3.6,0,3.6,0.61,7.2,0.61c3.6,0,3.6,0.35,7.2,0.35c3.6,0,3.6-2.14,7.2-2.14
		c3.6,0,3.6-0.2,7.19-0.2c3.6,0,3.6,0.5,7.19,0.5c3.6,0,3.6,1.31,7.19,1.31c3.6,0,3.6,0.14,7.2,0.14c3.6,0,3.6-1.43,7.2-1.43
		c3.6,0,3.6,1.9,7.2,1.9c3.6,0,3.6-0.29,7.2-0.29c3.6,0,3.6,0.5,7.2,0.5c3.6,0,3.6-2.26,7.2-2.26c3.6,0,3.6,1.28,7.2,1.28
		c3.6,0,3.6-0.24,7.2-0.24c3.6,0,3.6-0.45,7.2-0.45c3.6,0,3.6,0.86,7.2,0.86c3.6,0,3.6,0.1,7.2,0.1c3.6,0,3.6,0.3,7.2,0.3
		c3.6,0,3.6-2.27,7.2-2.27c3.6,0,3.6,1.01,7.2,1.01c3.6,0,3.6-0.83,7.2-0.83c3.6,0,3.6,0.01,7.2,0.01c3.6,0,3.6,0.37,7.2,0.37
		c3.6,0,3.6-0.14,7.2-0.14c3.6,0,3.6,2.29,7.2,2.29c3.6,0,3.6-1.56,7.2-1.56c3.6,0,3.6-0.29,7.2-0.29c3.6,0,3.6,1.81,7.2,1.81
		c3.6,0,3.6-0.51,7.2-0.51c3.6,0,3.6-1.96,7.2-1.96c3.6,0,3.6,0.61,7.2,0.61c3.6,0,3.6,0.24,7.2,0.24c3.6,0,3.6-0.85,7.2-0.85
		c3.6,0,3.6-0.14,7.2-0.14c3.6,0,3.6,0.06,7.2,0.06c3.6,0,3.6,2.69,7.2,2.69c3.6,0,3.6-1.46,7.2-1.46c3.6,0,3.6,0.86,7.2,0.86
		c3.6,0,3.6-0.99,7.2-0.99c3.6,0,3.6,0.82,7.2,0.82c3.6,0,3.6-1.98,7.2-1.98c3.6,0,3.6,0.79,7.2,0.79c3.6,0,3.6,1.83,7.2,1.83
		c3.6,0,3.6-1.93,7.2-1.93c3.6,0,3.6-0.65,7.2-0.65c3.6,0,3.6,2.34,7.2,2.34c3.6,0,3.6-2.24,7.2-2.24c3.6,0,3.6,0.83,7.2,0.83
		c3.6,0,3.6,0.44,7.2,0.44c3.6,0,3.6,0.6,7.2,0.6c3.6,0,3.6-0.14,7.2-0.14c3.6,0,3.6-0.85,7.19-0.85c3.6,0,3.6-1.03,7.2-1.03
		c3.6,0,3.6,2.61,7.2,2.61c3.6,0,3.6-2.38,7.2-2.38c3.6,0,3.6,1.61,7.2,1.61c3.6,0,3.6-0.82,7.2-0.82c3.6,0,3.6,0.89,7.2,0.89
		c3.6,0,3.6,0.77,7.2,0.77c3.6,0,3.6-2.53,7.2-2.53c3.6,0,3.6,1.29,7.2,1.29c3.6,0,3.6-1.11,7.2-1.11c3.6,0,3.6,0.62,7.2,0.62
		c3.6,0,3.6,0.86,7.2,0.86c3.6,0,3.6,0.84,7.2,0.84c3.6,0,3.6,0.11,7.2,0.11c3.6,0,3.6-0.69,7.2-0.69s3.6-1.14,7.2-1.14
		c3.6,0,3.6,1.36,7.2,1.36c3.6,0,3.6-1.12,7.2-1.12c3.6,0,3.6-0.75,7.2-0.75c3.6,0,3.6,0.41,7.2,0.41c3.6,0,3.6,1.82,7.2,1.82
		s3.6-1.36,7.2-1.36c3.6,0,3.6,1.34,7.2,1.34c3.6,0,3.6-1.09,7.2-1.09c3.6,0,3.6,1.11,7.21,1.11c3.61,0,3.61-0.42,7.21-0.42
		c3.61,0,4.01-2.72,6.57-0.18c2.54,2.52-0.65,2.93-0.65,6.51c0,3.58,1.05,3.58,1.05,7.16c0,3.58,0.54,3.58,0.54,7.16
		c0,3.58-0.22,3.58-0.22,7.17c0,3.58,1.02,3.58,1.02,7.17c0,3.58,0.27,3.58,0.27,7.17c0,3.58-0.67,3.58-0.67,7.17
		c0,3.58-1.01,3.58-1.01,7.17c0,3.58-0.97,3.58-0.97,7.17c0,3.58,1.54,3.58,1.54,7.17c0,3.58-1.18,3.58-1.18,7.17
		c0,3.58,0.25,3.58,0.25,7.17c0,3.58,0.31,3.58,0.31,7.17c0,3.58-0.4,3.58-0.4,7.17c0,3.58,1.62,3.58,1.62,7.17
		c0,3.58,0.18,3.58,0.18,7.17c0,3.58,0.29,3.58,0.29,7.17c0,3.58-2.58,3.58-2.58,7.17c0,3.58,1.29,3.58,1.29,7.17
		c0,3.58,0.43,3.58,0.43,7.17c0,3.58-1.86,3.58-1.86,7.17c0,3.58,2.34,3.58,2.34,7.17c0,3.58-1.83,3.58-1.83,7.17
		c0,3.58,1.51,3.58,1.51,7.17c0,3.58-2.11,3.58-2.11,7.17c0,3.58,2.44,3.58,2.44,7.17c0,3.58-0.36,3.58-0.36,7.17
		c0,3.58-0.1,3.58-0.1,7.17c0,3.58-0.05,3.58-0.05,7.17c0,3.58,0.88,3.58,0.88,7.17c0,3.58,0.09,3.58,0.09,7.17
		c0,3.58-2.76,3.58-2.76,7.17c0,3.58,2,3.58,2,7.17c0,3.58-0.24,3.58-0.24,7.16c0,3.58-1.42,3.58-1.42,7.16
		c0,3.58,0.03,3.58,0.03,7.17c0,3.58,1.49,3.58,1.49,7.17c0,3.58-0.84,3.58-0.84,7.16c0,3.58,1.4,3.58,1.4,7.17
		c0,3.58-2.35,3.58-2.35,7.17c0,3.58,0.81,3.58,0.81,7.17c0,3.58,1.93,3.58,1.93,7.17c0,3.58-1.31,3.58-1.31,7.17
		c0,3.58-0.9,3.58-0.9,7.17c0,3.58,1.33,3.58,1.33,7.17c0,3.59-0.06,3.59-0.06,7.17c0,3.58,0.12,3.58,0.12,7.17
		c0,3.59-0.62,3.59-0.62,7.17c0,3.59-0.72,3.59-0.72,7.17c0,3.59,1.34,3.59,1.34,7.17c0,3.59-1.14,3.59-1.14,7.17
		c0,3.59,0.82,3.59,0.82,7.17c0,3.59-0.14,3.59-0.14,7.17c0,3.58-0.53,3.58-0.53,7.17c0,3.59-0.06,3.59-0.06,7.17
		c0,3.59-0.75,3.59-0.75,7.17c0,3.59,2.39,3.59,2.39,7.17c0,3.59,0.13,3.59,0.13,7.17c0,3.58,0.12,3.58,0.12,7.17
		c0,3.59-2.55,3.59-2.55,7.18c0,3.59-0.77,3.86-0.13,7.39C656.2,442.46,658.79,442.87,656.25,445.41z"/>
	<path class="st1" d="M656.45,37.13c-2.54,2.54-3.28-0.98-6.88-0.98c-3.6,0-3.6,1.96-7.2,1.96c-3.6,0-3.6-1-7.2-1
		c-3.6,0-3.6-0.78-7.2-0.78c-3.6,0-3.6,0.52-7.2,0.52c-3.6,0-3.6,1.33-7.19,1.33c-3.6,0-3.6,0.55-7.19,0.55
		c-3.6,0-3.6-1.51-7.19-1.51c-3.6,0-3.6-0.32-7.19-0.32c-3.6,0-3.6-0.9-7.19-0.9c-3.6,0-3.6,2.21-7.2,2.21c-3.6,0-3.6,0.72-7.2,0.72
		c-3.6,0-3.6-2.61-7.2-2.61c-3.6,0-3.6,2.37-7.2,2.37c-3.6,0-3.6,0.09-7.2,0.09c-3.6,0-3.6-2.46-7.19-2.46
		c-3.6,0-3.6-0.19-7.19-0.19c-3.6,0-3.6,2-7.19,2c-3.6,0-3.6-0.34-7.2-0.34c-3.6,0-3.6-1.53-7.2-1.53c-3.6,0-3.6,2.61-7.2,2.61
		c-3.6,0-3.6-1.95-7.2-1.95c-3.6,0-3.6,1.59-7.2,1.59c-3.6,0-3.6,0.23-7.2,0.23c-3.6,0-3.6-2.5-7.2-2.5c-3.6,0-3.6,1.49-7.2,1.49
		c-3.6,0-3.6-0.57-7.2-0.57c-3.6,0-3.6,0.38-7.2,0.38c-3.6,0-3.6-0.39-7.2-0.39c-3.6,0-3.6-0.42-7.2-0.42c-3.6,0-3.6-0.69-7.2-0.69
		c-3.6,0-3.6,0.76-7.2,0.76c-3.6,0-3.6,0.61-7.2,0.61c-3.6,0-3.6-1.21-7.2-1.21c-3.6,0-3.6-0.22-7.2-0.22c-3.6,0-3.6,0.38-7.2,0.38
		c-3.6,0-3.6,1.73-7.2,1.73c-3.6,0-3.6,0.64-7.2,0.64c-3.6,0-3.6-1.09-7.2-1.09c-3.6,0-3.6-1.55-7.2-1.55c-3.6,0-3.6,1.99-7.2,1.99
		c-3.6,0-3.6,0.27-7.2,0.27c-3.6,0-3.6-0.24-7.2-0.24c-3.6,0-3.6-1.83-7.2-1.83c-3.6,0-3.6,2.46-7.2,2.46c-3.6,0-3.6-1.69-7.2-1.69
		c-3.6,0-3.6,0.35-7.2,0.35c-3.6,0-3.6-1.23-7.2-1.23c-3.6,0-3.6,0.96-7.2,0.96c-3.6,0-3.6,1.61-7.2,1.61c-3.6,0-3.6-0.68-7.2-0.68
		c-3.6,0-3.6-0.38-7.2-0.38c-3.6,0-3.6-0.82-7.2-0.82c-3.6,0-3.6,0.55-7.2,0.55c-3.6,0-3.6,0.26-7.2,0.26c-3.6,0-3.6,0.92-7.2,0.92
		c-3.6,0-3.6-0.68-7.2-0.68c-3.6,0-3.6,0.52-7.2,0.52c-3.6,0-3.6-1.99-7.2-1.99c-3.6,0-3.6,0.56-7.2,0.56c-3.6,0-3.6,0.48-7.2,0.48
		c-3.6,0-3.6-0.87-7.2-0.87c-3.6,0-3.6,1.87-7.2,1.87c-3.6,0-3.6-1.07-7.19-1.07c-3.6,0-3.6-1.13-7.2-1.13c-3.6,0-3.6,1.92-7.2,1.92
		c-3.6,0-3.6-1.92-7.2-1.92c-3.6,0-3.6,2.1-7.2,2.1c-3.6,0-3.6-1.09-7.2-1.09c-3.6,0-3.6,1.06-7.2,1.06c-3.6,0-3.6-0.62-7.2-0.62
		c-3.6,0-3.6-0.78-7.2-0.78c-3.6,0-3.6,0.45-7.2,0.45c-3.6,0-3.6,0.69-7.2,0.69c-3.6,0-3.6,0.14-7.2,0.14c-3.6,0-3.6,0.5-7.2,0.5
		c-3.6,0-3.6-0.8-7.2-0.8c-3.6,0-3.6-1.4-7.2-1.4c-3.6,0-3.6-0.17-7.2-0.17c-3.6,0-3.6,0.69-7.2,0.69c-3.6,0-3.6,1.41-7.2,1.41
		c-3.6,0-3.6-1.18-7.2-1.18c-3.6,0-3.6,0.28-7.2,0.28c-3.6,0-3.6-0.56-7.2-0.56c-3.6,0-3.6,0.09-7.2,0.09c-3.6,0-3.6,0.69-7.2,0.69
		c-3.6,0-3.6-1.47-7.2-1.47c-3.6,0-3.6,0.29-7.2,0.29c-3.6,0-3.6,0.68-7.21,0.68c-3.61,0-3.61,0.17-7.21,0.17s-5.15,3.07-7.71,0.53
		c-2.55-2.54-0.11-4.09-0.11-7.69c0-3.59,1.44-3.59,1.44-7.19c0-3.6,0.12-3.6,0.12-7.19c0-3.6-0.92-3.6-0.92-7.2
		c0-3.6-2.64-4.7-0.09-7.25c2.54-2.54,3.65,0.75,7.25,0.75c3.6,0,3.6-0.6,7.2-0.6c3.6,0,3.6-1.01,7.2-1.01c3.6,0,3.6-0.48,7.2-0.48
		c3.6,0,3.6,1.41,7.2,1.41c3.6,0,3.6-0.8,7.19-0.8c3.6,0,3.6,2.02,7.19,2.02c3.6,0,3.6-0.94,7.19-0.94c3.6,0,3.6,0.87,7.19,0.87
		c3.6,0,3.6-0.76,7.19-0.76c3.6,0,3.6,0.48,7.2,0.48c3.6,0,3.6-2.19,7.2-2.19c3.6,0,3.6,2.55,7.2,2.55c3.6,0,3.6-2.12,7.2-2.12
		c3.6,0,3.6-0.1,7.2-0.1c3.6,0,3.6-0.37,7.19-0.37c3.6,0,3.6,1.97,7.19,1.97c3.6,0,3.6,0.8,7.19,0.8c3.6,0,3.6-2.74,7.2-2.74
		c3.6,0,3.6,0.19,7.2,0.19c3.6,0,3.6,2.55,7.2,2.55c3.6,0,3.6-0.99,7.2-0.99c3.6,0,3.6-0.49,7.2-0.49c3.6,0,3.6-1.32,7.2-1.32
		c3.6,0,3.6,2.78,7.2,2.78c3.6,0,3.6-2.17,7.2-2.17c3.6,0,3.6,0.16,7.2,0.16c3.6,0,3.6,1.28,7.2,1.28c3.6,0,3.6-1.22,7.2-1.22
		c3.6,0,3.6,0.98,7.2,0.98c3.6,0,3.6-0.08,7.2-0.08c3.6,0,3.6-1.2,7.2-1.2c3.6,0,3.6,0.91,7.2,0.91c3.6,0,3.6,1.27,7.2,1.27
		c3.6,0,3.6-1.83,7.2-1.83c3.6,0,3.6-0.22,7.2-0.22c3.6,0,3.6,0.56,7.2,0.56c3.6,0,3.6-0.7,7.2-0.7c3.6,0,3.6,2.14,7.2,2.14
		c3.6,0,3.6-0.43,7.2-0.43c3.6,0,3.6-0.21,7.2-0.21c3.6,0,3.6-0.53,7.2-0.53c3.6,0,3.6-1.19,7.2-1.19c3.6,0,3.6-0.36,7.2-0.36
		c3.6,0,3.6,0.84,7.2,0.84c3.6,0,3.6,1.65,7.2,1.65c3.6,0,3.6-0.83,7.2-0.83c3.6,0,3.6-0.5,7.2-0.5c3.6,0,3.6-0.77,7.2-0.77
		c3.6,0,3.6,1.04,7.2,1.04c3.6,0,3.6,0.98,7.2,0.98c3.6,0,3.6-2.25,7.2-2.25c3.6,0,3.6,0.49,7.2,0.49c3.6,0,3.6-0.61,7.2-0.61
		c3.6,0,3.6,0.64,7.2,0.64c3.6,0,3.6-0.61,7.2-0.61c3.6,0,3.6,2.33,7.2,2.33c3.6,0,3.6-1.88,7.2-1.88c3.6,0,3.6,2.32,7.2,2.32
		c3.6,0,3.6-2.93,7.2-2.93c3.6,0,3.6,1,7.2,1c3.6,0,3.6,0.63,7.2,0.63c3.6,0,3.6-1.08,7.2-1.08c3.6,0,3.6,1.3,7.19,1.3
		c3.6,0,3.6,0.01,7.2,0.01c3.6,0,3.6,0.18,7.2,0.18c3.6,0,3.6-0.93,7.2-0.93c3.6,0,3.6,0.34,7.2,0.34c3.6,0,3.6-1.28,7.2-1.28
		c3.6,0,3.6,1.78,7.2,1.78c3.6,0,3.6-0.29,7.2-0.29c3.6,0,3.6-0.07,7.2-0.07c3.6,0,3.6-1.01,7.2-1.01c3.6,0,3.6,0.33,7.2,0.33
		c3.6,0,3.6-0.57,7.2-0.57c3.6,0,3.6,2.25,7.2,2.25c3.6,0,3.6-1.41,7.2-1.41c3.6,0,3.6-0.42,7.2-0.42c3.6,0,3.6,0.18,7.2,0.18
		s3.6-0.4,7.2-0.4c3.6,0,3.6,0.26,7.2,0.26c3.6,0,3.6,0.09,7.2,0.09c3.6,0,3.6-0.57,7.2-0.57c3.6,0,3.6,1.08,7.2,1.08
		c3.6,0,3.6-0.61,7.2-0.61s3.6,1.68,7.2,1.68c3.6,0,3.6-1.46,7.2-1.46c3.6,0,3.6-0.37,7.2-0.37c3.6,0,3.6,0.07,7.21,0.07
		c3.61,0,3.61-0.28,7.21-0.28c3.61,0,3.78-0.64,6.34,1.9c2.55,2.54-0.27,2.72-0.27,6.31c0,3.59,1.52,3.59,1.52,7.19
		c0,3.6,0.35,3.6,0.35,7.19c0,3.6-2.86,3.94-2.17,7.48C656.02,34.13,658.99,34.58,656.45,37.13z"/>
	<g>
		<g>
			<path class="st2" d="M563.86,19.46c0,3.38-3.82,5.87-7.19,5.87c-3.38,0-6.55-2.49-6.55-5.87s3.18-6.3,6.55-6.3
				C560.04,13.16,563.86,16.09,563.86,19.46z"/>
		</g>
		<g>
			<path class="st2" d="M598.47,19.46c0,3.38-1.53,5.62-4.9,5.62s-6.59-2.24-6.59-5.62s3.21-5.5,6.59-5.5S598.47,16.09,598.47,19.46
				z"/>
		</g>
		<g>
			<path class="st2" d="M637.27,19.46c0,3.38-3.42,5.19-6.8,5.19S623,22.84,623,19.46s4.1-7.03,7.47-7.03S637.27,16.09,637.27,19.46
				z"/>
		</g>
	</g>
	<g>
		<g>
			<path class="st2" d="M600.1,354.4c0,2.53,1.48,5.17,1.06,7.58c-0.43,2.48-2.64,4.49-3.48,6.8c-0.86,2.35-1.78,4.55-3.02,6.69
				c-1.25,2.16-2.11,4.55-3.7,6.45c-1.6,1.9-3.58,3.43-5.49,5.03c-1.9,1.59-3.42,3.84-5.58,5.08c-2.14,1.24-5.08,0.79-7.43,1.64
				c-2.31,0.84-4.19,3.53-6.67,3.97c-2.41,0.42-5.09-1.73-7.62-1.73c-2.53,0-5.23,2.24-7.64,1.82c-2.48-0.43-4.23-3.52-6.54-4.36
				c-2.35-0.86-4.63-1.43-6.77-2.67c-2.16-1.25-5.07-1.43-6.96-3.02c-1.9-1.6-2.61-4.41-4.21-6.32c-1.59-1.9-4.51-2.92-5.76-5.08
				c-1.24-2.14-2.47-4.52-3.33-6.87c-0.84-2.31-0.91-5.02-1.34-7.5c-0.42-2.41-1.43-4.97-1.43-7.5c0-2.53,1.52-5,1.94-7.41
				c0.43-2.48,1.85-4.6,2.69-6.91c0.86-2.35,0.26-5.39,1.5-7.53c1.25-2.16,3.91-3.39,5.5-5.29c1.6-1.9,3.05-3.91,4.95-5.51
				c1.9-1.59,4.52-1.98,6.68-3.23c2.14-1.24,3.3-4.63,5.66-5.49c2.31-0.84,5.05-0.92,7.52-1.36c2.41-0.42,5-1.12,7.53-1.12
				c2.53,0,4.91,1.93,7.32,2.35c2.48,0.43,4.54,1.72,6.86,2.56c2.35,0.86,5.68-0.38,7.82,0.86c2.16,1.25,3.49,3.86,5.39,5.46
				c1.9,1.6,3.32,3.62,4.92,5.53c1.59,1.9,2.34,4.23,3.59,6.39c1.24,2.14,2.23,4.18,3.09,6.53c0.84,2.31,3.63,4.12,4.07,6.6
				C601.64,349.22,600.1,351.87,600.1,354.4z"/>
		</g>
		<g>
			<path class="st5" d="M400.71,396.68c-2.53,2.53-3.15,1.12-6.72,1.12c-3.58,0-3.58,0.52-7.15,0.52c-3.57,0-3.57-1.45-7.15-1.45
				c-3.58,0-3.58-0.6-7.15-0.6c-3.58,0-3.58,0.09-7.15,0.09c-3.58,0-3.58,0.18-7.15,0.18c-3.58,0-3.58-0.8-7.15-0.8
				c-3.58,0-3.58,1.04-7.15,1.04c-3.58,0-3.58,1.73-7.15,1.73c-3.58,0-3.58-0.41-7.15-0.41c-3.58,0-3.58,0.24-7.15,0.24
				c-3.58,0-3.58-0.72-7.15-0.72c-3.58,0-3.58,0.5-7.15,0.5c-3.58,0-3.58-2.41-7.15-2.41c-3.58,0-3.58,1.17-7.15,1.17
				c-3.57,0-3.57-1.04-7.15-1.04c-3.57,0-3.57-0.12-7.15-0.12c-3.57,0-3.57,2.35-7.15,2.35c-3.58,0-3.58,0.33-7.15,0.33
				c-3.57,0-3.57-0.14-7.15-0.14c-3.57,0-3.57,0.16-7.15,0.16c-3.58,0-3.58-1.83-7.15-1.83c-3.57,0-3.57,0.74-7.15,0.74
				c-3.58,0-3.58-1.05-7.15-1.05c-3.58,0-3.58-0.35-7.15-0.35c-3.58,0-3.58,2.42-7.15,2.42c-3.58,0-3.58-2.14-7.15-2.14
				c-3.58,0-3.58,0.75-7.15,0.75c-3.58,0-3.58,1.51-7.15,1.51c-3.58,0-3.58-0.66-7.15-0.66c-3.58,0-3.58-1.62-7.15-1.62
				c-3.58,0-3.58-0.4-7.15-0.4c-3.58,0-3.58,0.46-7.15,0.46c-3.58,0-3.58,2.15-7.15,2.15c-3.58,0-3.58-0.93-7.16-0.93
				c-3.58,0-3.58-0.61-7.15-0.61c-3.58,0-3.58,1.43-7.15,1.43c-3.58,0-3.58-2.69-7.15-2.69c-3.58,0-3.58,2-7.15,2
				c-3.58,0-3.58-1.62-7.16-1.62c-3.58,0-3.58,2.25-7.15,2.25c-3.58,0-3.58-1.67-7.16-1.67c-3.58,0-3.58,1.04-7.16,1.04
				c-3.58,0-4.16,1.52-6.69-1.01c-2.53-2.53-1.35-3.11-1.35-6.68c0-3.58,1-3.58,1-7.15c0-3.57-0.91-3.57-0.91-7.15
				c0-3.58,1.28-3.58,1.28-7.15c0-3.58,0.02-3.58,0.02-7.15c0-3.58,0.61-3.58,0.61-7.15c0-3.58-0.86-3.58-0.86-7.15
				c0-3.58,1.02-3.58,1.02-7.15c0-3.58-1.93-3.58-1.93-7.15c0-3.58,0.48-3.58,0.48-7.15c0-3.58-1.12-3.58-1.12-7.15
				c0-3.58,2.37-3.58,2.37-7.15c0-3.58-0.69-3.58-0.69-7.15c0-3.58,0.9-3.58,0.9-7.15c0-3.58-0.23-3.58-0.23-7.15
				c0-3.57-1.7-3.57-1.7-7.15c0-3.57,0.57-3.57,0.57-7.15c0-3.57-0.09-3.57-0.09-7.15c0-3.58,0.67-3.58,0.67-7.15
				c0-3.57-1.74-3.57-1.74-7.15c0-3.57,0.04-3.57,0.04-7.15c0-3.58,0.26-3.58,0.26-7.15c0-3.57,0.35-3.57,0.35-7.15
				c0-3.58,1.14-3.58,1.14-7.15c0-3.58,0.6-3.58,0.6-7.15c0-3.58-0.52-3.58-0.52-7.15c0-3.58-0.24-3.58-0.24-7.15
				c0-3.58,0.11-3.58,0.11-7.15c0-3.58-1.97-3.58-1.97-7.15c0-3.58,2.12-3.58,2.12-7.15c0-3.58-0.03-3.58-0.03-7.15
				c0-3.58-1.26-3.58-1.26-7.15c0-3.58,1.05-3.58,1.05-7.15c0-3.58,0.85-3.58,0.85-7.15c0-3.58-2.48-3.58-2.48-7.16
				c0-3.58-0.2-3.58-0.2-7.15c0-3.58,1.02-3.58,1.02-7.15c0-3.58,1.49-3.58,1.49-7.15c0-3.58,0.19-3.58,0.19-7.15
				c0-3.58,0.02-3.58,0.02-7.16c0-3.58-1.77-3.58-1.77-7.15c0-3.58-0.31-3.58-0.31-7.16c0-3.58,2-3.58,2-7.16s-4.77-5.68-2.24-8.21
				c2.53-2.53,4.63,2.17,8.2,2.17c3.58,0,3.58-0.77,7.15-0.77c3.57,0,3.57,0.34,7.15,0.34c3.58,0,3.58-1.21,7.15-1.21
				c3.58,0,3.58,1.68,7.15,1.68c3.58,0,3.58-2.27,7.15-2.27c3.58,0,3.58,0.05,7.15,0.05c3.58,0,3.58-0.24,7.15-0.24
				c3.58,0,3.58-0.21,7.15-0.21c3.58,0,3.58,2.83,7.15,2.83c3.58,0,3.58-2.56,7.15-2.56c3.58,0,3.58,0.47,7.15,0.47
				c3.58,0,3.58,1.34,7.15,1.34c3.58,0,3.58-1.68,7.15-1.68c3.58,0,3.58-0.06,7.15-0.06c3.57,0,3.57,0.64,7.15,0.64
				c3.57,0,3.57-0.09,7.15-0.09c3.57,0,3.57,1.73,7.15,1.73c3.58,0,3.58-0.49,7.15-0.49c3.57,0,3.57-0.79,7.15-0.79
				c3.57,0,3.57-0.69,7.15-0.69c3.58,0,3.58,0.45,7.15,0.45c3.57,0,3.57,0.43,7.15,0.43c3.58,0,3.58-0.1,7.15-0.1
				c3.58,0,3.58-0.86,7.15-0.86c3.58,0,3.58,1.11,7.15,1.11c3.58,0,3.58-1.52,7.15-1.52c3.58,0,3.58,1.6,7.15,1.6
				c3.58,0,3.58,1.09,7.15,1.09c3.58,0,3.58-2.69,7.15-2.69c3.58,0,3.58,0.42,7.15,0.42c3.58,0,3.58,1.32,7.15,1.32
				c3.58,0,3.58-1.51,7.15-1.51c3.58,0,3.58,0.2,7.15,0.2c3.58,0,3.58,1.5,7.16,1.5c3.58,0,3.58,0.8,7.15,0.8
				c3.58,0,3.58-0.68,7.15-0.68c3.58,0,3.58,0.33,7.15,0.33c3.58,0,3.58-1.96,7.15-1.96c3.58,0,3.58,2.39,7.16,2.39
				c3.58,0,3.58-2.73,7.15-2.73c3.58,0,3.58,2.04,7.16,2.04c3.58,0,3.58-2.18,7.16-2.18c3.58,0,5.44-1.93,7.97,0.61
				c2.53,2.53-0.64,4.39-0.64,7.96c0,3.58,1.23,3.58,1.23,7.15c0,3.57-0.26,3.57-0.26,7.15c0,3.58-0.79,3.58-0.79,7.15
				c0,3.58-0.08,3.58-0.08,7.15c0,3.58-0.81,3.58-0.81,7.15c0,3.58,0.83,3.58,0.83,7.15c0,3.58,0.12,3.58,0.12,7.15
				c0,3.58,0.84,3.58,0.84,7.15c0,3.58-1.69,3.58-1.69,7.15c0,3.58-1.02,3.58-1.02,7.15c0,3.58,0.73,3.58,0.73,7.15
				c0,3.58,1.69,3.58,1.69,7.15c0,3.58-0.63,3.58-0.63,7.15c0,3.58-0.58,3.58-0.58,7.15c0,3.57,1.37,3.57,1.37,7.15
				c0,3.57-0.28,3.57-0.28,7.15c0,3.57-0.56,3.57-0.56,7.15c0,3.58,0.21,3.58,0.21,7.15c0,3.57-0.12,3.57-0.12,7.15
				c0,3.57-1.09,3.57-1.09,7.15c0,3.58,0.17,3.58,0.17,7.15c0,3.57,0.24,3.57,0.24,7.15c0,3.58,1.22,3.58,1.22,7.15
				c0,3.58-1.84,3.58-1.84,7.15c0,3.58,0.72,3.58,0.72,7.15c0,3.58-0.75,3.58-0.75,7.15c0,3.58,1.98,3.58,1.98,7.15
				c0,3.58-1.81,3.58-1.81,7.15c0,3.58,2.24,3.58,2.24,7.15c0,3.58,0.01,3.58,0.01,7.15c0,3.58-2.58,3.58-2.58,7.15
				c0,3.58,1.4,3.58,1.4,7.15c0,3.58-0.73,3.58-0.73,7.15c0,3.58,1.68,3.58,1.68,7.16c0,3.58-1.53,3.58-1.53,7.15
				c0,3.58-0.1,3.58-0.1,7.15c0,3.58-0.09,3.58-0.09,7.15c0,3.58,0.6,3.58,0.6,7.15c0,3.58-1.38,3.58-1.38,7.16
				c0,3.58,0.6,3.58,0.6,7.15c0,3.58-0.82,3.58-0.82,7.16c0,3.58,1.98,3.43,2.63,6.95C402.96,393.27,403.24,394.15,400.71,396.68z"
				/>
		</g>
		<g>
			<path class="st3" d="M310.03,122.98c-0.12-2.24-2.53-3.05-4.78-3.05c-3.69,0-3.69-2.31-7.39-2.31c-3.7,0-3.7,1.95-7.39,1.95
				c-3.7,0-3.7,0.66-7.39,0.66c-3.7,0-3.7-1.82-7.39-1.82c-3.7,0-3.7,1.88-7.39,1.88c-3.7,0-3.7-1.68-7.39-1.68
				c-3.7,0-3.7,1.58-7.39,1.58c-3.69,0-3.69-1.13-7.39-1.13c-3.7,0-3.7-1.15-7.39-1.15c-3.7,0-3.7,2.31-7.39,2.31
				c-3.7,0-3.7-1.65-7.39-1.65c-3.7,0-3.7,1.67-7.39,1.67c-3.7,0-3.7-1.05-7.4-1.05c-3.7,0-3.7,0.21-7.39,0.21
				c-3.7,0-3.7,0.26-7.4,0.26s-3.7,0.46-7.4,0.46c-2.25,0-2.75,0.73-2.86,2.97c-0.19,3.65-2.55,3.52-2.74,7.17
				c-0.19,3.65,0.16,3.67-0.04,7.31c-0.19,3.65,0.89,3.7,0.7,7.35c-0.19,3.65-0.33,3.64-0.52,7.29c-0.19,3.65,0.49,3.68,0.3,7.33
				c-0.19,3.65-0.45,3.63-0.64,7.28c-0.19,3.65-0.57,3.63-0.76,7.27c-0.19,3.65-0.82,3.61-1.01,7.26c-0.19,3.65,1.49,3.73,1.3,7.38
				c-0.19,3.65-2.78,3.51-2.97,7.16c-0.19,3.65,0.16,3.67-0.03,7.31c-0.19,3.65-0.81,3.61-1,7.26c-0.19,3.65,2.16,3.77,1.97,7.42
				c-0.19,3.65,0.15,3.67-0.04,7.31c-0.19,3.65-2.04,3.55-2.23,7.2c-0.19,3.65-0.73,3.62-0.92,7.27c-0.19,3.65,1.57,3.74,1.38,7.39
				c-0.19,3.65-1.71,3.57-1.9,7.22c-0.19,3.65-0.42,3.64-0.61,7.29c-0.19,3.65,1.26,3.73,1.07,7.38c-0.19,3.65-0.27,3.64-0.46,7.29
				c-0.19,3.65-1.89,3.56-2.08,7.21c-0.19,3.65,2.62,3.8,2.43,7.45c-0.19,3.65-0.72,3.62-0.91,7.27c-0.19,3.65-1.73,3.57-1.93,7.21
				c-0.19,3.65-0.86,3.61-1.05,7.26s0.67,3.69,0.48,7.34c-0.19,3.65-0.74,3.62-0.93,7.27c-0.19,3.65,0.96,3.71,0.77,7.36
				c-0.19,3.65-1.51,3.58-1.7,7.23c-0.19,3.65,2.28,3.78,2.08,7.43c-0.19,3.65-2.56,3.53-2.75,7.18c-0.19,3.65,1.64,3.75,1.45,7.4
				c-0.12,2.25,0.99,2.78,3.23,3c3.52,0.35,3.29,2.65,6.81,3c3.52,0.35,3.51,0.41,7.03,0.76c3.52,0.35,3.65-0.98,7.17-0.63
				c3.52,0.35,3.5,0.55,7.02,0.9c3.52,0.35,3.58-0.26,7.11,0.1c3.52,0.35,3.47,0.93,6.99,1.27c2.21,0.19,4.85-1.01,5.2-3.21
				c0.58-3.54-0.3-3.69,0.28-7.23c0.58-3.55,0.87-3.5,1.45-7.04c0.58-3.54,0.61-3.54,1.19-7.08c0.58-3.55-0.66-3.75-0.08-7.29
				c0.58-3.55,0.54-3.55,1.11-7.1c0.58-3.55,2.11-3.3,2.68-6.84c0.58-3.55,0.42-3.57,1-7.12c0.58-3.55,1.54-3.39,2.12-6.94
				c0.58-3.55-1.39-3.87-0.82-7.41c0.58-3.55,1.54-3.39,2.11-6.94c0.58-3.55,1.76-3.35,2.34-6.9c0.58-3.55-1.95-3.96-1.37-7.51
				c0.58-3.55,3.22-3.12,3.8-6.66c0.58-3.54,0.07-3.63,0.65-7.17c0.58-3.55-1.27-3.85-0.69-7.39c0.58-3.55,1.37-3.42,1.94-6.96
				c0.58-3.55,1.09-3.46,1.67-7.01c0.58-3.55,1.22-3.44,1.79-6.99c0.58-3.55-1.6-3.9-1.02-7.44c0.58-3.55,1.72-3.36,2.3-6.91
				c0.58-3.55,1.64-3.38,2.22-6.93c0.58-3.55-3.5-6.88,0.1-6.9c3.59-0.02-0.8,3.4-0.22,6.94c0.58,3.55,1.25,3.44,1.83,6.98
				c0.58,3.54,0.88,3.49,1.46,7.04c0.58,3.55,1.76,3.35,2.34,6.9c0.58,3.55-1.2,3.83-0.62,7.38c0.58,3.55,1.54,3.39,2.12,6.93
				c0.58,3.55,0.52,3.56,1.09,7.1c0.58,3.55,0.46,3.57,1.04,7.11c0.58,3.55,1.77,3.35,2.34,6.9c0.58,3.55,0.07,3.63,0.64,7.18
				c0.58,3.55,1.21,3.44,1.78,6.99c0.58,3.55-1.61,3.9-1.03,7.45c0.58,3.55,0.93,3.49,1.51,7.04c0.58,3.54,1.72,3.36,2.29,6.9
				c0.58,3.55-0.31,3.69,0.27,7.24s1.52,3.39,2.09,6.94c0.58,3.55-1.27,3.85-0.7,7.39c0.58,3.55,1.37,3.42,1.95,6.97
				c0.58,3.55,1.48,3.4,2.05,6.94c0.58,3.55-0.07,3.65,0.51,7.2c0.58,3.55,0.11,3.63,0.68,7.18c0.58,3.55,1.84,3.35,2.42,6.9
				c0.34,2.06,1.66,4.91,3.7,4.91c0.14,0,0.17-2.43,0.31-2.45c3.52-0.35,3.5-0.53,7.02-0.88c3.52-0.35,3.64,0.88,7.16,0.52
				c3.52-0.35,3.66,1.11,7.18,0.76c3.52-0.35,3.33-2.29,6.85-2.64c3.52-0.35,3.71,1.54,7.24,1.19c3.52-0.35,3.43-1.31,6.95-1.66
				c2.24-0.22,4.16-2.58,4.04-4.83c-0.19-3.65,0.28-3.67,0.09-7.32c-0.19-3.65-0.38-3.64-0.57-7.29c-0.19-3.65,0.24-3.67,0.04-7.32
				c-0.19-3.65-0.16-3.65-0.35-7.3c-0.19-3.65-0.02-3.66-0.21-7.3c-0.19-3.65-1.01-3.6-1.2-7.25c-0.19-3.65,0.87-3.7,0.68-7.35
				c-0.19-3.65-2.01-3.55-2.2-7.2c-0.19-3.65,1.08-3.71,0.89-7.36c-0.19-3.65-2.55-3.52-2.75-7.17c-0.19-3.65,1.56-3.74,1.37-7.39
				c-0.19-3.65-1.64-3.57-1.83-7.22c-0.19-3.65,0.57-3.69,0.38-7.34c-0.19-3.65-1.2-3.59-1.39-7.24c-0.19-3.65,0.75-3.7,0.55-7.35
				c-0.19-3.65,1.09-3.72,0.9-7.36c-0.19-3.65-1.04-3.6-1.23-7.25c-0.19-3.65,0.97-3.71,0.78-7.36c-0.19-3.65-2-3.55-2.19-7.2
				c-0.19-3.65,1.76-3.75,1.57-7.4c-0.19-3.65-0.93-3.61-1.12-7.26c-0.19-3.65-1.55-3.58-1.74-7.23c-0.19-3.65,0.09-3.66-0.11-7.31
				c-0.19-3.65,1.04-3.71,0.85-7.36c-0.19-3.65-0.86-3.61-1.05-7.26c-0.19-3.65,1.16-3.72,0.97-7.37s-0.2-3.65-0.4-7.3
				c-0.19-3.65-0.52-3.63-0.71-7.28c-0.19-3.65-1.25-3.59-1.44-7.24c-0.19-3.65-0.34-3.64-0.54-7.29c-0.19-3.65,0-3.66-0.2-7.31
				c-0.19-3.65,0.15-3.65,0.15-7.31C310.4,126.65,310.22,126.64,310.03,122.98z M302.62,163.37c-2.24-1.52-4.43-2.46-6.22-4.43
				c-1.8-1.98-1.46-5.46-2.75-7.81c-1.28-2.33-3.74-4.65-4.47-7.26c2.88-1.34,3.41-0.71,6.59-0.71s3.64-0.54,5.94,1.65
				c2.32,2.21,1.86,2.69,2.03,5.89c0.17,3.2-1.77,3.35-1.34,6.53C302.83,160.34,303.78,160.38,302.62,163.37z M301.25,135.56
				c-2.32,2.84-3.23,1.28-6.9,1.28c-3.67,0-3.67-2.31-7.33-2.31c-3.67,0-3.67,1.95-7.34,1.95c-3.67,0-3.67,0.66-7.34,0.66
				c-3.67,0-3.67-1.82-7.34-1.82c-3.67,0-3.67,1.88-7.34,1.88s-4.63,1.23-7.03-1.54c-2.77-3.19-3.95-5.75-1.2-8.95
				c2.37-2.76,4.53,0.72,8.16,0.72c3.63,0,3.63,1.15,7.27,1.15c3.64,0,3.64-2.31,7.27-2.31c3.64,0,3.64,1.65,7.27,1.65
				c3.64,0,3.64-1.67,7.27-1.67c3.64,0,3.64,1.05,7.28,1.05c3.64,0,4.17-1.75,7.45-0.17C305.27,128.98,303.92,132.28,301.25,135.56z
				 M241.35,178.44c-1.79-1.65-3.59-2.86-4.84-4.91c-1.26-2.05-0.1-5.13-0.76-7.47c-0.64-2.29-2.87-4.32-2.87-6.78
				c0-3.73-0.66-3.73-0.66-7.46s-1.18-4.53,1.62-7c3.17-2.8,5.57-4.1,8.85-1.44c2.66,2.16-1.21,4.41-1.21,7.84
				c0,3.42,1.58,3.42,1.58,6.85c0,3.43-1.13,3.43-1.13,6.85c0,3.43-1.34,3.5-1.14,6.92C240.97,175.2,242.46,175.2,241.35,178.44z
				 M233.83,135.52c-2.99-2.99-4.03-5.72-1.05-8.71c2.99-2.99,5.13-1.35,8.12,1.64c2.99,2.99,3.25,3.86,1.49,7.7
				C240.59,140.05,236.81,138.5,233.83,135.52z M224.55,127.81c2.65,3.29,3.82,5.41,1.15,8.68c-2.18,2.67-4.16-1.97-7.6-1.97
				c-3.44,0-3.44,1.95-6.89,1.95c-3.45,0-3.45,0.66-6.89,0.66c-3.45,0-3.45-1.82-6.9-1.82s-5.82,4.12-7.91,1.38
				c-2.57-3.36-0.99-5.75,1.77-8.96c2.21-2.58,3.09-1.44,6.49-1.44c3.4,0,3.4,1.13,6.8,1.13c3.4,0,3.4,1.15,6.8,1.15
				c3.4,0,3.23-1.59,6.56-2.28C221.31,125.58,222.41,125.16,224.55,127.81z M202.55,144.87c-0.73,2.61-0.7,5.04-1.97,7.37
				c-1.29,2.36-4.69,3.17-6.49,5.15c-1.79,1.97-3.31,4.87-5.54,6.39c-1.16-2.99-0.53-3.47-0.36-6.67c0.17-3.2,1.99-3.11,2.16-6.31
				c0.17-3.2-3.47-5.14-1.15-7.36c2.3-2.2,4.11,1.6,7.27,1.32C199.58,144.5,199.67,143.53,202.55,144.87z M212.65,363.23
				c-2.7,2.14-3.17,1.01-6.6,0.67c-3.43-0.34-3.19-2.64-6.62-2.99c-3.43-0.34-3.62,1.59-7.05,1.25c-3.43-0.34-3.5,0.31-6.93-0.03
				s-4.08,0.38-6.27-2.28c-2.29-2.77-1.55-3.27-1.36-6.86c0.19-3.59,1.87-3.5,2.05-7.09c0.19-3.59-1.39-3.67-1.2-7.26
				c0.19-3.59,1.32-3.53,1.51-7.12c0.19-3.59,1.33-3.53,1.52-7.11c0.19-3.59-2.11-3.71-1.93-7.3c0.19-3.59,1.83-3.5,2.02-7.09
				c0.19-3.59-1.48-3.68-1.29-7.27c0.19-3.59,1.24-3.53,1.42-7.12c0.19-3.59-0.02-3.6,0.17-7.19c0.19-3.59-0.07-3.6,0.12-7.19
				c0.19-3.59-0.27-3.61-0.08-7.2c0.19-3.59-0.06-3.6,0.13-7.19c0.19-3.59,2.55-3.47,2.74-7.06c0.19-3.59-0.16-3.61,0.03-7.2
				c0.19-3.59-0.9-3.65-0.71-7.24c0.19-3.59,0.33-3.58,0.51-7.17c0.19-3.59-0.5-3.62-0.31-7.21c0.19-3.59,0.44-3.58,0.63-7.17
				c0.19-3.59,0.57-3.57,0.76-7.16c0.19-3.59,0.82-3.56,1-7.15c0.19-3.59-1.5-3.68-1.31-7.27c0.19-3.59,2.78-3.45,2.97-7.04
				c0.19-3.59-0.16-3.61,0.02-7.2c0.19-3.59,0.8-3.56,0.99-7.16c0.19-3.59-2.21-3.73-1.97-7.33c0.1-0.04,0.56-1.08,0.66-1.13
				c2.3-1.15,5.39-0.89,7.41-2.4c2.05-1.53,4.43-2.94,6.15-4.79c1.74-1.86,1.94-4.99,3.32-7.13c1.37-2.13,3.9-3.71,4.88-6.08
				c0.96-2.33,1.27-4.03,1.82-6.55c3.19-1.1,3-1.39,6.37-1.39s4.66-2.34,6.92,0.16c2.5,2.77-1.64,3.89-1.64,7.62
				s2.82,3.73,2.82,7.46c0,2.39-0.3,4.57,0.17,6.85c0.48,2.33-0.28,5.03,0.65,7.17c0.94,2.17,1.61,4.74,2.97,6.66
				c1.35,1.92,3.67,3.28,5.4,4.91c1.7,1.59,2.86,2.77,4.89,4.02c0.38,3.52,0.58,3.39,0.01,6.89c-0.57,3.5-1.87,3.28-2.44,6.78
				c-0.57,3.5,1.87,3.89,1.3,7.39c-0.57,3.5-2.9,3.12-3.47,6.61c-0.57,3.5,1.24,3.79,0.67,7.29c-0.57,3.5,0.11,3.61-0.46,7.1
				c-0.57,3.5-2.85,3.13-3.42,6.62c-0.57,3.5-0.63,3.49-1.2,6.98c-0.57,3.5,0.75,3.71,0.19,7.21c-0.57,3.5-0.77,3.46-1.34,6.96
				c-0.57,3.5,0.03,3.6-0.54,7.09c-0.57,3.5-1.13,3.41-1.7,6.91c-0.57,3.5-1.41,3.36-1.98,6.86c-0.57,3.5,0.31,3.64-0.26,7.14
				c-0.57,3.5-0.87,3.45-1.44,6.95c-0.57,3.5-0.6,3.49-1.17,6.99c-0.57,3.5,0.66,3.7,0.1,7.19c-0.57,3.5-0.53,3.51-1.1,7
				c-0.57,3.5-2.1,3.25-2.67,6.75c-0.57,3.5-0.42,3.52-0.99,7.02c-0.57,3.5-1.53,3.34-2.1,6.84c-0.57,3.5,1.4,3.82,0.83,7.32
				c-0.57,3.5-1.53,3.34-2.1,6.84c-0.57,3.5-2.39,3.5-2.34,7.05C212.85,360.25,215.44,361.03,212.65,363.23z M279.56,363.23
				c-2.81-2.24-1.84-2.96-2.41-6.51c-0.58-3.55,1.71-3.92,1.13-7.46c-0.58-3.55-2.5-3.23-3.08-6.78c-0.58-3.55-1.23-3.44-1.81-6.99
				c-0.58-3.55,1.22-3.84,0.64-7.39c-0.58-3.55-2.43-3.24-3.01-6.79c-0.58-3.55,1.08-3.82,0.5-7.36c-0.58-3.55-2.14-3.29-2.72-6.84
				c-0.58-3.55,0.54-3.73-0.04-7.28c-0.58-3.55,0.55-3.73-0.02-7.28c-0.58-3.55-2.85-3.18-3.43-6.73c-0.58-3.55,1.05-3.81,0.47-7.36
				c-0.58-3.55-2.22-3.28-2.8-6.83c-0.58-3.55,0.46-3.72-0.12-7.26c-0.58-3.55-0.78-3.52-1.36-7.06c-0.58-3.55-0.84-3.51-1.41-7.06
				c-0.58-3.55-1.03-3.47-1.61-7.02c-0.58-3.55-0.82-3.51-1.4-7.06c-0.58-3.55,1.75-3.93,1.17-7.48c-0.58-3.55-0.92-3.49-1.5-7.04
				c-0.58-3.55-1.65-3.37-2.23-6.92c-0.58-3.55-0.44-3.57-1.02-7.12c-0.58-3.55-1.25-3.44-1.83-6.99c-0.58-3.55-0.33-3.59-0.91-7.15
				c-0.58-3.55-0.49-3.61-0.79-7.19c-0.29-3.48,0.63-3.52,0.63-7.01c0-3.49-1.69-3.49-1.69-6.98c0-3.49,2.59-3.49,2.59-6.98
				c0-3.49-0.35-3.49-0.35-6.98c0-3.49,0.62-3.49,0.62-6.99c0-3.49-4.63-5.29-2.06-7.66c2.79-2.57,4.41-0.58,8.21-0.58
				c3.8,0,3.8,1.85,7.59,1.85c3.8,0,3.8,0.54,7.6,0.54c3.8,0,4.15-2.86,7.78-1.74c0.56,2.51,0.31,5.88,1.27,8.21
				c0.98,2.36,2.04,4.89,3.41,7.02c1.38,2.14,4.13,3.32,5.86,5.18c1.73,1.85,3.53,3.58,5.58,5.11c2.02,1.51,3.38,4.34,5.69,5.5
				c0.1,0.05,2.22-1.36,2.32-1.32c0.24,3.59-0.34,3.63-0.15,7.22c0.19,3.59-1.35,3.67-1.16,7.26c0.19,3.59-0.48,3.62-0.29,7.21
				c0.19,3.59,1.05,3.54,1.24,7.13c0.19,3.59-0.36,3.62-0.17,7.2c0.19,3.59,1.34,3.53,1.53,7.12c0.19,3.59-1.12,3.66-0.94,7.25
				c0.19,3.59,2.66,3.46,2.85,7.05c0.19,3.59-2.17,3.71-1.99,7.3c0.19,3.59,2.02,3.49,2.21,7.08c0.19,3.59,0.88,3.55,1.07,7.14
				c0.19,3.59-2.12,3.71-1.93,7.3c0.19,3.59,0.13,3.59,0.32,7.18c0.19,3.59,1.53,3.52,1.72,7.11c0.19,3.59-0.01,3.6,0.18,7.19
				c0.19,3.59,0.8,3.56,0.99,7.15c0.19,3.59-0.37,3.62-0.19,7.21c0.19,3.59-0.66,3.63-0.48,7.22c0.19,3.59,1.07,3.54,1.26,7.13
				s-0.11,3.61,0.08,7.2c0.19,3.59,0.16,3.59,0.35,7.18c0.19,3.59,1.44,3.53,1.63,7.12c0.19,3.59,0.23,3.59,0.42,7.18
				c0.19,3.59-1.36,3.67-1.17,7.27c0.19,3.59,0.34,3.59,0.53,7.18c0.19,3.59,1.96,3.66-0.33,6.44c-2.19,2.66-2.44,1.91-5.87,2.25
				c-3.43,0.34-3.52-0.62-6.95-0.28c-3.43,0.34-3.55-0.85-6.98-0.51c-3.43,0.34-3.08,2.24-6.39,3.19
				C283.08,365.12,282.25,365.38,279.56,363.23z"/>
		</g>
		<g>
			<path class="st2" d="M628.17,115.85c-2.62,2.41-3.01,1.06-6.56,1.06c-3.55,0-3.55-1.63-7.11-1.63c-3.56,0-3.56,0.45-7.11,0.45
				c-3.56,0-3.56,2.09-7.11,2.09c-3.55,0-3.55-0.02-7.11-0.02c-3.56,0-3.56-2.36-7.11-2.36c-3.56,0-3.56,1.09-7.11,1.09
				c-3.56,0-3.56-1.23-7.11-1.23c-3.56,0-3.56,0.93-7.11,0.93c-3.56,0-3.56,0.03-7.11,0.03c-3.56,0-3.56,1.68-7.11,1.68
				c-3.56,0-3.56-2.65-7.11-2.65c-3.56,0-3.56,0.79-7.12,0.79c-3.56,0-3.56,0.1-7.11,0.1c-3.56,0-3.56-1.1-7.11-1.1
				c-3.56,0-3.56,2.19-7.12,2.19c-3.56,0-3.56,0.08-7.12,0.08c-3.56,0-3.56-1.07-7.11-1.07c-3.56,0-3.56,0.47-7.11,0.47
				s-3.56-1.77-7.11-1.77c-3.56,0-3.56,1.36-7.11,1.36c-3.56,0-3.56-1.27-7.12-1.27c-3.56,0-3.56,1.57-7.11,1.57
				c-3.56,0-3.56-1.55-7.12-1.55c-3.56,0-3.56,2.72-7.12,2.72c-3.56,0-5.36,2.01-7.98-0.4c-2.41-2.2,2.08-4.2,2.08-7.46
				c0-3.27-0.62-3.27-0.62-6.53c0-3.27-3.36-4.71-0.95-6.92c2.62-2.41,3.91,0.9,7.47,0.9c3.55,0,3.55,0.52,7.11,0.52
				c3.56,0,3.56-1.59,7.11-1.59c3.56,0,3.56,0.64,7.11,0.64c3.55,0,3.55,0.28,7.11,0.28c3.56,0,3.56-1.82,7.11-1.82
				c3.56,0,3.56,1.98,7.11,1.98c3.56,0,3.56-1.14,7.11-1.14c3.56,0,3.56,2.05,7.11,2.05c3.56,0,3.56-2.59,7.11-2.59
				c3.56,0,3.56,1.06,7.11,1.06c3.56,0,3.56,0.06,7.11,0.06c3.56,0,3.56,0.33,7.12,0.33c3.56,0,3.56,1.1,7.11,1.1
				c3.56,0,3.56-0.04,7.11-0.04c3.56,0,3.56-0.34,7.12-0.34c3.56,0,3.56,0.34,7.12,0.34c3.56,0,3.56-1.81,7.11-1.81
				c3.56,0,3.56,1.08,7.11,1.08s3.56,0.71,7.11,0.71c3.56,0,3.56-2.26,7.11-2.26c3.56,0,3.56,1.75,7.12,1.75
				c3.56,0,3.56-1.45,7.11-1.45c3.56,0,3.56,0.81,7.12,0.81c3.56,0,3.56-1.54,7.12-1.54c3.56,0,3.9-0.4,6.53,2
				c2.41,2.2,1.99,2.61,1.99,5.88c0,3.27-2.48,3.41-1.9,6.62C628.79,113.15,630.57,113.64,628.17,115.85z"/>
		</g>
		<g>
			<g>
				<path class="st2" d="M617.76,144.73c-3.12,1.84-3.59,0.46-7.21,0.46c-3.63,0-3.63-0.71-7.25-0.71c-3.62,0-3.62-0.08-7.25-0.08
					c-3.63,0-3.63,0.8-7.25,0.8c-3.62,0-3.62-0.36-7.25-0.36c-3.63,0-3.63-0.23-7.25-0.23c-3.62,0-3.62-0.35-7.25-0.35
					c-3.63,0-3.63,0.78-7.25,0.78c-3.62,0-3.62-0.99-7.25-0.99c-3.63,0-3.63,1.42-7.25,1.42c-3.63,0-3.63,0.78-7.25,0.78
					c-3.63,0-3.63-1.06-7.25-1.06c-3.63,0-3.63-0.01-7.25-0.01c-3.63,0-3.63-1.64-7.25-1.64c-3.63,0-3.63,0.78-7.25,0.78
					c-3.62,0-3.62-0.7-7.25-0.7c-3.63,0-3.63-0.21-7.25-0.21c-3.63,0-3.63,1.53-7.25,1.53c-3.63,0-3.63-1.12-7.25-1.12
					c-3.63,0-3.63,1.31-7.25,1.31c-3.63,0-3.63-1.84-7.26-1.84c-3.63,0-3.63,2.31-7.25,2.31c-3.63,0-3.63,0.47-7.26,0.47
					c-3.63,0-3.81-0.01-6.94-1.84c-1.84-1.08-1.95-2.28-0.11-3.36c3.12-1.84,3.42,1.13,7.04,1.13c3.63,0,3.63-0.36,7.25-0.36
					c3.62,0,3.62-2.61,7.25-2.61c3.63,0,3.63,2.72,7.25,2.72c3.62,0,3.62-2.64,7.25-2.64c3.63,0,3.63,1.52,7.25,1.52
					c3.62,0,3.62-1.3,7.25-1.3c3.63,0,3.63-0.02,7.25-0.02c3.62,0,3.62,2.13,7.25,2.13c3.63,0,3.63,0.43,7.25,0.43
					c3.63,0,3.63-0.5,7.25-0.5c3.63,0,3.63-0.86,7.25-0.86c3.63,0,3.63-1.4,7.25-1.4c3.63,0,3.63,0.47,7.25,0.47
					c3.63,0,3.63,0.42,7.25,0.42c3.62,0,3.62-0.02,7.25-0.02c3.63,0,3.63,0.19,7.25,0.19c3.63,0,3.63-0.11,7.25-0.11
					c3.63,0,3.63,0.51,7.25,0.51c3.63,0,3.63,1.09,7.25,1.09c3.63,0,3.63-0.17,7.26-0.17c3.63,0,3.63-0.47,7.25-0.47
					c3.63,0,3.63,0.05,7.26,0.05c3.63,0,3.49-0.76,6.93,0.42C619.66,142.25,619.6,143.65,617.76,144.73z"/>
			</g>
			<g>
				<path class="st2" d="M617.77,156.66c-3.12,1.84-3.6-0.36-7.22-0.36c-3.63,0-3.63-0.58-7.25-0.58c-3.62,0-3.62,2.06-7.25,2.06
					c-3.63,0-3.63-0.1-7.25-0.1c-3.62,0-3.62-2.24-7.25-2.24c-3.63,0-3.63,1.88-7.25,1.88c-3.62,0-3.62-0.46-7.25-0.46
					c-3.63,0-3.63,0.84-7.25,0.84c-3.62,0-3.62-0.92-7.25-0.92c-3.63,0-3.63,0.36-7.25,0.36c-3.63,0-3.63-1.16-7.25-1.16
					c-3.63,0-3.63,1.79-7.25,1.79c-3.63,0-3.63-0.59-7.25-0.59c-3.63,0-3.63-1.93-7.25-1.93c-3.63,0-3.63,0.06-7.25,0.06
					c-3.62,0-3.62,0.69-7.25,0.69c-3.63,0-3.63-0.34-7.25-0.34c-3.63,0-3.63,1.06-7.25,1.06c-3.63,0-3.63,1.16-7.25,1.16
					c-3.63,0-3.63-0.1-7.25-0.1c-3.63,0-3.63-0.07-7.26-0.07c-3.63,0-3.63-2.18-7.25-2.18c-3.63,0-3.63,2.65-7.26,2.65
					c-3.63,0-4,0.15-7.13-1.69c-1.84-1.08-2.5-3.88-0.66-4.96c3.12-1.84,4.16-0.33,7.79-0.33c3.63,0,3.63,1.94,7.25,1.94
					c3.62,0,3.62,0.56,7.25,0.56c3.63,0,3.63,0.16,7.25,0.16c3.62,0,3.62-2.72,7.25-2.72c3.63,0,3.63,2.32,7.25,2.32
					c3.62,0,3.62-1.35,7.25-1.35c3.63,0,3.63,0.51,7.25,0.51c3.62,0,3.62,0.19,7.25,0.19c3.63,0,3.63-1.4,7.25-1.4
					c3.63,0,3.63,1.58,7.25,1.58c3.63,0,3.63-1.68,7.25-1.68c3.63,0,3.63,1.53,7.25,1.53c3.63,0,3.63-0.97,7.25-0.97
					c3.63,0,3.63-0.06,7.25-0.06c3.62,0,3.62,2.13,7.25,2.13c3.63,0,3.63-1.01,7.25-1.01c3.63,0,3.63,0.3,7.25,0.3
					c3.63,0,3.63-1.02,7.25-1.02c3.63,0,3.63-1.04,7.25-1.04c3.63,0,3.63,2.21,7.26,2.21c3.63,0,3.63-0.83,7.25-0.83
					c3.63,0,3.63-0.52,7.26-0.52c3.63,0,3.48,0.23,6.91,1.42C619.65,154.22,619.61,155.58,617.77,156.66z"/>
			</g>
			<g>
				<path class="st2" d="M617.19,167.59c-3.12,1.84-3.02,0.55-6.64,0.55c-3.63,0-3.63,1.42-7.25,1.42c-3.62,0-3.62-1.73-7.25-1.73
					c-3.63,0-3.63,0.35-7.25,0.35c-3.62,0-3.62-0.94-7.25-0.94c-3.63,0-3.63,2.15-7.25,2.15c-3.62,0-3.62-1.83-7.25-1.83
					c-3.63,0-3.63,0.54-7.25,0.54c-3.62,0-3.62,0.82-7.25,0.82c-3.63,0-3.63,0.08-7.25,0.08c-3.63,0-3.63-0.32-7.25-0.32
					c-3.63,0-3.63-0.46-7.25-0.46c-3.63,0-3.63,1.45-7.25,1.45c-3.63,0-3.63-0.99-7.25-0.99c-3.63,0-3.63-1.22-7.25-1.22
					c-3.62,0-3.62,1.69-7.25,1.69c-3.63,0-3.63-1.22-7.25-1.22c-3.63,0-3.63,0.97-7.25,0.97c-3.63,0-3.63,0.91-7.25,0.91
					c-3.63,0-3.63,0.17-7.25,0.17c-3.63,0-3.63-0.86-7.26-0.86c-3.63,0-3.63-1.88-7.25-1.88c-3.63,0-3.63,1.83-7.26,1.83
					c-3.63,0-4.71,2.38-7.84,0.54c-1.84-1.08-1.4-4.42,0.44-5.5c3.12-1.84,3.77,0.69,7.39,0.69c3.63,0,3.63-1.62,7.25-1.62
					c3.62,0,3.62-0.15,7.25-0.15c3.63,0,3.63,0.41,7.25,0.41c3.62,0,3.62,0.92,7.25,0.92c3.63,0,3.63-0.55,7.25-0.55
					c3.62,0,3.62,0.92,7.25,0.92c3.63,0,3.63-0.36,7.25-0.36c3.62,0,3.62,1,7.25,1c3.63,0,3.63-0.24,7.25-0.24
					c3.63,0,3.63-1.47,7.25-1.47c3.63,0,3.63,0.37,7.25,0.37c3.63,0,3.63-0.29,7.25-0.29c3.63,0,3.63,2,7.25,2
					c3.63,0,3.63-2.66,7.25-2.66c3.62,0,3.62,2.65,7.25,2.65c3.63,0,3.63,0.01,7.25,0.01c3.63,0,3.63-0.71,7.25-0.71
					c3.63,0,3.63,0.26,7.25,0.26c3.63,0,3.63-2.28,7.25-2.28c3.63,0,3.63,2.84,7.26,2.84c3.63,0,3.63-1.04,7.25-1.04
					c3.63,0,3.63-1.41,7.26-1.41c3.63,0,3.38,1.51,6.9,2.4C619.22,166.24,619.03,166.51,617.19,167.59z"/>
			</g>
			<g>
				<path class="st2" d="M617.96,180.8c-3.12,1.84-3.78-1.48-7.41-1.48c-3.63,0-3.63,0.46-7.25,0.46c-3.62,0-3.62,0.14-7.25,0.14
					c-3.63,0-3.63,1.77-7.25,1.77c-3.62,0-3.62-2.37-7.25-2.37c-3.63,0-3.63,0.94-7.25,0.94c-3.62,0-3.62,0.09-7.25,0.09
					c-3.63,0-3.63,0.92-7.25,0.92c-3.62,0-3.62-2.01-7.25-2.01c-3.63,0-3.63,0.86-7.25,0.86c-3.63,0-3.63-0.34-7.25-0.34
					c-3.63,0-3.63,0.21-7.25,0.21c-3.63,0-3.63,1.89-7.25,1.89c-3.63,0-3.63-1.26-7.25-1.26c-3.63,0-3.63-0.15-7.25-0.15
					c-3.62,0-3.62,1.3-7.25,1.3c-3.63,0-3.63-0.51-7.25-0.51c-3.63,0-3.63,0.48-7.25,0.48c-3.63,0-3.63-0.26-7.25-0.26
					c-3.63,0-3.63,0.04-7.25,0.04c-3.63,0-3.63,0.35-7.26,0.35c-3.63,0-3.63-0.06-7.25-0.06c-3.63,0-3.63-0.77-7.26-0.77
					c-3.63,0-4.03,1.16-7.16-0.67c-1.84-1.08-2.39-3.79-0.55-4.87c3.12-1.84,4.08,1.07,7.7,1.07c3.63,0,3.63,0.21,7.25,0.21
					c3.62,0,3.62-0.87,7.25-0.87c3.63,0,3.63,0.32,7.25,0.32c3.62,0,3.62-0.8,7.25-0.8c3.63,0,3.63,0.05,7.25,0.05
					c3.62,0,3.62,1.46,7.25,1.46c3.63,0,3.63-2.05,7.25-2.05c3.62,0,3.62,0.6,7.25,0.6c3.63,0,3.63-0.16,7.25-0.16
					c3.63,0,3.63-0.53,7.25-0.53c3.63,0,3.63,0.4,7.25,0.4c3.63,0,3.63,0.76,7.25,0.76c3.63,0,3.63,1.39,7.25,1.39
					c3.63,0,3.63-1.32,7.25-1.32c3.62,0,3.62,1.75,7.25,1.75c3.63,0,3.63-0.22,7.25-0.22c3.63,0,3.63-1.67,7.25-1.67
					c3.63,0,3.63-0.11,7.25-0.11c3.63,0,3.63,0.36,7.25,0.36c3.63,0,3.63,0.48,7.26,0.48c3.63,0,3.63-0.53,7.25-0.53
					c3.63,0,3.63-0.88,7.26-0.88c3.63,0,4.28-1.33,7.68-0.06C620.55,176.01,619.79,179.72,617.96,180.8z"/>
			</g>
			<g>
				<path class="st2" d="M617.26,191.53c-3.12,1.84-3.08,2.41-6.71,2.41c-3.63,0-3.63-1.94-7.25-1.94c-3.62,0-3.62,0.89-7.25,0.89
					c-3.63,0-3.63-1.48-7.25-1.48c-3.62,0-3.62,1.43-7.25,1.43c-3.63,0-3.63-1.12-7.25-1.12c-3.62,0-3.62-0.76-7.25-0.76
					c-3.63,0-3.63,0.85-7.25,0.85c-3.62,0-3.62,2.1-7.25,2.1c-3.63,0-3.63-0.55-7.25-0.55c-3.63,0-3.63-2.05-7.25-2.05
					c-3.63,0-3.63,1.55-7.25,1.55c-3.63,0-3.63-1.81-7.25-1.81c-3.63,0-3.63,1.41-7.25,1.41c-3.63,0-3.63,0.71-7.25,0.71
					c-3.62,0-3.62,0.12-7.25,0.12c-3.63,0-3.63-1.38-7.25-1.38c-3.63,0-3.63,0.43-7.25,0.43c-3.63,0-3.63-0.69-7.25-0.69
					c-3.63,0-3.63-0.04-7.25-0.04c-3.63,0-3.63-0.22-7.26-0.22c-3.63,0-3.63,1.45-7.25,1.45c-3.63,0-3.63-0.44-7.26-0.44
					c-3.63,0-3.44,0.72-6.57-1.11c-1.84-1.08-3.25-3.24-1.41-4.32c3.12-1.84,4.35,1.39,7.97,1.39c3.63,0,3.63,0.36,7.25,0.36
					c3.62,0,3.62-1.15,7.25-1.15c3.63,0,3.63-0.27,7.25-0.27c3.62,0,3.62-0.59,7.25-0.59c3.63,0,3.63,1.22,7.25,1.22
					c3.62,0,3.62,0.79,7.25,0.79c3.63,0,3.63-1.37,7.25-1.37c3.62,0,3.62,1.42,7.25,1.42c3.63,0,3.63,0.45,7.25,0.45
					c3.63,0,3.63-0.74,7.25-0.74c3.63,0,3.63-1.69,7.25-1.69c3.63,0,3.63-0.08,7.25-0.08c3.63,0,3.63,2.28,7.25,2.28
					c3.63,0,3.63-0.61,7.25-0.61c3.62,0,3.62,0.44,7.25,0.44c3.63,0,3.63-1.71,7.25-1.71c3.63,0,3.63,1.95,7.25,1.95
					c3.63,0,3.63,0.05,7.25,0.05c3.63,0,3.63-1.6,7.25-1.6c3.63,0,3.63,0.21,7.26,0.21c3.63,0,3.63,1.22,7.25,1.22
					c3.63,0,3.63,0.17,7.26,0.17c3.63,0,3.98-2.7,7.49-1.77C619.86,187.8,619.09,190.45,617.26,191.53z"/>
			</g>
		</g>
	</g>
	<g>
		<path class="st1" d="M424.99,256.1c-2.52,0.51-4.23-1.07-4.03-3.63c0.23-2.99,2.18-2.44,4.3-4.56c2.12-2.12,2.3-1.95,4.43-4.07
			c2.12-2.12,3.7-1.08,3.7-4.08c0-3-2.3-1.23-4.42-3.35c-2.12-2.13-1.47-2.78-3.59-4.91c-2.12-2.13-3.68-1.5-3.92-4.49
			c-0.2-2.56,0.89-3.49,3.41-2.98c3.78,0.76,3.41,1.54,6.14,4.27c2.73,2.73,1.14,4.32,3.87,7.05c2.73,2.73,6.29,0.56,6.29,4.43
			c0,3.86-2.41,2.84-5.13,5.57c-2.73,2.73-2.14,3.05-4.37,6.2C429.36,254.81,428.78,255.34,424.99,256.1z"/>
	</g>
	<g>
		<path class="st1" d="M60.91,223.15c2.52-0.51,3.56,1.27,3.37,3.84c-0.23,2.99-1.39,2.57-3.51,4.69c-2.13,2.13-3.25,1-5.38,3.12
			c-2.12,2.13-4.28,1.95-4.28,4.96c0,3,1.99,2.99,4.11,5.12c2.12,2.13,3.34,0.91,5.46,3.04c2.13,2.13,4.49,1.53,4.73,4.53
			c0.2,2.56-1.97,4.38-4.49,3.87c-3.78-0.76-2.24-3.36-4.97-6.09c-2.73-2.73-2.31-3.15-5.04-5.88s-4.88-0.73-4.88-4.59
			c0-3.86,2.14-1.86,4.87-4.59c2.73-2.73,1.22-3.96,3.4-7.15C56.6,224.63,57.12,223.91,60.91,223.15z"/>
	</g>
</g>
</svg>
