<svg width="50" height="50" fill="none" version="1.1" viewBox="0 0 50 50" xmlns="http://www.w3.org/2000/svg">
	<script/>
	<circle cx="25" cy="25" r="25" fill="#fff" stroke-width=".345"/>
	<g transform="scale(.345)" clip-path="url(#clip0_4:20)">
		<path d="m69.4 62.1v0.363h0.345c-0.2 0-0.345-0.163-0.345-0.363z" fill="#6c5dd3"/>
		<path d="m63 60.3h-0.565v-0.565c0 0.327 0.268 0.565 0.565 0.565z" fill="#6c5dd3"/>
		<g fill="#fff">
			<path d="m48.9 49.1v0.119h-0.119z"/>
			<path d="m67.3 56h-0.565v-0.594c0 0.327 0.238 0.594 0.565 0.594z"/>
			<path d="m96.4 96.1-0.119 0.119v-0.119z"/>
		</g>
		<path d="m66.8 55.4v0.594h0.565c-0.327 0-0.565-0.268-0.565-0.594z" fill="#6c5dd3"/>
		<path d="m101 51.6c-0.178-0.0297-0.356-0.0596-0.535-0.0596h-29v-7.37c0-2.08-1.69-3.78-3.78-3.78h-15.3c-0.684 0-1.34 0.238-1.84 0.595-0.119 0.0891-0.238 0.178-0.327 0.267l-0.0891 0.0892-4.31 4.37-4.19 4.22c-0.654 0.565-1.04 1.4-1.04 2.32v38.3c0 1.72 1.4 3.12 3.12 3.12h9.3c0.178 0.0298 0.386 0.0594 0.565 0.0594h20.8v8.03c0 1.72 1.4 3.12 3.12 3.12h16c1.04 0 1.93-0.505 2.5-1.28l0.0298 0.03 3.75-3.8 0.0595-0.0594 0.0296-0.0298 0.357-0.357 4.16-4.22c0.179-0.178 0.357-0.386 0.476-0.624 0.267-0.476 0.416-1.01 0.416-1.58v-37.1c0-2.35-1.9-4.25-4.25-4.25z" fill="#6c5dd3"/>
		<g fill="#fff">
			<path d="m62.4 72.6h-2.56v8.68h2.56z"/>
			<path d="m76.4 72.6h-2.56v8.68h2.56z"/>
			<path d="m101 91.9-0.178 0.178-4.13 4.13v-32.7c0-1.72-1.4-3.12-3.12-3.12h-1.16c-0.178-0.0296-0.327-0.0296-0.535-0.0296h-29.1v-8.03c0-1.72-1.4-3.12-3.12-3.12h-10.5l0.119-0.119 4.1-4.07 0.178-0.178h10.6c1.63 0 2.97 1.34 2.97 2.97v7.61c0 0.327 0.268 0.595 0.565 0.595h28.5c0.178 0 0.357 0 0.535 0.0296h0.565c2.02 0 3.69 1.66 3.69 3.69v32.2z"/>
		</g>
	</g>
	<defs>
		<clipPath id="clip0_4:20">
			<rect transform="translate(40.3 40.3)" width="64.7" height="64.4" fill="#fff"/>
		</clipPath>
	</defs>
</svg>
