<svg width="145" height="145" viewBox="0 0 145 145" fill="none" xmlns="http://www.w3.org/2000/svg"><script xmlns=""/>
<circle cx="72.5" cy="72.5" r="72.5" fill="white"/>
<g clip-path="url(#clip0_4:20)">
<path d="M69.3965 62.0986V62.4617H69.7415C69.5417 62.4617 69.3965 62.2983 69.3965 62.0986Z" fill="#6C5DD3"/>
<path d="M63.0177 60.3347H62.4529V59.7699C62.4529 60.0969 62.7205 60.3347 63.0177 60.3347Z" fill="#6C5DD3"/>
<path d="M48.9279 49.0686V49.1875H48.809L48.9279 49.0686Z" fill="white"/>
<path d="M67.3277 55.9949H66.7631V55.4004C66.7631 55.7274 67.0008 55.9949 67.3277 55.9949Z" fill="white"/>
<path d="M96.4288 96.0944L96.3099 96.2132V96.0944H96.4288Z" fill="white"/>
<path d="M66.7631 55.4004V55.9949H67.3277C67.0008 55.9949 66.7631 55.7274 66.7631 55.4004Z" fill="#6C5DD3"/>
<path d="M100.709 51.5954C100.531 51.5657 100.353 51.5358 100.174 51.5358H71.1327V44.1641C71.1327 42.0831 69.4383 40.3889 67.3576 40.3889H52.0789C51.3952 40.3889 50.7412 40.6267 50.2359 40.9835C50.1171 41.0726 49.998 41.1618 49.9088 41.2509L49.8197 41.3401L45.5095 45.7098L41.3183 49.9307C40.6644 50.4955 40.278 51.3278 40.278 52.2494V90.5057C40.278 92.2298 41.6751 93.6269 43.3991 93.6269H52.7031C52.8815 93.6567 53.0895 93.6863 53.2678 93.6863H74.1053V101.712C74.1053 103.436 75.5023 104.833 77.2265 104.833H93.1889C94.2292 104.833 95.1211 104.328 95.6857 103.555L95.7155 103.585L99.4609 99.78L99.5204 99.7206L99.55 99.6908L99.9067 99.3342L104.068 95.1132C104.247 94.9349 104.425 94.7267 104.544 94.4888C104.811 94.0133 104.96 93.4782 104.96 92.9136V55.846C104.96 53.4978 103.058 51.5954 100.709 51.5954Z" fill="#6C5DD3"/>
<path d="M62.3637 72.6412H59.8074V81.3209H62.3637V72.6412Z" fill="white"/>
<path d="M76.3643 72.6412H73.808V81.3209H76.3643V72.6412Z" fill="white"/>
<path d="M100.62 91.903L100.442 92.0813L96.3101 96.2132V63.4856C96.3101 61.7615 94.913 60.3645 93.1889 60.3645H92.0297C91.8512 60.3349 91.7025 60.3349 91.4945 60.3349H62.4231V52.3089C62.4231 50.5849 61.0261 49.1879 59.3021 49.1879H48.7793L48.8982 49.069L53.0003 44.9966L53.1786 44.8181H63.7906C65.4255 44.8181 66.7631 46.1558 66.7631 47.7907V55.4004C66.7631 55.7274 67.0306 55.995 67.3278 55.995H95.8046C95.9831 55.995 96.1614 55.995 96.3398 56.0246H96.9045C98.9258 56.0246 100.59 57.6893 100.59 59.7105V91.903H100.62Z" fill="white"/>
</g>
<defs>
<clipPath id="clip0_4:20">
<rect width="64.6822" height="64.4444" fill="white" transform="translate(40.2778 40.2778)"/>
</clipPath>
</defs>
</svg>