<svg id="SVGRoot" width="50" height="50" version="1.1" viewBox="0 0 50 50" xmlns="http://www.w3.org/2000/svg">
	<g transform="scale(3.12)">
		<rect width="16" height="16" fill="#6dc8e8" stop-color="#000000" stroke-dashoffset="4" stroke-width="43.3"/>
	</g>
	<g transform="scale(3.12)" stroke="#fff">
		<g stroke-linecap="round" stroke-linejoin="round">
			<path d="m4.75 13.2-3.4-11.2 8.52 0.667z" fill="#ccdf9a" stroke-width=".389" style="paint-order:markers stroke fill"/>
			<path d="m11.2 13.2 3.4-11.2-8.52 0.667z" fill="#9a7ba5" stroke-width=".389" style="paint-order:markers stroke fill"/>
			<path d="m8.03 15.4 5.23-13.4-10.5 0.0135z" fill="#ea7779" stroke-width=".486" style="paint-order:markers stroke fill"/>
		</g>
		<path id="flea" d="m13.1 5.41c0.207-0.0155 0.414 0.0403 0.585 0.158 0.171 0.118 0.297 0.291 0.357 0.49 0.169 0.563 0.245 1.15 0.226 1.74l0.0029 2.45c-0.055 0.0981-0.117 0.147-0.186 0.149l-0.0748 9.4e-4c-0.0952-3.14e-4 -0.151-0.0579-0.164-0.174-0.0054-0.294-0.0079-0.852-0.0076-1.67l-0.0306 0.017-1.64 0.0225c-0.0461 1.2-0.0922 1.8-0.138 1.81-0.0539 0.0784-0.125 0.143-0.208 0.19-0.0829 0.0466-0.175 0.0734-0.27 0.0785l-0.0897 7.31e-4c-0.289-0.0412-0.441-0.162-0.444-0.357 0.0029-0.969 0.0782-1.94 0.225-2.89 0.276-1.32 0.893-1.99 1.85-2zm-0.888 2.82 1.64-0.0218 0.0032-0.0142c-0.0203-1.64-0.224-2.46-0.604-2.46-0.311 0.00547-0.611 0.535-0.898 1.59-0.0695 0.349-0.113 0.649-0.141 0.903zm-3.58-2.83 1.84-0.0145c0.177-0.00354 0.265 0.047 0.267 0.152l-0.0024 0.0241c-0.0122 0.124-0.116 0.187-0.366 0.187l-1.29 0.00933c-0.017 1.59-0.0281 2.47-0.0328 2.63l0.989-0.0177c0.151-0.00144 0.226 0.0443 0.226 0.137-0.0132 0.134-0.0823 0.201-0.18 0.202l-1.02 0.00778c-0.0139 0.613-0.0195 1.13-0.017 1.55l-0.00711 0.0724 1.39-0.013c0.114 0.0112 0.17 0.0758 0.169 0.152-0.0102 0.103-0.0995 0.164-0.296 0.183l-1.7 0.0136c-0.0561 0.0075-0.113 0.0018-0.167-0.0166-0.0536-0.0184-0.102-0.0489-0.142-0.0892-0.0398-0.0403-0.0697-0.0894-0.0874-0.143-0.0177-0.0538-0.0228-0.111-0.0148-0.167l-0.146-4.42c-0.00379-0.209 0.133-0.359 0.392-0.456 0.0658-0.0102 0.133-0.00597 0.197 0.0124zm-3.24 0.0469c0.257 0.0326 0.384 0.125 0.381 0.277 0.0132 0.25-0.0112 1.76-0.0734 4.53l1.89 0.0088c0.1 0.0244 0.152 0.0712 0.153 0.144l0.00262 0.0494c-0.0244 0.1-0.0744 0.153-0.15 0.153l-2.38 0.0072c-0.0771 0.01-0.155-0.0094-0.219-0.0544-0.0634-0.045-0.108-0.112-0.124-0.188-0.00249-0.0163-0.00336-0.0329-0.00262-0.0494l-0.113-4.44c-0.00992-0.188 0.154-0.338 0.469-0.424zm-3.03-0.0314 1.92 0.0269c0.127 0.0225 0.192 0.0755 0.19 0.157-0.00168 0.0813-0.0938 0.175-0.262 0.187l-1.35-0.0293-0.088 2.22 1 0.0155c0.0237-0.00422 0.048-0.00277 0.0711 0.00426 0.023 7e-3 0.0441 0.0193 0.0614 0.036 0.0174 0.0167 0.0305 0.0373 0.0384 0.06 0.00793 0.0228 0.0104 0.0471 0.0071 0.0709 7.02e-5 0.12-0.0868 0.179-0.264 0.176l-0.925-0.0126c-0.0352 0.93-0.0561 1.57-0.0628 1.93-0.00274 0.255-0.151 0.384-0.437 0.387l-0.0403 0.0081c-0.0753 0.0072-0.151-0.0118-0.214-0.0538-0.063-0.042-0.11-0.104-0.132-0.177-0.0211 0.0042-0.0397-1.54-0.0556-4.63 0.0379-0.114 0.112-0.212 0.21-0.281 0.0986-0.0684 0.217-0.103 0.337-0.0985z" stroke-width=".335" style="paint-order:markers stroke fill"/>
		<path d="m-0.424 1.93-0.0469 0.312c2.79 0.413 5.09 0.754 8.43 0.754 3.34-1.45e-4 5.67-0.34 8.51-0.754l-0.0449-0.312c-2.84 0.413-5.15 0.75-8.47 0.75-3.32 1.44e-4 -5.59-0.337-8.38-0.75z" color="#000000" stroke-width=".4" style="paint-order:markers stroke fill"/>
	</g>
</svg>
