<?xml version="1.0" encoding="UTF-8" standalone="no"?>
<!-- Created with Inkscape (http://www.inkscape.org/) -->

<svg
   width="16.0px"
   height="16.0px"
   viewBox="0 0 16.0 16.0"
   version="1.1"
   id="SVGRoot"
   xmlns="http://www.w3.org/2000/svg"
   xmlns:svg="http://www.w3.org/2000/svg">
  <defs
     id="defs3419">
    <clipPath
       id="Frame_clip0-240-69">
      <rect
         width="325"
         height="142"
         fill="white"
         id="rect3546" />
    </clipPath>
  </defs>
  <g
     id="layer2">
    <rect
       style="fill:#6dc8e8;fill-opacity:1;stroke-width:43.2719;stroke-dashoffset:4.00001;stop-color:#000000"
       id="rect3596"
       width="16"
       height="16"
       x="0"
       y="0" />
  </g>
  <g
     id="layer1"
     style="display:inline">
    <path
       d="M 4.7540551,13.175004 1.3549458,1.9932588 9.8717045,2.6605543 Z"
       fill="#ea7779"
       id="path7693"
       style="fill:#ccdf9a;fill-opacity:1;stroke:#ffffff;stroke-width:0.389184;stroke-linecap:round;stroke-linejoin:round;stroke-miterlimit:4;stroke-dasharray:none;stroke-opacity:1;paint-order:markers stroke fill" />
    <path
       d="M 11.245946,13.175004 14.645054,1.9932588 6.1282977,2.6605543 Z"
       fill="#ea7779"
       id="path5893"
       style="fill:#9a7ba5;fill-opacity:1;stroke:#ffffff;stroke-width:0.389184;stroke-linecap:round;stroke-linejoin:round;stroke-miterlimit:4;stroke-dasharray:none;stroke-opacity:1;paint-order:markers stroke fill" />
    <path
       d="M 8.0285931,15.35094 13.259146,1.9457995 2.7408558,1.9592732 Z"
       fill="#ea7779"
       id="path3514"
       style="stroke:#ffffff;stroke-width:0.48648;stroke-linecap:round;stroke-linejoin:round;stroke-miterlimit:4;stroke-dasharray:none;stroke-opacity:1;paint-order:markers stroke fill" />
    <path
       id="flea"
       style="stroke:#ffffff;stroke-width:0.335437;stroke-miterlimit:4;stroke-dasharray:none;stroke-opacity:1;paint-order:markers stroke fill"
       d="m 13.059862,5.4066523 c 0.207345,-0.015525 0.413832,0.040289 0.585144,0.1581565 0.171413,0.1178839 0.297383,0.290786 0.357273,0.4901533 0.168743,0.563258 0.244958,1.1502422 0.225827,1.7380568 l 0.0029,2.4492581 c -0.05495,0.09811 -0.116614,0.146919 -0.185755,0.149261 l -0.07483,9.4e-4 c -0.09524,-3.14e-4 -0.150937,-0.05789 -0.163549,-0.174205 -0.0054,-0.2938412 -0.0079,-0.851823 -0.0076,-1.6739533 l -0.03058,0.016999 -1.636482,0.022474 c -0.04609,1.2019857 -0.09218,1.8037653 -0.138273,1.8053293 -0.05386,0.07843 -0.124958,0.143446 -0.207842,0.190016 -0.08288,0.04657 -0.17528,0.07343 -0.270217,0.07851 l -0.08966,7.31e-4 c -0.288885,-0.0412 -0.440653,-0.161989 -0.444463,-0.356949 0.0029,-0.9687508 0.07821,-1.935977 0.225449,-2.8935301 0.275898,-1.3214073 0.893395,-1.9885555 1.852676,-2.0013562 z m -0.888022,2.8159297 1.639276,-0.021843 0.0032,-0.014211 c -0.02027,-1.6439648 -0.224,-2.4602923 -0.603652,-2.4562434 -0.311465,0.00547 -0.610758,0.5352583 -0.897979,1.5893487 -0.06953,0.348651 -0.113455,0.6493117 -0.140804,0.9029474 z M 8.5887993,5.3968863 10.425481,5.3823693 c 0.176549,-0.00354 0.265375,0.046959 0.266724,0.1515045 l -0.0024,0.024102 c -0.01219,0.1240992 -0.115702,0.1870305 -0.365981,0.186807 l -1.2870277,0.00933 C 9.0197956,7.3441093 9.0087377,8.2223934 9.0039937,8.38898 L 9.9928779,8.371244 c 0.1507861,-0.00144 0.2262661,0.044269 0.2264431,0.1370952 -0.01321,0.1344294 -0.08233,0.2007399 -0.179738,0.2016017 l -1.0192109,0.00778 c -0.013879,0.6134946 -0.019509,1.131496 -0.016988,1.5540251 l -0.00711,0.0724 1.3915649,-0.01299 c 0.1136,0.01116 0.169855,0.07583 0.16931,0.152342 -0.01016,0.103414 -0.09952,0.164262 -0.296055,0.183246 l -1.704528,0.01356 c -0.056123,0.0075 -0.1132805,0.0018 -0.1668688,-0.01659 -0.053588,-0.01836 -0.1021903,-0.0489 -0.1420053,-0.08922 -0.039814,-0.04033 -0.069727,-0.08935 -0.087426,-0.143204 -0.017699,-0.05385 -0.022838,-0.111092 -0.014757,-0.167219 L 7.9995396,5.8401827 c -0.00379,-0.209196 0.1326267,-0.3593676 0.3923845,-0.4556573 0.065807,-0.010185 0.1328907,-0.00597 0.1968743,0.012358 z M 5.3537392,5.443741 c 0.2566611,0.032643 0.3835605,0.1249694 0.3805826,0.2769868 0.013234,0.2501978 -0.011229,1.7612366 -0.073385,4.5331612 l 1.8928733,0.0088 c 0.1002255,0.0244 0.1522252,0.07118 0.1527019,0.143782 l 0.00262,0.04937 c -0.024385,0.100329 -0.074399,0.152501 -0.1500999,0.1532 l -2.3834514,0.0072 c -0.077064,0.01001 -0.1551037,-0.0094 -0.2186064,-0.05435 -0.063386,-0.04497 -0.1076529,-0.112191 -0.1238582,-0.188325 -0.00249,-0.01633 -0.00336,-0.03287 -0.00262,-0.04939 L 4.7175081,5.8834514 C 4.7075833,5.6958129 4.8711582,5.5451974 5.1863795,5.4591991 Z M 2.321821,5.4123125 4.2375824,5.4392366 c 0.12727,0.02247 0.1917937,0.075496 0.1901081,0.1567818 -0.00168,0.081287 -0.093753,0.1746906 -0.2618827,0.1873909 L 2.8154961,5.75412 2.7275177,7.9753396 3.727723,7.9908281 c 0.02369,-0.00422 0.048029,-0.00277 0.071057,0.00426 0.023019,0.007 0.044072,0.019348 0.061426,0.036044 0.017352,0.016675 0.030521,0.037252 0.038438,0.059997 0.00793,0.022758 0.010353,0.047054 0.0071,0.070919 7.02e-5,0.1199104 -0.086848,0.1792899 -0.2642065,0.175848 L 2.71678,8.3252961 C 2.681609,9.2557625 2.660677,9.8985601 2.65397,10.253683 2.65123,10.509067 2.5033259,10.637628 2.2165646,10.641118 l -0.040295,0.0081 c -0.075291,0.0072 -0.1507769,-0.01178 -0.2137352,-0.05379 C 1.8995794,10.553398 1.853004,10.490951 1.830642,10.418612 1.809537,10.422812 1.790983,8.8805129 1.775008,5.7916672 1.812919,5.6777361 1.8866929,5.5791953 1.9852772,5.5108007 2.0838502,5.4423977 2.2019374,5.4078381 2.3218184,5.4123027 Z" />
    <path
       style="color:#000000;fill:#000000;stroke:#ffffff;stroke-width:0.4;stroke-miterlimit:4;stroke-dasharray:none;stroke-opacity:1;paint-order:markers stroke fill"
       d="m -0.42382813,1.9287578 -0.046875,0.3125 C 2.3206737,2.6546638 4.6203668,2.9953086 7.9570312,2.9951641 11.29368,2.9950195 13.630002,2.6546696 16.470703,2.2412578 l -0.04492,-0.3125 c -2.840701,0.4134118 -5.153579,0.7498564 -8.4687498,0.75 -3.3151549,1.436e-4 -5.5894825,-0.336594 -8.38085933,-0.75 z"
       id="path9444" />
  </g>
</svg>
