<svg id="SVGRoot" width="50" height="50" version="1.1" viewBox="0 0 50 50" xmlns="http://www.w3.org/2000/svg" xmlns:xlink="http://www.w3.org/1999/xlink">
	<defs>
		<linearGradient id="linearGradient24490" x2="-16" y1="8" y2="8" gradientTransform="scale(3.12)" gradientUnits="userSpaceOnUse">
			<stop stop-color="#FFD200" offset="0"/>
			<stop stop-color="#FFA400" offset="1"/>
		</linearGradient>
	</defs>
	<rect transform="scale(-1,1)" x="-50" width="50" height="50" fill="url(#linearGradient24490)" stop-color="#000000" style="paint-order:markers stroke fill"/>
	<g transform="matrix(2.09 0 0 2.09 -12.1 3.54)" stroke-width=".224">
		<path d="m18 0c-5.23 0-9.46 4.87-9.46 10.9 0 6.01 9.46 15.4 9.46 15.4s9.47-9.34 9.47-15.4c0-6.01-4.24-10.9-9.47-10.9zm0 17.6c-1.4-0.0013-2.78-0.419-3.94-1.2s-2.08-1.89-2.61-3.19c-0.536-1.3-0.675-2.73-0.399-4.1 0.276-1.38 0.954-2.64 1.95-3.63 0.995-0.992 2.26-1.67 3.64-1.94 1.38-0.272 2.81-0.129 4.1 0.411 1.3 0.54 2.4 1.45 3.18 2.62 0.778 1.17 1.19 2.54 1.19 3.95-3e-3 1.88-0.753 3.69-2.09 5.01-1.33 1.33-3.14 2.07-5.02 2.07z" fill="#45bdd1"/>
		<path d="m17.6-0.644c-5.23 0-9.47 4.87-9.47 10.9 0 6.01 9.47 15.4 9.47 15.4s9.46-9.34 9.46-15.4c0-6.01-4.24-10.9-9.46-10.9zm0 17.6c-1.4 4.48e-4 -2.78-0.416-3.94-1.2-1.17-0.78-2.08-1.89-2.62-3.19-0.538-1.3-0.679-2.72-0.405-4.1 0.274-1.38 0.95-2.64 1.94-3.64 0.993-0.993 2.26-1.67 3.64-1.94 1.38-0.274 2.8-0.134 4.1 0.404 1.3 0.537 2.41 1.45 3.19 2.61 0.78 1.17 1.2 2.54 1.2 3.94 0 1.88-0.748 3.69-2.08 5.02-1.33 1.33-3.14 2.08-5.02 2.08z" fill="#1aa7b8"/>
	</g>
	<g transform="matrix(2.09 0 0 2.09 -11.8 2.6)" stroke-width=".224">
		<path d="m11.6 16c-0.662 0.0103-1.32-0.123-1.92-0.391-0.563-0.253-1.06-0.638-1.44-1.12-0.361-0.442-0.613-0.964-0.734-1.52-0.09-0.409-0.139-0.827-0.146-1.25 0.00182-0.353 0.0311-0.706 0.0875-1.05 0.11-0.7 0.347-1.37 0.7-1.99 0.344-0.607 0.786-1.15 1.31-1.62 0.526-0.465 1.13-0.836 1.78-1.1 1.2-0.472 2.53-0.532 3.77-0.171 0.496 0.15 0.96 0.392 1.37 0.714 0.389 0.315 0.712 0.704 0.949 1.14 0.245 0.465 0.397 0.972 0.449 1.49 0.0108 0.1 6.73e-4 0.202-0.0298 0.298-0.0305 0.0962-0.0808 0.185-0.147 0.261-0.0354 0.0373-0.0737 0.0718-0.114 0.103 0.0673 0.0787 0.117 0.171 0.145 0.271 0.0283 0.0996 0.0347 0.204 0.0188 0.306l-0.77 4.87c-0.0267 0.169-0.113 0.323-0.243 0.434-0.13 0.111-0.295 0.172-0.466 0.172h-2.01c-0.104-2.3e-5 -0.207-0.0225-0.301-0.0659-0.0945-0.0434-0.179-0.107-0.246-0.186l-0.0157-0.0202c-0.0898 0.0404-0.182 0.0763-0.274 0.112-0.551 0.199-1.13 0.301-1.72 0.301zm1.75-9c-0.538-6.73e-4 -1.07 0.101-1.57 0.301-0.5 0.197-0.961 0.48-1.36 0.837-0.405 0.359-0.747 0.782-1.01 1.25-0.265 0.465-0.444 0.973-0.527 1.5-0.0457 0.274-0.069 0.552-0.0696 0.831 0.00745 0.322 0.0465 0.642 0.117 0.956 0.0734 0.338 0.227 0.654 0.449 0.92 0.243 0.305 0.555 0.548 0.911 0.707 0.418 0.181 0.869 0.27 1.32 0.26 0.422 5e-3 0.841-0.065 1.24-0.206 0.324-0.117 0.627-0.285 0.898-0.498-0.409 0.134-0.836 0.199-1.27 0.195-1.04 0-1.8-0.29-2.28-0.862-0.443-0.524-0.682-1.19-0.673-1.88 0.00213-0.236 0.0231-0.472 0.0628-0.705 0.123-0.833 0.517-1.6 1.12-2.19 0.302-0.289 0.656-0.518 1.04-0.673 0.399-0.161 0.825-0.244 1.25-0.242 0.503-0.0116 0.999 0.113 1.44 0.361 0.273 0.158 0.503 0.379 0.673 0.644h1.04c-0.0247-0.0606-0.0539-0.117-0.083-0.173-0.147-0.274-0.348-0.516-0.59-0.712-0.267-0.209-0.572-0.366-0.898-0.46-0.399-0.119-0.814-0.177-1.23-0.173zm1.66 7.43h0.554l0.543-3.43-2.52 0.0135h1.13c0.104-1.8e-4 0.208 0.0225 0.302 0.0664 0.0947 0.0439 0.179 0.108 0.246 0.188 0.0674 0.0798 0.116 0.173 0.144 0.274 0.0274 0.101 0.0325 0.206 0.0148 0.309l-0.117 0.703c-0.02 0.119-0.0694 0.231-0.144 0.325-0.235 0.298-0.527 0.546-0.86 0.729 0.121 0.0015 0.24 0.0331 0.346 0.092 0.127 0.0711 0.229 0.179 0.293 0.309 0.0641 0.13 0.0873 0.277 0.0664 0.42zm-2.02-5.49c-0.484-0.00168-0.95 0.183-1.3 0.516-0.181 0.18-0.332 0.388-0.449 0.615-0.124 0.237-0.207 0.494-0.245 0.759-0.0275 0.16-0.0425 0.322-0.0449 0.485-0.0065 0.349 0.115 0.688 0.341 0.954 0.242 0.287 0.779 0.348 1.19 0.348 0.32 0.0058 0.638-0.0506 0.936-0.166h-0.673c-0.104-9e-5 -0.206-0.0226-0.3-0.0659-0.0941-0.0433-0.178-0.106-0.245-0.185-0.0674-0.0787-0.117-0.171-0.145-0.271-0.0284-0.0996-0.0348-0.204-0.0189-0.307l0.224-1.45c0.0257-0.17 0.111-0.325 0.242-0.437 0.13-0.112 0.296-0.174 0.468-0.174h1.05c-0.0237-0.0419-0.0425-0.0863-0.0561-0.132-0.0187-0.0701-0.0517-0.136-0.0969-0.192-0.0452-0.0568-0.102-0.104-0.166-0.138-0.215-0.115-0.457-0.17-0.7-0.162z" fill="#fff"/>
		<path d="m21.9 16c-0.692 8e-3 -1.38-0.134-2.01-0.417-0.592-0.266-1.12-0.661-1.54-1.16-0.388-0.447-0.675-0.973-0.839-1.54-0.132-0.455-0.203-0.925-0.209-1.4 0.0012-0.27 0.0207-0.539 0.0584-0.806 0.111-0.708 0.357-1.39 0.725-2 0.36-0.609 0.819-1.15 1.36-1.61 0.535-0.457 1.14-0.824 1.8-1.09 0.65-0.268 1.35-0.404 2.05-0.402 0.703 0.00231 1.4 0.143 2.05 0.415 0.592 0.266 1.12 0.66 1.54 1.15 0.394 0.447 0.682 0.977 0.844 1.55 0.127 0.449 0.195 0.913 0.202 1.38-6.73e-4 0.274-0.0209 0.548-0.0606 0.819-0.108 0.714-0.355 1.4-0.727 2.02-0.361 0.602-0.816 1.14-1.35 1.6-0.534 0.46-1.14 0.827-1.8 1.09-0.667 0.264-1.38 0.398-2.09 0.395zm-3.11-5.11c-0.0298 0.198-0.0448 0.399-0.0449 0.599 0.0061 0.344 0.0582 0.685 0.155 1.01 0.111 0.371 0.301 0.713 0.557 1 0.283 0.332 0.636 0.597 1.03 0.774 0.954 0.385 2.02 0.379 2.97-0.0157 0.509-0.201 0.981-0.485 1.4-0.842 0.416-0.358 0.772-0.782 1.05-1.25 0.275-0.458 0.458-0.965 0.539-1.49 0.0292-0.201 0.0442-0.405 0.0449-0.608-0.0071-0.341-0.0584-0.68-0.153-1.01-0.107-0.368-0.295-0.708-0.55-0.994-0.287-0.332-0.643-0.597-1.04-0.777-0.951-0.386-2.02-0.381-2.96 0.0134-1.03 0.408-1.89 1.15-2.46 2.1-0.273 0.456-0.456 0.961-0.539 1.49zm3.44 3.1c-0.425 0.0055-0.845-0.0851-1.23-0.265-0.363-0.17-0.683-0.42-0.936-0.732-0.237-0.288-0.408-0.623-0.503-0.983-0.0711-0.274-0.109-0.555-0.112-0.837 6.73e-4 -0.165 0.0112-0.33 0.0314-0.494v-0.0202c0.0654-0.43 0.214-0.843 0.438-1.22 0.211-0.358 0.475-0.681 0.783-0.958 0.314-0.282 0.673-0.51 1.06-0.673 0.389-0.166 0.808-0.25 1.23-0.248 0.423 0.00272 0.841 0.0923 1.23 0.263 0.362 0.171 0.682 0.419 0.938 0.727 0.242 0.284 0.418 0.618 0.514 0.979 0.0712 0.273 0.109 0.553 0.112 0.835-2.7e-4 0.16-0.01 0.319-0.0292 0.478-0.0654 0.439-0.211 0.862-0.429 1.25-0.417 0.736-1.07 1.31-1.85 1.64-0.396 0.168-0.821 0.256-1.25 0.258zm-1.32-3.12c-0.0133 0.101-0.02 0.203-0.0202 0.305 0.0031 0.165 0.0264 0.33 0.0696 0.489 0.0428 0.158 0.119 0.304 0.224 0.429 0.116 0.145 0.265 0.261 0.433 0.339 0.209 0.0858 0.433 0.129 0.659 0.126 0.226-0.0027 0.449-0.0509 0.656-0.142 0.487-0.204 0.892-0.564 1.15-1.02 0.129-0.226 0.215-0.474 0.254-0.732 0.0107-0.0939 0.0167-0.188 0.018-0.283-0.0041-0.162-0.0274-0.324-0.0696-0.48-0.0439-0.154-0.12-0.296-0.224-0.417-0.121-0.148-0.275-0.266-0.449-0.346-0.206-0.0857-0.427-0.129-0.65-0.126-0.223 0.00269-0.443 0.0509-0.647 0.142-0.238 0.0975-0.457 0.235-0.649 0.406-0.201 0.179-0.372 0.389-0.507 0.622-0.128 0.212-0.212 0.447-0.249 0.691z" fill="#fff"/>
		<path d="m11.4 15.1c-0.559 0.00952-1.11-0.102-1.63-0.325-0.458-0.207-0.861-0.52-1.17-0.914-0.291-0.355-0.494-0.773-0.593-1.22-0.0804-0.362-0.124-0.731-0.13-1.1 1.35e-4 -0.314 0.0264-0.628 0.0786-0.938 0.0937-0.616 0.301-1.21 0.613-1.75 0.305-0.539 0.697-1.02 1.16-1.43 0.463-0.411 0.995-0.737 1.57-0.965 1.05-0.413 2.21-0.467 3.3-0.153 0.407 0.124 0.788 0.324 1.12 0.588 0.316 0.255 0.578 0.57 0.77 0.927 0.202 0.383 0.328 0.801 0.37 1.23h-2.41c-0.0903-0.313-0.299-0.579-0.581-0.741-0.327-0.182-0.697-0.272-1.07-0.26-0.338-0.00191-0.672 0.0622-0.985 0.189-0.303 0.122-0.58 0.301-0.815 0.527-0.24 0.232-0.44 0.501-0.595 0.797-0.161 0.31-0.269 0.644-0.319 0.99-0.0327 0.194-0.05 0.391-0.0516 0.588-0.0078 0.518 0.172 1.02 0.507 1.42 0.34 0.404 0.919 0.606 1.74 0.606 0.424 0.0104 0.846-0.066 1.24-0.224 0.348-0.145 0.653-0.377 0.887-0.673l0.117-0.705h-1.98l0.224-1.45h3.98l-0.77 4.87h-2.01l0.123-0.833c-0.359 0.305-0.769 0.543-1.21 0.703-0.475 0.172-0.976 0.258-1.48 0.256z"/>
		<path d="m17.9 10.6c0.0967-0.618 0.312-1.21 0.633-1.75 0.322-0.541 0.729-1.03 1.21-1.43 0.476-0.408 1.02-0.734 1.6-0.965 0.578-0.234 1.2-0.355 1.82-0.355 0.588-0.00759 1.17 0.113 1.71 0.355 0.497 0.222 0.939 0.551 1.29 0.965 0.324 0.366 0.563 0.8 0.698 1.27 0.109 0.389 0.168 0.79 0.175 1.19-7.63e-4 0.24-0.018 0.48-0.0516 0.718-0.0944 0.62-0.31 1.22-0.633 1.75-0.32 0.539-0.725 1.02-1.2 1.43-0.475 0.409-1.02 0.735-1.6 0.965-0.58 0.233-1.2 0.353-1.82 0.352-0.589 0.0081-1.17-0.112-1.71-0.352-0.495-0.221-0.934-0.551-1.28-0.965-0.322-0.369-0.56-0.803-0.698-1.27-0.116-0.392-0.178-0.797-0.184-1.21 1e-3 -0.236 0.0183-0.471 0.0516-0.705zm2.11-0.0134c-0.0176 0.134-0.0266 0.269-0.0269 0.404 0.0029 0.227 0.0338 0.454 0.092 0.673 0.0685 0.259 0.193 0.5 0.366 0.705 0.184 0.229 0.418 0.412 0.685 0.536 0.288 0.133 0.603 0.2 0.92 0.195 0.336 5.39e-4 0.669-0.0659 0.979-0.195 0.312-0.131 0.601-0.312 0.855-0.536 0.258-0.227 0.476-0.495 0.644-0.795 0.174-0.302 0.289-0.634 0.339-0.979 0.0174-0.13 0.0264-0.261 0.0269-0.393-0.00344-0.222-0.0343-0.443-0.092-0.658-0.0701-0.257-0.197-0.496-0.37-0.698-0.189-0.227-0.426-0.41-0.694-0.534-0.281-0.132-0.588-0.2-0.898-0.198-0.334 0.00112-0.664 0.0683-0.972 0.198-0.314 0.127-0.603 0.308-0.855 0.534-0.255 0.228-0.473 0.495-0.646 0.79-0.177 0.291-0.297 0.613-0.352 0.949z"/>
	</g>
</svg>
