<?xml version="1.0" encoding="UTF-8" standalone="no"?>
<!-- Created with Inkscape (http://www.inkscape.org/) -->

<svg
   width="16.0px"
   height="16.0px"
   viewBox="0 0 16.0 16.0"
   version="1.1"
   id="SVGRoot"
   sodipodi:docname="go.svg"
   inkscape:version="1.1.1 (3bf5ae0d25, 2021-09-20, custom)"
   xmlns:inkscape="http://www.inkscape.org/namespaces/inkscape"
   xmlns:sodipodi="http://sodipodi.sourceforge.net/DTD/sodipodi-0.dtd"
   xmlns:xlink="http://www.w3.org/1999/xlink"
   xmlns="http://www.w3.org/2000/svg"
   xmlns:svg="http://www.w3.org/2000/svg">
  <sodipodi:namedview
     id="namedview23865"
     pagecolor="#ffffff"
     bordercolor="#666666"
     borderopacity="1.0"
     inkscape:pageshadow="2"
     inkscape:pageopacity="0.0"
     inkscape:pagecheckerboard="0"
     inkscape:document-units="px"
     showgrid="true"
     inkscape:zoom="30.276868"
     inkscape:cx="5.1359342"
     inkscape:cy="10.552611"
     inkscape:window-width="2452"
     inkscape:window-height="1684"
     inkscape:window-x="23"
     inkscape:window-y="15"
     inkscape:window-maximized="0"
     inkscape:current-layer="layer1">
    <inkscape:grid
       type="xygrid"
       id="grid23928" />
  </sodipodi:namedview>
  <defs
     id="defs23860">
    <linearGradient
       id="Group_paint0-linear-241-174"
       x1="0"
       y1="55.77"
       x2="111.53"
       y2="55.77"
       gradientUnits="userSpaceOnUse"
       gradientTransform="matrix(0.14036306,0,0,0.14036306,0.17195188,0.17195176)">
      <stop
         stop-color="#FFD200"
         id="stop23971" />
      <stop
         offset="1"
         stop-color="#FFA400"
         id="stop23973" />
    </linearGradient>
    <linearGradient
       inkscape:collect="always"
       xlink:href="#Group_paint0-linear-241-174"
       id="linearGradient24490"
       x1="0"
       y1="8"
       x2="-16"
       y2="8"
       gradientUnits="userSpaceOnUse" />
  </defs>
  <g
     inkscape:label="Layer 1"
     inkscape:groupmode="layer"
     id="layer1">
    <rect
       style="fill:url(#linearGradient24490);fill-opacity:1;stroke:none;stroke-width:2.8;stroke-linecap:round;stroke-linejoin:round;stroke-dashoffset:4.00001;paint-order:markers stroke fill;stop-color:#000000"
       id="rect24384"
       width="16"
       height="16"
       x="-16"
       y="0"
       transform="scale(-1,1)" />
    <g
       id="g23996"
       transform="matrix(0.66737307,0,0,0.66737307,-3.8794345,1.132114)">
      <path
         d="M 18.003411,0 C 12.77809,0 8.5403718,4.8707022 8.5403718,10.877129 c 0,6.006426 9.4630392,15.352748 9.4630392,15.352748 0,0 9.465284,-9.344078 9.465284,-15.352748 C 27.468695,4.8684577 23.230977,0 18.003411,0 Z m 0,17.615257 c -1.40444,-0.0013 -2.776917,-0.419193 -3.943838,-1.200702 -1.166921,-0.781509 -2.075831,-1.891553 -2.611741,-3.189713 -0.535909,-1.298183 -0.674757,-2.726123 -0.398969,-4.103224 0.275788,-1.3770787 0.953823,-2.6414808 1.948318,-3.6331472 0.994516,-0.9916664 2.260804,-1.6660875 3.638668,-1.9379479 1.377865,-0.2718828 2.805423,-0.128972 4.102057,0.4106187 1.296657,0.5396132 2.40412,1.4516653 3.182306,2.6208085 0.778187,1.1691433 1.192128,2.5428327 1.189457,3.9472499 -0.003,1.881946 -0.753272,3.685648 -2.085887,5.014468 -1.332614,1.328844 -3.138447,2.073968 -5.020371,2.071589 z"
         fill="#45bdd1"
         id="path23955"
         style="stroke-width:0.224455" />
      <path
         d="m 17.597169,-0.64418473 c -5.227566,0 -9.4652835,4.87067753 -9.4652835,10.87934873 0,6.00867 9.4652835,15.350526 9.4652835,15.350526 0,0 9.46304,-9.3441 9.46304,-15.350526 0,-6.0064267 -4.235474,-10.87934873 -9.46304,-10.87934873 z m 0,17.61749973 c -1.40426,4.48e-4 -2.777096,-0.415535 -3.944893,-1.195383 -1.167819,-0.779825 -2.07812,-1.888477 -2.615826,-3.185717 -0.537682,-1.297218 -0.678596,-2.7247766 -0.404917,-4.1020798 0.273678,-1.3773256 0.949671,-2.6425358 1.942459,-3.6356611 0.992811,-0.9931029 2.25782,-1.6694992 3.635055,-1.9436266 1.377236,-0.2741049 2.804817,-0.1336632 4.102215,0.4036157 1.297419,0.5372789 2.406341,1.4472435 3.186548,2.6148155 0.780207,1.1675496 1.196639,2.5402739 1.196639,3.9445118 0,1.8825295 -0.747684,3.6879815 -2.078614,5.0193385 -1.330931,1.331357 -3.136158,2.079602 -5.018666,2.080186 z"
         fill="#1aa7b8"
         id="path23957"
         style="stroke-width:0.224455" />
    </g>
    <g
       id="g24002"
       transform="matrix(0.66737307,0,0,0.66737307,-3.7670907,0.8313636)">
      <path
         d="M 11.581765,15.961021 C 10.919868,15.971346 10.263606,15.838109 9.6581597,15.570468 9.0954725,15.317238 8.6019848,14.932319 8.2194006,14.448191 7.8582294,14.005857 7.6067272,13.484425 7.4854427,12.926406 7.3953934,12.517067 7.3465138,12.099737 7.3395422,11.680679 c 0.00182,-0.353383 0.031087,-0.706092 0.08754,-1.054941 C 7.5371011,9.9256397 7.7744627,9.2516001 8.1273739,8.6370413 8.4713293,8.0297772 8.9135065,7.4836997 9.4359713,7.0209624 9.9616234,6.5558909 10.563837,6.185315 11.21588,5.9256201 12.420151,5.4532762 13.746996,5.3932793 14.988975,5.755034 c 0.496451,0.1499587 0.960176,0.3921011 1.366934,0.7137906 0.38934,0.3147538 0.712107,0.7038921 0.949468,1.1447225 0.244949,0.4645329 0.397399,0.9722285 0.448911,1.4948729 0.01084,0.100354 6.73e-4,0.2018752 -0.02985,0.2980992 -0.03053,0.096224 -0.08076,0.1850411 -0.14749,0.2607947 -0.0354,0.037327 -0.07369,0.071848 -0.114472,0.1032271 0.06727,0.078672 0.116739,0.1709677 0.14502,0.270514 0.02828,0.09957 0.0347,0.204052 0.01883,0.306336 l -0.769859,4.866193 c -0.02673,0.168925 -0.112857,0.322767 -0.242861,0.43385 -0.130027,0.111083 -0.295406,0.172135 -0.466441,0.17218 h -2.008876 c -0.10399,-2.3e-5 -0.206768,-0.02249 -0.301264,-0.06588 -0.09452,-0.04339 -0.178576,-0.106684 -0.246407,-0.185512 l -0.01571,-0.0202 c -0.08978,0.0404 -0.181786,0.07631 -0.273813,0.112227 -0.551262,0.199474 -1.133096,0.301242 -1.719328,0.300771 z M 13.33025,6.9603595 C 12.792163,6.9596861 12.258879,7.0617684 11.759062,7.2611297 11.259335,7.4581342 10.798146,7.7415316 10.39664,8.0983708 9.9921269,8.4574769 9.6493835,8.8805754 9.3820795,9.3508094 9.1170202,9.8153872 8.9383088,10.324138 8.8546094,10.852416 c -0.045722,0.274464 -0.068998,0.55225 -0.069581,0.830507 0.00745,0.32178 0.04653,0.642055 0.1167168,0.95618 0.073374,0.338412 0.2273733,0.654131 0.4489108,0.920267 0.242524,0.305484 0.5551231,0.548031 0.911289,0.707035 0.417532,0.181135 0.869271,0.269952 1.324286,0.260368 0.421977,0.005 0.841461,-0.06496 1.238994,-0.206499 0.324136,-0.116694 0.627331,-0.284968 0.897822,-0.498291 -0.408531,0.133529 -0.836119,0.199474 -1.265929,0.195276 -1.036983,0 -1.79562,-0.289569 -2.284933,-0.861931 -0.443187,-0.523946 -0.6822993,-1.190264 -0.673366,-1.876447 0.00213,-0.236217 0.023141,-0.471917 0.062848,-0.70479 0.122754,-0.8325497 0.517324,-1.6011523 1.122276,-2.1861952 0.301691,-0.2890761 0.655971,-0.5176391 1.043695,-0.6733662 0.398611,-0.1612488 0.824739,-0.2435566 1.254706,-0.2423894 0.502713,-0.011627 0.999163,0.1132378 1.436515,0.3613507 0.272578,0.1580391 0.503431,0.3788807 0.673366,0.644187 h 1.039228 C 16.106763,8.417075 16.077584,8.3609611 16.048405,8.3048473 15.901297,8.0305179 15.700544,7.7885774 15.458087,7.5933461 15.19094,7.3840415 14.886175,7.227843 14.560265,7.1331901 14.161184,7.014543 13.746592,6.9562968 13.33025,6.9603595 Z m 1.660992,7.4339625 h 0.554405 l 0.54316,-3.429678 -2.522879,0.01347 h 1.1335 c 0.104416,-1.8e-4 0.207599,0.02247 0.302319,0.06635 0.09474,0.04388 0.178734,0.107941 0.246093,0.187712 0.06736,0.07975 0.116447,0.17328 0.143853,0.274015 0.02741,0.100736 0.03246,0.206252 0.01477,0.309143 l -0.116717,0.702545 c -0.02,0.118759 -0.0694,0.230673 -0.143651,0.325483 -0.235027,0.298054 -0.527313,0.546077 -0.859664,0.72948 0.121071,0.0015 0.239875,0.03313 0.345661,0.092 0.126571,0.07106 0.22863,0.178824 0.292735,0.309053 0.0641,0.130206 0.08727,0.276798 0.06642,0.420427 z M 12.971144,8.9041656 c -0.484195,-0.00168 -0.950412,0.1832005 -1.301864,0.5162474 -0.180956,0.1801928 -0.332441,0.3877467 -0.448911,0.615008 -0.124101,0.237114 -0.206858,0.493689 -0.244656,0.758659 -0.02747,0.160194 -0.04249,0.322273 -0.04489,0.484801 -0.0065,0.348961 0.114831,0.68827 0.341172,0.953936 0.242412,0.287303 0.77886,0.347928 1.185124,0.347928 0.319827,0.0058 0.637701,-0.05064 0.935979,-0.166097 h -0.673366 c -0.103563,-9e-5 -0.205915,-0.02256 -0.299984,-0.0659 -0.09409,-0.04334 -0.177679,-0.106482 -0.245061,-0.185176 -0.06736,-0.07867 -0.116919,-0.17099 -0.145267,-0.270603 -0.02835,-0.09964 -0.03481,-0.204232 -0.01894,-0.306584 L 12.23493,10.13867 C 12.260675,9.9689147 12.346372,9.814018 12.476489,9.7020148 12.606583,9.590034 12.772523,9.5283536 12.944187,9.5281516 H 13.99466 C 13.97098,9.4862682 13.952171,9.4418261 13.938546,9.3957005 13.919804,9.3256031 13.886832,9.2601294 13.841627,9.2033647 13.796444,9.1465774 13.740038,9.0997336 13.675911,9.0657511 13.46086,8.9510095 13.219234,8.8952547 12.97561,8.9041656 Z"
         fill="#ffffff"
         id="path23961"
         style="stroke-width:0.224455" />
      <path
         d="m 21.899979,15.961021 c -0.691973,0.008 -1.377415,-0.134449 -2.008876,-0.417487 -0.591776,-0.265643 -1.116418,-0.660662 -1.535274,-1.155946 -0.388331,-0.447047 -0.674781,-0.973216 -0.839464,-1.542008 -0.132406,-0.454567 -0.202615,-0.924958 -0.208743,-1.398357 0.0012,-0.269594 0.02074,-0.538805 0.05836,-0.805773 0.110993,-0.7084258 0.357131,-1.3889072 0.724991,-2.0044087 0.360341,-0.6093067 0.819218,-1.154621 1.357955,-1.6138119 0.535484,-0.4573503 1.142007,-0.82429 1.795643,-1.0863641 0.649619,-0.267663 1.345768,-0.404289 2.048358,-0.4019771 0.702613,0.00231 1.397841,0.1434943 2.045709,0.415422 0.592382,0.2657327 1.118326,0.6598091 1.539764,1.1537007 0.393897,0.4472947 0.682322,0.9773237 0.843952,1.5510092 0.127266,0.4493148 0.195276,0.9134212 0.20201,1.3804009 -6.73e-4,0.274194 -0.02087,0.547963 -0.0606,0.81924 -0.107963,0.714441 -0.355088,1.400758 -0.727235,2.020098 -0.361127,0.602214 -0.815716,1.143174 -1.346733,1.602612 -0.534316,0.459572 -1.141086,0.827432 -1.795643,1.088608 -0.666588,0.263646 -1.377348,0.397735 -2.094169,0.395042 z m -3.110952,-5.113072 c -0.02976,0.198374 -0.04476,0.398678 -0.04489,0.599274 0.0061,0.343574 0.05818,0.684791 0.154875,1.014538 0.111329,0.370554 0.301196,0.712736 0.556649,1.003316 0.282679,0.332216 0.636286,0.596849 1.034739,0.774393 0.953577,0.384515 2.020076,0.378859 2.969545,-0.01573 0.50911,-0.200641 0.981005,-0.485138 1.396113,-0.841708 0.416499,-0.358477 0.772037,-0.782227 1.052696,-1.254705 0.275339,-0.457553 0.45836,-0.964665 0.538692,-1.492629 0.0292,-0.201448 0.0442,-0.404693 0.04489,-0.608251 -0.0071,-0.3411277 -0.05838,-0.6798983 -0.15263,-1.0078051 C 26.233023,8.6502392 26.045109,8.3104587 25.789791,8.024278 25.502847,7.6921963 25.146569,7.4271145 24.746074,7.2476848 23.795303,6.8613746 22.730464,6.8662004 21.783262,7.2611297 20.754067,7.6691896 19.890093,8.408411 19.32772,9.3620546 19.054513,9.8182153 18.871627,10.322679 18.789027,10.847949 Z m 3.438657,3.104218 c -0.424737,0.0055 -0.845209,-0.08507 -1.230015,-0.264879 -0.363214,-0.17016 -0.683198,-0.420293 -0.935979,-0.731703 -0.236554,-0.287594 -0.408083,-0.622975 -0.502781,-0.983114 -0.07106,-0.273522 -0.108748,-0.554652 -0.112227,-0.837241 6.73e-4,-0.165087 0.01118,-0.32995 0.03142,-0.49378 v -0.0202 c 0.06536,-0.430124 0.21404,-0.8433683 0.437688,-1.2165703 0.210673,-0.3575574 0.474857,-0.6807732 0.783349,-0.9584245 0.313766,-0.2822078 0.672625,-0.509828 1.061674,-0.6733662 0.388869,-0.1660072 0.807703,-0.2502453 1.230532,-0.2475519 0.422806,0.00272 0.84054,0.092319 1.227254,0.2632862 0.362114,0.1709452 0.682367,0.4191929 0.938224,0.7272355 0.242187,0.2837789 0.417824,0.6181501 0.514003,0.9786255 0.07118,0.2727357 0.108861,0.5531027 0.112228,0.8349517 -2.7e-4,0.159812 -0.01001,0.319445 -0.02918,0.47809 -0.06541,0.43872 -0.210718,0.861707 -0.428709,1.247994 -0.417151,0.73581 -1.066927,1.312167 -1.847268,1.638502 -0.395581,0.167848 -0.82052,0.255588 -1.250217,0.258146 z M 20.903397,10.82997 c -0.01329,0.101207 -0.02004,0.203177 -0.0202,0.30526 0.0031,0.165334 0.02644,0.32968 0.06958,0.489335 0.04276,0.157523 0.119343,0.303823 0.224456,0.42871 0.116335,0.144841 0.26461,0.260839 0.433199,0.338927 0.209058,0.08581 0.433266,0.128636 0.659248,0.12592 0.225981,-0.0027 0.44909,-0.05088 0.65606,-0.141654 0.486889,-0.203716 0.892031,-0.563854 1.151457,-1.023494 0.129106,-0.226116 0.215095,-0.474229 0.253634,-0.731725 0.01073,-0.09391 0.01672,-0.188295 0.01796,-0.282813 -0.0041,-0.162304 -0.02741,-0.323553 -0.06958,-0.480335 C 24.235348,9.7043715 24.158786,9.5619546 24.054751,9.440614 23.933253,9.2928326 23.779748,9.1746344 23.60584,9.0949303 23.39988,9.0092332 23.178612,8.9664295 22.955548,8.969123 22.732484,8.971813 22.512294,9.019985 22.308488,9.1106646 22.0707,9.2081906 21.85134,9.3455571 21.659812,9.5169064 21.458879,9.6960218 21.287665,9.9058651 21.152543,10.13867 c -0.127536,0.211886 -0.2122,0.446756 -0.249146,0.6913 z"
         fill="#ffffff"
         id="path23965"
         style="stroke-width:0.224455" />
      <path
         d="M 11.41789,15.078933 C 10.859108,15.08845 10.304861,14.977412 9.7928329,14.753451 9.3343379,14.54684 8.9318445,14.233634 8.6189312,13.83994 8.3281941,13.485143 8.1251742,13.066848 8.026369,12.618902 7.9459691,12.256878 7.9023574,11.887627 7.8961848,11.516826 7.8963195,11.202454 7.9226032,10.888621 7.9747442,10.57858 8.0684095,9.9626972 8.2762327,9.369731 8.5875075,8.8300953 8.8929239,8.2915146 9.2849801,7.8069379 9.7479418,7.3958254 10.21142,6.9849822 10.743155,6.6583323 11.31913,6.4306672 c 1.051349,-0.4133346 2.209942,-0.4669795 3.295005,-0.1526297 0.407499,0.1243259 0.78813,0.3237994 1.122277,0.5880732 0.315853,0.2545997 0.577613,0.56978 0.769882,0.9270007 0.201852,0.3830107 0.327615,0.8014629 0.370351,1.2322601 H 14.468239 C 14.377963,8.7123685 14.169489,8.4467255 13.886899,8.2846687 13.560137,8.102613 13.190122,8.0126063 12.816247,8.024278 c -0.337581,-0.00191 -0.672311,0.062174 -0.985359,0.188565 -0.303037,0.1216997 -0.579701,0.3007927 -0.814773,0.5274702 -0.239629,0.2320644 -0.440449,0.5010742 -0.594807,0.7967942 -0.161496,0.3095464 -0.269279,0.6442546 -0.318727,0.9898706 -0.03273,0.194334 -0.04999,0.390979 -0.05162,0.588073 -0.0078,0.517909 0.172449,1.021115 0.507269,1.416314 0.339691,0.404019 0.918763,0.606029 1.737285,0.606029 0.423973,0.01042 0.845613,-0.06597 1.238993,-0.224455 0.348131,-0.145155 0.653345,-0.376973 0.886599,-0.673366 l 0.116717,-0.70479 h -1.975208 l 0.224456,-1.447737 h 3.979594 l -0.769882,4.86617 h -2.008876 l 0.123451,-0.832707 c -0.358703,0.304833 -0.769254,0.5428 -1.212059,0.702545 -0.474926,0.171686 -0.976404,0.258326 -1.481406,0.255879 z"
         fill="#000000"
         id="path23967"
         style="stroke-width:0.224455" />
      <path
         d="m 17.911384,10.57858 c 0.0967,-0.6180824 0.311589,-1.211722 0.632965,-1.7484847 0.321554,-0.5407803 0.72948,-1.0252898 1.20757,-1.4342699 0.475935,-0.4075212 1.015907,-0.7336325 1.598122,-0.9651582 0.578309,-0.2342641 1.196392,-0.354662 1.820333,-0.3546395 0.58841,-0.00759 1.171366,0.1134397 1.708106,0.3546395 0.497303,0.2216946 0.938942,0.5514196 1.292863,0.9651582 0.324473,0.3661541 0.562979,0.8001835 0.698056,1.2703951 0.109489,0.3888465 0.168319,0.7902176 0.175075,1.1941251 -7.63e-4,0.2403244 -0.018,0.4802894 -0.05162,0.7182344 -0.09445,0.620081 -0.309502,1.215651 -0.632965,1.753019 -0.319804,0.538761 -0.725417,1.021699 -1.200836,1.429781 -0.47479,0.409093 -1.015055,0.735339 -1.598122,0.965136 -0.580128,0.233142 -1.199602,0.352777 -1.824823,0.352417 -0.588948,0.0081 -1.172577,-0.11216 -1.71035,-0.352417 -0.494857,-0.22147 -0.933644,-0.551285 -1.283885,-0.965136 -0.322093,-0.368668 -0.560263,-0.802899 -0.698056,-1.272662 -0.115886,-0.39154 -0.177791,-0.797063 -0.184053,-1.205325 0.001,-0.235836 0.01827,-0.471334 0.05162,-0.704813 z m 2.11437,-0.01344 c -0.0176,0.133954 -0.0266,0.268897 -0.02693,0.403997 0.0029,0.227396 0.03383,0.453557 0.09203,0.673366 0.06853,0.259021 0.193458,0.499705 0.365863,0.704812 0.184255,0.22872 0.418429,0.412235 0.684589,0.536449 0.288245,0.133214 0.602752,0.199967 0.920267,0.195276 0.335942,5.39e-4 0.66863,-0.06586 0.978625,-0.195276 0.312487,-0.130858 0.601361,-0.312083 0.855175,-0.536449 0.258012,-0.226632 0.475823,-0.49526 0.644187,-0.794572 0.173706,-0.301892 0.288695,-0.633974 0.338928,-0.978648 0.01737,-0.130206 0.02637,-0.261423 0.02693,-0.392797 C 24.90198,9.9591284 24.871073,9.7382419 24.813388,9.5236625 24.743313,9.2663693 24.616787,9.0279079 24.443036,8.8256062 24.254337,8.5982778 24.017424,8.415818 23.749469,8.2914024 23.468765,8.1591533 23.161935,8.0916595 22.851648,8.0938816 c -0.33381,0.00112 -0.664119,0.068257 -0.971892,0.1975208 -0.314036,0.1268397 -0.603449,0.3076386 -0.855175,0.5342038 -0.255184,0.2282038 -0.473264,0.494767 -0.646432,0.790083 -0.177477,0.2908493 -0.297134,0.6132348 -0.352395,0.9494468 z"
         fill="#000000"
         id="path23969"
         style="stroke-width:0.224455" />
    </g>
  </g>
</svg>
