<svg width="50" height="50" version="1.1" viewBox="0 0 50 50" xmlns="http://www.w3.org/2000/svg">
	<defs>
		<linearGradient id="Group_paint0-linear-334-110" x1=".673" x2="155" y1="77.2" y2="77.2" gradientTransform="matrix(.323 0 0 .325 -.105 -.42)" gradientUnits="userSpaceOnUse">
			<stop stop-color="#009FE3" offset=".14"/>
			<stop stop-color="#003D71" offset="1"/>
		</linearGradient>
		<linearGradient id="Group_paint1-linear-334-110" x1="80.8" x2="150" y1="77" y2="77.1" gradientTransform="matrix(.323 0 0 .325 -.105 -.42)" gradientUnits="userSpaceOnUse">
			<stop stop-color="#F1D680" offset="0"/>
			<stop stop-color="#EFC84B" offset="1"/>
		</linearGradient>
		<linearGradient id="Group_paint2-linear-334-110" x1="146" x2="85.4" y1="77" y2="77" gradientTransform="matrix(.323 0 0 .325 .262 -.714)" gradientUnits="userSpaceOnUse">
			<stop stop-color="#F6B216" offset="0"/>
			<stop stop-color="#EBB741" offset="1"/>
		</linearGradient>
	</defs>
	<g stroke-width=".324">
		<path d="m25 50c13.8 0 25-11.2 25-25 0-13.9-11.2-25-25-25s-25 11.2-25 25c0 13.9 11.2 25 25 25z" fill="url(#Group_paint0-linear-334-110)"/>
		<path d="m31.3 36c-0.0194 0.0105-0.166 0.121-0.186 0.134-2.71 2.01-5 2.12-8.35 1.63-3.37-0.5-6.41-2.32-8.44-5.06-2.04-2.74-2.91-6.18-2.42-9.56 0.499-3.38 2.31-6.43 5.05-8.47 2.73-2.04 6.16-2.91 9.54-2.42 1.28 0.186 2.52 0.565 3.69 1.12l-1.05 0.901c-0.309 0.264-0.512 0.631-0.57 1.03l-0.0124 0.118c-0.0172 0.222 0.0105 0.444 0.0795 0.655 0.0694 0.211 0.18 0.407 0.325 0.575 0.19 0.221 0.435 0.387 0.71 0.484l0.314 0.0824c0.237 0.0309 0.48 0.0206 0.711-0.0515 0.231-0.0721 0.445-0.183 0.628-0.34l2.96-2.54c0.428-0.369 0.751-0.845 0.937-1.38 0.0691-0.194 0.118-0.395 0.147-0.6 0.0524-0.355 0.0449-0.715-0.0213-1.07l-0.721-3.83c-0.0539-0.289-0.183-0.56-0.373-0.785-0.191-0.225-0.437-0.393-0.714-0.492l-0.318-0.0824c-0.184-0.0309-0.371-0.0206-0.554 0.0105-0.218 0.0412-0.426 0.125-0.611 0.247-0.185 0.123-0.344 0.28-0.468 0.465-0.143 0.21-0.236 0.45-0.273 0.701-0.0266 0.185-0.023 0.373 0.011 0.557l0.247 1.3c-1.42-0.638-2.92-1.08-4.46-1.3-4.49-0.654-9.06 0.502-12.7 3.21-3.64 2.72-6.06 6.76-6.73 11.2-0.654 4.51 0.501 9.08 3.21 12.7 2.71 3.64 6.76 6.07 11.2 6.73 3.61 0.525 8.24 0.296 12.6-3.09 0.0195-0.0105 0.175-0.138 0.195-0.153z" fill="#fff"/>
		<g transform="translate(0 .893)">
			<path d="m45.9 32.1c4.42-4.43 4.42-11.7 0-16.1-4.42-4.43-11.6-4.43-16 0-4.42 4.43-4.42 11.7 0 16.1 4.42 4.43 11.6 4.43 16 0z" fill="url(#Group_paint1-linear-334-110)"/>
			<path d="m37.9 33.9c5.42 0 9.8-4.41 9.8-9.84 0-5.44-4.39-9.84-9.8-9.84-5.42 0-9.8 4.41-9.8 9.84 0 5.44 4.39 9.84 9.8 9.84z" fill="url(#Group_paint2-linear-334-110)"/>
			<path d="m37.9 33.4c-2.46-0.0042-4.81-0.985-6.55-2.73-1.74-1.74-2.72-4.11-2.72-6.58 0.0042-2.47 0.981-4.83 2.72-6.58 1.74-1.74 4.09-2.73 6.55-2.73 2.46 0.0042 4.81 0.985 6.55 2.73 1.74 1.74 2.72 4.11 2.72 6.58-0.0042 2.47-0.981 4.83-2.72 6.58-1.74 1.74-4.09 2.73-6.55 2.73zm0-18.2c-2.33 0.0021-4.57 0.934-6.21 2.59-1.65 1.66-2.57 3.9-2.58 6.24 0.0021 2.34 0.93 4.59 2.58 6.24 1.65 1.66 3.88 2.58 6.21 2.59 2.33-0.0021 4.57-0.934 6.21-2.59 1.65-1.66 2.57-3.9 2.58-6.24-0.0021-2.34-0.93-4.59-2.58-6.24-1.65-1.66-3.88-2.58-6.21-2.59z" fill="#bc8100" stroke="#bc8100"/>
			<path d="m33.5 19.2v-0.66h1.91l0.0165-0.144 0.102-0.901h0.775l0.103 0.901 0.0165 0.144h0.824l0.0165-0.144 0.102-0.901h0.82l0.103 0.901 0.0161 0.144h0.144c0.554 0 0.925 0.0618 1.23 0.176 0.305 0.116 0.558 0.289 0.872 0.537l1e-3 8.32e-4c0.591 0.455 0.896 1.14 0.896 2.1 0 0.451-0.141 0.852-0.426 1.21v1.98e-4c-0.282 0.357-0.659 0.625-1.13 0.801l-0.528 0.196 0.551 0.114c0.412 0.0824 0.762 0.253 1.06 0.5l1e-3 1e-3c0.293 0.245 0.519 0.546 0.678 0.907h-3.24e-4l1e-3 0.0021c0.163 0.354 0.246 0.746 0.246 1.18 0 0.968-0.308 1.69-0.908 2.18-0.608 0.498-1.44 0.755-2.52 0.755h-0.157l-0.018 0.141-0.101 0.796h-0.823l-0.101-0.796-0.018-0.141h-0.82l-0.0181 0.141-0.101 0.796h-0.779l-0.101-0.796-0.018-0.141h-1.91v-0.652l1.08-0.188 0.134-0.0206v-8.93l-0.134-0.0206zm2.35 9v0.162h2.62c0.695 0 1.26-0.173 1.66-0.54h3.35e-4c0.413-0.375 0.611-0.898 0.611-1.54 0-0.449-0.072-0.842-0.223-1.18-0.147-0.336-0.378-0.599-0.69-0.784-0.31-0.185-0.692-0.272-1.14-0.272h-2.83v0.162zm0-5.16v0.162h2.53c0.559 0 1.03-0.165 1.38-0.504 0.365-0.348 0.541-0.816 0.541-1.39 0-0.629-0.196-1.12-0.611-1.46-0.407-0.329-0.979-0.481-1.69-0.481h-2.15v0.162z" fill="none" stroke="#efc84a"/>
			<path d="m33.6 29.7v-0.952l1.19-0.211v-8.66l-1.19-0.211v-0.958h1.9l0.117-1.04h1.05l0.117 1.04h0.528l0.117-1.04h1.09l0.117 1.04c1.12 0 1.55 0.249 2.18 0.747 0.631 0.493 0.946 1.24 0.946 2.23 0 0.488-0.152 0.925-0.455 1.31-0.298 0.382-0.695 0.667-1.19 0.852 0.43 0.0926 0.799 0.27 1.11 0.537 0.308 0.262 0.545 0.584 0.711 0.965 0.172 0.378 0.256 0.793 0.256 1.25 0 1.01-0.318 1.78-0.954 2.31-0.635 0.528-1.5 0.793-2.58 0.793h-0.0145l-0.117 0.938h-1.09l-0.117-0.938h-0.528l-0.117 0.938h-1.05l-0.117-0.938zm2.64-1.17h2.42c0.66 0 1.17-0.166 1.54-0.498 0.367-0.336 0.55-0.812 0.55-1.43 0-0.433-0.0685-0.803-0.205-1.11-0.132-0.307-0.338-0.543-0.616-0.709-0.274-0.166-0.621-0.249-1.04-0.249h-2.64zm0-5.16h2.34c0.518 0 0.936-0.153 1.26-0.46 0.322-0.312 0.484-0.734 0.484-1.27 0-0.593-0.181-1.04-0.543-1.32-0.362-0.296-0.885-0.444-1.57-0.444h-1.97z" fill="#bc8100"/>
		</g>
		<path d="m37.4 36.4 0.0672 4.54 4.1-0.0618-0.155-10.3v-0.0721c-0.0063-0.19-0.0342-0.38-0.0852-0.564-0.288-0.712-1.28-1.89-2.45-1.87-1.13 0.0206-1.87 0.859-2.35 1.82-0.0694 0.141-0.178 0.258-0.245 0.405-0.864 1.9-2.41 3.84-5.15 5.79l3.58 2.71c0.715-0.559 2.25-1.84 2.69-2.46z" fill="#fff"/>
	</g>
</svg>
