<?xml version="1.0" encoding="UTF-8" standalone="no"?>
<svg
   width="40.94371mm"
   height="40.86702mm"
   viewBox="0 0 40.94371 40.86702"
   version="1.1"
   xmlns="http://www.w3.org/2000/svg">
  <defs
     id="defs2">
    <linearGradient
       id="Group_paint0-linear-334-110"
       x1="0.673096"
       y1="77.228897"
       x2="155.42101"
       y2="77.228897"
       gradientUnits="userSpaceOnUse"
       gradientTransform="matrix(0.26458333,0,0,0.26458333,104.31943,201.82215)">
      <stop
         offset="0.14"
         stop-color="#009FE3"
         id="stop842" />
      <stop
         offset="1"
         stop-color="#003D71"
         id="stop844" />
    </linearGradient>
    <linearGradient
       id="Group_paint1-linear-334-110"
       x1="80.816597"
       y1="76.962799"
       x2="149.73599"
       y2="77.092003"
       gradientUnits="userSpaceOnUse"
       gradientTransform="matrix(0.26458333,0,0,0.26458333,104.31943,201.82215)">
      <stop
         stop-color="#F1D680"
         id="stop847" />
      <stop
         offset="1"
         stop-color="#EFC84B"
         id="stop849" />
    </linearGradient>
    <linearGradient
       id="Group_paint2-linear-334-110"
       x1="145.57401"
       y1="76.962799"
       x2="85.442101"
       y2="76.962799"
       gradientUnits="userSpaceOnUse"
       gradientTransform="matrix(0.26458333,0,0,0.26458333,104.31943,201.82215)">
      <stop
         stop-color="#F6B216"
         id="stop852" />
      <stop
         offset="1"
         stop-color="#EBB741"
         id="stop854" />
    </linearGradient>
  </defs>
  <g
     id="layer1"
     transform="translate(-104.49752,-201.82215)">
    <path
       d="m 124.96931,242.68917 c 11.30623,0 20.47192,-9.1485 20.47192,-20.43354 0,-11.28511 -9.16569,-20.43348 -20.47192,-20.43348 -11.30626,0 -20.47179,9.14837 -20.47179,20.43348 0,11.28504 9.16553,20.43354 20.47179,20.43354 z"
       fill="url(#Group_paint0-linear-334-110)"
       id="path824"
       style="fill:url(#Group_paint0-linear-334-110);stroke-width:0.264583" />
    <path
       d="m 129.43735,230.66173 c -2.23903,1.66846 -4.12361,1.76584 -6.88863,1.3642 -2.76376,-0.40825 -5.25251,-1.89389 -6.92034,-4.1311 -1.66783,-2.23721 -2.37858,-5.04336 -1.97633,-7.80293 0.40857,-2.75847 1.89669,-5.24254 4.13787,-6.90729 2.24118,-1.66474 5.0524,-2.37419 7.81698,-1.97274 1.04886,0.1519 2.06865,0.46133 3.02472,0.91779 l -0.85839,0.73625 c -0.25307,0.21535 -0.41905,0.51523 -0.46702,0.84371 l -0.0102,0.0958 c -0.014,0.18084 0.008,0.36266 0.0651,0.53491 0.0569,0.17224 0.14756,0.33152 0.26662,0.46855 0.15632,0.17989 0.3569,0.31602 0.58196,0.39499 l 0.25751,0.0639 c 0.1949,0.029 0.39378,0.0158 0.58309,-0.0388 0.18931,-0.0546 0.3646,-0.14938 0.5139,-0.27776 l 2.42375,-2.0766 c 0.35057,-0.30089 0.61542,-0.68853 0.76835,-1.12398 0.0566,-0.15867 0.0971,-0.32263 0.12065,-0.4894 0.0429,-0.28938 0.0368,-0.58386 -0.0175,-0.8713 l -0.59055,-3.13232 c -0.0442,-0.23635 -0.14975,-0.45701 -0.30639,-0.63976 -0.15663,-0.18275 -0.35851,-0.32121 -0.58552,-0.40143 l -0.26035,-0.0639 c -0.15081,-0.0224 -0.30427,-0.0195 -0.45402,0.009 -0.17857,0.0332 -0.3487,0.10162 -0.50038,0.20137 -0.15166,0.0998 -0.28181,0.22879 -0.38275,0.37949 -0.11726,0.17124 -0.19389,0.36693 -0.22405,0.57216 -0.0218,0.15097 -0.0188,0.30449 0.009,0.45453 l 0.20222,1.06299 c -1.16329,-0.52003 -2.39244,-0.87865 -3.6532,-1.06589 -3.68006,-0.53446 -7.42225,0.40991 -10.40561,2.62596 -2.98334,2.21604 -4.9642,5.52273 -5.50802,9.19469 -0.53544,3.67356 0.41084,7.4091 2.63131,10.38702 2.22046,2.97815 5.53376,4.95538 9.21297,5.4983 2.97204,0.43048 6.78521,0.24049 10.32108,-2.56145 z"
       fill="#ffffff"
       id="path826"
       style="stroke-width:0.264583" />
    <path
       d="m 141.46666,228.61175 c 3.62294,-3.61636 3.62294,-9.4796 0,-13.09593 -3.6232,-3.61632 -9.49748,-3.61632 -13.12053,0 -3.62312,3.61633 -3.62312,9.47957 0,13.09593 3.62305,3.61632 9.49733,3.61632 13.12053,0 z"
       fill="url(#Group_paint1-linear-334-110)"
       id="path828"
       style="fill:url(#Group_paint1-linear-334-110);stroke-width:0.264583" />
    <path
       d="m 134.88251,230.31725 c 4.43732,0 8.03433,-3.59706 8.03433,-8.03421 0,-4.43711 -3.59701,-8.0341 -8.03433,-8.0341 -4.43701,0 -8.034,3.59699 -8.034,8.0341 0,4.43715 3.59699,8.03421 8.034,8.03421 z"
       fill="url(#Group_paint2-linear-334-110)"
       id="path830"
       style="fill:url(#Group_paint2-linear-334-110);stroke-width:0.264583" />
    <path
       d="m 134.88251,229.87698 c -2.01295,-0.003 -3.94283,-0.80407 -5.36639,-2.22747 -1.42348,-1.42349 -2.22451,-3.35333 -2.22742,-5.36644 0.003,-2.01313 0.80394,-3.94298 2.22742,-5.36649 1.42356,-1.42349 3.35344,-2.22448 5.36639,-2.22742 2.01321,0.003 3.94308,0.80393 5.36654,2.22742 1.42346,1.42351 2.22462,3.35336 2.22753,5.36649 -0.003,2.01311 -0.80407,3.94295 -2.22753,5.36644 -1.42346,1.4234 -3.35333,2.22456 -5.36654,2.22747 z m 0,-14.80399 c -1.91083,0.002 -3.7428,0.76224 -5.09382,2.11341 -1.35117,1.35115 -2.11121,3.18307 -2.11341,5.09389 0.002,1.91082 0.76224,3.74275 2.11341,5.09389 1.35102,1.35107 3.18299,2.11122 5.09382,2.11334 1.91082,-0.002 3.74279,-0.76227 5.09402,-2.11334 1.35123,-1.35114 2.11111,-3.18307 2.11323,-5.09389 -0.002,-1.91082 -0.762,-3.74274 -2.11323,-5.09389 -1.35123,-1.35117 -3.1832,-2.11121 -5.09402,-2.11341 z"
       fill="#bc8100"
       stroke="#bc8100"
       id="path832"
       style="stroke-width:0.264583" />
    <path
       d="m 131.43922,218.42637 v -0.53845 h 1.45256 0.118 l 0.0135,-0.11727 0.0839,-0.73495 h 0.63553 l 0.0841,0.73495 0.0135,0.11727 h 0.11801 0.43921 0.118 l 0.0135,-0.11727 0.0839,-0.73495 h 0.67231 l 0.0841,0.73495 0.0132,0.11727 h 0.118 c 0.45403,0 0.75777,0.0498 1.00806,0.14393 0.25056,0.0943 0.45694,0.2363 0.71464,0.43765 v 0 l 0.001,7.1e-4 c 0.48419,0.37164 0.73449,0.93377 0.73449,1.71165 0,0.36774 -0.11563,0.69596 -0.34925,0.98901 v 1.6e-4 c -0.23151,0.29122 -0.53975,0.50972 -0.92975,0.65407 l -0.43286,0.16021 0.45191,0.0934 c 0.33787,0.0698 0.62389,0.20651 0.86148,0.40846 l 0.001,8.2e-4 c 0.23998,0.20013 0.42492,0.4463 0.5551,0.74017 h -2.6e-4 l 0.001,0.002 c 0.13335,0.28901 0.20108,0.60852 0.20108,0.96057 0,0.79016 -0.25241,1.37708 -0.74401,1.78205 -0.49795,0.40619 -1.18031,0.61659 -2.06163,0.61659 h -0.0122 -0.11642 l -0.0148,0.11554 -0.0828,0.64963 h -0.67495 l -0.0828,-0.64963 -0.0148,-0.11554 h -0.11653 -0.4392 -0.11642 l -0.0148,0.11554 -0.0828,0.64963 h -0.63844 l -0.0828,-0.64963 -0.0148,-0.11554 h -0.11642 -1.45256 v -0.53232 l 0.88397,-0.15338 0.10954,-0.019 v -0.11131 -7.06313 -0.11131 l -0.10954,-0.0191 z m 1.92987,7.34687 v 0.13229 h 0.13229 2.01136 c 0.56939,0 1.03003,-0.14083 1.36234,-0.44045 l 2.7e-4,-5e-5 c 0.3384,-0.30557 0.50085,-0.73271 0.50085,-1.26206 0,-0.36642 -0.059,-0.68755 -0.18229,-0.95912 -0.12065,-0.27495 -0.30983,-0.48916 -0.56568,-0.63889 -0.25347,-0.15078 -0.56701,-0.22156 -0.93266,-0.22156 h -2.19419 -0.13229 v 0.13229 z m 0,-4.20587 v 0.13229 h 0.13229 1.94416 c 0.45799,0 0.84032,-0.13401 1.13347,-0.41193 v -2e-5 c 0.29925,-0.28395 0.44345,-0.66601 0.44345,-1.13049 0,-0.513 -0.16034,-0.91755 -0.5006,-1.18716 -0.33311,-0.26807 -0.80195,-0.39224 -1.38694,-0.39224 h -1.63354 -0.13229 v 0.13229 z"
       stroke="#efc84a"
       id="path834"
       style="stroke-width:0.264583" />
    <path
       d="m 131.47097,226.98615 v -0.77592 l 0.97949,-0.1724 v -7.06314 l -0.97949,-0.17242 v -0.78206 h 1.56236 l 0.0963,-0.85222 h 0.85937 l 0.096,0.85222 h 0.43312 l 0.096,-0.85222 h 0.89535 l 0.0963,0.85222 c 0.91334,0 1.26577,0.2032 1.7788,0.60963 0.51673,0.40232 0.77522,1.00785 0.77522,1.8166 0,0.3982 -0.12435,0.75536 -0.37253,1.07146 -0.24447,0.31199 -0.56912,0.54395 -0.97367,0.69585 0.35243,0.0739 0.65511,0.21963 0.90753,0.4372 0.25241,0.21349 0.44661,0.47622 0.58287,0.78822 0.14023,0.30789 0.21035,0.64659 0.21035,1.01605 0,0.82106 -0.26035,1.44918 -0.78132,1.88434 -0.5207,0.43106 -1.22608,0.64659 -2.11534,0.64659 h -0.0119 l -0.0963,0.76517 h -0.89535 l -0.096,-0.76517 H 134.085 l -0.096,0.76517 h -0.85936 l -0.0963,-0.76517 z m 2.1635,-0.94832 h 1.98331 c 0.54081,0 0.95938,-0.1355 1.25598,-0.40643 0.30057,-0.27506 0.45085,-0.66302 0.45085,-1.16385 0,-0.35306 -0.0561,-0.65479 -0.16828,-0.90522 -0.10821,-0.25043 -0.27648,-0.44336 -0.50508,-0.57885 -0.22437,-0.13547 -0.5088,-0.2032 -0.85329,-0.2032 h -2.16349 z m 0,-4.20587 h 1.91717 c 0.42465,0 0.76729,-0.1252 1.02764,-0.37563 0.26432,-0.25453 0.39661,-0.59936 0.39661,-1.03452 0,-0.48443 -0.14817,-0.84569 -0.44477,-1.08382 -0.29633,-0.2422 -0.72522,-0.3633 -1.28614,-0.3633 h -1.61051 z"
       fill="#bc8100"
       id="path836"
       style="stroke-width:0.264583" />
    <path
       d="m 134.56739,230.9033 0.055,3.70152 3.36391,-0.0508 -0.12674,-8.36155 c 0,-0.009 0,-0.0407 0,-0.0552 -0.005,-0.15568 -0.0281,-0.31022 -0.0699,-0.46034 -0.23548,-0.58087 -1.04298,-1.5393 -2.00474,-1.52477 -0.92525,0.0145 -1.53485,0.70138 -1.92908,1.48701 -0.0569,0.11472 -0.14552,0.21058 -0.20082,0.3311 -0.70803,1.55054 -1.96877,3.10396 -4.21767,4.69146"
       fill="#ffffff"
       id="path838"
       style="stroke-width:0.264583" />
    <path
       d="m 134.56739,230.9033 0.055,3.70152 3.36391,-0.0508 -0.12674,-8.36155 v -0.0552 c -0.005,-0.15568 -0.0281,-0.31022 -0.0699,-0.46034 -0.23548,-0.58087 -1.04298,-1.5393 -2.00474,-1.52477 -0.92525,0.0145 -1.53485,0.70138 -1.92908,1.48701 -0.0569,0.11472 -0.14552,0.21058 -0.20082,0.3311 -0.70803,1.55054 -1.96877,3.10396 -4.21767,4.69146 l 2.92783,2.24896 c 0.58605,-0.45641 1.84705,-1.49675 2.20212,-2.0074 z"
       fill="#ffffff"
       id="path840"
       style="stroke-width:0.264583" />
  </g>
</svg>
