<svg width="50" height="50" version="1.1" viewBox="0 0 50 50" xmlns="http://www.w3.org/2000/svg">
	<defs>
		<linearGradient id="Group_paint0-linear-334-110" x1=".673" x2="155" y1="77.2" y2="77.2" gradientTransform="matrix(.309 0 0 .309 104 202)" gradientUnits="userSpaceOnUse">
			<stop stop-color="#009FE3" offset=".14"/>
			<stop stop-color="#003D71" offset="1"/>
		</linearGradient>
		<linearGradient id="Group_paint1-linear-334-110" x1="80.8" x2="150" y1="77" y2="77.1" gradientTransform="matrix(.309 0 0 .309 104 202)" gradientUnits="userSpaceOnUse">
			<stop stop-color="#F1D680" offset="0"/>
			<stop stop-color="#EFC84B" offset="1"/>
		</linearGradient>
		<linearGradient id="Group_paint2-linear-334-110" x1="146" x2="85.4" y1="77" y2="77" gradientTransform="matrix(.309 0 0 .309 104 202)" gradientUnits="userSpaceOnUse">
			<stop stop-color="#F6B216" offset="0"/>
			<stop stop-color="#EBB741" offset="1"/>
		</linearGradient>
	</defs>
	<g transform="translate(.5 .5)">
		<g transform="matrix(1.03 0 0 1.03 -107 -207)" stroke-width=".309">
			<path d="m128 250c13.2 0 23.9-10.7 23.9-23.8 0-13.2-10.7-23.8-23.9-23.8-13.2 0-23.9 10.7-23.9 23.8 0 13.2 10.7 23.8 23.9 23.8z" fill="url(#Group_paint0-linear-334-110)"/>
			<path d="m134 235c-0.0185 0.01-0.159 0.115-0.178 0.128-2.59 1.91-4.78 2.02-7.98 1.55-3.22-0.476-6.13-2.21-8.07-4.82-1.95-2.61-2.78-5.88-2.31-9.1 0.477-3.22 2.21-6.12 4.83-8.06 2.61-1.94 5.89-2.77 9.12-2.3 1.22 0.177 2.41 0.538 3.53 1.07l-1 0.858c-0.295 0.251-0.489 0.601-0.545 0.984l-0.0119 0.112c-0.0164 0.211 0.01 0.423 0.076 0.624 0.0663 0.201 0.172 0.387 0.311 0.547 0.182 0.21 0.416 0.368 0.679 0.461l0.3 0.0784c0.227 0.0294 0.459 0.0196 0.68-0.049s0.425-0.174 0.6-0.324l2.83-2.42c0.409-0.351 0.718-0.804 0.896-1.31 0.0661-0.185 0.113-0.376 0.141-0.571 0.0501-0.338 0.0429-0.681-0.0204-1.02l-0.689-3.65c-0.0515-0.275-0.175-0.533-0.357-0.747-0.183-0.214-0.418-0.374-0.683-0.468l-0.304-0.0784c-0.176-0.0294-0.355-0.0196-0.53 0.01-0.208 0.0392-0.407 0.119-0.584 0.235-0.177 0.117-0.329 0.267-0.447 0.443-0.137 0.2-0.226 0.428-0.261 0.667-0.0254 0.176-0.022 0.355 0.0105 0.53l0.236 1.24c-1.36-0.607-2.79-1.03-4.26-1.24-4.29-0.623-8.66 0.478-12.1 3.06-3.48 2.59-5.79 6.44-6.43 10.7-0.625 4.29 0.479 8.64 3.07 12.1 2.59 3.47 6.46 5.78 10.7 6.41 3.45 0.5 7.88 0.282 12-2.94 0.0186-0.01 0.167-0.131 0.186-0.146z" fill="#fff"/>
			<path d="m148 233c4.23-4.22 4.23-11.1 0-15.3-4.23-4.22-11.1-4.22-15.3 0-4.23 4.22-4.23 11.1 0 15.3 4.23 4.22 11.1 4.22 15.3 0z" fill="url(#Group_paint1-linear-334-110)"/>
			<path d="m140 235c5.18 0 9.37-4.2 9.37-9.37 0-5.18-4.2-9.37-9.37-9.37-5.18 0-9.37 4.2-9.37 9.37 0 5.18 4.2 9.37 9.37 9.37z" fill="url(#Group_paint2-linear-334-110)"/>
			<path d="m140 235c-2.35-4e-3 -4.6-0.938-6.26-2.6-1.66-1.66-2.6-3.91-2.6-6.26 4e-3 -2.35 0.938-4.6 2.6-6.26 1.66-1.66 3.91-2.6 6.26-2.6 2.35 4e-3 4.6 0.938 6.26 2.6 1.66 1.66 2.6 3.91 2.6 6.26-4e-3 2.35-0.938 4.6-2.6 6.26-1.66 1.66-3.91 2.6-6.26 2.6zm0-17.3c-2.23 2e-3 -4.37 0.889-5.94 2.47-1.58 1.58-2.46 3.71-2.47 5.94 2e-3 2.23 0.889 4.37 2.47 5.94 1.58 1.58 3.71 2.46 5.94 2.47 2.23-2e-3 4.37-0.889 5.94-2.47 1.58-1.58 2.46-3.71 2.47-5.94-2e-3 -2.23-0.889-4.37-2.47-5.94-1.58-1.58-3.71-2.46-5.94-2.47z" fill="#bc8100" stroke="#bc8100"/>
			<path d="m136 221v-0.628h1.83l0.0158-0.137 0.0979-0.858h0.741l0.0981 0.858 0.0158 0.137h0.788l0.0158-0.137 0.0979-0.858h0.784l0.0981 0.858 0.0154 0.137h0.138c0.53 0 0.884 0.0588 1.18 0.168 0.292 0.11 0.533 0.275 0.834 0.511l9.8e-4 7.9e-4c0.565 0.433 0.857 1.09 0.857 2 0 0.429-0.135 0.811-0.407 1.15v1.9e-4c-0.27 0.34-0.63 0.595-1.08 0.763l-0.505 0.187 0.527 0.109c0.394 0.0784 0.728 0.241 1.01 0.476l9.8e-4 9.8e-4c0.28 0.233 0.496 0.52 0.648 0.863h-3.1e-4l9.8e-4 2e-3c0.156 0.337 0.235 0.71 0.235 1.12 0 0.922-0.294 1.61-0.868 2.08-0.581 0.474-1.38 0.719-2.41 0.719h-0.15l-0.0172 0.134-0.0966 0.758h-0.787l-0.0966-0.758-0.0172-0.134h-0.784l-0.0173 0.134-0.0966 0.758h-0.745l-0.0966-0.758-0.0172-0.134h-1.83v-0.621l1.03-0.179 0.128-0.0196v-8.5l-0.128-0.0196zm2.25 8.57v0.154h2.5c0.664 0 1.2-0.165 1.59-0.514h3.2e-4c0.395-0.357 0.584-0.855 0.584-1.47 0-0.427-0.0688-0.802-0.213-1.12-0.141-0.32-0.361-0.57-0.66-0.746-0.296-0.176-0.662-0.259-1.09-0.259h-2.71v0.154zm0-4.91v0.154h2.42c0.534 0 0.98-0.157 1.32-0.48 0.349-0.331 0.517-0.777 0.517-1.32 0-0.599-0.187-1.07-0.584-1.39-0.389-0.313-0.936-0.458-1.62-0.458h-2.06v0.154z" fill="none" stroke="#efc84a"/>
			<path d="m136 231v-0.906l1.14-0.201v-8.24l-1.14-0.201v-0.912h1.82l0.112-0.994h1l0.112 0.994h0.505l0.112-0.994h1.04l0.112 0.994c1.07 0 1.48 0.237 2.08 0.711 0.603 0.469 0.904 1.18 0.904 2.12 0 0.465-0.145 0.881-0.435 1.25-0.285 0.364-0.664 0.635-1.14 0.811 0.411 0.0882 0.764 0.257 1.06 0.511 0.294 0.249 0.521 0.556 0.68 0.919 0.164 0.36 0.245 0.755 0.245 1.19 0 0.957-0.304 1.69-0.912 2.2-0.607 0.503-1.43 0.755-2.47 0.755h-0.0139l-0.112 0.893h-1.04l-0.112-0.893h-0.505l-0.112 0.893h-1l-0.112-0.893zm2.52-1.11h2.31c0.631 0 1.12-0.158 1.47-0.474 0.351-0.32 0.526-0.773 0.526-1.36 0-0.412-0.0655-0.764-0.196-1.06-0.126-0.292-0.323-0.517-0.589-0.675-0.262-0.158-0.594-0.237-0.996-0.237h-2.52zm0-4.91h2.24c0.495 0 0.895-0.146 1.2-0.438 0.308-0.297 0.463-0.699 0.463-1.21 0-0.565-0.173-0.987-0.519-1.26-0.346-0.282-0.846-0.423-1.5-0.423h-1.88z" fill="#bc8100"/>
			<path d="m140 236 0.0642 4.32 3.92-0.0588-0.148-9.76v-0.0686c-6e-3 -0.181-0.0327-0.362-0.0815-0.537-0.275-0.678-1.22-1.8-2.34-1.78-1.08 0.0196-1.79 0.818-2.25 1.73-0.0663 0.134-0.17 0.246-0.234 0.386-0.826 1.81-2.3 3.62-4.92 5.47" fill="#fff"/>
			<path d="m140 236 0.0642 4.32 3.92-0.0588-0.148-9.76v-0.0686c-6e-3 -0.181-0.0327-0.362-0.0815-0.537-0.275-0.678-1.22-1.8-2.34-1.78-1.08 0.0196-1.79 0.818-2.25 1.73-0.0663 0.134-0.17 0.246-0.234 0.386-0.826 1.81-2.3 3.62-4.92 5.47l3.42 2.62c0.684-0.532 2.15-1.75 2.57-2.34z" fill="#fff"/>
		</g>
	</g>
</svg>
