<?xml version="1.0" encoding="UTF-8" standalone="no"?>
<svg
   width="142" height="142" viewBox="0 0 142 142"
   version="1.1"
   xmlns="http://www.w3.org/2000/svg">
  <defs>
    <linearGradient id="gradient" x1="0" y1="71" x2="142" y2="71" gradientUnits="userSpaceOnUse">
      <stop offset="0.2" stop-color="#009FE3" />
      <stop offset="1" stop-color="#003D71" />
    </linearGradient>
  </defs>
  <path d="m 88.578768,123.8502 c -7.1395,7.76792 -15.8953,13.87604 -25.6507,17.89414 2.7343,0.3333 5.4857,0.5072 8.2402,0.5208 5.8731,-0.0267 11.7206,-0.7763 17.4105,-2.232 z M 71.018316,0 c -7.7733,0.008 -15.4917,1.30231 -22.842,3.8318 6.2024,1.10604 12.2316,3.02615 17.9314,5.71052 5.9295,2.83858 11.4431,6.47468 16.3874,10.80718 l 0.6139,-5.5803 c 0.089,-0.7793 0.3025,-1.5391 0.6324,-2.2507 0.4687,-0.9692 1.1489,-1.821 1.9903,-2.4925 0.7258,-0.58249 1.5596,-1.01555 2.4535,-1.27414 0.8939,-0.2586 1.8302,-0.33766 2.7548,-0.23263 0.7879,0.0865 1.5554,0.30667 2.2693,0.65105 l 1.1719,0.70684 c 0.9977,0.74048 1.7838,1.72948 2.2799,2.86858 0.4961,1.1391 0.6849,2.3883 0.5474,3.6232 l -1.8601,16.3502 c -0.1809,1.4902 -0.6017,2.9412 -1.2462,4.2969 -0.3749,0.7808 -0.8167,1.5277 -1.3207,2.2321 -1.4448,1.9255 -3.3688,3.439 -5.5803,4.3898 l -15.0854,6.5848 c -0.9301,0.4055 -1.9367,0.6054 -2.9512,0.5862 -1.0144,-0.0193 -2.0127,-0.2573 -2.9267,-0.6978 l -1.1719,-0.7069 c -0.9943,-0.724 -1.7776,-1.6999 -2.2693,-2.8273 -0.3764,-0.8564 -0.5801,-1.7786 -0.5992,-2.7139 -0.019,-0.9353 0.1465,-1.8652 0.4876,-2.7362 l 0.186,-0.465 c 0.7477,-1.5432 2.0203,-2.7696 3.59,-3.4598 l 5.3385,-2.3251 c -4.0141,-3.7044 -8.5674,-6.7776 -13.5043,-9.1145 -12.4205,-5.8975 -26.6211,-6.842 -39.7132,-2.6414 -11.9805997,13.0577 -18.61939966,30.1393 -18.60089966,47.8604 10e-5,11.3263 2.71419996,22.4877 7.91489996,32.54959 5.2006997,10.062 12.7366997,18.731 21.9767997,25.281 11.0977,1.067 22.255,-1.306 31.9581,-6.796 9.7032,-5.491 17.4825,-13.833 22.2824,-23.8957 0.2977,-0.6139 0.7627,-1.0975 1.0603,-1.6741 2.0833,-4.01779 5.2827,-7.44039 10.0259,-7.44039 4.743304,0 9.003204,4.9665 10.175204,7.97979 0.189,0.7802 0.295,1.5783 0.316,2.3809 v 33.5935 c 11.018,-6.155 20.194,-15.139 26.58,-26.024 6.386,-10.8856 9.751,-23.27829 9.748,-35.89879 0,-9.327 -1.828,-18.5635 -5.394,-27.1819 -3.566,-8.6184 -8.795,-16.4498 -15.389,-23.0467 C 114.64282,14.2117 106.81382,8.97854 98.197516,5.40813 89.580916,1.83772 80.345316,0 71.018316,0 Z"
     style="fill:url(#gradient)" />
</svg>
