<svg width="430" height="563" viewBox="0 0 430 563" fill="none" xmlns="http://www.w3.org/2000/svg">
<path d="M225.425 31.2401C229.382 29.7033 233.28 28.726 237.439 27.9302C238.488 27.7251 239.532 27.5036 240.577 27.2774C241.251 27.1342 241.926 26.9911 242.6 26.8481C243.201 26.7201 243.801 26.5921 244.42 26.4603C246.064 26.2162 246.064 26.2162 247.46 26.3733C249.121 26.5147 250.142 26.0947 251.695 25.5009C254.685 24.4329 257.594 24.0264 260.747 23.7198C264.449 23.3561 267.467 22.7342 270.86 21.1553C272.004 20.7017 272.004 20.7017 273.678 20.9486C274.415 20.8409 275.148 20.7021 275.876 20.5421C276.301 20.4504 276.725 20.3587 277.163 20.2642C277.604 20.1659 278.046 20.0675 278.501 19.9662C279.37 19.7767 280.24 19.5874 281.109 19.3982C281.529 19.3063 281.949 19.2145 282.382 19.1199C287.175 18.0824 287.175 18.0824 289.476 17.8602C291.767 17.6086 293.994 17.1374 296.243 16.642C297.496 16.4368 297.496 16.4368 299.17 16.6837C299.825 17.6944 300.327 18.6116 300.822 19.6982C300.965 20.0054 301.108 20.3127 301.255 20.6292C302.343 23.1033 302.748 25.4183 303.018 28.1083C303.345 30.136 303.984 31.9401 304.694 33.8603C305.715 36.6297 306.277 39.0475 306.411 42.0163C306.635 43.9541 307.362 45.6342 308.13 47.4158C308.556 48.6272 308.534 49.4184 308.495 50.6839C308.836 51.7045 308.836 51.7045 309.315 52.7617C310.311 55.3254 310.643 57.8135 310.968 60.5229C311.275 62.9795 311.881 65.0542 312.745 67.3601C312.726 67.6925 312.708 68.0249 312.689 68.3674C312.704 70.1312 313.639 71.4317 314.466 72.9532C314.904 74.1247 314.904 74.1247 314.669 75.2395C314.343 76.8777 314.858 77.8018 315.511 79.3201C316.642 81.9647 316.642 81.9647 316.369 83.8126C316.66 84.6132 316.983 85.4027 317.327 86.182C318.199 88.4725 318.199 88.4725 317.789 90.2459C316.572 91.6871 315.678 92.262 313.862 92.783C312.085 92.259 311.301 91.6292 310.115 90.2077C308.781 88.7548 307.74 88.2943 305.956 87.5651C303.499 86.4881 301.576 84.7856 299.768 82.8327C298.956 82.0903 298.956 82.0903 297.7 81.5457C296.221 80.8192 295.092 79.9758 293.821 78.933C292.46 77.8354 291.154 76.7993 289.623 75.9541C288.432 75.2194 288.432 75.2194 287.63 73.5225C285.633 75.9393 283.766 78.3091 282.281 81.0789C281.448 82.6154 280.726 83.711 279.378 84.8193C277.358 86.5772 276.369 88.8743 275.166 91.2182C273.727 93.9676 272.029 96.2076 270.051 98.6031C268.668 100.403 267.66 102.317 266.62 104.328C265.861 105.707 264.999 106.861 263.95 108.03C263.207 109.065 262.753 110.186 262.233 111.344C261.545 112.702 260.605 113.808 259.637 114.977C256.987 118.249 254.792 121.713 252.756 125.399C251.108 128.34 249.197 131.106 247.292 133.885C246.075 135.675 244.942 137.446 243.963 139.378C242.944 141.371 241.695 143.042 240.272 144.762C238.347 147.112 236.633 149.427 235.359 152.21C234.621 153.632 233.769 154.729 232.725 155.934C231.969 157.007 231.489 158.14 230.955 159.333C230.208 160.811 229.192 162.063 228.172 163.36C226.603 165.412 225.229 167.406 224.089 169.733C222.499 172.839 220.533 175.719 218.328 178.416C217.629 179.343 217.06 180.305 216.481 181.311C215.484 183.023 214.37 184.539 213.122 186.078C211.697 187.852 210.577 189.57 209.577 191.608C208.672 193.349 207.586 194.973 206.517 196.616C205.725 197.861 205.725 197.861 205.096 199.23C204.433 200.563 203.683 201.656 202.781 202.838C201.644 204.363 200.6 205.885 199.647 207.531C198.748 209.081 197.758 210.457 196.627 211.846C195.441 213.309 194.826 214.507 194.219 216.293C193.271 217.707 192.212 219.022 190.994 220.214C189.179 221.996 187.888 223.839 186.631 226.043C186.256 226.686 185.88 227.327 185.504 227.969C185.327 228.273 185.151 228.576 184.969 228.889C184.364 229.913 183.728 230.913 183.078 231.908C182.095 233.357 182.095 233.357 181.522 234.655C180.801 235.833 180.168 236.079 178.87 236.525C175.219 235.855 172.371 233.388 169.595 231.092C167.75 229.59 165.962 228.469 163.827 227.416C161.258 226.148 159.386 224.652 157.33 222.675C155.652 221.149 153.841 220.105 151.658 219.442C149.831 218.705 148.382 217.618 146.804 216.453C145.14 215.236 143.504 214.049 141.726 213.002C140.376 212.172 139.379 211.29 138.258 210.177C136.232 208.297 134.23 207.188 131.725 206.058C130.169 205.309 128.86 204.387 127.486 203.349C126.416 202.552 125.315 201.821 124.198 201.09C122.848 200.197 121.554 199.284 120.299 198.262C119.121 197.315 117.918 196.52 116.615 195.754C112.71 193.454 109.088 190.839 105.557 188.006C103.495 186.355 101.503 184.921 99.1103 183.774C97.7744 183.116 96.5568 182.3 95.3129 181.484C94.5849 181.009 93.8425 180.556 93.0975 180.108C92.589 179.803 92.0806 179.497 91.5568 179.182C90.9988 178.849 90.9988 178.849 90.4295 178.509C87.3697 176.637 84.6081 174.566 81.8494 172.286C80.6292 171.256 80.6292 171.256 78.9303 171.137C76.9754 171.764 76.1584 172.163 75.1937 174.006C75.0782 174.3 74.9626 174.593 74.8436 174.896C74.1691 176.432 73.1986 177.751 72.2542 179.133C71.265 180.583 70.3011 182.049 69.3425 183.52C69.0272 184.002 68.7119 184.484 68.387 184.981C67.756 185.967 67.1445 186.966 66.5498 187.974C65.7249 189.317 65.7249 189.317 64.5968 190.499C63.0813 192.133 62.2518 194.1 61.3196 196.103C60.3695 198.142 59.4548 199.668 57.9366 201.337C55.9371 203.705 54.3505 206.343 52.9952 209.121C51.6262 211.918 49.9616 214.349 47.8377 216.628C46.4865 218.14 45.5841 219.806 44.6516 221.597C43.42 223.962 42.0967 225.789 40.3166 227.798C39.5717 228.967 38.9184 230.182 38.2561 231.4C36.5748 234.404 34.7009 237.14 32.5857 239.854C30.5563 242.459 28.9435 244.945 27.612 247.985C26.8518 249.504 25.8194 250.611 24.6669 251.843C23.9074 252.682 23.9074 252.682 23.4664 254.189C22.9356 255.671 22.5952 256.187 21.5669 257.294C19.6865 259.422 18.1757 261.738 16.6482 264.126C16.3741 264.547 16.1001 264.967 15.8177 265.4C14.671 267.179 13.569 268.921 12.7098 270.858C12.1268 272.128 11.7443 272.785 10.7174 273.677C8.94513 275.398 7.84432 277.389 6.63941 279.53C0.505798 290.317 0.505801 290.317 -3.34957 294.632C-5.00679 296.884 -6.44414 299.252 -7.79545 301.697C-8.92083 303.713 -10.2101 305.442 -11.6679 307.226C-12.816 308.747 -13.6951 310.39 -14.6132 312.057C-15.4427 313.498 -16.3899 314.811 -17.3805 316.144C-18.5698 317.817 -19.6206 319.575 -20.6861 321.328C-21.3837 322.361 -21.3837 322.361 -22.2322 322.762C-22.2173 323.066 -22.2023 323.369 -22.1869 323.682C-22.3446 325.71 -23.1194 326.692 -24.5801 328.089C-26.1085 329.602 -27.1981 331.319 -28.3254 333.136C-28.5881 333.559 -28.5881 333.559 -28.856 333.99C-29.5927 335.199 -30.2784 336.387 -30.8451 337.685C-31.8084 339.492 -33.0277 340.883 -34.394 342.395C-34.6449 342.678 -34.8957 342.96 -35.1541 343.251C-35.768 343.942 -36.3854 344.629 -37.0036 345.316C-39.5941 340.116 -42.1591 334.904 -44.6925 329.676C-45.8697 327.248 -47.0553 324.825 -48.2609 322.412C-49.4248 320.081 -50.5653 317.74 -51.6907 315.391C-52.1234 314.498 -52.5643 313.609 -53.0135 312.724C-56.5203 305.796 -56.5203 305.796 -55.8684 302.831C-55.0931 301.371 -54.2839 300.226 -53.1928 298.989C-52.9037 298.621 -52.6146 298.253 -52.3168 297.874C-51.8039 297.22 -51.2818 296.574 -50.7524 295.934C-49.8555 294.732 -49.1918 293.498 -48.5029 292.166C-47.3828 290.024 -46.0896 288.17 -44.556 286.31C-42.8712 284.241 -41.7041 282.349 -40.7397 279.87C-40.0339 278.065 -39.1863 276.9 -37.6578 275.718C-35.8994 274.256 -35.0653 272.249 -34.0285 270.25C-33.2485 268.845 -32.3923 267.618 -31.4161 266.345C-30.2961 264.866 -29.4723 263.524 -28.7969 261.798C-27.8007 259.289 -26.2516 257.32 -24.6185 255.188C-23.8262 254.12 -23.1556 253.095 -22.5311 251.927C-21.7167 250.42 -20.8048 249.217 -19.7393 247.882C-19.1501 246.957 -18.5758 246.025 -18.0122 245.085C-17.3481 244.157 -17.3481 244.157 -16.3129 243.207C-15.0258 241.928 -14.2775 240.637 -13.4046 239.049C-12.0683 236.656 -10.6553 234.359 -9.10632 232.096C-8.55888 231.284 -8.05171 230.445 -7.55485 229.601C-6.90593 228.546 -6.28189 227.689 -5.49776 226.747C-4.39344 225.377 -3.58687 223.974 -2.77826 222.412C-1.45437 219.903 0.0997892 217.669 1.78476 215.389C3.97673 212.415 5.70327 209.458 7.21171 206.077C8.09375 204.419 8.68119 203.386 10.1693 202.246C11.563 201.113 12.0814 199.817 12.791 198.184C14.3502 194.694 16.561 191.957 18.9777 189.021C21.3346 186.145 21.3346 186.145 22.9169 182.823C23.6142 180.948 24.641 179.735 25.8977 178.2C27.5267 176.12 28.7793 173.812 30.0591 171.507C31.2965 169.289 32.5241 167.229 34.1915 165.306C34.9972 164.21 35.5158 163.02 36.1065 161.796C38.3825 157.791 40.8458 154.37 43.9755 150.984C45.2177 149.537 45.7925 148.243 46.5197 146.493C47.1506 145.642 47.8217 144.835 48.4971 144.019C49.2249 143.1 49.2249 143.1 49.8703 141.503C50.5557 140.072 50.9594 139.476 52.0503 138.429C53.2631 137.26 53.8756 136.168 54.5266 134.6C55.3226 132.992 56.4529 131.621 57.5233 130.187C59.7497 127.138 61.6076 124.193 62.8338 120.615C63.7195 118.988 64.6895 117.737 66.2142 116.649C68.1112 116.168 68.9424 116.524 70.6705 117.43C71.1351 117.905 71.5824 118.398 72.0155 118.902C73.8004 120.917 75.973 121.886 78.3515 123.08C81.4699 124.719 84.3906 126.695 86.9824 129.085C89.1859 131.063 91.7846 132.446 94.3268 133.938C96.1284 134.998 97.8536 136.152 99.5773 137.334C100.752 138.097 101.96 138.759 103.192 139.427C104.825 140.335 106.118 141.257 107.439 142.577C109.247 144.361 111.23 145.435 113.474 146.599C115.764 147.818 117.922 149.236 120.104 150.636C120.583 150.924 121.061 151.211 121.554 151.508C122.054 152.023 122.54 152.551 123.015 153.088C124.355 154.52 125.547 155.21 127.331 156.043C128.032 156.58 128.724 157.131 129.407 157.69C130.538 158.605 131.334 159.239 132.707 159.73C134.44 160.351 135.633 161.468 137.025 162.653C138.18 163.487 139.24 163.854 140.583 164.312C143.243 165.834 145.63 167.735 148.008 169.658C150.059 171.311 152.106 172.575 154.488 173.695C158.448 175.7 161.856 178.572 165.173 181.484C166.131 182.403 166.131 182.403 167.262 182.323C169.715 181.416 170.743 180.5 172.01 178.23C172.303 177.714 172.596 177.198 172.897 176.667C173.619 175.307 174.301 173.937 174.969 172.549C175.847 170.751 176.805 169.56 178.252 168.201C179.297 167.062 179.898 165.744 180.579 164.366C181.086 163.377 181.642 162.471 182.257 161.546C183.257 160.033 184.104 158.476 184.945 156.869C186.255 154.428 187.805 152.379 189.556 150.241C190.419 149.091 191.02 148.006 191.623 146.705C192.689 144.435 194.114 142.632 195.698 140.697C197.337 138.662 198.551 136.535 199.754 134.225C201.161 131.597 202.774 129.079 204.8 126.885C205.904 125.74 205.904 125.74 206.458 124.467C207.351 122.645 208.407 120.977 209.507 119.275C209.707 118.959 209.908 118.644 210.114 118.319C211.305 116.466 212.573 114.723 213.949 113.004C214.916 111.766 215.77 110.475 216.631 109.16C216.96 108.662 217.289 108.164 217.628 107.651C218.507 106.276 218.507 106.276 218.924 104.907C219.467 103.467 220.194 102.707 221.271 101.614C223.831 98.8723 226.096 95.904 227.288 92.3146C227.869 90.8197 228.291 90.3964 229.465 89.3715C231.198 87.8436 231.456 86.5089 231.979 84.2582C232.518 83.6036 233.062 82.9499 233.657 82.3454C234.827 81.0492 235.718 79.563 236.668 78.1023C237.386 77.031 237.386 77.031 238.478 75.7038C239.405 74.5772 239.405 74.5772 239.812 73.1103C240.487 71.3277 241.398 69.9234 242.522 68.4072C243.802 66.6345 245.031 64.8766 246.118 62.9766C247.384 60.7978 248.921 58.8742 250.505 56.9191C251.283 56.0388 251.283 56.0388 251.509 55.303C249.87 51.8349 246.437 50.3249 243.192 48.5541C240.676 47.1802 238.691 45.7515 236.647 43.7426C235.268 42.4784 233.769 41.8597 231.993 41.3424C230.274 40.6315 228.95 39.5915 227.533 38.4143C227.132 38.1 227.132 38.1 226.723 37.7794C225.008 36.3658 224.185 35.2881 223.873 33.0728C224.32 31.8233 224.32 31.8233 225.425 31.2401Z" fill="#95D4E9"/>
<path d="M201.084 140.835C201.549 141.531 201.549 141.531 202.023 142.242C203.704 142.36 203.704 142.36 205.308 142.242C205.462 141.778 205.617 141.313 205.777 140.835C207.922 141.092 209.847 141.5 211.877 142.242C211.877 142.707 211.877 143.171 211.877 143.65C212.342 143.34 212.806 143.031 213.285 142.712C220.589 146.649 220.589 146.649 221.672 150.131C221.692 150.47 221.711 150.809 221.731 151.158C221.576 151.313 221.421 151.468 221.262 151.627C221.62 151.869 221.978 152.111 222.347 152.36C223.897 153.766 224.305 154.845 225.016 156.789C223.938 157.328 223.103 157.402 221.907 157.522C221.524 157.561 221.14 157.601 220.745 157.641C220.451 157.67 220.157 157.698 219.854 157.727C220.009 157.727 220.164 157.727 220.323 157.727C222.2 157.727 224.077 157.727 225.954 157.727C227.245 160.321 228.081 162.708 228.493 165.582C228.711 166.692 228.711 166.692 229.496 167.609C230.51 168.964 230.272 170.165 230.177 171.805C230.487 171.805 230.797 171.805 231.116 171.805C232.47 174.813 233.669 177.644 234.095 180.933C234.378 182.038 234.733 182.813 235.262 183.812C236.486 186.174 237.204 188.644 237.949 191.19C238.086 191.645 238.222 192.099 238.363 192.568C240.82 200.81 240.82 200.81 241.41 204.27C241.768 206.165 242.395 207.632 243.314 209.315C243.843 210.4 244.165 211.466 244.489 212.629C245.004 214.449 245.664 216.024 246.55 217.69C247.433 219.454 248.142 221.292 248.878 223.122C249.404 224.431 249.404 224.431 250.355 225.767C250.583 226.696 250.811 227.625 251.029 228.555C251.51 230.316 252.292 231.829 253.434 233.246C254.355 234.567 254.63 235.955 255.047 237.499C256.829 237.248 258.607 236.979 260.385 236.707C260.883 236.637 261.381 236.567 261.894 236.495C265.788 235.886 268.846 234.623 272.175 232.542C273.314 231.887 274.407 231.451 275.635 230.988C277.507 230.264 278.966 229.41 280.546 228.189C281.367 227.615 282.156 227.252 283.085 226.882C284.596 226.376 284.596 226.376 285.313 225.416C286.017 224.829 286.017 224.829 287.748 224.976C288.517 225.135 288.517 225.135 289.302 225.298C289.738 227.331 289.738 228.896 289.302 230.929C289.796 230.687 290.289 230.445 290.798 230.196C292.35 229.53 293.302 229.385 294.933 229.991C295.243 230.3 295.552 230.61 295.871 230.929C295.725 232.249 295.725 232.249 295.402 233.745C295.315 234.19 295.228 234.635 295.138 235.094C295.071 235.423 295.003 235.752 294.933 236.091C296.705 236.231 296.705 236.231 297.748 235.622C298.687 235.603 299.626 235.601 300.564 235.622C300.886 236.677 300.886 236.677 301.033 237.968C300.359 238.994 300.359 238.994 299.625 239.845C299.625 240.154 299.625 240.464 299.625 240.783C299.945 240.715 300.264 240.648 300.593 240.578C302.152 240.28 303.675 239.994 305.256 239.845C306.195 240.783 306.195 240.783 306.299 241.65C306.058 244.986 304.621 246.788 302.441 249.23C302.172 249.554 301.903 249.879 301.625 250.214C299.038 253.301 295.855 256.744 292.059 258.263C290.05 259.075 288.405 260.339 286.652 261.595C284.267 263.266 282.332 263.925 279.448 264.245C278.82 264.39 278.192 264.541 277.571 264.715C277.881 265.489 278.19 266.263 278.509 267.061C278.159 267.152 277.808 267.242 277.446 267.336C276.984 267.458 276.522 267.58 276.046 267.706C275.36 267.886 275.36 267.886 274.66 268.069C273.381 268.417 273.381 268.417 272.391 268.954C271.291 269.495 270.271 269.692 269.066 269.906C267.399 270.197 267.399 270.197 265.84 270.815C261.219 271.707 256.585 271.971 251.893 272.102C250.794 272.135 249.696 272.18 248.598 272.225C244.261 272.374 240.482 272.024 236.278 270.815C235.618 270.662 234.958 270.512 234.298 270.364C232.155 269.775 230.127 269.001 228.066 268.175C227.487 267.947 227.487 267.947 226.896 267.713C225.956 267.342 225.016 266.967 224.077 266.592C225.055 267.033 226.035 267.47 227.017 267.9C227.868 268.277 228.714 268.666 229.554 269.066C235.607 271.825 241.884 272.492 248.478 272.222C249.423 272.191 250.368 272.16 251.314 272.129C260.215 272.14 260.215 272.14 268.655 269.876C269.671 269.61 270.689 269.399 271.718 269.193C273.464 268.809 275.167 268.28 276.876 267.759C278.515 267.437 279.402 267.697 280.826 268.533C285.089 271.738 289.446 276.105 291.307 281.191C291.668 282.225 291.668 282.225 292.645 283.572C293.569 284.958 293.975 286.12 294.464 287.708C294.785 288.451 295.108 289.194 295.432 289.936C296.283 292.018 296.604 293.901 296.727 296.139C296.754 297.124 296.754 297.124 297.279 298.031C297.389 301.097 297.389 301.097 296.81 302.254C296.683 303.142 296.568 304.032 296.458 304.923C295.57 310.787 293.713 315.745 290.241 320.554C289.986 320.923 289.732 321.292 289.471 321.673C288.259 323.379 287.449 324.338 285.548 325.247C285.219 325.864 284.907 326.491 284.61 327.124C283.31 328.692 282.416 329.245 280.386 329.47C280.976 331.237 281.741 331.626 283.202 332.755C287.953 337.242 292.269 342.295 295.595 347.919C296.317 349.139 297.055 350.349 297.798 351.558C298.28 352.348 298.762 353.139 299.244 353.929C299.488 354.324 299.732 354.719 299.984 355.126C301.232 357.183 302.295 359.163 303.07 361.443C303.412 362.456 303.412 362.456 304.136 363.917C304.928 365.965 305.153 367.857 305.344 370.03C305.402 370.612 305.402 370.612 305.461 371.206C305.554 372.153 305.64 373.101 305.726 374.048C306.139 374.117 306.552 374.186 306.977 374.257C311.989 375.225 311.989 375.225 313.409 376.776C314.172 378.271 314.172 378.271 314.231 379.738C313.414 381.825 311.959 382.684 309.962 383.611C309.483 383.794 309.005 383.977 308.512 384.166C306.567 384.898 306.567 384.898 304.841 386.015C303.748 386.789 302.96 387.023 301.655 387.286C301.018 387.42 301.018 387.42 300.369 387.557C299.92 387.648 299.472 387.739 299.01 387.832C292.1 389.296 292.1 389.296 285.548 391.879C284.512 391.913 283.476 391.919 282.439 391.909C281.882 391.904 281.324 391.9 280.749 391.896C280.32 391.89 279.89 391.885 279.448 391.879C278.212 390.045 277.481 388.703 277.336 386.483C276.636 376.374 271.644 364.925 264.344 357.889C261.435 355.433 258.181 353.51 254.914 351.576C254.109 351.055 254.109 351.055 252.859 349.952C251.826 349.051 251.826 349.051 250.591 349.255C250.204 349.385 249.816 349.514 249.416 349.648C248.828 349.798 248.828 349.798 248.227 349.952C247.835 350.064 247.444 350.177 247.041 350.293C246.452 350.458 246.452 350.458 245.851 350.626C244.696 351.003 244.696 351.003 243.775 351.79C242.684 352.581 242.037 352.657 240.706 352.727C239.072 352.818 238.651 352.914 237.216 353.871C231.174 355.218 224.959 355.324 218.798 355.366C218.015 355.376 218.015 355.376 217.215 355.385C213.665 355.389 210.549 354.992 207.185 353.871C206.354 353.823 205.523 353.785 204.692 353.753C201.744 353.532 199.249 352.699 196.502 351.64C195.304 351.179 194.133 350.793 192.902 350.439C184.143 347.498 174.196 340.491 169.176 332.755C168.798 332.387 168.421 332.019 168.032 331.64C166.55 330.122 165.552 328.476 164.483 326.655C164.242 326.258 164 325.861 163.75 325.452C163.223 324.558 162.707 323.657 162.196 322.754C161.528 321.574 160.821 320.432 160.084 319.293C157.264 314.74 155.55 310.378 154.203 305.209C153.566 302.777 153.566 302.777 152.468 300.531C151.576 299.041 151.476 297.727 151.286 296.007C151.231 295.517 151.231 295.517 151.175 295.017C149.095 275.596 149.095 275.596 152.283 270.815C152.463 269.576 152.463 269.576 152.518 268.234C152.615 266.431 152.664 265.786 153.691 264.245C153.786 263.275 153.88 262.305 153.968 261.335C154.362 258.643 155.26 256.055 156.037 253.453C156.648 251.29 157.062 249.136 157.386 246.913C157.671 245.106 158.04 243.623 158.853 241.986C159.931 239.797 160.153 237.648 160.466 235.248C160.787 233.418 161.419 231.879 162.161 230.187C162.774 228.625 163.072 227.054 163.36 225.405C163.545 224.36 163.545 224.36 163.791 223.489C164.225 221.535 164.205 219.508 164.306 217.514C164.476 215.98 164.846 214.98 165.422 213.567C165.735 212.209 165.948 210.839 166.155 209.461C166.216 209.055 166.277 208.649 166.34 208.231C167.005 203.444 167.118 198.645 167.253 193.82C167.319 191.856 167.439 189.896 167.563 187.935C168.297 181.805 168.297 181.805 167.299 176.028C167.334 169.993 167.754 163.132 171.638 158.308C172.463 157.255 173.018 156.228 173.604 155.029C174.83 152.761 176.433 151.608 178.561 150.219C179.374 149.654 180.185 149.087 180.995 148.518C181.557 148.132 181.557 148.132 182.13 147.738C182.91 147.18 183.67 146.593 184.412 145.985C187.606 143.491 191.299 142.095 195.19 141.098C195.664 140.975 195.664 140.975 196.148 140.848C197.925 140.427 199.347 140.201 201.084 140.835Z" fill="#F2F4F3"/>
<path d="M434.12 442.22C434.12 482.017 434.12 521.813 434.12 562.816C388.285 562.816 342.449 562.816 295.225 562.816C295.529 560.078 295.868 557.419 296.368 554.721C296.815 552.281 297.213 549.848 297.541 547.389C298.1 543.713 299.292 540.472 301.061 537.213C302.158 535.107 302.74 533.017 303.319 530.731C304.486 526.188 306.346 522.061 308.355 517.835C308.958 516.567 309.542 515.292 310.123 514.014C310.393 513.425 310.393 513.425 310.669 512.825C311.017 512.037 311.346 511.24 311.659 510.438C314.468 503.256 317.894 496.511 323.848 491.491C324.135 491.245 324.421 490.998 324.715 490.745C325.358 490.204 326.011 489.673 326.664 489.144C327.013 488.791 327.362 488.438 327.722 488.074C329.12 486.689 330.585 485.426 332.089 484.159C339.837 477.612 339.837 477.612 346.251 469.819C348.848 466.58 352.227 464.567 355.757 462.456C356.239 462.167 356.72 461.878 357.217 461.58C358.604 460.752 359.995 459.931 361.388 459.113C361.722 458.915 362.057 458.718 362.401 458.514C373.509 452.018 387.324 447.35 399.866 444.566C400.19 444.488 400.515 444.41 400.85 444.33C403.934 443.637 406.832 443.524 409.984 443.586C411.016 443.595 412.049 443.605 413.082 443.614C414.688 443.635 416.294 443.657 417.9 443.683C419.465 443.705 421.03 443.719 422.595 443.732C423.306 443.748 423.306 443.748 424.032 443.763C426.808 443.783 429.114 443.444 431.74 442.524C432.713 442.22 432.713 442.22 434.12 442.22Z" fill="#95D4E9"/>
<path d="M124.539 381.468C126.22 382.107 126.197 382.24 126.915 383.756C128.216 386.168 130.37 386.783 132.841 387.578C135.007 388.303 135.949 389.106 137.267 390.941C138.083 391.533 138.083 391.533 138.968 391.909C139.292 392.061 139.616 392.214 139.949 392.371C140.698 392.683 141.459 392.97 142.225 393.236C142.631 393.379 143.037 393.521 143.455 393.669C143.83 393.788 144.204 393.907 144.59 394.03C145.759 394.722 146.076 395.15 146.795 396.26C148.119 398.24 149.712 399.138 151.784 400.238C154.425 401.71 156.927 403.241 159.351 405.048C161.674 406.76 164.056 408.286 166.566 409.711C166.871 409.886 167.176 410.062 167.49 410.242C168.985 411.072 170.253 411.626 171.92 412.086C173.399 412.526 173.399 412.526 174.337 413.934C174.506 415.105 174.506 415.105 174.337 416.28C173.582 417.03 173.582 417.03 172.578 417.717C170.376 419.48 169.943 421.22 169.196 423.869C168.687 425.248 168.28 425.783 167.182 426.721C165.53 428.184 164.632 429.83 163.692 431.795C162.136 435.045 160.505 438.242 158.794 441.414C158.448 442.067 158.448 442.067 158.096 442.733C156.704 445.303 155.187 447.443 153.222 449.596C148.411 455.574 144.773 462.152 141.179 468.905C139.887 471.313 138.5 473.588 136.96 475.844C136.074 477.204 135.404 478.597 134.716 480.068C133.176 483.26 131.456 486.468 128.858 488.929C127.573 490.275 126.686 491.757 125.742 493.353C125.56 493.649 125.379 493.945 125.193 494.25C124.301 495.741 123.564 497.171 123.005 498.817C122.168 501.175 120.779 503.118 119.377 505.172C117.37 508.178 115.508 511.19 113.864 514.411C112.103 517.849 110.291 521.198 107.494 523.915C104.582 526.907 102.631 530.773 101.187 534.656C99.2403 539.447 96.7424 543.466 93.1585 547.199C91.3402 549.235 90.249 551.023 89.4632 553.651C88.4383 556.912 87.1881 559.794 84.7121 562.215C82.4432 563.004 80.2394 562.931 77.8677 562.854C77.1784 562.852 76.489 562.853 75.7996 562.856C73.9366 562.858 72.0757 562.825 70.2132 562.786C68.2637 562.75 66.3142 562.747 64.3645 562.74C60.6765 562.723 56.9894 562.677 53.3018 562.62C49.1021 562.557 44.9022 562.526 40.7021 562.498C32.0658 562.439 23.4304 562.34 14.7949 562.215C15.4032 560.285 15.9554 558.962 17.2878 557.434C18.5076 555.932 19.3604 554.557 20.1032 552.771C21.3559 549.814 23.1135 547.294 24.9203 544.657C25.8573 543.287 26.7211 541.891 27.5525 540.454C28.4265 538.954 29.3703 537.648 30.4852 536.318C32.7276 533.53 34.0069 530.27 35.4416 527.021C36.6578 524.374 38.1141 521.958 39.6996 519.514C40.6626 518.013 41.5865 516.493 42.5096 514.968C43.5371 513.286 44.5714 511.674 45.7943 510.129C47.3557 508.128 48.446 505.911 49.6179 503.667C50.3811 502.289 51.2005 501.046 52.129 499.776C53.6411 497.694 54.755 495.526 55.8683 493.21C56.7203 491.502 57.7019 489.898 58.7039 488.274C59.3672 487.146 59.93 486.003 60.4874 484.819C61.5873 482.563 62.9857 480.646 64.4907 478.644C65.4958 477.25 66.3813 475.824 67.2621 474.349C68.659 472.035 70.1611 469.857 71.7786 467.692C74.8454 463.574 77.7841 459.411 79.9903 454.758C81.211 452.201 82.7481 450.029 84.4225 447.76C86.3784 445.083 87.818 442.304 89.0471 439.225C90.0888 436.791 91.463 434.54 92.8065 432.264C93.1921 431.595 93.1921 431.595 93.5855 430.912C95.0431 428.435 96.5848 426.316 98.5234 424.201C99.6781 422.816 100.375 421.289 101.106 419.653C102.455 416.794 103.991 414.318 105.914 411.797C107.704 409.387 108.975 406.854 110.022 404.051C110.759 402.149 111.641 400.72 112.911 399.136C114.148 397.536 115.276 395.867 116.415 394.196C116.846 393.565 117.277 392.934 117.708 392.303C117.915 391.998 118.122 391.692 118.336 391.378C118.758 390.772 119.192 390.175 119.638 389.586C120.814 388.031 121.585 386.933 121.606 384.958C121.628 383.698 121.638 383.152 122.413 382.141C123.19 381.556 123.19 381.556 124.539 381.468Z" fill="#95D4E9"/>
<path d="M423.328 489.614C426.889 489.768 430.451 489.923 434.12 490.083C434.12 514.085 434.12 538.086 434.12 562.816C404.544 562.816 374.968 562.816 344.495 562.816C344.495 554.088 344.495 554.088 346.59 549.618C348.236 546.012 349.082 543.09 349.367 539.152C350.021 535.372 351.803 533.268 354.701 530.907C357.484 528.498 359.064 526.185 360.558 522.847C361.935 519.797 363.807 517.408 366.08 514.953C366.349 514.657 366.619 514.361 366.896 514.056C369.228 511.613 371.899 509.557 374.527 507.445C375.368 506.751 376.208 506.057 377.049 505.363C378.973 503.794 380.904 502.235 382.856 500.7C383.337 500.318 383.819 499.937 384.315 499.545C386.955 497.726 389.634 496.931 392.739 496.3C395.68 495.657 398.426 494.791 401.215 493.661C415.283 488.005 415.283 488.005 423.328 489.614Z" fill="#BEE8F8"/>
<path d="M428.667 107.988C428.9 108.22 428.9 108.22 429.137 108.457C429.81 108.508 430.485 108.545 431.16 108.575C438.408 109.256 444.893 114.156 449.783 119.25C450.853 120.595 451.746 121.983 452.599 123.473C452.915 124.003 452.915 124.003 453.239 124.544C457.488 131.864 459.22 140.869 457.086 149.164C455.35 154.55 453.189 160.723 448.795 164.475C447.833 165.298 447.09 166.188 446.293 167.171C441.592 172.507 434.066 175.028 427.1 175.507C425.117 175.588 423.143 175.595 421.16 175.559C420.647 175.558 420.135 175.557 419.607 175.555C412.15 175.231 405.476 170.491 400.044 165.705C399.516 164.737 399.516 164.737 399.105 163.828C398.834 163.567 398.563 163.305 398.284 163.036C392.76 157.359 390.71 149.511 390.6 141.803C390.615 141.011 390.634 140.219 390.659 139.427C390.662 138.852 390.662 138.852 390.666 138.265C390.963 131.248 394.234 124.604 398.636 119.25C399.253 118.921 399.878 118.604 400.513 118.311C400.831 117.689 401.144 117.063 401.451 116.434C404.292 113.589 407.294 111.703 411.056 110.321C412.331 109.882 412.331 109.882 413.652 108.927C418.385 107.885 423.875 106.923 428.667 107.988Z" fill="#95D4E9" fill-opacity="0.913725"/>
<path d="M290.241 279.261C294.301 279.363 297.903 279.538 301.699 281.12C302.969 281.631 304.223 281.977 305.55 282.311C308.548 283.101 311.263 284.244 313.908 285.86C315.219 286.643 316.485 287.067 317.955 287.473C319.972 288.04 321.382 288.81 323.088 290.054C323.848 290.497 324.611 290.937 325.375 291.374C327.323 292.529 328.94 293.824 330.601 295.355C331.551 296.169 332.52 296.794 333.587 297.444C335.909 298.932 337.573 300.871 339.376 302.938C340.221 303.877 341.01 304.655 342.004 305.422C343.567 306.73 344.511 308.047 345.611 309.762C345.611 310.072 345.611 310.381 345.611 310.7C346.115 310.673 346.619 310.646 347.138 310.618C353.219 310.388 353.219 310.388 355.202 311.815C356.569 313.215 356.83 313.537 357.016 315.455C356.841 317.677 356.163 319.067 355.055 320.965C354.866 321.294 354.677 321.623 354.482 321.962C352.744 324.854 350.655 326.971 347.958 329.001C347.422 329.411 347.422 329.411 346.876 329.829C346.256 330.298 345.63 330.76 344.997 331.212C344.185 331.801 344.185 331.801 343.487 332.546C342.589 333.427 341.539 333.93 340.444 334.533C339.443 335.142 338.572 335.828 337.664 336.568C335.65 338.163 333.547 339.581 331.387 340.967C331.062 341.181 330.736 341.396 330.401 341.618C330.089 341.814 329.778 342.011 329.457 342.213C329.179 342.391 328.902 342.569 328.615 342.753C327.518 343.18 326.983 343.047 325.903 342.609C324.998 341.447 324.998 341.447 324.085 339.97C322.829 338 321.565 336.222 320.001 334.494C319.233 333.572 318.621 332.599 317.985 331.582C316.761 329.692 315.379 328.339 313.644 326.917C312.764 326.186 312.764 326.186 311.562 324.924C310.476 323.894 309.421 323.208 308.103 322.51C307.133 321.962 307.133 321.962 305.973 321.165C303.226 319.28 300.86 318.244 297.6 317.561C296.063 317.206 294.881 316.653 293.525 315.862C293.992 313.639 294.498 311.484 295.197 309.322C295.832 307.283 296.101 305.335 296.242 303.207C296.341 302.254 296.341 302.254 296.81 301.316C296.953 299.132 296.953 299.132 296.341 297.092C296.204 296.048 296.079 295.001 295.96 293.954C295.585 291.196 295.027 289.538 293.525 287.238C293.371 286.677 293.216 286.116 293.056 285.537C292.549 283.827 291.823 282.972 290.71 281.607C290.528 280.831 290.368 280.049 290.241 279.261Z" fill="#01A8E1"/>
<path d="M279.976 189.489C280.404 189.482 280.833 189.474 281.274 189.466C284.142 189.464 286.686 189.809 289.302 191.044C289.767 191.508 289.767 191.508 290.241 191.982C290.065 193.683 290.065 193.683 289.771 195.267C288.533 195.731 287.294 196.196 286.018 196.675C286.018 196.984 286.018 197.294 286.018 197.613C286.55 197.758 287.082 197.903 287.631 198.053C289.302 198.551 289.302 198.551 289.771 199.021C289.947 200.135 289.947 200.135 289.771 201.367C288.598 202.217 288.598 202.217 287.425 202.775C287.44 203.908 287.44 203.908 287.894 205.121C289.255 205.938 289.255 205.938 290.71 206.529C291.02 206.838 291.329 207.148 291.648 207.467C291.56 208.64 291.56 208.64 291.179 209.813C289.81 210.726 289.009 210.964 287.425 211.221C287.448 212.103 287.448 212.103 287.894 213.098C288.591 213.563 288.591 213.563 289.302 214.036C290.71 214.975 290.71 214.975 291.209 215.943C291.179 216.852 291.179 216.852 290.616 217.572C289.584 218.412 288.779 218.609 287.484 218.905C284.383 219.687 281.476 220.832 278.51 222.014C277.851 222.254 277.851 222.254 277.179 222.499C275.076 223.279 273.498 224.022 271.828 225.568C269.871 227.152 267.555 228.281 265.371 229.522C261.939 231.503 258.665 234.184 256.455 237.499C255.991 237.499 255.526 237.499 255.047 237.499C254.894 237.182 254.741 236.865 254.584 236.538C254.276 235.91 254.276 235.91 253.962 235.27C253.761 234.856 253.56 234.442 253.352 234.016C252.747 232.891 252.072 231.938 251.294 230.929C250.652 229.57 250.299 228.327 249.974 226.853C249.497 224.852 248.626 223.163 247.679 221.346C246.275 218.556 245.237 215.595 244.158 212.667C243.564 211.107 242.915 209.569 242.27 208.03C241.909 206.998 241.909 206.998 241.909 205.59C242.192 205.443 242.475 205.295 242.767 205.143C243.142 204.942 243.517 204.741 243.903 204.534C244.273 204.338 244.643 204.142 245.025 203.94C246.151 203.296 246.151 203.296 246.953 202.371C248.486 200.913 250.261 200.02 252.115 199.021C252.478 198.821 252.841 198.621 253.215 198.416C255.219 197.32 257.242 196.284 259.296 195.285C260.252 194.775 261.113 194.186 262.004 193.571C264.212 192.161 266.478 191.813 269.037 191.425C269.91 191.284 270.784 191.141 271.656 190.994C272.228 190.906 272.228 190.906 272.812 190.816C278.353 189.484 278.353 189.484 279.976 189.489Z" fill="#01A8E1"/>
<path d="M331.094 152.595C331.564 152.649 332.034 152.703 332.518 152.758C333.851 153.029 334.973 153.453 336.226 153.974C336.965 154.156 337.709 154.323 338.455 154.472C340.399 154.862 340.399 154.862 340.919 155.381C341.6 155.523 342.285 155.647 342.972 155.763C349.469 157.025 349.469 157.025 351.625 158.963C352.963 161.64 352.099 164.736 351.359 167.494C351.275 167.822 351.191 168.149 351.104 168.487C350.613 170.343 350.037 172.127 349.336 173.916C348.386 176.357 347.937 178.813 347.548 181.392C347.319 182.805 347.082 183.902 346.33 185.131C345.294 186.889 345.063 188.7 344.702 190.692C344.156 193.505 343.583 196.055 342.264 198.621C341.815 199.579 341.602 200.48 341.388 201.514C340.794 203.702 339.991 204.509 338.133 205.708C336.941 206.141 336.08 206.186 334.819 206.06C334.525 205.911 334.231 205.763 333.928 205.61C332.933 205.117 332.092 204.892 331.006 204.681C327.872 204.024 324.848 203.064 321.826 202.012C320.486 201.551 319.45 201.327 318.014 201.162C316.235 200.848 315.673 200.49 314.641 199.021C313.629 195.308 314.078 192.129 315.521 188.668C316.694 185.759 317.802 182.964 318.102 179.811C318.253 178.374 318.606 177.379 319.304 176.116C320.35 174.206 320.676 172.359 320.98 170.216C321.222 168.93 321.65 167.849 322.149 166.643C322.275 166.053 322.401 165.462 322.53 164.854C322.992 162.73 323.542 160.638 324.143 158.549C324.228 158.227 324.312 157.905 324.4 157.574C325.4 154.206 327.325 152.094 331.094 152.595Z" fill="#05A9E2"/>
<path d="M325.903 161.951C326.773 162.165 327.643 162.38 328.513 162.596C328.998 162.716 329.482 162.835 329.981 162.959C333.199 163.787 336.363 164.771 339.529 165.772C341.034 166.246 342.537 166.702 344.057 167.127C345.401 167.52 346.669 167.974 347.957 168.52C347.821 168.981 347.821 168.981 347.682 169.451C346.874 172.286 346.287 175.064 345.904 177.987C345.611 179.313 345.611 179.313 344.922 180.673C344.114 182.31 343.813 183.764 343.5 185.559C342.793 189.377 341.828 192.774 339.98 196.205C337.437 195.731 335.166 195.066 332.766 194.094C330.379 193.14 328.136 192.545 325.593 192.197C324.452 191.974 323.644 191.578 322.618 191.044C321.959 190.849 321.294 190.672 320.624 190.516C319.753 190.313 319.753 190.313 318.864 190.105C318.186 187.938 318.704 186.337 319.422 184.269C319.642 183.605 319.861 182.94 320.08 182.275C320.191 181.94 320.302 181.605 320.417 181.259C321.093 179.159 321.659 177.028 322.244 174.901C322.618 173.682 322.618 173.682 323.087 173.213C323.161 172.539 323.217 171.864 323.263 171.189C323.444 169.336 323.854 168.593 324.964 167.112C325.158 166.02 325.258 164.945 325.335 163.839C325.434 162.889 325.434 162.889 325.903 161.951Z" fill="#F0F4F3"/>
<path d="M211.877 157.728C212.109 158.193 212.109 158.193 212.346 158.667C212.192 158.976 212.037 159.286 211.877 159.605C211.574 163.295 211.998 166.467 213.285 169.928C213.053 170.161 213.053 170.161 212.816 170.398C212.753 171.443 212.707 172.489 212.669 173.536C212.496 176.168 212.283 177.768 210.469 179.782C210.131 180.247 209.792 180.712 209.443 181.19C207.482 183.43 205.403 185.17 202.403 185.655C199.27 185.757 196.572 185.497 194.046 183.536C193.159 182.645 192.46 181.734 191.7 180.721C191.361 180.402 191.022 180.082 190.673 179.753C189.665 178.676 189.251 177.93 188.884 176.498C189.002 175.002 189.002 175.002 189.354 173.213C189.401 172.848 189.449 172.484 189.498 172.108C190.046 168.465 191.538 165.84 194.16 163.264C196.887 161.486 201.416 161.59 204.575 162.244C207.275 163.287 209.884 164.541 211.408 167.113C211.176 166.416 211.176 166.416 210.939 165.705C210.882 164.611 210.856 163.516 210.851 162.42C210.844 161.84 210.837 161.259 210.831 160.661C210.939 159.136 210.939 159.136 211.877 157.728Z" fill="#E3E7E5"/>
<path d="M220.892 151.884C222.2 152.097 222.2 152.097 223.432 153.123C224.023 154.332 224.579 155.516 225.016 156.789C223.938 157.328 223.103 157.403 221.907 157.522C221.524 157.562 221.14 157.601 220.745 157.641C220.451 157.67 220.157 157.698 219.854 157.728C220.009 157.728 220.164 157.728 220.323 157.728C222.2 157.728 224.077 157.728 225.954 157.728C227.245 160.321 228.081 162.708 228.493 165.582C228.817 166.822 229.414 167.504 230.178 168.52C230.499 169.915 230.364 170.805 230.178 172.274C228.064 174.32 224.372 174.644 221.526 174.826C218.691 174.766 216.101 173.406 213.917 171.651C211.561 168.728 211.119 164.455 211.256 160.836C211.454 159.227 211.918 158.136 212.816 156.789C213.116 156.305 213.416 155.821 213.725 155.323C215.913 152.272 217.152 151.757 220.892 151.884Z" fill="#EAEDEC"/>
<path d="M223.021 150.953C226.153 151.002 229.311 152.779 231.6 154.826C232.293 155.613 232.9 156.373 233.462 157.258C233.643 157.517 233.824 157.776 234.01 158.043C234.622 159.755 234.394 161.39 234.254 163.182C234.231 163.546 234.209 163.911 234.185 164.286C234.001 166.973 234.001 166.973 233.462 168.051C233.152 168.051 232.843 168.051 232.524 168.051C232.398 168.409 232.272 168.767 232.142 169.136C231.603 170.356 231.131 170.914 230.177 171.805C230.121 171.511 230.064 171.217 230.005 170.914C229.926 170.53 229.848 170.147 229.767 169.752C229.691 169.371 229.614 168.99 229.536 168.597C229.301 167.494 229.301 167.494 228.3 166.643C228.053 165.657 228.053 165.657 227.86 164.473C227.456 162.246 226.807 160.29 225.954 158.197C225.564 158.197 225.174 158.197 224.772 158.197C222.82 158.197 220.868 158.197 218.916 158.197C220.041 157.072 220.479 157.097 222.024 156.965C222.6 156.912 222.6 156.912 223.186 156.858C223.48 156.836 223.774 156.813 224.077 156.789C224.077 154.783 223.55 154.044 222.2 152.566C220.636 152.183 219.115 152.103 217.508 152.096C217.508 151.942 217.508 151.787 217.508 151.627C219.342 151.365 221.181 151.167 223.021 150.953Z" fill="#A9D1DD"/>
<path d="M251.763 310.701C252.545 310.855 253.327 311.012 254.109 311.17C254.905 311.331 254.905 311.331 255.716 311.494C261.224 312.729 266.299 314.712 270.888 318.056C272.343 319.198 272.343 319.198 273.964 319.734C276.1 320.561 277.582 322.192 279.201 323.766C280.46 324.841 281.698 325.505 283.202 326.186C283.202 326.495 283.202 326.805 283.202 327.124C279.958 325.919 277.826 324.277 275.513 321.71C274.647 320.926 273.873 320.577 272.791 320.144C271.334 319.527 270.012 318.864 268.685 318.003C265.005 315.655 261.515 314.175 257.257 313.249C255.251 312.803 253.563 312.16 251.763 311.17C251.763 311.015 251.763 310.86 251.763 310.701Z" fill="#CAEBF7"/>
<path d="M327.516 195.179C329.188 195.267 329.188 195.267 330.126 196.206C330.283 197.678 330.374 198.63 329.569 199.901C328.411 200.62 327.712 200.63 326.372 200.429C325.492 199.93 325.492 199.93 324.964 199.021C325.221 195.304 325.221 195.304 327.516 195.179Z" fill="#B7E6F7"/>
<path d="M211.877 157.728C212.032 158.038 212.187 158.347 212.346 158.667C212.192 158.976 212.037 159.286 211.877 159.605C211.574 163.295 211.999 166.467 213.285 169.928C213.13 170.083 212.975 170.238 212.816 170.398C212.682 172.082 212.605 173.767 212.524 175.455C212.346 176.967 212.346 176.967 211.408 177.905C211.416 177.024 211.416 177.024 211.424 176.124C211.429 175.349 211.433 174.574 211.437 173.8C211.441 173.412 211.445 173.025 211.449 172.626C211.451 172.064 211.451 172.064 211.454 171.49C211.456 171.146 211.459 170.802 211.461 170.448C211.44 169.441 211.44 169.441 211.141 168.423C211.074 168.146 211.008 167.868 210.939 167.582C211.094 167.427 211.248 167.272 211.408 167.113C211.253 166.648 211.098 166.184 210.939 165.705C210.882 164.611 210.856 163.516 210.851 162.42C210.844 161.84 210.837 161.259 210.831 160.661C210.939 159.136 210.939 159.136 211.877 157.728Z" fill="#6D837C"/>
<path d="M217.508 152.096C216.905 153.441 216.301 154.431 215.162 155.381C214.852 155.381 214.542 155.381 214.223 155.381C214.068 155.691 213.913 156 213.754 156.319C213.97 154.373 215.404 152.096 217.508 152.096Z" fill="#98A8A2"/>
<path d="M189.309 173.781C189.081 174.042 188.853 174.303 188.619 174.572C188.274 174.546 187.928 174.521 187.573 174.494C184.045 175.614 181.272 177.212 178.559 179.717C178.357 179.632 178.155 179.548 177.947 179.461C176.338 179.976 174.751 180.545 173.159 181.112C171.693 181.521 171.693 181.521 170.469 181.009C171.287 180.682 171.287 180.682 172.123 180.348C172.841 180.058 173.559 179.768 174.277 179.477C174.637 179.334 174.996 179.191 175.367 179.043C175.888 178.831 175.888 178.831 176.42 178.615C176.739 178.487 177.058 178.359 177.387 178.227C178.309 177.824 178.309 177.824 179.137 177.162C179.369 176.994 179.6 176.827 179.838 176.655C180.04 176.739 180.242 176.824 180.45 176.911C180.821 176.591 181.192 176.272 181.574 175.942C182.564 175.475 183.568 175.035 184.579 174.613C185.113 174.387 185.648 174.16 186.199 173.927C187.65 173.448 187.65 173.448 189.309 173.781Z" fill="#6D837C"/>
<path d="M197.569 196.413C199.374 198.217 201.179 200.022 202.984 201.827C204.178 202.162 204.178 202.162 205.506 202.381C205.954 202.464 206.402 202.546 206.864 202.631C207.207 202.691 207.551 202.75 207.906 202.812C207.906 202.974 207.906 203.137 207.906 203.304C205.704 203.588 203.784 203.789 201.832 202.606C200.21 201.189 198.752 199.697 197.569 197.889C197.569 197.402 197.569 196.915 197.569 196.413Z" fill="#284A40"/>
<path d="M199.099 167.702C201.544 167.857 203.259 168.831 205.22 170.227C205.839 171.509 205.839 171.509 206.044 172.546C205.738 172.655 205.432 172.764 205.117 172.876C204.692 172.316 204.692 172.316 204.258 171.745C203.054 170.195 203.054 170.195 201.613 168.897C199.756 168.755 198.014 169.488 196.347 170.247C195.143 171.67 195.143 171.67 194.224 173.092C193.918 173.201 193.612 173.309 193.296 173.422C193.578 174.7 193.86 175.979 194.151 177.297C193.845 177.406 193.539 177.515 193.223 177.627C192.075 174.394 192.075 174.394 192.891 172.609C194.687 169.927 195.909 168.598 199.099 167.702Z" fill="#34534B"/>
<path d="M222.073 159.627C224.518 159.782 226.233 160.757 228.194 162.153C228.813 163.435 228.813 163.435 229.018 164.472C228.712 164.581 228.406 164.689 228.09 164.802C227.665 164.242 227.665 164.242 227.231 163.67C226.028 162.121 226.028 162.121 224.587 160.823C222.73 160.68 220.988 161.413 219.321 162.173C218.117 163.596 218.117 163.596 217.197 165.018C216.891 165.126 216.585 165.235 216.27 165.347C216.552 166.626 216.834 167.905 217.125 169.223C216.819 169.332 216.512 169.44 216.197 169.553C215.048 166.32 215.048 166.32 215.865 164.534C217.661 161.852 218.882 160.524 222.073 159.627Z" fill="#34534B"/>
<path d="M203.629 141.107C203.415 143.679 203.415 143.679 202.367 144.895C202.282 145.149 202.197 145.402 202.11 145.664C201.569 146.832 200.919 147.36 199.842 148.051C198.691 148.051 197.978 147.952 197.001 147.341C196.685 146.789 196.685 146.789 196.725 146.039C197.275 144.389 197.973 143.484 199.487 142.626C199.886 142.395 199.886 142.395 200.293 142.159C201.434 141.567 202.332 141.107 203.629 141.107Z" fill="#EFF1F0"/>
<path d="M196.922 127.495C197.143 127.498 197.363 127.5 197.589 127.503C198.13 127.511 198.67 127.522 199.211 127.534C199.211 127.638 199.211 127.742 199.211 127.85C198.838 127.84 198.838 127.84 198.457 127.83C195.126 127.893 192.766 129.066 190.323 131.319C189.004 132.763 187.95 134.411 186.901 136.057C186.693 136.369 186.485 136.682 186.27 137.004C185.405 139.503 185.009 142.685 186.004 145.179C186.429 145.934 186.429 145.934 186.903 146.588C187.058 146.844 187.058 146.844 187.217 147.104C187.113 147.313 187.009 147.521 186.901 147.736C186.59 147.343 186.281 146.948 185.974 146.552C185.802 146.332 185.63 146.113 185.453 145.886C184.199 143.983 184.533 141.401 184.692 139.213C185.228 136.947 186.492 135.076 187.848 133.216C188.097 132.854 188.097 132.854 188.35 132.485C189.698 130.61 191.243 129.357 193.214 128.165C193.403 128.042 193.592 127.919 193.787 127.792C194.818 127.406 195.838 127.468 196.922 127.495Z" fill="#1F403A"/>
<path d="M203.213 130.155C204.572 131.734 205.172 133.546 205.231 135.622C205.126 136.867 204.856 137.795 204.261 138.897C204.272 138.638 204.282 138.378 204.294 138.111C204.431 134.205 204.431 134.205 202.618 130.904C202.111 130.46 201.593 130.029 201.061 129.615C200.867 129.449 200.673 129.283 200.473 129.112C200.473 128.904 200.473 128.695 200.473 128.481C198.702 128.377 196.932 128.272 195.107 128.165C195.107 128.061 195.107 127.957 195.107 127.849C195.758 127.779 196.409 127.714 197.06 127.652C197.423 127.616 197.785 127.579 198.159 127.541C200.357 127.526 201.66 128.714 203.213 130.155Z" fill="#36514F"/>
<path d="M203.314 141.739C203.945 142.686 203.945 142.686 203.886 143.435C203.602 144.354 203.206 145.037 202.683 145.842C202.478 146.243 202.478 146.243 202.269 146.651C201.392 147.917 200.41 148.577 198.895 148.861C197.499 148.599 196.995 148.183 196.055 147.105C196.073 146.004 196.194 145.247 196.686 144.264C196.894 144.264 197.103 144.264 197.317 144.264C197.213 145.097 197.109 145.931 197.002 146.789C197.5 147.329 197.5 147.329 198.264 147.736C199.464 147.715 200.204 147.615 201.184 146.907C202.326 145.357 202.827 143.575 203.314 141.739Z" fill="#3A5950"/>
<path d="M204.576 137.635C204.681 137.635 204.785 137.635 204.892 137.635C204.892 138.573 204.892 139.51 204.892 140.476C206.038 140.476 207.184 140.476 208.364 140.476C208.364 140.58 208.364 140.684 208.364 140.792C206.489 140.948 206.489 140.948 204.576 141.107C204.368 141.628 204.16 142.149 203.945 142.686C203.841 142.686 203.737 142.686 203.63 142.686C203.63 142.165 203.63 141.644 203.63 141.107C201.433 141.955 199.482 142.793 197.633 144.264C197.424 144.16 197.216 144.056 197.001 143.948C197.746 143.133 198.54 142.597 199.487 142.035C199.886 141.795 199.886 141.795 200.293 141.55C201.656 140.806 202.697 140.387 204.261 140.476C204.365 139.539 204.469 138.601 204.576 137.635Z" fill="#2A4A44"/>
<path d="M185.323 137.635C185.658 138.227 185.658 138.227 185.954 138.898C185.85 139.106 185.746 139.315 185.639 139.529C185.411 142.159 185.335 144.358 186.902 146.588C187.006 146.759 187.11 146.929 187.217 147.105C187.113 147.313 187.009 147.521 186.901 147.736C186.59 147.343 186.281 146.948 185.974 146.552C185.802 146.333 185.63 146.113 185.453 145.887C184.555 144.524 184.641 143.208 184.633 141.601C184.626 140.986 184.626 140.986 184.619 140.359C184.687 139.291 184.859 138.588 185.323 137.635Z" fill="#304E4A"/>
<path d="M203.314 141.739C203.945 142.686 203.945 142.686 203.886 143.435C203.601 144.354 203.206 145.037 202.682 145.842C202.539 146.116 202.396 146.389 202.248 146.671C201.657 147.535 201.08 147.893 200.157 148.367C200.053 148.159 199.949 147.951 199.842 147.736C200.281 147.414 200.281 147.414 200.729 147.085C202.368 145.716 202.786 143.728 203.314 141.739Z" fill="#304F47"/>
<path d="M202.682 129.743C202.474 129.952 202.266 130.16 202.051 130.375C201.512 129.97 200.986 129.548 200.473 129.112C200.473 128.904 200.473 128.695 200.473 128.481C198.702 128.377 196.932 128.272 195.107 128.165C195.107 128.061 195.107 127.957 195.107 127.849C195.758 127.779 196.409 127.714 197.06 127.652C197.423 127.616 197.785 127.579 198.159 127.541C200.182 127.527 201.237 128.466 202.682 129.743Z" fill="#465E5F"/>
<path d="M208.364 140.476C210.125 141.147 211.319 142.26 212.151 143.948C212.044 144.659 212.044 144.659 211.836 145.211C211.654 144.931 211.471 144.651 211.283 144.362C210.351 142.97 209.45 141.743 208.048 140.791C208.152 140.687 208.257 140.583 208.364 140.476Z" fill="#294843"/>
<path d="M188.164 132.901C188.372 133.005 188.581 133.109 188.795 133.216C188.669 133.396 188.544 133.575 188.414 133.76C187.41 135.223 186.589 136.61 185.955 138.267C185.85 138.267 185.746 138.267 185.639 138.267C185.532 137.115 185.517 136.547 186.191 135.584C186.426 135.323 186.66 135.063 186.901 134.795C187.338 134.173 187.749 133.538 188.164 132.901Z" fill="#1F403A"/>
<path d="M190.689 129.744C190.897 129.744 191.106 129.744 191.32 129.744C190.794 130.988 189.986 131.887 189.111 132.9C188.798 132.796 188.486 132.692 188.164 132.585C188.57 132.109 188.978 131.636 189.387 131.164C189.728 130.769 189.728 130.769 190.075 130.365C190.278 130.16 190.48 129.955 190.689 129.744Z" fill="#314E4B"/>
</svg>
