<svg width="1440" height="810" viewBox="0 0 1440 810" fill="none" xmlns="http://www.w3.org/2000/svg">
<g clip-path="url(#clip0_1482_966)">
<path d="M0 0C475.2 0 950.4 0 1440 0C1440 267.3 1440 534.6 1440 810C964.8 810 489.6 810 0 810C0 542.7 0 275.4 0 0Z" fill="#DECFF1"/>
<path d="M593.745 95.9121C600.512 96.3938 606.812 97.6443 613.366 99.3354C615.022 99.7555 616.682 100.149 618.346 100.535C619.418 100.789 620.49 101.043 621.563 101.297C622.518 101.522 623.473 101.747 624.457 101.979C627 102.75 627 102.75 628.91 103.931C631.214 105.27 632.975 105.36 635.625 105.562C640.676 106.062 645.157 107.461 649.922 109.172C655.52 111.175 660.306 112.338 666.287 112.374C668.25 112.5 668.25 112.5 670.5 114C671.639 114.348 672.793 114.648 673.954 114.914C674.63 115.072 675.307 115.229 676.004 115.392C676.709 115.551 677.414 115.711 678.141 115.875C679.527 116.195 680.912 116.515 682.298 116.836C682.968 116.99 683.637 117.144 684.327 117.303C691.961 119.077 691.961 119.077 695.438 120.328C698.92 121.529 702.46 122.37 706.049 123.19C708 123.75 708 123.75 710.25 125.25C710.505 127.158 710.605 128.826 710.578 130.734C710.575 131.276 710.571 131.817 710.568 132.375C710.45 136.694 709.454 140.316 708.006 144.387C707.094 147.54 706.784 150.583 706.5 153.844C706.084 158.543 705.244 162.421 703.409 166.802C702.41 169.755 702.312 172.679 702.205 175.778C701.993 177.82 701.421 178.948 700.5 180.75C700.296 182.458 700.296 182.458 700.266 184.312C699.954 188.698 698.734 192.52 697.353 196.657C696.119 200.416 695.577 203.828 695.25 207.75C694.997 208.218 694.743 208.686 694.483 209.168C693.298 211.726 693.761 214.245 693.917 217.008C693.75 219 693.75 219 692.649 220.45C691.059 222.595 691.171 224.282 691.078 226.922C690.906 231.516 690.906 231.516 689.25 234C689.124 235.356 689.051 236.717 689.016 238.078C688.711 241.983 688.711 241.983 686.906 244.266C684.164 245.517 682.48 245.738 679.5 245.25C677.29 243.279 676.586 241.833 675.844 238.969C674.91 235.959 673.72 234.582 671.64 232.31C668.825 229.075 667.209 225.301 665.93 221.244C665.264 219.617 665.264 219.617 663.82 217.972C662.18 215.912 661.125 213.922 660 211.547C658.784 209.032 657.604 206.642 655.969 204.375C654.75 202.5 654.75 202.5 654.75 199.5C650.213 201.628 645.897 203.777 641.859 206.766C639.606 208.417 637.814 209.506 635.109 210.188C630.99 211.348 627.992 213.992 624.652 216.557C620.695 219.547 616.712 221.624 612.217 223.734C608.99 225.39 606.224 227.468 603.349 229.664C601.31 231.138 599.275 232.216 596.962 233.188C595.181 234.177 593.759 235.487 592.216 236.805C590.295 238.297 588.181 239.254 585.984 240.281C579.92 243.2 574.381 246.706 568.922 250.641C564.532 253.765 559.881 256.457 555.23 259.171C552.249 260.927 549.402 262.711 546.668 264.835C543.834 267.018 540.888 268.581 537.656 270.094C533.269 272.174 529.211 274.349 525.469 277.5C523.432 279.052 521.451 280.054 519.12 281.083C517.295 282.116 515.827 283.426 514.24 284.785C512.152 286.41 509.828 287.526 507.469 288.703C503.799 290.595 500.452 292.54 497.215 295.122C492.795 298.525 487.988 301.343 482.959 303.735C481.315 304.597 479.837 305.599 478.313 306.656C475.703 308.45 473.057 309.879 470.203 311.25C466.931 312.84 464.14 314.558 461.303 316.819C458.806 318.718 456.128 320.322 453.46 321.967C451.466 323.225 451.466 323.225 449.622 324.773C447.754 326.247 445.923 327.314 443.813 328.406C441.127 329.833 438.58 331.319 436.078 333.047C433.719 334.672 431.35 335.983 428.766 337.219C426.053 338.523 424.346 339.834 422.25 342C419.914 343.396 417.485 344.573 414.911 345.463C411.07 346.798 407.947 348.579 404.625 350.906C403.644 351.578 402.663 352.249 401.681 352.919C401.218 353.237 400.755 353.555 400.279 353.882C398.706 354.949 397.104 355.96 395.484 356.953C393.074 358.376 393.074 358.376 391.359 359.859C389.513 361.069 388.43 360.993 386.25 360.75C381.433 357.289 379.002 351.778 376.558 346.565C374.918 343.134 373.1 340.293 370.734 337.312C367.889 333.726 366.206 330.285 364.585 326.024C363.203 322.673 361.299 319.927 358.597 317.479C356.461 315.166 355.11 312.605 353.625 309.844C352.052 306.949 350.499 304.116 348.645 301.389C347.261 299.267 346.422 297.312 345.563 294.938C343.92 290.836 341.784 287.867 338.936 284.522C337.199 282.378 335.938 280.151 334.661 277.714C333.66 275.83 332.567 274.022 331.453 272.203C330.111 269.991 328.866 267.787 327.75 265.453C326.696 263.279 325.5 261.31 324.141 259.312C320.068 253.321 316.621 247.068 313.453 240.562C311.602 236.769 309.703 233.336 307.028 230.045C305.548 228.181 304.346 226.17 303.106 224.142C302.378 222.958 301.615 221.797 300.844 220.641C300.318 219.852 299.792 219.063 299.25 218.25C298.671 217.387 298.671 217.387 298.081 216.507C294.938 211.712 292.362 206.834 289.934 201.653C288.874 199.332 288.874 199.332 286.5 198C283.247 197.57 281.794 197.589 279.141 199.594C278.773 199.939 278.406 200.284 278.027 200.64C276.003 202.399 273.7 203.642 271.392 204.993C268.972 206.413 266.577 207.873 264.188 209.344C263.403 209.825 262.618 210.307 261.809 210.803C260.223 211.797 258.658 212.822 257.109 213.873C255 215.25 255 215.25 252.563 216.188C249.257 217.513 246.715 219.789 243.999 222.047C241.233 224.345 238.869 225.925 235.535 227.3C231.029 229.355 226.935 232.083 223.078 235.172C219.19 238.279 215.124 240.655 210.498 242.496C207.513 243.759 205.071 245.549 202.5 247.5C199.105 250.077 195.945 251.812 192 253.5C190.125 254.68 188.351 255.99 186.563 257.297C182.081 260.489 177.504 263.163 172.594 265.641C167.882 268.018 163.854 270.509 159.853 273.993C157.717 275.668 155.469 276.563 152.962 277.556C151.292 278.249 151.292 278.249 149.625 280.125C147.846 281.905 147.001 282.418 144.759 283.315C140.588 285.106 136.823 287.42 132.984 289.828C132.301 290.248 131.618 290.668 130.915 291.101C128.042 292.889 125.26 294.652 122.695 296.865C120.985 298.302 119.984 298.99 117.891 299.578C114.154 300.854 111.204 302.979 108 305.25C91.7688 316.648 91.7688 316.648 83.2501 320.25C79.3173 322.372 75.6231 324.811 72.0001 327.422C68.9968 329.566 65.953 331.184 62.628 332.766C59.9297 334.18 57.5376 335.953 55.0724 337.734C52.8889 339.251 50.6237 340.5 48.2814 341.751C45.4204 343.356 42.7012 345.178 39.964 346.983C38.2501 348 38.2501 348 36.7501 348C36.5645 348.449 36.3789 348.897 36.1876 349.359C34.5746 352.182 32.7842 353.072 29.7189 354.094C26.477 355.235 23.7297 356.972 20.8595 358.828C20.1911 359.26 20.1911 359.26 19.5093 359.7C17.6195 360.943 15.8169 362.192 14.1115 363.68C11.4854 365.633 8.77325 366.81 5.76573 368.062C5.21031 368.299 4.65488 368.536 4.08263 368.78C2.72401 369.359 1.36236 369.93 0.000106096 370.5C-0.191271 361.216 -0.337756 351.933 -0.427354 342.648C-0.470364 338.336 -0.528659 334.025 -0.622269 329.714C-0.71209 325.552 -0.761267 321.39 -0.782624 317.226C-0.797837 315.64 -0.827551 314.054 -0.872163 312.469C-1.20725 300.062 -1.20724 300.062 1.75984 296.223C3.87703 294.644 5.829 293.541 8.25011 292.5C8.9193 292.165 9.58848 291.831 10.278 291.486C11.4654 290.892 12.6612 290.315 13.8634 289.752C15.9804 288.628 17.7827 287.298 19.6876 285.844C22.7692 283.514 25.9047 281.717 29.3907 280.078C33.2392 278.238 36.2179 276.301 39.3048 273.378C41.5574 271.252 43.5779 270.148 46.5939 269.484C50.1335 268.573 52.71 266.241 55.5733 264.062C57.66 262.565 59.7352 261.377 62.0157 260.203C64.6441 258.831 66.7512 257.455 68.9064 255.422C72.0599 252.476 75.6428 250.69 79.4591 248.725C81.3333 247.723 83.0024 246.7 84.7032 245.438C86.9091 243.817 89.0488 242.701 91.5001 241.5C92.9832 240.566 94.4495 239.612 95.9064 238.638C97.5001 237.75 97.5001 237.75 99.6446 237.085C102.378 236.116 104.341 234.762 106.688 233.062C110.253 230.518 113.863 228.164 117.648 225.952C118.993 225.153 120.299 224.286 121.594 223.406C123.252 222.325 124.739 221.513 126.516 220.688C129.047 219.462 131.171 217.986 133.406 216.281C137.033 213.56 140.805 211.393 144.797 209.25C149.996 206.449 154.511 203.356 159 199.5C161.407 197.706 162.961 196.616 165.891 195.984C168.678 195.3 170.313 193.781 172.453 191.906C177.09 187.928 182.155 185.483 187.652 182.891C193.022 180.345 193.022 180.345 197.578 176.625C199.866 174.393 202.178 173.342 205.043 171.981C208.818 170.088 212.204 167.61 215.628 165.152C218.931 162.792 222.112 160.654 225.835 159.015C227.748 157.981 229.31 156.617 231 155.25C237.024 151.019 242.92 147.757 249.756 145.002C252.539 143.759 254.254 142.283 256.5 140.25C257.993 139.452 259.514 138.743 261.047 138.026C262.726 137.196 262.726 137.196 264.75 135.328C266.718 133.73 267.708 133.143 270 132.375C272.551 131.515 274.181 130.356 276.193 128.534C278.442 126.754 281.012 125.545 283.538 124.204C288.838 121.319 293.534 118.333 297.75 114C300.142 112.253 302.398 111.108 305.344 110.578C308.414 111.179 309.371 112.262 311.25 114.75C311.597 115.755 311.906 116.772 312.188 117.797C313.391 121.927 315.868 124.812 318.489 128.162C321.876 132.659 324.747 137.511 326.859 142.734C328.692 147.098 331.503 150.871 334.157 154.764C336.036 157.526 337.741 160.372 339.425 163.257C340.6 165.163 341.895 166.945 343.219 168.75C344.958 171.179 346.196 173.394 347.203 176.203C348.598 180.017 350.73 182.922 353.177 186.138C355.654 189.463 357.804 192.986 360 196.5C360.495 197.243 360.99 197.985 361.5 198.75C361.87 199.835 362.212 200.93 362.531 202.031C363.489 205.015 364.741 206.827 366.75 209.25C367.396 210.505 368.019 211.772 368.625 213.047C369.634 215.141 370.351 216.601 372 218.25C374.08 220.33 375.04 222.758 376.242 225.422C377.342 227.416 378.623 228.67 380.25 230.25C383.056 234.267 385.205 238.644 387.328 243.047C389.164 246.836 391.257 250.06 393.935 253.307C398.287 258.909 401.251 265.387 404.054 271.86C404.81 273.842 404.81 273.842 406.5 274.5C410.663 274.864 412.775 274.243 416.156 271.828C416.932 271.283 417.707 270.738 418.506 270.176C420.478 268.703 422.4 267.189 424.313 265.641C426.81 263.643 429.007 262.575 432.026 261.601C434.314 260.668 436.084 259.174 438.009 257.648C439.417 256.564 440.839 255.636 442.359 254.719C444.838 253.216 447.126 251.545 449.438 249.797C452.998 247.163 456.638 245.262 460.629 243.369C462.662 242.297 464.271 241.139 466.031 239.672C469.122 237.119 472.412 235.486 476.023 233.773C479.781 231.952 482.989 229.708 486.305 227.191C490.133 224.355 494.184 221.819 498.609 220.031C500.987 219.131 500.987 219.131 502.658 217.67C505.192 215.648 507.859 213.958 510.609 212.25C511.115 211.931 511.62 211.612 512.14 211.283C515.127 209.42 518.15 207.767 521.312 206.224C523.555 205.095 525.671 203.812 527.813 202.5C528.629 202.005 529.445 201.51 530.285 201C532.493 199.614 532.493 199.614 534.032 197.921C535.8 196.21 537.369 195.609 539.672 194.766C545.244 192.552 550.545 189.81 554.719 185.438C556.58 183.674 557.479 183.351 559.875 182.672C563.422 181.647 564.708 179.895 567 177C568.227 176.423 569.46 175.85 570.733 175.383C573.308 174.309 575.61 172.769 577.981 171.308C579.75 170.25 579.75 170.25 582.234 169.078C584.344 168.084 584.344 168.084 585.935 166.242C588.127 164.127 590.403 162.72 593.063 161.297C596.123 159.61 599.099 157.909 601.969 155.906C605.286 153.622 608.821 151.893 612.445 150.149C614.171 149.409 614.171 149.409 615 148.5C615 142.369 611.071 137.842 607.591 133.066C604.895 129.363 603.002 125.942 601.421 121.644C600.291 118.874 598.547 116.957 596.335 114.996C594.337 112.795 593.133 110.387 591.891 107.719C591.526 106.991 591.526 106.991 591.154 106.248C589.641 103.034 589.188 100.914 590.25 97.5C591.75 96 591.75 96 593.745 95.9121Z" fill="#C8AFE7"/>
<path d="M937.5 136.5C938.243 137.614 938.243 137.614 939 138.75C941.688 138.938 941.688 138.938 944.25 138.75C944.498 138.008 944.745 137.265 945 136.5C948.429 136.912 951.506 137.563 954.75 138.75C954.75 139.493 954.75 140.235 954.75 141C955.493 140.505 956.235 140.01 957 139.5C968.675 145.794 968.675 145.794 970.406 151.36C970.437 151.901 970.468 152.442 970.5 153C970.253 153.248 970.005 153.495 969.75 153.75C970.322 154.137 970.895 154.524 971.484 154.922C973.962 157.169 974.615 158.893 975.75 162C974.028 162.861 972.692 162.981 970.781 163.172C970.168 163.235 969.555 163.298 968.924 163.363C968.454 163.408 967.984 163.453 967.5 163.5C967.748 163.5 967.995 163.5 968.25 163.5C971.25 163.5 974.25 163.5 977.25 163.5C979.313 167.646 980.649 171.461 981.308 176.054C981.656 177.828 981.656 177.828 982.91 179.294C984.531 181.46 984.151 183.38 984 186C984.495 186 984.99 186 985.5 186C987.665 190.809 989.58 195.334 990.261 200.59C990.713 202.356 991.281 203.595 992.127 205.193C994.083 208.967 995.231 212.915 996.422 216.985C996.64 217.711 996.858 218.438 997.083 219.186C1001.01 232.36 1001.01 232.36 1001.95 237.891C1002.53 240.919 1003.53 243.263 1005 245.953C1005.84 247.689 1006.36 249.392 1006.88 251.25C1007.7 254.16 1008.75 256.676 1010.17 259.339C1011.58 262.159 1012.71 265.098 1013.89 268.023C1014.73 270.114 1014.73 270.114 1016.25 272.25C1016.61 273.734 1016.98 275.219 1017.33 276.706C1018.1 279.52 1019.35 281.939 1021.17 284.203C1022.64 286.314 1023.08 288.532 1023.75 291C1026.6 290.599 1029.44 290.169 1032.28 289.735C1033.08 289.623 1033.87 289.511 1034.69 289.396C1040.92 288.422 1045.8 286.404 1051.13 283.078C1052.95 282.031 1054.69 281.334 1056.66 280.594C1059.65 279.437 1061.98 278.072 1064.5 276.12C1065.82 275.203 1067.08 274.623 1068.56 274.031C1070.98 273.223 1070.98 273.223 1072.13 271.688C1073.25 270.75 1073.25 270.75 1076.02 270.985C1077.25 271.24 1077.25 271.24 1078.5 271.5C1079.2 274.75 1079.2 277.251 1078.5 280.5C1079.29 280.113 1080.08 279.727 1080.89 279.328C1083.37 278.264 1084.89 278.032 1087.5 279C1088 279.495 1088.49 279.99 1089 280.5C1088.77 282.61 1088.77 282.61 1088.25 285C1088.11 285.712 1087.97 286.423 1087.83 287.156C1087.72 287.682 1087.61 288.208 1087.5 288.75C1090.33 288.974 1090.33 288.974 1092 288C1093.5 287.97 1095 287.968 1096.5 288C1097.02 289.688 1097.02 289.688 1097.25 291.75C1096.17 293.391 1096.17 293.391 1095 294.75C1095 295.245 1095 295.74 1095 296.25C1095.51 296.142 1096.02 296.034 1096.55 295.922C1099.04 295.445 1101.47 294.989 1104 294.75C1105.5 296.25 1105.5 296.25 1105.67 297.636C1105.28 302.968 1102.98 305.848 1099.5 309.75C1099.07 310.269 1098.64 310.789 1098.2 311.323C1094.06 316.257 1088.97 321.761 1082.91 324.188C1079.69 325.486 1077.07 327.507 1074.26 329.514C1070.45 332.185 1067.36 333.238 1062.75 333.75C1061.75 333.982 1060.74 334.222 1059.75 334.5C1060.25 335.738 1060.74 336.975 1061.25 338.25C1060.69 338.395 1060.13 338.54 1059.55 338.69C1058.81 338.885 1058.07 339.08 1057.31 339.281C1056.22 339.569 1056.22 339.569 1055.1 339.862C1053.05 340.418 1053.05 340.418 1051.47 341.277C1049.71 342.141 1048.08 342.455 1046.16 342.797C1043.49 343.262 1043.49 343.262 1041 344.25C1033.61 345.677 1026.21 346.098 1018.71 346.307C1016.95 346.36 1015.2 346.432 1013.44 346.505C1006.51 346.742 1000.47 346.183 993.75 344.25C992.696 344.007 991.642 343.766 990.586 343.53C987.161 342.588 983.919 341.351 980.625 340.031C979.7 339.666 979.7 339.666 978.756 339.293C977.253 338.699 975.751 338.1 974.25 337.5C975.813 338.205 977.378 338.904 978.949 339.592C980.309 340.194 981.661 340.815 983.004 341.455C992.679 345.865 1002.71 346.931 1013.25 346.5C1014.76 346.45 1016.27 346.4 1017.78 346.351C1032.01 346.369 1032.01 346.369 1045.5 342.75C1047.12 342.324 1048.75 341.988 1050.4 341.657C1053.19 341.045 1055.91 340.198 1058.64 339.366C1061.26 338.851 1062.68 339.267 1064.95 340.603C1071.77 345.726 1078.73 352.705 1081.71 360.835C1082.28 362.487 1082.28 362.487 1083.84 364.641C1085.32 366.855 1085.97 368.713 1086.75 371.25C1087.26 372.439 1087.78 373.626 1088.3 374.813C1089.66 378.14 1090.17 381.15 1090.37 384.727C1090.41 386.301 1090.41 386.301 1091.25 387.75C1091.43 392.65 1091.43 392.65 1090.5 394.5C1090.3 395.92 1090.11 397.342 1089.94 398.766C1088.52 408.139 1085.55 416.063 1080 423.75C1079.59 424.34 1079.19 424.93 1078.77 425.537C1076.83 428.265 1075.54 429.797 1072.5 431.25C1071.97 432.237 1071.48 433.239 1071 434.25C1068.92 436.757 1067.49 437.64 1064.25 438C1065.19 440.825 1066.42 441.446 1068.75 443.25C1076.34 450.422 1083.24 458.498 1088.56 467.487C1089.71 469.437 1090.89 471.372 1092.08 473.303C1092.85 474.567 1093.62 475.83 1094.39 477.094C1094.78 477.725 1095.17 478.357 1095.57 479.007C1097.57 482.295 1099.27 485.459 1100.51 489.104C1101.05 490.722 1101.05 490.722 1102.21 493.058C1103.47 496.331 1103.84 499.354 1104.14 502.828C1104.23 503.759 1104.23 503.759 1104.33 504.708C1104.48 506.221 1104.61 507.736 1104.75 509.25C1105.41 509.36 1106.07 509.471 1106.75 509.584C1114.76 511.131 1114.76 511.131 1117.03 513.61C1118.25 516 1118.25 516 1118.34 518.344C1117.04 521.68 1114.71 523.054 1111.52 524.534C1110.76 524.827 1109.99 525.12 1109.2 525.422C1106.1 526.591 1106.1 526.591 1103.34 528.377C1101.59 529.614 1100.33 529.989 1098.24 530.408C1097.23 530.623 1097.23 530.623 1096.19 530.841C1095.47 530.987 1094.75 531.132 1094.02 531.281C1082.97 533.621 1082.97 533.621 1072.5 537.75C1070.84 537.803 1069.19 537.813 1067.53 537.797C1066.64 537.79 1065.75 537.784 1064.83 537.777C1064.14 537.768 1063.46 537.759 1062.75 537.75C1060.77 534.819 1059.61 532.673 1059.38 529.125C1058.26 512.968 1050.28 494.668 1038.61 483.422C1033.96 479.497 1028.76 476.424 1023.54 473.333C1022.25 472.5 1022.25 472.5 1020.25 470.737C1018.6 469.297 1018.6 469.297 1016.63 469.623C1016.01 469.83 1015.39 470.037 1014.75 470.25C1013.81 470.491 1013.81 470.491 1012.85 470.737C1012.22 470.916 1011.6 471.096 1010.95 471.281C1010.01 471.545 1010.01 471.545 1009.05 471.815C1007.21 472.417 1007.21 472.417 1005.73 473.675C1003.99 474.939 1002.95 475.061 1000.83 475.172C998.216 475.317 997.544 475.471 995.25 477C985.592 479.154 975.659 479.324 965.813 479.391C964.56 479.406 964.56 479.406 963.282 479.421C957.608 479.426 952.628 478.793 947.25 477C945.923 476.923 944.594 476.863 943.266 476.813C938.553 476.459 934.566 475.127 930.176 473.435C928.261 472.697 926.389 472.082 924.422 471.516C910.423 466.815 894.524 455.615 886.5 443.25C885.897 442.662 885.293 442.075 884.672 441.469C882.304 439.043 880.708 436.411 879 433.5C878.613 432.866 878.227 432.232 877.828 431.578C876.985 430.149 876.161 428.71 875.344 427.266C874.276 425.38 873.146 423.554 871.969 421.735C867.462 414.457 864.722 407.485 862.569 399.224C861.551 395.337 861.551 395.337 859.796 391.746C858.37 389.365 858.21 387.265 857.906 384.516C857.819 383.732 857.819 383.732 857.729 382.933C854.405 351.893 854.405 351.893 859.5 344.25C859.788 342.271 859.788 342.271 859.875 340.125C860.03 337.244 860.108 336.213 861.75 333.75C861.903 332.2 862.053 330.649 862.192 329.098C862.823 324.795 864.259 320.659 865.5 316.5C866.477 313.043 867.138 309.6 867.656 306.047C868.111 303.159 868.701 300.789 870 298.172C871.724 294.674 872.078 291.24 872.578 287.403C873.092 284.479 874.101 282.018 875.288 279.314C876.268 276.817 876.745 274.306 877.204 271.67C877.5 270 877.5 270 877.893 268.609C878.587 265.485 878.556 262.246 878.716 259.058C878.988 256.606 879.579 255.009 880.5 252.75C881 250.579 881.341 248.39 881.672 246.188C881.769 245.539 881.867 244.89 881.967 244.221C883.03 236.571 883.211 228.9 883.427 221.189C883.532 218.049 883.724 214.917 883.922 211.781C885.095 201.984 885.095 201.984 883.5 192.75C883.556 183.105 884.228 172.139 890.435 164.429C891.754 162.745 892.64 161.105 893.578 159.188C895.537 155.563 898.1 153.72 901.5 151.5C902.799 150.597 904.096 149.691 905.391 148.781C906.288 148.164 906.288 148.164 907.204 147.533C908.451 146.642 909.666 145.704 910.852 144.733C915.958 140.745 921.861 138.516 928.078 136.922C928.836 136.724 928.836 136.724 929.61 136.522C932.45 135.849 934.724 135.487 937.5 136.5Z" fill="#F2F4F3"/>
<path d="M1440 617.25C1440 680.857 1440 744.465 1440 810C1366.74 810 1293.48 810 1218 810C1218.49 805.624 1219.03 801.375 1219.83 797.062C1220.54 793.163 1221.18 789.274 1221.7 785.344C1222.6 779.468 1224.5 774.288 1227.33 769.078C1229.08 765.712 1230.01 762.373 1230.94 758.719C1232.8 751.457 1235.78 744.861 1238.99 738.106C1239.95 736.08 1240.88 734.042 1241.81 732C1242.24 731.059 1242.24 731.059 1242.69 730.099C1243.24 728.839 1243.77 727.566 1244.27 726.284C1248.76 714.805 1254.23 704.024 1263.75 696C1264.21 695.607 1264.66 695.213 1265.14 694.808C1266.16 693.943 1267.21 693.095 1268.25 692.25C1268.81 691.685 1269.37 691.121 1269.94 690.539C1272.18 688.326 1274.52 686.306 1276.92 684.281C1289.3 673.817 1289.3 673.817 1299.56 661.362C1303.71 656.184 1309.11 652.967 1314.75 649.594C1315.52 649.131 1316.29 648.669 1317.08 648.193C1319.3 646.87 1321.52 645.557 1323.75 644.25C1324.28 643.934 1324.82 643.618 1325.37 643.292C1343.12 632.91 1365.2 625.449 1385.25 621C1385.77 620.875 1386.29 620.75 1386.82 620.622C1391.75 619.515 1396.38 619.334 1401.42 619.433C1403.07 619.448 1404.72 619.463 1406.37 619.478C1408.94 619.511 1411.51 619.547 1414.07 619.587C1416.58 619.624 1419.08 619.646 1421.58 619.667C1422.72 619.691 1422.72 619.691 1423.88 619.716C1428.31 619.747 1432 619.207 1436.19 617.736C1437.75 617.25 1437.75 617.25 1440 617.25Z" fill="#C8AFE7"/>
<path d="M815.156 521.109C817.844 522.131 817.806 522.342 818.953 524.766C821.033 528.622 824.475 529.603 828.426 530.875C831.888 532.033 833.394 533.317 835.5 536.25C836.804 537.197 836.804 537.197 838.219 537.797C838.736 538.041 839.253 538.284 839.786 538.535C840.984 539.035 842.199 539.493 843.425 539.918C844.074 540.146 844.722 540.374 845.391 540.609C845.989 540.8 846.588 540.99 847.204 541.187C849.073 542.293 849.579 542.977 850.729 544.752C852.845 547.917 855.391 549.351 858.703 551.109C862.924 553.462 866.922 555.909 870.797 558.797C874.509 561.533 878.317 563.973 882.328 566.25C882.816 566.53 883.304 566.811 883.806 567.1C886.195 568.425 888.222 569.311 890.886 570.047C893.25 570.75 893.25 570.75 894.75 573C895.02 574.872 895.02 574.872 894.75 576.75C893.543 577.948 893.543 577.948 891.938 579.047C888.418 581.864 887.726 584.646 886.532 588.879C885.719 591.083 885.068 591.938 883.312 593.437C880.673 595.775 879.237 598.406 877.734 601.547C875.248 606.743 872.642 611.852 869.906 616.922C869.354 617.965 869.354 617.965 868.791 619.03C866.567 623.138 864.141 626.558 861 630C853.311 639.554 847.497 650.067 841.753 660.861C839.688 664.71 837.471 668.346 835.009 671.952C833.592 674.125 832.522 676.353 831.422 678.703C828.961 683.805 826.211 688.932 822.059 692.865C820.006 695.018 818.588 697.387 817.078 699.937C816.789 700.41 816.499 700.883 816.201 701.37C814.776 703.754 813.598 706.039 812.704 708.671C811.367 712.439 809.147 715.544 806.906 718.828C803.697 723.633 800.721 728.447 798.094 733.594C795.28 739.089 792.384 744.442 787.913 748.784C783.259 753.566 780.14 759.746 777.832 765.952C774.721 773.61 770.728 780.034 765 786C762.094 789.254 760.35 792.113 759.094 796.312C757.456 801.524 755.457 806.131 751.5 810C747.874 811.262 744.351 811.145 740.561 811.022C739.459 811.019 738.357 811.021 737.255 811.026C734.277 811.028 731.303 810.976 728.326 810.913C725.21 810.856 722.094 810.851 718.978 810.84C713.083 810.812 707.19 810.739 701.296 810.648C694.584 810.547 687.871 810.498 681.158 810.453C667.354 810.359 653.552 810.201 639.75 810C640.722 806.916 641.605 804.801 643.734 802.359C645.684 799.958 647.047 797.76 648.234 794.906C650.237 790.179 653.046 786.151 655.934 781.936C657.431 779.747 658.812 777.516 660.141 775.219C661.538 772.821 663.046 770.734 664.828 768.609C668.412 764.153 670.457 758.943 672.75 753.75C674.694 749.518 677.021 745.657 679.556 741.75C681.095 739.352 682.571 736.922 684.047 734.484C685.689 731.797 687.342 729.219 689.297 726.75C691.792 723.553 693.535 720.008 695.408 716.423C696.628 714.22 697.938 712.233 699.422 710.203C701.839 706.875 703.619 703.41 705.398 699.709C706.76 696.978 708.329 694.414 709.931 691.819C710.991 690.016 711.89 688.189 712.781 686.297C714.539 682.691 716.774 679.626 719.18 676.427C720.786 674.2 722.202 671.919 723.609 669.562C725.842 665.863 728.243 662.382 730.828 658.922C735.73 652.34 740.427 645.687 743.953 638.25C745.904 634.163 748.361 630.691 751.037 627.064C754.163 622.785 756.464 618.344 758.429 613.424C760.094 609.533 762.29 605.936 764.438 602.297C765.054 601.227 765.054 601.227 765.683 600.136C768.012 596.178 770.476 592.791 773.575 589.409C775.42 587.196 776.535 584.756 777.703 582.141C779.859 577.571 782.314 573.614 785.388 569.584C788.248 565.733 790.279 561.685 791.953 557.203C793.131 554.165 794.541 551.88 796.57 549.349C798.548 546.791 800.352 544.124 802.172 541.453C802.86 540.444 803.548 539.435 804.237 538.427C804.569 537.939 804.9 537.451 805.241 536.948C805.916 535.98 806.61 535.025 807.323 534.085C809.203 531.598 810.435 529.844 810.469 526.687C810.504 524.673 810.519 523.801 811.758 522.185C813 521.25 813 521.25 815.156 521.109Z" fill="#C8AFE7"/>
<path d="M628.5 591.75C630.052 592.895 631.402 594.176 632.801 595.503C635.173 597.593 637.79 599.153 640.497 600.773C642.386 602.012 644.091 603.301 645.85 604.711C649.717 607.756 653.847 610.247 658.078 612.75C662.37 615.298 666.602 617.85 670.661 620.76C673.765 622.97 676.899 624.73 680.344 626.344C685.678 628.933 690.552 631.644 695.203 635.344C697.868 637.406 700.422 638.403 703.661 639.27C705 639.75 705 639.75 705.75 641.25C706.174 643.898 706.279 645.72 704.736 647.994C703.367 649.544 701.953 651.029 700.5 652.5C694.822 658.499 690.272 665.39 688.228 673.436C687.345 676.327 685.472 678.118 683.25 680.063C681.813 681.679 681.219 682.791 680.391 684.75C677.268 692.137 672.812 698.702 668.115 705.163C666.37 707.618 665.009 709.893 663.99 712.737C662.883 715.826 661.686 717.104 659.25 719.25C656.034 722.133 654.302 724.928 652.5 728.766C652.24 729.299 651.981 729.832 651.713 730.382C650.619 732.633 649.55 734.894 648.492 737.162C646.497 741.354 644.068 744.944 641.285 748.658C638.839 751.991 636.666 755.482 634.5 759C634.114 759.626 633.729 760.251 633.331 760.896C631.369 764.122 629.519 767.382 627.75 770.719C626.406 773.222 625.017 775.48 623.25 777.703C621.369 780.083 620.091 782.507 618.797 785.25C617.427 788.112 616.12 790.37 613.922 792.656C610.818 795.911 609.16 799.75 607.33 803.798C604.68 808.683 604.68 808.683 602.25 810C598.745 810.561 595.243 810.474 591.704 810.426C590.617 810.425 589.53 810.425 588.443 810.427C585.498 810.429 582.553 810.406 579.607 810.38C576.527 810.357 573.447 810.355 570.367 810.35C564.537 810.339 558.707 810.308 552.876 810.27C546.238 810.228 539.6 810.208 532.961 810.189C519.307 810.15 505.654 810.084 492 810C492.986 806.899 493.99 804.552 495.938 801.938C499.358 797.195 502.533 792.454 504.656 786.984C505.729 784.435 506.759 783.191 508.969 781.547C513.649 777.772 515.905 772.201 518.672 766.989C520.617 763.401 522.691 759.889 524.766 756.375C525.353 755.369 525.353 755.369 525.953 754.342C528.325 750.323 530.863 746.478 533.567 742.675C539.807 733.844 544.882 724.104 549.469 714.328C550.621 711.981 551.833 710.258 553.641 708.375C558.141 703.524 560.901 697.293 564 691.5C565.319 689.042 566.649 686.59 567.984 684.141C568.281 683.581 568.579 683.021 568.885 682.445C570.663 679.182 572.554 676.849 575.25 674.25C576.436 672.623 577.548 671.022 578.625 669.328C578.919 668.871 579.214 668.413 579.517 667.942C581.753 664.37 583.304 660.707 584.81 656.772C586.063 654.077 587.76 652.139 589.837 650.039C591.926 647.724 592.472 645.942 592.922 642.844C593.952 637.875 597.067 633.916 599.88 629.799C601.586 627.252 603.142 624.606 604.723 621.979C606 620.25 606 620.25 607.746 619.043C610.88 616.239 612.391 612.635 614.25 608.906C614.631 608.16 615.012 607.414 615.404 606.645C616.9 603.708 618.38 600.766 619.813 597.798C620.143 597.119 620.473 596.44 620.812 595.74C621.103 595.133 621.393 594.526 621.691 593.901C623.284 591.142 625.574 591.317 628.5 591.75Z" fill="#C8AFE7"/>
<path d="M24.432 668.148C27.9842 668.719 31.4642 669.145 35.0624 669.328C37.7767 669.506 39.5597 669.88 41.9061 671.25C44.5613 672.79 46.4925 672.851 49.5468 672.844C61.6213 673.39 73.6198 680.879 83.2499 687.75C83.887 688.196 84.5241 688.641 85.1806 689.101C86.3789 689.94 87.5743 690.784 88.7665 691.632C91.6487 693.62 94.6036 695.492 97.5687 697.353C101.275 699.7 104.603 702.104 107.437 705.469C107.883 705.988 108.329 706.507 108.788 707.042C109.512 707.887 109.512 707.887 110.25 708.75C114.879 714.082 114.879 714.082 120.047 718.875C125.283 723.329 128.898 728.456 131.73 734.675C132.889 736.75 134.267 738.19 135.937 739.875C138.813 742.906 139.261 744.936 139.356 749.033C139.578 751.686 140.852 753.226 142.5 755.25C143.041 755.931 143.583 756.611 144.141 757.312C144.589 757.869 145.038 758.426 145.5 759C146.422 760.844 146.355 762.191 146.437 764.25C146.686 767.449 147.275 769.587 148.875 772.359C150.991 776.195 151.069 779.438 151.216 783.759C151.447 787.32 152.445 790.644 153.422 794.062C156.693 805.615 156.693 805.615 154.5 810C103.515 810 52.5299 810 -0.000112526 810C-0.0155813 786.627 -0.03105 763.253 -0.0469875 739.172C-0.0538155 731.778 -0.0606435 724.385 -0.0676784 716.767C-0.0710659 707.773 -0.0710659 707.773 -0.0716953 703.569C-0.072397 700.618 -0.0752194 697.667 -0.0792942 694.717C-0.0844133 690.961 -0.085985 687.205 -0.0849161 683.448C-0.0851398 682.065 -0.0866438 680.682 -0.0895252 679.299C-0.0932201 677.44 -0.0923681 675.581 -0.0903034 673.721C-0.0924879 673.172 -0.0946731 672.623 -0.0969238 672.057C-0.0857069 668.336 -0.0857061 668.336 0.749888 667.5C8.85052 666.15 16.3807 666.845 24.432 668.148Z" fill="#C8AFE7"/>
<path d="M1422.75 693C1428.44 693.247 1434.13 693.495 1440 693.75C1440 732.112 1440 770.475 1440 810C1392.73 810 1345.46 810 1296.75 810C1296.75 796.05 1296.75 796.05 1300.1 788.906C1302.73 783.143 1304.08 778.473 1304.54 772.178C1305.58 766.136 1308.43 762.773 1313.06 759C1317.51 755.15 1320.04 751.453 1322.42 746.117C1324.62 741.242 1327.62 737.425 1331.25 733.5C1331.68 733.027 1332.11 732.554 1332.55 732.067C1336.28 728.162 1340.55 724.875 1344.75 721.5C1346.09 720.391 1347.44 719.282 1348.78 718.172C1351.86 715.664 1354.94 713.172 1358.06 710.719C1358.83 710.11 1359.6 709.501 1360.39 708.873C1364.61 705.966 1368.9 704.696 1373.86 703.687C1378.56 702.659 1382.95 701.274 1387.41 699.469C1409.89 690.428 1409.89 690.428 1422.75 693Z" fill="#DECFF1"/>
<path d="M424.641 683.625C427.5 684 427.5 684 428.505 685.04C428.982 685.709 428.982 685.709 429.469 686.391C431.506 689.096 433.306 689.909 436.5 690.984C440.619 692.406 443.877 694.214 447.375 696.75C447.806 697.062 448.237 697.373 448.682 697.694C450.628 699.145 452.371 700.627 454.049 702.384C456.5 704.728 459.144 706.218 462.094 707.859C467.777 711.107 472.968 714.683 478.18 718.647C481.404 721.034 484.729 722.865 488.344 724.594C493.857 727.263 493.857 727.263 496.298 728.736C498.352 729.959 500.408 730.64 502.673 731.367C504 732 504 732 505.5 734.25C505.922 736.688 505.922 736.688 505.5 739.5C504.379 740.886 503.128 742 501.8 743.188C499.312 745.695 497.577 748.667 495.677 751.629C494.528 753.337 493.423 754.722 492 756.188C488.252 760.371 486.152 765.97 483.75 771C482.712 773.161 481.663 775.316 480.609 777.469C480.262 778.2 480.262 778.2 479.908 778.947C477.957 782.934 475.733 786.226 472.099 788.897C469.553 791.104 468.387 793.646 466.922 796.641C466.117 798.26 465.305 799.869 464.446 801.46C463.829 802.628 463.25 803.817 462.718 805.026C461.664 807.063 460.71 808.46 459 810C455.459 810.989 451.945 810.855 448.3 810.766C447.205 810.764 446.111 810.765 445.017 810.769C442.054 810.771 439.092 810.732 436.13 810.684C433.031 810.642 429.932 810.638 426.833 810.63C420.968 810.609 415.103 810.554 409.238 810.486C402.56 810.411 395.882 810.374 389.203 810.34C375.468 810.269 361.734 810.15 348 810C348.448 806.984 348.777 805.023 350.719 802.641C351.122 802.134 351.525 801.627 351.94 801.105C352.373 800.576 352.805 800.046 353.25 799.5C354.588 797.794 355.919 796.082 357.246 794.367C358.027 793.361 358.814 792.359 359.613 791.367C361.674 788.7 362.478 786.671 363.17 783.328C365.095 777.262 368.861 771.537 373.562 767.32C376.851 763.729 379.148 759.275 381.655 755.12C382.687 753.446 383.803 751.84 384.938 750.234C388.149 745.481 391.039 739.943 392.203 734.297C393.137 731.606 394.456 730.746 396.647 729.032C401.962 723.951 405.804 717.006 408.018 710.065C409.963 704.58 412.788 699.33 416.812 695.109C419.375 692.421 420.256 689.83 421.119 686.253C421.737 683.813 422.007 684.038 424.641 683.625Z" fill="#C8AFE7"/>
<path d="M1301.25 84.0002C1301.62 84.3714 1301.62 84.3714 1302 84.7502C1303.08 84.8315 1304.16 84.8895 1305.23 84.9377C1316.82 86.0268 1327.18 93.8584 1335 102C1336.71 104.15 1338.14 106.368 1339.5 108.75C1340.01 109.597 1340.01 109.597 1340.52 110.461C1347.31 122.161 1350.08 136.554 1346.67 149.813C1343.9 158.42 1340.44 168.287 1333.42 174.284C1331.88 175.6 1330.69 177.023 1329.42 178.594C1321.91 187.122 1309.88 191.151 1298.74 191.917C1295.58 192.046 1292.42 192.058 1289.25 192C1288.43 191.998 1287.61 191.996 1286.77 191.994C1274.85 191.475 1264.18 183.9 1255.5 176.25C1254.66 174.703 1254.66 174.703 1254 173.25C1253.57 172.833 1253.13 172.415 1252.69 171.985C1243.86 162.91 1240.58 150.367 1240.41 138.047C1240.43 136.781 1240.46 135.516 1240.5 134.25C1240.51 133.331 1240.51 133.331 1240.51 132.393C1240.99 121.177 1246.21 110.557 1253.25 102C1254.24 101.475 1255.23 100.969 1256.25 100.5C1256.76 99.5049 1257.26 98.5042 1257.75 97.5002C1262.29 92.9515 1267.09 89.937 1273.1 87.7297C1275.14 87.0265 1275.14 87.0265 1277.25 85.5002C1284.81 83.8348 1293.59 82.298 1301.25 84.0002Z" fill="#C8AFE7"/>
<path d="M568.5 420C569.101 420.145 569.703 420.29 570.322 420.439C575.493 421.856 579.386 424.905 583.5 428.25C583.883 428.56 584.265 428.87 584.66 429.189C591.708 434.985 596.423 441.178 599.25 450C599.645 450.877 600.041 451.754 600.448 452.657C602.074 456.976 601.856 461.428 601.828 465.984C601.843 466.854 601.858 467.723 601.874 468.619C601.87 474.509 600.896 479.133 598.5 484.5C598.265 485.051 598.03 485.601 597.788 486.169C594.971 492.569 592.025 498.042 586.5 502.5C585.959 502.958 585.417 503.416 584.859 503.888C575.885 511.212 566.59 514.902 555 515.25C553.86 515.321 553.86 515.321 552.697 515.393C546.924 515.627 542.327 514.412 537 512.25C535.93 511.829 535.93 511.829 534.838 511.4C529.932 509.337 526.064 506.653 522 503.25C521.35 502.801 520.701 502.353 520.031 501.89C511.11 493.674 506.591 481.712 506.092 469.889C505.774 458.608 506.773 446.573 514.573 437.713C515.59 436.712 516.63 435.734 517.699 434.789C519.066 433.578 519.066 433.578 519.727 431.991C522.762 426.138 532.728 422.34 538.5 420C540.926 419.411 543.275 419.002 545.754 418.717C553.859 417.71 560.342 417.721 568.5 420Z" fill="#C8AFE7"/>
<path d="M1080 357.75C1086.49 357.913 1092.25 358.192 1098.31 360.721C1100.34 361.538 1102.35 362.091 1104.47 362.625C1109.26 363.888 1113.6 365.715 1117.83 368.297C1119.92 369.549 1121.95 370.226 1124.3 370.875C1127.52 371.781 1129.77 373.012 1132.5 375C1133.72 375.709 1134.93 376.411 1136.16 377.109C1139.27 378.956 1141.85 381.026 1144.51 383.473C1146.03 384.774 1147.58 385.773 1149.28 386.812C1152.99 389.191 1155.65 392.289 1158.53 395.593C1159.88 397.094 1161.15 398.337 1162.73 399.562C1165.23 401.654 1166.74 403.759 1168.5 406.5C1168.5 406.995 1168.5 407.49 1168.5 408C1169.31 407.956 1170.11 407.913 1170.94 407.868C1180.66 407.501 1180.66 407.501 1183.83 409.781C1186.01 412.02 1186.43 412.533 1186.73 415.6C1186.45 419.15 1185.37 421.372 1183.59 424.406C1183.29 424.932 1182.99 425.458 1182.68 426C1179.9 430.622 1176.56 434.006 1172.25 437.25C1171.39 437.905 1171.39 437.905 1170.52 438.574C1169.53 439.323 1168.53 440.061 1167.52 440.783C1166.22 441.726 1166.22 441.726 1165.1 442.916C1163.67 444.325 1161.99 445.128 1160.24 446.092C1158.64 447.066 1157.25 448.161 1155.8 449.344C1152.58 451.894 1149.22 454.16 1145.77 456.375C1145.25 456.718 1144.72 457.062 1144.19 457.415C1143.69 457.729 1143.19 458.044 1142.68 458.367C1142.24 458.652 1141.79 458.937 1141.34 459.23C1139.58 459.913 1138.73 459.701 1137 459C1135.55 457.143 1135.55 457.143 1134.09 454.781C1132.09 451.634 1130.07 448.791 1127.57 446.03C1126.34 444.556 1125.36 443.001 1124.34 441.375C1122.39 438.355 1120.18 436.192 1117.41 433.919C1116 432.75 1116 432.75 1114.08 430.734C1112.34 429.088 1110.66 427.991 1108.55 426.876C1107 426 1107 426 1105.15 424.726C1100.75 421.712 1096.97 420.057 1091.76 418.966C1089.31 418.397 1087.42 417.514 1085.25 416.25C1086 412.697 1086.81 409.251 1087.92 405.797C1088.94 402.537 1089.37 399.424 1089.59 396.023C1089.75 394.5 1089.75 394.5 1090.5 393C1090.73 389.51 1090.73 389.51 1089.75 386.25C1089.53 384.58 1089.33 382.908 1089.14 381.234C1088.54 376.825 1087.65 374.175 1085.25 370.5C1085 369.603 1084.76 368.706 1084.5 367.781C1083.69 365.047 1082.53 363.681 1080.75 361.5C1080.46 360.259 1080.2 359.009 1080 357.75Z" fill="#8D52CB"/>
<path d="M1063.59 214.266C1064.28 214.254 1064.96 214.241 1065.67 214.229C1070.25 214.226 1074.32 214.777 1078.5 216.75C1079.24 217.493 1079.24 217.493 1080 218.25C1079.72 220.969 1079.72 220.969 1079.25 223.5C1077.27 224.243 1075.29 224.985 1073.25 225.75C1073.25 226.245 1073.25 226.74 1073.25 227.25C1074.1 227.482 1074.95 227.714 1075.83 227.953C1078.5 228.75 1078.5 228.75 1079.25 229.5C1079.53 231.281 1079.53 231.281 1079.25 233.25C1077.38 234.609 1077.38 234.609 1075.5 235.5C1075.52 237.312 1075.52 237.312 1076.25 239.25C1078.43 240.556 1078.43 240.556 1080.75 241.5C1081.25 241.995 1081.74 242.49 1082.25 243C1082.11 244.875 1082.11 244.875 1081.5 246.75C1079.31 248.209 1078.03 248.59 1075.5 249C1075.54 250.409 1075.54 250.409 1076.25 252C1077.36 252.743 1077.36 252.743 1078.5 253.5C1080.75 255 1080.75 255 1081.55 256.547C1081.5 258 1081.5 258 1080.6 259.151C1078.95 260.494 1077.66 260.808 1075.59 261.281C1070.64 262.532 1065.99 264.362 1061.25 266.25C1060.2 266.634 1060.2 266.634 1059.12 267.026C1055.76 268.273 1053.24 269.461 1050.57 271.931C1047.44 274.463 1043.74 276.267 1040.25 278.25C1034.76 281.417 1029.53 285.702 1026 291C1025.26 291 1024.51 291 1023.75 291C1023.51 290.493 1023.26 289.987 1023.01 289.465C1022.52 288.461 1022.52 288.461 1022.02 287.438C1021.69 286.776 1021.37 286.115 1021.04 285.434C1020.07 283.635 1018.99 282.112 1017.75 280.5C1016.72 278.328 1016.16 276.34 1015.64 273.984C1014.88 270.787 1013.49 268.087 1011.97 265.184C1009.73 260.723 1008.07 255.991 1006.34 251.312C1005.4 248.818 1004.36 246.36 1003.33 243.899C1002.75 242.25 1002.75 242.25 1002.75 240C1003.2 239.764 1003.65 239.528 1004.12 239.285C1004.72 238.964 1005.32 238.643 1005.94 238.313C1006.53 237.999 1007.12 237.686 1007.73 237.363C1009.53 236.334 1009.53 236.334 1010.81 234.855C1013.26 232.525 1016.1 231.098 1019.06 229.5C1019.64 229.181 1020.22 228.862 1020.82 228.533C1024.02 226.781 1027.26 225.126 1030.54 223.529C1032.07 222.713 1033.44 221.773 1034.87 220.79C1038.4 218.535 1042.02 217.98 1046.11 217.359C1047.51 217.134 1048.9 216.905 1050.3 216.671C1051.21 216.53 1051.21 216.53 1052.14 216.386C1061 214.257 1061 214.257 1063.59 214.266Z" fill="#8D52CB"/>
<path d="M1145.3 155.297C1146.05 155.383 1146.8 155.469 1147.57 155.558C1149.7 155.991 1151.5 156.668 1153.5 157.5C1154.68 157.791 1155.87 158.059 1157.06 158.297C1160.17 158.919 1160.17 158.919 1161 159.75C1162.09 159.976 1163.18 160.174 1164.28 160.359C1174.67 162.376 1174.67 162.376 1178.11 165.474C1180.25 169.752 1178.87 174.702 1177.69 179.109C1177.55 179.633 1177.42 180.157 1177.28 180.697C1176.49 183.664 1175.57 186.515 1174.45 189.375C1172.94 193.275 1172.22 197.201 1171.59 201.324C1171.23 203.582 1170.85 205.335 1169.65 207.299C1167.99 210.11 1167.62 213.004 1167.05 216.187C1166.17 220.684 1165.26 224.759 1163.15 228.861C1162.43 230.392 1162.09 231.832 1161.75 233.484C1160.8 236.982 1159.52 238.271 1156.55 240.187C1154.64 240.88 1153.27 240.951 1151.25 240.75C1150.78 240.513 1150.31 240.276 1149.83 240.032C1148.24 239.243 1146.89 238.883 1145.16 238.547C1140.15 237.496 1135.31 235.962 1130.48 234.281C1128.34 233.543 1126.69 233.185 1124.39 232.922C1121.55 232.42 1120.65 231.848 1119 229.5C1117.38 223.566 1118.1 218.485 1120.41 212.953C1122.28 208.303 1124.05 203.836 1124.53 198.797C1124.77 196.499 1125.34 194.909 1126.45 192.891C1128.12 189.837 1128.64 186.885 1129.13 183.46C1129.52 181.405 1130.2 179.677 1131 177.75C1131.2 176.806 1131.4 175.863 1131.61 174.891C1132.35 171.495 1133.23 168.151 1134.19 164.812C1134.32 164.298 1134.46 163.784 1134.6 163.254C1136.2 157.872 1139.27 154.496 1145.3 155.297Z" fill="#8D52CB"/>
<path d="M1137 170.25C1138.39 170.593 1139.78 170.937 1141.17 171.281C1141.95 171.473 1142.72 171.664 1143.52 171.861C1148.66 173.185 1153.72 174.759 1158.78 176.358C1161.18 177.115 1163.59 177.844 1166.02 178.523C1168.16 179.152 1170.19 179.876 1172.25 180.75C1172.03 181.487 1172.03 181.487 1171.81 182.238C1170.52 186.769 1169.58 191.209 1168.97 195.882C1168.5 198 1168.5 198 1167.4 200.174C1166.11 202.79 1165.63 205.115 1165.12 207.984C1164 214.086 1162.45 219.516 1159.5 225C1155.44 224.242 1151.8 223.179 1147.97 221.625C1144.15 220.1 1140.57 219.149 1136.5 218.593C1134.68 218.237 1133.39 217.604 1131.75 216.75C1130.7 216.438 1129.63 216.156 1128.56 215.906C1127.17 215.581 1127.17 215.581 1125.75 215.25C1124.67 211.786 1125.49 209.228 1126.64 205.922C1126.99 204.86 1127.34 203.797 1127.69 202.734C1127.87 202.199 1128.05 201.663 1128.23 201.111C1129.31 197.755 1130.22 194.348 1131.15 190.948C1131.75 189 1131.75 189 1132.5 188.25C1132.62 187.174 1132.71 186.095 1132.78 185.016C1133.07 182.054 1133.72 180.867 1135.5 178.5C1135.81 176.754 1135.97 175.036 1136.09 173.268C1136.25 171.75 1136.25 171.75 1137 170.25Z" fill="#F0F4F3"/>
<path d="M954.75 163.5C955.121 164.243 955.121 164.243 955.5 165C955.252 165.495 955.005 165.99 954.75 166.5C954.265 172.397 954.944 177.468 957 183C956.629 183.371 956.629 183.371 956.25 183.75C956.15 185.421 956.077 187.093 956.016 188.766C955.739 192.974 955.398 195.53 952.5 198.75C951.959 199.493 951.417 200.235 950.859 201C947.725 204.58 944.403 207.362 939.606 208.137C934.6 208.299 930.288 207.884 926.25 204.75C924.833 203.325 923.715 201.87 922.5 200.25C921.959 199.74 921.417 199.229 920.859 198.703C919.248 196.981 918.585 195.789 918 193.5C918.188 191.109 918.188 191.109 918.75 188.25C918.826 187.667 918.903 187.084 918.981 186.483C919.857 180.661 922.241 176.465 926.432 172.348C930.791 169.507 938.029 169.673 943.078 170.719C947.395 172.385 951.564 174.39 954 178.5C953.629 177.386 953.629 177.386 953.25 176.25C953.16 174.502 953.118 172.751 953.109 171C953.099 170.072 953.088 169.144 953.077 168.188C953.25 165.75 953.25 165.75 954.75 163.5Z" fill="#E3E7E5"/>
<path d="M969.158 154.16C971.25 154.5 971.25 154.5 973.219 156.141C974.164 158.073 975.052 159.964 975.75 162C974.028 162.861 972.692 162.981 970.781 163.172C970.168 163.235 969.555 163.298 968.924 163.362C968.454 163.408 967.984 163.453 967.5 163.5C967.748 163.5 967.995 163.5 968.25 163.5C971.25 163.5 974.25 163.5 977.25 163.5C979.313 167.645 980.649 171.461 981.308 176.054C981.825 178.036 982.78 179.125 984 180.75C984.514 182.98 984.298 184.402 984 186.75C980.621 190.02 974.721 190.538 970.172 190.828C965.641 190.733 961.501 188.559 958.011 185.754C954.245 181.083 953.539 174.252 953.757 168.469C954.075 165.897 954.815 164.153 956.25 162C956.73 161.227 957.209 160.453 957.703 159.656C961.201 154.78 963.181 153.957 969.158 154.16Z" fill="#EAEDEC"/>
<path d="M972.562 152.672C977.567 152.751 982.615 155.591 986.273 158.862C987.382 160.12 988.352 161.336 989.25 162.75C989.539 163.164 989.828 163.578 990.126 164.004C991.104 166.741 990.739 169.354 990.516 172.219C990.479 172.801 990.443 173.383 990.406 173.982C990.111 178.278 990.111 178.278 989.25 180C988.755 180 988.26 180 987.75 180C987.549 180.572 987.348 181.145 987.141 181.734C986.279 183.684 985.524 184.577 984 186C983.909 185.53 983.818 185.06 983.725 184.576C983.599 183.963 983.473 183.35 983.344 182.719C983.222 182.11 983.1 181.501 982.975 180.873C982.6 179.11 982.6 179.11 981 177.75C980.604 176.174 980.604 176.174 980.297 174.281C979.65 170.722 978.613 167.596 977.25 164.25C976.626 164.25 976.003 164.25 975.36 164.25C972.24 164.25 969.12 164.25 966 164.25C967.798 162.452 968.5 162.493 970.969 162.281C971.888 162.197 971.888 162.197 972.826 162.111C973.296 162.075 973.766 162.038 974.25 162C974.25 158.794 973.407 157.612 971.25 155.25C968.749 154.638 966.319 154.51 963.75 154.5C963.75 154.252 963.75 154.005 963.75 153.75C966.682 153.331 969.62 153.015 972.562 152.672Z" fill="#D3C4DB"/>
<path d="M1018.5 408C1019.75 408.246 1021 408.497 1022.25 408.75C1023.52 409.007 1023.52 409.007 1024.82 409.269C1033.62 411.241 1041.73 414.411 1049.07 419.757C1051.39 421.582 1051.39 421.582 1053.98 422.438C1057.4 423.76 1059.77 426.367 1062.35 428.883C1064.37 430.601 1066.35 431.662 1068.75 432.75C1068.75 433.245 1068.75 433.74 1068.75 434.25C1063.57 432.324 1060.16 429.699 1056.46 425.596C1055.08 424.343 1053.84 423.785 1052.11 423.094C1049.78 422.106 1047.67 421.047 1045.55 419.672C1039.66 415.919 1034.09 413.553 1027.28 412.074C1024.07 411.36 1021.38 410.332 1018.5 408.75C1018.5 408.502 1018.5 408.255 1018.5 408Z" fill="#CAEBF7"/>
<path d="M1139.58 223.359C1142.25 223.5 1142.25 223.5 1143.75 225C1144 227.353 1144.15 228.874 1142.86 230.906C1141.01 232.055 1139.89 232.071 1137.75 231.75C1136.34 230.953 1136.34 230.953 1135.5 229.5C1135.91 223.559 1135.91 223.559 1139.58 223.359Z" fill="#DECFF1"/>
<path d="M954.75 163.5C954.998 163.995 955.245 164.49 955.5 165C955.253 165.495 955.005 165.99 954.75 166.5C954.265 172.397 954.944 177.468 957 183C956.753 183.247 956.505 183.495 956.25 183.75C956.036 186.443 955.913 189.135 955.784 191.833C955.5 194.25 955.5 194.25 954 195.75C954.013 194.34 954.013 194.34 954.026 192.902C954.033 191.664 954.04 190.426 954.047 189.188C954.053 188.569 954.059 187.95 954.066 187.312C954.07 186.413 954.07 186.413 954.073 185.496C954.077 184.946 954.081 184.396 954.085 183.83C954.05 182.221 954.05 182.221 953.574 180.594C953.467 180.15 953.36 179.707 953.25 179.25C953.498 179.002 953.745 178.755 954 178.5C953.752 177.757 953.505 177.015 953.25 176.25C953.16 174.502 953.118 172.751 953.109 171C953.099 170.072 953.088 169.144 953.077 168.188C953.25 165.75 953.25 165.75 954.75 163.5Z" fill="#6D837C"/>
<path d="M963.75 154.5C962.786 156.65 961.822 158.232 960 159.75C959.505 159.75 959.01 159.75 958.5 159.75C958.252 160.245 958.005 160.74 957.75 161.25C958.096 158.139 960.387 154.5 963.75 154.5Z" fill="#98A8A2"/>
<path d="M918.678 189.158C918.314 189.575 917.95 189.992 917.575 190.422C917.023 190.381 916.472 190.34 915.903 190.297C910.264 192.088 905.832 194.642 901.497 198.645C901.174 198.51 900.851 198.375 900.518 198.236C897.947 199.06 895.41 199.969 892.866 200.874C890.522 201.529 890.522 201.529 888.565 200.711C889.874 200.187 889.874 200.187 891.209 199.654C892.357 199.19 893.505 198.726 894.653 198.262C895.227 198.033 895.802 197.804 896.394 197.568C897.227 197.23 897.227 197.23 898.077 196.885C898.587 196.679 899.097 196.474 899.622 196.263C901.098 195.62 901.098 195.62 902.421 194.561C902.791 194.294 903.16 194.026 903.541 193.751C903.864 193.886 904.187 194.021 904.52 194.16C905.112 193.649 905.705 193.138 906.316 192.612C907.898 191.864 909.502 191.161 911.118 190.488C911.972 190.126 912.827 189.764 913.707 189.39C916.027 188.625 916.027 188.625 918.678 189.158Z" fill="#6D837C"/>
<path d="M931.881 225.331C934.766 228.216 937.65 231.101 940.535 233.985C942.444 234.52 942.444 234.52 944.567 234.871C945.283 235.002 945.999 235.134 946.736 235.27C947.286 235.365 947.836 235.461 948.402 235.559C948.402 235.819 948.402 236.078 948.402 236.346C944.883 236.8 941.814 237.121 938.694 235.23C936.102 232.966 933.771 230.581 931.881 227.691C931.881 226.912 931.881 226.134 931.881 225.331Z" fill="#284A40"/>
<path d="M934.326 179.442C938.235 179.69 940.976 181.247 944.11 183.478C945.099 185.527 945.099 185.527 945.427 187.185C944.938 187.359 944.449 187.533 943.945 187.712C943.265 186.817 943.265 186.817 942.572 185.904C940.648 183.428 940.648 183.428 938.345 181.353C935.376 181.125 932.592 182.296 929.928 183.511C928.003 185.784 928.003 185.784 926.534 188.057C926.045 188.231 925.556 188.405 925.052 188.584C925.503 190.628 925.953 192.672 926.418 194.778C925.929 194.952 925.439 195.126 924.935 195.305C923.099 190.139 923.099 190.139 924.404 187.285C927.275 182.998 929.227 180.874 934.326 179.442Z" fill="#34534B"/>
<path d="M971.046 166.537C974.955 166.785 977.695 168.342 980.83 170.573C981.819 172.622 981.819 172.622 982.147 174.28C981.658 174.454 981.169 174.628 980.665 174.807C979.985 173.912 979.985 173.912 979.291 172.999C977.368 170.523 977.368 170.523 975.065 168.448C972.096 168.22 969.312 169.392 966.648 170.606C964.723 172.879 964.723 172.879 963.254 175.152C962.765 175.326 962.275 175.5 961.771 175.679C962.222 177.723 962.673 179.768 963.138 181.874C962.648 182.047 962.159 182.221 961.655 182.401C959.819 177.234 959.819 177.234 961.124 174.38C963.994 170.093 965.947 167.97 971.046 166.537Z" fill="#34534B"/>
<path d="M941.568 136.937C941.225 141.047 941.225 141.047 939.55 142.991C939.415 143.396 939.279 143.802 939.14 144.22C938.275 146.087 937.236 146.931 935.514 148.036C933.675 148.036 932.536 147.877 930.974 146.901C930.469 146.018 930.469 146.018 930.533 144.82C931.412 142.182 932.527 140.736 934.947 139.364C935.585 138.995 935.585 138.995 936.235 138.618C938.06 137.672 939.494 136.937 941.568 136.937Z" fill="#EFF1F0"/>
<path d="M930.848 115.18C931.2 115.184 931.552 115.189 931.914 115.194C932.778 115.205 933.642 115.224 934.505 115.243C934.505 115.409 934.505 115.576 934.505 115.747C933.909 115.732 933.909 115.732 933.301 115.716C927.977 115.817 924.204 117.692 920.299 121.293C918.191 123.601 916.507 126.234 914.831 128.865C914.498 129.364 914.165 129.864 913.822 130.378C912.44 134.372 911.807 139.459 913.396 143.444C914.077 144.652 914.077 144.652 914.833 145.697C915.082 146.106 915.082 146.106 915.336 146.523C915.169 146.856 915.003 147.189 914.831 147.532C914.333 146.904 913.84 146.273 913.349 145.64C913.074 145.288 912.799 144.937 912.516 144.575C910.512 141.533 911.046 137.406 911.3 133.91C912.156 130.287 914.176 127.297 916.344 124.324C916.741 123.746 916.741 123.746 917.146 123.155C919.301 120.16 921.771 118.157 924.92 116.252C925.223 116.055 925.525 115.858 925.837 115.655C927.485 115.039 929.115 115.137 930.848 115.18Z" fill="#1F403A"/>
<path d="M940.902 119.433C943.074 121.956 944.034 124.853 944.128 128.171C943.961 130.161 943.528 131.644 942.577 133.405C942.594 132.99 942.612 132.575 942.63 132.148C942.849 125.905 942.849 125.905 939.952 120.629C939.142 119.919 938.313 119.231 937.463 118.569C937.153 118.304 936.843 118.039 936.523 117.765C936.523 117.432 936.523 117.099 936.523 116.756C933.693 116.59 930.863 116.423 927.947 116.252C927.947 116.085 927.947 115.919 927.947 115.747C928.987 115.635 930.028 115.531 931.069 115.432C931.648 115.373 932.227 115.315 932.824 115.255C936.339 115.23 938.42 117.128 940.902 119.433Z" fill="#36514F"/>
<path d="M941.063 137.946C942.072 139.459 942.072 139.459 941.978 140.658C941.523 142.126 940.891 143.217 940.054 144.504C939.727 145.144 939.727 145.144 939.392 145.797C937.991 147.821 936.422 148.875 934.001 149.329C931.769 148.91 930.964 148.246 929.46 146.522C929.49 144.763 929.684 143.553 930.469 141.982C930.802 141.982 931.135 141.982 931.478 141.982C931.312 143.314 931.145 144.646 930.974 146.018C931.77 146.88 931.77 146.88 932.992 147.532C934.91 147.497 936.092 147.338 937.658 146.207C939.484 143.728 940.285 140.881 941.063 137.946Z" fill="#3A5950"/>
<path d="M943.081 131.387C943.248 131.387 943.414 131.387 943.586 131.387C943.586 132.886 943.586 134.384 943.586 135.928C945.417 135.928 947.248 135.928 949.135 135.928C949.135 136.094 949.135 136.261 949.135 136.432C946.138 136.682 946.138 136.682 943.081 136.937C942.748 137.769 942.415 138.602 942.072 139.459C941.906 139.459 941.739 139.459 941.568 139.459C941.568 138.627 941.568 137.794 941.568 136.937C938.057 138.292 934.938 139.631 931.983 141.982C931.65 141.815 931.317 141.649 930.974 141.477C932.164 140.175 933.434 139.318 934.947 138.419C935.585 138.035 935.585 138.035 936.236 137.644C938.414 136.456 940.077 135.785 942.577 135.928C942.743 134.429 942.91 132.931 943.081 131.387Z" fill="#2A4A44"/>
<path d="M912.309 131.387C912.845 132.333 912.845 132.333 913.318 133.405C913.151 133.738 912.985 134.071 912.813 134.414C912.45 138.618 912.328 142.132 914.833 145.697C914.999 145.969 915.165 146.242 915.336 146.523C915.169 146.856 915.003 147.188 914.831 147.532C914.333 146.904 913.84 146.273 913.349 145.64C913.074 145.288 912.799 144.937 912.516 144.575C911.081 142.397 911.218 140.294 911.205 137.725C911.195 136.743 911.195 136.743 911.184 135.741C911.292 134.034 911.566 132.91 912.309 131.387Z" fill="#304E4A"/>
<path d="M941.063 137.946C942.072 139.459 942.072 139.459 941.978 140.658C941.523 142.126 940.891 143.217 940.054 144.504C939.825 144.941 939.597 145.379 939.361 145.829C938.416 147.21 937.494 147.783 936.019 148.541C935.852 148.208 935.686 147.875 935.514 147.532C936.216 147.016 936.216 147.016 936.933 146.491C939.552 144.303 940.22 141.125 941.063 137.946Z" fill="#304F47"/>
<path d="M940.055 118.774C939.722 119.107 939.389 119.44 939.046 119.783C938.184 119.137 937.344 118.463 936.523 117.765C936.523 117.432 936.523 117.099 936.523 116.756C933.693 116.59 930.863 116.423 927.947 116.252C927.947 116.085 927.947 115.919 927.947 115.747C928.987 115.635 930.028 115.531 931.069 115.432C931.648 115.373 932.227 115.315 932.824 115.255C936.058 115.232 937.744 116.732 940.055 118.774Z" fill="#465E5F"/>
<path d="M949.135 135.928C951.95 137 953.858 138.779 955.188 141.477C955.017 142.614 955.017 142.614 954.684 143.495C954.393 143.048 954.101 142.601 953.801 142.14C952.311 139.914 950.871 137.953 948.63 136.432C948.797 136.266 948.963 136.099 949.135 135.928Z" fill="#294843"/>
<path d="M916.849 123.819C917.182 123.986 917.515 124.152 917.858 124.324C917.657 124.611 917.456 124.897 917.249 125.193C915.645 127.531 914.332 129.747 913.318 132.396C913.151 132.396 912.985 132.396 912.813 132.396C912.642 130.556 912.618 129.648 913.696 128.108C914.071 127.691 914.445 127.275 914.831 126.846C915.53 125.853 916.186 124.837 916.849 123.819Z" fill="#1F403A"/>
<path d="M920.885 118.774C921.218 118.774 921.551 118.774 921.894 118.774C921.053 120.763 919.761 122.2 918.363 123.82C917.863 123.653 917.364 123.487 916.849 123.315C917.497 122.555 918.15 121.799 918.804 121.045C919.348 120.413 919.348 120.413 919.904 119.768C920.227 119.44 920.551 119.112 920.885 118.774Z" fill="#314E4B"/>
</g>
<defs>
<clipPath id="clip0_1482_966">
<rect width="1440" height="810" fill="white"/>
</clipPath>
</defs>
</svg>
