<svg width="1282" height="722" viewBox="0 0 1282 722" fill="none" xmlns="http://www.w3.org/2000/svg">
<g clip-path="url(#clip0_1572_20844)">
<path d="M0 0C475.2 0 950.4 0 1440 0C1440 267.3 1440 534.6 1440 810C964.8 810 489.6 810 0 810C0 542.7 0 275.4 0 0Z" fill="#BEE8F8"/>
<path d="M528.598 85.3887C534.622 85.8175 540.232 86.9308 546.066 88.4364C547.54 88.8104 549.018 89.1603 550.5 89.5045C551.454 89.7304 552.409 89.9564 553.364 90.1826C554.214 90.3832 555.064 90.5837 555.94 90.7903C558.204 91.4763 558.204 91.4763 559.905 92.5274C561.956 93.7195 563.524 93.7995 565.883 93.9802C570.38 94.4248 574.369 95.6707 578.611 97.1935C583.595 98.9768 587.856 100.012 593.181 100.044C594.928 100.157 594.928 100.157 596.931 101.492C597.945 101.802 598.973 102.069 600.007 102.306C600.609 102.446 601.211 102.586 601.831 102.731C602.459 102.873 603.087 103.015 603.734 103.161C604.968 103.446 606.201 103.731 607.435 104.017C608.031 104.154 608.627 104.291 609.241 104.433C616.038 106.012 616.038 106.012 619.133 107.126C622.233 108.195 625.385 108.943 628.58 109.674C630.317 110.172 630.317 110.172 632.32 111.508C632.547 113.206 632.636 114.691 632.612 116.39C632.609 116.872 632.606 117.354 632.603 117.851C632.498 121.696 631.611 124.92 630.322 128.545C629.51 131.352 629.235 134.061 628.981 136.964C628.611 141.147 627.864 144.6 626.23 148.5C625.34 151.13 625.253 153.733 625.158 156.492C624.969 158.309 624.46 159.314 623.64 160.918C623.458 162.438 623.458 162.438 623.431 164.09C623.154 167.993 622.068 171.396 620.838 175.079C619.739 178.426 619.257 181.464 618.966 184.955C618.74 185.372 618.515 185.789 618.282 186.218C617.228 188.496 617.641 190.737 617.779 193.197C617.63 194.971 617.63 194.971 616.65 196.262C615.235 198.172 615.335 199.673 615.252 202.024C615.099 206.114 615.099 206.114 613.624 208.325C613.512 209.532 613.447 210.744 613.416 211.956C613.144 215.433 613.144 215.433 611.538 217.465C609.096 218.579 607.597 218.775 604.944 218.341C602.976 216.586 602.35 215.299 601.689 212.749C600.857 210.069 599.798 208.843 597.946 206.82C595.44 203.941 594.002 200.581 592.863 196.969C592.27 195.52 592.27 195.52 590.985 194.056C589.524 192.222 588.585 190.45 587.584 188.336C586.501 186.097 585.45 183.969 583.995 181.951C582.91 180.282 582.91 180.282 582.91 177.611C578.87 179.505 575.028 181.419 571.433 184.079C569.427 185.549 567.832 186.519 565.424 187.126C561.757 188.159 559.087 190.512 556.114 192.796C552.591 195.458 549.045 197.307 545.043 199.186C542.17 200.66 539.708 202.51 537.148 204.465C535.333 205.777 533.522 206.737 531.462 207.603C529.876 208.483 528.611 209.649 527.237 210.823C525.527 212.151 523.645 213.003 521.689 213.917C516.29 216.516 511.359 219.637 506.499 223.14C502.59 225.922 498.45 228.318 494.309 230.734C491.655 232.298 489.121 233.886 486.687 235.777C484.164 237.721 481.541 239.112 478.664 240.459C474.758 242.311 471.145 244.247 467.813 247.052C466 248.434 464.236 249.326 462.161 250.242C460.537 251.162 459.23 252.328 457.816 253.538C455.958 254.985 453.889 255.978 451.788 257.026C448.521 258.711 445.541 260.442 442.66 262.741C438.725 265.771 434.445 268.279 429.968 270.409C428.505 271.176 427.189 272.068 425.831 273.009C423.508 274.606 421.152 275.878 418.612 277.099C415.699 278.515 413.214 280.044 410.688 282.057C408.465 283.748 406.081 285.176 403.706 286.64C401.93 287.76 401.93 287.76 400.289 289.139C398.625 290.451 396.995 291.401 395.117 292.373C392.726 293.643 390.458 294.966 388.231 296.504C386.131 297.951 384.021 299.119 381.721 300.219C379.306 301.38 377.786 302.547 375.92 304.475C373.84 305.718 371.678 306.766 369.386 307.558C365.967 308.747 363.187 310.332 360.229 312.404C359.356 313.002 358.482 313.599 357.608 314.196C357.196 314.479 356.784 314.762 356.359 315.054C354.96 316.004 353.533 316.903 352.091 317.788C349.945 319.055 349.945 319.055 348.419 320.375C346.775 321.452 345.811 321.385 343.87 321.168C339.581 318.086 337.418 313.18 335.242 308.54C333.782 305.485 332.163 302.955 330.057 300.302C327.524 297.109 326.025 294.046 324.582 290.253C323.352 287.269 321.657 284.824 319.251 282.644C317.349 280.585 316.146 278.306 314.825 275.847C313.424 273.27 312.042 270.748 310.391 268.32C309.159 266.431 308.412 264.69 307.647 262.577C306.185 258.925 304.283 256.282 301.747 253.304C300.201 251.395 299.078 249.412 297.942 247.243C297.05 245.566 296.077 243.956 295.086 242.337C293.891 240.367 292.782 238.405 291.789 236.327C290.85 234.392 289.785 232.639 288.575 230.86C284.95 225.527 281.88 219.96 279.061 214.168C277.412 210.791 275.722 207.734 273.341 204.804C272.023 203.144 270.952 201.355 269.848 199.549C269.201 198.495 268.521 197.461 267.835 196.432C267.367 195.729 266.898 195.027 266.416 194.303C265.901 193.535 265.901 193.535 265.375 192.751C262.577 188.483 260.284 184.14 258.122 179.528C257.178 177.461 257.178 177.461 255.065 176.275C252.169 175.893 250.875 175.91 248.513 177.694C248.186 178.001 247.859 178.309 247.522 178.625C245.72 180.192 243.669 181.298 241.614 182.501C239.46 183.766 237.328 185.065 235.201 186.374C234.502 186.803 233.803 187.232 233.083 187.673C231.671 188.558 230.277 189.471 228.899 190.407C227.021 191.633 227.021 191.633 224.851 192.467C221.908 193.647 219.645 195.674 217.227 197.684C214.765 199.729 212.66 201.136 209.692 202.36C205.68 204.19 202.035 206.618 198.602 209.369C195.14 212.135 191.52 214.25 187.402 215.889C184.744 217.013 182.57 218.607 180.282 220.344C177.259 222.638 174.446 224.183 170.934 225.686C169.264 226.737 167.685 227.903 166.093 229.066C162.103 231.908 158.028 234.288 153.657 236.494C149.462 238.611 145.875 240.828 142.313 243.93C140.412 245.422 138.411 246.218 136.179 247.102C134.692 247.719 134.692 247.719 133.208 249.389C131.624 250.974 130.872 251.431 128.876 252.23C125.163 253.824 121.811 255.884 118.393 258.028C117.785 258.402 117.177 258.776 116.551 259.161C113.993 260.753 111.517 262.323 109.233 264.293C107.711 265.572 106.82 266.184 104.956 266.708C101.629 267.844 99.0022 269.736 96.1503 271.758C81.6999 281.905 81.6999 281.905 74.1159 285.112C70.6146 287.001 67.3258 289.172 64.1003 291.497C61.4265 293.406 58.7167 294.846 55.7565 296.254C53.3542 297.513 51.2247 299.091 49.0299 300.678C47.086 302.028 45.0694 303.14 42.984 304.254C40.4369 305.682 38.0161 307.304 35.5792 308.912C34.0534 309.817 34.0534 309.817 32.718 309.817C32.5527 310.216 32.3875 310.616 32.2172 311.027C30.7812 313.54 29.1873 314.332 26.4582 315.242C23.5721 316.258 21.1262 317.805 18.5709 319.457C17.9759 319.841 17.9759 319.841 17.3689 320.233C15.6864 321.34 14.0816 322.451 12.5633 323.776C10.2254 325.515 7.81083 326.563 5.1333 327.678C4.63881 327.889 4.14433 328.1 3.63487 328.317C2.42532 328.832 1.21307 329.341 0.000289619 329.848C-0.170089 321.583 -0.300501 313.319 -0.380268 305.052C-0.418559 301.213 -0.470458 297.376 -0.553797 293.538C-0.633763 289.832 -0.677544 286.127 -0.696557 282.42C-0.710101 281.008 -0.736555 279.596 -0.776272 278.184C-1.0746 267.139 -1.07458 267.139 1.56694 263.721C3.45183 262.315 5.18963 261.333 7.34508 260.407C7.94085 260.109 8.53661 259.811 9.15043 259.504C10.2076 258.975 11.2722 258.461 12.3425 257.96C14.2272 256.959 15.8317 255.775 17.5276 254.481C20.2711 252.406 23.0626 250.807 26.1661 249.348C29.5923 247.709 32.2442 245.985 34.9924 243.383C36.9978 241.49 38.7966 240.507 41.4817 239.916C44.6329 239.105 46.9267 237.029 49.4759 235.088C51.3336 233.756 53.1811 232.698 55.2114 231.653C57.5514 230.432 59.4273 229.207 61.346 227.397C64.1535 224.774 67.3433 223.184 70.7409 221.434C72.4094 220.542 73.8954 219.632 75.4096 218.508C77.3735 217.065 79.2783 216.071 81.4607 215.002C82.781 214.171 84.0864 213.321 85.3835 212.454C86.8024 211.664 86.8024 211.664 88.7116 211.072C91.145 210.209 92.8928 209.003 94.9818 207.491C98.1558 205.226 101.37 203.13 104.739 201.16C105.937 200.449 107.1 199.678 108.252 198.894C109.729 197.931 111.053 197.208 112.634 196.473C114.888 195.382 116.779 194.068 118.769 192.551C121.998 190.128 125.356 188.199 128.91 186.291C133.538 183.797 137.558 181.043 141.554 177.611C143.698 176.014 145.081 175.043 147.689 174.481C150.171 173.871 151.626 172.519 153.531 170.85C157.66 167.308 162.168 165.132 167.063 162.824C171.844 160.558 171.844 160.558 175.9 157.246C177.937 155.258 179.995 154.323 182.545 153.112C185.906 151.426 188.921 149.219 191.969 147.032C194.91 144.931 197.742 143.027 201.056 141.567C202.759 140.647 204.15 139.432 205.654 138.216C211.017 134.449 216.267 131.545 222.352 129.092C224.83 127.986 226.357 126.671 228.357 124.862C229.685 124.151 231.04 123.52 232.405 122.882C233.9 122.143 233.9 122.143 235.701 120.48C237.453 119.057 238.335 118.535 240.375 117.851C242.646 117.085 244.098 116.053 245.889 114.431C247.891 112.847 250.179 111.77 252.428 110.576C257.146 108.008 261.327 105.35 265.08 101.492C267.21 99.937 269.218 98.9176 271.841 98.4455C274.574 98.9802 275.426 99.9443 277.099 102.16C277.408 103.054 277.683 103.96 277.934 104.872C279.005 108.549 281.21 111.118 283.544 114.1C286.56 118.104 289.115 122.423 290.996 127.073C292.628 130.959 295.13 134.317 297.493 137.783C299.166 140.242 300.684 142.775 302.183 145.344C303.229 147.041 304.382 148.627 305.56 150.235C307.109 152.397 308.211 154.369 309.107 156.87C310.349 160.265 312.247 162.852 314.426 165.715C316.631 168.675 318.545 171.811 320.5 174.94C320.941 175.601 321.382 176.262 321.836 176.943C322.165 177.909 322.469 178.884 322.754 179.864C323.607 182.521 324.721 184.134 326.51 186.291C327.085 187.408 327.64 188.536 328.179 189.671C329.077 191.536 329.716 192.835 331.184 194.303C333.035 196.155 333.89 198.317 334.96 200.688C335.939 202.464 337.08 203.58 338.528 204.987C341.026 208.563 342.94 212.46 344.83 216.379C346.464 219.753 348.328 222.623 350.711 225.514C354.586 230.501 357.225 236.268 359.72 242.031C360.394 243.796 360.394 243.796 361.898 244.382C365.604 244.706 367.485 244.152 370.495 242.003C371.185 241.517 371.875 241.032 372.587 240.532C374.342 239.221 376.054 237.873 377.756 236.494C379.979 234.716 381.935 233.765 384.624 232.897C386.661 232.067 388.236 230.737 389.95 229.379C391.203 228.414 392.469 227.587 393.823 226.771C396.03 225.433 398.066 223.945 400.124 222.389C403.295 220.044 406.535 218.352 410.088 216.666C411.898 215.712 413.33 214.681 414.898 213.375C417.649 211.102 420.578 209.649 423.793 208.123C427.138 206.502 429.994 204.504 432.947 202.264C436.354 199.739 439.961 197.481 443.901 195.889C446.018 195.088 446.018 195.088 447.506 193.787C449.761 191.986 452.135 190.482 454.584 188.962C455.034 188.678 455.484 188.394 455.947 188.101C458.606 186.442 461.297 184.971 464.113 183.597C466.11 182.592 467.993 181.449 469.9 180.282C470.626 179.841 471.353 179.4 472.101 178.946C474.067 177.712 474.067 177.712 475.437 176.205C477.011 174.682 478.408 174.146 480.458 173.396C485.418 171.425 490.138 168.984 493.854 165.091C495.511 163.522 496.312 163.234 498.445 162.629C501.603 161.717 502.747 160.157 504.788 157.579C505.88 157.065 506.977 156.555 508.111 156.14C510.404 155.183 512.453 153.813 514.563 152.512C516.139 151.57 516.139 151.57 518.351 150.527C520.229 149.641 520.229 149.641 521.645 148.002C523.597 146.119 525.623 144.867 527.991 143.599C530.715 142.097 533.365 140.583 535.92 138.8C538.872 136.767 542.02 135.227 545.247 133.675C546.783 133.016 546.783 133.016 547.521 132.207C547.521 126.748 544.023 122.718 540.925 118.466C538.525 115.169 536.839 112.124 535.432 108.297C534.426 105.831 532.874 104.124 530.904 102.379C529.125 100.419 528.053 98.2754 526.947 95.8999C526.623 95.2517 526.623 95.2517 526.291 94.5905C524.944 91.7288 524.541 89.8419 525.487 86.8023C526.822 85.4669 526.822 85.4669 528.598 85.3887Z" fill="#95D4E9"/>
<path d="M834.635 121.523C835.296 122.515 835.296 122.515 835.971 123.526C838.364 123.693 838.364 123.693 840.645 123.526C840.865 122.865 841.085 122.204 841.312 121.523C844.365 121.889 847.104 122.469 849.993 123.526C849.993 124.187 849.993 124.848 849.993 125.529C850.654 125.089 851.315 124.648 851.996 124.194C862.39 129.797 862.39 129.797 863.931 134.752C863.959 135.234 863.986 135.716 864.015 136.213C863.794 136.433 863.574 136.653 863.347 136.88C863.856 137.225 864.366 137.569 864.891 137.924C867.097 139.924 867.678 141.459 868.689 144.225C867.155 144.992 865.966 145.098 864.265 145.268C863.719 145.324 863.174 145.38 862.611 145.438C862.193 145.478 861.775 145.519 861.344 145.56C861.564 145.56 861.784 145.56 862.011 145.56C864.682 145.56 867.353 145.56 870.024 145.56C871.86 149.251 873.05 152.648 873.636 156.737C873.946 158.316 873.946 158.316 875.063 159.621C876.506 161.549 876.168 163.259 876.033 165.592C876.474 165.592 876.915 165.592 877.369 165.592C879.296 169.873 881.001 173.901 881.607 178.581C882.01 180.153 882.515 181.256 883.269 182.678C885.01 186.039 886.032 189.554 887.092 193.176C887.286 193.823 887.48 194.47 887.68 195.137C891.178 206.864 891.178 206.864 892.017 211.789C892.526 214.484 893.418 216.572 894.727 218.967C895.478 220.511 895.937 222.028 896.398 223.682C897.131 226.273 898.07 228.513 899.33 230.884C900.588 233.394 901.596 236.01 902.643 238.615C903.392 240.477 903.392 240.477 904.745 242.378C905.07 243.699 905.394 245.021 905.705 246.345C906.389 248.85 907.501 251.004 909.127 253.02C910.436 254.899 910.829 256.874 911.422 259.071C913.957 258.714 916.487 258.331 919.017 257.944C919.725 257.845 920.434 257.745 921.164 257.643C926.705 256.776 931.056 254.979 935.793 252.018C937.415 251.086 938.97 250.465 940.718 249.806C943.381 248.777 945.457 247.562 947.705 245.824C948.873 245.007 949.996 244.491 951.317 243.964C953.468 243.244 953.468 243.244 954.489 241.877C955.491 241.043 955.491 241.043 957.953 241.251C959.048 241.479 959.048 241.479 960.165 241.71C960.785 244.603 960.785 246.83 960.165 249.723C960.867 249.379 961.569 249.034 962.293 248.68C964.501 247.732 965.857 247.526 968.177 248.388C968.618 248.828 969.058 249.269 969.513 249.723C969.304 251.601 969.304 251.601 968.845 253.729C968.721 254.363 968.597 254.996 968.469 255.649C968.373 256.117 968.276 256.585 968.177 257.068C970.699 257.267 970.699 257.267 972.183 256.4C973.518 256.373 974.854 256.371 976.19 256.4C976.649 257.902 976.649 257.902 976.857 259.739C975.897 261.199 975.897 261.199 974.854 262.409C974.854 262.85 974.854 263.291 974.854 263.745C975.309 263.648 975.763 263.552 976.231 263.453C978.449 263.028 980.617 262.622 982.867 262.409C984.202 263.745 984.202 263.745 984.351 264.979C984.008 269.725 981.963 272.29 978.86 275.764C978.477 276.226 978.094 276.688 977.7 277.164C974.018 281.557 969.489 286.456 964.087 288.617C961.228 289.773 958.888 291.572 956.393 293.359C953 295.737 950.246 296.674 946.143 297.13C945.249 297.337 944.356 297.551 943.472 297.798C943.913 298.9 944.353 300.001 944.807 301.137C944.308 301.266 943.809 301.395 943.295 301.528C942.637 301.702 941.979 301.876 941.302 302.055C940.326 302.31 940.326 302.31 939.33 302.571C937.509 303.066 937.509 303.066 936.101 303.831C934.536 304.601 933.084 304.88 931.37 305.185C928.997 305.599 928.997 305.599 926.779 306.478C920.204 307.748 913.61 308.123 906.933 308.31C905.37 308.356 903.808 308.42 902.245 308.485C896.073 308.697 890.696 308.199 884.714 306.478C883.775 306.261 882.836 306.047 881.897 305.837C878.848 304.999 875.961 303.897 873.029 302.722C872.205 302.397 872.205 302.397 871.365 302.065C870.026 301.536 868.69 301.003 867.353 300.469C868.745 301.097 870.138 301.719 871.537 302.331C872.748 302.867 873.951 303.42 875.147 303.99C883.76 307.916 892.691 308.865 902.074 308.481C903.419 308.437 904.764 308.392 906.109 308.348C918.775 308.365 918.775 308.365 930.785 305.143C932.23 304.764 933.679 304.464 935.144 304.17C937.628 303.624 940.051 302.871 942.483 302.13C944.816 301.671 946.077 302.042 948.104 303.231C954.17 307.792 960.369 314.006 963.018 321.243C963.532 322.714 963.532 322.714 964.922 324.632C966.236 326.603 966.814 328.257 967.509 330.516C967.967 331.574 968.426 332.631 968.887 333.687C970.098 336.649 970.554 339.329 970.731 342.514C970.768 343.915 970.768 343.915 971.516 345.205C971.671 349.568 971.671 349.568 970.848 351.215C970.667 352.479 970.503 353.745 970.347 355.012C969.084 363.357 966.442 370.411 961.5 377.255C961.139 377.78 960.777 378.305 960.405 378.846C958.681 381.275 957.528 382.639 954.823 383.932C954.355 384.811 953.911 385.703 953.488 386.603C951.638 388.835 950.366 389.621 947.478 389.942C948.316 392.457 949.406 393.009 951.484 394.616C958.245 401.001 964.387 408.19 969.118 416.193C970.147 417.93 971.197 419.652 972.254 421.371C972.94 422.496 973.626 423.621 974.312 424.746C974.659 425.308 975.006 425.87 975.364 426.449C977.141 429.376 978.653 432.193 979.756 435.438C980.242 436.878 980.242 436.878 981.273 438.958C982.399 441.873 982.72 444.564 982.992 447.657C983.074 448.485 983.074 448.485 983.157 449.33C983.29 450.677 983.413 452.026 983.534 453.374C984.122 453.472 984.71 453.57 985.316 453.671C992.447 455.049 992.447 455.049 994.468 457.255C995.553 459.383 995.553 459.383 995.637 461.47C994.474 464.44 992.404 465.663 989.562 466.981C988.881 467.242 988.2 467.503 987.499 467.771C984.732 468.812 984.732 468.812 982.276 470.402C980.721 471.503 979.599 471.837 977.741 472.211C976.836 472.401 976.836 472.401 975.912 472.596C975.274 472.725 974.636 472.855 973.978 472.988C964.147 475.071 964.147 475.071 954.823 478.747C953.349 478.794 951.874 478.803 950.399 478.789C949.606 478.783 948.812 478.777 947.995 478.77C947.383 478.763 946.772 478.755 946.143 478.747C944.384 476.137 943.344 474.227 943.138 471.068C942.142 456.684 935.038 440.392 924.651 430.38C920.511 426.885 915.882 424.15 911.232 421.398C910.086 420.656 910.086 420.656 908.308 419.086C906.838 417.804 906.838 417.804 905.081 418.095C904.53 418.279 903.978 418.463 903.409 418.653C902.571 418.868 902.571 418.868 901.717 419.086C901.16 419.246 900.603 419.406 900.029 419.571C899.191 419.806 899.191 419.806 898.336 420.046C896.692 420.582 896.692 420.582 895.381 421.702C893.83 422.828 892.908 422.936 891.015 423.035C888.689 423.164 888.091 423.301 886.049 424.663C877.451 426.58 868.608 426.731 859.841 426.791C858.726 426.804 858.726 426.804 857.589 426.817C852.537 426.823 848.103 426.258 843.316 424.663C842.134 424.594 840.951 424.54 839.768 424.496C835.573 424.181 832.024 422.995 828.115 421.488C826.41 420.832 824.744 420.284 822.992 419.78C810.529 415.595 796.375 405.624 789.231 394.616C788.694 394.092 788.157 393.569 787.604 393.03C785.495 390.87 784.075 388.526 782.554 385.935C782.21 385.371 781.866 384.806 781.511 384.224C780.761 382.952 780.027 381.671 779.299 380.385C778.348 378.706 777.343 377.08 776.294 375.461C772.282 368.982 769.843 362.774 767.926 355.42C767.02 351.959 767.02 351.959 765.457 348.763C764.188 346.643 764.045 344.773 763.775 342.326C763.697 341.628 763.697 341.628 763.617 340.917C760.658 313.282 760.658 313.282 765.194 306.478C765.45 304.716 765.45 304.716 765.528 302.806C765.666 300.241 765.735 299.323 767.197 297.13C767.333 295.75 767.467 294.37 767.591 292.988C768.152 289.158 769.43 285.476 770.535 281.773C771.405 278.695 771.994 275.63 772.455 272.467C772.86 269.896 773.385 267.785 774.542 265.456C776.076 262.342 776.392 259.284 776.837 255.868C777.294 253.265 778.193 251.074 779.25 248.667C780.122 246.444 780.546 244.208 780.955 241.862C781.219 240.375 781.219 240.375 781.568 239.136C782.186 236.355 782.158 233.472 782.301 230.633C782.544 228.451 783.07 227.029 783.89 225.018C784.335 223.085 784.639 221.136 784.933 219.175C785.02 218.597 785.107 218.02 785.196 217.424C786.142 210.614 786.303 203.784 786.496 196.919C786.589 194.124 786.76 191.335 786.936 188.544C787.98 179.822 787.98 179.822 786.56 171.601C786.61 163.014 787.208 153.252 792.734 146.387C793.909 144.888 794.698 143.428 795.533 141.721C797.277 138.494 799.558 136.853 802.585 134.877C803.742 134.073 804.897 133.266 806.049 132.457C806.848 131.907 806.848 131.907 807.664 131.346C808.774 130.552 809.855 129.717 810.911 128.852C815.457 125.302 820.712 123.317 826.247 121.899C826.922 121.722 826.922 121.722 827.611 121.543C830.14 120.944 832.164 120.621 834.635 121.523Z" fill="#F2F4F3"/>
<path d="M1282 549.524C1282 606.153 1282 662.781 1282 721.125C1216.78 721.125 1151.56 721.125 1084.36 721.125C1084.79 717.23 1085.27 713.446 1085.99 709.607C1086.62 706.136 1087.19 702.674 1087.66 699.175C1088.45 693.944 1090.15 689.332 1092.66 684.694C1094.22 681.697 1095.05 678.724 1095.88 675.471C1097.54 669.006 1100.18 663.134 1103.04 657.12C1103.9 655.316 1104.73 653.502 1105.56 651.684C1105.94 650.846 1105.94 650.846 1106.34 649.991C1106.83 648.87 1107.3 647.737 1107.74 646.595C1111.74 636.376 1116.62 626.778 1125.09 619.634C1125.5 619.283 1125.9 618.933 1126.32 618.572C1127.24 617.802 1128.17 617.048 1129.09 616.295C1129.59 615.793 1130.09 615.29 1130.6 614.772C1132.59 612.802 1134.67 611.003 1136.82 609.201C1147.84 599.885 1147.84 599.885 1156.97 588.797C1160.66 584.187 1165.47 581.322 1170.49 578.319C1171.18 577.908 1171.86 577.496 1172.57 577.072C1174.54 575.894 1176.52 574.726 1178.51 573.562C1178.98 573.281 1179.46 572.999 1179.95 572.709C1195.75 563.466 1215.41 556.824 1233.26 552.863C1233.72 552.752 1234.18 552.641 1234.66 552.526C1239.05 551.541 1243.17 551.38 1247.65 551.468C1249.12 551.481 1250.59 551.495 1252.06 551.508C1254.35 551.537 1256.63 551.569 1258.92 551.605C1261.15 551.638 1263.37 551.658 1265.6 551.676C1266.61 551.698 1266.61 551.698 1267.64 551.72C1271.6 551.748 1274.88 551.266 1278.61 549.957C1280 549.524 1280 549.524 1282 549.524Z" fill="#95D4E9"/>
<path d="M725.715 463.932C728.108 464.841 728.075 465.029 729.096 467.187C730.947 470.62 734.012 471.494 737.529 472.625C740.611 473.657 741.952 474.8 743.827 477.411C744.988 478.254 744.988 478.254 746.247 478.788C746.708 479.005 747.168 479.222 747.643 479.445C748.709 479.89 749.791 480.298 750.882 480.677C751.46 480.88 752.037 481.083 752.632 481.292C753.165 481.462 753.698 481.631 754.247 481.806C755.911 482.791 756.361 483.4 757.385 484.98C759.269 487.798 761.536 489.074 764.484 490.64C768.242 492.735 771.801 494.913 775.251 497.484C778.556 499.92 781.946 502.092 785.517 504.119C785.951 504.369 786.386 504.619 786.833 504.876C788.959 506.056 790.764 506.845 793.136 507.5C795.241 508.126 795.241 508.126 796.576 510.129C796.816 511.795 796.816 511.795 796.576 513.467C795.501 514.534 795.501 514.534 794.072 515.512C790.939 518.02 790.323 520.497 789.26 524.265C788.536 526.228 787.956 526.989 786.393 528.324C784.044 530.405 782.765 532.747 781.427 535.543C779.214 540.169 776.894 544.718 774.458 549.231C773.967 550.16 773.967 550.16 773.465 551.108C771.485 554.765 769.326 557.81 766.529 560.875C759.684 569.38 754.508 578.74 749.394 588.349C747.555 591.776 745.582 595.013 743.39 598.224C742.129 600.158 741.176 602.141 740.196 604.234C738.005 608.776 735.558 613.34 731.86 616.842C730.033 618.759 728.77 620.867 727.426 623.138C727.169 623.559 726.911 623.98 726.645 624.414C725.377 626.536 724.328 628.57 723.532 630.913C722.342 634.268 720.365 637.032 718.371 639.956C715.514 644.234 712.864 648.52 710.525 653.102C708.02 657.994 705.442 662.76 701.461 666.625C697.318 670.883 694.542 676.385 692.487 681.91C689.717 688.727 686.162 694.447 681.062 699.758C678.475 702.655 676.923 705.2 675.804 708.939C674.346 713.579 672.567 717.68 669.044 721.125C665.815 722.248 662.679 722.144 659.305 722.034C658.324 722.032 657.343 722.033 656.362 722.038C653.711 722.04 651.063 721.993 648.412 721.937C645.639 721.887 642.865 721.882 640.09 721.873C634.842 721.848 629.596 721.782 624.349 721.702C618.372 721.612 612.396 721.568 606.42 721.528C594.131 721.444 581.843 721.303 569.555 721.125C570.421 718.379 571.206 716.496 573.102 714.322C574.838 712.185 576.052 710.228 577.109 707.687C578.891 703.479 581.392 699.893 583.963 696.14C585.296 694.191 586.526 692.204 587.708 690.16C588.952 688.025 590.295 686.167 591.882 684.275C595.072 680.308 596.893 675.669 598.934 671.046C600.665 667.279 602.737 663.841 604.993 660.363C606.364 658.228 607.678 656.065 608.992 653.895C610.454 651.502 611.926 649.207 613.666 647.009C615.887 644.163 617.439 641.007 619.106 637.815C620.192 635.854 621.358 634.085 622.68 632.278C624.831 629.314 626.416 626.23 628.001 622.935C629.213 620.504 630.61 618.221 632.035 615.911C632.979 614.305 633.78 612.679 634.573 610.994C636.138 607.784 638.128 605.056 640.27 602.207C641.7 600.225 642.96 598.194 644.213 596.096C646.201 592.803 648.338 589.704 650.64 586.623C655.004 580.764 659.185 574.84 662.325 568.219C664.062 564.581 666.249 561.49 668.632 558.261C671.415 554.452 673.463 550.498 675.212 546.117C676.694 542.653 678.65 539.451 680.562 536.211C681.11 535.259 681.11 535.259 681.67 534.287C683.744 530.764 685.938 527.748 688.696 524.738C690.34 522.767 691.331 520.595 692.372 518.266C694.291 514.198 696.476 510.676 699.213 507.088C701.76 503.659 703.568 500.055 705.058 496.065C706.107 493.36 707.362 491.326 709.169 489.072C710.93 486.796 712.535 484.421 714.156 482.043C714.768 481.145 715.381 480.247 715.995 479.349C716.29 478.914 716.585 478.48 716.889 478.032C717.489 477.17 718.107 476.32 718.742 475.483C720.415 473.27 721.512 471.708 721.542 468.898C721.574 467.104 721.587 466.328 722.69 464.889C723.796 464.057 723.796 464.057 725.715 463.932Z" fill="#95D4E9"/>
<path d="M559.54 526.822C560.922 527.841 562.123 528.982 563.368 530.163C565.481 532.024 567.81 533.413 570.22 534.856C571.902 535.958 573.42 537.106 574.985 538.361C578.429 541.072 582.105 543.29 585.872 545.518C589.693 547.787 593.461 550.059 597.075 552.649C599.838 554.617 602.628 556.184 605.695 557.62C610.444 559.925 614.783 562.339 618.924 565.633C621.296 567.469 623.57 568.356 626.454 569.128C627.646 569.556 627.646 569.556 628.313 570.891C628.691 573.249 628.784 574.871 627.411 576.895C626.192 578.275 624.933 579.597 623.64 580.907C618.584 586.248 614.533 592.382 612.714 599.545C611.928 602.12 610.26 603.714 608.282 605.445C607.003 606.884 606.474 607.874 605.737 609.618C602.956 616.194 598.989 622.039 594.808 627.791C593.254 629.977 592.043 632.002 591.136 634.535C590.15 637.284 589.084 638.422 586.916 640.333C584.053 642.899 582.511 645.387 580.906 648.804C580.675 649.279 580.444 649.754 580.206 650.243C579.232 652.247 578.279 654.26 577.338 656.28C575.562 660.012 573.4 663.207 570.922 666.514C568.744 669.481 566.81 672.589 564.881 675.721C564.538 676.278 564.194 676.835 563.84 677.409C562.093 680.281 560.447 683.184 558.872 686.154C557.675 688.383 556.439 690.393 554.866 692.372C553.191 694.491 552.053 696.649 550.901 699.091C549.681 701.639 548.517 703.65 546.561 705.685C543.798 708.582 542.322 712 540.692 715.604C538.334 719.953 538.334 719.953 536.17 721.125C533.049 721.625 529.932 721.547 526.781 721.504C525.813 721.504 524.846 721.504 523.878 721.506C521.256 721.507 518.634 721.487 516.011 721.464C513.269 721.443 510.527 721.441 507.785 721.437C502.595 721.427 497.404 721.399 492.214 721.366C486.304 721.329 480.394 721.31 474.484 721.293C462.328 721.259 450.172 721.2 438.017 721.125C438.894 718.364 439.788 716.275 441.522 713.948C444.567 709.725 447.394 705.505 449.284 700.635C450.239 698.365 451.156 697.258 453.124 695.794C457.29 692.433 459.299 687.474 461.762 682.834C463.494 679.639 465.34 676.513 467.187 673.384C467.71 672.488 467.71 672.488 468.244 671.574C470.356 667.996 472.615 664.573 475.022 661.187C480.578 653.325 485.096 644.654 489.18 635.951C490.205 633.861 491.285 632.327 492.894 630.651C496.901 626.332 499.358 620.785 502.117 615.628C503.291 613.439 504.475 611.256 505.664 609.076C505.928 608.577 506.193 608.079 506.465 607.566C508.049 604.661 509.732 602.584 512.132 600.27C513.188 598.822 514.179 597.397 515.137 595.888C515.399 595.481 515.661 595.074 515.931 594.654C517.922 591.474 519.302 588.213 520.643 584.71C521.759 582.31 523.269 580.586 525.119 578.716C526.979 576.654 527.465 575.068 527.865 572.31C528.782 567.886 531.555 564.362 534.059 560.697C535.579 558.429 536.964 556.073 538.371 553.734C539.508 552.195 539.508 552.195 541.063 551.121C543.853 548.624 545.198 545.415 546.853 542.096C547.192 541.432 547.531 540.767 547.881 540.083C549.212 537.468 550.53 534.849 551.806 532.206C552.1 531.602 552.393 530.998 552.696 530.375C552.954 529.834 553.212 529.294 553.478 528.737C554.896 526.281 556.934 526.436 559.54 526.822Z" fill="#95D4E9"/>
<path d="M21.7514 594.838C24.9138 595.347 28.012 595.726 31.2154 595.888C33.6318 596.047 35.2192 596.38 37.3082 597.599C39.6721 598.971 41.3913 599.025 44.1105 599.018C54.8602 599.504 65.5421 606.172 74.1156 612.289C74.6828 612.686 75.2501 613.083 75.8345 613.491C76.9013 614.239 77.9656 614.99 79.0269 615.745C81.5929 617.515 84.2236 619.181 86.8634 620.839C90.1632 622.928 93.1256 625.068 95.6492 628.064C96.046 628.526 96.4428 628.988 96.8516 629.464C97.4959 630.217 97.4959 630.217 98.1531 630.985C102.274 635.732 102.274 635.732 106.875 639.999C111.536 643.964 114.755 648.529 117.277 654.065C118.309 655.912 119.535 657.195 121.022 658.695C123.582 661.393 123.981 663.201 124.066 666.848C124.263 669.21 125.398 670.581 126.865 672.383C127.347 672.989 127.829 673.595 128.325 674.219C128.725 674.715 129.124 675.211 129.535 675.721C130.356 677.363 130.297 678.562 130.37 680.395C130.592 683.243 131.116 685.146 132.54 687.615C134.424 691.03 134.494 693.917 134.624 697.764C134.83 700.934 135.718 703.894 136.588 706.937C139.5 717.221 139.5 717.221 137.548 721.126C92.1571 721.126 46.7663 721.126 7.30157e-06 721.126C-0.0137642 700.317 -0.0275357 679.508 -0.0417245 658.069C-0.0478033 651.487 -0.0538821 644.904 -0.0601451 638.122C-0.0631609 630.115 -0.0631609 630.115 -0.0637213 626.372C-0.064346 623.745 -0.0668587 621.118 -0.0704864 618.492C-0.0750438 615.148 -0.076443 611.804 -0.0754914 608.459C-0.0756906 607.228 -0.0770296 605.997 -0.0795948 604.765C-0.0828843 603.11 -0.0821258 601.455 -0.0802876 599.8C-0.0822325 599.311 -0.0841779 598.822 -0.0861816 598.318C-0.0761954 595.005 -0.0761948 595.005 0.667716 594.261C7.87953 593.059 14.5834 593.678 21.7514 594.838Z" fill="#95D4E9"/>
<path d="M1266.64 616.962C1271.71 617.183 1276.78 617.403 1282 617.63C1282 651.783 1282 685.937 1282 721.125C1239.91 721.125 1197.83 721.125 1154.47 721.125C1154.47 708.705 1154.47 708.705 1157.45 702.345C1159.79 697.215 1160.99 693.057 1161.4 687.452C1162.33 682.074 1164.87 679.079 1168.99 675.721C1172.95 672.293 1175.2 669.002 1177.32 664.251C1179.28 659.911 1181.95 656.513 1185.18 653.019C1185.57 652.598 1185.95 652.177 1186.34 651.743C1189.66 648.266 1193.46 645.34 1197.2 642.335C1198.4 641.348 1199.59 640.361 1200.79 639.372C1203.53 637.14 1206.28 634.921 1209.05 632.737C1209.74 632.195 1210.42 631.652 1211.13 631.094C1214.89 628.505 1218.7 627.375 1223.12 626.477C1227.3 625.562 1231.21 624.329 1235.18 622.721C1255.19 614.673 1255.19 614.673 1266.64 616.962Z" fill="#BEE8F8"/>
<path d="M378.048 608.616C380.594 608.95 380.594 608.95 381.489 609.876C381.913 610.471 381.913 610.471 382.347 611.078C384.16 613.487 385.763 614.211 388.606 615.168C392.274 616.434 395.174 618.043 398.288 620.301C398.672 620.579 399.056 620.856 399.452 621.142C401.184 622.434 402.736 623.753 404.23 625.317C406.412 627.404 408.766 628.731 411.392 630.192C416.452 633.083 421.073 636.267 425.713 639.796C428.584 641.921 431.544 643.551 434.762 645.09C439.67 647.466 439.67 647.466 441.843 648.778C443.672 649.867 445.503 650.472 447.519 651.12C448.7 651.683 448.7 651.683 450.036 653.687C450.411 655.857 450.411 655.857 450.036 658.36C449.038 659.595 447.924 660.586 446.741 661.644C444.527 663.876 442.982 666.522 441.29 669.159C440.268 670.679 439.284 671.913 438.017 673.217C434.68 676.942 432.811 681.926 430.672 686.404C429.748 688.328 428.814 690.246 427.876 692.163C427.567 692.814 427.567 692.814 427.252 693.479C425.515 697.029 423.535 699.96 420.299 702.338C418.033 704.302 416.994 706.565 415.69 709.232C414.974 710.673 414.251 712.105 413.486 713.522C412.937 714.562 412.422 715.621 411.947 716.697C411.01 718.51 410.16 719.754 408.638 721.125C405.485 722.006 402.357 721.886 399.111 721.807C398.137 721.806 397.163 721.807 396.189 721.81C393.551 721.812 390.914 721.776 388.277 721.734C385.518 721.697 382.759 721.693 380 721.686C374.778 721.667 369.557 721.618 364.336 721.558C358.391 721.491 352.445 721.458 346.499 721.427C334.271 721.365 322.044 721.259 309.817 721.125C310.216 718.44 310.509 716.694 312.237 714.573C312.596 714.122 312.955 713.671 313.325 713.206C313.71 712.735 314.094 712.263 314.491 711.777C315.682 710.258 316.867 708.734 318.048 707.208C318.743 706.311 319.445 705.42 320.156 704.537C321.991 702.162 322.706 700.356 323.322 697.38C325.036 691.98 328.389 686.882 332.574 683.128C335.502 679.931 337.547 675.966 339.779 672.267C340.698 670.776 341.691 669.347 342.702 667.917C345.56 663.686 348.133 658.755 349.17 653.728C350.001 651.333 351.176 650.567 353.127 649.041C357.858 644.517 361.279 638.334 363.249 632.156C364.981 627.272 367.496 622.598 371.079 618.84C373.36 616.447 374.145 614.14 374.913 610.956C375.464 608.784 375.703 608.984 378.048 608.616Z" fill="#95D4E9"/>
<path d="M1158.47 74.7835C1158.8 75.114 1158.8 75.114 1159.14 75.4512C1160.1 75.5236 1161.06 75.5753 1162.02 75.6182C1172.33 76.5878 1181.56 83.5601 1188.52 90.8085C1190.04 92.7228 1191.31 94.6973 1192.53 96.8179C1192.98 97.5719 1192.98 97.5719 1193.44 98.3411C1199.48 108.757 1201.95 121.571 1198.91 133.375C1196.44 141.038 1193.37 149.822 1187.12 155.162C1185.75 156.333 1184.69 157.599 1183.55 158.998C1176.87 166.591 1166.16 170.178 1156.24 170.859C1153.42 170.974 1150.61 170.985 1147.79 170.934C1147.06 170.932 1146.33 170.93 1145.58 170.928C1134.97 170.466 1125.47 163.723 1117.74 156.912C1116.99 155.535 1116.99 155.535 1116.41 154.241C1116.02 153.869 1115.64 153.497 1115.24 153.114C1107.38 145.036 1104.46 133.869 1104.31 122.9C1104.33 121.773 1104.35 120.647 1104.39 119.52C1104.39 118.701 1104.39 118.701 1104.4 117.866C1104.82 107.881 1109.48 98.4269 1115.74 90.8085C1116.62 90.3409 1117.51 89.8901 1118.41 89.4731C1118.86 88.587 1119.31 87.6961 1119.75 86.8023C1123.79 82.7527 1128.06 80.069 1133.41 78.1038C1135.23 77.4778 1135.23 77.4778 1137.11 76.1189C1143.84 74.6363 1151.65 73.2682 1158.47 74.7835Z" fill="#95D4E9" fill-opacity="0.913725"/>
<path d="M506.123 373.917C506.658 374.046 507.194 374.175 507.745 374.308C512.349 375.569 515.814 378.284 519.477 381.262C519.818 381.537 520.159 381.813 520.51 382.098C526.784 387.258 530.982 392.771 533.499 400.625C533.851 401.406 534.203 402.186 534.566 402.991C536.013 406.836 535.819 410.799 535.794 414.856C535.808 415.63 535.821 416.404 535.835 417.202C535.832 422.445 534.964 426.562 532.831 431.34C532.622 431.83 532.413 432.32 532.197 432.826C529.69 438.524 527.067 443.396 522.148 447.365C521.666 447.773 521.184 448.181 520.687 448.601C512.697 455.121 504.422 458.406 494.104 458.716C493.089 458.779 493.089 458.779 492.054 458.844C486.914 459.052 482.821 457.97 478.079 456.045C477.126 455.671 477.126 455.671 476.154 455.289C471.787 453.451 468.343 451.062 464.725 448.032C464.147 447.633 463.568 447.234 462.972 446.822C455.03 439.507 451.007 428.857 450.562 418.332C450.279 408.289 451.169 397.574 458.113 389.686C459.019 388.795 459.944 387.924 460.896 387.083C462.113 386.005 462.113 386.005 462.701 384.592C465.404 379.382 474.276 376.001 479.415 373.917C481.575 373.392 483.666 373.028 485.873 372.774C493.088 371.878 498.86 371.888 506.123 373.917Z" fill="#95D4E9"/>
<path d="M961.5 318.497C967.278 318.642 972.403 318.891 977.804 321.142C979.612 321.869 981.395 322.362 983.284 322.837C987.55 323.961 991.413 325.588 995.178 327.887C997.042 329.001 998.844 329.604 1000.94 330.182C1003.81 330.989 1005.81 332.085 1008.24 333.854C1009.32 334.485 1010.41 335.111 1011.49 335.732C1014.27 337.377 1016.57 339.219 1018.93 341.397C1020.28 342.556 1021.66 343.445 1023.18 344.371C1026.48 346.488 1028.85 349.246 1031.42 352.188C1032.62 353.524 1033.74 354.63 1035.16 355.722C1037.38 357.584 1038.72 359.458 1040.29 361.898C1040.29 362.339 1040.29 362.779 1040.29 363.234C1041.01 363.195 1041.72 363.156 1042.46 363.116C1051.11 362.789 1051.11 362.789 1053.94 364.819C1055.88 366.812 1056.25 367.269 1056.52 369.999C1056.27 373.16 1055.3 375.139 1053.73 377.84C1053.46 378.308 1053.19 378.776 1052.91 379.258C1050.44 383.374 1047.47 386.386 1043.63 389.274C1042.87 389.858 1042.87 389.858 1042.09 390.453C1041.21 391.119 1040.32 391.777 1039.42 392.42C1038.26 393.259 1038.26 393.259 1037.27 394.318C1035.99 395.572 1034.49 396.288 1032.94 397.146C1031.51 398.013 1030.27 398.988 1028.98 400.041C1026.12 402.311 1023.12 404.328 1020.05 406.301C1019.59 406.606 1019.12 406.912 1018.65 407.227C1018.2 407.507 1017.76 407.786 1017.3 408.074C1016.91 408.328 1016.51 408.581 1016.11 408.842C1014.54 409.451 1013.78 409.262 1012.25 408.638C1010.96 406.984 1010.96 406.984 1009.66 404.882C1007.87 402.08 1006.07 399.549 1003.85 397.091C1002.75 395.779 1001.88 394.394 1000.98 392.947C999.236 390.258 997.27 388.333 994.802 386.309C993.55 385.268 993.55 385.268 991.839 383.473C990.294 382.008 988.793 381.031 986.917 380.038C985.538 379.259 985.538 379.259 983.886 378.124C979.977 375.441 976.611 373.967 971.972 372.996C969.784 372.49 968.103 371.704 966.174 370.578C966.837 367.415 967.558 364.348 968.553 361.272C969.456 358.37 969.838 355.599 970.039 352.571C970.18 351.215 970.18 351.215 970.848 349.879C971.052 346.773 971.052 346.773 970.18 343.87C969.985 342.383 969.807 340.894 969.638 339.405C969.105 335.479 968.311 333.12 966.174 329.848C965.954 329.049 965.733 328.251 965.506 327.428C964.785 324.993 963.752 323.778 962.168 321.836C961.909 320.731 961.681 319.618 961.5 318.497Z" fill="#01A8E1"/>
<path d="M946.894 190.755C947.503 190.745 948.113 190.734 948.741 190.723C952.822 190.72 956.442 191.211 960.165 192.967C960.826 193.628 960.826 193.628 961.5 194.302C961.25 196.723 961.25 196.723 960.832 198.976C959.07 199.637 957.307 200.298 955.491 200.98C955.491 201.42 955.491 201.861 955.491 202.315C956.248 202.522 957.006 202.728 957.786 202.941C960.165 203.65 960.165 203.65 960.832 204.318C961.083 205.904 961.083 205.904 960.832 207.657C959.163 208.867 959.163 208.867 957.494 209.66C957.514 211.273 957.514 211.273 958.161 212.998C960.098 214.161 960.098 214.161 962.168 215.001C962.608 215.442 963.049 215.883 963.503 216.337C963.378 218.006 963.378 218.006 962.835 219.675C960.887 220.974 959.747 221.313 957.494 221.679C957.526 222.933 957.526 222.933 958.161 224.349C959.153 225.01 959.153 225.01 960.165 225.685C962.168 227.02 962.168 227.02 962.877 228.397C962.835 229.691 962.835 229.691 962.035 230.716C960.566 231.911 959.42 232.191 957.577 232.612C953.165 233.725 949.029 235.355 944.807 237.036C943.87 237.378 943.87 237.378 942.914 237.727C939.921 238.837 937.676 239.894 935.3 242.093C932.515 244.348 929.22 245.954 926.111 247.719C921.228 250.539 916.57 254.353 913.425 259.07C912.764 259.07 912.103 259.07 911.422 259.07C911.204 258.619 910.986 258.168 910.762 257.703C910.324 256.81 910.324 256.81 909.878 255.899C909.591 255.31 909.305 254.721 909.009 254.115C908.148 252.513 907.188 251.158 906.08 249.722C905.167 247.789 904.664 246.019 904.202 243.922C903.524 241.075 902.284 238.671 900.937 236.086C898.939 232.116 897.462 227.903 895.926 223.736C895.081 221.517 894.158 219.328 893.24 217.138C892.726 215.669 892.726 215.669 892.726 213.666C893.129 213.456 893.532 213.246 893.947 213.03C894.48 212.744 895.014 212.458 895.564 212.164C896.091 211.885 896.617 211.606 897.16 211.319C898.763 210.402 898.763 210.402 899.904 209.086C902.085 207.011 904.611 205.74 907.249 204.318C907.765 204.034 908.282 203.75 908.814 203.457C911.666 201.897 914.545 200.424 917.468 199.002C918.828 198.276 920.052 197.439 921.32 196.564C924.463 194.556 927.687 194.062 931.328 193.51C932.571 193.309 933.813 193.105 935.055 192.897C935.87 192.771 935.87 192.771 936.7 192.643C944.585 190.747 944.585 190.747 946.894 190.755Z" fill="#01A8E1"/>
<path d="M1019.63 138.258C1020.3 138.334 1020.97 138.411 1021.66 138.49C1023.56 138.875 1025.15 139.478 1026.94 140.219C1027.99 140.478 1029.04 140.716 1030.11 140.928C1032.87 141.482 1032.87 141.482 1033.61 142.222C1034.58 142.424 1035.56 142.6 1036.53 142.765C1045.78 144.56 1045.78 144.56 1048.85 147.319C1050.75 151.127 1049.52 155.534 1048.47 159.457C1048.35 159.924 1048.23 160.39 1048.11 160.871C1047.41 163.512 1046.59 166.05 1045.59 168.597C1044.24 172.069 1043.6 175.564 1043.05 179.234C1042.72 181.245 1042.38 182.806 1041.31 184.554C1039.84 187.056 1039.51 189.633 1039 192.467C1038.22 196.471 1037.4 200.098 1035.53 203.75C1034.89 205.113 1034.59 206.395 1034.28 207.866C1033.44 210.98 1032.29 212.128 1029.65 213.834C1027.95 214.45 1026.73 214.514 1024.93 214.335C1024.51 214.124 1024.1 213.913 1023.66 213.696C1022.25 212.993 1021.05 212.673 1019.51 212.373C1015.05 211.437 1010.75 210.072 1006.45 208.576C1004.54 207.919 1003.06 207.6 1001.02 207.365C998.489 206.919 997.69 206.409 996.221 204.319C994.78 199.036 995.419 194.512 997.473 189.588C999.142 185.448 1000.72 181.471 1001.15 176.985C1001.36 174.939 1001.86 173.524 1002.86 171.726C1004.34 169.008 1004.81 166.38 1005.24 163.331C1005.58 161.501 1006.19 159.963 1006.9 158.247C1007.08 157.407 1007.26 156.567 1007.45 155.701C1008.1 152.679 1008.89 149.701 1009.74 146.729C1009.86 146.271 1009.98 145.814 1010.11 145.342C1011.53 140.55 1014.27 137.545 1019.63 138.258Z" fill="#05A9E2"/>
<path d="M1012.25 151.569C1013.48 151.874 1014.72 152.181 1015.96 152.487C1016.65 152.658 1017.34 152.828 1018.05 153.004C1022.63 154.182 1027.13 155.583 1031.64 157.008C1033.78 157.681 1035.92 158.33 1038.08 158.935C1039.99 159.495 1041.8 160.14 1043.63 160.917C1043.43 161.573 1043.43 161.573 1043.24 162.242C1042.09 166.276 1041.25 170.229 1040.71 174.389C1040.29 176.275 1040.29 176.275 1039.31 178.21C1038.16 180.539 1037.73 182.608 1037.28 185.163C1036.28 190.596 1034.91 195.43 1032.28 200.312C1028.66 199.637 1025.43 198.691 1022.01 197.307C1018.62 195.95 1015.42 195.103 1011.81 194.608C1010.18 194.291 1009.03 193.727 1007.57 192.967C1006.63 192.69 1005.69 192.438 1004.73 192.216C1003.49 191.927 1003.49 191.927 1002.23 191.632C1001.27 188.548 1002 186.27 1003.02 183.327C1003.34 182.382 1003.65 181.436 1003.96 180.489C1004.12 180.013 1004.28 179.536 1004.44 179.044C1005.4 176.056 1006.21 173.023 1007.04 169.997C1007.57 168.262 1007.57 168.262 1008.24 167.594C1008.34 166.637 1008.42 165.676 1008.49 164.715C1008.75 162.079 1009.33 161.021 1010.91 158.914C1011.19 157.36 1011.33 155.83 1011.44 154.256C1011.58 152.905 1011.58 152.905 1012.25 151.569Z" fill="#F0F4F3"/>
<path d="M849.993 145.561C850.323 146.222 850.323 146.222 850.661 146.896C850.44 147.337 850.22 147.777 849.993 148.231C849.561 153.482 850.165 157.996 851.996 162.921C851.665 163.251 851.665 163.251 851.328 163.589C851.24 165.076 851.174 166.565 851.12 168.054C850.873 171.8 850.57 174.076 847.99 176.943C847.508 177.604 847.026 178.265 846.529 178.946C843.739 182.133 840.781 184.61 836.511 185.3C832.054 185.444 828.215 185.075 824.62 182.285C823.358 181.016 822.363 179.72 821.281 178.278C820.799 177.824 820.317 177.369 819.821 176.901C818.386 175.368 817.796 174.306 817.275 172.269C817.442 170.141 817.442 170.141 817.943 167.595C818.011 167.076 818.079 166.557 818.149 166.022C818.929 160.838 821.051 157.103 824.782 153.437C828.663 150.909 835.107 151.056 839.602 151.987C843.445 153.471 847.157 155.255 849.325 158.915C848.995 157.923 848.995 157.923 848.657 156.912C848.577 155.355 848.54 153.796 848.532 152.238C848.523 151.411 848.513 150.585 848.504 149.734C848.657 147.564 848.657 147.564 849.993 145.561Z" fill="#E3E7E5"/>
<path d="M862.82 137.245C864.682 137.548 864.682 137.548 866.435 139.009C867.276 140.729 868.067 142.413 868.688 144.225C867.155 144.992 865.966 145.098 864.265 145.268C863.719 145.324 863.174 145.38 862.611 145.438C862.193 145.478 861.775 145.519 861.344 145.561C861.564 145.561 861.784 145.561 862.011 145.561C864.682 145.561 867.353 145.561 870.024 145.561C871.86 149.251 873.05 152.648 873.636 156.737C874.097 158.502 874.947 159.471 876.033 160.918C876.491 162.903 876.299 164.169 876.033 166.259C873.025 169.171 867.772 169.632 863.722 169.89C859.689 169.805 856.003 167.87 852.896 165.373C849.543 161.214 848.914 155.133 849.108 149.984C849.391 147.694 850.05 146.142 851.328 144.225C851.755 143.537 852.182 142.848 852.622 142.139C855.736 137.797 857.499 137.064 862.82 137.245Z" fill="#EAEDEC"/>
<path d="M865.851 135.92C870.306 135.99 874.8 138.519 878.057 141.431C879.044 142.551 879.908 143.633 880.707 144.892C880.965 145.261 881.222 145.629 881.487 146.009C882.358 148.445 882.033 150.772 881.834 153.322C881.802 153.84 881.769 154.358 881.736 154.892C881.474 158.716 881.474 158.716 880.707 160.25C880.267 160.25 879.826 160.25 879.372 160.25C879.193 160.759 879.014 161.269 878.829 161.794C878.062 163.53 877.39 164.324 876.033 165.591C875.952 165.173 875.871 164.755 875.788 164.324C875.676 163.778 875.564 163.232 875.449 162.67C875.341 162.128 875.232 161.585 875.12 161.027C874.787 159.457 874.787 159.457 873.362 158.246C873.01 156.843 873.01 156.843 872.736 155.158C872.161 151.99 871.238 149.207 870.024 146.228C869.469 146.228 868.914 146.228 868.342 146.228C865.564 146.228 862.786 146.228 860.008 146.228C861.609 144.627 862.234 144.663 864.432 144.475C865.25 144.4 865.25 144.4 866.085 144.324C866.504 144.291 866.922 144.258 867.353 144.225C867.353 141.37 866.602 140.318 864.682 138.215C862.456 137.671 860.292 137.556 858.005 137.547C858.005 137.327 858.005 137.107 858.005 136.88C860.616 136.507 863.231 136.226 865.851 135.92Z" fill="#A9D1DD"/>
<path d="M906.748 363.233C907.862 363.453 908.974 363.676 910.087 363.901C911.219 364.13 911.219 364.13 912.374 364.363C920.21 366.119 927.432 368.941 933.962 373.7C936.032 375.325 936.032 375.325 938.339 376.087C941.379 377.265 943.487 379.585 945.791 381.825C947.583 383.354 949.345 384.299 951.485 385.268C951.485 385.708 951.485 386.149 951.485 386.603C946.869 384.889 943.834 382.552 940.543 378.898C939.311 377.783 938.209 377.287 936.67 376.671C934.598 375.792 932.716 374.849 930.827 373.625C925.591 370.284 920.625 368.177 914.566 366.86C911.711 366.225 909.31 365.309 906.748 363.901C906.748 363.681 906.748 363.46 906.748 363.233Z" fill="#CAEBF7"/>
<path d="M1014.54 198.852C1016.92 198.977 1016.92 198.977 1018.26 200.312C1018.48 202.407 1018.61 203.761 1017.46 205.57C1015.81 206.593 1014.82 206.607 1012.91 206.322C1011.66 205.612 1011.66 205.612 1010.91 204.318C1011.28 199.03 1011.28 199.03 1014.54 198.852Z" fill="#B7E6F7"/>
<path d="M849.993 145.561C850.213 146.001 850.434 146.442 850.661 146.896C850.44 147.337 850.22 147.777 849.993 148.231C849.561 153.482 850.166 157.996 851.996 162.921C851.776 163.141 851.555 163.362 851.328 163.589C851.137 165.986 851.029 168.383 850.914 170.785C850.661 172.937 850.661 172.937 849.325 174.272C849.337 173.017 849.337 173.017 849.349 171.737C849.355 170.634 849.361 169.532 849.367 168.43C849.373 167.879 849.378 167.328 849.384 166.76C849.387 165.96 849.387 165.96 849.39 165.143C849.394 164.654 849.397 164.164 849.401 163.66C849.37 162.227 849.37 162.227 848.946 160.779C848.851 160.384 848.755 159.989 848.658 159.582C848.878 159.362 849.098 159.142 849.325 158.915C849.105 158.254 848.885 157.593 848.658 156.912C848.577 155.355 848.54 153.796 848.532 152.238C848.523 151.411 848.513 150.585 848.504 149.734C848.658 147.564 848.658 147.564 849.993 145.561Z" fill="#6D837C"/>
<path d="M858.005 137.548C857.147 139.462 856.288 140.87 854.667 142.222C854.226 142.222 853.785 142.222 853.331 142.222C853.111 142.662 852.891 143.103 852.664 143.557C852.971 140.788 855.011 137.548 858.005 137.548Z" fill="#98A8A2"/>
<path d="M817.879 168.403C817.555 168.775 817.231 169.146 816.897 169.528C816.406 169.492 815.914 169.455 815.408 169.418C810.388 171.012 806.443 173.285 802.583 176.849C802.295 176.729 802.008 176.609 801.712 176.485C799.422 177.219 797.164 178.028 794.899 178.834C792.812 179.417 792.812 179.417 791.07 178.688C792.235 178.222 792.235 178.222 793.424 177.747C794.446 177.334 795.468 176.921 796.49 176.508C797.001 176.304 797.513 176.1 798.04 175.89C798.782 175.589 798.782 175.589 799.538 175.282C799.992 175.099 800.446 174.917 800.914 174.729C802.227 174.156 802.227 174.156 803.406 173.213C803.735 172.975 804.064 172.737 804.403 172.492C804.69 172.613 804.978 172.733 805.274 172.857C805.802 172.402 806.329 171.947 806.873 171.478C808.282 170.813 809.71 170.187 811.148 169.587C811.909 169.265 812.67 168.942 813.453 168.61C815.519 167.928 815.519 167.928 817.879 168.403Z" fill="#6D837C"/>
<path d="M829.633 200.607C832.201 203.176 834.769 205.744 837.337 208.312C839.037 208.788 839.037 208.788 840.927 209.1C841.564 209.218 842.202 209.335 842.858 209.456C843.348 209.541 843.837 209.626 844.341 209.713C844.341 209.944 844.341 210.175 844.341 210.414C841.208 210.818 838.476 211.104 835.699 209.42C833.391 207.404 831.316 205.281 829.633 202.709C829.633 202.015 829.633 201.322 829.633 200.607Z" fill="#284A40"/>
<path d="M831.81 159.753C835.29 159.973 837.73 161.36 840.52 163.346C841.401 165.171 841.401 165.171 841.693 166.646C841.258 166.801 840.822 166.956 840.373 167.116C839.768 166.319 839.768 166.319 839.151 165.506C837.438 163.301 837.438 163.301 835.388 161.454C832.745 161.251 830.266 162.294 827.894 163.375C826.181 165.399 826.181 165.399 824.873 167.423C824.437 167.578 824.002 167.733 823.553 167.892C823.954 169.712 824.356 171.532 824.769 173.407C824.334 173.561 823.898 173.716 823.45 173.876C821.815 169.276 821.815 169.276 822.976 166.735C825.532 162.919 827.271 161.028 831.81 159.753Z" fill="#34534B"/>
<path d="M864.501 148.264C867.98 148.484 870.42 149.871 873.211 151.857C874.091 153.681 874.091 153.681 874.383 155.157C873.948 155.312 873.512 155.467 873.064 155.626C872.458 154.83 872.458 154.83 871.841 154.017C870.128 151.812 870.128 151.812 868.078 149.965C865.435 149.762 862.957 150.805 860.585 151.886C858.871 153.91 858.871 153.91 857.563 155.934C857.128 156.088 856.692 156.243 856.243 156.403C856.645 158.223 857.046 160.042 857.46 161.917C857.024 162.072 856.589 162.227 856.14 162.387C854.505 157.787 854.505 157.787 855.667 155.246C858.223 151.43 859.961 149.539 864.501 148.264Z" fill="#34534B"/>
<path d="M838.257 121.911C837.952 125.571 837.952 125.571 836.46 127.301C836.34 127.662 836.219 128.024 836.095 128.396C835.325 130.058 834.4 130.809 832.867 131.793C831.23 131.793 830.216 131.651 828.825 130.782C828.376 129.996 828.376 129.996 828.432 128.929C829.215 126.581 830.208 125.294 832.362 124.073C832.93 123.744 832.93 123.744 833.509 123.408C835.134 122.566 836.41 121.911 838.257 121.911Z" fill="#EFF1F0"/>
<path d="M828.713 102.542C829.026 102.546 829.339 102.55 829.662 102.554C830.431 102.565 831.2 102.581 831.969 102.598C831.969 102.746 831.969 102.895 831.969 103.047C831.439 103.033 831.439 103.033 830.897 103.019C826.157 103.109 822.798 104.778 819.322 107.984C817.445 110.039 815.945 112.383 814.454 114.725C814.157 115.17 813.861 115.615 813.555 116.073C812.325 119.629 811.761 124.157 813.176 127.705C813.782 128.78 813.782 128.78 814.455 129.711C814.677 130.074 814.677 130.074 814.903 130.446C814.754 130.742 814.606 131.039 814.454 131.344C814.01 130.785 813.571 130.223 813.134 129.66C812.889 129.347 812.645 129.034 812.392 128.712C810.608 126.004 811.084 122.33 811.31 119.217C812.072 115.992 813.87 113.33 815.801 110.683C816.154 110.168 816.154 110.168 816.515 109.642C818.433 106.975 820.632 105.192 823.436 103.496C823.705 103.321 823.974 103.146 824.252 102.965C825.719 102.416 827.171 102.504 828.713 102.542Z" fill="#1F403A"/>
<path d="M837.664 106.328C839.598 108.575 840.452 111.154 840.536 114.108C840.387 115.879 840.002 117.2 839.155 118.768C839.171 118.398 839.186 118.029 839.202 117.648C839.397 112.09 839.397 112.09 836.818 107.393C836.097 106.762 835.359 106.149 834.602 105.56C834.326 105.323 834.05 105.087 833.765 104.844C833.765 104.547 833.765 104.251 833.765 103.946C831.246 103.797 828.726 103.649 826.13 103.496C826.13 103.348 826.13 103.2 826.13 103.047C827.056 102.947 827.983 102.855 828.909 102.767C829.425 102.714 829.941 102.662 830.473 102.609C833.601 102.587 835.454 104.277 837.664 106.328Z" fill="#36514F"/>
<path d="M837.808 122.811C838.706 124.158 838.706 124.158 838.622 125.225C838.217 126.532 837.655 127.503 836.91 128.65C836.618 129.219 836.618 129.219 836.32 129.801C835.073 131.603 833.676 132.54 831.52 132.945C829.533 132.572 828.817 131.981 827.478 130.446C827.505 128.879 827.677 127.803 828.376 126.404C828.673 126.404 828.969 126.404 829.275 126.404C829.126 127.59 828.978 128.775 828.826 129.997C829.535 130.765 829.535 130.765 830.622 131.344C832.329 131.314 833.382 131.173 834.776 130.165C836.402 127.959 837.115 125.424 837.808 122.811Z" fill="#3A5950"/>
<path d="M839.604 116.972C839.752 116.972 839.9 116.972 840.053 116.972C840.053 118.306 840.053 119.64 840.053 121.014C841.683 121.014 843.314 121.014 844.993 121.014C844.993 121.162 844.993 121.311 844.993 121.463C842.326 121.686 842.326 121.686 839.604 121.912C839.308 122.653 839.011 123.395 838.706 124.158C838.558 124.158 838.409 124.158 838.257 124.158C838.257 123.417 838.257 122.676 838.257 121.912C835.131 123.119 832.354 124.311 829.723 126.404C829.427 126.256 829.131 126.107 828.825 125.955C829.884 124.795 831.015 124.032 832.362 123.232C832.93 122.89 832.93 122.89 833.509 122.542C835.449 121.484 836.929 120.887 839.155 121.014C839.303 119.68 839.451 118.346 839.604 116.972Z" fill="#2A4A44"/>
<path d="M812.208 116.972C812.685 117.814 812.685 117.814 813.106 118.768C812.958 119.065 812.81 119.361 812.657 119.667C812.334 123.409 812.225 126.538 814.456 129.711C814.603 129.954 814.751 130.196 814.903 130.446C814.755 130.743 814.606 131.039 814.454 131.345C814.01 130.786 813.572 130.224 813.134 129.66C812.89 129.348 812.645 129.035 812.392 128.713C811.115 126.774 811.237 124.901 811.226 122.614C811.216 121.74 811.216 121.74 811.206 120.847C811.303 119.328 811.547 118.328 812.208 116.972Z" fill="#304E4A"/>
<path d="M837.808 122.811C838.706 124.158 838.706 124.158 838.622 125.225C838.217 126.532 837.654 127.503 836.909 128.65C836.706 129.039 836.502 129.428 836.292 129.829C835.451 131.058 834.63 131.568 833.317 132.243C833.168 131.946 833.02 131.65 832.867 131.344C833.493 130.886 833.493 130.886 834.131 130.418C836.462 128.471 837.057 125.641 837.808 122.811Z" fill="#304F47"/>
<path d="M836.909 105.742C836.613 106.039 836.316 106.335 836.011 106.64C835.244 106.065 834.496 105.465 833.765 104.844C833.765 104.547 833.765 104.251 833.765 103.946C831.246 103.797 828.726 103.649 826.13 103.496C826.13 103.348 826.13 103.2 826.13 103.047C827.056 102.947 827.983 102.855 828.909 102.767C829.425 102.714 829.941 102.662 830.473 102.609C833.352 102.588 834.852 103.924 836.909 105.742Z" fill="#465E5F"/>
<path d="M844.994 121.014C847.5 121.968 849.198 123.552 850.383 125.954C850.231 126.967 850.231 126.967 849.934 127.751C849.675 127.353 849.415 126.954 849.148 126.544C847.821 124.563 846.539 122.817 844.545 121.463C844.693 121.315 844.841 121.166 844.994 121.014Z" fill="#294843"/>
<path d="M816.25 110.234C816.546 110.383 816.843 110.531 817.148 110.684C816.969 110.939 816.79 111.194 816.606 111.457C815.178 113.539 814.009 115.512 813.106 117.87C812.958 117.87 812.81 117.87 812.657 117.87C812.505 116.232 812.483 115.423 813.443 114.052C813.776 113.682 814.11 113.311 814.454 112.929C815.075 112.045 815.66 111.141 816.25 110.234Z" fill="#1F403A"/>
<path d="M819.843 105.742C820.139 105.742 820.436 105.742 820.741 105.742C819.992 107.512 818.843 108.792 817.597 110.234C817.153 110.086 816.708 109.937 816.25 109.785C816.827 109.108 817.408 108.435 817.99 107.763C818.475 107.201 818.475 107.201 818.969 106.626C819.258 106.335 819.546 106.043 819.843 105.742Z" fill="#314E4B"/>
</g>
<defs>
<clipPath id="clip0_1572_20844">
<rect width="1282" height="721.125" fill="white"/>
</clipPath>
</defs>
</svg>
