<?xml version="1.0" encoding="UTF-8" standalone="no"?>
<!-- Created with Inkscape (http://www.inkscape.org/) -->

<svg
   width="135.24818mm"
   height="37.744072mm"
   viewBox="0 0 135.24818 37.744072"
   version="1.1"
   id="svg1492"
   xmlns="http://www.w3.org/2000/svg"
   xmlns:svg="http://www.w3.org/2000/svg">
  <defs
     id="defs1480" />
  <g
     id="g1490">
    <path
       d="m 70.298666,11.95491 q -1.04987,0 -1.97273,-0.54186 -0.922869,-0.54187 -1.498601,-1.5494 -0.567265,-1.00753 -0.567265,-2.3876 0,-1.38006 0.567265,-2.36219 0.567266,-0.9906 1.490131,-1.51553 0.92286,-0.52493 1.9812,-0.52493 1.04986,0 1.82879,0.42333 0.77893,0.41486 1.25307,1.12606 0.4826,0.7112 0.62653,1.60867 0.1524,0.88899 -0.0593,1.83726 h -5.54565 v -1.3716 h 3.56446 l -0.38947,0.254 q 0.0254,-0.29633 -0.0254,-0.60113 -0.0423,-0.3048 -0.1778,-0.5588 -0.13547,-0.26247 -0.38947,-0.41487 -0.24553,-0.16086 -0.63499,-0.16086 -0.4318,0 -0.75354,0.21166 -0.31326,0.2032 -0.49106,0.60114 -0.16933,0.38946 -0.16933,0.95673 v 1.0668 q 0,0.5334 0.15239,0.92286 0.1524,0.38947 0.44874,0.6096 0.3048,0.21167 0.762,0.21167 0.37253,0 0.65193,-0.1524 0.2794,-0.1524 0.38946,-0.4826 h 2.6924 q -0.127,0.77893 -0.62653,1.41393 -0.49107,0.635 -1.28693,1.00753 -0.7874,0.37253 -1.82033,0.37253 z m -6.602926,0 q -0.795866,0 -1.490131,-0.28786 Q 61.51981,11.37918 61.096478,10.76958 60.681612,10.15152 60.681612,9.18632 V 1.23613 h 2.726261 v 7.84859 q 0,0.762 0.753532,0.762 0.237066,0 0.499533,-0.0508 0.270932,-0.0593 0.626532,-0.18627 l 0.397932,1.88806 q -0.516465,0.18627 -0.990598,0.32174 -0.465666,0.13546 -0.999064,0.13546 z M 59.691014,5.09693 v -1.7526 h 5.613389 v 1.7526 z M 56.229209,11.68398 55.882076,9.45725 V 6.33306 q 0,-0.62654 -0.228599,-0.97367 -0.2286,-0.34713 -0.973665,-0.34713 -0.440266,0 -0.719665,0.13547 -0.270933,0.127 -0.4064,0.34713 -0.126999,0.21166 -0.126999,0.46566 h -2.929461 q 0,-0.98213 0.465666,-1.61713 0.465665,-0.64346 1.396997,-0.95673 0.931331,-0.31326 2.319862,-0.31326 1.210731,0 2.082796,0.37253 0.880531,0.37253 1.354664,1.1176 0.474132,0.74506 0.474132,1.87113 v 5.24932 z m -2.624662,0.27093 q -1.117597,0 -1.888063,-0.37253 -0.761998,-0.381 -1.151464,-1.02447 -0.389466,-0.64346 -0.389466,-1.42239 0,-0.7366 0.406399,-1.27 0.4064,-0.54187 1.202265,-0.8382 0.804331,-0.29633 1.972729,-0.29633 0.711199,0 1.253064,0.0762 0.550333,0.0762 1.126065,0.18627 v 1.52399 q -0.423333,-0.0931 -0.880532,-0.14393 -0.448732,-0.0508 -0.880531,-0.0508 -0.601133,0 -0.956732,0.19473 -0.347133,0.18627 -0.347133,0.61807 0,0.31326 0.313266,0.55033 0.313267,0.2286 0.990599,0.2286 0.575732,0 0.905931,-0.2286 0.330199,-0.2286 0.465666,-0.57573 0.135466,-0.34714 0.135466,-0.6858 h 0.634999 q 0,0.9652 -0.304799,1.76953 -0.3048,0.80433 -0.948265,1.28693 -0.643466,0.47413 -1.659464,0.47413 z M 44.22457,11.68398 V 3.29353 h 2.709328 v 8.39045 z m 2.133596,-3.55599 q 0,-1.7018 0.431799,-2.794 0.431799,-1.0922 1.092198,-1.61713 0.660399,-0.52493 1.346197,-0.52493 0.135467,0 0.270933,0.0169 0.135466,0.008 0.253999,0.0339 l 0.0254,2.72626 q -0.211666,-0.0254 -0.431799,-0.0339 -0.220133,-0.0169 -0.414866,-0.0169 -0.592665,0 -1.049864,0.22013 -0.448733,0.22014 -0.702732,0.70274 -0.245533,0.48259 -0.245533,1.28693 z m -5.400654,3.82692 q -0.795865,0 -1.490131,-0.28786 Q 38.781583,11.37918 38.35825,10.76958 37.943384,10.15152 37.943384,9.18632 V 1.23613 h 2.726262 v 7.84859 q 0,0.762 0.753531,0.762 0.237067,0 0.499533,-0.0508 0.270933,-0.0593 0.626532,-0.18627 l 0.397932,1.88806 q -0.516465,0.18627 -0.990598,0.32174 -0.465665,0.13546 -0.999064,0.13546 z M 36.952786,5.09693 v -1.7526 h 5.613389 v 1.7526 z m -4.156052,6.85798 q -1.193797,0 -2.108195,-0.31326 -0.914399,-0.32174 -1.430864,-0.95674 -0.507999,-0.64346 -0.499533,-1.61713 h 2.446862 q 0.01693,0.44027 0.338666,0.6096 0.3302,0.16934 0.888998,0.16934 0.338666,0 0.558799,-0.0847 0.220133,-0.0847 0.3302,-0.22013 0.110066,-0.14394 0.110066,-0.3048 0,-0.21167 -0.1524,-0.33867 -0.152399,-0.127 -0.474132,-0.254 L 30.781672,7.85702 Q 29.884207,7.48449 29.393141,6.91723 28.910542,6.34149 28.910542,5.55409 q 0,-1.10913 1.024465,-1.79493 1.024464,-0.68579 2.802461,-0.68579 1.66793,0 2.565395,0.77893 0.897465,0.77893 0.905931,1.98119 h -2.480728 q 0,-0.27093 -0.2286,-0.46566 -0.228599,-0.2032 -0.761998,-0.2032 -0.440266,0 -0.694265,0.14393 -0.254,0.14393 -0.254,0.381 0,0.32173 0.533399,0.508 l 2.302929,0.92286 q 0.855131,0.33867 1.346197,0.84667 0.491066,0.508 0.491066,1.27 0,0.69426 -0.482599,1.32079 -0.474133,0.61807 -1.303864,1.00754 -0.829732,0.38946 -1.879597,0.38946 z m -8.626446,0 q -0.719666,0 -1.346198,-0.4318 -0.618065,-0.44026 -0.999064,-1.34619 -0.372533,-0.9144 -0.372533,-2.32833 h 0.711199 q 0,0.44026 0.228599,0.8128 0.237066,0.37253 0.592666,0.60113 0.364066,0.22013 0.736598,0.22013 0.516466,0 0.880532,-0.26247 0.372532,-0.26246 0.575732,-0.71966 0.2032,-0.4572 0.2032,-1.03293 0,-0.55033 -0.2032,-0.9906 -0.194733,-0.44027 -0.567266,-0.69427 -0.372532,-0.254 -0.905931,-0.254 -0.414866,0 -0.770465,0.19474 -0.347133,0.19473 -0.558799,0.55033 -0.211666,0.34713 -0.211666,0.82126 h -0.711199 q 0,-1.34619 0.338666,-2.23519 0.347133,-0.89747 0.999065,-1.33773 0.660398,-0.44873 1.600197,-0.44873 1.049864,0 1.879596,0.55033 0.838198,0.55033 1.329264,1.54093 0.491066,0.98213 0.491066,2.30293 0,1.33773 -0.524933,2.35373 -0.516465,1.00753 -1.405464,1.57479 -0.880531,0.5588 -1.989662,0.5588 z M 19.454364,11.68398 V 0 h 2.709328 v 9.50805 l -1.015998,2.17593 z M 14.553235,3.29353 h 2.709328 v 8.39045 h -2.709328 z m -5.5287222,0 h 2.7093282 v 5.04612 q 0,0.57573 0.287866,0.85513 0.296333,0.27094 0.753532,0.27094 0.414866,0 0.821265,-0.2032 0.414866,-0.2032 0.685798,-0.69427 0.270933,-0.49106 0.270933,-1.36313 h 0.592666 q 0,1.65946 -0.380999,2.68393 -0.381,1.016 -1.041398,1.48166 -0.651932,0.46567 -1.481664,0.46567 -0.838199,0 -1.574797,-0.28787 Q 9.9304438,11.26065 9.4732448,10.56638 9.0245128,9.87212 9.0245128,8.65292 Z m -4.985782,8.66138 q -1.193798,0 -2.108196,-0.31326 -0.914398,-0.32174 -1.430864,-0.95674 -0.507999,-0.64346 -0.499532,-1.61713 h 2.446862 q 0.01693,0.44027 0.338666,0.6096 0.330199,0.16934 0.888998,0.16934 0.338666,0 0.558799,-0.0847 0.220133,-0.0847 0.330199,-0.22013 0.110067,-0.14394 0.110067,-0.3048 0,-0.21167 -0.1524,-0.33867 -0.1524,-0.127 -0.474132,-0.254 l -2.02353,-0.7874 Q 1.1262038,7.48449 0.6351378,6.91723 0.1525388,6.34149 0.1525388,5.55409 q 0,-1.10913 1.024464,-1.79493 1.024465,-0.68579 2.802462,-0.68579 1.66793,0 2.565395,0.77893 0.897464,0.77893 0.905931,1.98119 h -2.480728 q 0,-0.27093 -0.2286,-0.46566 -0.228599,-0.2032 -0.761998,-0.2032 -0.440266,0 -0.694266,0.14393 -0.253999,0.14393 -0.253999,0.381 0,0.32173 0.533399,0.508 l 2.302929,0.92286 q 0.855131,0.33867 1.346197,0.84667 0.491066,0.508 0.491066,1.27 0,0.69426 -0.482599,1.32079 -0.474133,0.61807 -1.303865,1.00754 -0.829731,0.38946 -1.879596,0.38946 z"
       id="path1482" />
    <path
       d="m 75.589706,13.27149 v -2.37066 h 9.63213 v 2.37066 z"
       style="fill:#18ffb2"
       id="path1484" />
    <path
       style="stroke-width:0.264583"
       d="m 26.692115,21.58433 v 11.68405 h 2.709396 V 21.58433 Z m 10.108427,0 v 4.09485 c -0.169455,-0.23092 -0.366779,-0.42194 -0.592728,-0.57258 -0.440266,-0.29915 -0.973889,-0.44855 -1.600419,-0.44855 -0.694267,0 -1.320673,0.18347 -1.879473,0.55035 -0.558798,0.36689 -1.001739,0.88008 -1.329116,1.54048 -0.32738,0.65475 -0.490926,1.42268 -0.490926,2.30322 0,0.89182 0.171936,1.67653 0.516247,2.35386 0.34431,0.67169 0.809794,1.1964 1.396814,1.57458 0.592664,0.37253 1.250516,0.55862 1.973006,0.55862 0.485421,0 0.93675,-0.14363 1.354439,-0.4315 0.354436,-0.24574 0.649481,-0.60065 0.885217,-1.06402 l 0.300241,1.22474 h 2.209684 V 21.58433 Z m -9.574091,0.54209 h 0.819587 0.819589 v 5.3051 5.30562 h -0.819589 -0.819587 v -5.30562 z m 10.104292,0 h 0.834573 0.834575 v 5.3051 5.30562 h -0.619083 -0.619085 l -0.267682,-1.10277 c -0.147293,-0.60646 -0.276558,-1.10269 -0.287321,-1.10278 -0.01077,-9e-5 -0.188458,0.33327 -0.394809,0.74053 -0.499724,0.98626 -0.718897,1.26608 -1.179772,1.50688 -0.361606,0.18894 -0.74322,0.2513 -1.208712,0.19792 -0.480684,-0.0551 -0.990459,-0.24194 -1.388546,-0.50901 -0.253876,-0.17033 -0.694354,-0.61855 -0.871781,-0.88677 -0.524425,-0.79278 -0.732303,-1.61463 -0.69505,-2.74764 0.0307,-0.93355 0.217548,-1.5713 0.659911,-2.25102 0.415589,-0.63859 1.043151,-1.10373 1.73891,-1.28829 0.245539,-0.0651 0.355259,-0.0768 0.721921,-0.078 0.510241,-0.002 0.731253,0.043 1.089856,0.22014 0.132238,0.0653 0.312973,0.18344 0.402042,0.26303 0.09099,0.0813 0.397211,0.46443 0.698664,0.87437 l 0.536403,0.72967 0.0078,-2.58848 z m 7.740613,2.53163 c -0.705554,0 -1.366031,0.17456 -1.981274,0.52451 -0.615244,0.34996 -1.112174,0.85528 -1.49035,1.51568 -0.378177,0.65475 -0.566889,1.44208 -0.566889,2.36212 0,0.92004 0.188712,1.71629 0.566889,2.38797 0.383823,0.67169 0.883375,1.18802 1.498618,1.54926 0.615244,0.36125 1.273096,0.54157 1.973006,0.54157 0.68862,0 1.295112,-0.12371 1.820042,-0.37207 0.530577,-0.24835 0.959885,-0.58436 1.287262,-1.00769 0.33302,-0.42333 0.541652,-0.89458 0.626319,-1.41387 h -2.692345 c -0.07338,0.22014 -0.203372,0.38106 -0.389638,0.48266 -0.186267,0.1016 -0.403286,0.15245 -0.65164,0.15245 -0.3048,0 -0.559028,-0.0708 -0.762228,-0.21188 -0.197556,-0.14675 -0.34695,-0.35013 -0.44855,-0.60978 -0.09995,-0.25542 -0.150308,-0.5576 -0.151929,-0.90589 h 5.011578 c 0.141113,-0.63217 0.161028,-1.24443 0.05943,-1.83709 -0.09595,-0.59831 -0.304585,-1.13456 -0.626319,-1.60869 -0.316087,-0.47413 -0.733864,-0.84945 -1.253151,-1.12603 -0.51929,-0.28222 -1.128919,-0.42323 -1.828829,-0.42323 z m 14.975313,0 c -1.18533,0 -2.119437,0.22855 -2.802414,0.68575 -0.682976,0.4572 -1.024744,1.0553 -1.024744,1.79472 0,0.52493 0.160925,0.9794 0.482658,1.36322 0.327377,0.37818 0.790237,0.69164 1.388547,0.94 l 2.02365,0.78703 c 0.214487,0.0847 0.372789,0.16959 0.474387,0.25425 0.101602,0.0847 0.151929,0.19736 0.151929,0.33848 0,0.10725 -0.03669,0.20894 -0.110069,0.30489 -0.07338,0.0903 -0.182941,0.16367 -0.329698,0.22014 -0.146754,0.0565 -0.333361,0.0847 -0.559138,0.0847 -0.372531,0 -0.6687,-0.0566 -0.888834,-0.1695 -0.214492,-0.11289 -0.32771,-0.31627 -0.338997,-0.60978 h -2.446364 c -0.0056,0.64911 0.160531,1.18849 0.499195,1.61747 0.34431,0.42333 0.821322,0.74205 1.430922,0.95653 0.609597,0.20885 1.312532,0.31316 2.108398,0.31316 0.69991,0 1.326317,-0.12947 1.879471,-0.38912 0.553156,-0.25965 0.987708,-0.59565 1.303797,-1.00769 0.321731,-0.41769 0.482659,-0.858 0.482659,-1.32085 0,-0.508 -0.16355,-0.93102 -0.490927,-1.26969 -0.327379,-0.33867 -0.776084,-0.62121 -1.346171,-0.84698 l -2.303219,-0.92294 c -0.3556,-0.12417 -0.533302,-0.29349 -0.533302,-0.50798 0,-0.15804 0.0844,-0.2849 0.253733,-0.38085 0.169333,-0.096 0.401021,-0.14418 0.694531,-0.14418 0.355598,0 0.609828,0.0681 0.762228,0.2036 0.1524,0.12982 0.228409,0.28498 0.228409,0.46561 h 2.480469 C 63.512175,26.61652 63.210197,25.95605 62.611887,25.43676 62.013576,24.91748 61.158623,24.658 60.046669,24.658 Z m -4.697904,0.11834 c -0.4572,0 -0.905907,0.17507 -1.346171,0.52503 -0.369938,0.29405 -0.685927,0.72207 -0.948264,1.28313 v -1.70636 h -2.709394 v 8.39019 h 2.709394 v -3.55586 c 0,-0.53622 0.08178,-0.96501 0.245464,-1.28674 0.169334,-0.32173 0.403643,-0.55605 0.7028,-0.7028 0.304797,-0.14676 0.654955,-0.22014 1.050065,-0.22014 0.12982,0 0.267689,0.005 0.414443,0.0165 0.146757,0.006 0.290904,0.0172 0.432017,0.0341 l -0.02532,-2.72645 c -0.07902,-0.0173 -0.163936,-0.0282 -0.254247,-0.0336 -0.09031,-0.0113 -0.180474,-0.017 -0.270785,-0.017 z m 4.643643,0.42271 c 0.201123,5e-5 0.403675,0.01 0.604097,0.03 0.462764,0.0465 0.840997,0.14933 1.199928,0.3266 0.260866,0.12884 0.348504,0.19235 0.568957,0.41083 0.212847,0.21095 0.282972,0.30462 0.382921,0.51159 0.06729,0.13934 0.130805,0.28351 0.141079,0.3204 l 0.0186,0.0672 h -0.747242 c -0.434573,0 -0.747241,-0.012 -0.747241,-0.0279 0,-0.0733 -0.316302,-0.36509 -0.486275,-0.44855 -0.637027,-0.31281 -1.662706,-0.20822 -2.083594,0.21291 -0.39392,0.39414 -0.369205,1.04129 0.05271,1.38906 0.183139,0.15096 0.338524,0.22126 1.665015,0.75137 1.711272,0.68389 1.857275,0.75625 2.245342,1.1157 0.393459,0.36444 0.519117,0.90045 0.335896,1.43299 -0.265409,0.77142 -1.213144,1.45263 -2.279965,1.63865 -0.336719,0.0587 -0.952592,0.0794 -1.341519,0.045 -1.126522,-0.0997 -1.933234,-0.41283 -2.428793,-0.94258 -0.1836,-0.19627 -0.366692,-0.52828 -0.404109,-0.73329 l -0.02016,-0.11162 h 0.70073 0.700733 l 0.09457,0.14728 c 0.270523,0.42157 0.67337,0.59416 1.446424,0.61908 0.501928,0.0162 0.729022,-0.0203 1.020093,-0.16278 0.487066,-0.2385 0.741725,-0.73134 0.621149,-1.202 -0.05838,-0.22788 -0.125854,-0.34082 -0.297656,-0.49919 -0.190775,-0.17585 -0.438058,-0.28976 -1.639176,-0.75654 -1.436346,-0.55818 -1.710335,-0.70002 -2.091343,-1.08004 -0.477952,-0.4767 -0.595911,-1.20945 -0.291973,-1.81281 0.108542,-0.21547 0.480692,-0.5735 0.761193,-0.73174 0.578696,-0.32646 1.428064,-0.50975 2.299602,-0.50953 z m -14.844572,0.002 c 0.519631,0.004 1.035172,0.12284 1.491383,0.36276 0.794858,0.41803 1.336664,1.16001 1.559078,2.13579 0.08017,0.35173 0.120145,0.89886 0.08785,1.20044 l -0.0217,0.20051 h -2.5492 -2.549715 l 0.01497,0.55914 c 0.01164,0.43887 0.02797,0.61013 0.07752,0.79737 0.147564,0.55757 0.488495,1.03473 0.889352,1.24488 0.298614,0.15655 0.533429,0.21032 0.917773,0.21032 0.543232,0 0.934186,-0.14501 1.243336,-0.46095 l 0.171048,-0.17466 h 0.790649 c 0.636283,0 0.790651,0.008 0.790651,0.0393 0,0.0217 -0.07955,0.16046 -0.176733,0.30799 -0.437216,0.66366 -1.160757,1.1317 -1.997295,1.29243 -0.352404,0.0677 -0.897586,0.0941 -1.194242,0.0574 v -5.3e-4 c -1.342617,-0.16616 -2.459974,-1.11154 -2.903699,-2.4567 -0.135564,-0.41097 -0.19844,-0.86356 -0.198956,-1.43092 -5.29e-4,-0.53243 0.02582,-0.79178 0.122992,-1.20199 0.157144,-0.66336 0.534749,-1.30248 1.057817,-1.79008 0.633632,-0.59067 1.511065,-0.89989 2.377115,-0.89245 z m 10.142017,0.1111 c 0.01326,1.4e-4 0.02228,0.002 0.02635,0.006 0.0063,0.006 0.01606,0.37752 0.0217,0.82424 l 0.01035,0.81235 h -0.223758 c -0.552016,1.8e-4 -1.12418,0.13434 -1.485696,0.34882 -0.551892,0.32743 -0.889209,0.82812 -1.054201,1.56425 -0.05832,0.26019 -0.06294,0.38815 -0.07493,2.07325 l -0.01291,1.79576 H 51.69474 50.892206 v -3.65149 -3.65094 h 0.805119 0.804601 v 0.58135 c 0,0.31967 0.0044,0.58085 0.0098,0.58085 0.0055,0 0.21931,0.047 0.475424,0.10439 0.499843,0.11198 0.587561,0.12288 0.587561,0.0718 0,-0.018 0.07547,-0.16219 0.167946,-0.3204 0.23825,-0.40761 0.618792,-0.78323 0.965835,-0.95394 0.193509,-0.0952 0.488617,-0.1875 0.581359,-0.18656 z M 45.10908,26.2708 c -0.232648,0.004 -0.476168,0.0345 -0.624768,0.0858 -0.561616,0.19396 -0.981573,0.63557 -1.17719,1.23868 -0.07147,0.22035 -0.163107,0.85112 -0.163814,1.12552 l -5.29e-4,0.11162 h 1.877922 1.877404 v -0.36484 c -2.54e-4,-0.82193 -0.187306,-1.37722 -0.592727,-1.75854 -0.217287,-0.20438 -0.43652,-0.32544 -0.723469,-0.39895 -0.117438,-0.0301 -0.291893,-0.0425 -0.472839,-0.0393 z m -9.841261,0.3023 c -0.237694,0.003 -0.483212,0.041 -0.7121,0.11214 -0.541054,0.16801 -1.033097,0.64147 -1.265558,1.21698 -0.321852,0.79682 -0.275272,1.8367 0.115756,2.58434 0.09285,0.17752 0.193029,0.30757 0.392742,0.50798 0.344389,0.34561 0.611304,0.4885 1.102775,0.59066 0.174414,0.0363 0.617646,0.0149 0.831474,-0.0398 0.376042,-0.0962 0.619866,-0.24248 0.94206,-0.56585 0.324951,-0.32615 0.498112,-0.61688 0.596347,-1.00098 0.05087,-0.1989 0.05943,-0.33084 0.05943,-0.93741 0,-0.59994 -0.0089,-0.73984 -0.05788,-0.93121 -0.105201,-0.41133 -0.366262,-0.82688 -0.683162,-1.08675 -0.184155,-0.15101 -0.561382,-0.33862 -0.792199,-0.39429 -0.164679,-0.0397 -0.34481,-0.0583 -0.529685,-0.0558 z m 9.854178,0.22686 c 0.259646,0 0.471416,0.0535 0.635103,0.16072 0.169334,0.1016 0.299331,0.23999 0.389642,0.41496 0.09031,0.16933 0.149547,0.35542 0.177768,0.55862 0.01945,0.11667 0.02985,0.23246 0.03255,0.34727 h -2.63653 c 0.02199,-0.25482 0.07414,-0.47789 0.157096,-0.66869 0.118533,-0.26529 0.282083,-0.46605 0.490926,-0.60152 0.214488,-0.14111 0.465577,-0.21135 0.753441,-0.21136 z m -9.828855,0.31316 c 0.276577,0 0.52818,0.065 0.753959,0.19483 0.225777,0.12982 0.406101,0.31328 0.541568,0.55035 0.14111,0.23143 0.211873,0.50505 0.211873,0.82114 v 0.75344 c 0,0.29351 -0.07338,0.56452 -0.220141,0.81287 -0.146757,0.24835 -0.338609,0.4486 -0.575676,0.601 -0.231423,0.14675 -0.479885,0.22014 -0.745175,0.22014 -0.33302,0 -0.623943,-0.0875 -0.872296,-0.26252 -0.248357,-0.17498 -0.440209,-0.41453 -0.575676,-0.71933 -0.129823,-0.3048 -0.19482,-0.6492 -0.19482,-1.03302 0,-0.36688 0.065,-0.69712 0.19482,-0.99063 0.129821,-0.29351 0.319051,-0.52468 0.567407,-0.69402 0.254,-0.16933 0.558557,-0.25425 0.914157,-0.25425 z M 22.883562,20.8055 c -0.513644,0 -0.912021,0.141 -1.194242,0.42323 -0.276577,0.27657 -0.414446,0.64927 -0.414446,1.11776 0,0.47978 0.137869,0.85247 0.414446,1.11776 0.282221,0.25965 0.680598,0.38913 1.194242,0.38913 0.49671,0 0.888807,-0.12948 1.176673,-0.38913 0.287867,-0.26529 0.432015,-0.63798 0.432015,-1.11776 0,-0.46849 -0.144148,-0.84119 -0.432015,-1.11776 C 23.772369,20.9465 23.380272,20.8055 22.883562,20.8055 Z m -0.0217,0.54622 c 0.01222,-1.6e-4 0.02418,-2e-5 0.03669,0 0.372274,7.9e-4 0.611703,0.0956 0.817523,0.32453 0.220919,0.24571 0.290322,0.63959 0.181382,1.02784 -0.06646,0.23686 -0.251224,0.43131 -0.494543,0.5209 -0.201232,0.0741 -0.588738,0.1034 -0.820621,0.062 -0.526624,-0.094 -0.750859,-0.37375 -0.750859,-0.93741 0,-0.32393 0.06298,-0.52378 0.217041,-0.69091 0.194667,-0.2112 0.434615,-0.30212 0.813387,-0.30696 z m -1.333251,3.5264 v 8.39018 h 2.709394 v -8.39018 z m 0.541567,0.55655 h 0.81959 0.819589 v 3.65094 3.65146 h -0.819589 -0.81959 v -3.6515 z M 10.83624,24.87812 v 5.35936 c 0,0.8128 0.149913,1.45022 0.44907,1.91306 0.304797,0.46285 0.702659,0.79046 1.193723,0.98237 0.491066,0.19191 1.015783,0.28784 1.574583,0.28784 0.553154,0 1.04694,-0.15517 1.481563,-0.4656 0.32848,-0.23163 0.605129,-0.56564 0.829921,-1.00149 v 1.31464 h 2.709397 V 24.87812 H 16.3651 v 3.91139 c 0,0.58138 -0.09016,1.03584 -0.270782,1.36322 -0.180623,0.32738 -0.40917,0.55855 -0.685747,0.69402 -0.270933,0.13546 -0.545079,0.2036 -0.821656,0.2036 -0.3048,0 -0.555887,-0.0907 -0.753443,-0.2713 -0.19191,-0.18627 -0.287838,-0.47143 -0.287838,-0.85524 v -5.04569 z m 0.533818,0.55655 h 0.819587 0.819589 v 2.39469 c 0,2.27003 0.0032,2.40627 0.05788,2.61999 0.08025,0.31378 0.190605,0.51573 0.38654,0.70745 0.298304,0.29187 0.672565,0.42925 1.165302,0.42737 0.477009,-0.002 0.983035,-0.17251 1.363741,-0.45992 0.35333,-0.26674 0.684112,-0.79576 0.808736,-1.29346 0.104916,-0.41899 0.122473,-0.79504 0.122473,-2.62568 v -1.77044 h 0.804604 0.8046 v 3.65094 3.65146 h -0.8046 -0.804604 V 32.3402 31.9428 l -0.511595,-0.12505 c -0.28121,-0.0687 -0.513316,-0.12109 -0.516247,-0.11679 -0.0029,0.004 -0.05553,0.0914 -0.11679,0.19378 -0.306104,0.51163 -0.784823,0.84621 -1.35909,0.9493 -0.247939,0.0445 -0.434171,0.0464 -0.791165,0.009 -0.354741,-0.0373 -0.792364,-0.15736 -1.083139,-0.29766 -0.209412,-0.10104 -0.304508,-0.1718 -0.513148,-0.38086 -0.398876,-0.39968 -0.557684,-0.78688 -0.621665,-1.51618 -0.01796,-0.20471 -0.03083,-1.36284 -0.03101,-2.78691 z M 0.8130758,21.58433 v 11.68405 h 1.693437 l 0.68988,-1.47743 c 0.252364,0.58888 0.581289,1.02807 0.986501,1.31671 0.41769,0.28787 0.866394,0.4315 1.346174,0.4315 0.73942,0 1.402522,-0.18609 1.989542,-0.55862 0.592664,-0.37818 1.061289,-0.90289 1.405599,-1.57458 0.349954,-0.67733 0.524515,-1.46204 0.524515,-2.35386 0,-0.88054 -0.163549,-1.64847 -0.490926,-2.30322 -0.327377,-0.6604 -0.770319,-1.17359 -1.329119,-1.54048 -0.553153,-0.36688 -1.17956,-0.55035 -1.87947,-0.55035 -0.626533,0 -1.160156,0.1494 -1.60042,0.44855 -0.239694,0.16187 -0.448429,0.37019 -0.626319,0.62477 v -4.14704 z m 0.542084,0.54209 h 0.804603 0.805119 v 2.63291 c 0,1.44807 0.0081,2.6411 0.0186,2.65152 0.01042,0.0104 0.254987,-0.31935 0.543121,-0.73277 0.545235,-0.78231 0.745067,-1.01166 1.025261,-1.17822 0.523639,-0.31126 1.367694,-0.38608 2.040183,-0.18087 1.123627,0.34285 1.979475,1.40324 2.233972,2.76831 0.07564,0.40573 0.07673,1.50904 0.0016,1.90789 -0.150823,0.80169 -0.529034,1.54892 -1.04748,2.07068 -0.524558,0.5279 -1.157386,0.83174 -1.894459,0.90899 -0.353751,0.0371 -0.440693,0.0348 -0.700215,-0.016 h -5.29e-4 c -0.296881,-0.0583 -0.657638,-0.24913 -0.879014,-0.46509 -0.316185,-0.30843 -0.443125,-0.53737 -0.946195,-1.70894 -0.06335,-0.14754 -0.127657,-0.2666 -0.143145,-0.26458 -0.01548,0.002 -0.261713,0.5019 -0.546735,1.11053 l -0.518316,1.10639 h -0.39791 -0.398425 v -5.30562 z m 3.725873,4.45709 c -0.216398,-3e-5 -0.432702,0.018 -0.566375,0.0543 -0.722278,0.19585 -1.269114,0.74483 -1.465543,1.47072 -0.05512,0.20371 -0.06303,0.31713 -0.06459,0.91777 -0.0016,0.55562 0.0076,0.72505 0.04961,0.89348 0.190381,0.76453 0.837033,1.43107 1.576131,1.62471 0.2945,0.0772 0.690348,0.0772 0.99477,5.3e-4 0.38863,-0.0979 0.646665,-0.24539 0.936378,-0.53588 0.400342,-0.40141 0.606449,-0.83083 0.70435,-1.46865 0.118679,-0.77317 -0.06412,-1.59144 -0.481626,-2.1549 -0.261242,-0.35259 -0.669364,-0.62552 -1.116727,-0.74725 -0.133363,-0.0363 -0.349977,-0.0547 -0.566372,-0.0548 z m -0.0181,0.52969 c 0.355598,0 0.658048,0.0849 0.906405,0.25425 0.248353,0.16933 0.437067,0.4005 0.566891,0.69401 0.135464,0.29351 0.203604,0.62375 0.203604,0.99064 0,0.38382 -0.06814,0.72821 -0.203604,1.03301 -0.135467,0.3048 -0.327322,0.54435 -0.575676,0.71933 -0.242712,0.17498 -0.536257,0.26252 -0.880567,0.26252 -0.248357,0 -0.493678,-0.0734 -0.736389,-0.22014 -0.237066,-0.1524 -0.434686,-0.35264 -0.59273,-0.601 -0.1524,-0.24835 -0.228409,-0.51935 -0.228409,-0.81287 v -0.75344 c 0,-0.31609 0.07025,-0.58971 0.211357,-0.82114 0.14111,-0.23707 0.327715,-0.42053 0.559139,-0.55035 0.237066,-0.12982 0.493402,-0.19482 0.769979,-0.19482 z M 103.70807,22.67677 c -0.44591,0 -0.88047,0.10432 -1.3038,0.31316 -0.42333,0.20885 -0.77034,0.5024 -1.04128,0.88057 -0.24358,0.34 -0.37745,0.73494 -0.40204,1.18442 -0.0323,-0.0141 -0.0647,-0.0279 -0.0977,-0.0413 -0.58138,-0.23706 -1.205156,-0.35553 -1.871196,-0.35553 -0.67734,0 -1.30636,0.11847 -1.88774,0.35553 -0.57573,0.23707 -1.04173,0.57832 -1.39733,1.02423 -0.3556,0.44027 -0.5333,0.96812 -0.5333,1.58337 0,0.5983 0.1777,1.11777 0.5333,1.55804 0.16428,0.20079 0.35252,0.38071 0.56379,0.54054 -0.0652,0.0211 -0.12942,0.0432 -0.19121,0.0687 -0.34995,0.14675 -0.62095,0.35275 -0.81287,0.61804 -0.1919,0.26529 -0.28783,0.57299 -0.28783,0.92295 0,0.42333 0.16093,0.80441 0.48265,1.14308 0.16179,0.16457 0.34619,0.31172 0.55346,0.44183 -0.51418,0.0157 -0.95284,0.16765 -1.31568,0.45579 -0.38383,0.3048 -0.57568,0.7252 -0.57568,1.26142 0,0.508 0.18661,0.98764 0.55914,1.43919 0.37818,0.4572 0.9312,0.82726 1.65933,1.10949 0.73377,0.28786 1.63119,0.4315 2.69234,0.4315 0.970836,0 1.817406,-0.18347 2.539896,-0.55035 0.72248,-0.36124 1.28441,-0.83511 1.68517,-1.42214 0.40075,-0.58137 0.60099,-1.1994 0.60099,-1.85415 0,-0.76765 -0.28202,-1.30965 -0.84646,-1.62574 -0.56444,-0.32173 -1.34338,-0.48266 -2.3368,-0.48266 h -2.345596 c -0.37818,0 -0.6518,-0.0508 -0.82114,-0.15244 -0.16933,-0.10724 -0.25424,-0.25664 -0.25424,-0.44855 0,-0.14676 0.0367,-0.26836 0.11007,-0.36432 0.0734,-0.1016 0.17245,-0.17761 0.29662,-0.22841 0.0603,-0.0236 0.12373,-0.0416 0.19017,-0.0543 0.36324,0.0811 0.7429,0.12195 1.13895,0.12195 0.66604,0 1.289816,-0.11846 1.871196,-0.35553 0.58137,-0.24272 1.05262,-0.58134 1.41387,-1.01596 0.36124,-0.44027 0.54208,-0.95974 0.54208,-1.55804 0,-0.61525 -0.18084,-1.1431 -0.54208,-1.58337 -0.0313,-0.0387 -0.0636,-0.0761 -0.0966,-0.11317 0.0245,-0.2208 0.14411,-0.38607 0.35915,-0.4961 0.24272,-0.12982 0.59864,-0.19482 1.06712,-0.19482 z m -0.56069,0.61495 -0.0171,0.33332 c -0.01,0.18353 -0.0257,0.50243 -0.0357,0.70848 l -0.0181,0.37466 -0.28784,0.0661 c -0.72288,0.16618 -1.086,0.53007 -1.15238,1.15445 l -0.0196,0.1819 0.1664,0.19069 c 0.18853,0.21615 0.34433,0.49452 0.42374,0.75758 0.0754,0.24983 0.0754,0.85303 0,1.10122 -0.26115,0.85971 -1.11137,1.49923 -2.347656,1.76579 -0.35751,0.0771 -1.35919,0.0763 -1.74098,-10e-4 -0.25457,-0.0516 -0.27991,-0.0515 -0.46198,-0.005 -0.27124,0.0699 -0.45514,0.17839 -0.63924,0.37724 -0.21211,0.22911 -0.2904,0.43367 -0.29352,0.76998 -0.002,0.21633 0.0104,0.2793 0.0801,0.43201 0.10378,0.22608 0.28312,0.41233 0.50747,0.52659 0.34317,0.17477 0.40182,0.17974 2.38796,0.20412 1.469016,0.018 1.864366,0.0317 2.057756,0.0698 0.77908,0.15359 1.25674,0.42159 1.42989,0.80254 0.20576,0.45268 0.15961,1.16755 -0.11369,1.75906 -0.52637,1.13926 -1.75703,1.95927 -3.229776,2.15233 -0.3077,0.0403 -1.27346,0.0553 -1.58957,0.0248 v 5.3e-4 c -1.36369,-0.13153 -2.39236,-0.53573 -3.02513,-1.18856 -0.40018,-0.41286 -0.56695,-0.80249 -0.54622,-1.27641 0.0148,-0.33835 0.10518,-0.54921 0.31677,-0.73742 0.3043,-0.27068 0.68822,-0.38315 1.31207,-0.38396 l 0.39791,-5.3e-4 -0.12144,0.13798 c -0.25572,0.29051 -0.37628,0.71291 -0.31109,1.09192 0.13472,0.78315 0.88932,1.20948 2.30941,1.30483 1.13944,0.0765 2.010916,-0.17534 2.581236,-0.74672 0.41138,-0.41214 0.60817,-0.93049 0.54054,-1.42317 -0.046,-0.33485 -0.22305,-0.57453 -0.53072,-0.71882 l -0.1664,-0.078 -1.478456,-0.009 c -1.26183,-0.007 -1.52409,-0.002 -1.78852,0.0408 -0.17041,0.0272 -0.32991,0.0505 -0.3545,0.0517 -0.0246,0.001 -0.31971,-0.17072 -0.65577,-0.38241 -0.97066,-0.61142 -1.20119,-0.88432 -1.202,-1.42007 -2.6e-4,-0.19749 0.0124,-0.25505 0.0951,-0.42323 0.10503,-0.21332 0.29075,-0.39838 0.51159,-0.51056 0.074,-0.0376 0.39149,-0.15265 0.7059,-0.2558 0.31442,-0.10315 0.56604,-0.19708 0.55914,-0.20825 -0.007,-0.0112 -0.23164,-0.18809 -0.49919,-0.39326 -0.57421,-0.44029 -0.83509,-0.709 -0.98702,-1.01647 -0.30552,-0.61834 -0.25082,-1.44564 0.13229,-2.00247 0.48556,-0.70574 1.41604,-1.16946 2.54816,-1.26969 0.8022,-0.071 1.492646,0.0525 2.337326,0.41807 0.26977,0.11675 0.4988,0.21238 0.50901,0.21238 0.0102,0 0.033,-0.23139 0.0506,-0.51418 0.0366,-0.59011 0.0913,-0.80651 0.27234,-1.08262 0.27734,-0.42298 0.79147,-0.80141 1.26607,-0.93172 z m -28.815294,1.36633 c -0.50235,0 -0.97674,0.12948 -1.42265,0.38912 -0.33565,0.1912 -0.62328,0.47202 -0.86299,0.84233 l -0.22066,-0.96067 h -2.20969 v 12.38685 h 2.7094 v -4.3987 c 0.10175,0.0948 0.21163,0.17863 0.33021,0.25011 0.41205,0.24836 0.92575,0.37207 1.54099,0.37207 0.70555,0 1.36603,-0.17455 1.98128,-0.52451 0.62088,-0.34996 1.12043,-0.85527 1.49861,-1.51567 0.38382,-0.6604 0.57568,-1.45927 0.57568,-2.39624 0,-0.94262 -0.18923,-1.7441 -0.56741,-2.4045 -0.37253,-0.6604 -0.85793,-1.16572 -1.45624,-1.51568 -0.59831,-0.34995 -1.23049,-0.52451 -1.89653,-0.52451 z m 15.50035,0 c -0.77329,0 -1.48461,0.15779 -2.13372,0.47387 -0.64347,0.31045 -1.15979,0.79322 -1.54926,1.44798 -0.38382,0.65475 -0.57567,1.50132 -0.57567,2.53989 0,1.00471 0.19185,1.8345 0.57567,2.48926 0.38947,0.6491 0.90579,1.1345 1.54926,1.45624 0.64911,0.31609 1.36043,0.47387 2.13372,0.47387 0.756348,0 1.453528,-0.15778 2.091348,-0.47387 0.63781,-0.32174 1.14838,-0.80714 1.5322,-1.45624 0.38947,-0.65476 0.58446,-1.48455 0.58446,-2.48926 0,-1.03857 -0.19499,-1.88514 -0.58446,-2.53989 -0.38382,-0.65476 -0.89439,-1.13753 -1.5322,-1.44798 -0.63782,-0.31608 -1.335,-0.47387 -2.091348,-0.47387 z m 25.675944,0 c -0.92568,0 -1.69887,0.10431 -2.31975,0.31316 -0.6209,0.20884 -1.08638,0.52755 -1.39682,0.95653 -0.31044,0.42333 -0.46612,0.96272 -0.46612,1.61747 h 2.92954 c 0,-0.16933 0.0425,-0.32501 0.12712,-0.46612 0.0903,-0.14675 0.22556,-0.26208 0.40618,-0.34675 0.18626,-0.0903 0.42634,-0.13539 0.71985,-0.13539 0.49671,0 0.82118,0.11532 0.97358,0.34675 0.1524,0.23142 0.22893,0.55589 0.22893,0.97358 v 0.61392 c -0.29587,-0.0532 -0.58669,-0.1 -0.8723,-0.13953 -0.36124,-0.0508 -0.77901,-0.076 -1.25315,-0.076 -0.77893,0 -1.43627,0.0985 -1.97249,0.2961 -0.53057,0.19756 -0.93157,0.47695 -1.20251,0.8382 -0.27093,0.3556 -0.40618,0.77913 -0.40618,1.2702 0,0.51929 0.13,0.99316 0.38965,1.42214 0.25963,0.42897 0.64335,0.77074 1.15135,1.02474 0.51364,0.24836 1.14267,0.37207 1.88773,0.37207 0.67734,0 1.23087,-0.15778 1.65985,-0.47387 0.32941,-0.24706 0.59179,-0.55768 0.78807,-0.93121 l 0.17673,1.1343 h 2.36265 v -5.24929 c 0,-0.75071 -0.15831,-1.3745 -0.47439,-1.87121 -0.3161,-0.49671 -0.76742,-0.86889 -1.35444,-1.11724 -0.58137,-0.24836 -1.27592,-0.37259 -2.08308,-0.37259 z m 11.09855,0 c -0.508,0 -0.97925,0.11533 -1.41387,0.34675 -0.42898,0.23142 -0.78701,0.59835 -1.07487,1.10071 l -0.28784,-1.17668 h -2.38796 v 8.33955 h 2.70939 v -3.51349 c 0,-0.63781 0.076,-1.1489 0.22841,-1.53272 0.15805,-0.38946 0.3672,-0.67148 0.62684,-0.84646 0.25964,-0.17497 0.5448,-0.26251 0.85524,-0.26251 0.30479,0 0.56427,0.10745 0.77877,0.32194 0.21448,0.20885 0.32194,0.53332 0.32194,0.97358 v 4.85966 h 2.72593 v -3.51349 c 0,-0.96519 0.14677,-1.64558 0.44028,-2.0407 0.29351,-0.40075 0.67197,-0.60099 1.13482,-0.60099 0.31608,0 0.57818,0.10745 0.78703,0.32194 0.21449,0.20885 0.32195,0.53332 0.32195,0.97358 v 4.85966 h 2.74298 v -4.85966 c 0,-0.72813 -0.11008,-1.37445 -0.33021,-1.93889 -0.21449,-0.56445 -0.54998,-1.00739 -1.00718,-1.32912 -0.45155,-0.32174 -1.03288,-0.48266 -1.74407,-0.48266 -0.46284,0 -0.90054,0.0818 -1.31259,0.24546 -0.4064,0.15805 -0.76757,0.42905 -1.08365,0.81287 -0.13123,0.157 -0.25076,0.33852 -0.35863,0.54415 -0.21416,-0.46586 -0.5207,-0.83894 -0.91985,-1.11982 -0.45155,-0.32174 -1.03602,-0.48266 -1.75286,-0.48266 z m -41.862044,0.11834 c -0.45719,0 -0.9059,0.17507 -1.34617,0.52503 -0.36993,0.29405 -0.68592,0.72207 -0.94826,1.28313 v -1.70636 h -2.70939 v 8.39019 h 2.70939 v -3.55586 c 0,-0.53622 0.0818,-0.96501 0.24546,-1.28674 0.16934,-0.32173 0.40364,-0.55605 0.7028,-0.7028 0.3048,-0.14676 0.65496,-0.22014 1.05007,-0.22014 0.12982,0 0.26769,0.005 0.41444,0.0165 0.14676,0.006 0.29091,0.0172 0.43202,0.0341 l -0.0253,-2.72645 c -0.079,-0.0173 -0.16394,-0.0282 -0.25425,-0.0336 -0.0903,-0.0113 -0.18047,-0.017 -0.27079,-0.017 z m 25.312144,0 c -0.4572,0 -0.9059,0.17507 -1.34617,0.52503 -0.36993,0.29405 -0.68592,0.72207 -0.94826,1.28313 v -1.70636 h -2.70939 v 8.39019 h 2.70939 v -3.55586 c 0,-0.53622 0.0818,-0.96501 0.24546,-1.28674 0.16934,-0.32173 0.40365,-0.55605 0.7028,-0.7028 0.3048,-0.14676 0.65444,-0.22014 1.04955,-0.22014 0.12982,0 0.26821,0.005 0.41496,0.0165 0.14676,0.006 0.29091,0.0172 0.43202,0.0341 l -0.0253,-2.72645 c -0.079,-0.0173 -0.16394,-0.0282 -0.25425,-0.0336 -0.0903,-0.0113 -0.18047,-0.017 -0.27079,-0.017 z m 21.98109,0.42736 c 0.51841,-0.003 1.02077,0.11958 1.37201,0.3545 0.59917,0.40075 0.93865,1.02601 1.10639,2.03761 0.0423,0.25506 0.0512,0.6473 0.0625,2.71972 l 0.0129,2.42156 h -0.83715 -0.83716 v -2.26136 c 0,-2.52345 -0.005,-2.59619 -0.19327,-3.00498 -0.2475,-0.53569 -0.84194,-0.90073 -1.46968,-0.90279 -0.39832,-0.001 -0.89433,0.17629 -1.18701,0.42478 -0.48478,0.41158 -0.73352,0.92374 -0.86351,1.78025 -0.0379,0.24975 -0.0504,0.68151 -0.0631,2.13838 l -0.016,1.82572 h -0.81597 -0.81598 v -2.34972 c 0,-2.24259 -0.003,-2.3605 -0.0589,-2.58021 -0.20503,-0.8016 -0.90609,-1.29711 -1.73685,-1.22783 -0.96272,0.0803 -1.66579,0.74729 -1.94407,1.84433 -0.12015,0.47363 -0.13487,0.75836 -0.13487,2.58331 v 1.73012 h -0.81959 -0.81959 l -5.3e-4,-3.63647 v -3.63595 h 0.71158 0.71107 l 0.2279,0.93121 c 0.12514,0.51229 0.23568,0.97508 0.24597,1.02836 0.0103,0.0533 0.0284,0.0966 0.0403,0.0966 0.0119,0 0.19327,-0.29825 0.40308,-0.663 0.20981,-0.36476 0.44094,-0.74079 0.51366,-0.83561 0.46083,-0.60077 1.23096,-0.89283 2.11202,-0.80099 0.58284,0.0607 0.94662,0.21026 1.29604,0.53279 0.28604,0.26403 0.40586,0.45018 0.71055,1.10432 0.15446,0.33159 0.28869,0.60274 0.29818,0.60255 0.009,-1.8e-4 0.13823,-0.23006 0.28577,-0.51108 0.35572,-0.67755 0.45949,-0.83546 0.71262,-1.08314 0.26035,-0.25476 0.51308,-0.40595 0.86919,-0.52038 0.29376,-0.0944 0.61035,-0.14096 0.9214,-0.14263 z m -57.656934,5.3e-4 c 0.26261,0.003 0.53833,0.0459 0.8263,0.12919 0.52927,0.15301 1.12443,0.51998 1.48208,0.91364 0.2183,0.24027 0.52193,0.69561 0.65371,0.98082 0.50022,1.08267 0.48465,2.75163 -0.0351,3.79512 -0.35806,0.71884 -0.88188,1.25565 -1.55494,1.59318 -0.52907,0.26532 -0.98202,0.37163 -1.58285,0.37104 -0.45521,-5.3e-4 -0.7572,-0.0618 -1.08779,-0.22066 -0.20298,-0.0975 -0.31614,-0.18652 -0.76016,-0.59996 l -0.52142,-0.48576 -0.008,2.53989 -0.008,2.5399 h -0.81959 -0.81959 l 10e-4,-5.64772 v -5.64823 h 0.6258 c 0.34426,0 0.6258,0.007 0.6258,0.0155 0,0.0391 0.39329,1.72861 0.40515,1.74047 0.0207,0.0207 0.0396,-0.006 0.42891,-0.60875 0.43491,-0.67301 0.54432,-0.80896 0.79168,-0.98547 0.40184,-0.28675 0.85568,-0.42761 1.35703,-0.4222 z m 40.943744,0.008 c 0.45441,-0.003 0.91132,0.0194 1.16995,0.0672 1.43477,0.26505 2.19825,1.00162 2.35335,2.27014 0.019,0.15555 0.031,1.20017 0.031,2.71973 v 2.46703 h -0.678 -0.67799 l -0.16795,-1.08572 c -0.12679,-0.82026 -0.16219,-1.11788 -0.1447,-1.21491 0.0128,-0.0707 0.0278,-0.28864 0.0336,-0.48472 l 0.0109,-0.35657 -0.47697,-0.0816 c -0.96056,-0.16423 -1.86271,-0.18626 -2.34921,-0.0579 -0.46849,0.1236 -0.78916,0.36403 -0.95705,0.7183 -0.0853,0.18003 -0.0915,0.21744 -0.0915,0.52245 0,0.3106 0.005,0.33885 0.0971,0.52607 0.18066,0.36717 0.56835,0.64803 1.03508,0.74931 0.66109,0.14346 1.37229,0.0644 1.81384,-0.20154 0.2028,-0.12216 0.20249,-0.11237 -0.004,0.23254 -0.17919,0.29869 -0.524,0.63301 -0.78394,0.76016 -0.39902,0.1952 -1.0085,0.27427 -1.62625,0.21085 -1.37661,-0.14137 -2.27342,-0.93407 -2.3549,-2.08205 -0.0747,-1.05219 0.59985,-1.71312 2.00143,-1.96009 0.23699,-0.0418 0.46343,-0.0521 1.10329,-0.0512 0.85969,10e-4 0.98991,0.0146 2.11098,0.21601 l 0.47129,0.0848 -0.0109,-0.92707 c -0.0108,-0.91281 -0.0123,-0.93019 -0.0915,-1.16737 -0.19138,-0.57351 -0.52698,-0.87051 -1.10898,-0.98186 -0.29544,-0.0565 -0.78633,-0.056 -1.0635,0.001 -0.45909,0.0947 -0.88028,0.38243 -1.06454,0.72812 l -0.0961,0.18035 h -0.9493 -0.94878 l 0.0439,-0.16898 c 0.22798,-0.87302 1.01323,-1.38701 2.40915,-1.57665 0.25579,-0.0347 0.60776,-0.0531 0.96118,-0.0558 z m -25.505924,0.001 c 0.29061,-1.6e-4 0.581348,0.0174 0.774618,0.0527 0.37382,0.0682 0.85046,0.23008 1.15445,0.39171 0.95059,0.50539 1.55442,1.45621 1.70378,2.68304 0.0413,0.33942 0.0425,1.17519 0.002,1.50585 -0.20578,1.68142 -1.2473,2.80113 -2.8665,3.08199 -0.34082,0.0591 -0.896138,0.0794 -1.228338,0.045 h -5.3e-4 c -0.97259,-0.10086 -1.86396,-0.52925 -2.37557,-1.14153 -0.59181,-0.70826 -0.82163,-1.39685 -0.85163,-2.55281 -0.0354,-1.36544 0.25082,-2.28595 0.93742,-3.01377 0.4794,-0.5082 1.14646,-0.84499 1.97662,-0.99839 0.19217,-0.0355 0.48297,-0.0536 0.77359,-0.0538 z m 20.237514,0.0951 v 0.81856 0.81855 l -0.39481,0.0186 c -1.38775,0.0663 -2.1959,0.7675 -2.39313,2.07584 -0.0334,0.22162 -0.0433,0.65952 -0.0434,1.99058 v 1.70635 h -0.81959 -0.81959 v -3.65147 -3.65094 h 0.81959 0.81959 v 0.58084 c 0,0.57764 2.6e-4,0.58026 0.0672,0.59583 0.40142,0.0937 0.87291,0.1943 0.91209,0.1943 0.0281,0 0.0808,-0.0601 0.1235,-0.14107 0.24918,-0.47231 0.62818,-0.90909 0.95757,-1.10381 0.1936,-0.11444 0.4319,-0.20176 0.62941,-0.231 z m -25.344184,0.005 0.0196,0.47025 c 0.0107,0.2588 0.0195,0.6264 0.0196,0.81649 v 0.34572 l -0.3948,0.0181 c -1.26038,0.0581 -2.03956,0.63858 -2.34043,1.74304 l -0.0791,0.28939 -0.0104,1.87069 -0.0103,1.87017 h -0.81804 -0.81804 v -3.6515 -3.65094 h 0.82011 0.81958 v 0.58084 c 0,0.57764 -1.6e-4,0.58026 0.0667,0.59583 0.40616,0.0949 0.8738,0.1943 0.91416,0.1943 0.0306,0 0.0773,-0.0552 0.11886,-0.14056 0.34376,-0.70757 0.9739,-1.24761 1.55546,-1.33222 z m 14.326398,0.67131 c -0.18956,-0.003 -0.38443,0.013 -0.5747,0.0533 -0.76106,0.16124 -1.19138,0.854 -1.13941,1.69024 0.0519,0.83624 0.73126,1.35226 1.23603,1.44481 0.50477,0.0925 0.79599,0.0595 1.18661,-0.061 0,0 0.767876,-0.1972 0.856216,-0.87621 0.0359,-0.27598 0.0885,-0.26651 0.0705,-0.72852 -0.0179,-0.46201 -0.0593,-0.70882 -0.33704,-1.05946 -0.2083,-0.26297 -0.729506,-0.45272 -1.298226,-0.4631 z m -9.117418,0.49348 c -0.93036,0 -1.74302,0.60288 -2.02778,1.5043 -0.25401,0.80409 -0.20172,1.9824 0.11782,2.65358 0.24547,0.51558 0.74908,0.91387 1.31517,1.04025 0.28859,0.0644 0.70781,0.0432 1.005108,-0.0512 0.79317,-0.25188 1.34255,-0.91092 1.49965,-1.79886 0.0632,-0.35717 0.0621,-1.14029 -0.002,-1.5229 -0.10209,-0.60904 -0.26091,-0.94508 -0.60978,-1.29191 -0.36675,-0.36464 -0.77723,-0.5333 -1.298108,-0.5333 z m 9.070768,0.0171 c 0.42897,0 0.73091,0.10169 0.90589,0.30489 0.174966,0.19756 0.262506,0.47118 0.262506,0.82114 0,0.29915 -0.0875,0.55338 -0.262506,0.76223 -0.16934,0.20884 -0.45974,0.31316 -0.87178,0.31316 -0.4064,0 -0.70571,-0.10432 -0.89762,-0.31316 -0.18627,-0.20885 -0.27957,-0.46308 -0.27957,-0.76223 0,-0.34996 0.0933,-0.62358 0.27957,-0.82114 0.18626,-0.2032 0.47404,-0.30489 0.86351,-0.30489 z m -25.236188,0.0801 c -0.43668,0.006 -0.80921,0.12251 -1.16169,0.36225 -0.38944,0.26489 -0.66463,0.68285 -0.76119,1.156 -0.0572,0.28036 -0.0678,1.91711 -0.0139,2.17558 0.10743,0.51672 0.55978,0.99666 1.13481,1.20406 0.2652,0.0957 0.51207,0.12942 0.87385,0.11989 0.31707,-0.008 0.39234,-0.0211 0.66198,-0.11369 0.41044,-0.14094 0.60292,-0.26068 0.90278,-0.56069 0.29949,-0.29964 0.46777,-0.57923 0.58291,-0.96841 0.11566,-0.3909 0.1358,-1.06025 0.045,-1.50017 -0.11772,-0.5701 -0.33365,-0.97081 -0.71107,-1.31982 -0.3733,-0.34519 -0.80403,-0.51938 -1.36219,-0.55087 -0.0651,-0.004 -0.12882,-0.005 -0.1912,-0.004 z m 16.17783,0.43615 c 0.389458,0 0.722838,0.1583 0.999418,0.47439 0.27658,0.31609 0.41444,0.86072 0.41444,1.63401 0,0.49671 -0.0818,0.89771 -0.24546,1.20251 -0.16369,0.29915 -0.3697,0.51617 -0.61805,0.65164 -0.24271,0.13547 -0.493798,0.20309 -0.753438,0.20309 -0.38947,0 -0.73072,-0.15516 -1.02423,-0.46561 -0.28787,-0.31044 -0.43201,-0.84092 -0.43201,-1.59163 0,-0.51929 0.0818,-0.9313 0.24546,-1.2361 0.16933,-0.31044 0.3811,-0.53323 0.6351,-0.6687 0.25965,-0.13546 0.51912,-0.2036 0.77877,-0.2036 z m -16.1184,0.1018 c 0.3556,0 0.66067,0.0818 0.91467,0.24546 0.25965,0.16369 0.45989,0.39538 0.601,0.69454 0.14111,0.29915 0.21187,0.64879 0.21187,1.04954 0,0.47414 -0.0959,0.85522 -0.28783,1.14309 -0.18627,0.28786 -0.41796,0.49649 -0.69453,0.62632 -0.27094,0.12982 -0.53618,0.19482 -0.79582,0.19482 -0.25964,0 -0.49972,-0.0477 -0.71986,-0.14366 -0.22013,-0.096 -0.39469,-0.22858 -0.52451,-0.39791 -0.12983,-0.16934 -0.19482,-0.36695 -0.19482,-0.59273 V 28.5613 c 0,-0.29352 0.0618,-0.54775 0.18603,-0.76223 0.12982,-0.22013 0.30753,-0.38945 0.5333,-0.50798 0.22578,-0.11854 0.48263,-0.17777 0.7705,-0.17777 z m 41.388164,2.79415 c 0.28787,0 0.58141,0.0168 0.88057,0.0506 0.2143,0.0238 0.42266,0.0553 0.6258,0.093 -0.005,0.212 -0.0497,0.42641 -0.13436,0.64337 -0.0903,0.23142 -0.24599,0.42379 -0.46612,0.57619 -0.22013,0.1524 -0.52207,0.22841 -0.90589,0.22841 -0.45155,0 -0.78179,-0.076 -0.99064,-0.22841 -0.20884,-0.15804 -0.31316,-0.34151 -0.31316,-0.55035 0,-0.28787 0.11584,-0.49388 0.34727,-0.61805 0.23707,-0.12983 0.55578,-0.19482 0.95653,-0.19482 z m -16.871836,3.6406 h 2.345596 c 0.17498,0 0.30183,0.0367 0.38085,0.11007 0.0847,0.0734 0.12713,0.18346 0.12713,0.33021 0,0.24271 -0.0849,0.47702 -0.25425,0.7028 -0.16369,0.22578 -0.40639,0.40925 -0.72812,0.55036 -0.321736,0.14676 -0.711206,0.22014 -1.168406,0.22014 -0.6491,0 -1.18535,-0.0791 -1.60868,-0.2372 -0.4177,-0.15804 -0.62632,-0.4065 -0.62632,-0.74517 0,-0.29915 0.13261,-0.53033 0.39791,-0.69401 0.26528,-0.15805 0.64323,-0.2372 1.13429,-0.2372 z"
       id="path1486" />
    <path
       style="fill:none;stroke:#000000;stroke-width:0.264583"
       d="m 126.60685,24.65753 c -0.508,0 -0.97925,0.11585 -1.41387,0.34727 -0.42898,0.23142 -0.78701,0.59835 -1.07487,1.10071 l -0.28784,-1.17668 h -2.38796 v 8.33955 h 2.70939 v -3.514 c 0,-0.63782 0.076,-1.14839 0.22841,-1.53221 0.15805,-0.38946 0.3672,-0.67148 0.62684,-0.84646 0.25964,-0.17497 0.5448,-0.26252 0.85524,-0.26252 0.30479,0 0.56427,0.10695 0.77877,0.32143 0.21448,0.20885 0.32194,0.53332 0.32194,0.97359 v 4.86017 h 2.72593 v -3.514 c 0,-0.9652 0.14677,-1.64507 0.44028,-2.04019 0.29351,-0.40075 0.67197,-0.601 1.13482,-0.601 0.31609,0 0.57818,0.10695 0.78703,0.32143 0.21449,0.20885 0.32195,0.53332 0.32195,0.97359 v 4.86017 h 2.74298 v -4.86017 c 0,-0.72814 -0.11008,-1.37446 -0.33021,-1.9389 -0.21449,-0.56444 -0.54998,-1.00739 -1.00718,-1.32912 -0.45155,-0.32173 -1.03288,-0.48266 -1.74407,-0.48266 -0.46284,0 -0.90054,0.0818 -1.31259,0.24546 -0.4064,0.15805 -0.76756,0.42906 -1.08365,0.81287 -0.13122,0.157 -0.25076,0.33904 -0.35863,0.54467 -0.21416,-0.46586 -0.5207,-0.83946 -0.91985,-1.12034 -0.45155,-0.32173 -1.03601,-0.48266 -1.75286,-0.48266 z m -11.09855,0 c -0.92568,0 -1.69887,0.10483 -2.31975,0.31368 -0.62089,0.20884 -1.08638,0.52755 -1.39682,0.95653 -0.31044,0.42333 -0.46612,0.9622 -0.46612,1.61695 h 2.92954 c 0,-0.16933 0.0425,-0.32449 0.12712,-0.4656 0.0903,-0.14675 0.22556,-0.2626 0.40618,-0.34727 0.18627,-0.0903 0.42634,-0.13539 0.71985,-0.13539 0.49671,0 0.82119,0.11584 0.97359,0.34727 0.1524,0.23142 0.22892,0.55589 0.22892,0.97358 v 0.61392 c -0.29587,-0.0532 -0.58669,-0.1 -0.8723,-0.13953 -0.36124,-0.0508 -0.77901,-0.0765 -1.25315,-0.0765 -0.77893,0 -1.43627,0.0991 -1.97249,0.29662 -0.53057,0.19755 -0.93157,0.47695 -1.20251,0.83819 -0.27093,0.3556 -0.40618,0.77863 -0.40618,1.26969 0,0.51929 0.13,0.99367 0.38965,1.42266 0.25963,0.42897 0.64335,0.77022 1.15135,1.02422 0.51364,0.24836 1.14267,0.37259 1.88773,0.37259 0.67734,0 1.23087,-0.15778 1.65985,-0.47387 0.32941,-0.24706 0.59179,-0.55768 0.78807,-0.93121 l 0.17673,1.1343 h 2.36265 v -5.2493 c 0,-0.7507 -0.15831,-1.37449 -0.47439,-1.8712 -0.31609,-0.49671 -0.76742,-0.86941 -1.35444,-1.11776 -0.58137,-0.24835 -1.27592,-0.37259 -2.08308,-0.37259 z m -0.30489,5.24929 c 0.28787,0 0.58141,0.0173 0.88057,0.0512 0.21421,0.0238 0.42274,0.0548 0.6258,0.0925 -0.005,0.21217 -0.0496,0.42676 -0.13436,0.64389 -0.0903,0.23142 -0.24599,0.42328 -0.46612,0.57568 -0.22013,0.1524 -0.52207,0.22893 -0.90589,0.22893 -0.45155,0 -0.78179,-0.0765 -0.99064,-0.22893 -0.20884,-0.15804 -0.31315,-0.34151 -0.31315,-0.55036 0,-0.28786 0.11584,-0.49387 0.34726,-0.61805 0.23707,-0.12982 0.55578,-0.19482 0.95653,-0.19482 z m -5.14645,-5.13043 c -0.4572,0 -0.90591,0.17455 -1.34618,0.52451 -0.36976,0.29391 -0.68599,0.72143 -0.94826,1.2821 v -1.70533 h -2.70939 v 8.39071 h 2.70939 v -3.55586 c 0,-0.53622 0.0818,-0.96553 0.24547,-1.28726 0.16933,-0.32173 0.40364,-0.55605 0.70279,-0.7028 0.3048,-0.14676 0.65444,-0.22014 1.04955,-0.22014 0.12982,0 0.26821,0.006 0.41497,0.017 0.14675,0.006 0.2909,0.0172 0.43201,0.0341 l -0.0253,-2.72645 c -0.079,-0.0173 -0.16394,-0.0288 -0.25425,-0.0341 -0.0903,-0.0113 -0.18047,-0.0165 -0.27078,-0.0165 z m -20.224744,8.76282 q -1.15994,0 -2.1336,-0.47414 -0.9652,-0.4826 -1.5494,-1.45626 -0.57573,-0.98213 -0.57573,-2.4892 0,-1.55786 0.57573,-2.53999 0.5842,-0.98213 1.5494,-1.4478 0.97366,-0.47413 2.1336,-0.47413 1.134528,0 2.091258,0.47413 0.95673,0.46567 1.53246,1.4478 0.5842,0.98213 0.5842,2.53999 0,1.50707 -0.5842,2.4892 -0.57573,0.97366 -1.53246,1.45626 -0.95673,0.47414 -2.091258,0.47414 z m -0.1016,-2.3622 q 0.389458,0 0.753528,-0.2032 0.37253,-0.2032 0.61806,-0.65193 0.24554,-0.4572 0.24554,-1.20227 0,-1.15993 -0.41487,-1.63406 -0.41487,-0.47413 -0.999058,-0.47413 -0.38947,0 -0.77894,0.2032 -0.381,0.2032 -0.63499,0.66886 -0.24554,0.4572 -0.24554,1.23613 0,1.12607 0.4318,1.59173 0.44027,0.46567 1.02447,0.46567 z m -4.9858,-6.40062 c -0.4572,0 -0.90591,0.17455 -1.34618,0.52451 -0.36976,0.29391 -0.68599,0.72143 -0.94826,1.2821 v -1.70533 h -2.70939 v 8.39071 h 2.70939 v -3.55586 c 0,-0.53622 0.0818,-0.96553 0.24546,-1.28726 0.16934,-0.32173 0.40365,-0.55605 0.7028,-0.7028 0.3048,-0.14676 0.65496,-0.22014 1.05007,-0.22014 0.12982,0 0.26769,0.006 0.41445,0.017 0.14675,0.006 0.2909,0.0172 0.43201,0.0341 l -0.0253,-2.72645 c -0.079,-0.0173 -0.16394,-0.0288 -0.25425,-0.0341 -0.0903,-0.0113 -0.18047,-0.0165 -0.27078,-0.0165 z m -10.41281,-0.11886 c -0.50235,0 -0.97673,0.13 -1.42265,0.38964 -0.33565,0.19119 -0.62328,0.47202 -0.86299,0.84233 l -0.22066,-0.96067 h -2.20968 v 12.38633 h 2.70939 v -4.39818 c 0.10176,0.0948 0.21163,0.17812 0.33021,0.24959 0.41205,0.24836 0.92575,0.37259 1.54099,0.37259 0.70556,0 1.36603,-0.17507 1.98128,-0.52503 0.62089,-0.34996 1.12043,-0.85475 1.49861,-1.51515 0.38382,-0.6604 0.57568,-1.45927 0.57568,-2.39624 0,-0.94262 -0.18923,-1.74411 -0.56741,-2.40451 -0.37253,-0.6604 -0.85793,-1.16571 -1.45624,-1.51567 -0.59831,-0.34995 -1.23049,-0.52503 -1.89653,-0.52503 z m -0.51676,2.45566 c 0.3556,0 0.66067,0.0818 0.91467,0.24547 0.25965,0.16369 0.45989,0.39485 0.601,0.69401 0.14111,0.29916 0.21187,0.64932 0.21187,1.05007 0,0.47413 -0.0959,0.85521 -0.28783,1.14308 -0.18627,0.28787 -0.41796,0.4965 -0.69453,0.62632 -0.27094,0.12982 -0.53618,0.19482 -0.79582,0.19482 -0.25964,0 -0.49972,-0.0482 -0.71985,-0.14418 -0.22014,-0.0959 -0.3947,-0.22857 -0.52452,-0.39791 -0.12983,-0.16933 -0.19482,-0.36643 -0.19482,-0.59221 v -1.37201 c 0,-0.29351 0.0618,-0.54722 0.18603,-0.76171 0.12982,-0.22013 0.30753,-0.38944 0.53331,-0.50798 0.22577,-0.11853 0.48262,-0.17777 0.77049,-0.17777 z m -13.709409,6.42602 q -1.193798,0 -2.108196,-0.31327 -0.914398,-0.32173 -1.430864,-0.95673 -0.507999,-0.64347 -0.499532,-1.61713 h 2.446862 q 0.01693,0.44026 0.338666,0.6096 0.330199,0.16933 0.888998,0.16933 0.338666,0 0.558799,-0.0847 0.220133,-0.0847 0.330199,-0.22013 0.110067,-0.14393 0.110067,-0.3048 0,-0.21167 -0.1524,-0.33867 -0.1524,-0.12699 -0.474132,-0.25399 l -2.02353,-0.7874 q -0.897465,-0.37254 -1.38853,-0.9398 -0.482599,-0.57573 -0.482599,-1.36313 0,-1.10913 1.024464,-1.79493 1.024465,-0.6858 2.802461,-0.6858 1.667931,0 2.565395,0.77893 0.897465,0.77893 0.905932,1.9812 h -2.480728 q 0,-0.27094 -0.2286,-0.46567 -0.2286,-0.2032 -0.761999,-0.2032 -0.440265,0 -0.694265,0.14394 -0.253999,0.14393 -0.253999,0.38099 0,0.32174 0.533399,0.508 l 2.302928,0.92287 q 0.855132,0.33866 1.346198,0.84666 0.491065,0.508 0.491065,1.27 0,0.69427 -0.482599,1.3208 -0.474132,0.61806 -1.303864,1.00753 -0.829731,0.38947 -1.879596,0.38947 z m -4.757162,-8.76282 c -0.4572,0 -0.905907,0.17455 -1.346171,0.52451 -0.369761,0.29391 -0.686001,0.72143 -0.948264,1.2821 v -1.70533 h -2.709394 v 8.39071 h 2.709394 v -3.55586 c 0,-0.53622 0.08178,-0.96553 0.245464,-1.28726 0.169334,-0.32173 0.403643,-0.55605 0.7028,-0.7028 0.304797,-0.14676 0.654955,-0.22014 1.050065,-0.22014 0.12982,0 0.267689,0.006 0.414443,0.017 0.146757,0.006 0.290904,0.0172 0.432017,0.0341 l -0.02532,-2.72645 c -0.07902,-0.0173 -0.163936,-0.0288 -0.254247,-0.0341 -0.09031,-0.0113 -0.180474,-0.0165 -0.270785,-0.0165 z M 45.071266,24.65753 c -0.705554,0 -1.366031,0.17508 -1.981274,0.52503 -0.615244,0.34996 -1.112174,0.85527 -1.49035,1.51567 -0.378177,0.65476 -0.566889,1.44209 -0.566889,2.36213 0,0.92004 0.188712,1.71577 0.566889,2.38746 0.383823,0.67168 0.883375,1.18853 1.498618,1.54977 0.615244,0.36125 1.273096,0.54157 1.973006,0.54157 0.68862,0 1.295112,-0.12423 1.820042,-0.37259 0.530577,-0.24835 0.959885,-0.58435 1.287262,-1.00769 0.33302,-0.42333 0.541652,-0.89458 0.626319,-1.41386 h -2.692345 c -0.07338,0.22013 -0.203372,0.38105 -0.389638,0.48265 -0.186267,0.1016 -0.403286,0.15245 -0.65164,0.15245 -0.3048,0 -0.559028,-0.0702 -0.762228,-0.21136 -0.197556,-0.14675 -0.34695,-0.35013 -0.44855,-0.60978 -0.09995,-0.25542 -0.150308,-0.5576 -0.151929,-0.90589 h 5.011578 c 0.141113,-0.63217 0.161028,-1.24443 0.05943,-1.8371 -0.09595,-0.5983 -0.304585,-1.13455 -0.626319,-1.60868 -0.316087,-0.47413 -0.733864,-0.84997 -1.253151,-1.12655 -0.51929,-0.28222 -1.128919,-0.42323 -1.828829,-0.42323 z m 0.05064,2.14199 c 0.259646,0 0.471416,0.054 0.635103,0.16123 0.169334,0.1016 0.299331,0.23999 0.389642,0.41496 0.09031,0.16933 0.149547,0.35542 0.177768,0.55862 0.01945,0.11667 0.02985,0.23246 0.03255,0.34727 h -2.63653 c 0.02196,-0.25501 0.07409,-0.47829 0.157096,-0.66921 0.118533,-0.26529 0.282083,-0.46553 0.490926,-0.601 0.214488,-0.14111 0.465577,-0.21187 0.753441,-0.21187 z m -8.321454,-5.21519 v 4.09484 c -0.169455,-0.23091 -0.366779,-0.42193 -0.592728,-0.57257 -0.440266,-0.29915 -0.973889,-0.44907 -1.600419,-0.44907 -0.694267,0 -1.320673,0.18347 -1.879473,0.55035 -0.558798,0.36689 -1.001739,0.8806 -1.329116,1.541 -0.32738,0.65475 -0.490926,1.42268 -0.490926,2.30322 0,0.89182 0.171936,1.67601 0.516247,2.35334 0.34431,0.67169 0.809794,1.19692 1.396814,1.5751 0.592664,0.37253 1.250516,0.55862 1.973006,0.55862 0.485421,0 0.93675,-0.14363 1.354439,-0.4315 0.354478,-0.24577 0.649468,-0.60109 0.885217,-1.06453 l 0.300241,1.22525 h 2.209684 V 21.58433 Z m -1.5074,5.52886 c 0.276577,0 0.52818,0.0645 0.753959,0.19431 0.225777,0.12982 0.406101,0.31329 0.541568,0.55035 0.14111,0.23143 0.211873,0.50557 0.211873,0.82166 v 0.75344 c 0,0.29351 -0.07338,0.56452 -0.220141,0.81287 -0.146757,0.24836 -0.338609,0.4486 -0.575676,0.601 -0.231423,0.14675 -0.479885,0.22014 -0.745175,0.22014 -0.33302,0 -0.623943,-0.0875 -0.872296,-0.26252 -0.248357,-0.17498 -0.440209,-0.41505 -0.575676,-0.71985 -0.129823,-0.3048 -0.19482,-0.64867 -0.19482,-1.03249 0,-0.36689 0.065,-0.69713 0.19482,-0.99064 0.129821,-0.29351 0.319051,-0.5252 0.567407,-0.69453 0.254,-0.16934 0.558557,-0.25374 0.914157,-0.25374 z m -8.600831,6.15508 V 21.5843 h 2.709328 v 11.68397 z m -3.808947,-9.41491 q -0.770465,0 -1.193797,-0.38947 -0.414866,-0.39793 -0.414866,-1.1176 0,-0.70273 0.414866,-1.11759 0.423332,-0.42334 1.193797,-0.42334 0.745065,0 1.176865,0.42334 0.431799,0.41486 0.431799,1.11759 0,0.71967 -0.431799,1.1176 -0.4318,0.38947 -1.176865,0.38947 z m -1.354664,9.41491 v -8.39045 h 2.709328 v 8.39045 z m -10.692464,-8.3906 v 5.35936 c 0,0.8128 0.149913,1.45074 0.44907,1.91359 0.304797,0.46284 0.702659,0.79045 1.193723,0.98236 0.491066,0.19191 1.015783,0.28784 1.574583,0.28784 0.553154,0 1.04694,-0.15516 1.481563,-0.4656 0.328475,-0.23162 0.605131,-0.56565 0.829921,-1.00149 v 1.31465 h 2.709397 v -8.39071 h -2.709397 v 3.91191 c 0,0.58138 -0.09016,1.03584 -0.270782,1.36322 -0.180623,0.32738 -0.40917,0.55855 -0.685747,0.69402 -0.270933,0.13546 -0.545079,0.20309 -0.821656,0.20309 -0.3048,0 -0.555887,-0.0902 -0.753443,-0.27079 C 13.641468,30.59285 13.54554,30.3077 13.54554,29.92388 V 24.87767 Z M 0.8129858,21.58433 v 11.68405 h 1.693437 l 0.68988,-1.47795 c 0.252372,0.58894 0.581263,1.02856 0.986501,1.31723 0.41769,0.28787 0.866394,0.4315 1.346174,0.4315 0.73942,0 1.402522,-0.18609 1.989542,-0.55862 0.592664,-0.37818 1.061289,-0.90341 1.405599,-1.5751 0.349954,-0.67733 0.524515,-1.46152 0.524515,-2.35334 0,-0.88054 -0.163549,-1.64847 -0.490926,-2.30322 -0.327377,-0.6604 -0.770319,-1.17411 -1.329119,-1.541 -0.553153,-0.36688 -1.17956,-0.55035 -1.87947,-0.55035 -0.626533,0 -1.160156,0.14992 -1.60042,0.44907 -0.239694,0.16187 -0.448429,0.37019 -0.626319,0.62477 v -4.14704 z m 4.24987,5.52886 c 0.355597,0 0.658048,0.0844 0.906404,0.25374 0.248354,0.16933 0.437068,0.40102 0.566891,0.69453 0.135464,0.29351 0.203605,0.62375 0.203605,0.99064 0,0.38382 -0.06814,0.72769 -0.203605,1.03249 -0.135466,0.3048 -0.327321,0.54487 -0.575675,0.71985 -0.242713,0.17498 -0.536257,0.26252 -0.880568,0.26252 -0.248356,0 -0.493678,-0.0734 -0.736388,-0.22014 -0.237067,-0.1524 -0.434687,-0.35264 -0.59273,-0.601 -0.1524,-0.24835 -0.22841,-0.51936 -0.22841,-0.81287 v -0.75344 c 0,-0.31609 0.07025,-0.59023 0.211357,-0.82166 0.141111,-0.23706 0.327716,-0.42053 0.559139,-0.55035 0.237067,-0.12982 0.493403,-0.19431 0.76998,-0.19431 z M 103.70799,22.67626 c -0.44591,0 -0.88046,0.10483 -1.3038,0.31367 -0.42333,0.20885 -0.77034,0.5024 -1.04128,0.88057 -0.24365,0.3401 -0.37802,0.73476 -0.40256,1.18442 -0.0322,-0.0141 -0.0643,-0.0284 -0.0971,-0.0419 -0.58138,-0.23706 -1.205156,-0.35553 -1.871196,-0.35553 -0.67733,0 -1.30636,0.11847 -1.88774,0.35553 -0.57573,0.23707 -1.04173,0.57884 -1.39733,1.02475 -0.3556,0.44027 -0.5333,0.96812 -0.5333,1.58337 0,0.5983 0.1777,1.11725 0.5333,1.55752 0.16398,0.20042 0.35196,0.38041 0.56275,0.54002 -0.065,0.021 -0.12854,0.0443 -0.19016,0.0698 -0.34996,0.14676 -0.62096,0.35276 -0.81288,0.61805 -0.1919,0.26529 -0.28783,0.57299 -0.28783,0.92295 0,0.42333 0.16093,0.80441 0.48265,1.14308 0.16179,0.16457 0.34619,0.31172 0.55346,0.44183 -0.51418,0.0157 -0.95284,0.16713 -1.31568,0.45527 -0.38383,0.3048 -0.57568,0.72572 -0.57568,1.26194 0,0.508 0.18661,0.98763 0.55914,1.43919 0.37818,0.4572 0.9312,0.82675 1.65933,1.10897 0.73377,0.28786 1.63119,0.43202 2.69234,0.43202 0.970836,0 1.817406,-0.18347 2.539896,-0.55036 0.72249,-0.36123 1.28442,-0.83562 1.68517,-1.42265 0.40075,-0.58137 0.60099,-1.19939 0.60099,-1.85415 0,-0.76764 -0.28201,-1.30913 -0.84646,-1.62522 -0.56444,-0.32173 -1.34338,-0.48266 -2.3368,-0.48266 h -2.345596 c -0.37818,0 -0.6518,-0.0508 -0.82113,-0.15244 -0.16934,-0.10724 -0.25425,-0.25716 -0.25425,-0.44907 0,-0.14676 0.0367,-0.26784 0.11007,-0.36381 0.0734,-0.1016 0.17245,-0.17812 0.29662,-0.22892 0.0603,-0.0236 0.12373,-0.0411 0.19017,-0.0538 0.36324,0.0811 0.7429,0.12196 1.13895,0.12196 0.66604,0 1.289816,-0.11898 1.871196,-0.35605 0.58137,-0.24271 1.05262,-0.58134 1.41387,-1.01596 0.36124,-0.44027 0.54208,-0.95922 0.54208,-1.55752 0,-0.61525 -0.18084,-1.1431 -0.54208,-1.58337 -0.0314,-0.0387 -0.0636,-0.0765 -0.0966,-0.11369 0.0246,-0.22058 0.14425,-0.38614 0.35915,-0.49609 0.24272,-0.12982 0.59864,-0.19482 1.06712,-0.19482 z m -5.376416,10.87117 h 2.345596 c 0.17498,0 0.30183,0.0367 0.38085,0.11007 0.0847,0.0734 0.12713,0.18346 0.12713,0.33021 0,0.24271 -0.0849,0.47702 -0.25425,0.7028 -0.16369,0.22578 -0.40639,0.40925 -0.72812,0.55035 -0.321736,0.14677 -0.711206,0.22015 -1.168406,0.22015 -0.6491,0 -1.18535,-0.0791 -1.60868,-0.2372 -0.4177,-0.15804 -0.62632,-0.40599 -0.62632,-0.74466 0,-0.29915 0.13261,-0.53084 0.39791,-0.69453 0.26528,-0.15804 0.64323,-0.23719 1.13429,-0.23719 z"
       id="path1488" />
  </g>
</svg>
