<svg width="228" height="236" viewBox="0 0 228 236" fill="none" xmlns="http://www.w3.org/2000/svg">
<path d="M137.602 184.65L125.883 176.629L123.939 175.411L134.951 169.353L140.977 167.339L156.154 157.718L157.725 157.899L156.528 167.91L154.989 184.448L155.836 191.423L156.353 194.091L142.213 188.288L137.602 184.65Z" fill="#C8AFE7"/>
<path d="M123.759 175.123C123.092 176.17 124.717 176.226 125.281 177.32C125.845 178.414 126.2 178.229 126.767 179.324C127.331 180.418 126.266 180.981 126.831 182.079C127.398 183.175 127.4 183.172 127.966 184.267C128.533 185.363 128.564 185.346 129.131 186.442C129.695 187.535 130.737 186.985 131.304 188.081C131.871 189.176 131.164 189.548 131.729 190.647C132.296 191.742 132.986 191.379 133.553 192.474C134.12 193.57 132.985 194.462 134.025 195.121C135.06 195.782 135.368 194.772 136.6 194.82C137.831 194.867 137.8 195.485 139.035 195.534C140.269 195.584 140.265 195.621 141.497 195.668C142.729 195.716 142.752 195.216 143.984 195.264C145.215 195.311 145.187 195.919 146.419 195.966C147.65 196.014 147.659 195.825 148.892 195.87C150.124 195.918 150.136 195.648 151.372 195.695C152.604 195.742 152.633 195.139 153.869 195.186C155.101 195.233 155.882 197.017 156.552 195.968C157.219 194.922 156.298 194.428 155.734 193.335C155.167 192.239 155.131 192.26 154.564 191.164C153.997 190.069 153.378 190.393 152.814 189.3C152.25 188.206 152.392 188.129 151.825 187.033C151.258 185.938 151.394 185.865 150.83 184.771C150.263 183.676 149.941 183.846 149.377 182.752C148.81 181.656 148.44 181.852 147.875 180.754C147.31 179.656 147.5 179.558 146.932 178.457C146.367 177.359 146.841 177.11 146.269 176.015C146.268 176.011 146.101 176.658 146.097 176.659C144.866 176.616 144.891 176.07 143.66 176.022C142.428 175.975 142.457 175.36 141.226 175.312C139.994 175.265 139.949 176.25 138.717 176.202C137.486 176.154 137.526 175.265 136.297 175.22C135.065 175.172 135.028 176 133.795 175.955C132.563 175.908 132.604 175.074 131.372 175.027C130.141 174.979 130.118 175.447 128.886 175.4C127.654 175.352 127.497 176.022 126.321 175.661C124.916 175.227 124.428 174.074 123.759 175.123Z" fill="#915FD0"/>
<path d="M145.596 176.065C145.537 177.302 146.402 177.329 146.967 178.428C147.534 179.523 147.523 179.528 148.09 180.624C148.657 181.719 148.681 181.706 149.247 182.802C149.814 183.897 149.875 183.864 150.44 184.962C151.007 186.058 150.732 186.202 151.299 187.298C151.866 188.393 152.3 188.163 152.867 189.258C153.434 190.354 153.194 190.48 153.761 191.576C154.327 192.674 154.421 192.623 154.987 193.721C155.552 194.819 155.058 196.133 156.292 196.182C157.524 196.229 156.757 194.629 157.421 193.581C158.086 192.533 158.013 192.487 158.679 191.436C159.344 190.388 159.549 190.517 160.214 189.469C160.878 188.421 160.68 188.293 161.345 187.245C162.01 186.197 162.313 186.387 162.978 185.339C163.644 184.289 163.296 184.07 163.962 183.019C164.627 181.971 164.655 181.989 165.321 180.938C165.987 179.887 166.715 180.351 167.382 179.3C168.048 178.25 168.566 178.186 168.624 176.949C168.683 175.711 168.055 175.669 167.491 174.576C166.927 173.482 166.976 173.453 166.412 172.36C165.848 171.266 164.907 171.761 164.344 170.664C163.777 169.569 164.147 169.373 163.583 168.279C163.016 167.184 163.208 167.083 162.644 165.989C162.08 164.895 162.432 164.708 161.865 163.613C161.298 162.517 160.922 162.717 160.355 161.622C159.788 160.526 159.337 160.766 158.771 159.667C158.206 158.569 159.361 157.096 158.128 157.044C156.897 156.996 157.401 158.235 156.737 159.282C156.072 160.33 156.484 160.592 155.816 161.639C155.149 162.685 154.297 162.143 153.631 163.194C152.966 164.242 152.966 164.242 152.297 165.291C151.633 166.339 152.445 166.856 151.778 167.907C151.114 168.955 151.154 168.984 150.489 170.032C149.825 171.08 149.363 170.786 148.693 171.835C148.027 172.886 148.093 172.856 147.185 173.704C146.123 174.693 145.655 174.827 145.596 176.065Z" fill="#915FD0"/>
<path d="M124.416 174.993C124.979 176.09 125.163 175.54 126.394 175.588C127.626 175.635 127.669 174.716 128.901 174.764C130.132 174.811 130.095 175.596 131.327 175.643C132.558 175.691 132.584 175.105 133.816 175.153C135.048 175.2 135.026 175.654 136.257 175.701C137.489 175.749 137.491 175.715 138.723 175.762C139.954 175.81 139.983 175.214 141.214 175.262C142.446 175.309 142.418 175.941 143.65 175.989C144.881 176.036 144.88 176.075 146.112 176.123C146.117 176.122 146.371 176.253 146.373 176.25C147.04 175.204 147.307 175.372 147.975 174.325C148.639 173.278 148.301 173.061 148.968 172.015C149.633 170.967 150.418 171.277 151.085 170.231C151.75 169.183 152.454 169.628 153.119 168.58C153.783 167.532 152.347 166.806 153.013 165.755C153.678 164.707 153.012 164.282 153.679 163.236C154.344 162.188 155.319 162.807 155.985 161.756C156.652 160.706 156.393 160.512 157.062 159.463C157.729 158.412 158.143 158.601 157.578 157.502C157.014 156.409 156.872 157.46 155.641 157.412C154.409 157.365 154.4 157.541 153.169 157.494C151.937 157.446 151.982 156.481 150.75 156.433C149.519 156.386 149.495 156.893 148.263 156.845C147.031 156.798 147.026 156.913 145.794 156.865C144.563 156.818 144.588 156.303 143.356 156.256C142.124 156.208 142.087 156.968 140.855 156.921C139.624 156.873 139.669 155.888 138.437 155.841C137.206 155.793 137.011 155.735 135.913 156.313C134.818 156.889 135.196 157.368 134.529 158.414C133.864 159.462 133.499 159.233 132.834 160.281C132.17 161.329 132.72 161.682 132.055 162.73C131.391 163.777 131.805 164.041 131.139 165.092C130.474 166.14 130.255 166.002 129.59 167.05C128.924 168.101 129.163 168.251 128.494 169.3C127.829 170.348 127.419 170.091 126.751 171.137C126.085 172.188 125.776 171.899 124.912 172.79C124.124 173.61 123.854 173.897 124.416 174.993Z" fill="#915FD0"/>
<path d="M141.995 69.7943L130.276 61.7727L128.335 60.5564L139.345 54.4974L145.373 52.4851L160.55 42.8637L162.121 43.0448L160.925 53.0534L159.382 69.5924L160.229 76.5669L160.747 79.2346L146.608 73.4292L141.995 69.7943Z" fill="#A8E6A5"/>
<path d="M128.155 60.2694C127.488 61.3156 129.113 61.3724 129.677 62.4661C130.241 63.5599 130.596 63.3747 131.163 64.4702C131.727 65.5639 130.662 66.1269 131.227 67.2252C131.794 68.3207 131.796 68.3179 132.363 69.4134C132.93 70.5089 132.96 70.4921 133.527 71.5876C134.091 72.6813 135.133 72.1312 135.7 73.2267C136.267 74.3222 135.56 74.6943 136.125 75.7927C136.692 76.8882 137.382 76.5249 137.949 77.6204C138.516 78.7159 137.381 79.6078 138.421 80.2674C139.456 80.9282 139.764 79.9179 140.996 79.9655C142.227 80.013 142.196 80.631 143.431 80.6803C144.662 80.7278 144.662 80.7668 145.893 80.8144C147.125 80.8619 147.148 80.362 148.38 80.4096C149.611 80.4571 149.583 81.0648 150.815 81.1123C152.046 81.1599 152.055 80.9713 153.288 81.016C154.52 81.0635 154.532 80.7941 155.768 80.8405C157 80.8881 157.029 80.285 158.265 80.3315C159.497 80.379 160.278 82.1633 160.948 81.1142C161.615 80.068 160.694 79.5742 160.13 78.4805C159.563 77.385 159.527 77.4057 158.96 76.3102C158.393 75.2147 157.774 75.5394 157.21 74.4456C156.643 73.3501 156.788 73.2748 156.221 72.1793C155.654 71.0839 155.79 71.0107 155.226 69.917C154.659 68.8215 154.337 68.9917 153.773 67.8979C153.206 66.8024 153.99 66.0196 153.426 64.9258C152.861 63.8275 153.237 63.8216 152.67 62.7261C152.104 61.6278 151.238 62.2603 150.666 61.1659C150.665 61.1613 150.499 61.8087 150.494 61.8098C149.263 61.7669 149.288 61.2205 148.057 61.173C146.825 61.1255 146.854 60.5104 145.623 60.4628C144.391 60.4153 144.346 61.4001 143.114 61.3526C141.883 61.305 141.923 60.4159 140.694 60.3701C139.462 60.3226 139.425 61.1504 138.192 61.1057C136.96 61.0581 137.001 60.2246 135.769 60.1771C134.538 60.1295 134.515 60.5979 133.283 60.5503C132.051 60.5028 131.894 61.1722 130.718 60.8111C129.312 60.3732 128.824 59.2203 128.155 60.2694Z" fill="#51CB59"/>
<path d="M149.989 61.2084C149.931 62.4461 150.795 62.4732 151.36 63.5716C151.927 64.6671 151.916 64.6721 152.483 65.7676C153.05 66.8631 153.074 66.8502 153.641 67.9457C154.208 69.0412 154.268 69.0077 154.833 70.106C155.4 71.2015 155.126 71.346 155.693 72.4415C156.26 73.537 156.694 73.3065 157.261 74.402C157.828 75.4975 157.588 75.6242 158.155 76.7197C158.72 77.818 158.815 77.7666 159.38 78.865C159.945 79.9633 159.451 81.2765 160.686 81.3259C161.917 81.3734 161.15 79.7724 161.815 78.7245C162.479 77.6765 162.406 77.6307 163.073 76.5799C163.737 75.5319 163.942 75.6606 164.607 74.6127C165.272 73.5647 165.074 73.4367 165.738 72.3888C166.403 71.3408 166.707 71.5312 167.371 70.4832C168.038 69.4325 167.689 69.2139 168.355 68.1631C169.02 67.1151 169.048 67.1328 169.714 66.082C170.381 65.0312 171.109 65.4952 171.775 64.4444C172.441 63.3936 172.959 63.3301 173.018 62.0925C173.077 60.8548 172.448 60.8134 171.884 59.7197C171.32 58.6259 171.369 58.5974 170.805 57.5037C170.241 56.4099 169.3 56.9048 168.738 55.8082C168.171 54.7127 168.54 54.5169 167.976 53.4231C167.409 52.3276 167.602 52.2267 167.038 51.1329C166.473 50.0392 166.826 49.8523 166.259 48.7568C165.692 47.6613 165.316 47.861 164.749 46.7655C164.182 45.6701 163.73 45.9094 163.165 44.8111C162.598 43.7156 163.754 42.2396 162.521 42.1874C161.29 42.1399 161.795 43.3784 161.13 44.4264C160.465 45.4743 160.877 45.7363 160.21 46.7825C159.545 47.8304 158.691 47.2871 158.024 48.3379C157.36 49.3858 157.36 49.3858 156.691 50.4349C156.026 51.4828 156.838 51.9997 156.172 53.0505C155.507 54.0984 155.547 54.1277 154.883 55.1757C154.218 56.2236 153.756 55.9299 153.087 56.979C152.42 58.0297 152.486 57.9997 151.579 58.8479C150.516 59.8366 150.048 59.9708 149.989 61.2084Z" fill="#51CB59"/>
<path d="M128.812 60.1389C129.375 61.2355 129.559 60.6858 130.79 60.7333C132.022 60.7809 132.065 59.8619 133.297 59.9095C134.528 59.957 134.491 60.7412 135.723 60.7888C136.954 60.8363 136.98 60.251 138.212 60.2986C139.443 60.3461 139.422 60.7995 140.653 60.8471C141.885 60.8946 141.887 60.8602 143.118 60.9078C144.35 60.9553 144.379 60.3597 145.61 60.4073C146.842 60.4548 146.814 61.0866 148.046 61.1341C149.277 61.1817 149.276 61.2207 150.508 61.2682C150.512 61.2671 150.767 61.3988 150.769 61.396C151.436 60.3498 151.703 60.5173 152.371 59.4711C153.035 58.4231 152.697 58.207 153.364 57.1608C154.029 56.1129 154.814 56.4228 155.481 55.3766C156.146 54.3287 156.85 54.774 157.515 53.726C158.179 52.6781 156.742 51.9517 157.409 50.9009C158.073 49.853 157.408 49.4278 158.075 48.3816C158.74 47.3336 159.715 47.9527 160.381 46.9019C161.048 45.8512 160.789 45.6574 161.458 44.6084C162.127 43.5594 162.539 43.7462 161.974 42.6479C161.41 41.5541 161.268 42.6053 160.037 42.5577C158.805 42.5102 158.796 42.6867 157.565 42.6392C156.333 42.5916 156.378 41.6263 155.146 41.5787C153.915 41.5312 153.891 42.0385 152.659 41.9909C151.427 41.9434 151.422 42.0586 150.19 42.0111C148.959 41.9635 148.983 41.4488 147.752 41.4012C146.52 41.3537 146.483 42.1138 145.251 42.0662C144.019 42.0187 144.065 41.0338 142.833 40.9863C141.602 40.9387 141.407 40.8802 140.308 41.4582C139.214 42.0351 139.592 42.5134 138.925 43.5596C138.26 44.6075 137.895 44.3784 137.23 45.4263C136.565 46.4743 137.116 46.8272 136.451 47.8752C135.787 48.9231 136.201 49.1868 135.535 50.2376C134.87 51.2856 134.651 51.1481 133.986 52.196C133.32 53.2468 133.559 53.3967 132.89 54.4457C132.223 55.4965 131.814 55.2363 131.147 56.2825C130.481 57.3333 130.172 57.0447 129.308 57.936C128.517 58.7543 128.247 59.0406 128.812 60.1389Z" fill="#51CB59"/>
<path d="M92.0355 47.8517L103.755 55.8734L105.698 57.0914L94.6864 63.1486L88.6578 65.1609L73.4836 74.7841L71.9126 74.603L73.1101 64.5916L74.6491 48.0536L73.8022 41.0791L73.2843 38.4114L87.4229 44.2168L92.0355 47.8517Z" fill="#A8E6A5"/>
<path d="M105.879 57.3786C106.546 56.3324 104.921 56.2756 104.356 55.1818C103.792 54.0881 103.437 54.2733 102.87 53.1778C102.306 52.0841 103.372 51.5211 102.807 50.4227C102.24 49.3272 102.238 49.3301 101.671 48.2346C101.104 47.1391 101.074 47.1558 100.507 46.0603C99.9427 44.9666 98.9007 45.5168 98.3337 44.4213C97.7667 43.3258 98.4739 42.9536 97.9087 41.8553C97.3418 40.7598 96.6519 41.123 96.0849 40.0275C95.5179 38.932 96.6527 38.0402 95.6128 37.3806C94.5775 36.7198 94.2695 37.73 93.0379 37.6825C91.8063 37.6349 91.8371 37.017 90.6027 36.9677C89.3711 36.9201 89.372 36.8812 88.1404 36.8336C86.9088 36.7861 86.8854 37.2859 85.6538 37.2384C84.4223 37.1908 84.4505 36.5832 83.2189 36.5356C81.9873 36.4881 81.9788 36.6767 80.7455 36.632C79.5139 36.5845 79.5017 36.8539 78.2655 36.8074C77.0339 36.7599 77.0046 37.3629 75.7684 37.3165C74.5368 37.2689 73.7551 35.4847 73.0859 36.5337C72.4185 37.5799 73.3391 38.0738 73.9032 39.1675C74.4702 40.263 74.5067 40.2423 75.0737 41.3378C75.6406 42.4333 76.2594 42.1086 76.8235 43.2023C77.3905 44.2978 77.2454 44.3731 77.8124 45.4686C78.3793 46.5641 78.2434 46.6372 78.8076 47.731C79.3746 48.8265 79.6967 48.6563 80.2608 49.75C80.8278 50.8455 80.0434 51.6284 80.6075 52.7221C81.1727 53.8205 80.7969 53.8263 81.3639 54.9218C81.9309 56.0173 82.7956 55.3877 83.3671 56.4821C83.3682 56.4867 83.535 55.8392 83.5396 55.8382C84.7701 55.8811 84.7451 56.4274 85.9766 56.475C87.2082 56.5225 87.1792 57.1376 88.4108 57.1852C89.6424 57.2327 89.6877 56.2478 90.9193 56.2954C92.1509 56.3429 92.1107 57.2321 93.3395 57.2779C94.5711 57.3254 94.6081 56.4976 95.8414 56.5423C97.073 56.5898 97.0325 57.4233 98.2641 57.4709C99.4957 57.5184 99.5189 57.0501 100.75 57.0976C101.982 57.1452 102.139 56.4758 103.315 56.8369C104.719 57.273 105.209 58.4276 105.879 57.3786Z" fill="#10352B"/>
<path d="M84.0415 56.4379C84.1003 55.2002 83.2359 55.1731 82.6707 54.0747C82.1037 52.9792 82.1147 52.9742 81.5477 51.8787C80.9807 50.7832 80.957 50.7961 80.39 49.7006C79.823 48.6051 79.7629 48.6386 79.1977 47.5403C78.6307 46.4448 78.9054 46.3003 78.3384 45.2048C77.7714 44.1093 77.3371 44.3398 76.7701 43.2443C76.2031 42.1488 76.4431 42.0221 75.8761 40.9266C75.3109 39.8283 75.2161 39.8796 74.6509 38.7813C74.0857 37.683 74.5796 36.3698 73.3452 36.3204C72.1136 36.2729 72.8809 37.8739 72.2163 38.9218C71.5517 39.9698 71.6248 40.0156 70.9584 41.0664C70.292 42.1172 70.0885 41.9857 69.4239 43.0336C68.7593 44.0816 68.9572 44.2096 68.2926 45.2575C67.6279 46.3055 67.3242 46.1151 66.6596 47.163C65.9932 48.2138 66.3419 48.4324 65.6756 49.4832C65.0109 50.5312 64.9828 50.5135 64.3164 51.5643C63.65 52.6151 62.9223 52.1511 62.2559 53.2019C61.5895 54.2527 61.0719 54.3161 61.0131 55.5538C60.9543 56.7914 61.5825 56.8329 62.1467 57.9266C62.7108 59.0204 62.6616 59.0489 63.2258 60.1426C63.7899 61.2364 64.7308 60.7415 65.2932 61.8381C65.8601 62.9336 65.4906 63.1294 66.0548 64.2232C66.6217 65.3187 66.4292 65.4196 66.9934 66.5134C67.5575 67.6071 67.2053 67.794 67.7723 68.8895C68.3393 69.985 68.7152 69.7852 69.2822 70.8807C69.8492 71.9762 70.3008 71.7368 70.866 72.8352C71.433 73.9307 70.2768 75.4067 71.5094 75.4589C72.741 75.5064 72.2363 74.2679 72.9009 73.2199C73.5655 72.172 73.1538 71.91 73.8213 70.8638C74.4859 69.8159 75.3401 70.3592 76.0065 69.3084C76.6712 68.2605 76.6712 68.2605 77.3404 67.2114C78.005 66.1635 77.1929 65.6466 77.8593 64.5958C78.5239 63.5479 78.4835 63.5186 79.1481 62.4706C79.8127 61.4227 80.275 61.7164 80.9442 60.6673C81.6106 59.6165 81.5448 59.6465 82.4524 58.7984C83.5147 57.8097 83.9827 57.6755 84.0415 56.4379Z" fill="#10352B"/>
<path d="M105.221 57.5088C104.659 56.4122 104.475 56.9619 103.243 56.9144C102.012 56.8668 101.969 57.7857 100.737 57.7382C99.5054 57.6906 99.5425 56.9064 98.3109 56.8589C97.0793 56.8113 97.0533 57.3967 95.8217 57.3491C94.5901 57.3016 94.6118 56.8481 93.3802 56.8006C92.1486 56.753 92.1467 56.7874 90.9151 56.7399C89.6835 56.6923 89.6549 57.2879 88.4233 57.2404C87.1917 57.1928 87.2194 56.5611 85.9879 56.5135C84.7563 56.466 84.7572 56.427 83.5256 56.3795C83.521 56.3805 83.2667 56.2488 83.2649 56.2517C82.5975 57.2979 82.3303 57.1304 81.6628 58.1766C80.9982 59.2245 81.3368 59.4407 80.6693 60.4869C80.0047 61.5348 79.2197 61.2249 78.5522 62.271C77.8876 63.319 77.1834 62.8737 76.5188 63.9216C75.8542 64.9696 77.2911 65.696 76.6247 66.7467C75.9601 67.7947 76.6259 68.2199 75.9585 69.2661C75.2939 70.3141 74.3186 69.6949 73.6522 70.7457C72.9859 71.7965 73.2444 71.9902 72.5752 73.0393C71.9088 74.0901 71.4943 73.9015 72.0595 74.9998C72.6236 76.0935 72.7653 75.0424 73.9969 75.09C75.2285 75.1375 75.2373 74.961 76.4689 75.0085C77.7005 75.0561 77.6556 76.0214 78.8872 76.069C80.1188 76.1165 80.143 75.6092 81.3746 75.6567C82.6061 75.7043 82.6118 75.5891 83.8433 75.6366C85.0749 75.6842 85.05 76.1989 86.2816 76.2465C87.5132 76.294 87.5509 75.5339 88.7824 75.5815C90.014 75.629 89.9687 76.6139 91.2003 76.6614C92.4319 76.709 92.6264 76.7675 93.7251 76.1895C94.8192 75.6126 94.4412 75.1343 95.1087 74.0881C95.7733 73.0401 96.1389 73.2693 96.8035 72.2214C97.4681 71.1734 96.9176 70.8205 97.5822 69.7725C98.2468 68.7246 97.8323 68.4608 98.4987 67.41C99.1633 66.3621 99.3827 66.4996 100.047 65.4516C100.714 64.4009 100.475 64.251 101.144 63.202C101.81 62.1512 102.219 62.4114 102.887 61.3652C103.553 60.3144 103.862 60.603 104.726 59.7117C105.514 58.8916 105.784 58.6054 105.221 57.5088Z" fill="#10352B"/>
<path d="M54.9613 107.007L66.6806 115.029L68.6241 116.247L57.6122 122.304L51.5836 124.316L36.4094 133.94L34.8384 133.758L36.0359 123.747L37.5749 107.209L36.728 100.235L36.2102 97.5669L50.3505 103.369L54.9613 107.007Z" fill="#A8E6A5"/>
<path d="M68.8044 116.534C69.4718 115.488 67.8465 115.431 67.2823 114.337C66.7182 113.243 66.3632 113.429 65.7962 112.333C65.232 111.239 66.2978 110.676 65.7326 109.578C65.1656 108.483 65.1638 108.485 64.5969 107.39C64.0299 106.294 63.9998 106.311 63.4328 105.216C62.8686 104.122 61.8266 104.672 61.2596 103.577C60.6926 102.481 61.3998 102.109 60.8346 101.011C60.2677 99.9152 59.5778 100.278 59.0108 99.1829C58.4438 98.0874 59.5786 97.1956 58.5387 96.5359C57.5034 95.8752 57.1954 96.8854 55.9638 96.8379C54.7322 96.7903 54.763 96.1724 53.5286 96.1231C52.297 96.0755 52.2979 96.0366 51.0663 95.989C49.8347 95.9415 49.8113 96.4413 48.5797 96.3938C47.3482 96.3462 47.3764 95.7386 46.1448 95.691C44.9132 95.6435 44.9047 95.8321 43.6714 95.7874C42.4398 95.7399 42.4276 96.0093 41.1914 95.9628C39.9598 95.9153 39.9305 96.5183 38.6943 96.4719C37.4627 96.4243 36.681 94.6401 36.0118 95.6891C35.3444 96.7353 36.265 97.2291 36.8291 98.3229C37.3961 99.4184 37.4326 99.3977 37.9996 100.493C38.5665 101.589 39.1853 101.264 39.7494 102.358C40.3164 103.453 40.1713 103.529 40.7383 104.624C41.3052 105.72 41.1693 105.793 41.7335 106.886C42.3005 107.982 42.6226 107.812 43.1867 108.905C43.7537 110.001 42.9693 110.784 43.5334 111.878C44.0986 112.976 43.7228 112.982 44.2898 114.077C44.855 115.176 45.7215 114.543 46.293 115.638C46.2941 115.642 46.4609 114.995 46.4655 114.994C47.696 115.036 47.671 115.583 48.9026 115.63C50.1341 115.678 50.1051 116.293 51.3367 116.341C52.5683 116.388 52.6136 115.403 53.8452 115.451C55.0768 115.498 55.0366 116.387 56.2654 116.433C57.497 116.481 57.534 115.653 58.7673 115.698C59.9989 115.745 59.9584 116.579 61.19 116.626C62.4216 116.674 62.4448 116.205 63.6764 116.253C64.908 116.301 65.0651 115.631 66.2412 115.992C67.6444 116.428 68.1352 117.583 68.8044 116.534Z" fill="#00A8E3"/>
<path d="M46.9674 115.593C47.0262 114.355 46.1618 114.328 45.5966 113.23C45.0296 112.134 45.0406 112.129 44.4736 111.034C43.9066 109.938 43.8829 109.951 43.3159 108.856C42.749 107.76 42.6888 107.794 42.1236 106.695C41.5566 105.6 41.8313 105.455 41.2643 104.36C40.6973 103.264 40.263 103.495 39.696 102.399C39.129 101.304 39.369 101.177 38.802 100.082C38.2368 98.9834 38.142 99.0348 37.5768 97.9365C37.0116 96.8381 37.5055 95.5249 36.2711 95.4756C35.0395 95.4281 35.8068 97.029 35.1422 98.077C34.4776 99.1249 34.5507 99.1708 33.8843 100.222C33.2179 101.272 33.0144 101.141 32.3498 102.189C31.6852 103.237 31.8831 103.365 31.2185 104.413C30.5539 105.461 30.2501 105.27 29.5855 106.318C28.9191 107.369 29.2679 107.588 28.6015 108.638C27.9368 109.686 27.9087 109.669 27.2423 110.719C26.5759 111.77 25.8482 111.306 25.1818 112.357C24.5154 113.408 23.9978 113.471 23.939 114.709C23.8802 115.947 24.5084 115.988 25.0726 117.082C25.6367 118.176 25.5875 118.204 26.1517 119.298C26.7159 120.392 27.6567 119.897 28.2191 120.993C28.786 122.089 28.4165 122.285 28.9807 123.378C29.5476 124.474 29.3551 124.575 29.9193 125.669C30.4834 126.762 30.1312 126.949 30.6982 128.045C31.2652 129.14 31.6411 128.94 32.2081 130.036C32.7751 131.131 33.2267 130.892 33.7919 131.99C34.3571 133.089 33.2027 134.562 34.4353 134.614C35.6669 134.662 35.1622 133.423 35.8268 132.375C36.4914 131.327 36.0797 131.065 36.7472 130.019C37.4118 128.971 38.266 129.514 38.9324 128.464C39.5971 127.416 39.5971 127.416 40.2663 126.367C40.9309 125.319 40.1188 124.802 40.7852 123.751C41.4498 122.703 41.4094 122.674 42.074 121.626C42.7386 120.578 43.2009 120.872 43.8701 119.822C44.5365 118.772 44.4707 118.802 45.3783 117.954C46.4406 116.965 46.9086 116.831 46.9674 115.593Z" fill="#00A8E3"/>
<path d="M68.1471 116.664C67.5847 115.568 67.4008 116.117 66.1692 116.07C64.9376 116.022 64.8945 116.941 63.6629 116.894C62.4313 116.846 62.4684 116.062 61.2368 116.014C60.0052 115.967 59.9792 116.552 58.7476 116.505C57.516 116.457 57.5377 116.004 56.3061 115.956C55.0745 115.909 55.0726 115.943 53.841 115.895C52.6094 115.848 52.5808 116.443 51.3492 116.396C50.1176 116.348 50.1453 115.717 48.9138 115.669C47.6822 115.622 47.6831 115.583 46.4515 115.535C46.4469 115.536 46.1926 115.404 46.1908 115.407C45.5234 116.453 45.2562 116.286 44.5887 117.332C43.9241 118.38 44.2627 118.596 43.5952 119.642C42.9306 120.69 42.1456 120.38 41.4781 121.427C40.8135 122.475 40.1093 122.029 39.4447 123.077C38.7801 124.125 40.217 124.851 39.5506 125.902C38.886 126.95 39.5518 127.375 38.8844 128.422C38.2198 129.47 37.2445 128.85 36.5782 129.901C35.9118 130.952 36.1703 131.146 35.5011 132.195C34.8347 133.246 34.4202 133.057 34.9854 134.155C35.5495 135.249 35.6912 134.198 36.9228 134.245C38.1544 134.293 38.1632 134.116 39.3948 134.164C40.6264 134.212 40.5815 135.177 41.8131 135.224C43.0447 135.272 43.0689 134.765 44.3005 134.812C45.532 134.86 45.5377 134.745 46.7693 134.792C48.0008 134.84 47.9759 135.354 49.2075 135.402C50.4391 135.45 50.4768 134.689 51.7083 134.737C52.9399 134.785 52.8946 135.769 54.1262 135.817C55.3578 135.864 55.5523 135.923 56.651 135.345C57.7451 134.768 57.3671 134.29 58.0346 133.244C58.6992 132.196 59.0648 132.425 59.7294 131.377C60.394 130.329 59.8435 129.976 60.5081 128.928C61.1727 127.88 60.7582 127.616 61.4246 126.566C62.0892 125.518 62.3086 125.655 62.9732 124.607C63.6396 123.556 63.4006 123.407 64.0698 122.358C64.7362 121.307 65.145 121.567 65.8124 120.521C66.4788 119.47 66.7877 119.758 67.6518 118.867C68.44 118.047 68.7095 117.761 68.1471 116.664Z" fill="#00A8E3"/>
<path d="M86.9863 166.18L98.7057 174.201L100.649 175.419L89.6372 181.476L83.6114 183.491L68.4344 193.112L66.8634 192.931L68.061 182.919L69.5999 166.382L68.7531 159.407L68.2352 156.739L82.3756 162.542L86.9863 166.18Z" fill="#A8E6A5"/>
<path d="M100.83 175.706C101.497 174.66 99.8717 174.603 99.3075 173.51C98.7433 172.416 98.3883 172.601 97.8213 171.506C97.2572 170.412 98.323 169.849 97.7578 168.751C97.1908 167.655 97.189 167.658 96.622 166.562C96.055 165.467 96.0249 165.484 95.458 164.388C94.8938 163.294 93.8517 163.845 93.2847 162.749C92.7178 161.654 93.425 161.282 92.8598 160.183C92.2928 159.088 91.6029 159.451 91.0359 158.355C90.469 157.26 91.6037 156.368 90.5638 155.708C89.5285 155.048 89.2205 156.058 87.9889 156.01C86.7573 155.963 86.7881 155.345 85.5537 155.296C84.3221 155.248 84.3231 155.209 83.0915 155.161C81.8599 155.114 81.8365 155.614 80.6049 155.566C79.3733 155.519 79.4016 154.911 78.17 154.864C76.9384 154.816 76.9299 155.005 75.6965 154.96C74.4649 154.912 74.4527 155.182 73.2166 155.135C71.985 155.088 71.9557 155.691 70.7195 155.644C69.4879 155.597 68.7062 153.813 68.037 154.862C67.3695 155.908 68.2901 156.402 68.8543 157.495C69.4213 158.591 69.4577 158.57 70.0247 159.666C70.5917 160.761 71.2104 160.436 71.7746 161.53C72.3416 162.626 72.1964 162.701 72.7634 163.797C73.3304 164.892 73.1945 164.965 73.7586 166.059C74.3256 167.154 74.6477 166.984 75.2119 168.078C75.7789 169.173 74.9944 169.956 75.5586 171.05C76.1238 172.148 75.7479 172.154 76.3149 173.25C76.8801 174.348 77.7466 173.716 78.3182 174.81C78.3192 174.815 78.486 174.167 78.4906 174.166C79.7212 174.209 79.6961 174.755 80.9277 174.803C82.1593 174.85 82.1303 175.465 83.3619 175.513C84.5935 175.561 84.6388 174.576 85.8703 174.623C87.1019 174.671 87.0618 175.56 88.2906 175.606C89.5222 175.653 89.5591 174.825 90.7925 174.87C92.0241 174.918 91.9836 175.751 93.2151 175.799C94.4467 175.846 94.47 175.378 95.7015 175.426C96.9331 175.473 97.0902 174.804 98.2663 175.165C99.6724 175.603 100.16 176.756 100.83 175.706Z" fill="#80D4F1"/>
<path d="M78.9925 174.766C79.0513 173.528 78.1869 173.501 77.6217 172.402C77.0548 171.307 77.0657 171.302 76.4988 170.206C75.9318 169.111 75.9081 169.124 75.3411 168.028C74.7741 166.933 74.7139 166.966 74.1487 165.868C73.5817 164.772 73.8564 164.628 73.2894 163.532C72.7225 162.437 72.2881 162.667 71.7211 161.572C71.1542 160.476 71.3942 160.35 70.8272 159.254C70.262 158.156 70.1671 158.207 69.6019 157.109C69.0367 156.011 69.5307 154.697 68.2963 154.648C67.0647 154.601 67.832 156.202 67.1673 157.249C66.5027 158.297 66.5759 158.343 65.9095 159.394C65.2449 160.442 65.0395 160.313 64.3749 161.361C63.7103 162.409 63.9082 162.537 63.2436 163.585C62.579 164.633 62.2752 164.443 61.6106 165.491C60.9442 166.541 61.293 166.76 60.6266 167.811C59.962 168.859 59.9339 168.841 59.2675 169.892C58.6011 170.943 57.8734 170.479 57.207 171.53C56.5406 172.58 56.0229 172.644 55.9641 173.881C55.9053 175.119 56.5335 175.161 57.0977 176.254C57.6619 177.348 57.6127 177.377 58.1768 178.47C58.741 179.564 59.6818 179.069 60.2442 180.166C60.8112 181.261 60.4417 181.457 61.0058 182.551C61.5728 183.646 61.3802 183.747 61.9444 184.841C62.5086 185.935 62.1564 186.122 62.7234 187.217C63.2903 188.313 63.6663 188.113 64.2332 189.208C64.8002 190.304 65.2519 190.064 65.8171 191.163C66.3841 192.258 65.2279 193.734 66.4605 193.787C67.6921 193.834 67.1873 192.596 67.8519 191.548C68.5166 190.5 68.1049 190.238 68.7723 189.191C69.4397 188.145 70.2912 188.687 70.9576 187.636C71.6222 186.588 71.6222 186.588 72.2914 185.539C72.956 184.491 72.1439 183.974 72.8103 182.923C73.4749 181.875 73.4345 181.846 74.0991 180.798C74.7637 179.75 75.226 180.044 75.8952 178.995C76.5616 177.944 76.4958 177.974 77.4035 177.126C78.4658 176.137 78.9337 176.003 78.9925 174.766Z" fill="#80D4F1"/>
<path d="M100.172 175.837C99.6097 174.74 99.4258 175.29 98.1942 175.242C96.9627 175.195 96.9195 176.113 95.6879 176.066C94.4563 176.018 94.4934 175.234 93.2618 175.187C92.0302 175.139 92.0042 175.724 90.7726 175.677C89.541 175.629 89.5627 175.176 88.3311 175.128C87.0996 175.081 87.0976 175.115 85.866 175.068C84.6344 175.02 84.6058 175.616 83.3743 175.568C82.1427 175.521 82.1704 174.889 80.9388 174.841C79.7072 174.794 79.7081 174.755 78.4765 174.707C78.4719 174.708 78.2176 174.577 78.2158 174.579C77.5484 175.626 77.2812 175.458 76.6138 176.504C75.9492 177.552 76.2877 177.768 75.6203 178.815C74.9557 179.863 74.1706 179.553 73.5032 180.599C72.8385 181.647 72.1344 181.201 71.4697 182.249C70.8051 183.297 72.242 184.024 71.5756 185.075C70.911 186.122 71.5768 186.548 70.9094 187.594C70.2448 188.642 69.2696 188.023 68.6032 189.073C67.9368 190.124 68.1954 190.318 67.5262 191.367C66.857 192.416 66.4452 192.229 67.0104 193.328C67.5745 194.421 67.7162 193.37 68.9478 193.418C70.1794 193.465 70.1882 193.289 71.4198 193.336C72.6514 193.384 72.6066 194.349 73.8381 194.397C75.0697 194.444 75.0939 193.937 76.3255 193.984C77.5571 194.032 77.5627 193.917 78.7943 193.964C80.0259 194.012 80.001 194.527 81.2326 194.574C82.4641 194.622 82.5018 193.862 83.7334 193.909C84.965 193.957 84.9197 194.942 86.1512 194.989C87.3828 195.037 87.5773 195.095 88.676 194.517C89.7701 193.94 89.3922 193.462 90.0596 192.416C90.7242 191.368 91.0898 191.597 91.7544 190.549C92.4191 189.501 91.8685 189.148 92.5331 188.1C93.1978 187.052 92.7833 186.789 93.4497 185.738C94.1143 184.69 94.3337 184.827 94.9983 183.779C95.6647 182.729 95.4256 182.579 96.0948 181.53C96.7594 180.482 97.17 180.739 97.8375 179.693C98.5039 178.642 98.8127 178.931 99.6768 178.039C100.465 177.219 100.735 176.933 100.172 175.837Z" fill="#80D4F1"/>
</svg>
