<svg width="225" height="222" viewBox="0 0 225 222" fill="none" xmlns="http://www.w3.org/2000/svg">
<path d="M109.427 0.0174694C111.289 0.0321785 113.149 0.0174734 115.011 0.000115567C123.216 -0.0128653 130.783 1.06797 138.723 3.10779C140.465 3.54303 140.465 3.54303 142.243 3.98706C167.007 11.7188 192.149 27.9064 205.628 50.4954C205.941 51.0128 206.255 51.5301 206.578 52.0631C217.962 70.9831 225.069 89.4929 224.989 111.837C224.993 112.819 224.996 113.8 225 114.812C224.969 140.327 214.878 164.207 198.296 183.545C197.723 184.237 197.15 184.929 196.56 185.642C179.308 205.87 151.939 219.284 125.448 221.564C112.161 222.478 99.4734 222.092 86.4826 219.086C85.4252 218.854 84.3678 218.621 83.2784 218.381C64.2888 213.623 48.2516 203.262 34.2419 189.925C33.5472 189.291 32.8525 188.658 32.1368 188.006C13.9349 170.875 1.01364 142.912 0.0233157 118.014C-0.149023 106.256 0.581118 95.4887 3.99722 84.2136C4.30794 83.1469 4.61865 82.0803 4.93878 80.9813C11.1791 61.8145 22.9262 43.9159 36.9914 29.5355C37.5904 28.8941 38.1893 28.2527 38.8065 27.5919C56.6804 8.93261 83.9537 -0.220758 109.427 0.0174694Z" fill="#DDCDF1"/>
<path d="M57.4336 60.3916C59.7685 56.7472 62.3549 54.3875 66.4759 52.957C71.4338 52.2331 74.5061 52.7385 78.6716 55.5286C87.3441 62.8548 95.1041 71.3492 103.029 79.4548C104.542 81.0022 106.057 82.5485 107.574 84.0927C109.785 86.3445 111.994 88.5991 114.202 90.8547C114.878 91.5429 115.554 92.231 116.25 92.9401C119.225 95.988 122.07 99.0005 124.622 102.42C125.603 103.375 126.612 104.304 127.648 105.2C128.483 105.929 128.483 105.929 129.335 106.674C129.911 107.173 130.486 107.673 131.079 108.187C132.242 109.215 133.402 110.245 134.561 111.277C135.074 111.732 135.587 112.186 136.115 112.655C136.584 113.083 137.054 113.512 137.537 113.954C138.015 114.333 138.493 114.712 138.986 115.102C139.955 116.422 139.955 116.422 139.886 118.444C138.914 120.958 137.985 121.599 135.759 123.094C131.535 126.213 127.999 129.747 124.393 133.557C123.828 134.152 123.262 134.748 122.679 135.361C121.551 136.548 121.309 136.343 120.183 137.531C118.642 135.318 120.124 137.031 117.651 134.504C116.167 132.988 118.347 135.545 115.178 131.978C113.882 130.519 115.178 131.978 113.204 129.457C113.21 128.957 111.238 128.306 111.226 127.436C108.247 125.404 109.736 126.42 108.81 125.41C108.321 124.405 106.832 123.389 105.348 121.873C97.8536 115.293 103.08 118.981 101.822 118.335C98.8377 116.804 97.8607 115.214 95.6289 113.357C95.0481 112.86 94.4672 112.363 93.8688 111.85C93.2337 111.311 92.5987 110.771 91.9444 110.215C87.5473 106.328 83.4567 102.427 79.7248 97.8988C77.3861 95.2692 74.7346 92.9983 72.1177 90.6502C69.8476 88.5134 67.8998 86.2174 65.926 83.8109C64.4296 82.1247 62.8244 80.7126 61.1042 79.2568C55.1053 73.988 53.8181 67.534 57.4336 60.3916Z" fill="#11362C"/>
<path d="M166.367 158.21C164.008 161.839 161.406 164.181 157.275 165.584C152.313 166.276 149.244 165.75 145.097 162.932C136.473 155.549 128.769 147.003 120.898 138.845C119.395 137.288 117.891 135.732 116.384 134.178C114.188 131.911 111.994 129.642 109.801 127.372C109.13 126.679 108.458 125.987 107.766 125.273C104.812 122.206 101.987 119.174 99.458 115.738C98.4829 114.776 97.4804 113.841 96.4502 112.938C95.6199 112.203 95.6198 112.203 94.7727 111.453C94.2004 110.95 93.6282 110.447 93.0386 109.928C91.883 108.893 90.7294 107.855 89.5777 106.816C89.0677 106.358 88.5577 105.9 88.0322 105.428C87.5659 104.996 87.0996 104.564 86.6191 104.119C86.1435 103.737 85.6679 103.355 85.1779 102.962C84.217 101.635 84.217 101.635 84.2996 99.6133C85.2882 97.1062 86.2216 96.4708 88.457 94.9906C92.7021 91.9002 96.2615 88.3892 99.8921 84.6031C100.462 84.0116 101.031 83.4201 101.618 82.8106C102.754 81.6308 102.995 81.838 104.129 80.657C105.654 82.8801 104.184 81.158 106.64 83.7006C108.114 85.2262 105.951 82.6555 109.097 86.2432C110.384 87.7104 109.097 86.2433 111.054 88.7773C111.045 89.2773 113.012 89.9409 113.019 90.8115C115.984 92.8628 114.502 91.8371 115.421 92.8531C115.903 93.8616 117.386 94.8872 118.86 96.4128C126.31 103.042 121.109 99.3195 122.363 99.9736C125.336 101.525 126.303 103.121 128.522 104.993C129.1 105.494 129.677 105.995 130.272 106.511C130.904 107.055 131.535 107.599 132.186 108.16C136.557 112.076 140.622 116.003 144.324 120.556C146.645 123.201 149.282 125.489 151.883 127.855C154.139 130.007 156.071 132.315 158.029 134.735C159.514 136.431 161.11 137.853 162.821 139.321C168.785 144.629 170.029 151.091 166.367 158.21Z" fill="#11362C"/>
<path d="M159.666 55.2571C163.31 57.592 165.67 60.1784 167.101 64.2994C167.825 69.2572 167.319 72.3296 164.529 76.4951C157.203 85.1676 148.708 92.9276 140.603 100.852C139.055 102.366 137.509 103.88 135.965 105.397C133.713 107.609 131.458 109.817 129.203 112.025C128.515 112.701 127.827 113.377 127.118 114.074C124.07 117.049 121.057 119.894 117.638 122.445C116.682 123.426 115.754 124.435 114.858 125.471C114.128 126.306 114.128 126.306 113.384 127.159C112.884 127.734 112.385 128.31 111.87 128.903C110.843 130.065 109.813 131.226 108.781 132.384C108.326 132.897 107.871 133.41 107.403 133.939C106.974 134.408 106.545 134.877 106.103 135.36C105.725 135.839 105.346 136.317 104.956 136.809C103.635 137.779 103.635 137.779 101.613 137.71C99.0998 136.738 98.4582 135.808 96.9634 133.583C93.845 129.358 90.3105 125.822 86.5005 122.217C85.9052 121.651 85.3099 121.085 84.6966 120.502C83.5093 119.375 83.7149 119.132 82.5264 118.006C84.7394 116.466 83.027 117.948 85.5534 115.475C87.0692 113.991 84.5129 116.171 88.0797 113.001C89.5383 111.705 88.0798 113.001 90.6008 111.028C91.1008 111.033 91.7514 109.062 92.6219 109.049C94.6536 106.071 93.6378 107.56 94.6476 106.634C95.6529 106.145 96.6687 104.655 98.1845 103.171C104.764 95.6771 101.076 100.903 101.722 99.6451C103.254 96.6611 104.844 95.6842 106.7 93.4524C107.197 92.8716 107.695 92.2907 108.207 91.6922C108.747 91.0572 109.287 90.4222 109.843 89.7679C113.73 85.3708 117.63 81.2802 122.159 77.5483C124.788 75.2096 127.059 72.5581 129.407 69.9412C131.544 67.6711 133.84 65.7233 136.247 63.7495C137.933 62.2531 139.345 60.6478 140.801 58.9277C146.07 52.9288 152.524 51.6416 159.666 55.2571Z" fill="#11362C"/>
<path d="M61.8477 164.19C58.2187 161.831 55.8762 159.229 54.473 155.098C53.7818 150.136 54.3076 147.067 57.1252 142.92C64.5085 134.296 73.0541 126.592 81.2119 118.722C82.7693 117.218 84.3256 115.714 85.8797 114.207C88.1461 112.011 90.4153 109.817 92.6854 107.624C93.378 106.953 94.0706 106.281 94.7843 105.589C97.8518 102.635 100.883 99.8098 104.319 97.2811C105.281 96.306 106.216 95.3035 107.119 94.2733C107.854 93.443 107.854 93.443 108.604 92.5958C109.108 92.0235 109.611 91.4513 110.129 90.8617C111.164 89.7061 112.202 88.5525 113.242 87.4009C113.7 86.8908 114.158 86.3808 114.63 85.8554C115.062 85.389 115.494 84.9227 115.939 84.4422C116.321 83.9666 116.702 83.491 117.096 83.001C118.423 82.0402 118.423 82.0402 120.444 82.1227C122.951 83.1113 123.587 84.0447 125.067 86.2801C128.157 90.5252 131.668 94.0846 135.454 97.7152C136.046 98.2849 136.637 98.8545 137.247 99.4414C138.427 100.577 138.219 100.818 139.4 101.952C137.177 103.478 138.899 102.007 136.357 104.464C134.831 105.938 137.402 103.774 133.814 106.92C132.347 108.207 133.814 106.92 131.28 108.877C130.78 108.868 130.116 110.835 129.246 110.842C127.195 113.807 128.22 112.325 127.204 113.244C126.196 113.727 125.17 115.209 123.645 116.683C117.015 124.134 120.738 118.932 120.084 120.186C118.532 123.16 116.936 124.126 115.065 126.345C114.564 126.923 114.063 127.501 113.546 128.096C113.002 128.727 112.458 129.358 111.898 130.009C107.982 134.38 104.055 138.445 99.5014 142.147C96.8564 144.468 94.568 147.105 92.2027 149.706C90.0509 151.962 87.7421 153.895 85.3226 155.852C83.6265 157.338 82.2039 158.933 80.7367 160.644C75.4284 166.608 68.966 167.852 61.8477 164.19Z" fill="#11362C"/>
</svg>
