<?xml version="1.0" encoding="utf-8"?>
<!-- Generator: Adobe Illustrator 18.0.0, SVG Export Plug-In . SVG Version: 6.00 Build 0)  -->
<!DOCTYPE svg PUBLIC "-//W3C//DTD SVG 1.1//EN" "http://www.w3.org/Graphics/SVG/1.1/DTD/svg11.dtd">
<svg version="1.1" id="Capa_1" xmlns="http://www.w3.org/2000/svg" xmlns:xlink="http://www.w3.org/1999/xlink" x="0px" y="0px"
	 viewBox="0 0 85.2 261.7" enable-background="new 0 0 85.2 261.7" xml:space="preserve">
<path d="M83.6,17.4c1.5-2.7,2-5.8,1.2-8.8c-0.8-3-2.7-5.5-5.4-7c-1.8-1-3.8-1.6-5.8-1.6c-4.1,0-8,2.2-10,5.8L7.4,103
	C2.6,111.4,0,121.1,0,130.8s2.6,19.4,7.4,27.9l56.1,97.2c2.1,3.6,5.9,5.8,10,5.8c2,0,4-0.5,5.8-1.6c2.7-1.5,4.6-4,5.4-7
	c0.8-3,0.4-6.1-1.2-8.8l-56.1-97.2c-2.8-4.9-4.3-10.5-4.3-16.3c0-5.7,1.5-11.4,4.3-16.3L83.6,17.4z"/>
</svg>
