<?xml version="1.0" encoding="utf-8"?>
<!-- Generator: Adobe Illustrator 18.0.0, SVG Export Plug-In . SVG Version: 6.00 Build 0)  -->
<!DOCTYPE svg PUBLIC "-//W3C//DTD SVG 1.1//EN" "http://www.w3.org/Graphics/SVG/1.1/DTD/svg11.dtd">
<svg version="1.1" id="Capa_1" xmlns="http://www.w3.org/2000/svg" xmlns:xlink="http://www.w3.org/1999/xlink" x="0px" y="0px"
	 viewBox="63.1 367.7 938.2 573.1" enable-background="new 63.1 367.7 938.2 573.1" xml:space="preserve">
<g>
	<g>
		<ellipse fill="#D8D9DD" cx="600.8" cy="927.8" rx="67.8" ry="13"/>
		<path fill="#D8D9DD" d="M945,927.8c0,7.2-30.4,13-67.8,13c-37.4,0-67.8-5.8-67.8-13s30.3-13,67.8-13S945,920.6,945,927.8z"/>
		<g>
			<rect x="490.5" y="680.8" fill="#5E5E61" width="23.2" height="165.3"/>
			<rect x="504.7" y="367.7" fill="#818084" width="23.2" height="424.2"/>
			<rect x="542.5" y="375.6" fill="#818084" width="5.9" height="416.3"/>
			<rect x="501" y="789.8" fill="#9C9BA0" width="30.8" height="80.5"/>
			<path fill="#A8A7AC" d="M510,839.5c19.2,0,23.1,30.8,0,30.8c-23.1,0-235.2,0-235.2,0v-30.8C274.8,839.5,493.6,839.5,510,839.5z"
				/>
			<rect x="501" y="367.7" fill="#A8A7AC" width="48.7" height="20.3"/>
			<path fill="#DB9600" d="M1001.3,766.6c0,10.2-5.2,18.5-11.7,18.5c-6.4,0-11.7-8.3-11.7-18.5s5.2-18.5,11.7-18.5
				S1001.3,756.4,1001.3,766.6z"/>
			<rect x="968.5" y="743" fill="#272528" width="21.1" height="46.8"/>
			<path fill="#272528" d="M606.9,655c-6.8-31.6-35.3-26-35.3-26l-6.3,141.7l70.9,19.1C636.2,789.8,613.7,686.9,606.9,655z"/>
			<path fill="#272528" d="M654.6,628.6c6.7-11.6-5.9-39.7-11.8-32.8c-5.9,6.9-50.4,58.7-50.4,58.7l7.7,68.9
				C600.1,723.4,647.9,640.2,654.6,628.6z"/>
			<path fill="#110F11" d="M795.4,523.5c2.9-13.1,30.9-32.3,30.9-16.2c0,9.1-13.9,168.4-13.9,168.4L770,661.1
				C770,661.1,792.5,536.6,795.4,523.5z"/>
			<path fill="#110F11" d="M724.8,642.6c-13.2,2.5-29.6,24.8-13.5,25.3c9.1,0.3,101.8-1.5,101.8-1.5l-0.9-36.6
				C812.3,629.8,738,640.1,724.8,642.6z"/>
			<path fill="#272528" d="M720,667.3c-13.3,2.1-31.3,19.1-15.2,20c1.9,0.1-64.3,106.5-49.7,107c53.8,2,245.3-100,245.3-100
				l-0.7-46.1C899.6,648.3,733.2,665.1,720,667.3z"/>
			<path fill="#87868A" d="M681.5,810.3h237.4l-26-228.2l-72.6,1.6c0,0-9.6,89.3-14.3,89.8c-32.3,3-55.3,5.6-63.3,5.6
				c-20.3,0-61.3,81.9-61.3,81.9L681.5,810.3L681.5,810.3z"/>
			<rect x="560.7" y="751.6" fill="#87868A" width="237.4" height="38.2"/>
			<path fill="#271610" d="M935.8,579.6C929,548,892.9,554,892.9,554l24.8,160.4h47.4C965.2,714.4,942.6,611.5,935.8,579.6z"/>
			<path fill="#A8A7AC" d="M859.7,420.3c3.6,17.9,49,305.4,49,305.4l27.1-5.7c0,0-52.8-309.2-57-328.5c-4.1-19.3-12-23.8-23.2-23.8
				H679.4c-26,0-41.8,13.5-47.7,38c-5.9,24.4-82,279.4-82,279.4v93.7l27.1,1.6v-87.1c0,0,65.4-237,70.5-259.7s18.7-35.3,41-35.3
				h151.4C849.3,398.1,856.1,402.4,859.7,420.3z"/>
			<rect x="679.4" y="843.9" fill="#272528" width="306.1" height="26.4"/>
			<path fill="#E9BC00" d="M955,698.6c-15.8,0-62.1,0-98.3,0c-36.1,0-66.6,40.7-66.6,40.7s-3.4,0-26,0s-57.6,31.6-57.6,31.6H549.7
				c0,0-21.7,5.6-21.7,24.8s0,53.5,0,53.5s18.3-53.5,79.2-51.3c60.9,2.3,72.2,45.7,72.2,45.7h306.1c0,0-9-88.7-9-111.6
				C976.5,709.1,970.8,698.6,955,698.6z"/>
			<g>
				<path fill="#110F11" d="M664.8,870.3c0,31.8-25.8,57.5-57.5,57.5c-31.8,0-57.5-25.8-57.5-57.5c0-31.8,25.8-57.5,57.5-57.5
					C639,812.7,664.8,838.5,664.8,870.3z"/>
				<path fill="#D8D9DD" d="M642.8,870.3c0,19.7-15.9,35.6-35.6,35.6c-19.7,0-35.6-16-35.6-35.6c0-19.7,15.9-35.6,35.6-35.6
					C626.9,834.6,642.8,850.6,642.8,870.3z"/>
				<path fill="#A8A7AC" d="M614.3,870.3c0,3.9-3.2,7.1-7.1,7.1c-3.9,0-7.1-3.2-7.1-7.1c0-3.9,3.2-7.1,7.1-7.1
					C611.2,863.1,614.3,866.3,614.3,870.3z"/>
				<path fill="#D8D9DD" d="M631.1,843.9c4.3,5.9,6.8,13.1,6.8,20.9c0,19.7-15.9,35.6-35.6,35.6c-9.2,0-17.5-3.5-23.9-9.2
					c6.5,8.9,16.9,14.7,28.8,14.7c19.7,0,35.6-16,35.6-35.6C642.8,859.8,638.3,850.4,631.1,843.9z"/>
			</g>
			<path fill="#DE9F00" d="M606.4,789.8c-45,0-81.4,36.4-81.4,81.4h14c0-37.2,30.1-67.3,67.3-67.3s67.3,30.2,67.3,67.3h14
				C687.7,826.2,651.3,789.8,606.4,789.8z"/>
			<path fill="#DB9600" d="M883.8,789.8c-45,0-81.4,36.4-81.4,81.4h162.8C965.2,826.2,928.7,789.8,883.8,789.8z"/>
			<g>
				<path fill="#110F11" d="M942.2,870.3c0,31.8-25.8,57.5-57.5,57.5c-31.8,0-57.5-25.8-57.5-57.5c0-31.8,25.8-57.5,57.5-57.5
					C916.4,812.7,942.2,838.5,942.2,870.3z"/>
				<path fill="#D8D9DD" d="M920.3,870.3c0,19.7-15.9,35.6-35.6,35.6c-19.7,0-35.6-16-35.6-35.6c0-19.7,15.9-35.6,35.6-35.6
					C904.3,834.6,920.3,850.6,920.3,870.3z"/>
				<path fill="#A8A7AC" d="M891.8,870.3c0,3.9-3.2,7.1-7.1,7.1c-3.9,0-7.1-3.2-7.1-7.1c0-3.9,3.2-7.1,7.1-7.1
					C888.6,863.1,891.8,866.3,891.8,870.3z"/>
				<path fill="#D8D9DD" d="M908.5,843.9c4.3,5.9,6.8,13.1,6.8,20.9c0,19.7-15.9,35.6-35.6,35.6c-9.2,0-17.5-3.5-23.8-9.2
					c6.5,8.9,16.9,14.7,28.8,14.7c19.7,0,35.6-16,35.6-35.6C920.3,859.8,915.7,850.4,908.5,843.9z"/>
			</g>
			<path fill="#858488" d="M518.1,855.1c0,4.1-3.3,7.4-7.4,7.4s-7.4-3.3-7.4-7.4c0-4.1,3.3-7.4,7.4-7.4
				C514.8,847.6,518.1,851,518.1,855.1z"/>
			<g>
				<path fill="#E7BC8D" d="M672.2,584.9c1.8-1.2,0-3.4-1.5-2.6c-1.9,1-5.2,2.5-7.6,4c-2,1.2,0.1,4.4,2,3.2
					C667.1,588.3,670.1,586.2,672.2,584.9z"/>
				<path fill="#E7BC8D" d="M673.3,588.2c1.6-1.1-0.1-3.3-1.5-2.6c-1.7,0.9-4.7,2.2-6.9,3.6c-1.8,1.1,0.3,4.3,2,3.2
					C668.7,591.4,671.4,589.4,673.3,588.2z"/>
				<path fill="#E7BC8D" d="M674.2,591.1c1.5-0.9-0.1-2.9-1.3-2.2c-1.5,0.8-4.1,2-6.1,3.2c-1.6,1,0.2,3.7,1.7,2.7
					C670.1,593.9,672.5,592.2,674.2,591.1z"/>
				<path fill="#E7BC8D" d="M669.7,582.3c1.6-1.1-0.1-3.3-1.5-2.6c-1.7,0.9-4.7,2.2-6.9,3.6c-1.8,1.1,0.3,4.3,2,3.2
					C665.1,585.4,667.8,583.5,669.7,582.3z"/>
			</g>
			<path fill="#272528" d="M691.1,608.4c-1.9,2.2-5.3,2.4-7.5,0.5l-37.3-32.5c-2.2-1.9-2.4-5.3-0.5-7.5l0,0c1.9-2.2,5.3-2.4,7.5-0.5
				l37.3,32.5C692.8,602.9,693.1,606.2,691.1,608.4L691.1,608.4z"/>
			<polygon fill="#272528" points="650.1,619.3 640.7,611.1 663,585.5 672.4,593.7 			"/>
			<rect x="63.1" y="839.5" fill="#A8A7AC" width="236.1" height="30.8"/>
		</g>
	</g>
</g>
</svg>
