<svg enable-background="new 63.1 367.7 938.2 573.1" version="1.1" viewBox="63.1 368 938 573" xmlns="http://www.w3.org/2000/svg">
	<ellipse cx="601" cy="928" rx="67.8" ry="13" fill-opacity=".2"/>
	<path d="m945 928c0 7.2-30.4 13-67.8 13s-67.8-5.8-67.8-13 30.3-13 67.8-13 67.8 5.8 67.8 13z" fill-opacity=".2"/>
	<rect x="490" y="681" width="23.2" height="165" fill="#5E5E61"/>
	<rect x="505" y="368" width="23.2" height="424" fill="#818084"/>
	<rect x="542" y="376" width="5.9" height="416" fill="#818084"/>
	<rect x="501" y="790" width="30.8" height="80.5" fill="#9C9BA0"/>
	<path d="m510 840c19.2 0 23.1 30.8 0 30.8h-235v-30.8h235z" fill="#A8A7AC"/>
	<rect x="501" y="368" width="48.7" height="20.3" fill="#A8A7AC"/>
	<path d="m1e3 767c0 10.2-5.2 18.5-11.7 18.5-6.4 0-11.7-8.3-11.7-18.5s5.2-18.5 11.7-18.5 11.7 8.3 11.7 18.5z" fill="#DB9600"/>
	<g fill="#272528">
		<rect x="968" y="743" width="21.1" height="46.8"/>
		<path d="m607 655c-6.8-31.6-35.3-26-35.3-26l-6.3 142 70.9 19.1s-22.5-103-29.3-135z"/>
		<path d="m655 629c6.7-11.6-5.9-39.7-11.8-32.8s-50.4 58.7-50.4 58.7l7.7 68.9s47.8-83.2 54.5-94.8z"/>
	</g>
	<path d="m795 524c2.9-13.1 30.9-32.3 30.9-16.2 0 9.1-13.9 168-13.9 168l-42.4-14.6s22.5-124 25.4-138z" fill="#110F11"/>
	<path d="m725 643c-13.2 2.5-29.6 24.8-13.5 25.3 9.1 0.3 102-1.5 102-1.5l-0.9-36.6c0.1 0-74.2 10.3-87.4 12.8z" fill="#110F11"/>
	<path d="m720 667c-13.3 2.1-31.3 19.1-15.2 20 1.9 0.1-64.3 106-49.7 107 53.8 2 245-100 245-100l-0.7-46.1c-0.1 0.1-166 16.9-180 19.1z" fill="#272528"/>
	<path d="m682 810h237l-26-228-72.6 1.6s-9.6 89.3-14.3 89.8c-32.3 3-55.3 5.6-63.3 5.6-20.3 0-61.3 81.9-61.3 81.9l0.1 49.3z" fill="#87868A"/>
	<rect x="561" y="752" width="237" height="38.2" fill="#87868A"/>
	<path d="m936 580c-6.8-31.6-42.9-25.6-42.9-25.6l24.8 160h47.4c0.1 0-22.5-103-29.3-135z" fill="#271610"/>
	<path d="m860 420c3.6 17.9 49 305 49 305l27.1-5.7s-52.8-309-57-328c-4.1-19.3-12-23.8-23.2-23.8h-176c-26 0-41.8 13.5-47.7 38-5.9 24.4-82 279-82 279v93.7l27.1 1.6v-87.1s65.4-237 70.5-260 18.7-35.3 41-35.3h151c9.6-0.2 16.4 4.1 20 22z" fill="#A8A7AC"/>
	<rect x="679" y="844" width="306" height="26.4" fill="#272528"/>
	<path d="m955 699h-98.3c-36.1 0-66.6 40.7-66.6 40.7s-3.4 0-26 0-57.6 31.6-57.6 31.6h-157s-21.7 5.6-21.7 24.8 0 53.5 0 53.5 18.3-53.5 79.2-51.3c60.9 2.3 72.2 45.7 72.2 45.7h306s-9-88.7-9-112-5.7-33.4-21.5-33.4z" fill="#E9BC00"/>
	<path d="m665 870c0 31.8-25.8 57.5-57.5 57.5-31.8 0-57.5-25.8-57.5-57.5 0-31.8 25.8-57.5 57.5-57.5 31.7-0.1 57.5 25.7 57.5 57.5z" fill="#110F11"/>
	<path d="m643 870c0 19.7-15.9 35.6-35.6 35.6s-35.6-16-35.6-35.6c0-19.7 15.9-35.6 35.6-35.6 19.7-0.1 35.6 15.9 35.6 35.6z" fill="#D8D9DD"/>
	<path d="m614 870c0 3.9-3.2 7.1-7.1 7.1s-7.1-3.2-7.1-7.1 3.2-7.1 7.1-7.1c4-0.1 7.1 3.1 7.1 7.1z" fill="#A8A7AC"/>
	<path d="m631 844c4.3 5.9 6.8 13.1 6.8 20.9 0 19.7-15.9 35.6-35.6 35.6-9.2 0-17.5-3.5-23.9-9.2 6.5 8.9 16.9 14.7 28.8 14.7 19.7 0 35.6-16 35.6-35.6 0-10.5-4.5-19.9-11.7-26.4z" fill="#D8D9DD"/>
	<path d="m606 790c-45 0-81.4 36.4-81.4 81.4h14c0-37.2 30.1-67.3 67.3-67.3s67.3 30.2 67.3 67.3h14c0.1-45-36.3-81.4-81.2-81.4z" fill="#DE9F00"/>
	<path d="m884 790c-45 0-81.4 36.4-81.4 81.4h163c0-45-36.5-81.4-81.4-81.4z" fill="#DB9600"/>
	<path d="m942 870c0 31.8-25.8 57.5-57.5 57.5-31.8 0-57.5-25.8-57.5-57.5 0-31.8 25.8-57.5 57.5-57.5 31.7-0.1 57.5 25.7 57.5 57.5z" fill="#110F11"/>
	<path d="m920 870c0 19.7-15.9 35.6-35.6 35.6s-35.6-16-35.6-35.6c0-19.7 15.9-35.6 35.6-35.6 19.6-0.1 35.6 15.9 35.6 35.6z" fill="#D8D9DD"/>
	<path d="m892 870c0 3.9-3.2 7.1-7.1 7.1s-7.1-3.2-7.1-7.1 3.2-7.1 7.1-7.1c3.9-0.1 7.1 3.1 7.1 7.1z" fill="#A8A7AC"/>
	<path d="m908 844c4.3 5.9 6.8 13.1 6.8 20.9 0 19.7-15.9 35.6-35.6 35.6-9.2 0-17.5-3.5-23.8-9.2 6.5 8.9 16.9 14.7 28.8 14.7 19.7 0 35.6-16 35.6-35.6 0-10.5-4.6-19.9-11.8-26.4z" fill="#D8D9DD"/>
	<path d="m518 855c0 4.1-3.3 7.4-7.4 7.4s-7.4-3.3-7.4-7.4 3.3-7.4 7.4-7.4c4.1-0.1 7.4 3.3 7.4 7.4z" fill="#858488"/>
	<g fill="#E7BC8D">
		<path d="m672 585c1.8-1.2 0-3.4-1.5-2.6-1.9 1-5.2 2.5-7.6 4-2 1.2 0.1 4.4 2 3.2 2-1.2 5-3.3 7.1-4.6z"/>
		<path d="m673 588c1.6-1.1-0.1-3.3-1.5-2.6-1.7 0.9-4.7 2.2-6.9 3.6-1.8 1.1 0.3 4.3 2 3.2 1.8-1 4.5-3 6.4-4.2z"/>
		<path d="m674 591c1.5-0.9-0.1-2.9-1.3-2.2-1.5 0.8-4.1 2-6.1 3.2-1.6 1 0.2 3.7 1.7 2.7 1.6-0.9 4-2.6 5.7-3.7z"/>
		<path d="m670 582c1.6-1.1-0.1-3.3-1.5-2.6-1.7 0.9-4.7 2.2-6.9 3.6-1.8 1.1 0.3 4.3 2 3.2 1.8-1.1 4.5-3 6.4-4.2z"/>
	</g>
	<path d="m691 608c-1.9 2.2-5.3 2.4-7.5 0.5l-37.3-32.5c-2.2-1.9-2.4-5.3-0.5-7.5s5.3-2.4 7.5-0.5l37.3 32.5c2.2 2 2.5 5.3 0.5 7.5z" fill="#272528"/>
	<polygon points="650 619 641 611 663 586 672 594" fill="#272528"/>
	<rect x="63.1" y="840" width="236" height="30.8" fill="#A8A7AC"/>
</svg>
