<?xml version="1.0" encoding="UTF-8" standalone="no"?>
<svg version="1.1" viewBox="114.6 365.1 845.1 375.8"
   xmlns="http://www.w3.org/2000/svg">
   <defs><linearGradient
       id="gradient"
	   x1="155" y1="450"
       x2="300" y2="600"
       gradientUnits="userSpaceOnUse">
		<stop offset="0" style="stop-color:#715296" />
		<stop offset="1" style="stop-color:#3A3387" />
	</linearGradient></defs>
	<path style="fill:url(#gradient)" d="m 312.1,631.2 10.5,-3.1 c 12.4,-3.7 21.9,-13.9 24.9,-26.4 l 21.2,-89.8 c 0.5,-2 0.7,-4 0.9,-6 z m -173.2,-158.5 -7.2,30.7 64.8,140.7 2.3,2.2 c 4.7,4.4 10.4,7.4 16.6,8.9 2.6,0.6 5.4,0.9 8.1,1 z m 95.5,181.8 23.1,-6.9 -84.1,-182.5 c -1.3,-2.9 -1.1,-6.3 0.6,-8.9 1.7,-2.7 4.7,-4.3 7.9,-4.3 h 28.7 c 3.6,0 7,2.1 8.5,5.4 l 61.9,134.4 59.6,-131 -49.8,-46.8 c -9.4,-8.9 -22.9,-12.1 -35.3,-8.3 L 167.2,432 c -11.6,3.5 -20.6,12.5 -24.2,24 z m -106.7,-134.2 -6.6,27.9 c -3,12.6 1,25.9 10.5,34.8 l 44.2,41.6 z" />
	<path d="m 850.6,454.5 c 32.3,0 59,11.7 80.2,35 19.3,21.3 28.9,46.5 28.9,75.7 0,29.3 -10.2,54.9 -30.6,76.7 -20.4,21.9 -46.6,32.8 -78.6,32.8 -32.2,0 -58.4,-10.9 -78.8,-32.8 -20.4,-21.9 -30.6,-47.5 -30.6,-76.7 0,-29 9.6,-54.2 28.9,-75.5 21.4,-23.4 48.2,-35.2 80.6,-35.2 z m -0.1,26.4 c -22.4,0 -41.7,8.3 -57.8,24.8 -16.1,16.6 -24.2,36.6 -24.2,60.1 0,15.1 3.7,29.3 11,42.4 7.3,13.1 17.3,23.2 29.8,30.3 12.5,7.1 26.2,10.7 41.2,10.7 14.9,0 28.7,-3.6 41.2,-10.7 12.5,-7.1 22.4,-17.2 29.8,-30.3 7.3,-13.1 11,-27.2 11,-42.4 0,-23.5 -8.1,-43.5 -24.3,-60.1 -16.1,-16.5 -35.4,-24.8 -57.7,-24.8 z M 641.3,382.1 h 27 v 77.8 H 711 v 23.3 h -42.8 v 186.2 h -27 V 483.2 h -36.8 v -23.3 h 36.8 z M 489,459.9 h 27.5 v 30.6 c 8.2,-12.1 16.9,-21.1 26,-27.1 9.1,-6 18.6,-9 28.5,-9 7.4,0 15.4,2.4 23.9,7.1 l -14.1,22.7 c -5.7,-2.4 -10.4,-3.7 -14.3,-3.7 -9,0 -17.7,3.7 -26,11.1 -8.3,7.4 -14.7,18.8 -19.1,34.4 -3.3,11.9 -5,36.1 -5,72.4 v 70.9 H 489 Z m -59.4,-86.3 c 6.1,0 11.4,2.2 15.7,6.5 4.3,4.4 6.5,9.6 6.5,15.8 0,6 -2.2,11.2 -6.5,15.6 -4.3,4.4 -9.6,6.5 -15.7,6.5 -6,0 -11.2,-2.2 -15.5,-6.5 -4.3,-4.4 -6.5,-9.6 -6.5,-15.6 0,-6.2 2.2,-11.4 6.5,-15.8 4.3,-4.3 9.5,-6.5 15.5,-6.5 z m -13.4,86.3 h 27 v 209.5 h -27 z m -234.3,0 h 28.7 l 70.3,152.7 69.5,-152.7 h 28.9 l -95.9,209.5 h -5 z" />
	<path d="m 720.8,701.6 h 3.6 V 724 l 13.1,-11.4 h 5.4 l -15.6,13.5 16.5,14.8 h -5.1 l -14.3,-12.8 v 12.8 h -3.6 z m -47,11 h 3.7 v 4.1 c 1.1,-1.6 2.3,-2.9 3.5,-3.7 1.2,-0.8 2.5,-1.2 3.9,-1.2 1,0 2.1,0.3 3.2,1 l -1.9,3.1 c -0.8,-0.3 -1.4,-0.5 -1.9,-0.5 -1.2,0 -2.4,0.5 -3.5,1.5 -1.1,1 -2,2.6 -2.6,4.7 -0.5,1.6 -0.7,4.9 -0.7,9.8 v 9.6 h -3.7 z m -49.7,-0.8 c 4.4,0 8,1.6 10.9,4.7 2.6,2.9 3.9,6.3 3.9,10.2 0,4 -1.4,7.4 -4.1,10.4 -2.8,3 -6.3,4.4 -10.6,4.4 -4.4,0 -7.9,-1.5 -10.7,-4.4 -2.8,-3 -4.1,-6.4 -4.1,-10.4 0,-3.9 1.3,-7.3 3.9,-10.2 2.8,-3.1 6.4,-4.7 10.8,-4.7 z m 0,3.6 c -3,0 -5.6,1.1 -7.8,3.4 -2.2,2.2 -3.3,5 -3.3,8.1 0,2.1 0.5,4 1.5,5.7 1,1.8 2.3,3.1 4,4.1 1.7,1 3.5,1.4 5.6,1.4 2,0 3.9,-0.5 5.6,-1.4 1.7,-0.9 3,-2.3 4,-4.1 1,-1.8 1.5,-3.7 1.5,-5.7 0,-3.2 -1.1,-5.9 -3.3,-8.1 -2.2,-2.2 -4.8,-3.4 -7.8,-3.4 z m -91.2,-2.8 h 3.8 l 8.7,20.6 9.1,-20.6 h 0.7 l 9.1,20.6 8.9,-20.6 H 577 L 564.7,741 H 564 l -9.1,-20.3 -9.1,20.3 H 545 Z M 492.3,702 h 3.6 v 10.5 h 5.8 v 3.2 h -5.8 v 25.2 h -3.6 v -25.2 h -5 v -3.2 h 5 z m -43.6,29.5 3.1,1.6 c -1,2 -2.2,3.6 -3.5,4.8 -1.3,1.2 -2.8,2.1 -4.5,2.8 -1.7,0.6 -3.5,1 -5.6,1 -4.6,0 -8.2,-1.5 -10.9,-4.5 -2.6,-3 -3.9,-6.5 -3.9,-10.3 0,-3.6 1.1,-6.8 3.3,-9.6 2.8,-3.6 6.6,-5.4 11.2,-5.4 4.8,0 8.7,1.8 11.6,5.5 2.1,2.6 3.1,5.8 3.1,9.7 h -25.5 c 0.1,3.3 1.1,6 3.2,8.1 2,2.1 4.6,3.2 7.5,3.2 1.4,0 2.8,-0.3 4.2,-0.8 1.4,-0.5 2.5,-1.2 3.5,-2 1.1,-0.9 2.1,-2.2 3.2,-4.1 z m 0,-7.6 c -0.5,-1.9 -1.2,-3.5 -2.1,-4.7 -0.9,-1.2 -2.2,-2.1 -3.7,-2.8 -1.5,-0.7 -3.1,-1.1 -4.8,-1.1 -2.8,0 -5.2,0.9 -7.2,2.7 -1.5,1.3 -2.6,3.3 -3.3,5.9 z m -86,-11.3 h 3.6 v 5.1 c 1.5,-1.9 3.1,-3.4 4.8,-4.4 1.8,-1 3.7,-1.4 5.8,-1.4 2.1,0 4,0.5 5.6,1.6 1.6,1.1 2.9,2.5 3.6,4.4 0.8,1.8 1.2,4.7 1.2,8.5 V 741 h -3.6 v -13.5 c 0,-3.3 -0.1,-5.4 -0.4,-6.5 -0.4,-1.9 -1.2,-3.3 -2.4,-4.2 -1.2,-0.9 -2.8,-1.4 -4.7,-1.4 -2.2,0 -4.2,0.7 -5.9,2.2 -1.7,1.5 -2.9,3.3 -3.5,5.4 -0.3,1.4 -0.5,4 -0.5,7.7 v 10.4 h -3.6 z m -40.3,22.6 c 0.9,0 1.6,0.3 2.3,0.9 0.6,0.6 0.9,1.4 0.9,2.3 0,0.9 -0.3,1.6 -0.9,2.3 -0.6,0.6 -1.4,1 -2.3,1 -0.9,0 -1.6,-0.3 -2.3,-1 -0.6,-0.6 -0.9,-1.4 -0.9,-2.3 0,-0.9 0.3,-1.7 0.9,-2.3 0.6,-0.6 1.4,-0.9 2.3,-0.9 z"/>
</svg>
