<?xml version="1.0" encoding="utf-8"?>
<!-- Generator: Adobe Illustrator 18.0.0, SVG Export Plug-In . SVG Version: 6.00 Build 0)  -->
<!DOCTYPE svg PUBLIC "-//W3C//DTD SVG 1.1//EN" "http://www.w3.org/Graphics/SVG/1.1/DTD/svg11.dtd">
<svg version="1.1" id="Capa_1" xmlns="http://www.w3.org/2000/svg" xmlns:xlink="http://www.w3.org/1999/xlink" x="0px" y="0px"
	 viewBox="374.1 390.1 331.7 299.9" enable-background="new 374.1 390.1 331.7 299.9" xml:space="preserve">
<g>
	<g>
		<g>
			<g>
				<g>
					<path fill="#FFFFFF" d="M599.2,690H480.8c-16.9,0-32.7-9.1-41.1-23.7l-59.2-102.5c-8.5-14.6-8.5-32.8,0-47.5l59.2-102.5
						c8.5-14.6,24.2-23.7,41.1-23.7h118.4c16.9,0,32.7,9.1,41.1,23.7l59.2,102.5c4.2,7.2,6.3,15.4,6.3,23.7s-2.2,16.5-6.3,23.7
						l-59.2,102.5C631.9,680.9,616.1,690,599.2,690z M480.8,405.5c-11.4,0-22,6.1-27.7,16L393.9,524c-5.7,9.9-5.7,22.1,0,32
						l59.2,102.5c5.7,9.9,16.3,16,27.7,16h118.4c11.4,0,22-6.1,27.7-16L686.1,556c2.8-4.8,4.3-10.4,4.3-16s-1.5-11.1-4.3-16
						l-59.2-102.5c-5.7-9.9-16.3-16-27.7-16H480.8z"/>
				</g>
			</g>
			<g>
				<g>
					<path fill="#FFFFFF" d="M587.1,616.3h-91.3c-11.2,0-24.4-6.9-29.5-15.3c-3.5-5.9-6-10.8-7.6-24.5c-0.1-0.5-0.1-1-0.1-1.6
						c-5.6-18.3-7.6-59.3-8-67.6v-1.1V506v-13.9H433c-6.5,0-11.8-5.3-11.8-11.8s5.3-11.8,11.8-11.8h29.4c6.5,0,11.8,5.3,11.8,11.8
						V495h161.2c3.9,0,7.6,1.9,9.8,5.2c3.3,4.9,5,10.5,5,16.2s-1.7,11.3-5,16.2l-33.5,49.8c-0.3,0.5-0.6,0.9-1,1.4
						c0.9,0.3,1.7,0.8,2.5,1.3c2.6,1.7,4.4,4.4,5,7.5s0,6.2-1.8,8.8C610.2,610.6,599,616.3,587.1,616.3z M555.5,573.8H572v-15.1
						h-16.5V573.8z M515.5,573.8H532v-15.1h-16.5V573.8z M481.7,569.7c1.1,1.3,5.7,4,9.4,4h0.9v-15.1h-13
						C480.4,566.7,481.4,569.1,481.7,569.7z M595.5,558.6v5.7l3.8-5.7H595.5z M595.5,535.1h19.6l10.5-15.6c0.2-0.3,0.4-0.6,0.5-1
						h-30.7v16.6H595.5z M555.5,535.1H572v-16.6h-16.5V535.1z M474.8,518.5c0.4,5.6,0.8,11.2,1.3,16.6c4.2,0,9.6,0,15.8,0v-16.6
						H474.8z M515.5,535.1H532v-16.6h-16.5V535.1z"/>
				</g>
				<g>
					<g>
						<path fill="#FFFFFF" d="M571.5,640.2c-10.9,0-19.8-8.9-19.8-19.8s8.9-19.8,19.8-19.8s19.8,8.9,19.8,19.8
							S582.4,640.2,571.5,640.2z M571.5,616c-2.4,0-4.3,1.9-4.3,4.3c0,2.4,1.9,4.3,4.3,4.3s4.3-1.9,4.3-4.3S573.9,616,571.5,616z"/>
					</g>
					<g>
						<path fill="#FFFFFF" d="M571.5,642.2c-12,0-21.8-9.8-21.8-21.8s9.8-21.8,21.8-21.8s21.8,9.8,21.8,21.8
							S583.5,642.2,571.5,642.2z M571.5,618c-1.3,0-2.3,1-2.3,2.3s1,2.3,2.3,2.3s2.3-1,2.3-2.3S572.8,618,571.5,618z"/>
					</g>
				</g>
				<g>
					<g>
						<path fill="#FFFFFF" d="M507.8,640.2c-10.9,0-19.8-8.9-19.8-19.8s8.9-19.8,19.8-19.8c10.9,0,19.8,8.9,19.8,19.8
							S518.8,640.2,507.8,640.2z M507.8,616c-2.4,0-4.3,1.9-4.3,4.3c0,2.4,1.9,4.3,4.3,4.3s4.3-1.9,4.3-4.3S510.2,616,507.8,616z"/>
					</g>
					<g>
						<path fill="#FFFFFF" d="M507.8,642.2c-12,0-21.8-9.8-21.8-21.8s9.8-21.8,21.8-21.8s21.8,9.8,21.8,21.8
							C529.7,632.4,519.9,642.2,507.8,642.2z M507.8,618c-1.3,0-2.3,1-2.3,2.3s1,2.3,2.3,2.3s2.3-1,2.3-2.3
							C510.1,619,509.1,618,507.8,618z"/>
					</g>
				</g>
			</g>
		</g>
	</g>
	<g>
		<g>
			<g>
				<path fill="#97448F" d="M698.1,540c0-6.9-1.8-13.7-5.3-19.9l-59.2-102.5c-7.1-12.2-20.2-19.9-34.4-19.9H480.8
					c-14.1,0-27.3,7.6-34.4,19.9l-59.2,102.5c-7.1,12.3-7.1,27.5,0,39.7l59.2,102.5c7.1,12.2,20.3,19.9,34.4,19.9h118.4
					c14.1,0,27.3-7.6,34.4-19.9l59.2-102.5C696.3,553.7,698.1,546.9,698.1,540z"/>
			</g>
			<g>
				<path fill="#FFFFFF" d="M582.4,589.5c0.3,0,0.5-0.1,0.8-0.1c0.2,0,0.3,0.1,0.5,0.1c0.6,0,1.1-0.1,1.6-0.3
					c8.2-0.8,15.7-4.8,19.9-11.1l33.5-49.8c2.4-3.6,3.7-7.7,3.7-11.9s-1.3-8.3-3.7-11.9c-0.7-1.1-2-1.8-3.3-1.8h-169v-22.5
					c0-2.2-1.8-4-4-4H433c-2.2,0-4,1.8-4,4s1.8,4,4,4h25.4v22.5c0,0,0,0,0,0.1v0.1c0.2,5.5,2.3,50.6,8.1,67.1
					c-0.1,0.5-0.2,0.9-0.1,1.4c1.5,12.4,3.4,16.2,6.5,21.4c3.3,5.5,13.5,11.6,22.9,11.6h91.3c9.3,0,18-4.4,22.8-11.4
					c1.2-1.8,0.7-4.3-1.1-5.5s-4.3-0.7-5.5,1.1c-3.3,4.9-9.4,7.9-16.1,7.9h-91.3c-6.6,0-14.2-4.6-16-7.7c-1.4-2.4-2.6-4.3-3.5-7.7
					c4.4,2.5,9.7,4.4,14.8,4.4L582.4,589.5L582.4,589.5z M475.1,573.8c-2-3.2-3.6-12.1-5-22.9c5.1,0,16,0,29.7,0v30.6h-8.6
					C484.5,581.5,476.9,576.9,475.1,573.8z M579.7,581.5h-32v-30.6c11.1,0,22,0,32,0V581.5z M539.7,581.5h-32v-30.6
					c9.9,0,20.9,0,32,0V581.5z M547.7,542.9v-32.1h32v32.1C569.7,542.9,558.8,542.9,547.7,542.9z M539.7,542.9c-11.1,0-22.1,0-32,0
					v-32.1h32V542.9z M598.5,573.6c-2.4,3.5-6.3,6.1-10.8,7.2v-30c11,0,20.2,0,26.2,0L598.5,573.6z M634.4,516.4
					c0,2.6-0.8,5.2-2.3,7.4l-12.8,19.1c-4.6,0-16.4,0-31.5,0v-32.1h45.4C633.9,512.6,634.4,514.5,634.4,516.4z M499.7,510.8v32.1
					c-14.6,0-26,0-30.6,0c-1.1-10.8-2-22.5-2.5-32.1L499.7,510.8L499.7,510.8z"/>
				<g>
					<circle fill="#FFFFFF" cx="571.5" cy="620.3" r="12.1"/>
					<path fill="#97448F" d="M571.5,634.4c-7.8,0-14.1-6.3-14.1-14.1s6.3-14.1,14.1-14.1s14.1,6.3,14.1,14.1
						S579.2,634.4,571.5,634.4z M571.5,610.2c-5.6,0-10.1,4.5-10.1,10.1s4.5,10.1,10.1,10.1s10.1-4.5,10.1-10.1
						S577,610.2,571.5,610.2z"/>
				</g>
				<g>
					<circle fill="#FFFFFF" cx="507.8" cy="620.3" r="12.1"/>
					<path fill="#97448F" d="M507.8,634.4c-7.8,0-14.1-6.3-14.1-14.1s6.3-14.1,14.1-14.1c7.8,0,14.1,6.3,14.1,14.1
						S515.6,634.4,507.8,634.4z M507.8,610.2c-5.6,0-10.1,4.5-10.1,10.1s4.5,10.1,10.1,10.1c5.6,0,10.1-4.5,10.1-10.1
						S513.4,610.2,507.8,610.2z"/>
				</g>
			</g>
		</g>
	</g>
</g>
</svg>
