<?xml version="1.0" encoding="utf-8"?>
<!-- Generator: Adobe Illustrator 27.8.1, SVG Export Plug-In . SVG Version: 6.00 Build 0)  -->
<svg version="1.1" id="Capa_1" xmlns="http://www.w3.org/2000/svg" xmlns:xlink="http://www.w3.org/1999/xlink" x="0px" y="0px"
	 viewBox="0 0 535.3 688.41" style="enable-background:new 0 0 435.3 568.41;" xml:space="preserve">
<style type="text/css">
	.st0{fill:#10352B;}
	.st1{fill:#51CB59;}
	.st2{fill:#A8E6A5;}
	.st3{fill:#DECFF1;}
	.st4{fill:#915FD0;}
	.st5{fill:#C8AFE7;}
	.st6{fill:#80D4F1;}
	.st7{fill:#F3F5F4;}
	.st8{fill:#F2E770;}
	.st9{fill:#FFFFFF;}
	.st10{fill:#F2D54C;}
	.st11{fill-rule:evenodd;clip-rule:evenodd;fill:#F2E770;}
	.st12{fill-rule:evenodd;clip-rule:evenodd;fill:#C8AFE7;}
	.st13{fill-rule:evenodd;clip-rule:evenodd;fill:#915FD0;}
	.st14{fill-rule:evenodd;clip-rule:evenodd;fill:#FD6085;}
	.st15{fill-rule:evenodd;clip-rule:evenodd;fill:#DECFF1;}
	.st16{fill:#00A8E3;}
	.st17{fill:#59A57C;}
	.st18{fill:#7ED4A7;}
	.st19{fill:#EDDFCE;}
	.st20{fill:#DBCBB9;}
	.st21{fill:#FDCE5E;}
	.st22{fill-rule:evenodd;clip-rule:evenodd;fill:#A8E6A5;}
	.st23{fill-rule:evenodd;clip-rule:evenodd;fill:#51CB59;}
	.st24{fill-rule:evenodd;clip-rule:evenodd;fill:#EBFDFF;}
	.st25{fill-rule:evenodd;clip-rule:evenodd;fill:#7DB8B5;}
	.st26{fill-rule:evenodd;clip-rule:evenodd;fill:#9CDAD7;}
	.st27{fill-rule:evenodd;clip-rule:evenodd;fill:#007976;}
	.st28{fill-rule:evenodd;clip-rule:evenodd;fill:#2C4B5F;}
	.st29{fill-rule:evenodd;clip-rule:evenodd;fill:#182F3B;}
</style>
<g>
	<g>
		<g>
			<path class="st1" d="M340.67,0.09c-7.39,0-7.39,0.42-14.79,0.42c-7.4,0-7.4,0.5-14.79,0.5c-7.39,0-7.39-0.82-14.79-0.82
				c-7.39,0-7.39,1.82-14.79,1.82c-7.39,0-7.39-1.35-14.79-1.35c-7.39,0-7.39,0.45-14.79,0.45c-7.39,0-7.39,0.89-14.79,0.89
				c-7.4,0-7.4-0.78-14.79-0.78c-7.39,0-7.39-1.14-14.79-1.14c-7.4,0-7.4,0.5-14.79,0.5c-7.4,0-7.4,1.32-14.79,1.32
				c-7.4,0-7.4,0.03-14.79,0.03C155.8,1.95,155.8,0,148.41,0c-7.4,0-7.4,2.18-14.79,2.18c-7.39,0-7.39-1.4-14.79-1.4
				c-7.4,0-7.4-0.63-14.8-0.63s-7.4,0.7-14.8,0.7c-4.6,0-8.86,1.6-13.01,2.95c-4.3,1.4-8.01,3.58-11.59,6.19
				c-3.62,2.63-7.24,5.2-9.87,8.82c-2.6,3.58-4.91,7.49-6.31,11.79c-1.35,4.15-3.16,8.65-3.16,13.25c0,7.28,2.81,7.28,2.81,14.56
				c0,7.28-2.04,7.28-2.04,14.56c0,7.28,1.15,7.28,1.15,14.56c0,7.28-1.38,7.28-1.38,14.56c0,7.28,2.12,7.28,2.12,14.56
				c0,7.28-1.16,7.28-1.16,14.56c0,7.28-1.07,7.28-1.07,14.56c0,7.28,1.22,7.28,1.22,14.56c0,7.28,0.97,7.28,0.97,14.56
				c0,7.28,0.12,7.28,0.12,14.56c0,7.28-1.18,7.28-1.18,14.56c0,7.28,0.32,7.28,0.32,14.56c0,7.28-1.21,7.28-1.21,14.56
				c0,7.28,0.43,7.28,0.43,14.56c0,7.28,0.78,7.28,0.78,14.56c0,7.28-1.97,7.28-1.97,14.56c0,7.28,1.83,7.28,1.83,14.56
				c0,7.28-0.25,7.28-0.25,14.56c0,7.28-0.6,7.28-0.6,14.56c0,7.28,0.06,7.28,0.06,14.56c0,7.28-0.34,7.28-0.34,14.56
				c0,7.28,0.12,7.28,0.12,14.56c0,7.28-0.68,7.28-0.68,14.56c0,7.28-0.23,7.28-0.23,14.57c0,7.28,0.5,7.28,0.5,14.56
				c0,7.28,1.11,7.28,1.11,14.56c0,7.28-0.13,7.28-0.13,14.56c0,7.28,0.41,7.28,0.41,14.57c0,7.28-1.02,7.28-1.02,14.56
				c0,7.28,0.29,7.28,0.29,14.57c0,7.28-0.09,7.28-0.09,14.56c0,7.29,1.59,7.29,1.59,14.57c0,7.29-0.94,7.29-0.94,14.57
				c0,4.6,0.49,9.03,1.84,13.18c1.4,4.3,4.44,7.59,7.05,11.17c2.63,3.62,5.03,7.25,8.64,9.88c3.58,2.6,7.08,5.88,11.38,7.28
				c4.15,1.35,8.89,0.29,13.49,0.29c7.39,0,7.39,1.79,14.79,1.79c7.4,0,7.4-2.34,14.79-2.34c7.39,0,7.39,1.36,14.79,1.36
				c7.39,0,7.39-1.12,14.79-1.12c7.39,0,7.39,1.39,14.79,1.39c7.39,0,7.39-1.21,14.79-1.21c7.39,0,7.39,0.31,14.79,0.31
				c7.4,0,7.4,2.04,14.79,2.04c7.39,0,7.39-2.59,14.79-2.59c7.4,0,7.4,2.06,14.79,2.06c7.4,0,7.4-1.97,14.79-1.97
				c7.4,0,7.4,1.51,14.79,1.51c7.39,0,7.39-0.12,14.79-0.12c7.4,0,7.4,0.31,14.79,0.31c7.39,0,7.39-0.83,14.79-0.83
				c7.4,0,7.4,0.6,14.8,0.6c7.4,0,7.4-1.12,14.8-1.12c4.6,0,8.72-0.9,12.87-2.25c4.3-1.4,8.33-2.89,11.91-5.5
				c3.62-2.63,6.29-6.01,8.92-9.63c2.6-3.58,5.53-6.98,6.92-11.28c1.35-4.15,2.45-8.6,2.45-13.2c0-7.28,0.94-7.28,0.94-14.56
				c0-7.28-1.24-7.28-1.24-14.56c0-7.28,0.98-7.28,0.98-14.56c0-7.28-0.41-7.28-0.41-14.56c0-7.28-1.87-7.28-1.87-14.56
				c0-7.28-0.24-7.28-0.24-14.56c0-7.28,1.94-7.28,1.94-14.56c0-7.28-1.84-7.28-1.84-14.56c0-7.28,2.68-7.28,2.68-14.56
				c0-7.28-2.15-7.28-2.15-14.56c0-7.28-0.61-7.28-0.61-14.56c0-7.28,0.06-7.28,0.06-14.56c0-7.28,0.81-7.28,0.81-14.56
				c0-7.28,0.33-7.28,0.33-14.56c0-7.28-0.47-7.28-0.47-14.56c0-7.28,0.01-7.28,0.01-14.56c0-7.28,1.09-7.28,1.09-14.56
				c0-7.28-1.15-7.28-1.15-14.56c0-7.28,1.26-7.28,1.26-14.56c0-7.28-0.87-7.28-0.87-14.56c0-7.28,0.58-7.28,0.58-14.56
				c0-7.28,0.33-7.28,0.33-14.56c0-7.28-0.89-7.28-0.89-14.56c0-7.28-0.25-7.28-0.25-14.57c0-7.28-0.27-7.28-0.27-14.56
				c0-7.28,1.11-7.28,1.11-14.56c0-7.28-1.77-7.28-1.77-14.56c0-7.28,2.22-7.28,2.22-14.57c0-7.28,0.46-7.28,0.46-14.56
				c0-7.28-0.6-7.28-0.6-14.57c0-7.28,0.07-7.28,0.07-14.56c0-7.29-0.45-7.29-0.45-14.57s-0.32-7.29-0.32-14.57
				c0-4.6-1.1-8.89-2.44-13.04c-1.4-4.3-2.61-8.75-5.21-12.33c-2.63-3.62-6.62-5.98-10.23-8.61c-3.58-2.6-7.44-4.44-11.74-5.84
				C349.45,2.69,345.27,0.09,340.67,0.09z"/>
		</g>
		<g>
			<path class="st9" d="M366.67,469.08c5.07-5-0.26-7.36-0.26-14.48c0-7.12,0.36-7.12,0.36-14.24c0-7.12-0.61-7.12-0.61-14.24
				c0-7.12,1.05-7.12,1.05-14.24c0-7.12-0.85-7.12-0.85-14.24c0-7.12,0.9-7.12,0.9-14.24c0-7.12-2.29-7.12-2.29-14.24
				c0-7.12,2.93-7.12,2.93-14.24c0-7.12-2.19-7.12-2.19-14.24c0-7.12,1.62-7.12,1.62-14.24c0-7.12-0.72-7.12-0.72-14.24
				c0-7.12-0.23-7.12-0.23-14.24c0-7.12-0.15-7.12-0.15-14.24c0-7.12,1.38-7.12,1.38-14.24c0-7.12-0.42-7.12-0.42-14.24
				c0-7.12-1.62-7.12-1.62-14.24c0-7.12,0.24-7.12,0.24-14.24c0-7.12,1-7.12,1-14.24c0-7.12-1.69-7.12-1.69-14.24
				c0-7.12,0.3-7.12,0.3-14.25c0-7.12,2.16-7.12,2.16-14.24c0-7.12-1.68-7.12-1.68-14.24c0-7.12,0.79-7.12,0.79-14.24
				c0-7.12,0.59-7.12,0.59-14.25c0-7.12-0.5-7.12-0.5-14.24c0-7.12,0.96-7.12,0.96-14.25c0-7.12-2.63-7.12-2.63-14.24
				c0-7.13,1.54-7.13,1.54-14.25s4.75-9.16-0.31-14.17c-5.13-5.07-7.13,1.29-14.35,1.29c-7.21,0-7.21-2-14.42-2
				c-7.21,0-7.21,1.77-14.43,1.77c-7.21,0-7.21-0.09-14.43-0.09c-7.21,0-7.21-2.55-14.43-2.55c-7.21,0-7.21,2.44-14.42,2.44
				c-7.21,0-7.21-0.75-14.42-0.75c-7.21,0-7.21,0.07-14.43,0.07c-7.21,0-7.21-1.6-14.42-1.6c-7.21,0-7.21,1.89-14.42,1.89
				c-7.21,0-7.21-1.93-14.43-1.93c-7.21,0-7.21,0.95-14.43,0.95c-7.21,0-7.21,0.02-14.43,0.02c-7.21,0-7.21-0.62-14.43-0.62
				c-7.21,0-7.21,2.4-14.43,2.4c-7.21,0-7.21,0.03-14.43,0.03c-7.21,0-7.21-2.18-14.43-2.18c-7.22,0-7.22-0.44-14.43-0.44
				c-7.21,0-7.21,1.99-14.43,1.99c-7.22,0-7.22-0.98-14.44-0.98c-7.22,0-9.99-5.56-15.13-0.49c-5.07,5,0.84,7.83,0.84,14.95
				c0,7.12,0.39,7.12,0.39,14.24c0,7.12-1.87,7.12-1.87,14.24c0,7.12,2.11,7.12,2.11,14.24c0,7.12-0.37,7.12-0.37,14.24
				c0,7.12,0.29,7.12,0.29,14.24c0,7.12-1.57,7.12-1.57,14.24c0,7.12,0.62,7.12,0.62,14.24c0,7.12,0.44,7.12,0.44,14.24
				c0,7.12,0.82,7.12,0.82,14.24c0,7.12-0.17,7.12-0.17,14.24c0,7.12-1.71,7.12-1.71,14.24c0,7.12-0.54,7.12-0.54,14.24
				c0,7.12,2.07,7.12,2.07,14.24c0,7.12,0.34,7.12,0.34,14.24c0,7.12-0.23,7.12-0.23,14.24c0,7.12,0.13,7.12,0.13,14.24
				c0,7.12-0.04,7.12-0.04,14.24c0,7.12-0.68,7.12-0.68,14.24c0,7.12,0.05,7.12,0.05,14.25c0,7.12,0.47,7.12,0.47,14.24
				c0,7.12-0.47,7.12-0.47,14.24c0,7.12,1.17,7.12,1.17,14.24c0,7.12-0.4,7.12-0.4,14.25c0,7.12-2.31,7.12-2.31,14.24
				c0,7.12,2.77,7.12,2.77,14.25c0,7.12-1.73,7.12-1.73,14.24c0,7.13,1.29,7.13,1.29,14.25s-6.77,9.93-1.7,14.94
				c5.13,5.07,7.89-1.96,15.1-1.96c7.21,0,7.21,1.36,14.42,1.36c7.21,0,7.21,0.68,14.43,0.68c7.21,0,7.21-1.39,14.43-1.39
				c7.21,0,7.21,0.61,14.43,0.61c7.21,0,7.21,0.96,14.42,0.96c7.21,0,7.21-0.34,14.42-0.34c7.21,0,7.21,0.34,14.43,0.34
				c7.21,0,7.21-0.93,14.42-0.93c7.21,0,7.21,0.85,14.42,0.85c7.21,0,7.21,0.22,14.43,0.22c7.21,0,7.21,0.18,14.43,0.18
				c7.21,0,7.21-0.17,14.43-0.17c7.21,0,7.21-2.33,14.43-2.33c7.21,0,7.21,1.43,14.43,1.43c7.21,0,7.21-0.04,14.43-0.04
				c7.21,0,7.21,1.31,14.43,1.31c7.22,0,7.22-2.76,14.43-2.76c7.21,0,7.21,1.62,14.43,1.62c7.22,0,7.11-0.59,14.15,0.98
				C359.36,471.81,361.53,474.14,366.67,469.08z"/>
		</g>
		<g>
			<path class="st9" d="M243.73,39.71c-7.19,0-7.19,0.56-14.39,0.56c-7.19,0-7.19-1.21-14.38-1.21c-7.2,0-7.2,0.64-14.39,0.64
				c-7.2,0-7.2-1.32-14.39-1.32c-2.69,0-3.69-0.95-3.69-3.64c0-0.62-1.49-0.62-1.49-1.23c0-2.69,2.49-4.08,5.18-4.08
				c7.19,0,7.19,0.23,14.39,0.23c7.19,0,7.19-0.98,14.38-0.98c7.2,0,7.2,1.21,14.39,1.21s7.2-1.23,14.39-1.23
				c2.69,0,4.89,2.16,4.89,4.85c0,0.62-1.07,0.62-1.07,1.23C247.55,37.42,246.42,39.71,243.73,39.71z"/>
		</g>
		<g>
			<g>
				<path class="st8" d="M207.67,279.48c0.27-4.96-2.39-9.84-2.81-14.64c-0.43-4.93,1.07-10.14-0.04-14.85
					c-1.13-4.8-2.76-9.6-4.54-14.12c-1.8-4.57-5.86-8.06-8.28-12.3c-2.43-4.26-3.19-9.67-6.18-13.52c-3-3.86-7.53-6.48-11.05-9.88
					c-3.51-3.39-6.46-7.58-10.43-10.45c-3.95-2.85-9.03-3.99-13.38-6.27c-4.3-2.26-8.68-4.23-13.33-5.87
					c-4.57-1.61-9.32-2.28-14.17-3.24c-4.73-0.94-9.4-1.83-14.35-2.1c-4.96-0.27-9.86-1.83-14.67-1.41
					c-4.93,0.43-9.66,2.06-14.38,3.17c-4.8,1.13-9.35,2.83-13.87,4.61c-4.57,1.8-9.1,3.6-13.34,6.01
					c-4.26,2.43-8.42,5.02-12.27,8.02c-3.86,3-7.19,6.6-10.59,10.11c-3.39,3.51-7.43,6.56-10.3,10.53
					c-2.85,3.95-3.94,9.02-6.22,13.37c-2.26,4.3-4.48,8.55-6.12,13.19c-1.61,4.57-4.16,8.95-5.12,13.8
					c-0.94,4.73-1.94,9.66-2.21,14.62c-0.27,4.96,2.23,9.79,2.66,14.59c0.43,4.93-1.38,10.17-0.27,14.88
					c1.13,4.8,4.63,8.86,6.41,13.38c1.8,4.57,3.81,8.9,6.22,13.14c2.43,4.26,5.24,8.12,8.23,11.97c3,3.86,4.53,9.11,8.05,12.51
					c3.51,3.39,7.97,5.89,11.94,8.76c3.95,2.85,8.66,4.51,13.01,6.79c4.3,2.26,8.52,4.69,13.16,6.33c4.57,1.61,9.43,2.09,14.28,3.05
					c4.73,0.94,9.46,1.39,14.42,1.66c4.96,0.27,9.67-0.13,14.47-0.55c4.93-0.43,9.61-0.95,14.33-2.06c4.8-1.13,9.87-1.1,14.4-2.88
					c4.57-1.8,9.47-3.18,13.7-5.59c4.26-2.43,6.93-7.24,10.79-10.23c3.86-3,9.33-4.26,12.73-7.78c3.39-3.51,5.6-8.2,8.47-12.17
					c2.85-3.95,4.88-8.42,7.16-12.77c2.26-4.3,5.48-8.27,7.12-12.91c1.61-4.57,1.92-9.61,2.88-14.46
					C205.11,289.17,207.4,284.43,207.67,279.48z"/>
			</g>
			<g>
				<path class="st10" d="M108.04,192.09c-4.81-0.26-9.47,1.38-14.09,1.94c-4.75,0.57-9.4,0.97-13.88,2.33
					c-4.56,1.39-8.69,3.57-12.88,5.7c-4.23,2.15-8.9,3.57-12.67,6.41c-3.78,2.84-6.43,6.95-9.67,10.4
					c-3.22,3.44-7.6,6.06-10.19,10.04c-2.57,3.94-4.56,8.41-6.43,12.8c-1.84,4.31-2.82,9.04-3.9,13.7
					c-1.05,4.54-2.87,9.18-3.13,13.99c-0.26,4.81-0.03,9.75,0.52,14.38c0.57,4.75,3.75,8.94,5.12,13.42
					c1.39,4.56,2.82,8.92,4.96,13.11c2.15,4.23,5.11,7.76,7.95,11.53c2.84,3.78,4.71,8.35,8.16,11.59
					c3.44,3.22,7.84,5.22,11.81,7.81c3.94,2.57,7.12,6.76,11.5,8.63c4.31,1.84,9.55,1.12,14.22,2.2c4.54,1.05,8.99,2.87,13.8,3.13
					c4.81,0.26,9.62,0.46,14.24-0.09c4.75-0.57,9.18-2.57,13.66-3.93c4.56-1.39,9.63-1.64,13.82-3.78
					c4.23-2.15,8.44-4.75,12.21-7.58c3.78-2.84,6.09-7.44,9.33-10.89c3.22-3.44,6.34-6.91,8.93-10.89c2.57-3.94,6.04-7.52,7.91-11.9
					c1.84-4.31,3.48-8.95,4.56-13.61c1.05-4.54,1.24-9.44,1.5-14.25c0.26-4.81,0.03-9.64-0.52-14.26c-0.57-4.75-2.64-9.16-4-13.64
					c-1.39-4.56-1.9-9.48-4.03-13.68c-2.15-4.23-5.16-8.06-7.99-11.83c-2.84-3.78-5.28-8.17-8.73-11.4
					c-3.44-3.22-7.58-5.98-11.55-8.57c-3.94-2.57-8.2-5.06-12.58-6.93c-4.31-1.84-9.53-1.12-14.19-2.2
					C117.25,194.71,112.85,192.35,108.04,192.09z M99.98,341.25c-5.2-0.28-10.51,0.31-15.32-1.06c-4.96-1.41-9.59-3.95-14.01-6.39
					c-4.49-2.47-9.03-5.12-12.82-8.49c-3.81-3.39-6.3-8.07-9.27-12.22c-2.95-4.13-6.58-8-8.55-12.73
					c-1.94-4.65-1.63-10.04-2.5-15.13c-0.84-4.93-1.5-9.82-1.22-15.02c0.28-5.2,0.6-10.24,1.97-15.05c1.41-4.96,4.37-9.11,6.8-13.52
					c2.47-4.49,5.23-8.47,8.6-12.26c3.39-3.81,5.69-8.88,9.84-11.84c4.13-2.95,8.92-5.27,13.65-7.25c4.65-1.94,9.61-4.06,14.7-4.93
					c4.93-0.84,10.24,0.5,15.44,0.78c5.2,0.28,10.49,0.02,15.3,1.39c4.96,1.41,8.81,5.37,13.22,7.8c4.49,2.47,9.96,3.53,13.75,6.91
					c3.81,3.39,6.41,8.05,9.38,12.2c2.95,4.13,5.08,8.7,7.05,13.43c1.94,4.65,4.38,9.26,5.25,14.35c0.84,4.93-0.51,10.04-0.79,15.24
					c-0.28,5.2-1.12,9.97-2.49,14.78c-1.41,4.96-1.62,10.34-4.05,14.76c-2.47,4.49-5.75,8.58-9.12,12.37
					c-3.39,3.81-8.06,6.17-12.2,9.13c-4.13,2.95-8.45,5.23-13.18,7.2c-4.65,1.94-9.23,3.81-14.32,4.68
					C110.14,341.22,105.18,341.53,99.98,341.25z"/>
			</g>
			<g>
				<path class="st8" d="M107.25,206.71c-5.2-0.28-10.17-0.32-15.09,0.53c-5.09,0.87-9.9,2.23-14.55,4.18
					c-4.73,1.97-8.98,4.59-13.11,7.54c-4.15,2.96-7.28,6.78-10.67,10.59c-3.37,3.79-6.93,7.26-9.41,11.75
					c-2.43,4.42-5.84,8.6-7.26,13.56c-1.37,4.81,0.25,10.2-0.03,15.4c-0.28,5.2-0.7,10.09,0.14,15.01
					c0.87,5.09,1.05,10.33,2.99,14.98c1.97,4.73,5.84,8.36,8.79,12.49c2.96,4.15,5.21,8.91,9.02,12.31c3.79,3.37,8,6.46,12.49,8.93
					c4.42,2.43,9.61,3.15,14.57,4.57c4.81,1.37,9.62,2.87,14.83,3.15c5.2,0.28,10.45,1.05,15.38,0.21
					c5.09-0.87,9.32-4.46,13.98-6.41c4.73-1.97,10.55-2.07,14.68-5.02c4.15-2.96,6.41-8.19,9.8-12c3.37-3.79,8.25-6.67,10.72-11.15
					c2.43-4.42,2.62-9.96,4.03-14.93c1.37-4.81,1.97-9.73,2.25-14.93c0.28-5.2,0.33-10.18-0.51-15.1
					c-0.87-5.09-2.92-9.62-4.86-14.28c-1.97-4.73-2.78-10.09-5.72-14.22c-2.96-4.15-7.17-7.33-10.98-10.72
					c-3.79-3.37-7.95-6.24-12.43-8.72c-4.42-2.43-8.83-5.21-13.79-6.63C117.68,206.46,112.45,207,107.25,206.71z"/>
			</g>
			<g>
				<g>
					<path class="st10" d="M109.44,312.37c-2.41,7.83,3.98,10.51-1.72,16.39c-4.96,5.11-10.01,4.22-14.36-1.42
						c-5.05-6.52,3.68-8.49,1.84-16.53c-4.88-0.95-10.45-3.17-14.85-5.3c-4.6-2.22-9.72-4.25-13.22-7.45
						c2.24-8.25,2.7-8.87,8.83-14.83c3.46,3.32,7.79,6.59,12.25,8.82c5,2.49,10.33,2.47,14.45,2.69c5.77,0.31,10.61-0.18,10.83-4.14
						c0.23-4.21-5.55-5.35-11.24-7.38c-3.96-1.41-8.09-4.19-12.47-6.04c-4.37-1.85-8.23-4.18-11.05-7.68
						c-2.58-3.21-5.73-7.15-5.43-12.71c0.34-6.27,4.43-11.14,8.91-14.8c4-3.28,8.02-6.14,14.54-6.85c3.22-7.18-2.56-8.69,3.03-14.24
						c5.06-5.02,9.25-6.01,13.75-0.5c4.95,6.05-3.11,8.36-1.54,16.02c4.19,0.69,8.67,1.39,12.44,2.89
						c4.07,1.62,7.68,4.07,10.84,6.35c-2.4,8.26-2.37,8.83-8.17,15.18c-3.52-2.26-7.19-5.4-11.07-7.02
						c-4.57-1.91-9.38-2.76-12.73-2.94c-4.71-0.25-7.88,1.84-8.07,5.27c-0.22,4.14,3.93,6.6,9.69,8.71
						c3.98,1.46,8.37,3.45,12.75,5.41c4.34,1.94,9.26,3.21,12.04,6.83c2.52,3.29,4.54,7.94,4.24,13.53
						c-0.24,4.43-2.34,8.33-4.54,11.4c-2.29,3.19-5.79,5.41-9.64,7.12C116.36,310.69,113.69,312.03,109.44,312.37z"/>
				</g>
			</g>
		</g>
		<g>
			<g>
				<path class="st10" d="M418.11,161.79c-2.3-4.44-6.45-7.82-9.34-11.8c-2.92-4.04-4.92-8.95-8.36-12.48
					c-3.47-3.57-8.98-4.85-12.89-7.87c-3.93-3.04-7.24-6.86-11.53-9.31c-4.31-2.47-8.84-4.48-13.43-6.33
					c-4.61-1.86-9.47-2.74-14.27-3.93c-4.82-1.2-9.64-1.57-14.56-2.06c-4.94-0.49-9.81-2.73-14.76-2.47
					c-4.94,0.25-10.09,0.43-14.95,1.46c-4.82,1.02-9.14,4.14-13.79,5.96c-4.42,1.73-9.05,2.85-12.95,5.16
					c-4.06,2.41-7.34,5.84-10.81,8.8c-3.57,3.05-6.65,6.43-9.56,9.98c-2.96,3.61-6.13,7.04-8.38,11.07
					c-2.26,4.05-3.24,8.65-4.74,13.04c-1.49,4.36-3.82,8.55-4.55,13.16c-0.71,4.54-0.08,9.24-0.02,13.93
					c0.07,4.57-0.35,9.27,0.48,13.91c0.8,4.48,2.26,8.94,3.8,13.41c1.48,4.29,2.96,8.75,5.15,12.97c2.3,4.44,5.87,8.06,8.75,12.05
					c2.92,4.04,5.33,8.48,8.77,12.02c3.47,3.57,8.07,5.81,11.98,8.83c3.93,3.04,7.14,7.13,11.43,9.59
					c4.31,2.47,9.29,3.62,13.87,5.47c4.61,1.86,8.8,5.27,13.6,6.46c4.82,1.2,9.95,1.84,14.87,2.33c4.94,0.49,10.01-0.83,14.96-1.08
					c4.94-0.25,9.72-1.39,14.59-2.42c4.82-1.02,9.71-1.77,14.36-3.59c4.42-1.73,8.81-3.39,12.71-5.7c4.06-2.41,7.08-6.1,10.55-9.06
					c3.57-3.05,6.69-6.27,9.6-9.82c2.96-3.61,7.03-6.45,9.28-10.49c2.25-4.05,4.69-8.28,6.19-12.67c1.49-4.36,0.69-9.42,1.41-14.03
					c0.71-4.54,1.02-9.07,0.95-13.76c-0.07-4.57,0.45-9.26-0.39-13.9c-0.8-4.48-2.95-8.69-4.5-13.16
					C420.16,171.17,420.29,166,418.11,161.79z"/>
			</g>
			<g>
				<path class="st21" d="M424.34,148.52c-2.3-4.44-3.42-9.68-6.31-13.66c-2.92-4.04-6.7-7.57-10.14-11.1
					c-3.47-3.57-7.77-6.31-11.67-9.33c-3.93-3.04-7.85-6.18-12.14-8.63c-4.31-2.47-9.31-3.52-13.89-5.36
					c-4.61-1.86-9.1-3.9-13.9-5.09c-4.82-1.2-9.79-1.05-14.71-1.54c-4.94-0.49-9.85-3.21-14.8-2.96c-4.94,0.25-9.95,1.57-14.81,2.61
					c-4.82,1.02-8.95,4.35-13.61,6.17c-4.42,1.73-9.79,1.35-13.69,3.66c-4.06,2.41-7.74,5.6-11.21,8.56
					c-3.57,3.05-7.26,6.22-10.18,9.77c-2.96,3.61-5.68,7.67-7.93,11.7c-2.26,4.05-2.69,9.05-4.19,13.44
					c-1.49,4.36-3.01,8.76-3.73,13.37c-0.71,4.54-1.82,9.2-1.75,13.89c0.07,4.57,1.53,9.16,2.36,13.8c0.8,4.48,0.95,9.31,2.49,13.78
					c1.48,4.29,5.22,7.72,7.4,11.93c2.3,4.44,3.52,9.46,6.4,13.45c2.92,4.04,6.87,7.2,10.31,10.74c3.47,3.57,6.36,7.81,10.27,10.83
					c3.93,3.04,8.03,6.06,12.32,8.52c4.31,2.47,9.41,3.43,14,5.28c4.61,1.86,8.97,4.63,13.77,5.82c4.82,1.2,9.98,0.66,14.91,1.16
					c4.94,0.49,9.89,1.9,14.84,1.64c4.94-0.25,10.04-0.66,14.9-1.69c4.82-1.02,9.51-3.05,14.17-4.88c4.42-1.73,7.69-5.42,11.59-7.73
					c4.06-2.41,7.74-4.84,11.21-7.8c3.57-3.05,8.03-5.08,10.94-8.62c2.96-3.61,5.14-7.79,7.38-11.82c2.25-4.05,4.06-8.31,5.56-12.71
					c1.49-4.36,1.49-9.02,2.21-13.63c0.71-4.54,2.64-8.97,2.57-13.66c-0.07-4.57-0.8-9.19-1.64-13.83
					c-0.8-4.48-2.52-8.79-4.06-13.26C428.11,157.03,426.52,152.74,424.34,148.52z"/>
			</g>
			<g>
				<path class="st8" d="M424.39,148.49c-2.3-4.44-5.24-8.37-8.13-12.36c-2.92-4.04-5.49-8.31-8.93-11.85
					c-3.47-3.57-7.34-6.68-11.24-9.71c-3.93-3.04-8.68-4.67-12.97-7.13c-4.31-2.47-7.53-7.21-12.12-9.06
					c-4.61-1.86-9.62-3.05-14.42-4.24c-4.82-1.2-9.88-1.86-14.8-2.35c-4.94-0.49-10.04-0.9-14.98-0.64
					c-4.94,0.25-9.78,2.11-14.64,3.14c-4.82,1.02-9.27,3.15-13.92,4.97c-4.42,1.73-9.4,2.12-13.3,4.43
					c-4.06,2.41-7.72,5.5-11.19,8.46c-3.57,3.05-7.06,6.29-9.97,9.84c-2.96,3.61-5.56,7.61-7.8,11.65
					c-2.26,4.05-4.72,8.22-6.23,12.62c-1.49,4.36-2.85,9.05-3.57,13.66c-0.71,4.54,1.65,9.37,1.72,14.06
					c0.07,4.57-0.42,9.15,0.41,13.78c0.8,4.48,2.35,8.78,3.89,13.25c1.48,4.29,2.44,8.87,4.62,13.09c2.3,4.44,4.23,9.18,7.11,13.17
					c2.92,4.04,7.17,7.02,10.61,10.55c3.47,3.57,6.59,7.55,10.5,10.57c3.93,3.04,8.92,4.46,13.21,6.91
					c4.31,2.47,7.91,6.43,12.5,8.27c4.61,1.86,9.71,2.43,14.51,3.62c4.82,1.2,9.57,3.44,14.49,3.93c4.94,0.49,10.02-1.04,14.97-1.29
					c4.94-0.25,10.17,0.78,15.03-0.25c4.82-1.02,9.54-3.13,14.19-4.95c4.42-1.73,7.94-5.09,11.84-7.4c4.06-2.41,8.26-4.4,11.73-7.37
					c3.57-3.05,6.03-7.02,8.94-10.57c2.96-3.61,6.63-6.66,8.87-10.69c2.25-4.05,5.13-8.02,6.63-12.42
					c1.49-4.36,1.56-9.28,2.28-13.89c0.71-4.54,0.11-9.19,0.04-13.88c-0.07-4.57-0.76-9.03-1.59-13.67
					c-0.8-4.48-0.63-9.28-2.18-13.75C429.02,156.72,426.57,152.71,424.39,148.49z"/>
			</g>
			<g>
				<path class="st10" d="M284.49,203.35c-2.45-4.72-4.46-9.69-5.59-14.51c-1.2-5.13-0.11-10.45,0.09-15.45
					c0.22-5.2,0.07-10.45,1.71-15.25c1.66-4.85,4.35-9.38,7.37-13.54c2.96-4.08,6.48-7.95,10.65-11.12
					c3.95-2.99,8.16-6.47,13.12-8.41c4.42-1.73,9.59-0.79,14.2-1.44c4.65-0.66,9.24-1.58,13.92-1.21c4.67,0.37,9.07,1.98,13.59,3.29
					c4.49,1.31,9.44,1.6,13.62,3.78c4.15,2.16,7.64,5.54,11.3,8.49c3.64,2.93,6.88,6.28,9.89,9.92c2.96,3.59,5.56,7.43,7.75,11.65
					c2.45,4.73,4.59,9.39,5.72,14.21c1.2,5.13,2.5,10.32,2.3,15.32c-0.21,5.2-3.22,9.84-4.86,14.64
					c-1.66,4.85-1.96,10.51-4.98,14.67c-2.96,4.08-8.29,6.04-12.47,9.2c-3.95,2.99-7.24,7.59-12.2,9.53
					c-4.42,1.73-9.28,2.61-13.89,3.27c-4.65,0.66-9.5,0.42-14.18,0.05c-4.67-0.37-9.05-2.37-13.57-3.69
					c-4.49-1.31-8.73-2.99-12.91-5.17c-4.15-2.16-8.07-4.53-11.74-7.49c-3.64-2.93-6.93-6.13-9.94-9.77
					c-2.96-3.59-6.2-7.04-8.39-11.26 M307.13,116.44c-4.4,1.72-8.24,3.9-11.98,6.34c-3.92,2.56-8.45,4.22-11.61,7.44
					c-3.25,3.31-5.2,7.63-7.59,11.51c-2.41,3.91-4.62,7.87-6.11,12.21c-1.47,4.31-2.29,8.78-2.81,13.38
					c-0.51,4.49,0.42,8.92,0.87,13.56c0.44,4.47-0.85,9.36,0.51,13.86c1.3,4.27,3.79,8.31,5.97,12.5c2.28,4.4,4.34,9.02,7.33,12.85
					c3.04,3.89,7.57,6.4,11.21,9.65c3.67,3.28,7.03,6.92,11.19,9.5c4.18,2.59,8.56,4.93,13.09,6.75c4.56,1.84,9.33,3.25,14.11,4.26
					c4.81,1.02,9.75,1.2,14.64,1.33c4.9,0.12,9.64-1.02,14.48-1.84c4.8-0.82,10.13-0.09,14.73-1.9c4.4-1.72,7.41-5.91,11.15-8.35
					c3.92-2.56,9.05-3.57,12.21-6.79c3.25-3.31,4.21-8.43,6.6-12.3c2.41-3.91,4.61-7.73,6.09-12.08c1.47-4.31,2.81-8.6,3.33-13.2
					c0.51-4.49,1.72-9.13,1.26-13.77c-0.44-4.47-1.38-9.13-2.74-13.62c-1.3-4.27-3.22-8.58-5.39-12.78
					c-2.28-4.4-5.03-8.6-8.02-12.43c-3.04-3.89-7.01-6.95-10.65-10.2c-3.67-3.27-7.61-6.15-11.77-8.72
					c-4.18-2.59-8.69-4.39-13.23-6.21c-4.56-1.84-8.99-4.02-13.77-5.03c-4.81-1.02-9.72-1.36-14.61-1.48
					c-4.9-0.12-9.56,1.48-14.4,2.3c-4.8,0.82-10.31-0.64-14.91,1.17"/>
			</g>
			<g>
				<path class="st10" d="M323.61,135.43c-5.81,2.28-9.18-0.77-10.94,5.22c-2.01,6.86,5.67,5.41,6.43,12.51
					c-4.91,2.97-9.25,6.46-10.88,10.56c-1.78,4.46-0.92,9.67,1.67,14.66c2.3,4.45,5.92,6.07,9.39,7.67
					c3.82,1.75,7.67,4.45,11.96,4.34c4.41-0.12,8.85-1.04,12.7-1.37c5.43-0.46,10.93-1.86,12.69,1.53c1.66,3.2-1.42,7.35-6.14,9.2
					c-3.42,1.34-8.59,2.7-13.77,2.53c-4.51-0.15-10.36-2.62-14.57-3.96c-2.12,7.08-1.75,8.31,0.21,15.44
					c4.2,1.24,9.91,1.08,14.52,1.18c4.52,0.1,9.19,0.06,13.55-0.98c5.06,5.52-0.37,11.01,6.4,14.2c5.64,2.67,10.73,0.76,12.35-5.27
					c1.93-7.18-5.7-5.99-6.53-13.38c5.04-2.84,8.65-6.28,10.53-10.59c1.94-4.46,1.83-10.01-0.97-15.42
					c-2.31-4.47-5.76-7.21-9.23-8.89c-3.84-1.86-8.25-0.92-12.57-0.89c-4.45,0.03-8.78,0.8-12.67,1.1
					c-5.53,0.43-10.72-0.83-12.45-4.17c-1.43-2.76,0.68-6.47,4.52-7.98c2.77-1.08,7.32-0.24,11.87-0.38
					c3.79-0.12,9.18-0.08,12.97,0.42c1.68-7.25,0.23-8.03-1.61-15.24c-3.52-0.65-7.55-0.92-11.49-0.73
					c-3.72,0.18-6.4-0.18-10.08,0.81c-4.69-5.33-5.14-4.93-8.41-11.23"/>
			</g>
		</g>
		<g>
			<path class="st9" d="M243.49,522c0,4.93-3.59,9.09-5.89,13.07c-2.38,4.11-4.57,8.74-8.68,11.11c-3.98,2.3-9.04,2.07-13.96,2.07
				c-4.93,0-8.85-1.73-12.83-4.03c-4.11-2.38-7.38-5.08-9.76-9.18c-2.3-3.98-5.09-8.11-5.09-13.04c0-4.93,1.38-9.88,3.68-13.86
				c2.38-4.11,7.1-5.93,11.21-8.3c3.98-2.3,7.86-3.91,12.79-3.91c4.93,0,9.58,0.29,13.55,2.59c4.11,2.38,8.51,5.26,10.88,9.37
				C241.69,511.87,243.49,517.07,243.49,522z"/>
		</g>
		<g>
			<path class="st0" d="M309.78,320.69c0.64-7.24-7.87-2.92-14.09-6.68c-6.23-3.76-5.92-4.27-12.14-8.03
				c-6.23-3.76-6.09-3.99-12.31-7.75c-6.22-3.76-6.49-3.32-12.71-7.08c-6.23-3.76-5.2-5.46-11.43-9.21
				c-6.23-3.76-6.23-9.03-12.6-5.52c-6.37,3.51-1.41,6.34-1.55,13.6c-0.14,7.27-0.36,7.27-0.5,14.54
				c-0.14,7.27,0.34,7.28,0.19,14.55c-0.14,7.27,0.71,7.28,0.57,14.55c-0.14,7.27-1.61,7.24-1.75,14.51s-6.24,12.41,0.23,15.73
				c6.32,3.25,6.35-5.37,11.82-9.9s4.34-12.65,10.92-9.96c9.25,3.79,0.72,13,9.92,16.91c7.23,3.06,6.28-2.78,13.16-6.57
				c6.87-3.79,11.82,0.21,13.09-7.54c1.61-9.87-9.86-7.4-8.14-17.25c1.23-7,5.56-5.49,12.65-5.93
				C303.55,323.14,309.15,327.77,309.78,320.69z"/>
		</g>
	</g>
</g>
</svg>
