<?xml version="1.0" encoding="UTF-8" standalone="no"?>
<svg
   width="400"
   height="329.73001"
   viewBox="0 0 108 87.241062"
   version="1.1"
   xmlns="http://www.w3.org/2000/svg">
  <g
     transform="translate(-13.775906,-67.091391)">
    <path
       style="fill:#00ccff;"
       d="m 112.60606,92.852401 a 13.593613,13.593613 0 0 1 -18.224353,-6.097044 13.593613,13.593613 0 0 1 6.083653,-18.22883 13.593613,13.593613 0 0 1 18.2333,6.070258 13.593613,13.593613 0 0 1 -6.05686,18.237749" />
    <path
       style="fill:#999999;"
       d="m 86.768755,75.473547 c -1.681762,-2.12394 -4.38822,-3.452186 -6.101516,-4.08934 -8.691131,-3.232009 -17.325956,0.955449 -22.27767,5.068597 -3.508998,2.914697 -6.591417,7.123488 -3.509306,6.467362 0.807007,-0.171778 1.618216,-0.329094 2.433482,-0.472299 10.472422,-2.29951 20.82146,0.05433 28.228569,6.132175 0.126888,0.09766 0.253877,0.190245 0.380422,0.29039 1.392322,1.192554 2.641584,2.489643 3.750029,3.871541 0.302258,0.376956 0.59549,0.758574 0.876551,1.147946 1.041082,1.433234 1.963407,2.980075 2.747157,4.637295 0.06392,0.150308 0.121007,0.299374 0.182371,0.449126 3.908971,8.74502 3.452648,19.34563 -1.522615,28.84018 -0.352815,0.74872 -0.717354,1.49105 -1.095644,2.22433 -1.444743,2.80049 3.427319,0.93544 7.163299,-1.68201 5.272116,-3.69354 11.585066,-10.92179 10.756276,-20.15726 -0.24898,-2.77433 -1.43862,-8.19613 -5.80634,-9.475266 -0.17924,-0.05305 -0.35456,-0.105468 -0.53157,-0.158214 -3.101041,-0.508488 -6.09247,-1.866615 -8.600195,-4.086483 -0.809814,-0.818662 -1.499672,-1.615024 -2.088016,-2.39695 -0.0017,-0.0026 -0.0034,-0.0043 -0.0052,-0.0069 -0.0052,-0.0069 -0.01232,-0.01618 -0.01737,-0.02267 -0.599315,-0.7736 -1.185838,-1.648741 -1.762373,-2.645572 -1.480855,-3.003607 -2.005139,-6.247904 -1.679118,-9.373118 -0.0043,-0.184896 -0.0077,-0.368192 -0.01138,-0.555416 -0.02884,-1.56422 -0.628949,-2.895016 -1.509873,-4.00756 z" />
    <path
       style="fill:#999999;"
       d="m 38.039998,149.78934 a 13.593613,13.593613 0 0 0 -1.081788,-19.18674 13.593613,13.593613 0 0 0 -19.187525,1.06769 13.593613,13.593613 0 0 0 1.053591,19.1883 13.593613,13.593613 0 0 0 19.189073,-1.03949" />
    <path
       style="fill:#00ccff;"
       d="m 28.079777,120.28715 c -1.605988,-2.18177 -2.174531,-5.14249 -2.337889,-6.96314 -0.828836,-9.2355 5.485052,-16.462547 10.757166,-20.156057 3.735986,-2.617453 8.608049,-4.482528 7.163279,-1.682019 -0.378289,0.73327 -0.743657,1.474403 -1.096557,2.223128 -4.976539,9.497018 -5.431596,20.100628 -1.519295,28.847008 0.06076,0.14812 0.116653,0.29501 0.17995,0.44343 0.783782,1.65726 1.706013,3.20402 2.747173,4.63729 0.284048,0.3909 0.576115,0.7734 0.876551,1.14796 1.108367,1.3819 2.357613,2.6791 3.750004,3.87154 0.128154,0.1013 0.256981,0.1953 0.385127,0.29419 7.40675,6.07427 17.753254,8.42605 28.222947,6.12718 0.815232,-0.14317 1.62733,-0.29929 2.434363,-0.4711 3.082129,-0.65617 -3.17e-4,3.55268 -3.50934,6.46735 -4.951679,4.11315 -13.587454,8.29944 -22.278542,5.06741 -2.610788,-0.97089 -7.527836,-3.54654 -7.611423,-8.09695 -0.0043,-0.18687 -0.0085,-0.36986 -0.01266,-0.55447 0.326226,-3.12547 -0.196056,-6.369 -1.677048,-9.37284 -0.576467,-0.99683 -1.163065,-1.87203 -1.762389,-2.64559 -8.57e-4,-0.002 -0.0034,-0.004 -0.0052,-0.006 -0.0052,-0.006 -0.0124,-0.0162 -0.01737,-0.0226 -0.589114,-0.7814 -1.278125,-1.57827 -2.087965,-2.39695 -2.5075,-2.21968 -5.499214,-3.57996 -8.599937,-4.0886 -0.177272,-0.0528 -0.353098,-0.10474 -0.532783,-0.15724 -1.501401,-0.4398 -2.627157,-1.36921 -3.468409,-2.5121 z" />
  </g>
</svg>
