<?xml version="1.0" encoding="UTF-8" standalone="no"?>
<svg
   width="943.02423" height="1002.9"
   viewBox="0 0 249.50535 265.34727"
   version="1.1"
   xmlns="http://www.w3.org/2000/svg">
  <g>
    <path style="fill:#e6007a" transform="rotate(-30.000727)"
       d="m 174.36782,177.26215 a 27.833553,47.835613 0 0 1 -27.83355,47.83561 27.833553,47.835613 0 0 1 -27.83355,-47.83561 27.833553,47.835613 0 0 1 27.83355,-47.83562 27.833553,47.835613 0 0 1 27.83355,47.83562 z m -209.072135,1.44635 a 27.939886,47.99522 0.113002 0 1 -28.034492,47.94002 27.939886,47.99522 0.113002 0 1 -27.845173,-48.05023 27.939886,47.99522 0.113002 0 1 28.034491,-47.94002 27.939886,47.99522 0.113002 0 1 27.845174,48.05023 z m 170.246705,65.45716 a 27.833553,47.835613 60.001454 0 1 -27.5113,48.02167 27.833553,47.835613 60.001454 0 1 -55.343628,-0.18816 27.833553,47.835613 60.001454 0 1 27.511299,-48.02168 27.833553,47.835613 60.001454 0 1 55.343629,0.18817 z M 30.706438,62.562313 A 27.833553,47.835613 60.001454 0 1 3.1951401,110.58398 27.833553,47.835613 60.001454 0 1 -52.148486,110.39582 27.833553,47.835613 60.001454 0 1 -24.63719,62.37415 27.833553,47.835613 60.001454 0 1 30.706438,62.562313 Z m -0.0082,229.422297 a 47.836666,27.834166 30.000727 0 1 -55.344845,0.18605 47.836666,27.834166 30.000727 0 1 -27.510082,-48.02377 47.836666,27.834166 30.000727 0 1 55.3448584,-0.18606 47.836666,27.834166 30.000727 0 1 27.5100686,48.02378 z M 135.54167,110.39574 A 47.836666,27.834166 30.000727 0 1 80.19682,110.5818 47.836666,27.834166 30.000727 0 1 52.686741,62.558023 47.836666,27.834166 30.000727 0 1 108.0316,62.371965 47.836666,27.834166 30.000727 0 1 135.54167,110.39574 Z" />
  </g>
</svg>
