<svg id="Content" width="131" height="28" version="1.1" viewBox="0 0 131 28" xmlns="http://www.w3.org/2000/svg">
	<style type="text/css">.st0{fill:#E6007A;}</style>
	<g transform="matrix(.0199 0 0 .0199 .0018 0)">
		<path d="m2048 210c-77.2 0-152 9.7-182 17.9-44.1 12.4-55.1 31.7-63.4 71.7l-175 808c-2.8 16.5-5.5 30.3-5.5 44.1 0 40 26.2 66.1 68.9 66.1 46.9 0 66.2-30.3 75.8-77.2l49.6-230c34.4 4.1 79.9 8.3 145 8.3 285 0 463-154 463-387 0-204-142-321-376-321zm-93.7 576c-44.1 0-78.6-1.4-110-5.5l92.3-429c28.9-4.1 71.7-9.7 116-9.7 152 0 229 71.7 229 190-0.1 152-110 254-327 254z"/>
		<path d="m6537 952c-23.4 0-38.6 13.8-67.5 45.5-51 52.4-82.7 81.3-123 81.3-35.8 0-55.1-28.9-55.1-75.8 0-26.2 5.5-57.9 12.4-92.3l51-240h153c48.2 0 77.2-27.6 77.2-77.2 0-27.6-17.9-48.2-59.2-48.2h-144l24.8-112c2.8-16.5 5.5-31.7 5.5-45.5 0-38.6-26.2-66.2-68.9-66.2-45.5 0-66.1 30.3-75.8 77.2l-31.7 146h-64.8c-49.6 0-78.5 27.6-78.5 77.2 0 27.6 19.3 48.2 60.6 48.2h56.5l-51 237c-5.5 26.2-12.4 68.9-12.4 113 0 112 57.9 193 182 193 71.7 0 135-35.8 183-78.6 46.9-41.3 81.3-92.3 81.3-125 0-31.6-24.8-57.8-56.5-57.8z"/>
		<path d="m3368 292c0-40-27.6-66.2-70.3-66.2-45.5 0-66.1 30.3-75.8 77.2l-172 801c-4.1 16.5-6.9 30.3-6.9 44.1 0 40 27.6 66.1 68.9 66.1 46.9 0 67.5-30.3 77.2-77.2l172-800c2.8-16.6 6.9-30.3 6.9-44.1z"/>
		<path d="m5828 531c-220 0-371 219-371 427 0 3.9 0.1 7.8 0.2 11.6-34.6 52.5-78.8 107-109 107-22 0-30.3-20.7-30.3-52.4 0-38.6 11-103 23.4-160l114-529c2.8-16.5 5.5-30.3 5.5-44.1 0-40-26.2-66.2-68.9-66.2-46.9 0-66.1 30.3-75.8 77.2l-62 287c-33.1-34.4-81.4-57.9-154-57.9-146 0-294 113-351 286-63.2 163-120 260-164 260-16.5 0-26.2-13.8-26.2-37.2 0-68.9 38.6-237 55.1-318 5.5-30.3 8.3-42.7 8.3-60.6 0-60.6-101-132-232-132-151 0-288 95.9-357 238-102 180-196 310-242 310-20.7 0-27.6-26.2-33.1-51l-34.3-190 211-172c19.3-16.5 44.1-40 44.1-70.3 0-37.2-24.8-62-62-62-27.6 0-51 16.5-74.4 35.8l-317 262 106-493c2.8-16.5 6.9-30.3 6.9-44.1 0-40-27.6-66.2-70.3-66.2-45.5 0-66.1 30.3-75.8 77.2l-172 801c-4.1 16.5-6.9 30.3-6.9 44.1 0 40 27.6 66.1 68.9 66.1 46.9 0 67.5-30.3 77.2-77.2l22.1-103 130-105 31.7 160c12.4 63.4 45.5 125 131 125 85 0 152-77.6 219-182 20.3 110 98.5 182 207 182 109 0 183-64.8 232-152v2.8c0 89.6 45.5 149 125 149 72.3 0 132-43.6 186-136 30.4 80.7 98.4 136 193 136 112 0 192-67.5 242-161v8.3c0 99.2 49.6 153 131 153 71.8 0 133-41.7 185-110 39.6 67.8 111 110 206 110 220 0 371-219 371-429-0.1-148-89.7-254-243-254zm-1374 280c-40 172-125 270-222 270-64.8 0-101-49.6-101-124 0-146 106-303 248-303 42.7 0 75.8 12.4 105 30.3zm768-73c-44.1 203-145 343-255 343-60.6 0-96.5-46.9-96.5-124 0-147 102-300 238-300 52.4 0 92.3 17.9 121 41.3zm495 343c-79.9 0-113-57.9-113-131 0-134 92.3-287 208-287 79.9 0 113 57.9 113 131 0 135-92.3 287-208 287z"/>
		<path d="m2767 531c-220 0-371 219-371 427 0 149 89.6 255 242 255 220 0 371-219 371-429 0-147-89.6-254-242-254zm-112 550c-79.9 0-113-57.9-113-131 0-134 92.3-287 208-287 79.9 0 113 57.9 113 131-0.1 135-92.4 287-208 287z"/>
		<ellipse class="st0" cx="663" cy="148" rx="254" ry="148"/>
		<ellipse class="st0" cx="663" cy="1262" rx="254" ry="148"/>
		<ellipse class="st0" transform="matrix(.5 -.866 .866 .5 -279 370)" cx="180" cy="426" rx="254" ry="148"/>
		<ellipse class="st0" transform="matrix(.5 -.866 .866 .5 -279 1484)" cx="1146" cy="984" rx="254" ry="148"/>
		<ellipse class="st0" transform="matrix(.866 -.5 .5 .866 -468 222)" cx="180" cy="984" rx="148" ry="254"/>
		<ellipse class="st0" transform="matrix(.866 -.5 .5 .866 -59.8 630)" cx="1146" cy="427" rx="148" ry="254"/>
	</g>
</svg>
