<svg width="200" height="200" enable-background="new 162.6 165.5 763.9 768.8" version="1.1" viewBox="163 166 200 200" xmlns="http://www.w3.org/2000/svg">
	<g transform="matrix(.26 0 0 .26 122 123)">
		<rect x="458" y="895" width="153" height="39" fill="none"/>
		<g enable-background="new    ">
			<path d="m489 897v19c0 7.2 3.1 10.2 7.4 10.2 4.7 0 7.8-3.1 7.8-10.2v-19h4.2v18.7c0 9.8-5.2 13.8-12.1 13.8-6.5 0-11.5-3.7-11.5-13.7v-18.9h4.3v0.1z"/>
			<path d="m514 925c1.2 0.8 3.4 1.7 5.5 1.7 3 0 4.5-1.6 4.5-3.4 0-2-1.2-3-4.3-4.3-4.2-1.5-6.1-3.7-6.1-6.5 0-3.7 3-6.7 8-6.7 2.4 0 4.4 0.7 5.6 1.5l-1 3c-0.9-0.6-2.6-1.3-4.7-1.3-2.5 0-3.8 1.5-3.8 3.1 0 1.9 1.3 2.8 4.4 3.9 4 1.6 6.1 3.5 6.1 7 0 4-3.1 6.9-8.7 6.9-2.5 0-4.8-0.6-6.4-1.6z"/>
			<path d="m536 918c0.1 5.6 3.7 8 7.9 8 3 0 4.8-0.6 6.4-1.2l0.7 3c-1.5 0.7-4 1.5-7.6 1.5-7.1 0-11.4-4.6-11.4-11.6s4-12.4 10.8-12.4c7.5 0 9.6 6.6 9.6 10.8 0 0.9-0.1 1.6-0.1 1.9zm12.3-2.9c0-2.7-1.1-6.7-5.8-6.7-4.3 0-6.1 3.9-6.4 6.7z"/>
			<path d="m557 913c0-2.7 0-5.1-0.2-7.2h3.7l0.1 4.5h0.2c1-3 3.6-5.1 6.4-5.1 0.4 0 0.8 0 1.2 0.1v3.9c-0.4-0.1-0.9-0.1-1.5-0.1-2.9 0-5.1 2.2-5.6 5.4-0.1 0.6-0.2 1.2-0.2 1.9v12.3h-4.2z"/>
			<path d="m572 925c1.2 0.8 3.4 1.7 5.5 1.7 3 0 4.5-1.6 4.5-3.4 0-2-1.2-3-4.3-4.3-4.2-1.5-6.1-3.7-6.1-6.5 0-3.7 3-6.7 8-6.7 2.4 0 4.4 0.7 5.6 1.5l-1 3c-0.9-0.6-2.6-1.3-4.7-1.3-2.5 0-3.8 1.5-3.8 3.1 0 1.9 1.3 2.8 4.4 3.9 3.9 1.6 6.1 3.5 6.1 7 0 4-3.1 6.9-8.7 6.9-2.5 0-4.8-0.6-6.4-1.6z"/>
		</g>
		<linearGradient id="SVGID_1_" x1="1280" x2="1571" y1="737" y2="737" gradientTransform="matrix(.00192 1 -1 .00192 1271 -697)" gradientUnits="userSpaceOnUse">
			<stop stop-color="#715296" offset="0"/>
			<stop stop-color="#3A3387" offset="1"/>
		</linearGradient>
		<path d="m376 731c0-7.9 2-15.6 6-22.7l57.5-100c8.1-13.9 23.1-22.7 39.3-22.7l115-0.2c16.2 0 31.3 8.7 39.4 22.6l57.8 99.8c8.1 13.9 8.1 31.4 0.1 45.3l-57.5 100c-8.1 13.9-23.1 22.7-39.3 22.7l-115 0.2c-16.2 0-31.3-8.7-39.4-22.6l-57.8-99.8c-4-6.9-6-14.7-6-22.6zm315-0.6c0-6.6-1.8-13.4-5.2-19.3l-57.8-99.8c-6.9-11.9-19.8-19.3-33.5-19.2l-115 0.2c-13.7 0-26.5 7.4-33.4 19.5l-57.5 100c-6.9 11.9-6.9 26.8 0.1 38.7l57.8 99.8c6.9 11.9 19.8 19.3 33.5 19.2l115-0.2c13.7 0 26.5-7.4 33.4-19.5l57.5-100c3.4-6 5.1-12.7 5.1-19.4z" fill="url(#SVGID_1_)"/>
		<path d="m474 684c61.6 86-33.4 181-120 120-2-1.5-3.8-3.3-5.3-5.3-61.6-86 33.4-181 120-120 2 1.5 3.8 3.3 5.3 5.3z" fill="#e7ca3b"/>
		<path d="m458 674c9.3 13.3 14.8 29.5 14.8 47 0 45.3-36.8 82.1-82.1 82.1-17.4 0-33.6-5.5-47-14.8 14.8 21.3 39.5 35.1 67.3 35.1 45.3 0 82.1-36.8 82.1-82.1 0-28-13.8-52.5-35.1-67.3z" fill="#e3af33"/>
		<path d="m411 825c-46.5 0-84.4-37.8-84.4-84.4 0-46.5 37.8-84.4 84.4-84.4 46.5 0 84.4 37.8 84.4 84.4-0.2 46.6-37.9 84.4-84.4 84.4zm0-164c-44 0-79.9 35.8-79.9 79.9 0 44 35.8 79.9 79.9 79.9 44 0 79.9-35.8 79.9-79.9s-35.9-79.9-79.9-79.9z" fill="#1d1612"/>
		<path d="m369 761c0 23.4 18.9 42.3 42.3 42.3s42.3-18.9 42.3-42.3z" fill="#1d1612"/>
		<path d="m436 795c-7.1-5.3-15.9-8.4-25.4-8.4-9.6 0-18.3 3.1-25.4 8.4 7.1 5.3 15.9 8.4 25.4 8.4s18.4-3.1 25.4-8.4z" fill="#b92216"/>
		<path d="m411 776c17.7 0 32.7-6.3 39-15.4h-78.2c6.5 9.1 21.5 15.4 39.2 15.4z" fill="#fff"/>
		<path d="m372 761c1.3 1.9 3 3.6 5.1 5.2h55.8c-3.1 4.4-9 8-16.4 9.9 15.3-1.1 28.1-7.1 33.7-15.2h-78.2z" fill="#d0d1d2"/>
		<path d="m411 804c-24.1 0-43.8-19.6-43.8-43.8v-1.5h87.6v1.5c0 24.2-19.7 43.8-43.8 43.8zm-40.8-42.2c0.8 21.8 18.8 39.3 40.7 39.3 22 0 39.9-17.5 40.7-39.3z" fill="#1d1612"/>
		<path d="m398 674c-0.8-2.8-3.7-4.4-6.4-3.6-20.5 5.8-37.2 20.2-46.2 39.6-1.2 2.6-0.1 5.7 2.6 6.9 0.7 0.3 1.5 0.4 2.1 0.4 1.9 0 3.8-1.1 4.7-3 7.6-16.6 22-29 39.6-34 2.8-0.6 4.4-3.4 3.6-6.3z" enable-background="new    " fill="#fff" opacity=".6"/>
		<path d="m468 735h-4.5c0-9.4-7.6-17.2-17.2-17.2-9.4 0-17.2 7.6-17.2 17.2h-4.5c0-11.9 9.7-21.6 21.6-21.6 12.1 0 21.8 9.7 21.8 21.6z" fill="#1d1612"/>
		<path d="m398 735h-4.5c0-9.4-7.6-17.2-17.2-17.2-9.4 0-17.2 7.6-17.2 17.2h-4.5c0-11.9 9.7-21.6 21.6-21.6s21.8 9.7 21.8 21.6z" fill="#1d1612"/>
		<path d="m732 684c61.6 86-33.4 181-120 120-2-1.5-3.8-3.3-5.3-5.3-61.6-86 33.4-181 120-120 2.1 1.5 3.9 3.3 5.3 5.3z" fill="#e7ca3b"/>
		<path d="m717 674c9.3 13.3 14.8 29.5 14.8 47 0 45.3-36.8 82.1-82.1 82.1-17.4 0-33.6-5.5-47-14.8 14.8 21.3 39.5 35.1 67.3 35.1 45.3 0 82.1-36.8 82.1-82.1 0-28-13.8-52.5-35.1-67.3z" fill="#e3af33"/>
		<path d="m670 825c-46.5 0-84.4-37.8-84.4-84.4 0-46.5 37.8-84.4 84.4-84.4 46.5 0 84.4 37.8 84.4 84.4s-37.8 84.4-84.4 84.4zm0-164c-44 0-79.9 35.8-79.9 79.9 0 44 35.8 79.9 79.9 79.9 44 0 79.9-35.8 79.9-79.9s-35.8-79.9-79.9-79.9z" fill="#1d1612"/>
		<path d="m628 761c0 23.4 18.9 42.3 42.3 42.3s42.3-18.9 42.3-42.3z" fill="#1d1612"/>
		<path d="m695 795c-7.1-5.3-15.9-8.4-25.4-8.4-9.6 0-18.3 3.1-25.4 8.4 7.1 5.3 15.9 8.4 25.4 8.4 9.6 0 18.3-3.1 25.4-8.4z" fill="#b92216"/>
		<path d="m670 804c-24.1 0-43.8-19.6-43.8-43.8v-1.5h87.5v1.5c0.1 24.2-19.5 43.8-43.7 43.8zm-40.7-42.2c0.8 21.8 18.8 39.3 40.7 39.3 22 0 39.9-17.5 40.7-39.3z" fill="#1d1612"/>
		<path d="m656 674c-0.8-2.8-3.7-4.4-6.4-3.6-20.5 5.8-37.2 20.2-46.2 39.6-1.2 2.6-0.1 5.7 2.6 6.9 0.7 0.3 1.5 0.4 2.1 0.4 1.9 0 3.8-1.1 4.7-3 7.6-16.6 22-29 39.6-34 2.8-0.6 4.4-3.4 3.6-6.3z" enable-background="new    " fill="#fff" opacity=".6"/>
		<ellipse cx="702" cy="721" rx="9.1" ry="14.5"/>
		<ellipse cx="637" cy="721" rx="9.1" ry="14.5"/>
		<rect x="191" y="515" width="241" height="49.5" fill="none"/>
		<g enable-background="new    ">
			<path d="m229 545c-1.3 0.7-4.2 1.3-7.6 1.3-8.2 0-14.3-5.2-14.3-14.6 0-9.1 6.2-15.2 15.2-15.2 3.6 0 5.8 0.8 6.9 1.2l-0.9 3c-1.5-0.7-3.5-1.2-5.8-1.2-6.7 0-11.4 4.4-11.4 11.9 0 7.1 4 11.7 11.1 11.7 2.2 0 4.6-0.4 6.1-1.2z"/>
			<path d="m252 535c0 7.6-5.3 11-10.3 11-5.6 0-10-4.2-10-10.7 0-7 4.6-11 10.3-11 6 0 10 4.4 10 10.7zm-16.4 0.2c0 4.6 2.6 8 6.3 8 3.6 0 6.3-3.4 6.3-8.1 0-3.5-1.8-8-6.2-8s-6.4 4.2-6.4 8.1z"/>
			<path d="m257 530c0-2.1 0-3.9-0.2-5.6h3.3l0.2 3.4h0.1c1.1-2 3.1-3.8 6.5-3.8 2.8 0 4.9 1.7 5.8 4.2h0.1c0.7-1.1 1.5-2 2.4-2.7 1.2-0.9 2.6-1.5 4.6-1.5 2.7 0 6.9 1.8 6.9 9v12.3h-3.7v-11.7c0-4-1.5-6.4-4.5-6.4-2.1 0-3.8 1.6-4.5 3.5-0.2 0.6-0.3 1.2-0.3 1.9v12.8h-3.7v-12.5c0-3.3-1.5-5.7-4.4-5.7-2.4 0-4 1.9-4.7 3.8-0.2 0.6-0.3 1.2-0.3 1.8v12.6h-3.7v-15.3h0.1z"/>
			<path d="m293 530c0-2.1 0-3.9-0.2-5.6h3.3l0.2 3.4h0.1c1.1-2 3.1-3.8 6.5-3.8 2.8 0 4.9 1.7 5.8 4.2h0.1c0.7-1.1 1.5-2 2.4-2.7 1.2-0.9 2.6-1.5 4.6-1.5 2.7 0 6.9 1.8 6.9 9v12.3h-3.7v-11.7c0-4-1.5-6.4-4.5-6.4-2.1 0-3.8 1.6-4.5 3.5-0.2 0.6-0.3 1.2-0.3 1.9v12.8h-3.7v-12.5c0-3.3-1.5-5.7-4.4-5.7-2.4 0-4 1.9-4.7 3.8-0.2 0.6-0.3 1.2-0.3 1.8v12.6h-3.7v-15.3h0.1z"/>
			<path d="m346 540c0 2.1 0 4 0.2 5.6h-3.4l-0.2-3.4h-0.1c-1 1.7-3.1 3.8-6.9 3.8-3.3 0-7.2-1.8-7.2-9.1v-12.1h3.8v11.6c0 3.9 1.2 6.6 4.6 6.6 2.6 0 4.3-1.8 4.9-3.5 0.2-0.6 0.3-1.2 0.3-1.9v-12.8h3.8z"/>
			<path d="m352 530c0-2.1 0-3.9-0.2-5.6h3.4l0.2 3.5h0.1c1-2 3.5-3.9 6.9-3.9 2.9 0 7.3 1.7 7.3 8.9v12.5h-3.8v-12c0-3.4-1.2-6.2-4.8-6.2-2.5 0-4.4 1.8-5.1 3.8-0.2 0.4-0.2 1.1-0.2 1.8v12.5h-3.8v-15.2z"/>
			<path d="m380 519c0 1.2-0.9 2.4-2.4 2.4-1.3 0-2.2-1-2.2-2.4 0-1.3 1-2.4 2.4-2.4 1.3 0 2.2 1.1 2.2 2.4zm-4.3 26.7v-20.8h3.8v20.8z"/>
			<path d="m391 519v6h5.4v2.9h-5.4v11.2c0 2.6 0.7 4 2.8 4 1 0 1.7-0.1 2.2-0.2l0.2 2.8c-0.8 0.3-1.9 0.6-3.4 0.6-1.8 0-3.1-0.6-4-1.6-1.1-1.1-1.5-2.9-1.5-5.4v-11.4h-3.1v-2.9h3.3v-4.9z"/>
			<path d="m402 525 4.6 12.3c0.4 1.3 1 3 1.3 4.3h0.1c0.3-1.2 0.8-2.8 1.3-4.4l4.2-12.3h4l-5.6 14.8c-2.7 7.2-4.6 10.8-7.2 13-1.8 1.7-3.7 2.2-4.6 2.5l-0.9-3.1c0.9-0.3 2.2-0.9 3.3-1.8 1-0.8 2.4-2.2 3.1-4.2 0.2-0.3 0.3-0.7 0.3-0.9s-0.1-0.6-0.2-1l-7.6-19.2z"/>
		</g>
		<linearGradient id="SVGID_2_" x1="163" x2="461" y1="331" y2="331" gradientUnits="userSpaceOnUse">
			<stop stop-color="#715296" offset="0"/>
			<stop stop-color="#3A3387" offset="1"/>
		</linearGradient>
		<path d="m312 496c-8.1 0-16.1-2-23.3-6.2l-103-59.4c-14.4-8.3-23.3-23.8-23.3-40.4v-119c0-16.6 8.9-32.1 23.3-40.4l103-59.4c14.4-8.3 32.3-8.3 46.7 0l103 59.4c14.4 8.3 23.3 23.8 23.3 40.4v119c0 16.6-8.9 32.1-23.3 40.4l-103 59.3c-7.2 4.2-15.3 6.2-23.3 6.2z" fill="url(#SVGID_2_)"/>
		<path d="m289 330-25.8-14.8-13 7.5c-1.6 0.9-3.3 1.3-4.9 1.3s-3.5-0.4-4.9-1.3l-13-7.5-25.8 14.8c-4.9 2.9-8.1 8.2-8.1 14.1v41.2c0 5.7 3.1 11.1 8.1 14.1l35.7 20.6c2.5 1.5 5.3 2.1 8.1 2.1s5.6-0.7 8.1-2.1l35.7-20.6c4.9-2.9 8.1-8.2 8.1-14.1v-41.2c-0.3-5.9-3.3-11.3-8.3-14.1z" fill="#fff"/>
		<linearGradient id="SVGID_3_" x1="192" x2="298" y1="369" y2="369" gradientUnits="userSpaceOnUse">
			<stop stop-color="#715296" offset="0"/>
			<stop stop-color="#3A3387" offset="1"/>
		</linearGradient>
		<path d="m245 423c-3 0-6-0.8-8.7-2.4l-35.6-20.5c-5.3-3-8.7-8.8-8.7-15v-41.2c0-6.2 3.3-11.9 8.7-15l26.3-15.2 13.5 7.8c2.7 1.6 6.2 1.6 8.9 0l13.5-7.8 26.3 15.2c5.3 3 8.7 8.8 8.7 15v41.2c0 6.2-3.3 11.9-8.7 15l-35.7 20.6c-2.6 1.4-5.5 2.3-8.5 2.3zm-18-107-25.2 14.5c-4.6 2.7-7.5 7.6-7.5 13v41.2c0 5.4 2.9 10.3 7.5 13l35.7 20.6c4.6 2.6 10.6 2.6 15.1 0l35.7-20.6c4.6-2.7 7.5-7.8 7.5-13v-41.2c0-5.4-2.9-10.3-7.5-13l-25.2-14.5-12.5 7.2c-3.4 1.9-7.8 1.9-11 0z" fill="url(#SVGID_3_)"/>
		<path d="m245 322c-1.6 0-3.1-0.4-4.6-1.2l-20.4-11.7c-2.8-1.7-4.6-4.7-4.6-8v-23.4c0-3.3 1.8-6.3 4.6-8l20.4-11.7c2.8-1.7 6.4-1.7 9.2 0l20.2 11.7c2.8 1.7 4.6 4.7 4.6 8v23.4c0 3.3-1.8 6.3-4.6 8l-20.2 11.7c-1.5 0.9-3 1.2-4.6 1.2z" fill="#fff"/>
		<linearGradient id="SVGID_4_" x1="215" x2="276" y1="289" y2="289" gradientUnits="userSpaceOnUse">
			<stop stop-color="#715296" offset="0"/>
			<stop stop-color="#3A3387" offset="1"/>
		</linearGradient>
		<path d="m245 323c-1.8 0-3.6-0.4-5.2-1.3l-20.4-11.7c-3.1-1.8-5.2-5.3-5.2-8.9v-23.4c0-3.7 2-7.1 5.2-8.9l20.4-11.7c3.1-1.8 7.2-1.8 10.3 0l20.4 11.7c3.1 1.8 5.2 5.3 5.2 8.9v23.3c0 3.7-2 7.1-5.2 8.9l-20.4 11.7c-1.5 0.9-3.3 1.4-5.1 1.4zm0-65.4c-1.5 0-2.8 0.3-4 1.1l-20.4 11.7c-2.5 1.5-4 4.2-4 7.1v23.4c0 2.9 1.6 5.6 4 7.1l20.4 11.7c2.5 1.5 5.6 1.5 8.1 0l20.4-11.7c2.5-1.5 4-4.2 4-7.1v-23.4c0-2.9-1.6-5.6-4-7.1l-20.4-11.7c-1.3-0.7-2.6-1.1-4.1-1.1z" fill="url(#SVGID_4_)"/>
		<path d="m422 330-25.8-14.8-13 7.5c-1.6 0.9-3.3 1.3-4.9 1.3-1.7 0-3.5-0.4-4.9-1.3l-13-7.5-25.8 14.8c-4.9 2.9-8.1 8.2-8.1 14.1v41.2c0 5.7 3.1 11.1 8.1 14.1l35.7 20.6c2.5 1.5 5.3 2.1 8.1 2.1s5.6-0.7 8.1-2.1l35.7-20.6c4.9-2.9 8.1-8.2 8.1-14.1v-41.2c-0.3-5.9-3.3-11.3-8.3-14.1z" fill="#fff"/>
		<linearGradient id="SVGID_5_" x1="326" x2="432" y1="369" y2="369" gradientUnits="userSpaceOnUse">
			<stop stop-color="#715296" offset="0"/>
			<stop stop-color="#3A3387" offset="1"/>
		</linearGradient>
		<path d="m379 423c-3 0-6-0.8-8.7-2.4l-35.7-20.6c-5.3-3-8.7-8.8-8.7-15v-41.2c0-6.2 3.3-11.9 8.7-15l26.3-15.2 13.5 7.8c2.7 1.6 6.2 1.6 8.9 0l13.5-7.8 26.3 15.2c5.3 3 8.7 8.8 8.7 15v41.2c0 6.2-3.3 11.9-8.7 15l-35.7 20.6c-2.4 1.5-5.4 2.4-8.4 2.4zm-18-107-25.2 14.5c-4.6 2.7-7.5 7.6-7.5 13v41.2c0 5.4 2.9 10.3 7.5 13l35.7 20.6c4.6 2.6 10.6 2.6 15.1 0l35.7-20.6c4.6-2.7 7.5-7.8 7.5-13v-41.2c0-5.4-2.9-10.3-7.5-13l-25.2-14.5-12.5 7.2c-3.4 1.9-7.8 1.9-11 0z" fill="url(#SVGID_5_)"/>
		<path d="m379 322c-1.6 0-3.1-0.4-4.6-1.2l-20.4-11.7c-2.8-1.7-4.6-4.7-4.6-8v-23.4c0-3.3 1.8-6.3 4.6-8l20.4-11.7c2.8-1.7 6.4-1.7 9.2 0l20.4 11.7c2.8 1.7 4.6 4.7 4.6 8v23.4c0 3.3-1.8 6.3-4.6 8l-20.4 11.7c-1.5 0.9-3 1.2-4.6 1.2z" fill="#fff"/>
		<linearGradient id="SVGID_6_" x1="348" x2="409" y1="289" y2="289" gradientUnits="userSpaceOnUse">
			<stop stop-color="#715296" offset="0"/>
			<stop stop-color="#3A3387" offset="1"/>
		</linearGradient>
		<path d="m379 323c-1.8 0-3.6-0.4-5.2-1.3l-20.4-11.7c-3.1-1.8-5.2-5.3-5.2-8.9v-23.4c0-3.7 2-7.1 5.2-8.9l20.4-11.7c3.1-1.8 7.2-1.8 10.3 0l20.4 11.7c3.1 1.8 5.2 5.3 5.2 8.9v23.3c0 3.7-2 7.1-5.2 8.9l-20.4 11.7c-1.5 0.9-3.3 1.4-5.1 1.4zm0-65.4c-1.5 0-2.8 0.3-4 1.1l-20.4 11.7c-2.5 1.5-4 4.2-4 7.1v23.4c0 2.9 1.6 5.6 4 7.1l20.4 11.7c2.5 1.5 5.6 1.5 8.1 0l20.4-11.7c2.5-1.5 4-4.2 4-7.1v-23.4c0-2.9-1.6-5.6-4-7.1l-20.4-11.7c-1.3-0.7-2.6-1.1-4.1-1.1z" fill="url(#SVGID_6_)"/>
		<path d="m356 313-25.8-14.8-13 7.5c-1.6 0.9-3.3 1.3-4.9 1.3-1.7 0-3.5-0.4-4.9-1.3l-13-7.5-25.8 14.8c-4.9 2.9-8.1 8.2-8.1 14.1v41.2c0 5.7 3.1 11.1 8.1 14.1l35.7 20.6c2.5 1.5 5.3 2.1 8.1 2.1s5.6-0.7 8.1-2.1l35.7-20.6c4.9-2.9 8.1-8.2 8.1-14.1v-41.2c-0.2-5.9-3.3-11.2-8.3-14.1z" fill="#fff"/>
		<linearGradient id="SVGID_7_" x1="258" x2="365" y1="352" y2="352" gradientUnits="userSpaceOnUse">
			<stop stop-color="#715296" offset="0"/>
			<stop stop-color="#3A3387" offset="1"/>
		</linearGradient>
		<path d="m312 407c-3.1 0-6.2-0.8-8.9-2.4l-35.7-20.6c-5.5-3.1-8.9-9.1-8.9-15.4v-41.2c0-6.3 3.4-12.3 8.9-15.4l26.5-15.3 13.8 8c2.6 1.5 5.8 1.5 8.4 0l13.8-8 26.5 15.3c5.5 3.1 8.9 9.1 8.9 15.4v41.2c0 6.3-3.4 12.3-8.9 15.4l-35.8 20.5c-2.4 1.6-5.5 2.5-8.6 2.5zm-18-106-25 14.4c-4.5 2.6-7.3 7.4-7.3 12.6v41.2c0 5.2 2.8 10 7.3 12.6l35.7 20.6c4.4 2.6 10.1 2.6 14.6 0l35.7-20.6c4.5-2.6 7.3-7.4 7.3-12.6v-41.2c0-5.2-2.8-10-7.3-12.6l-25-14.4-12.1 7.1c-3.5 2-8.1 2-11.6 0z" fill="url(#SVGID_7_)"/>
		<path d="m312 305c-1.6 0-3.1-0.4-4.6-1.2l-20.3-11.7c-2.8-1.7-4.6-4.7-4.6-8v-23.4c0-3.3 1.8-6.3 4.6-8l20.4-11.7c2.8-1.7 6.4-1.7 9.2 0l20.4 11.7c2.8 1.7 4.6 4.7 4.6 8v23.4c0 3.3-1.8 6.3-4.6 8l-20.4 11.7c-1.6 0.9-3.1 1.2-4.7 1.2z" fill="#fff"/>
		<linearGradient id="SVGID_8_" x1="281" x2="343" y1="272" y2="272" gradientUnits="userSpaceOnUse">
			<stop stop-color="#715296" offset="0"/>
			<stop stop-color="#3A3387" offset="1"/>
		</linearGradient>
		<path d="m312 306c-1.9 0-3.8-0.4-5.4-1.5l-20.4-11.7c-3.4-1.9-5.4-5.5-5.4-9.3v-23.4c0-3.8 2-7.4 5.4-9.3l20.4-11.7c3.3-1.9 7.5-1.9 10.8 0l20.4 11.7c3.4 1.9 5.4 5.5 5.4 9.3v23.4c0 3.8-2 7.4-5.4 9.3l-20.4 11.8c-1.6 0.9-3.5 1.4-5.4 1.4zm0-65.3c-1.3 0-2.7 0.3-3.8 1l-20.2 11.7c-2.4 1.3-3.8 3.9-3.8 6.6v23.4c0 2.7 1.5 5.3 3.8 6.6l20.4 11.7c2.2 1.3 5.3 1.3 7.6 0l20.4-11.7c2.4-1.3 3.8-3.8 3.8-6.6v-23.4c0-2.7-1.5-5.3-3.8-6.6l-20.4-11.7c-1.3-0.7-2.7-1-4-1z" fill="url(#SVGID_8_)"/>
		<rect x="634" y="517" width="241" height="49.5" fill="none"/>
		<g enable-background="new    ">
			<path d="m672 534c-0.2-4-0.4-8.9-0.4-12.5h-0.1c-1 3.4-2.2 7-3.7 11l-5.3 14.1h-2.8l-4.7-13.8c-1.3-4-2.6-7.9-3.4-11.2h-0.1c-0.1 3.6-0.3 8.4-0.6 12.8l-0.8 12.5h-3.6l2-29h4.7l4.9 14.1c1.2 3.6 2.2 6.7 2.9 9.8h0.1c0.8-2.9 1.8-6.1 3-9.8l5.2-14.1h4.7l1.8 29h-3.7z"/>
			<path d="m693 547-0.3-2.6h-0.1c-1.1 1.7-3.4 3.1-6.4 3.1-4.2 0-6.4-2.9-6.4-6 0-5.1 4.5-7.8 12.5-7.8v-0.4c0-1.7-0.4-4.8-4.7-4.8-1.9 0-3.9 0.6-5.4 1.6l-0.9-2.5c1.7-1.1 4.2-1.8 6.9-1.8 6.4 0 7.9 4.4 7.9 8.5v7.8c0 1.8 0.1 3.6 0.3 4.9h-3.3zm-0.6-10.7c-4.2-0.1-8.8 0.7-8.8 4.7 0 2.5 1.7 3.6 3.6 3.6 2.7 0 4.4-1.7 5.1-3.5 0.1-0.3 0.2-0.8 0.2-1.2v-3.6z"/>
			<path d="m702 533c0-2.5 0-4.6-0.2-6.5h3.3l0.1 4h0.2c0.9-2.8 3.3-4.6 5.7-4.6 0.4 0 0.7 0 1.1 0.1v3.6c-0.3-0.1-0.8-0.1-1.2-0.1-2.7 0-4.6 2-5.1 4.8-0.1 0.6-0.2 1.1-0.2 1.8v11.1h-3.7z"/>
			<path d="m720 536c0.6-0.8 1.3-1.7 1.9-2.4l6.1-7.2h4.6l-8.1 8.5 9.1 12.3h-4.6l-7.2-10-1.9 2.1v7.9h-3.6v-30.6h3.7z"/>
			<path d="m739 538c0.1 5.2 3.4 7.2 7.2 7.2 2.7 0 4.4-0.4 5.7-1.1l0.7 2.7c-1.3 0.6-3.6 1.2-7 1.2-6.4 0-10.2-4.2-10.2-10.5s3.7-11.2 9.8-11.2c6.7 0 8.7 6 8.7 9.8 0 0.8-0.1 1.3-0.1 1.8h-14.8zm11.1-2.7c0-2.4-1-6.2-5.3-6.2-3.8 0-5.5 3.5-5.8 6.2z"/>
			<path d="m763 520v6h5.4v2.9h-5.4v11.2c0 2.6 0.8 4 2.8 4 1 0 1.7-0.1 2.2-0.2l0.2 2.8c-0.8 0.3-1.9 0.6-3.4 0.6-1.8 0-3.1-0.6-4-1.6-1.1-1.1-1.5-2.9-1.5-5.4v-11.4h-3.4v-2.9h3.3v-4.9z"/>
			<path d="m773 533c0-2.7-0.1-4.8-0.2-6.7h3.4l0.2 3.6h0.1c1.6-2.6 4-4 7.4-4 5.1 0 8.8 4.3 8.8 10.6 0 7.5-4.6 11.1-9.4 11.1-2.7 0-5.2-1.2-6.4-3.3h-0.1v11.4h-3.7zm3.7 5.5c0 0.6 0.1 1.1 0.2 1.6 0.7 2.6 2.9 4.4 5.6 4.4 4 0 6.3-3.3 6.3-8.1 0-4.2-2.2-7.8-6.2-7.8-2.6 0-4.9 1.8-5.7 4.7-0.1 0.4-0.2 1-0.2 1.6z"/>
			<path d="m797 517h3.8v30.6h-3.8z"/>
			<path d="m819 547-0.3-2.6h-0.1c-1.1 1.7-3.4 3.1-6.4 3.1-4.2 0-6.4-2.9-6.4-6 0-5.1 4.5-7.8 12.5-7.8v-0.4c0-1.7-0.4-4.8-4.7-4.8-1.9 0-3.9 0.6-5.4 1.6l-0.9-2.5c1.7-1.1 4.2-1.8 6.9-1.8 6.4 0 7.9 4.4 7.9 8.5v7.8c0 1.8 0.1 3.6 0.3 4.9h-3.3zm-0.5-10.7c-4.2-0.1-8.8 0.7-8.8 4.7 0 2.5 1.7 3.6 3.6 3.6 2.7 0 4.4-1.7 5.1-3.5 0.1-0.3 0.2-0.8 0.2-1.2v-3.6z"/>
			<path d="m843 546c-1 0.6-3.1 1.2-6 1.2-6.3 0-10.3-4.3-10.3-10.6 0-6.4 4.4-11 11.1-11 2.2 0 4.2 0.6 5.3 1.1l-0.9 2.9c-0.9-0.6-2.4-1-4.4-1-4.7 0-7.3 3.5-7.3 7.9 0 4.8 3.1 7.8 7.2 7.8 2.1 0 3.6-0.6 4.6-1z"/>
			<path d="m849 538c0.1 5.2 3.4 7.2 7.1 7.2 2.7 0 4.4-0.4 5.7-1.1l0.7 2.7c-1.3 0.6-3.6 1.2-7 1.2-6.4 0-10.2-4.2-10.2-10.5s3.7-11.2 9.8-11.2c6.7 0 8.7 6 8.7 9.8 0 0.8-0.1 1.3-0.1 1.8h-14.6v0.1zm11.1-2.7c0-2.4-1-6.2-5.3-6.2-3.8 0-5.5 3.5-5.8 6.2z"/>
		</g>
		<path d="m926 335c0-7.3-1.9-14.7-5.7-21.3l-63.4-110c-7.5-13.2-21.7-21.3-36.9-21.3h-127c-15.2 0-29.2 8.2-36.9 21.3l-63.4 110c-7.5 13.2-7.5 29.5 0 42.6l63.4 110c7.5 13.2 21.7 21.3 36.9 21.3h127c15.2 0 29.2-8.2 36.9-21.3l63.4-110c3.8-6.6 5.7-13.9 5.7-21.3z" fill="#97448f"/>
		<path d="m817 394" fill="none" stroke="#97448f" stroke-linecap="round" stroke-linejoin="round" stroke-miterlimit="10"/>
		<path d="m802 388c0.3 0 0.6-0.1 0.9-0.1 0.2 0 0.3 0.1 0.6 0.1 0.6 0 1.1-0.1 1.7-0.3 8.8-0.9 16.8-5.2 21.4-11.9l35.9-53.4c2.6-3.8 3.9-8.2 3.9-12.7s-1.3-8.9-3.9-12.7c-0.8-1.2-2.1-1.9-3.6-1.9h-181v-24.2c0-2.4-1.9-4.3-4.3-4.3h-31.5c-2.4 0-4.3 1.9-4.3 4.3s1.9 4.3 4.3 4.3h27.2v24.3c0.2 6 2.5 54.2 8.7 72-0.1 0.4-0.2 1-0.1 1.6 1.6 13.4 3.7 17.4 7 22.9 3.5 5.8 14.5 12.4 24.5 12.4h97.9c10 0 19.3-4.7 24.4-12.3 1.3-1.9 0.8-4.6-1.1-6-1.9-1.3-4.6-0.8-6 1.1-3.5 5.2-10.1 8.4-17.3 8.4h-97.9c-7.1 0-15.2-4.9-17.2-8.2-1.6-2.6-2.7-4.6-3.8-8.2 4.7 2.7 10.3 4.7 15.9 4.7zm-115-16.8c-2.1-3.5-3.9-13-5.4-24.6h31.8v32.8h-9.2c-7 0-15.1-4.9-17.2-8.2zm112 8.2h-34.3v-32.8h34.3zm-42.9 0h-34.3v-32.8h34.3zm8.6-41.3v-34.4h34.3v34.4zm-8.6 0h-34.3v-34.4h34.3zm63 32.9c-2.6 3.8-6.7 6.5-11.6 7.6v-32.1h28zm38.5-61.3c0 2.8-0.9 5.5-2.5 8l-13.8 20.4h-33.9v-34.4h48.6c1 1.8 1.6 3.9 1.6 6zm-144-6.1v34.4h-32.8c-1.2-11.6-2.1-24.2-2.7-34.4z" fill="#fff"/>
		<circle cx="791" cy="421" r="12.9" fill="#fff"/>
		<path d="m791 436c-8.3 0-15.1-6.7-15.1-15.1 0-8.3 6.7-15.1 15.1-15.1s15.1 6.7 15.1 15.1-6.8 15.1-15.1 15.1zm0-25.8c-6 0-10.8 4.8-10.8 10.8s4.8 10.8 10.8 10.8 10.8-4.8 10.8-10.8-4.8-10.8-10.8-10.8z" fill="#97448f"/>
		<circle cx="722" cy="421" r="12.9" fill="#fff"/>
		<path d="m722 436c-8.3 0-15.1-6.7-15.1-15.1 0-8.3 6.7-15.1 15.1-15.1s15.1 6.7 15.1 15.1-6.8 15.1-15.1 15.1zm0-25.8c-6 0-10.8 4.8-10.8 10.8s4.8 10.8 10.8 10.8 10.8-4.8 10.8-10.8-4.9-10.8-10.8-10.8z" fill="#97448f"/>
	</g>
</svg>
