<svg width="200" height="170" enable-background="new 162.6 165.5 763.9 768.8" version="1.1" viewBox="163 166 200 170" xmlns="http://www.w3.org/2000/svg">
	<defs>
		<linearGradient id="SVGID_1_-3" x1="1426" x2="1426" y1="583" y2="898" gradientTransform="matrix(.000499 .26 -.26 .000499 452.7 -72.2)" gradientUnits="userSpaceOnUse">
			<stop stop-color="#d4adcf" offset="0"/>
			<stop stop-color="#483d8b" offset="1"/>
		</linearGradient>
		<linearGradient id="SVGID_2_" x1="26.4" x2="312" y1="208" y2="331" gradientTransform="matrix(.26 0 0 .26 -41 -43)" gradientUnits="userSpaceOnUse">
			<stop stop-color="#d4adcf" offset="0"/>
			<stop stop-color="#483d8b" offset="1"/>
		</linearGradient>
	</defs>
	<g transform="translate(-1.08 -.07031)" stroke-width=".26">
		<g transform="translate(1.115 -.6097)">
			<path d="m220.7 299c0-2.05 0.52-4.06 1.56-5.9l15-26c2.11-3.61 6.01-5.9 10.2-5.9l29.9-0.052c4.21 0 8.14 2.26 10.2 5.88l15 25.9c2.11 3.61 2.11 8.16 0.026 11.8l-15 26c-2.11 3.61-6.01 5.9-10.2 5.9l-29.9 0.052c-4.21 0-8.14-2.26-10.2-5.88l-15-25.9c-1.04-1.79-1.56-3.82-1.56-5.88zm81.9-0.156c0-1.72-0.468-3.48-1.35-5.02l-15-25.9c-1.79-3.09-5.15-5.02-8.71-4.99l-29.9 0.052c-3.56 0-6.89 1.92-8.68 5.07l-15 26c-1.79 3.09-1.79 6.97 0.026 10.1l15 25.9c1.79 3.09 5.15 5.02 8.71 4.99l29.9-0.052c3.56 0 6.89-1.92 8.68-5.07l15-26c0.884-1.56 1.33-3.3 1.33-5.04z" fill="url(#SVGID_1_-3)"/>
			<path d="m245.7 287c16 22.4-8.68 47.1-31.2 31.2-0.52-0.39-0.988-0.858-1.38-1.38-16-22.4 8.68-47.1 31.2-31.2 0.52 0.39 0.988 0.858 1.38 1.38z" fill="#e7ca3b"/>
			<path d="m241.7 284c2.42 3.46 3.85 7.67 3.85 12.2 0 11.8-9.57 21.3-21.3 21.3-4.52 0-8.74-1.43-12.2-3.85 3.85 5.54 10.3 9.13 17.5 9.13 11.8 0 21.3-9.57 21.3-21.3 0-7.28-3.59-13.6-9.13-17.5z" fill="#e3af33"/>
			<path d="m218.7 307c0 6.08 4.91 11 11 11s11-4.91 11-11z" fill="#1d1612"/>
			<path d="m235.7 316c-1.85-1.38-4.13-2.18-6.6-2.18-2.5 0-4.76 0.806-6.6 2.18 1.85 1.38 4.13 2.18 6.6 2.18s4.78-0.806 6.6-2.18z" fill="#b92216"/>
			<path d="m229.7 311c4.6 0 8.5-1.64 10.1-4h-20.3c1.69 2.37 5.59 4 10.2 4z" fill="#fff"/>
			<path d="m219.7 307c0.338 0.494 0.78 0.936 1.33 1.35h14.5c-0.806 1.14-2.34 2.08-4.26 2.57 3.98-0.286 7.31-1.85 8.76-3.95h-20.3z" fill="#d0d1d2"/>
			<path d="m225.7 284c-0.208-0.728-0.962-1.14-1.66-0.936-5.33 1.51-9.67 5.25-12 10.3-0.312 0.676-0.026 1.48 0.676 1.79 0.182 0.078 0.39 0.104 0.546 0.104 0.494 0 0.988-0.286 1.22-0.78 1.98-4.32 5.72-7.54 10.3-8.84 0.728-0.156 1.14-0.884 0.936-1.64z" enable-background="new    " fill="#fff" opacity=".6"/>
			<path d="m225.9 300.3h-1.17c0-2.44-1.98-4.47-4.47-4.47-2.44 0-4.47 1.98-4.47 4.47h-1.17c0-3.09 2.52-5.62 5.62-5.62s5.67 2.52 5.67 5.62zm18.2 0h-1.17c0-2.44-1.98-4.47-4.47-4.47-2.44 0-4.47 1.98-4.47 4.47h-1.17c0-3.09 2.52-5.62 5.62-5.62 3.15 0 5.67 2.52 5.67 5.62zm-14.8 23.4c-12.1 0-21.9-9.83-21.9-21.9 0-12.1 9.83-21.9 21.9-21.9 12.1 0 21.9 9.83 21.9 21.9-0.052 12.1-9.85 21.9-21.9 21.9zm0-42.6c-11.4 0-20.8 9.31-20.8 20.8 0 11.4 9.31 20.8 20.8 20.8 11.4 0 20.8-9.31 20.8-20.8s-9.33-20.8-20.8-20.8zm0 37.2c-6.27 0-11.4-5.1-11.4-11.4v-0.39h22.8v0.39c0 6.29-5.12 11.4-11.4 11.4zm-10.6-11c0.208 5.67 4.89 10.2 10.6 10.2 5.72 0 10.4-4.55 10.6-10.2z"/>
			<path d="m312.7 287c16 22.4-8.68 47.1-31.2 31.2-0.52-0.39-0.988-0.858-1.38-1.38-16-22.4 8.68-47.1 31.2-31.2 0.546 0.39 1.01 0.858 1.38 1.38z" fill="#e7ca3b"/>
			<path d="m308.7 284c2.42 3.46 3.85 7.67 3.85 12.2 0 11.8-9.57 21.3-21.3 21.3-4.52 0-8.74-1.43-12.2-3.85 3.85 5.54 10.3 9.13 17.5 9.13 11.8 0 21.3-9.57 21.3-21.3 0-7.28-3.59-13.6-9.13-17.5z" fill="#e3af33"/>
			<path d="m285.7 307c0 6.08 4.91 11 11 11s11-4.91 11-11z" fill="#1d1612"/>
			<path d="m303.7 316c-1.85-1.38-4.13-2.18-6.6-2.18-2.5 0-4.76 0.806-6.6 2.18 1.85 1.38 4.13 2.18 6.6 2.18 2.5 0 4.76-0.806 6.6-2.18z" fill="#b92216"/>
			<path d="m293.7 284c-0.208-0.728-0.962-1.14-1.66-0.936-5.33 1.51-9.67 5.25-12 10.3-0.312 0.676-0.026 1.48 0.676 1.79 0.182 0.078 0.39 0.104 0.546 0.104 0.494 0 0.988-0.286 1.22-0.78 1.98-4.32 5.72-7.54 10.3-8.84 0.728-0.156 1.14-0.884 0.936-1.64z" enable-background="new    " fill="#fff" opacity=".6"/>
			<path d="m290.4 296.9a2.37 3.77 0 0 1-2.37 3.77 2.37 3.77 0 0 1-2.37-3.77 2.37 3.77 0 0 1 2.37-3.77 2.37 3.77 0 0 1 2.37 3.77zm16.9 0a2.37 3.77 0 0 1-2.37 3.77 2.37 3.77 0 0 1-2.37-3.77 2.37 3.77 0 0 1 2.37-3.77 2.37 3.77 0 0 1 2.37 3.77zm-10.7 21.6c-6.27 0-11.4-5.1-11.4-11.4v-0.39h22.8v0.39c0.026 6.29-5.07 11.4-11.4 11.4zm-10.6-11c0.208 5.67 4.89 10.2 10.6 10.2 5.72 0 10.4-4.55 10.6-10.2zm10.6 16.4c-12.1 0-21.9-9.83-21.9-21.9 0-12.1 9.83-21.9 21.9-21.9 12.1 0 21.9 9.83 21.9 21.9s-9.83 21.9-21.9 21.9zm0-42.6c-11.4 0-20.8 9.31-20.8 20.8 0 11.4 9.31 20.8 20.8 20.8 11.4 0 20.8-9.31 20.8-20.8s-9.31-20.8-20.8-20.8z"/>
		</g>
		<path d="m303.5 169.3c-3.95 0-7.59 2.129-9.59 5.539l-16.5 28.6c-1.95 3.43-1.95 7.67 0 11.1l16.5 28.6c1.95 3.43 5.64 5.539 9.59 5.539h33c3.95 0 7.59-2.129 9.59-5.539l16.5-28.6c0.988-1.72 1.48-3.611 1.48-5.541v-0.0195c0-1.9-0.4945-3.819-1.48-5.539l-16.5-28.6c-1.95-3.43-5.64-5.539-9.59-5.539zm-13.29 22.34h8.189c0.626 0 1.119 0.4951 1.119 1.119v6.291h47.1c0.39 0 0.7275 0.1821 0.9355 0.4941 0.672 0.99 1.01 2.129 1.01 3.299s-0.3338 2.313-1.01 3.301l-9.33 13.9c-1.19 1.74-3.271 2.856-5.561 3.09-0.156 0.052-0.2854 0.0781-0.4414 0.0781-0.078 0-0.1042-0.0273-0.1562-0.0273-0.078 0-0.1564 0.0273-0.2344 0.0273l-25.46-0.0606c-1.45 0-2.911-0.5187-4.131-1.221 0.286 0.93 0.5723 1.455 0.9883 2.131 0.52 0.86 2.619 2.131 4.469 2.131h25.5c1.87 0 3.59-0.8316 4.5-2.182 0.36-0.494 1.067-0.6232 1.561-0.2852 0.494 0.36 0.6251 1.067 0.2871 1.561-1.32 1.98-3.74 3.199-6.34 3.199h-25.5c-2.6 0-5.461-1.711-6.371-3.221-0.858-1.43-1.404-2.469-1.82-5.949-0.026-0.156 1e-3 -0.312 0.0274-0.416-1.61-4.6-2.21-17.14-2.262-18.7v-6.32h-7.068c-0.626 0-1.121-0.4951-1.121-1.121s0.4971-1.119 1.121-1.119zm9.391 9.691c0.156 2.65 0.3911 5.919 0.7031 8.939h8.529v-8.939zm11.31 0v8.939h8.92v-8.939zm11.16 0v8.939h8.92v-8.939zm11.11 0.0312v8.939h8.811l3.59-5.301c0.416-0.65 0.6504-1.352 0.6504-2.08h-0.0332c0-0.55-0.156-1.091-0.416-1.559zm-32.65 11.08c0.39 3.02 0.8524 5.488 1.398 6.398h0.01c0.54 0.86 2.651 2.131 4.471 2.131h2.391v-8.529zm10.38 0v8.529h8.92v-8.529zm11.2 0v8.529h8.922v-8.529zm11.1 0.01v8.35c1.28-0.29 2.344-0.9925 3.02-1.98l4.26-6.369zm-22.14 16.53c1.54 0 2.811 1.251 2.811 2.811s-1.251 2.809-2.811 2.809-2.811-1.249-2.811-2.809 1.251-2.811 2.811-2.811zm17.9 0c1.56 0 2.811 1.251 2.811 2.811s-1.251 2.809-2.811 2.809-2.811-1.249-2.811-2.809 1.251-2.811 2.811-2.811z" fill="#d4adcf"/>
		<path transform="translate(163,166)" d="m40.01 0.07031c-2.095 0-4.196 0.5391-6.066 1.619l-26.8 15.4c-3.75 2.15-6.061 6.18-6.061 10.5v30.9c0 4.31 2.321 8.34 6.061 10.5l26.8 15.4c1.87 1.09 3.951 1.609 6.061 1.609 2.074-0.0032 4.175-0.5228 6.039-1.609l26.8-15.4c3.75-2.15 6.061-6.18 6.061-10.5v-30.9c0-4.31-2.321-8.34-6.061-10.5l-26.8-15.4c-1.85-1.08-3.938-1.619-6.033-1.619zm-0.005859 19.93h0.0039c0.337 0 0.703 0.07777 1.041 0.2598l5.299 3.041c0.598 0.33 0.9863 1.007 0.9863 1.709v6.08c0 0.731-0.3623 1.383-0.9863 1.721l-5.299 3.039c-0.6 0.338-1.408 0.338-1.98 0l-5.301-3.039c-0.598-0.34-0.9883-1.019-0.9883-1.721v-6.08c0-0.7 0.3643-1.371 0.9883-1.709l5.25-3.041c0.286-0.1822 0.6483-0.2598 0.9863-0.2598zm-17.4 3.949c0.394 0 0.7323 0.1032 1.07 0.2852l5.301 3.041c0.625 0.39 1.039 1.096 1.039 1.85v6.08c0 0.76-0.3891 1.46-1.039 1.85l-5.301 3.041c-0.65 0.39-1.459 0.39-2.109 0l-5.301-3.041c-0.625-0.39-1.039-1.096-1.039-1.85v-6.08c0-0.76 0.3891-1.46 1.039-1.85l5.301-3.041c0.313-0.2078 0.6491-0.2852 1.039-0.2852zm34.8 0c0.394 0 0.7323 0.1032 1.07 0.2852l5.299 3.041c0.625 0.39 1.041 1.096 1.041 1.85v6.08c0 0.76-0.391 1.46-1.041 1.85l-5.299 3.041c-0.65 0.39-1.461 0.39-2.111 0l-5.299-3.041c-0.625-0.39-1.041-1.096-1.041-1.85v-6.08c0-0.76 0.391-1.46 1.041-1.85l5.299-3.041c0.313-0.2078 0.651-0.2852 1.041-0.2852zm-12.74 11.29 6.5 3.74c1.174 0.68 1.9 1.931 1.9 3.281v10.7c0 0.95-0.3751 1.835-0.9941 2.52-0.21 0.188-0.4239 0.3755-0.6699 0.5215l-9.281 5.359c-0.65 0.364-1.379 0.5449-2.109 0.5449s-1.459-0.1549-2.109-0.5449l-9.281-5.359c-0.303-0.181-0.5714-0.4035-0.8164-0.6465-0.555-0.66-0.8965-1.494-0.8965-2.389v-10.7c0-1.36 0.7304-2.603 1.9-3.279l6.5-3.74 3.188 1.846c0.91 0.52 2.11 0.52 3.02 0zm-26.76 3.906 3.279 1.873c0.83 0.494 1.975 0.494 2.859 0l3.041-1.75c-0.625 0.8-0.9863 1.8-0.9863 2.84v10.7c0 1.63 0.8805 3.194 2.311 4l5.75 3.32c-0.107 0.079-0.1985 0.178-0.3145 0.2461l-9.279 5.359c-1.17 0.676-2.73 0.676-3.93 0l-9.281-5.359c-1.195-0.7-1.949-1.981-1.949-3.381v-10.7c0-1.4 0.7492-2.679 1.949-3.381zm44.2 0 6.553 3.77c1.197 0.7 1.949 1.979 1.949 3.379v10.7c0 1.35-0.7492 2.679-1.949 3.381l-9.281 5.359c-1.17 0.676-2.73 0.676-3.93 0l-9.279-5.359c-0.136-0.08-0.2451-0.1911-0.3691-0.2852l5.721-3.279c0.179-0.101 0.3488-0.2129 0.5098-0.3359 0.161-0.123 0.3131-0.2554 0.4551-0.3984s0.2725-0.2951 0.3945-0.4551 0.2321-0.326 0.332-0.5c0.1-0.174 0.1907-0.355 0.2676-0.541 0.077-0.185 0.1408-0.3753 0.1934-0.5703 0.0525-0.195 0.09214-0.3928 0.1191-0.5938s0.04102-0.4044 0.04102-0.6094v-10.7c0-0.204-0.01402-0.4064-0.04102-0.6074-0.0268-0.201-0.06654-0.4007-0.1191-0.5957-0.052-0.194-0.1165-0.3843-0.1934-0.5703-0.077-0.185-0.1677-0.3651-0.2676-0.5391-0.1-0.174-0.21-0.342-0.332-0.502-0.0287-0.0374-0.06295-0.07122-0.09375-0.1074l3.211 1.83c0.83 0.494 1.975 0.494 2.859 0z" fill="url(#SVGID_2_)"/>
	</g>
</svg>
