<?xml version="1.0" encoding="utf-8"?>
<!-- Generator: Adobe Illustrator 18.0.0, SVG Export Plug-In . SVG Version: 6.00 Build 0)  -->
<!DOCTYPE svg PUBLIC "-//W3C//DTD SVG 1.1//EN" "http://www.w3.org/Graphics/SVG/1.1/DTD/svg11.dtd">
<svg version="1.1" id="Capa_1" xmlns="http://www.w3.org/2000/svg" xmlns:xlink="http://www.w3.org/1999/xlink" x="0px" y="0px"
	 viewBox="162.6 165.5 763.9 768.8" enable-background="new 162.6 165.5 763.9 768.8" xml:space="preserve">
<g>
	<rect x="458.3" y="895.3" fill="none" width="152.7" height="39"/>
	<g enable-background="new    ">
		<path d="M488.6,897v19c0,7.2,3.1,10.2,7.4,10.2c4.7,0,7.8-3.1,7.8-10.2v-19h4.2v18.7c0,9.8-5.2,13.8-12.1,13.8
			c-6.5,0-11.5-3.7-11.5-13.7v-18.9h4.3V897z"/>
		<path d="M514.2,924.7c1.2,0.8,3.4,1.7,5.5,1.7c3,0,4.5-1.6,4.5-3.4c0-2-1.2-3-4.3-4.3c-4.2-1.5-6.1-3.7-6.1-6.5c0-3.7,3-6.7,8-6.7
			c2.4,0,4.4,0.7,5.6,1.5l-1,3c-0.9-0.6-2.6-1.3-4.7-1.3c-2.5,0-3.8,1.5-3.8,3.1c0,1.9,1.3,2.8,4.4,3.9c4,1.6,6.1,3.5,6.1,7
			c0,4-3.1,6.9-8.7,6.9c-2.5,0-4.8-0.6-6.4-1.6L514.2,924.7z"/>
		<path d="M535.9,918.2c0.1,5.6,3.7,8,7.9,8c3,0,4.8-0.6,6.4-1.2l0.7,3c-1.5,0.7-4,1.5-7.6,1.5c-7.1,0-11.4-4.6-11.4-11.6
			s4-12.4,10.8-12.4c7.5,0,9.6,6.6,9.6,10.8c0,0.9-0.1,1.6-0.1,1.9H535.9z M548.2,915.3c0-2.7-1.1-6.7-5.8-6.7
			c-4.3,0-6.1,3.9-6.4,6.7H548.2z"/>
		<path d="M557.4,913.2c0-2.7,0-5.1-0.2-7.2h3.7l0.1,4.5h0.2c1-3,3.6-5.1,6.4-5.1c0.4,0,0.8,0,1.2,0.1v3.9c-0.4-0.1-0.9-0.1-1.5-0.1
			c-2.9,0-5.1,2.2-5.6,5.4c-0.1,0.6-0.2,1.2-0.2,1.9v12.3h-4.2L557.4,913.2L557.4,913.2z"/>
		<path d="M572.4,924.7c1.2,0.8,3.4,1.7,5.5,1.7c3,0,4.5-1.6,4.5-3.4c0-2-1.2-3-4.3-4.3c-4.2-1.5-6.1-3.7-6.1-6.5c0-3.7,3-6.7,8-6.7
			c2.4,0,4.4,0.7,5.6,1.5l-1,3c-0.9-0.6-2.6-1.3-4.7-1.3c-2.5,0-3.8,1.5-3.8,3.1c0,1.9,1.3,2.8,4.4,3.9c3.9,1.6,6.1,3.5,6.1,7
			c0,4-3.1,6.9-8.7,6.9c-2.5,0-4.8-0.6-6.4-1.6L572.4,924.7z"/>
	</g>
	<g>
		<g>
			
				<linearGradient id="SVGID_1_" gradientUnits="userSpaceOnUse" x1="1280.3916" y1="737.2773" x2="1570.8202" y2="737.2773" gradientTransform="matrix(1.923146e-003 1 -1 1.923146e-003 1270.9309 -696.764)">
				<stop  offset="0" style="stop-color:#715296"/>
				<stop  offset="1" style="stop-color:#3A3387"/>
			</linearGradient>
			<path fill="url(#SVGID_1_)" d="M375.8,730.6c0-7.9,2-15.6,6-22.7l57.5-100c8.1-13.9,23.1-22.7,39.3-22.7l115.3-0.2
				c16.2,0,31.3,8.7,39.4,22.6l57.8,99.8c8.1,13.9,8.1,31.4,0.1,45.3l-57.5,100c-8.1,13.9-23.1,22.7-39.3,22.7L479,875.6
				c-16.2,0-31.3-8.7-39.4-22.6l-57.8-99.8C377.8,746.3,375.8,738.5,375.8,730.6z M690.4,730c0-6.6-1.8-13.4-5.2-19.3l-57.8-99.8
				c-6.9-11.9-19.8-19.3-33.5-19.2l-115.3,0.2c-13.7,0-26.5,7.4-33.4,19.5l-57.5,100c-6.9,11.9-6.9,26.8,0.1,38.7l57.8,99.8
				c6.9,11.9,19.8,19.3,33.5,19.2l115.3-0.2c13.7,0,26.5-7.4,33.4-19.5l57.5-100C688.7,743.4,690.4,736.7,690.4,730z"/>
		</g>
		<g>
			<g>
				<path fill="#E7CA3B" d="M473.5,683.7c61.6,86-33.4,181.1-119.5,119.5c-2-1.5-3.8-3.3-5.3-5.3c-61.6-86,33.4-181.1,119.5-119.5
					C470.2,679.9,472,681.7,473.5,683.7z"/>
				<path fill="#E3AF33" d="M458.1,673.6c9.3,13.3,14.8,29.5,14.8,47c0,45.3-36.8,82.1-82.1,82.1c-17.4,0-33.6-5.5-47-14.8
					c14.8,21.3,39.5,35.1,67.3,35.1c45.3,0,82.1-36.8,82.1-82.1C493.2,712.9,479.4,688.4,458.1,673.6z"/>
				<g>
					<path fill="#1D1612" d="M411.2,825.1c-46.5,0-84.4-37.8-84.4-84.4c0-46.5,37.8-84.4,84.4-84.4c46.5,0,84.4,37.8,84.4,84.4
						C495.4,787.3,457.7,825.1,411.2,825.1z M411.2,661c-44,0-79.9,35.8-79.9,79.9c0,44,35.8,79.9,79.9,79.9
						c44,0,79.9-35.8,79.9-79.9S455.2,661,411.2,661z"/>
				</g>
				<path fill="#1D1612" d="M368.9,760.7c0,23.4,18.9,42.3,42.3,42.3c23.4,0,42.3-18.9,42.3-42.3H368.9z"/>
				<path fill="#B92216" d="M436.5,794.6c-7.1-5.3-15.9-8.4-25.4-8.4c-9.6,0-18.3,3.1-25.4,8.4c7.1,5.3,15.9,8.4,25.4,8.4
					C420.6,803,429.5,799.9,436.5,794.6z"/>
				<path fill="#FFFFFF" d="M411.2,776.2c17.7,0,32.7-6.3,39-15.4h-78.2C378.5,769.9,393.5,776.2,411.2,776.2z"/>
				<path fill="#D0D1D2" d="M372.1,760.7c1.3,1.9,3,3.6,5.1,5.2h55.8c-3.1,4.4-9,8-16.4,9.9c15.3-1.1,28.1-7.1,33.7-15.2h-78.2
					V760.7z"/>
				<g>
					<path fill="#1D1612" d="M411.2,804.5c-24.1,0-43.8-19.6-43.8-43.8v-1.5H455v1.5C455,784.9,435.3,804.5,411.2,804.5z
						 M370.4,762.3c0.8,21.8,18.8,39.3,40.7,39.3c22,0,39.9-17.5,40.7-39.3H370.4z"/>
				</g>
			</g>
			<path opacity="0.6" fill="#FFFFFF" enable-background="new    " d="M397.5,674.2c-0.8-2.8-3.7-4.4-6.4-3.6
				c-20.5,5.8-37.2,20.2-46.2,39.6c-1.2,2.6-0.1,5.7,2.6,6.9c0.7,0.3,1.5,0.4,2.1,0.4c1.9,0,3.8-1.1,4.7-3c7.6-16.6,22-29,39.6-34
				C396.7,679.9,398.3,677.1,397.5,674.2z"/>
			<g>
				<g>
					<path fill="#1D1612" d="M468,735.4h-4.5c0-9.4-7.6-17.2-17.2-17.2c-9.4,0-17.2,7.6-17.2,17.2h-4.5c0-11.9,9.7-21.6,21.6-21.6
						C458.3,713.8,468,723.5,468,735.4z"/>
				</g>
				<g>
					<path fill="#1D1612" d="M397.5,735.4H393c0-9.4-7.6-17.2-17.2-17.2c-9.4,0-17.2,7.6-17.2,17.2h-4.5c0-11.9,9.7-21.6,21.6-21.6
						S397.5,723.5,397.5,735.4z"/>
				</g>
			</g>
		</g>
		<g>
			<g>
				<g>
					<path fill="#E7CA3B" d="M732.3,683.7c61.6,86-33.4,181.1-119.5,119.5c-2-1.5-3.8-3.3-5.3-5.3c-61.6-86,33.4-181.1,119.5-119.5
						C729.1,679.9,730.9,681.7,732.3,683.7z"/>
					<path fill="#E3AF33" d="M716.9,673.6c9.3,13.3,14.8,29.5,14.8,47c0,45.3-36.8,82.1-82.1,82.1c-17.4,0-33.6-5.5-47-14.8
						c14.8,21.3,39.5,35.1,67.3,35.1c45.3,0,82.1-36.8,82.1-82.1C752,712.9,738.2,688.4,716.9,673.6z"/>
					<g>
						<path fill="#1D1612" d="M669.9,825.1c-46.5,0-84.4-37.8-84.4-84.4c0-46.5,37.8-84.4,84.4-84.4c46.5,0,84.4,37.8,84.4,84.4
							C754.3,787.3,716.5,825.1,669.9,825.1z M669.9,661c-44,0-79.9,35.8-79.9,79.9c0,44,35.8,79.9,79.9,79.9
							c44,0,79.9-35.8,79.9-79.9S714,661,669.9,661z"/>
					</g>
					<path fill="#1D1612" d="M627.7,760.7c0,23.4,18.9,42.3,42.3,42.3s42.3-18.9,42.3-42.3H627.7z"/>
					<path fill="#B92216" d="M695.3,794.6c-7.1-5.3-15.9-8.4-25.4-8.4c-9.6,0-18.3,3.1-25.4,8.4c7.1,5.3,15.9,8.4,25.4,8.4
						C679.5,803,688.2,799.9,695.3,794.6z"/>
					<g>
						<path fill="#1D1612" d="M669.9,804.5c-24.1,0-43.8-19.6-43.8-43.8v-1.5h87.5v1.5C713.7,784.9,694.1,804.5,669.9,804.5z
							 M629.2,762.3c0.8,21.8,18.8,39.3,40.7,39.3c22,0,39.9-17.5,40.7-39.3H629.2z"/>
					</g>
				</g>
				<path opacity="0.6" fill="#FFFFFF" enable-background="new    " d="M656.3,674.2c-0.8-2.8-3.7-4.4-6.4-3.6
					c-20.5,5.8-37.2,20.2-46.2,39.6c-1.2,2.6-0.1,5.7,2.6,6.9c0.7,0.3,1.5,0.4,2.1,0.4c1.9,0,3.8-1.1,4.7-3c7.6-16.6,22-29,39.6-34
					C655.5,679.9,657.1,677.1,656.3,674.2z"/>
			</g>
			<ellipse cx="702.1" cy="720.9" rx="9.1" ry="14.5"/>
			<ellipse cx="636.8" cy="720.9" rx="9.1" ry="14.5"/>
		</g>
	</g>
</g>
<g>
	<rect x="191.4" y="515.1" fill="none" width="240.9" height="49.5"/>
	<g enable-background="new    ">
		<path d="M229.2,544.7c-1.3,0.7-4.2,1.3-7.6,1.3c-8.2,0-14.3-5.2-14.3-14.6c0-9.1,6.2-15.2,15.2-15.2c3.6,0,5.8,0.8,6.9,1.2l-0.9,3
			c-1.5-0.7-3.5-1.2-5.8-1.2c-6.7,0-11.4,4.4-11.4,11.9c0,7.1,4,11.7,11.1,11.7c2.2,0,4.6-0.4,6.1-1.2L229.2,544.7z"/>
		<path d="M252,535c0,7.6-5.3,11-10.3,11c-5.6,0-10-4.2-10-10.7c0-7,4.6-11,10.3-11C248,524.3,252,528.7,252,535z M235.6,535.2
			c0,4.6,2.6,8,6.3,8c3.6,0,6.3-3.4,6.3-8.1c0-3.5-1.8-8-6.2-8C237.6,527.1,235.6,531.3,235.6,535.2z"/>
		<path d="M256.9,530.4c0-2.1,0-3.9-0.2-5.6h3.3l0.2,3.4h0.1c1.1-2,3.1-3.8,6.5-3.8c2.8,0,4.9,1.7,5.8,4.2h0.1
			c0.7-1.1,1.5-2,2.4-2.7c1.2-0.9,2.6-1.5,4.6-1.5c2.7,0,6.9,1.8,6.9,9v12.3h-3.7v-11.7c0-4-1.5-6.4-4.5-6.4c-2.1,0-3.8,1.6-4.5,3.5
			c-0.2,0.6-0.3,1.2-0.3,1.9v12.8h-3.7v-12.5c0-3.3-1.5-5.7-4.4-5.7c-2.4,0-4,1.9-4.7,3.8c-0.2,0.6-0.3,1.2-0.3,1.8v12.6h-3.7v-15.3
			H256.9z"/>
		<path d="M292.8,530.4c0-2.1,0-3.9-0.2-5.6h3.3l0.2,3.4h0.1c1.1-2,3.1-3.8,6.5-3.8c2.8,0,4.9,1.7,5.8,4.2h0.1
			c0.7-1.1,1.5-2,2.4-2.7c1.2-0.9,2.6-1.5,4.6-1.5c2.7,0,6.9,1.8,6.9,9v12.3h-3.7v-11.7c0-4-1.5-6.4-4.5-6.4c-2.1,0-3.8,1.6-4.5,3.5
			c-0.2,0.6-0.3,1.2-0.3,1.9v12.8h-3.7v-12.5c0-3.3-1.5-5.7-4.4-5.7c-2.4,0-4,1.9-4.7,3.8c-0.2,0.6-0.3,1.2-0.3,1.8v12.6h-3.7v-15.3
			H292.8z"/>
		<path d="M346.1,539.9c0,2.1,0,4,0.2,5.6h-3.4l-0.2-3.4h-0.1c-1,1.7-3.1,3.8-6.9,3.8c-3.3,0-7.2-1.8-7.2-9.1v-12.1h3.8v11.6
			c0,3.9,1.2,6.6,4.6,6.6c2.6,0,4.3-1.8,4.9-3.5c0.2-0.6,0.3-1.2,0.3-1.9v-12.8h3.8L346.1,539.9L346.1,539.9z"/>
		<path d="M352.4,530.4c0-2.1,0-3.9-0.2-5.6h3.4l0.2,3.5h0.1c1-2,3.5-3.9,6.9-3.9c2.9,0,7.3,1.7,7.3,8.9v12.5h-3.8v-12
			c0-3.4-1.2-6.2-4.8-6.2c-2.5,0-4.4,1.8-5.1,3.8c-0.2,0.4-0.2,1.1-0.2,1.8v12.5h-3.8v-15.2H352.4z"/>
		<path d="M380.5,518.9c0,1.2-0.9,2.4-2.4,2.4c-1.3,0-2.2-1-2.2-2.4c0-1.3,1-2.4,2.4-2.4C379.6,516.5,380.5,517.6,380.5,518.9z
			 M376.2,545.6v-20.8h3.8v20.8H376.2z"/>
		<path d="M390.8,518.8v6h5.4v2.9h-5.4v11.2c0,2.6,0.7,4,2.8,4c1,0,1.7-0.1,2.2-0.2l0.2,2.8c-0.8,0.3-1.9,0.6-3.4,0.6
			c-1.8,0-3.1-0.6-4-1.6c-1.1-1.1-1.5-2.9-1.5-5.4v-11.4H384v-2.9h3.3v-4.9L390.8,518.8z"/>
		<path d="M402.3,524.8l4.6,12.3c0.4,1.3,1,3,1.3,4.3h0.1c0.3-1.2,0.8-2.8,1.3-4.4l4.2-12.3h4l-5.6,14.8c-2.7,7.2-4.6,10.8-7.2,13
			c-1.8,1.7-3.7,2.2-4.6,2.5l-0.9-3.1c0.9-0.3,2.2-0.9,3.3-1.8c1-0.8,2.4-2.2,3.1-4.2c0.2-0.3,0.3-0.7,0.3-0.9s-0.1-0.6-0.2-1
			l-7.6-19.2H402.3z"/>
	</g>
	<g>
		<g>
			<linearGradient id="SVGID_2_" gradientUnits="userSpaceOnUse" x1="162.6147" y1="330.8687" x2="461.4761" y2="330.8687">
				<stop  offset="0" style="stop-color:#715296"/>
				<stop  offset="1" style="stop-color:#3A3387"/>
			</linearGradient>
			<path fill="url(#SVGID_2_)" d="M312,496.2c-8.1,0-16.1-2-23.3-6.2l-102.8-59.4c-14.4-8.3-23.3-23.8-23.3-40.4V271.6
				c0-16.6,8.9-32.1,23.3-40.4l102.8-59.4c14.4-8.3,32.3-8.3,46.7,0l102.8,59.4c14.4,8.3,23.3,23.8,23.3,40.4v118.7
				c0,16.6-8.9,32.1-23.3,40.4L335.3,490C328.1,494.2,320,496.2,312,496.2z"/>
		</g>
		<g>
			<g>
				<g>
					<g>
						<path fill="#FFFFFF" d="M289,330.4l-25.8-14.8l-13,7.5c-1.6,0.9-3.3,1.3-4.9,1.3s-3.5-0.4-4.9-1.3l-13-7.5l-25.8,14.8
							c-4.9,2.9-8.1,8.2-8.1,14.1v41.2c0,5.7,3.1,11.1,8.1,14.1l35.7,20.6c2.5,1.5,5.3,2.1,8.1,2.1s5.6-0.7,8.1-2.1l35.7-20.6
							c4.9-2.9,8.1-8.2,8.1-14.1v-41.2C297,338.6,294,333.2,289,330.4z"/>
						<linearGradient id="SVGID_3_" gradientUnits="userSpaceOnUse" x1="192.3096" y1="368.8028" x2="298.154" y2="368.8028">
							<stop  offset="0" style="stop-color:#715296"/>
							<stop  offset="1" style="stop-color:#3A3387"/>
						</linearGradient>
						<path fill="url(#SVGID_3_)" d="M245.3,423.4c-3,0-6-0.8-8.7-2.4L201,400.5c-5.3-3-8.7-8.8-8.7-15v-41.2c0-6.2,3.3-11.9,8.7-15
							l26.3-15.2l13.5,7.8c2.7,1.6,6.2,1.6,8.9,0l13.5-7.8l26.3,15.2c5.3,3,8.7,8.8,8.7,15v41.2c0,6.2-3.3,11.9-8.7,15l-35.7,20.6
							C251.2,422.5,248.3,423.4,245.3,423.4z M227.3,316.8l-25.2,14.5c-4.6,2.7-7.5,7.6-7.5,13v41.2c0,5.4,2.9,10.3,7.5,13
							l35.7,20.6c4.6,2.6,10.6,2.6,15.1,0l35.7-20.6c4.6-2.7,7.5-7.8,7.5-13v-41.2c0-5.4-2.9-10.3-7.5-13l-25.2-14.5l-12.5,7.2
							c-3.4,1.9-7.8,1.9-11,0L227.3,316.8z"/>
					</g>
				</g>
				<g>
					<g>
						<path fill="#FFFFFF" d="M245.3,321.8c-1.6,0-3.1-0.4-4.6-1.2l-20.4-11.7c-2.8-1.7-4.6-4.7-4.6-8v-23.4c0-3.3,1.8-6.3,4.6-8
							l20.4-11.7c2.8-1.7,6.4-1.7,9.2,0l20.2,11.7c2.8,1.7,4.6,4.7,4.6,8v23.4c0,3.3-1.8,6.3-4.6,8l-20.2,11.7
							C248.4,321.5,246.9,321.8,245.3,321.8z"/>
						<linearGradient id="SVGID_4_" gradientUnits="userSpaceOnUse" x1="214.6571" y1="289.3351" x2="275.8663" y2="289.3351">
							<stop  offset="0" style="stop-color:#715296"/>
							<stop  offset="1" style="stop-color:#3A3387"/>
						</linearGradient>
						<path fill="url(#SVGID_4_)" d="M245.3,323c-1.8,0-3.6-0.4-5.2-1.3l-20.4-11.7c-3.1-1.8-5.2-5.3-5.2-8.9v-23.4
							c0-3.7,2-7.1,5.2-8.9l20.4-11.7c3.1-1.8,7.2-1.8,10.3,0l20.4,11.7c3.1,1.8,5.2,5.3,5.2,8.9V301c0,3.7-2,7.1-5.2,8.9
							l-20.4,11.7C248.9,322.5,247.1,323,245.3,323z M245.3,257.6c-1.5,0-2.8,0.3-4,1.1l-20.4,11.7c-2.5,1.5-4,4.2-4,7.1v23.4
							c0,2.9,1.6,5.6,4,7.1l20.4,11.7c2.5,1.5,5.6,1.5,8.1,0l20.4-11.7c2.5-1.5,4-4.2,4-7.1v-23.4c0-2.9-1.6-5.6-4-7.1l-20.4-11.7
							C248.1,258,246.8,257.6,245.3,257.6z"/>
					</g>
				</g>
			</g>
			<g>
				<g>
					<g>
						<path fill="#FFFFFF" d="M422.4,330.4l-25.8-14.8l-13,7.5c-1.6,0.9-3.3,1.3-4.9,1.3c-1.7,0-3.5-0.4-4.9-1.3l-13-7.5l-25.8,14.8
							c-4.9,2.9-8.1,8.2-8.1,14.1v41.2c0,5.7,3.1,11.1,8.1,14.1l35.7,20.6c2.5,1.5,5.3,2.1,8.1,2.1c2.8,0,5.6-0.7,8.1-2.1l35.7-20.6
							c4.9-2.9,8.1-8.2,8.1-14.1v-41.2C430.4,338.6,427.4,333.2,422.4,330.4z"/>
						<linearGradient id="SVGID_5_" gradientUnits="userSpaceOnUse" x1="325.7118" y1="368.8028" x2="431.5562" y2="368.8028">
							<stop  offset="0" style="stop-color:#715296"/>
							<stop  offset="1" style="stop-color:#3A3387"/>
						</linearGradient>
						<path fill="url(#SVGID_5_)" d="M378.7,423.4c-3,0-6-0.8-8.7-2.4l-35.7-20.6c-5.3-3-8.7-8.8-8.7-15v-41.2
							c0-6.2,3.3-11.9,8.7-15l26.3-15.2l13.5,7.8c2.7,1.6,6.2,1.6,8.9,0l13.5-7.8l26.3,15.2c5.3,3,8.7,8.8,8.7,15v41.2
							c0,6.2-3.3,11.9-8.7,15l-35.7,20.6C384.7,422.5,381.7,423.4,378.7,423.4z M360.7,316.8l-25.2,14.5c-4.6,2.7-7.5,7.6-7.5,13
							v41.2c0,5.4,2.9,10.3,7.5,13l35.7,20.6c4.6,2.6,10.6,2.6,15.1,0l35.7-20.6c4.6-2.7,7.5-7.8,7.5-13v-41.2
							c0-5.4-2.9-10.3-7.5-13l-25.2-14.5l-12.5,7.2c-3.4,1.9-7.8,1.9-11,0L360.7,316.8z"/>
					</g>
				</g>
				<g>
					<g>
						<path fill="#FFFFFF" d="M378.7,321.8c-1.6,0-3.1-0.4-4.6-1.2l-20.4-11.7c-2.8-1.7-4.6-4.7-4.6-8v-23.4c0-3.3,1.8-6.3,4.6-8
							l20.4-11.7c2.8-1.7,6.4-1.7,9.2,0l20.4,11.7c2.8,1.7,4.6,4.7,4.6,8v23.4c0,3.3-1.8,6.3-4.6,8l-20.4,11.7
							C381.8,321.5,380.3,321.8,378.7,321.8z"/>
						<linearGradient id="SVGID_6_" gradientUnits="userSpaceOnUse" x1="348.0607" y1="289.3351" x2="409.2698" y2="289.3351">
							<stop  offset="0" style="stop-color:#715296"/>
							<stop  offset="1" style="stop-color:#3A3387"/>
						</linearGradient>
						<path fill="url(#SVGID_6_)" d="M378.7,323c-1.8,0-3.6-0.4-5.2-1.3l-20.4-11.7c-3.1-1.8-5.2-5.3-5.2-8.9v-23.4
							c0-3.7,2-7.1,5.2-8.9l20.4-11.7c3.1-1.8,7.2-1.8,10.3,0l20.4,11.7c3.1,1.8,5.2,5.3,5.2,8.9V301c0,3.7-2,7.1-5.2,8.9
							l-20.4,11.7C382.3,322.5,380.5,323,378.7,323z M378.7,257.6c-1.5,0-2.8,0.3-4,1.1l-20.4,11.7c-2.5,1.5-4,4.2-4,7.1v23.4
							c0,2.9,1.6,5.6,4,7.1l20.4,11.7c2.5,1.5,5.6,1.5,8.1,0l20.4-11.7c2.5-1.5,4-4.2,4-7.1v-23.4c0-2.9-1.6-5.6-4-7.1l-20.4-11.7
							C381.5,258,380.2,257.6,378.7,257.6z"/>
					</g>
				</g>
			</g>
			<g>
				<g>
					<g>
						<path fill="#FFFFFF" d="M355.6,313.3l-25.8-14.8l-13,7.5c-1.6,0.9-3.3,1.3-4.9,1.3c-1.7,0-3.5-0.4-4.9-1.3l-13-7.5l-25.8,14.8
							c-4.9,2.9-8.1,8.2-8.1,14.1v41.2c0,5.7,3.1,11.1,8.1,14.1l35.7,20.6c2.5,1.5,5.3,2.1,8.1,2.1c2.8,0,5.6-0.7,8.1-2.1l35.7-20.6
							c4.9-2.9,8.1-8.2,8.1-14.1v-41.2C363.7,321.5,360.6,316.2,355.6,313.3z"/>
						<linearGradient id="SVGID_7_" gradientUnits="userSpaceOnUse" x1="258.4483" y1="351.7619" x2="365.4175" y2="351.7619">
							<stop  offset="0" style="stop-color:#715296"/>
							<stop  offset="1" style="stop-color:#3A3387"/>
						</linearGradient>
						<path fill="url(#SVGID_7_)" d="M311.9,406.9c-3.1,0-6.2-0.8-8.9-2.4l-35.7-20.6c-5.5-3.1-8.9-9.1-8.9-15.4v-41.2
							c0-6.3,3.4-12.3,8.9-15.4l26.5-15.3l13.8,8c2.6,1.5,5.8,1.5,8.4,0l13.8-8l26.5,15.3c5.5,3.1,8.9,9.1,8.9,15.4v41.2
							c0,6.3-3.4,12.3-8.9,15.4l-35.8,20.5C318.1,406,315,406.9,311.9,406.9z M293.9,300.4l-25,14.4c-4.5,2.6-7.3,7.4-7.3,12.6v41.2
							c0,5.2,2.8,10,7.3,12.6l35.7,20.6c4.4,2.6,10.1,2.6,14.6,0l35.7-20.6c4.5-2.6,7.3-7.4,7.3-12.6v-41.2c0-5.2-2.8-10-7.3-12.6
							l-25-14.4l-12.1,7.1c-3.5,2-8.1,2-11.6,0L293.9,300.4z"/>
					</g>
				</g>
				<g>
					<g>
						<path fill="#FFFFFF" d="M311.9,304.7c-1.6,0-3.1-0.4-4.6-1.2L287,291.8c-2.8-1.7-4.6-4.7-4.6-8v-23.4c0-3.3,1.8-6.3,4.6-8
							l20.4-11.7c2.8-1.7,6.4-1.7,9.2,0l20.4,11.7c2.8,1.7,4.6,4.7,4.6,8v23.4c0,3.3-1.8,6.3-4.6,8l-20.4,11.7
							C315,304.4,313.5,304.7,311.9,304.7z"/>
						<linearGradient id="SVGID_8_" gradientUnits="userSpaceOnUse" x1="280.7195" y1="272.2521" x2="343.0338" y2="272.2521">
							<stop  offset="0" style="stop-color:#715296"/>
							<stop  offset="1" style="stop-color:#3A3387"/>
						</linearGradient>
						<path fill="url(#SVGID_8_)" d="M311.9,306.4c-1.9,0-3.8-0.4-5.4-1.5l-20.4-11.7c-3.4-1.9-5.4-5.5-5.4-9.3v-23.4
							c0-3.8,2-7.4,5.4-9.3l20.4-11.7c3.3-1.9,7.5-1.9,10.8,0l20.4,11.7c3.4,1.9,5.4,5.5,5.4,9.3v23.4c0,3.8-2,7.4-5.4,9.3
							L317.3,305C315.7,305.9,313.8,306.4,311.9,306.4z M311.9,241.1c-1.3,0-2.7,0.3-3.8,1l-20.2,11.7c-2.4,1.3-3.8,3.9-3.8,6.6
							v23.4c0,2.7,1.5,5.3,3.8,6.6l20.4,11.7c2.2,1.3,5.3,1.3,7.6,0l20.4-11.7c2.4-1.3,3.8-3.8,3.8-6.6v-23.4c0-2.7-1.5-5.3-3.8-6.6
							l-20.4-11.7C314.6,241.4,313.2,241.1,311.9,241.1z"/>
					</g>
				</g>
			</g>
		</g>
	</g>
</g>
<g>
	<rect x="634" y="516.7" fill="none" width="240.9" height="49.5"/>
	<g enable-background="new    ">
		<path d="M671.5,534.4c-0.2-4-0.4-8.9-0.4-12.5h-0.1c-1,3.4-2.2,7-3.7,11L662,547h-2.8l-4.7-13.8c-1.3-4-2.6-7.9-3.4-11.2H651
			c-0.1,3.6-0.3,8.4-0.6,12.8l-0.8,12.5h-3.6l2-29h4.7l4.9,14.1c1.2,3.6,2.2,6.7,2.9,9.8h0.1c0.8-2.9,1.8-6.1,3-9.8l5.2-14.1h4.7
			l1.8,29h-3.7L671.5,534.4z"/>
		<path d="M693.3,547.3l-0.3-2.6h-0.1c-1.1,1.7-3.4,3.1-6.4,3.1c-4.2,0-6.4-2.9-6.4-6c0-5.1,4.5-7.8,12.5-7.8v-0.4
			c0-1.7-0.4-4.8-4.7-4.8c-1.9,0-3.9,0.6-5.4,1.6l-0.9-2.5c1.7-1.1,4.2-1.8,6.9-1.8c6.4,0,7.9,4.4,7.9,8.5v7.8
			c0,1.8,0.1,3.6,0.3,4.9h-3.3V547.3z M692.7,536.6c-4.2-0.1-8.8,0.7-8.8,4.7c0,2.5,1.7,3.6,3.6,3.6c2.7,0,4.4-1.7,5.1-3.5
			c0.1-0.3,0.2-0.8,0.2-1.2v-3.6H692.7z"/>
		<path d="M702.4,532.9c0-2.5,0-4.6-0.2-6.5h3.3l0.1,4h0.2c0.9-2.8,3.3-4.6,5.7-4.6c0.4,0,0.7,0,1.1,0.1v3.6
			c-0.3-0.1-0.8-0.1-1.2-0.1c-2.7,0-4.6,2-5.1,4.8c-0.1,0.6-0.2,1.1-0.2,1.8v11.1h-3.7V532.9z"/>
		<path d="M720.4,535.9L720.4,535.9c0.6-0.8,1.3-1.7,1.9-2.4l6.1-7.2h4.6l-8.1,8.5l9.1,12.3h-4.6l-7.2-10l-1.9,2.1v7.9h-3.6v-30.6
			h3.7V535.9z"/>
		<path d="M739,537.5c0.1,5.2,3.4,7.2,7.2,7.2c2.7,0,4.4-0.4,5.7-1.1l0.7,2.7c-1.3,0.6-3.6,1.2-7,1.2c-6.4,0-10.2-4.2-10.2-10.5
			s3.7-11.2,9.8-11.2c6.7,0,8.7,6,8.7,9.8c0,0.8-0.1,1.3-0.1,1.8H739V537.5z M750.1,534.8c0-2.4-1-6.2-5.3-6.2
			c-3.8,0-5.5,3.5-5.8,6.2H750.1z"/>
		<path d="M763,520.4v6h5.4v2.9H763v11.2c0,2.6,0.8,4,2.8,4c1,0,1.7-0.1,2.2-0.2l0.2,2.8c-0.8,0.3-1.9,0.6-3.4,0.6
			c-1.8,0-3.1-0.6-4-1.6c-1.1-1.1-1.5-2.9-1.5-5.4v-11.4h-3.4v-2.9h3.3v-4.9L763,520.4z"/>
		<path d="M772.7,533.2c0-2.7-0.1-4.8-0.2-6.7h3.4l0.2,3.6h0.1c1.6-2.6,4-4,7.4-4c5.1,0,8.8,4.3,8.8,10.6c0,7.5-4.6,11.1-9.4,11.1
			c-2.7,0-5.2-1.2-6.4-3.3h-0.1v11.4h-3.7L772.7,533.2L772.7,533.2z M776.4,538.7c0,0.6,0.1,1.1,0.2,1.6c0.7,2.6,2.9,4.4,5.6,4.4
			c4,0,6.3-3.3,6.3-8.1c0-4.2-2.2-7.8-6.2-7.8c-2.6,0-4.9,1.8-5.7,4.7c-0.1,0.4-0.2,1-0.2,1.6V538.7z"/>
		<path d="M797.1,516.7h3.8v30.6h-3.8V516.7z"/>
		<path d="M818.8,547.3l-0.3-2.6h-0.1c-1.1,1.7-3.4,3.1-6.4,3.1c-4.2,0-6.4-2.9-6.4-6c0-5.1,4.5-7.8,12.5-7.8v-0.4
			c0-1.7-0.4-4.8-4.7-4.8c-1.9,0-3.9,0.6-5.4,1.6l-0.9-2.5c1.7-1.1,4.2-1.8,6.9-1.8c6.4,0,7.9,4.4,7.9,8.5v7.8
			c0,1.8,0.1,3.6,0.3,4.9h-3.3V547.3z M818.3,536.6c-4.2-0.1-8.8,0.7-8.8,4.7c0,2.5,1.7,3.6,3.6,3.6c2.7,0,4.4-1.7,5.1-3.5
			c0.1-0.3,0.2-0.8,0.2-1.2v-3.6H818.3z"/>
		<path d="M842.9,546.5c-1,0.6-3.1,1.2-6,1.2c-6.3,0-10.3-4.3-10.3-10.6c0-6.4,4.4-11,11.1-11c2.2,0,4.2,0.6,5.3,1.1l-0.9,2.9
			c-0.9-0.6-2.4-1-4.4-1c-4.7,0-7.3,3.5-7.3,7.9c0,4.8,3.1,7.8,7.2,7.8c2.1,0,3.6-0.6,4.6-1L842.9,546.5z"/>
		<path d="M849.2,537.5c0.1,5.2,3.4,7.2,7.1,7.2c2.7,0,4.4-0.4,5.7-1.1l0.7,2.7c-1.3,0.6-3.6,1.2-7,1.2c-6.4,0-10.2-4.2-10.2-10.5
			s3.7-11.2,9.8-11.2c6.7,0,8.7,6,8.7,9.8c0,0.8-0.1,1.3-0.1,1.8h-14.6V537.5z M860.3,534.8c0-2.4-1-6.2-5.3-6.2
			c-3.8,0-5.5,3.5-5.8,6.2H860.3z"/>
	</g>
	<g>
		<g>
			<path fill="#97448F" d="M926.5,335c0-7.3-1.9-14.7-5.7-21.3l-63.4-109.9c-7.5-13.2-21.7-21.3-36.9-21.3H693.5
				c-15.2,0-29.2,8.2-36.9,21.3l-63.4,109.9c-7.5,13.2-7.5,29.5,0,42.6l63.4,109.9c7.5,13.2,21.7,21.3,36.9,21.3h127
				c15.2,0,29.2-8.2,36.9-21.3l63.4-109.9C924.6,349.7,926.5,342.4,926.5,335z"/>
		</g>
		<g>
			<g>
				<g>
					<path fill="none" stroke="#97448F" stroke-linecap="round" stroke-linejoin="round" stroke-miterlimit="10" d="M817,394.2"/>
				</g>
			</g>
			<path fill="#FFFFFF" d="M802.4,388.1c0.3,0,0.6-0.1,0.9-0.1c0.2,0,0.3,0.1,0.6,0.1c0.6,0,1.1-0.1,1.7-0.3
				c8.8-0.9,16.8-5.2,21.4-11.9l35.9-53.4c2.6-3.8,3.9-8.2,3.9-12.7s-1.3-8.9-3.9-12.7c-0.8-1.2-2.1-1.9-3.6-1.9H678.1V271
				c0-2.4-1.9-4.3-4.3-4.3h-31.5c-2.4,0-4.3,1.9-4.3,4.3c0,2.4,1.9,4.3,4.3,4.3h27.2v24.1c0,0,0,0,0,0.1v0.1c0.2,6,2.5,54.2,8.7,72
				c-0.1,0.4-0.2,1-0.1,1.6c1.6,13.4,3.7,17.4,7,22.9c3.5,5.8,14.5,12.4,24.5,12.4h97.9c10,0,19.3-4.7,24.4-12.3
				c1.3-1.9,0.8-4.6-1.1-6c-1.9-1.3-4.6-0.8-6,1.1c-3.5,5.2-10.1,8.4-17.3,8.4h-97.9c-7.1,0-15.2-4.9-17.2-8.2
				c-1.6-2.6-2.7-4.6-3.8-8.2c4.7,2.7,10.3,4.7,15.9,4.7L802.4,388.1L802.4,388.1z M687.3,371.3c-2.1-3.5-3.9-13-5.4-24.6
				c5.5,0,17.1,0,31.8,0v32.8h-9.2C697.5,379.5,689.4,374.6,687.3,371.3z M799.6,379.5h-34.3v-32.8c11.9,0,23.6,0,34.3,0V379.5z
				 M756.7,379.5h-34.3v-32.8c10.7,0,22.4,0,34.3,0V379.5z M765.3,338.2v-34.4h34.3v34.4C788.9,338.2,777.1,338.2,765.3,338.2z
				 M756.7,338.2c-11.9,0-23.6,0-34.3,0v-34.4h34.3V338.2z M819.7,371.1c-2.6,3.8-6.7,6.5-11.6,7.6v-32.1c11.8,0,21.6,0,28,0
				L819.7,371.1z M858.2,309.8c0,2.8-0.9,5.5-2.5,8l-13.8,20.4c-4.9,0-17.5,0-33.9,0v-34.4h48.6
				C857.6,305.6,858.2,307.7,858.2,309.8z M713.9,303.7v34.4c-15.6,0-27.9,0-32.8,0c-1.2-11.6-2.1-24.2-2.7-34.4H713.9z"/>
			<g>
				<circle fill="#FFFFFF" cx="790.7" cy="421.2" r="12.9"/>
				<path fill="#97448F" d="M790.7,436.2c-8.3,0-15.1-6.7-15.1-15.1c0-8.3,6.7-15.1,15.1-15.1s15.1,6.7,15.1,15.1
					C805.8,429.5,799,436.2,790.7,436.2z M790.7,410.4c-6,0-10.8,4.8-10.8,10.8c0,6,4.8,10.8,10.8,10.8c6,0,10.8-4.8,10.8-10.8
					C801.5,415.2,796.7,410.4,790.7,410.4z"/>
			</g>
			<g>
				<circle fill="#FFFFFF" cx="722.5" cy="421.2" r="12.9"/>
				<path fill="#97448F" d="M722.5,436.2c-8.3,0-15.1-6.7-15.1-15.1c0-8.3,6.7-15.1,15.1-15.1s15.1,6.7,15.1,15.1
					C737.6,429.5,730.8,436.2,722.5,436.2z M722.5,410.4c-6,0-10.8,4.8-10.8,10.8c0,6,4.8,10.8,10.8,10.8c6,0,10.8-4.8,10.8-10.8
					C733.3,415.2,728.4,410.4,722.5,410.4z"/>
			</g>
		</g>
	</g>
</g>
</svg>
