<svg width="200" height="200" enable-background="new 162.6 165.5 763.9 768.8" version="1.1" viewBox="163 166 200 200" xmlns="http://www.w3.org/2000/svg">
	<defs>
		<linearGradient id="SVGID_1_-3" x1="1426" x2="1426" y1="583" y2="898" gradientTransform="matrix(.000499 .26 -.26 .000499 452 -58.2)" gradientUnits="userSpaceOnUse">
			<stop stop-color="#d4adcf" offset="0"/>
			<stop stop-color="#483d8b" offset="1"/>
		</linearGradient>
		<linearGradient id="SVGID_2_" x1="26.4" x2="312" y1="208" y2="331" gradientTransform="matrix(.26 0 0 .26 122 123)" gradientUnits="userSpaceOnUse">
			<stop stop-color="#d4adcf" offset="0"/>
			<stop stop-color="#483d8b" offset="1"/>
		</linearGradient>
	</defs>
	<g stroke-width=".26">
		<path d="m271 364c0.312 0.208 0.884 0.442 1.43 0.442 0.78 0 1.17-0.416 1.17-0.884 0-0.52-0.312-0.78-1.12-1.12-1.09-0.39-1.59-0.962-1.59-1.69 0-0.962 0.78-1.74 2.08-1.74 0.624 0 1.14 0.182 1.46 0.39l-0.26 0.78c-0.234-0.156-0.676-0.338-1.22-0.338-0.65 0-0.988 0.39-0.988 0.806 0 0.494 0.338 0.728 1.14 1.01 1.01 0.416 1.59 0.91 1.59 1.82 0 1.04-0.806 1.79-2.26 1.79-0.65 0-1.25-0.156-1.66-0.416zm-3.9-3.12c0-0.702 0-1.33-0.052-1.87h0.962l0.026 1.17h0.052c0.26-0.78 0.936-1.33 1.66-1.33 0.104 0 0.208 0 0.312 0.026v1.01c-0.104-0.026-0.234-0.026-0.39-0.026-0.754 0-1.33 0.572-1.46 1.4-0.026 0.156-0.052 0.312-0.052 0.494v3.2h-1.09zm-5.46 1.3c0.026 1.46 0.962 2.08 2.05 2.08 0.78 0 1.25-0.156 1.66-0.312l0.182 0.78c-0.39 0.182-1.04 0.39-1.98 0.39-1.85 0-2.96-1.2-2.96-3.02s1.04-3.22 2.81-3.22c1.95 0 2.5 1.72 2.5 2.81 0 0.234-0.026 0.416-0.026 0.494zm3.2-0.754c0-0.702-0.286-1.74-1.51-1.74-1.12 0-1.59 1.01-1.66 1.74zm-8.92 2.57c0.312 0.208 0.884 0.442 1.43 0.442 0.78 0 1.17-0.416 1.17-0.884 0-0.52-0.312-0.78-1.12-1.12-1.09-0.39-1.59-0.962-1.59-1.69 0-0.962 0.78-1.74 2.08-1.74 0.624 0 1.14 0.182 1.46 0.39l-0.26 0.78c-0.234-0.156-0.676-0.338-1.22-0.338-0.65 0-0.988 0.39-0.988 0.806 0 0.494 0.338 0.728 1.14 1.01 1.04 0.416 1.59 0.91 1.59 1.82 0 1.04-0.806 1.79-2.26 1.79-0.65 0-1.25-0.156-1.66-0.416zm-6.5-7.28v4.94c0 1.87 0.806 2.65 1.92 2.65 1.22 0 2.03-0.806 2.03-2.65v-4.94h1.09v4.86c0 2.55-1.35 3.59-3.15 3.59-1.69 0-2.99-0.962-2.99-3.56v-4.91h1.12v0.026z"/>
		<path d="m220 313c0-2.05 0.52-4.06 1.56-5.9l15-26c2.11-3.61 6.01-5.9 10.2-5.9l29.9-0.052c4.21 0 8.14 2.26 10.2 5.88l15 25.9c2.11 3.61 2.11 8.16 0.026 11.8l-15 26c-2.11 3.61-6.01 5.9-10.2 5.9l-29.9 0.052c-4.21 0-8.14-2.26-10.2-5.88l-15-25.9c-1.04-1.79-1.56-3.82-1.56-5.88zm81.9-0.156c0-1.72-0.468-3.48-1.35-5.02l-15-25.9c-1.79-3.09-5.15-5.02-8.71-4.99l-29.9 0.052c-3.56 0-6.89 1.92-8.68 5.07l-15 26c-1.79 3.09-1.79 6.97 0.026 10.1l15 25.9c1.79 3.09 5.15 5.02 8.71 4.99l29.9-0.052c3.56 0 6.89-1.92 8.68-5.07l15-26c0.884-1.56 1.33-3.3 1.33-5.04z" fill="url(#SVGID_1_-3)"/>
		<path d="m245 301c16 22.4-8.68 47.1-31.2 31.2-0.52-0.39-0.988-0.858-1.38-1.38-16-22.4 8.68-47.1 31.2-31.2 0.52 0.39 0.988 0.858 1.38 1.38z" fill="#e7ca3b"/>
		<path d="m241 298c2.42 3.46 3.85 7.67 3.85 12.2 0 11.8-9.57 21.3-21.3 21.3-4.52 0-8.74-1.43-12.2-3.85 3.85 5.54 10.3 9.13 17.5 9.13 11.8 0 21.3-9.57 21.3-21.3 0-7.28-3.59-13.6-9.13-17.5z" fill="#e3af33"/>
		<path d="m218 321c0 6.08 4.91 11 11 11s11-4.91 11-11z" fill="#1d1612"/>
		<path d="m235 330c-1.85-1.38-4.13-2.18-6.6-2.18-2.5 0-4.76 0.806-6.6 2.18 1.85 1.38 4.13 2.18 6.6 2.18s4.78-0.806 6.6-2.18z" fill="#b92216"/>
		<path d="m229 325c4.6 0 8.5-1.64 10.1-4h-20.3c1.69 2.37 5.59 4 10.2 4z" fill="#fff"/>
		<path d="m219 321c0.338 0.494 0.78 0.936 1.33 1.35h14.5c-0.806 1.14-2.34 2.08-4.26 2.57 3.98-0.286 7.31-1.85 8.76-3.95h-20.3z" fill="#d0d1d2"/>
		<path d="m225 298c-0.208-0.728-0.962-1.14-1.66-0.936-5.33 1.51-9.67 5.25-12 10.3-0.312 0.676-0.026 1.48 0.676 1.79 0.182 0.078 0.39 0.104 0.546 0.104 0.494 0 0.988-0.286 1.22-0.78 1.98-4.32 5.72-7.54 10.3-8.84 0.728-0.156 1.14-0.884 0.936-1.64z" enable-background="new    " fill="#fff" opacity=".6"/>
		<path d="m225 314h-1.17c0-2.44-1.98-4.47-4.47-4.47-2.44 0-4.47 1.98-4.47 4.47h-1.17c0-3.09 2.52-5.62 5.62-5.62s5.67 2.52 5.67 5.62zm18.2 0h-1.17c0-2.44-1.98-4.47-4.47-4.47-2.44 0-4.47 1.98-4.47 4.47h-1.17c0-3.09 2.52-5.62 5.62-5.62 3.15 0 5.67 2.52 5.67 5.62zm-14.8 23.4c-12.1 0-21.9-9.83-21.9-21.9 0-12.1 9.83-21.9 21.9-21.9 12.1 0 21.9 9.83 21.9 21.9-0.052 12.1-9.85 21.9-21.9 21.9zm0-42.6c-11.4 0-20.8 9.31-20.8 20.8 0 11.4 9.31 20.8 20.8 20.8 11.4 0 20.8-9.31 20.8-20.8s-9.33-20.8-20.8-20.8zm0 37.2c-6.27 0-11.4-5.1-11.4-11.4v-0.39h22.8v0.39c0 6.29-5.12 11.4-11.4 11.4zm-10.6-11c0.208 5.67 4.89 10.2 10.6 10.2 5.72 0 10.4-4.55 10.6-10.2z"/>
		<path d="m312 301c16 22.4-8.68 47.1-31.2 31.2-0.52-0.39-0.988-0.858-1.38-1.38-16-22.4 8.68-47.1 31.2-31.2 0.546 0.39 1.01 0.858 1.38 1.38z" fill="#e7ca3b"/>
		<path d="m308 298c2.42 3.46 3.85 7.67 3.85 12.2 0 11.8-9.57 21.3-21.3 21.3-4.52 0-8.74-1.43-12.2-3.85 3.85 5.54 10.3 9.13 17.5 9.13 11.8 0 21.3-9.57 21.3-21.3 0-7.28-3.59-13.6-9.13-17.5z" fill="#e3af33"/>
		<path d="m285 321c0 6.08 4.91 11 11 11s11-4.91 11-11z" fill="#1d1612"/>
		<path d="m303 330c-1.85-1.38-4.13-2.18-6.6-2.18-2.5 0-4.76 0.806-6.6 2.18 1.85 1.38 4.13 2.18 6.6 2.18 2.5 0 4.76-0.806 6.6-2.18z" fill="#b92216"/>
		<path d="m293 298c-0.208-0.728-0.962-1.14-1.66-0.936-5.33 1.51-9.67 5.25-12 10.3-0.312 0.676-0.026 1.48 0.676 1.79 0.182 0.078 0.39 0.104 0.546 0.104 0.494 0 0.988-0.286 1.22-0.78 1.98-4.32 5.72-7.54 10.3-8.84 0.728-0.156 1.14-0.884 0.936-1.64z" enable-background="new    " fill="#fff" opacity=".6"/>
		<path d="m290 310a2.37 3.77 0 0 1-2.37 3.77 2.37 3.77 0 0 1-2.37-3.77 2.37 3.77 0 0 1 2.37-3.77 2.37 3.77 0 0 1 2.37 3.77zm16.9 0a2.37 3.77 0 0 1-2.37 3.77 2.37 3.77 0 0 1-2.37-3.77 2.37 3.77 0 0 1 2.37-3.77 2.37 3.77 0 0 1 2.37 3.77zm-10.7 21.6c-6.27 0-11.4-5.1-11.4-11.4v-0.39h22.8v0.39c0.026 6.29-5.07 11.4-11.4 11.4zm-10.6-11c0.208 5.67 4.89 10.2 10.6 10.2 5.72 0 10.4-4.55 10.6-10.2zm10.6 16.4c-12.1 0-21.9-9.83-21.9-21.9 0-12.1 9.83-21.9 21.9-21.9 12.1 0 21.9 9.83 21.9 21.9s-9.83 21.9-21.9 21.9zm0-42.6c-11.4 0-20.8 9.31-20.8 20.8 0 11.4 9.31 20.8 20.8 20.8 11.4 0 20.8-9.31 20.8-20.8s-9.31-20.8-20.8-20.8z"/>
		<path d="m227 260 1.2 3.2c0.104 0.338 0.26 0.78 0.338 1.12h0.026c0.078-0.312 0.208-0.728 0.338-1.14l1.09-3.2h1.04l-1.46 3.85c-0.702 1.87-1.2 2.81-1.87 3.38-0.468 0.442-0.962 0.572-1.2 0.65l-0.234-0.806c0.234-0.078 0.572-0.234 0.858-0.468 0.26-0.208 0.624-0.572 0.806-1.09 0.052-0.078 0.078-0.182 0.078-0.234s-0.026-0.156-0.052-0.26l-1.98-4.99zm-2.86-1.56v1.56h1.4v0.754h-1.4v2.91c0 0.676 0.182 1.04 0.728 1.04 0.26 0 0.442-0.026 0.572-0.052l0.052 0.728c-0.208 0.078-0.494 0.156-0.884 0.156-0.468 0-0.806-0.156-1.04-0.416-0.286-0.286-0.39-0.754-0.39-1.4v-2.96h-0.806v-0.754h0.858v-1.27zm-2.86 0c0 0.312-0.234 0.624-0.624 0.624-0.338 0-0.572-0.26-0.572-0.624 0-0.338 0.26-0.624 0.624-0.624 0.338 0 0.572 0.286 0.572 0.624zm-1.12 6.94v-5.41h0.988v5.41zm-6.16-4.08c0-0.546 0-1.01-0.052-1.46h0.884l0.052 0.91h0.026c0.26-0.52 0.91-1.01 1.79-1.01 0.754 0 1.9 0.442 1.9 2.31v3.25h-0.988v-3.12c0-0.884-0.312-1.61-1.25-1.61-0.65 0-1.14 0.468-1.33 0.988-0.052 0.104-0.052 0.286-0.052 0.468v3.25h-0.988v-3.95zm-1.56 2.6c0 0.546 0 1.04 0.052 1.46h-0.884l-0.052-0.884h-0.026c-0.26 0.442-0.806 0.988-1.79 0.988-0.858 0-1.87-0.468-1.87-2.37v-3.15h0.988v3.02c0 1.01 0.312 1.72 1.2 1.72 0.676 0 1.12-0.468 1.27-0.91 0.052-0.156 0.078-0.312 0.078-0.494v-3.33h0.988zm-13.8-2.6c0-0.546 0-1.01-0.052-1.46h0.858l0.052 0.884h0.026c0.286-0.52 0.806-0.988 1.69-0.988 0.728 0 1.27 0.442 1.51 1.09h0.026c0.182-0.286 0.39-0.52 0.624-0.702 0.312-0.234 0.676-0.39 1.2-0.39 0.702 0 1.79 0.468 1.79 2.34v3.2h-0.962v-3.04c0-1.04-0.39-1.66-1.17-1.66-0.546 0-0.988 0.416-1.17 0.91-0.052 0.156-0.078 0.312-0.078 0.494v3.33h-0.962v-3.25c0-0.858-0.39-1.48-1.14-1.48-0.624 0-1.04 0.494-1.22 0.988-0.052 0.156-0.078 0.312-0.078 0.468v3.28h-0.962v-3.98h0.026zm-9.36 0c0-0.546 0-1.01-0.052-1.46h0.858l0.052 0.884h0.026c0.286-0.52 0.806-0.988 1.69-0.988 0.728 0 1.27 0.442 1.51 1.09h0.026c0.182-0.286 0.39-0.52 0.624-0.702 0.312-0.234 0.676-0.39 1.2-0.39 0.702 0 1.79 0.468 1.79 2.34v3.2h-0.962v-3.04c0-1.04-0.39-1.66-1.17-1.66-0.546 0-0.988 0.416-1.17 0.91-0.052 0.156-0.078 0.312-0.078 0.494v3.33h-0.962v-3.25c0-0.858-0.39-1.48-1.14-1.48-0.624 0-1.04 0.494-1.22 0.988-0.052 0.156-0.078 0.312-0.078 0.468v3.28h-0.962v-3.98h0.026zm-1.3 1.3c0 1.98-1.38 2.86-2.68 2.86-1.46 0-2.6-1.09-2.6-2.78 0-1.82 1.2-2.86 2.68-2.86 1.56 0 2.6 1.14 2.6 2.78zm-4.26 0.052c0 1.2 0.676 2.08 1.64 2.08 0.936 0 1.64-0.884 1.64-2.11 0-0.91-0.468-2.08-1.61-2.08s-1.66 1.09-1.66 2.11zm-1.72 2.55c-0.338 0.182-1.09 0.338-1.98 0.338-2.13 0-3.72-1.35-3.72-3.8 0-2.37 1.61-3.95 3.95-3.95 0.936 0 1.51 0.208 1.79 0.312l-0.234 0.78c-0.39-0.182-0.91-0.312-1.51-0.312-1.74 0-2.96 1.14-2.96 3.09 0 1.85 1.04 3.04 2.89 3.04 0.572 0 1.2-0.104 1.59-0.312z"/>
		<path d="m203 252c-2.11 0-4.19-0.52-6.06-1.61l-26.8-15.4c-3.74-2.16-6.06-6.19-6.06-10.5v-30.9c0-4.32 2.31-8.35 6.06-10.5l26.8-15.4c3.74-2.16 8.4-2.16 12.1 0l26.8 15.4c3.74 2.16 6.06 6.19 6.06 10.5v30.9c0 4.32-2.31 8.35-6.06 10.5l-26.8 15.4c-1.87 1.09-3.98 1.61-6.06 1.61z" fill="url(#SVGID_2_)"/>
		<path d="m203 186c-0.338 0-0.7 0.0778-0.986 0.26l-5.25 3.04c-0.624 0.338-0.988 1.01-0.988 1.71v6.08c0 0.702 0.39 1.38 0.988 1.72l5.3 3.04c0.572 0.338 1.38 0.338 1.98 0l5.3-3.04c0.624-0.338 0.986-0.989 0.986-1.72v-6.08c0-0.702-0.388-1.38-0.986-1.71l-5.3-3.04c-0.338-0.182-0.703-0.26-1.04-0.26zm17.4 3.95c-0.39 0-0.727 0.0772-1.04 0.285l-5.3 3.04c-0.65 0.39-1.04 1.09-1.04 1.85v6.08c0 0.754 0.415 1.46 1.04 1.85l5.3 3.04c0.65 0.39 1.46 0.39 2.11 0l5.3-3.04c0.65-0.39 1.04-1.09 1.04-1.85v-6.08c0-0.754-0.415-1.46-1.04-1.85l-5.3-3.04c-0.338-0.182-0.676-0.285-1.07-0.285zm-34.8 0c-0.39 0-0.727 0.0772-1.04 0.285l-5.3 3.04c-0.65 0.39-1.04 1.09-1.04 1.85v6.08c0 0.754 0.415 1.46 1.04 1.85l5.3 3.04c0.65 0.39 1.46 0.39 2.11 0l5.3-3.04c0.65-0.39 1.04-1.09 1.04-1.85v-6.08c0-0.754-0.415-1.46-1.04-1.85l-5.3-3.04c-0.338-0.182-0.676-0.285-1.07-0.285zm12.7 11.3-6.5 3.74c-1.17 0.676-1.9 1.92-1.9 3.28v10.7c0 0.895 0.341 1.73 0.896 2.39 0.245 0.243 0.515 0.465 0.818 0.646l9.28 5.36c0.65 0.39 1.38 0.545 2.11 0.545s1.46-0.181 2.11-0.545l9.28-5.36c0.246-0.146 0.46-0.333 0.67-0.521 0.619-0.685 0.994-1.57 0.994-2.52v-10.7c0-1.35-0.726-2.6-1.9-3.28l-6.5-3.74-3.15 1.85c-0.91 0.52-2.11 0.52-3.02 0zm26.8 3.9-3.25 1.87c-0.884 0.494-2.03 0.494-2.86 0l-3.21-1.83c0.0308 0.0362 0.065 0.0696 0.0937 0.107 0.122 0.16 0.232 0.328 0.332 0.502 0.0999 0.174 0.189 0.354 0.266 0.539 0.0769 0.186 0.143 0.376 0.195 0.57 0.0526 0.195 0.0922 0.395 0.119 0.596 0.027 0.201 0.041 0.403 0.041 0.607v10.7c0 0.205-0.014 0.408-0.041 0.609-0.027 0.201-0.0665 0.399-0.119 0.594-0.0526 0.195-0.118 0.385-0.195 0.57-0.0769 0.186-0.166 0.367-0.266 0.541-0.0999 0.174-0.21 0.34-0.332 0.5s-0.254 0.312-0.396 0.455c-0.142 0.143-0.294 0.275-0.455 0.398-0.161 0.123-0.331 0.235-0.51 0.336l-5.72 3.28c0.124 0.0941 0.233 0.205 0.369 0.285l9.28 5.36c1.2 0.676 2.76 0.676 3.93 0l9.28-5.36c1.2-0.702 1.95-2.03 1.95-3.38v-10.7c0-1.4-0.753-2.68-1.95-3.38zm-44.2 0-6.55 3.77c-1.2 0.702-1.95 1.98-1.95 3.38v10.7c0 1.4 0.755 2.68 1.95 3.38l9.28 5.36c1.2 0.676 2.76 0.676 3.93 0l9.28-5.36c0.116-0.0681 0.207-0.167 0.314-0.246l-5.75-3.32c-1.43-0.806-2.31-2.37-2.31-4v-10.7c0-1.04 0.361-2.04 0.986-2.84l-3.04 1.75c-0.884 0.494-2.03 0.494-2.86 0z" fill="#fff"/>
		<path d="m343 263c0.026 1.35 0.884 1.87 1.85 1.87 0.702 0 1.14-0.104 1.48-0.286l0.182 0.702c-0.338 0.156-0.936 0.312-1.82 0.312-1.66 0-2.65-1.09-2.65-2.73s0.962-2.91 2.55-2.91c1.74 0 2.26 1.56 2.26 2.55 0 0.208-0.026 0.338-0.026 0.468h-3.8v0.026zm2.89-0.702c0-0.624-0.26-1.61-1.38-1.61-0.988 0-1.43 0.91-1.51 1.61zm-4.45 2.78c-0.26 0.156-0.806 0.312-1.56 0.312-1.64 0-2.68-1.12-2.68-2.76 0-1.66 1.14-2.86 2.89-2.86 0.572 0 1.09 0.156 1.38 0.286l-0.234 0.754c-0.234-0.156-0.624-0.26-1.14-0.26-1.22 0-1.9 0.91-1.9 2.05 0 1.25 0.806 2.03 1.87 2.03 0.546 0 0.936-0.156 1.2-0.26zm-6.24 0.26-0.078-0.676h-0.026c-0.286 0.442-0.884 0.806-1.66 0.806-1.09 0-1.66-0.754-1.66-1.56 0-1.33 1.17-2.03 3.25-2.03v-0.104c0-0.442-0.104-1.25-1.22-1.25-0.494 0-1.01 0.156-1.4 0.416l-0.234-0.65c0.442-0.286 1.09-0.468 1.79-0.468 1.66 0 2.05 1.14 2.05 2.21v2.03c0 0.468 0.026 0.936 0.078 1.27h-0.858zm-0.13-2.78c-1.09-0.026-2.29 0.182-2.29 1.22 0 0.65 0.442 0.936 0.936 0.936 0.702 0 1.14-0.442 1.33-0.91 0.026-0.078 0.052-0.208 0.052-0.312v-0.936zm-5.59-5.02h0.988v7.96h-0.988zm-6.24 4.16c0-0.702-0.026-1.25-0.052-1.74h0.884l0.052 0.936h0.026c0.416-0.676 1.04-1.04 1.92-1.04 1.33 0 2.29 1.12 2.29 2.76 0 1.95-1.2 2.89-2.44 2.89-0.702 0-1.35-0.312-1.66-0.858h-0.026v2.96h-0.962zm0.962 1.43c0 0.156 0.026 0.286 0.052 0.416 0.182 0.676 0.754 1.14 1.46 1.14 1.04 0 1.64-0.858 1.64-2.11 0-1.09-0.572-2.03-1.61-2.03-0.676 0-1.27 0.468-1.48 1.22-0.026 0.104-0.052 0.26-0.052 0.416zm-3.56-4.81v1.56h1.4v0.754h-1.4v2.91c0 0.676 0.208 1.04 0.728 1.04 0.26 0 0.442-0.026 0.572-0.052l0.052 0.728c-0.208 0.078-0.494 0.156-0.884 0.156-0.468 0-0.806-0.156-1.04-0.416-0.286-0.286-0.39-0.754-0.39-1.4v-2.96h-0.884v-0.754h0.858v-1.27zm-6.24 4.68c0.026 1.35 0.884 1.87 1.87 1.87 0.702 0 1.14-0.104 1.48-0.286l0.182 0.702c-0.338 0.156-0.936 0.312-1.82 0.312-1.66 0-2.65-1.09-2.65-2.73s0.962-2.91 2.55-2.91c1.74 0 2.26 1.56 2.26 2.55 0 0.208-0.026 0.338-0.026 0.468h-3.85zm2.89-0.702c0-0.624-0.26-1.61-1.38-1.61-0.988 0-1.43 0.91-1.51 1.61zm-7.83 0.182c0.156-0.208 0.338-0.442 0.494-0.624l1.59-1.87h1.2l-2.11 2.21 2.37 3.2h-1.2l-1.87-2.6-0.494 0.546v2.05h-0.936v-7.96h0.962zm-4.68-0.78c0-0.65 0-1.2-0.052-1.69h0.858l0.026 1.04h0.052c0.234-0.728 0.858-1.2 1.48-1.2 0.104 0 0.182 0 0.286 0.026v0.936c-0.078-0.026-0.208-0.026-0.312-0.026-0.702 0-1.2 0.52-1.33 1.25-0.026 0.156-0.052 0.286-0.052 0.468v2.89h-0.962zm-2.34 3.64-0.078-0.676h-0.026c-0.286 0.442-0.884 0.806-1.66 0.806-1.09 0-1.66-0.754-1.66-1.56 0-1.33 1.17-2.03 3.25-2.03v-0.104c0-0.442-0.104-1.25-1.22-1.25-0.494 0-1.01 0.156-1.4 0.416l-0.234-0.65c0.442-0.286 1.09-0.468 1.79-0.468 1.66 0 2.05 1.14 2.05 2.21v2.03c0 0.468 0.026 0.936 0.078 1.27h-0.858zm-0.156-2.78c-1.09-0.026-2.29 0.182-2.29 1.22 0 0.65 0.442 0.936 0.936 0.936 0.702 0 1.14-0.442 1.33-0.91 0.026-0.078 0.052-0.208 0.052-0.312v-0.936zm-5.3-0.598c-0.052-1.04-0.104-2.31-0.104-3.25h-0.026c-0.26 0.884-0.572 1.82-0.962 2.86l-1.38 3.67h-0.728l-1.22-3.59c-0.338-1.04-0.676-2.05-0.884-2.91h-0.026c-0.026 0.936-0.078 2.18-0.156 3.33l-0.208 3.25h-0.936l0.52-7.54h1.22l1.27 3.67c0.312 0.936 0.572 1.74 0.754 2.55h0.026c0.208-0.754 0.468-1.59 0.78-2.55l1.35-3.67h1.22l0.468 7.54h-0.962z"/>
		<path d="m363 210c0-1.9-0.494-3.82-1.48-5.54l-16.5-28.6c-1.95-3.43-5.64-5.54-9.59-5.54h-33c-3.95 0-7.59 2.13-9.59 5.54l-16.5 28.6c-1.95 3.43-1.95 7.67 0 11.1l16.5 28.6c1.95 3.43 5.64 5.54 9.59 5.54h33c3.95 0 7.59-2.13 9.59-5.54l16.5-28.6c0.988-1.72 1.48-3.61 1.48-5.54z" fill="#d4adcf"/>
		<path d="m310 230c-1.56 0-2.81 1.25-2.81 2.81s1.25 2.81 2.81 2.81 2.81-1.25 2.81-2.81-1.27-2.81-2.81-2.81zm17.9 0c-1.56 0-2.81 1.25-2.81 2.81s1.25 2.81 2.81 2.81 2.81-1.25 2.81-2.81-1.25-2.81-2.81-2.81zm2.86-5.77c0.078 0 0.156-0.026 0.234-0.026 0.052 0 0.078 0.026 0.156 0.026 0.156 0 0.286-0.026 0.442-0.078 2.29-0.234 4.37-1.35 5.56-3.09l9.33-13.9c0.676-0.988 1.01-2.13 1.01-3.3s-0.338-2.31-1.01-3.3c-0.208-0.312-0.546-0.494-0.936-0.494h-47.1v-6.29c0-0.624-0.494-1.12-1.12-1.12h-8.19c-0.624 0-1.12 0.494-1.12 1.12s0.494 1.12 1.12 1.12h7.07v6.32c0.052 1.56 0.65 14.1 2.26 18.7-0.026 0.104-0.052 0.26-0.026 0.416 0.416 3.48 0.962 4.52 1.82 5.95 0.91 1.51 3.77 3.22 6.37 3.22h25.5c2.6 0 5.02-1.22 6.34-3.2 0.338-0.494 0.208-1.2-0.286-1.56-0.494-0.338-1.2-0.208-1.56 0.286-0.91 1.35-2.63 2.18-4.5 2.18h-25.5c-1.85 0-3.95-1.27-4.47-2.13-0.416-0.676-0.702-1.2-0.988-2.13 1.22 0.702 2.68 1.22 4.13 1.22zm-29.9-4.37c-0.546-0.91-1.01-3.38-1.4-6.4h8.27v8.53h-2.39c-1.82 0-3.93-1.27-4.47-2.13zm29.1 2.13h-8.92v-8.53h8.92zm-11.2 0h-8.92v-8.53h8.92zm2.24-10.7v-8.94h8.92v8.94zm-2.24 0h-8.92v-8.94h8.92zm16.4 8.55c-0.676 0.988-1.74 1.69-3.02 1.98v-8.35h7.28zm10-15.9c0 0.728-0.234 1.43-0.65 2.08l-3.59 5.3h-8.81v-8.94h12.6c0.26 0.468 0.416 1.01 0.416 1.56zm-37.4-1.59v8.94h-8.53c-0.312-3.02-0.546-6.29-0.702-8.94z" fill="#fff"/>
	</g>
</svg>
