<?xml version="1.0" encoding="utf-8"?>
<!-- Generator: Adobe Illustrator 27.8.1, SVG Export Plug-In . SVG Version: 6.00 Build 0)  -->
<svg version="1.1" id="Capa_1" xmlns="http://www.w3.org/2000/svg" xmlns:xlink="http://www.w3.org/1999/xlink" x="0px" y="0px"
	 viewBox="0 0 470.92 535.86" style="enable-background:new 0 0 470.92 535.86;" xml:space="preserve">
<style type="text/css">
	.st0{fill:#10352B;}
	.st1{fill:#51CB59;}
	.st2{fill:#A8E6A5;}
	.st3{fill:#DECFF1;}
	.st4{fill:#915FD0;}
	.st5{fill:#C8AFE7;}
	.st6{fill:#80D4F1;}
	.st7{fill:#F3F5F4;}
	.st8{fill:#F2E770;}
	.st9{fill:#FFFFFF;}
	.st10{fill:#F2D54C;}
	.st11{fill-rule:evenodd;clip-rule:evenodd;fill:#F2E770;}
	.st12{fill-rule:evenodd;clip-rule:evenodd;fill:#C8AFE7;}
	.st13{fill-rule:evenodd;clip-rule:evenodd;fill:#915FD0;}
	.st14{fill-rule:evenodd;clip-rule:evenodd;fill:#FD6085;}
	.st15{fill-rule:evenodd;clip-rule:evenodd;fill:#DECFF1;}
	.st16{fill:#00A8E3;}
	.st17{fill:#59A57C;}
	.st18{fill:#7ED4A7;}
	.st19{fill:#EDDFCE;}
	.st20{fill:#DBCBB9;}
	.st21{fill:#FDCE5E;}
	.st22{fill-rule:evenodd;clip-rule:evenodd;fill:#A8E6A5;}
	.st23{fill-rule:evenodd;clip-rule:evenodd;fill:#51CB59;}
	.st24{fill-rule:evenodd;clip-rule:evenodd;fill:#EBFDFF;}
	.st25{fill-rule:evenodd;clip-rule:evenodd;fill:#7DB8B5;}
	.st26{fill-rule:evenodd;clip-rule:evenodd;fill:#9CDAD7;}
	.st27{fill-rule:evenodd;clip-rule:evenodd;fill:#007976;}
	.st28{fill-rule:evenodd;clip-rule:evenodd;fill:#2C4B5F;}
	.st29{fill-rule:evenodd;clip-rule:evenodd;fill:#182F3B;}
</style>
<g>
	<g>
		<path class="st3" d="M359.89,175.82c2.57,2.57,3.44,1.69,6.01,4.26c2.57,2.57,2.15,2.99,4.71,5.55c2.57,2.57,2.45,2.68,5.01,5.25
			c2.57,2.57,2.63,2.5,5.2,5.07c2.57,2.57,2.44,2.69,5.01,5.26c2.57,2.57,2.71,2.42,5.28,4.98c2.57,2.57,2.05,3.09,4.61,5.65
			c2.57,2.57,3.65,1.48,6.22,4.05c2.57,2.57,2.51,2.63,5.07,5.19c2.57,2.57,2.65,2.49,5.21,5.05c2.57,2.57,1.69,3.45,4.26,6.01
			c2.57,2.57,2.96,2.18,5.52,4.74c2.57,2.57,2.56,2.58,5.13,5.14c2.57,2.57,2.93,2.21,5.5,4.78c1.74,1.74,3.08,3.88,4.25,5.91
			c1.22,2.1,2.76,4.24,3.37,6.54c0.62,2.33,0.52,4.96,0.52,7.35c0,2.39,0.01,5-0.61,7.32c-0.61,2.29-2.3,4.32-3.52,6.42
			c-1.17,2.03-3.14,3.44-4.88,5.18c-2.57,2.57-1.91,3.23-4.47,5.79c-2.57,2.57-2.17,2.96-4.74,5.53c-2.57,2.57-2.72,2.41-5.29,4.98
			c-2.57,2.57-2.73,2.4-5.29,4.97c-2.57,2.57-2.27,2.86-4.84,5.43c-2.57,2.57-2.95,2.18-5.51,4.75c-2.57,2.57-2.75,2.38-5.31,4.95
			c-2.57,2.57-2.47,2.66-5.04,5.23c-2.57,2.57-2.81,2.33-5.37,4.89c-2.57,2.57-1.95,3.19-4.51,5.76c-2.57,2.57-3.6,1.54-6.16,4.11
			c-2.57,2.57-1.62,3.52-4.18,6.08c-2.57,2.57-2.63,2.51-5.2,5.08s-3.42,1.72-5.99,4.29c-1.72,1.72-4.43,2.7-6.16,0.98
			c-2.7-2.7-2.96-2.45-5.66-5.16c-2.71-2.71-2.71-2.7-5.42-5.41c-2.7-2.7-1.43-3.97-4.14-6.68c-2.71-2.71-3.59-1.82-6.3-4.52
			c-2.71-2.71-2.51-2.91-5.21-5.61c-2.23-2.23-1.67-6.93,1.25-8.13c2.65-1.09,4.89-2.49,7.03-4.68c1.61-1.65,3.34-3,4.32-4.96
			c1-2.03,2.09-4.08,2.42-6.28c0.33-2.22,0.11-4.53-0.24-6.74c-0.35-2.2-0.35-4.71-1.37-6.73c-0.99-1.96-2.71-3.74-4.32-5.38
			c-1.65-1.67-3.5-3.34-5.48-4.36c-2.05-1.06-4.41-2.08-6.65-2.44c-2.26-0.37-4.57,1.46-6.83,1.81c-2.24,0.35-4.19,0.88-6.25,1.93
			c-1.99,1.01-3.84,2-5.5,3.66c-2.09,2.09-3.94,4.15-5,6.72c-1.2,2.92-4.65,3.27-6.88,1.04c-2.71-2.71-2.72-2.69-5.43-5.4
			c-2.71-2.71-2.86-2.56-5.56-5.26c-2.71-2.71-3.08-2.33-5.79-5.04c-2.71-2.71-2.17-3.25-4.88-5.96c-2.71-2.71-2.95-2.46-5.66-5.17
			c-1.72-1.72-1.77-4.25-0.05-5.97c2.62-2.62,2.68-2.55,5.3-5.17c2.62-2.62,2.45-2.79,5.06-5.41c2.62-2.62,3.15-2.08,5.77-4.7
			c2.62-2.62,2.39-2.85,5.01-5.47c2.62-2.62,2.64-2.6,5.26-5.22c2.03-2.03,4.38-1.52,5.84,0.94c0.95,1.59,3.39,2.1,4.78,3.46
			c1.65,1.61,2.91,3.54,4.88,4.52c2.03,1.01,4.26,1.38,6.46,1.72c2.22,0.34,4.59,1.47,6.81,1.12c2.2-0.34,4.43-1.51,6.46-2.52
			c1.96-0.99,3.09-3.23,4.73-4.84c1.67-1.65,4.1-2.7,5.13-4.68c1.06-2.05,0.29-4.69,0.65-6.92c0.37-2.26,1.98-4.52,1.64-6.78
			c-0.35-2.24-2.61-3.88-3.66-5.94c-1.01-1.99-1.2-4.57-2.86-6.23c-1.3-1.3-3.22-1.74-4.73-2.64c-2.48-1.48-2.06-4.6-0.02-6.64
			c2.62-2.62,2.46-2.78,5.08-5.4c2.62-2.62,2.74-2.5,5.36-5.12c2.62-2.62,2.55-2.69,5.17-5.31c2.62-2.62,1.46-3.78,4.08-6.4
			c2.62-2.62,3.54-1.71,6.16-4.33C356.16,173.9,358.17,174.1,359.89,175.82z"/>
		<path class="st4" d="M111.05,359.97c-2.57-2.57-3.25-1.88-5.82-4.45c-2.57-2.57-2.49-2.64-5.06-5.21
			c-2.57-2.57-2.21-2.92-4.78-5.49c-2.57-2.57-2.42-2.71-4.99-5.28c-2.57-2.57-2.34-2.79-4.91-5.36c-2.57-2.57-3.1-2.03-5.66-4.6
			c-2.57-2.57-2.52-2.62-5.08-5.18c-2.57-2.57-2.94-2.19-5.51-4.76c-2.57-2.57-2.37-2.76-4.94-5.33c-2.57-2.57-1.98-3.15-4.55-5.72
			c-2.57-2.57-3.13-2.01-5.69-4.58c-2.57-2.57-1.95-3.19-4.52-5.75c-2.57-2.57-3-2.14-5.57-4.71s-2.44-2.69-5.01-5.26
			c-1.74-1.74-3.29-3.48-4.47-5.51c-1.22-2.1-2.73-4.12-3.34-6.41c-0.62-2.33-1.49-4.83-1.49-7.22c0-2.39,0.7-4.94,1.32-7.27
			c0.61-2.29,2.39-4.21,3.6-6.31c1.17-2.03,1.87-4.59,3.61-6.33c2.57-2.57,3.31-1.82,5.88-4.39c2.57-2.57,1.89-3.24,4.46-5.81
			c2.57-2.57,3.07-2.07,5.63-4.63c2.57-2.57,3.02-2.11,5.59-4.68c2.57-2.57,2.67-2.47,5.23-5.03c2.57-2.57,2.28-2.85,4.85-5.41
			c2.57-2.57,2.75-2.39,5.31-4.95c2.57-2.57,2.55-2.58,5.11-5.15c2.57-2.57,2.62-2.52,5.18-5.08c2.57-2.57,2.52-2.61,5.09-5.18
			c2.57-2.57,2.11-3.03,4.67-5.6c2.57-2.57,2.04-3.09,4.61-5.66c2.57-2.57,3.41-1.73,5.98-4.3c2.57-2.57,2.62-2.52,5.19-5.09
			c1.72-1.72,4.75-2.78,6.47-1.06c2.7,2.7,2.66,2.75,5.36,5.46c2.71,2.71,2.44,2.97,5.14,5.68c2.7,2.7,2.88,2.53,5.58,5.23
			c2.71,2.71,1.62,3.8,4.32,6.5s3.98,1.43,6.69,4.13c2.23,2.23,0.87,6.94-2.05,8.14c-2.65,1.09-4.67,3.04-6.81,5.23
			c-1.61,1.65-3.57,2.89-4.55,4.85c-1,2.03-1.71,4.22-2.04,6.42c-0.33,2.22,0.11,4.45,0.45,6.67c0.35,2.2,0.95,4.29,1.97,6.31
			c0.99,1.96,2.2,3.77,3.82,5.41c1.65,1.67,3.63,2.65,5.61,3.67c2.05,1.06,3.88,2.89,6.11,3.26c2.26,0.37,4.75,0.38,7.01,0.03
			c2.24-0.35,4.15-2.02,6.21-3.06c1.99-1.01,3.57-2.46,5.23-4.12c2.09-2.09,3.92-4.11,4.98-6.67c1.2-2.92,5.29-3.77,7.52-1.53
			c2.71,2.71,3.13,2.28,5.83,4.99c2.71,2.71,2.65,2.76,5.36,5.47c2.71,2.71,1.71,3.7,4.42,6.41c2.71,2.71,2.86,2.56,5.57,5.26
			s2.94,2.48,5.64,5.19c1.72,1.72,1.77,4.35,0.05,6.07c-2.62,2.62-2.31,2.92-4.93,5.54c-2.62,2.62-2.86,2.38-5.48,5
			c-2.62,2.62-2.37,2.87-4.98,5.49c-2.62,2.62-3.05,2.19-5.67,4.81c-2.62,2.62-2.31,2.93-4.93,5.55c-2.03,2.03-6.37,1.96-7.83-0.5
			c-0.95-1.59-0.69-4.21-2.08-5.57c-1.65-1.61-4.27-1.97-6.24-2.95c-2.03-1.01-3.98-2.42-6.18-2.76c-2.22-0.34-4.64-0.42-6.85-0.07
			c-2.2,0.34-4.13,1.85-6.15,2.87c-1.96,0.99-3.69,2.27-5.33,3.89c-1.67,1.65-4.06,2.84-5.08,4.82c-1.06,2.05-0.57,4.71-0.93,6.94
			c-0.37,2.26-1.66,4.62-1.31,6.88c0.35,2.24,1.52,4.49,2.56,6.55c1.01,1.99,2.63,3.75,4.29,5.42c1.3,1.3,2.39,3.01,3.9,3.91
			c2.48,1.48,3.94,4.76,1.9,6.8c-2.62,2.62-3.06,2.18-5.68,4.8c-2.62,2.62-2.99,2.25-5.61,4.87c-2.62,2.62-2.87,2.36-5.49,4.98
			c-2.62,2.62-2.14,3.1-4.77,5.72c-2.62,2.62-2.18,3.06-4.8,5.68C115.52,362.62,112.77,361.7,111.05,359.97z"/>
		<path class="st6" d="M307.72,316.4c1.61,1.64,1.96,4.27,2.95,6.23c1.02,2.02,1.32,4.13,1.66,6.33c0.35,2.21,1.42,4.43,1.08,6.64
			c-0.33,2.2-1.53,4.23-2.53,6.25c-0.97,1.96-1.47,4.52-3.07,6.17c-2.14,2.2-5.35,3.03-8.01,4.12c-2.91,1.2-3.42,4.96-1.2,7.18
			c2.71,2.71,2.07,3.34,4.77,6.05c2.71,2.71,3.08,2.33,5.79,5.04c2.71,2.71,2.82,2.59,5.53,5.3c2.71,2.71,3.14,2.28,5.84,4.99
			c2.71,2.71,2.65,2.77,5.36,5.47c1.72,1.72,1.67,5.27-0.05,6.99c-2.57,2.57-3.62,1.51-6.19,4.08c-2.57,2.57-1.78,3.35-4.35,5.92
			c-2.57,2.57-2.44,2.7-5,5.26c-2.57,2.57-2.87,2.27-5.43,4.83c-2.57,2.57-2.82,2.32-5.38,4.88c-2.57,2.57-2.86,2.27-5.43,4.84
			c-2.57,2.57-2.6,2.53-5.17,5.1c-2.57,2.57-1.53,3.6-4.1,6.17c-2.57,2.57-3.51,1.62-6.08,4.19c-2.57,2.57-1.89,3.25-4.45,5.81
			c-2.57,2.57-2.32,2.81-4.89,5.38c-2.57,2.57-2.29,2.85-4.85,5.42c-2.57,2.57-3.35,1.79-5.92,4.36s-2.04,3.1-4.61,5.67
			c-1.74,1.74-3.54,3.66-5.58,4.84c-2.1,1.22-4.85,1.2-7.14,1.81c-2.33,0.62-4.7,1.57-7.09,1.57c-2.39,0-4.63-1.42-6.96-2.04
			c-2.29-0.61-5-0.41-7.1-1.62c-2.03-1.17-3.31-3.51-5.04-5.25c-2.57-2.57-3.58-1.55-6.15-4.12c-2.57-2.57-1.87-3.26-4.44-5.83
			c-2.57-2.57-3.06-2.07-5.63-4.64c-2.57-2.57-2.73-2.41-5.3-4.97c-2.57-2.57-2.41-2.73-4.98-5.29c-2.57-2.57-2.62-2.51-5.19-5.07
			c-2.57-2.57-2.28-2.85-4.85-5.42s-2.37-2.76-4.94-5.33c-2.57-2.57-2.5-2.63-5.07-5.2c-2.57-2.57-2.98-2.15-5.55-4.72
			c-2.57-2.57-2.33-2.81-4.89-5.38c-2.57-2.57-1.71-3.43-4.28-5.99c-2.57-2.57-3.59-1.55-6.16-4.12c-2.57-2.57-1.7-3.44-4.26-6.01
			c-1.72-1.72-1.79-3.53-0.07-5.25c2.62-2.62,2.23-3.01,4.85-5.63c2.62-2.62,2.88-2.36,5.5-4.98c2.62-2.62,1.89-3.34,4.51-5.96
			c2.62-2.62,2.56-2.68,5.18-5.3c2.62-2.62,3.05-2.19,5.67-4.81c2.03-2.03,1.65-5.4-0.81-6.86c-1.59-0.95-2.84-2.36-4.2-3.75
			c-1.61-1.65-3.69-2.99-4.67-4.96c-1.01-2.03-1.22-4.45-1.55-6.65c-0.34-2.22,0.66-4.35,1.01-6.57c0.34-2.2,0.62-4.25,1.63-6.27
			c0.99-1.96,2.31-3.54,3.93-5.18c1.65-1.67,2.84-3.82,4.82-4.84c2.05-1.06,4.54-0.54,6.77-0.9c2.26-0.37,4.35-0.96,6.6-0.61
			c2.24,0.35,4.61,0.43,6.67,1.48c1.99,1.01,3.47,2.85,5.13,4.51c1.3,1.3,3.18,2.15,4.08,3.66c1.48,2.47,4.51,3.38,6.54,1.35
			c2.62-2.62,2.63-2.61,5.26-5.23c2.62-2.62,2.06-3.19,4.68-5.81c2.62-2.62,3.41-1.84,6.03-4.46c2.62-2.62,2.49-2.76,5.11-5.38
			c2.62-2.62,2.82-2.42,5.44-5.05c1.72-1.72,4.42-2.53,6.14-0.81c2.71,2.71,2.41,3.01,5.11,5.71c2.71,2.71,2.51,2.9,5.22,5.61
			c2.71,2.71,2.83,2.58,5.54,5.29c2.71,2.71,3.12,2.3,5.83,5.01c2.71,2.71,2.45,2.96,5.16,5.67c2.23,2.23,5.33,1.37,6.53-1.54
			c1.06-2.57,3.15-4.75,5.23-6.84c1.66-1.66,3.42-3.2,5.4-4.21c2.06-1.05,4.42-1.09,6.66-1.43c2.26-0.35,4.41-0.32,6.67,0.05
			c2.23,0.36,4.61,0.37,6.66,1.44C303.67,313.81,306.07,314.72,307.72,316.4z"/>
		<path class="st1" d="M328.62,149.79c-2.62,2.62-3.07,2.17-5.69,4.79c-2.62,2.62-2.86,2.38-5.48,4.99
			c-2.62,2.62-2.53,2.71-5.15,5.32c-2.62,2.62-2.88,2.36-5.5,4.98s-2.75,2.49-5.37,5.11c-2.03,2.03-1.42,6.2,1.05,7.66
			c1.59,0.95,3.03,2.04,4.38,3.42c1.61,1.65,3.94,2.85,4.92,4.81c1.01,2.03,0.97,4.56,1.3,6.76c0.34,2.22-0.62,4.35-0.97,6.57
			c-0.34,2.2,0.06,4.59-0.96,6.61c-0.99,1.96-2.85,3.33-4.47,4.98c-1.65,1.67-3.48,2.71-5.46,3.74c-2.05,1.06-4.01,1.71-6.24,2.07
			c-2.26,0.37-4.3,0.28-6.56-0.07c-2.24-0.35-4.47-0.37-6.53-1.42c-1.99-1.01-3.71-2.4-5.37-4.07c-1.3-1.3-2.13-2.79-3.03-4.3
			c-1.48-2.47-5.82-3.05-7.85-1.02c-2.62,2.62-1.93,3.32-4.55,5.94c-2.62,2.62-3.04,2.2-5.66,4.83c-2.62,2.62-1.93,3.31-4.55,5.93
			c-2.62,2.62-3.53,1.71-6.15,4.33c-2.62,2.62-2.21,3.04-4.83,5.66c-1.72,1.72-4.75,1.89-6.47,0.17c-2.71-2.71-2.19-3.22-4.9-5.92
			c-2.71-2.71-3.65-1.76-6.36-4.47c-2.71-2.71-1.98-3.43-4.68-6.14c-2.71-2.71-2.22-3.2-4.92-5.91s-3.94-1.47-6.65-4.18
			c-2.23-2.23-6.25-2.49-7.44,0.42c-1.09,2.66-2.46,4.87-4.66,7.01c-1.65,1.61-3.16,2.93-5.13,3.9c-2.03,1-3.9,2.14-6.1,2.47
			c-2.22,0.33-4.46,0.55-6.68,0.2c-2.2-0.35-4.02-1.74-6.04-2.76c-1.96-0.99-4.47-1.29-6.11-2.91c-1.67-1.65-3.05-3.67-4.07-5.65
			c-1.06-2.05-0.52-4.58-0.88-6.81c-0.37-2.26-0.81-4.35-0.46-6.6c0.35-2.24,0.2-4.7,1.25-6.76c1.01-1.99,2.67-3.72,4.34-5.38
			c2.09-2.09,4.88-2.79,7.45-3.85c2.92-1.2,3.2-5.58,0.97-7.81c-2.71-2.71-2.61-2.8-5.32-5.51c-2.71-2.71-2.26-3.15-4.97-5.86
			c-2.71-2.71-3.16-2.26-5.86-4.96c-2.71-2.71-2.95-2.47-5.66-5.18s-2.56-2.86-5.27-5.57c-1.72-1.72-0.89-4.03,0.83-5.75
			c2.57-2.57,1.49-3.64,4.06-6.21c2.57-2.57,2.49-2.64,5.06-5.21c2.57-2.57,2.81-2.32,5.38-4.89c2.57-2.57,2.14-3,4.7-5.56
			c2.57-2.57,3.26-1.87,5.83-4.44c2.57-2.57,2.67-2.46,5.24-5.02c2.57-2.57,1.79-3.34,4.36-5.91c2.57-2.57,3.83-1.3,6.4-3.87
			c2.57-2.57,1.37-3.76,3.94-6.33c2.57-2.57,3.14-2,5.7-4.56c2.57-2.57,2.31-2.83,4.87-5.4c2.57-2.57,2.49-2.64,5.06-5.21
			c2.57-2.57,2.34-2.79,4.91-5.36c2.57-2.57,2.87-2.27,5.43-4.84c1.74-1.74,4.29-2.29,6.32-3.46c2.1-1.22,3.98-2.73,6.27-3.34
			c2.33-0.62,4.71-0.79,7.1-0.79c2.39,0,4.64,0.68,6.96,1.3c2.29,0.61,4.34,1.55,6.44,2.77c2.03,1.17,4.28,2.06,6.02,3.8
			c2.57,2.57,2.5,2.63,5.07,5.2c2.57,2.57,3.11,2.02,5.67,4.59c2.57,2.57,2.07,3.06,4.64,5.62c2.57,2.57,2.42,2.71,4.99,5.28
			c2.57,2.57,2.27,2.86,4.84,5.43c2.57,2.57,2.82,2.31,5.39,4.88c2.57,2.57,2.55,2.58,5.12,5.14c2.57,2.57,3.08,2.05,5.65,4.62
			c2.57,2.57,2.92,2.21,5.49,4.78c2.57,2.57,1.4,3.74,3.97,6.3c2.57,2.57,2.45,2.69,5.01,5.26c2.57,2.57,2.92,2.21,5.49,4.78
			c2.57,2.57,2.3,2.84,4.86,5.41s3.17,1.97,5.74,4.54C329.8,144.67,330.34,148.07,328.62,149.79z"/>
	</g>
</g>
</svg>
