<?xml version="1.0" standalone="no"?>
<!DOCTYPE svg PUBLIC "-//W3C//DTD SVG 20010904//EN"
 "http://www.w3.org/TR/2001/REC-SVG-20010904/DTD/svg10.dtd">
<svg version="1.0" xmlns="http://www.w3.org/2000/svg"
 width="702.000000pt" height="702.000000pt" viewBox="0 0 702.000000 702.000000"
 preserveAspectRatio="xMidYMid meet">
<metadata>
Created by potrace 1.14, written by Peter Selinger 2001-2017
</metadata>
<g transform="translate(0.000000,702.000000) scale(0.100000,-0.100000)"
fill="#000000" stroke="none">
<path d="M3507 6379 c7 -7 15 -10 18 -7 3 3 -2 9 -12 12 -14 6 -15 5 -6 -5z"/>
<path d="M3515 6220 c-3 -5 -1 -10 4 -10 6 0 11 5 11 10 0 6 -2 10 -4 10 -3 0
-8 -4 -11 -10z"/>
<path d="M3485 5940 c-3 -6 1 -7 9 -4 18 7 21 14 7 14 -6 0 -13 -4 -16 -10z"/>
<path d="M3485 5700 c-3 -6 1 -7 9 -4 18 7 21 14 7 14 -6 0 -13 -4 -16 -10z"/>
<path d="M1035 4566 l0 -1076 35 -39 c29 -33 167 -179 355 -376 22 -23 103
-108 180 -189 77 -82 160 -169 185 -195 44 -46 309 -326 380 -401 63 -67 334
-352 375 -395 22 -23 103 -109 180 -190 77 -82 162 -171 188 -199 27 -28 106
-111 175 -185 70 -73 150 -158 179 -188 l51 -54 0 1078 0 1078 -70 75 c-72 76
-116 123 -404 426 -88 93 -180 189 -203 214 -24 25 -100 106 -171 180 -70 74
-145 153 -166 176 -52 55 -317 334 -374 394 -25 25 -81 84 -124 131 -44 46
-125 131 -180 190 -56 58 -162 169 -236 248 -74 79 -185 195 -245 258 l-110
115 0 -1076z"/>
<path d="M5848 5488 c-75 -79 -149 -157 -164 -174 -16 -16 -94 -99 -174 -183
-80 -84 -167 -176 -194 -204 -169 -179 -328 -346 -371 -392 -27 -28 -111 -116
-185 -195 -214 -226 -218 -230 -309 -325 -47 -50 -156 -165 -241 -255 -85 -90
-196 -207 -246 -259 -50 -53 -128 -134 -172 -181 l-81 -85 0 -1078 0 -1079 65
69 c36 37 123 128 192 202 142 150 170 179 385 406 84 87 164 172 178 187 14
15 90 96 170 179 171 181 185 196 359 379 74 78 151 159 170 179 19 20 103
108 185 195 83 87 173 182 200 211 28 29 115 121 195 206 80 84 154 162 165
174 20 20 20 34 20 1092 0 590 -2 1073 -6 1073 -3 0 -66 -64 -141 -142z"/>
<path d="M3515 5260 c-3 -5 -1 -10 4 -10 6 0 11 5 11 10 0 6 -2 10 -4 10 -3 0
-8 -4 -11 -10z"/>
<path d="M3486 4578 c3 -5 10 -6 15 -3 13 9 11 12 -6 12 -8 0 -12 -4 -9 -9z"/>
<path d="M3486 3938 c3 -5 10 -6 15 -3 13 9 11 12 -6 12 -8 0 -12 -4 -9 -9z"/>
<path d="M3507 3819 c7 -7 15 -10 18 -7 3 3 -2 9 -12 12 -14 6 -15 5 -6 -5z"/>
<path d="M3515 3660 c-3 -5 -1 -10 4 -10 6 0 11 5 11 10 0 6 -2 10 -4 10 -3 0
-8 -4 -11 -10z"/>
<path d="M3485 3380 c-3 -6 1 -7 9 -4 18 7 21 14 7 14 -6 0 -13 -4 -16 -10z"/>
<path d="M3485 3140 c-3 -6 1 -7 9 -4 18 7 21 14 7 14 -6 0 -13 -4 -16 -10z"/>
<path d="M3515 2700 c-3 -5 -1 -10 4 -10 6 0 11 5 11 10 0 6 -2 10 -4 10 -3 0
-8 -4 -11 -10z"/>
<path d="M3486 2018 c3 -5 10 -6 15 -3 13 9 11 12 -6 12 -8 0 -12 -4 -9 -9z"/>
<path d="M3507 1899 c7 -7 15 -10 18 -7 3 3 -2 9 -12 12 -14 6 -15 5 -6 -5z"/>
<path d="M3515 1740 c-3 -5 -1 -10 4 -10 6 0 11 5 11 10 0 6 -2 10 -4 10 -3 0
-8 -4 -11 -10z"/>
<path d="M3485 1460 c-3 -6 1 -7 9 -4 18 7 21 14 7 14 -6 0 -13 -4 -16 -10z"/>
<path d="M3485 1220 c-3 -6 1 -7 9 -4 18 7 21 14 7 14 -6 0 -13 -4 -16 -10z"/>
<path d="M3515 780 c-3 -5 -1 -10 4 -10 6 0 11 5 11 10 0 6 -2 10 -4 10 -3 0
-8 -4 -11 -10z"/>
</g>
</svg>
