<svg width="225" height="223" viewBox="0 0 225 223" fill="none" xmlns="http://www.w3.org/2000/svg">
<path d="M111.293 0.737075C112.468 0.725912 113.643 0.71475 114.854 0.703249C129.542 0.680954 142.036 3.66105 155.204 10.023C156.346 10.5548 157.489 11.0865 158.632 11.6182C187.553 25.3086 207.998 49.2811 218.992 79.2976C219.939 82.1457 220.798 85.0111 221.612 87.8999C221.797 88.557 221.982 89.2141 222.173 89.8912C229.432 117.251 221.942 145.414 208.466 169.498C193.628 194.76 168.491 211.911 140.624 219.67C112.056 226.825 81.1338 222.328 55.8772 207.364C50.7414 204.203 45.8808 200.803 41.2971 196.882C40.5606 196.256 39.8241 195.629 39.0652 194.984C17.0018 175.686 2.27868 147.786 0.146916 118.329C-1.63692 87.3968 13.0235 56.7175 33.2397 33.8758C46.9079 18.8516 62.9213 9.56293 82.2466 3.75644C82.8601 3.57116 83.4735 3.38588 84.1056 3.19498C93.0543 0.655869 102.045 0.741656 111.293 0.737075Z" fill="#A7E4AB"/>
<path d="M160.329 67.3809C163.268 69.1778 164.801 71.1385 166.754 73.9775C167.146 74.5387 167.539 75.0999 167.944 75.678C169.171 79.4705 169.362 82.9888 167.806 86.657C163.819 93.3814 158.361 99.1099 152.239 103.907C151.117 105.254 151.117 105.254 149.971 106.628C147.703 109.348 147.703 109.348 145.549 111.049C143.476 112.727 141.981 114.297 140.276 116.32C137.1 120.053 133.571 123.227 129.862 126.421C127.715 128.316 127.715 128.316 126.112 130.509C123.896 133.197 121.458 135.306 118.818 137.566C115.535 140.436 112.461 143.509 109.376 146.59C108.747 147.208 108.118 147.826 107.47 148.462C104.764 151.16 102.313 153.652 100.376 156.959C99.8283 157.709 99.281 158.458 98.7172 159.23C96.5062 159.571 96.5062 159.571 94.1814 159.23C92.7934 157.89 92.7934 157.89 91.613 156.042C88.7268 151.856 85.4023 148.467 81.7542 144.942C80.4198 143.631 79.0856 142.32 77.7517 141.008C75.6709 138.973 73.5872 136.941 71.4989 134.913C69.4663 132.936 67.4453 130.948 65.4254 128.957C64.8017 128.358 64.178 127.759 63.5354 127.142C59.9006 123.546 57.6447 120.594 56.0811 115.697C56.0811 108.597 58.8289 103.88 63.7918 98.9185C68.7715 96.7849 73.4358 96.7145 78.7598 97.5581C81.7214 98.888 83.7393 100.713 86.0171 103C87.1169 104.047 87.1169 104.047 88.2389 105.115C93.9147 110.629 93.9147 110.629 95.0886 112.976C98.3696 112.469 99.64 111.377 101.722 108.838C102.272 108.183 102.821 107.529 103.388 106.854C104.219 105.844 104.219 105.844 105.067 104.814C108.75 100.416 112.509 96.5303 116.889 92.825C118.707 91.1797 120.266 89.4527 121.85 87.5817C124.446 84.5167 127.24 81.9927 130.312 79.4157C132.695 77.2257 134.754 74.8348 136.874 72.3904C143.8 64.672 150.686 62.7491 160.329 67.3809Z" fill="#11372C"/>
</svg>
