<?xml version="1.0" encoding="UTF-8" standalone="no"?>
<svg
   width="88px"
   height="30px"
   viewBox="0 0 88 30"
   version="1.1"
   id="svg1347"
   xmlns="http://www.w3.org/2000/svg"
   xmlns:svg="http://www.w3.org/2000/svg">
  <defs
     id="defs1333" />
  <g
     id="g1345">
    <path
       d="M 15.05229,9.8015 V 7.5939 C 15.05296,6.793 14.56914,6.0712 13.82801,5.7675 L 0.12042,0.1154 v 1.2243 l 12.20989,5.0174 c 0.257,0.1115 0.37746,0.4082 0.27094,0.6673 -0.0487,0.1241 -0.14687,0.2222 -0.27094,0.2709 L 0.12042,12.3429 v 4.9246 l 7.35805,-3.0356 4.83679,1.9944 c 0.12515,0.051 0.22446,0.1503 0.27546,0.2754 0.051,0.1251 0.0494,0.2655 -0.004,0.3894 -0.0487,0.1241 -0.14687,0.2223 -0.27094,0.271 L 0.12092,22.1946 v 7.777 l 13.69003,-5.6371 c 0.74112,-0.3037 1.22495,-1.0254 1.22425,-1.8263 v -5.0601 c 10e-4,-0.8016 -0.48273,-1.5243 -1.22425,-1.8289 l -4.84934,-2.0069 4.84934,-1.9945 c 0.75151,-0.2881 1.24608,-1.0114 1.24184,-1.8163 z"
       id="path1337" />
    <path
       d="M 62.783,3.8484 C 62.62745,4.32 62.51456,4.4605 62.03038,4.4605 H 61.83972 V 4.1544 h 0.15052 c 0.25087,0 0.35624,-0.015 0.45157,-0.3537 l 0.0251,-0.038 -0.78021,-2.16 h 0.40641 L 62.64252,3.271 63.17688,1.6027 H 63.5582 Z M 59.98578,1.9367 c 0.14389,-0.251 0.41891,-0.3972 0.70746,-0.3763 0.50174,0 0.9232,0.414 0.9232,1.1239 0,0.71 -0.42899,1.1239 -0.9232,1.1239 -0.28855,0.021 -0.56357,-0.1253 -0.70746,-0.3763 V 3.7631 H 59.61951 V 0.8454 h 0.36627 z m 1.23429,0.7526 c 0,-0.5017 -0.25087,-0.8103 -0.61965,-0.8103 -0.32614,0 -0.62969,0.2509 -0.62969,0.8103 0,0.5595 0.30355,0.8104 0.62969,0.8104 0.37379,-0.01 0.61212,-0.3011 0.61212,-0.8154 z M 58.10927,0.8454 V 3.7631 H 57.74299 V 3.4394 c -0.14389,0.251 -0.41891,0.3973 -0.70745,0.3763 -0.50174,0 -0.92321,-0.4089 -0.92321,-1.1239 0,-0.7149 0.42899,-1.1239 0.92321,-1.1239 0.28854,-0.021 0.56356,0.1254 0.70745,0.3764 V 0.8454 Z m -1.59805,1.8389 c 0,0.5018 0.25087,0.8103 0.61714,0.8103 0.32613,0 0.62969,-0.2508 0.62969,-0.8103 0,-0.5594 -0.30356,-0.8103 -0.62969,-0.8103 -0.3738,0 -0.61714,0.296 -0.61714,0.8103 z m -1.6708,0.8028 c 0.25411,0.024 0.49416,-0.1205 0.59205,-0.3562 h 0.37631 c -0.12383,0.425 -0.52662,0.7068 -0.96836,0.6773 -0.68237,0 -1.05868,-0.5017 -1.05868,-1.1264 -0.0225,-0.291 0.0782,-0.5782 0.27758,-0.7914 0.19939,-0.2132 0.47915,-0.333 0.77106,-0.33 0.65728,0 1.05617,0.5544 1.00349,1.2368 h -1.64572 c -0.008,0.1789 0.0567,0.3533 0.17967,0.4834 0.12299,0.1301 0.29358,0.2047 0.4726,0.2065 z m 0.61212,-1.0035 c 0,-0.3519 -0.28529,-0.6372 -0.63721,-0.6372 -0.35192,0 -0.63721,0.2853 -0.63721,0.6372 z M 53.19972,1.0537 v 0.5418 h 0.41143 V 1.8891 H 53.19972 V 3.171 c 0,0.2233 0.0176,0.281 0.22578,0.281 h 0.18565 v 0.3111 h -0.26592 c -0.41394,0 -0.50175,-0.09 -0.50175,-0.5419 V 1.8891 H 52.5023 V 1.5955 h 0.34118 V 1.0537 Z M 52.0984,1.9618 c -0.33617,0 -0.50175,0.1882 -0.50175,0.6623 v 1.139 H 51.22787 V 1.5955 h 0.35875 v 0.3789 c 0.10511,-0.2417 0.3462,-0.3954 0.60962,-0.3889 h 0.10787 v 0.3889 c -0.0753,-0.01 -0.1455,-0.013 -0.20571,-0.013 z m -2.31304,1.8464 c -0.50174,0 -1.03609,-0.3412 -1.03609,-1.1239 0,-0.7827 0.53184,-1.1239 1.03609,-1.1239 0.62349,0 1.12892,0.5055 1.12892,1.1289 0,0.6235 -0.50543,1.129 -1.12892,1.129 z m 0.63973,-1.1239 c 0,-0.5745 -0.3161,-0.8028 -0.64474,-0.8028 -0.32864,0 -0.64725,0.2133 -0.64725,0.8028 0,0.5896 0.3161,0.8028 0.64725,0.8028 0.33115,0 0.64474,-0.2484 0.64474,-0.8028 z M 46.83763,1.9367 c 0.14389,-0.251 0.41891,-0.3972 0.70746,-0.3763 0.50174,0 0.9232,0.414 0.9232,1.1239 0,0.71 -0.42899,1.1239 -0.9232,1.1239 -0.28855,0.021 -0.56357,-0.1253 -0.70746,-0.3763 v 1.0286 h -0.36627 v -2.865 h 0.36627 z m 1.23178,0.7526 c 0,-0.5017 -0.25088,-0.8103 -0.61715,-0.8103 -0.32613,0 -0.62968,0.2509 -0.62968,0.8103 0,0.5595 0.30355,0.8104 0.62968,0.8104 0.3738,-0.01 0.61715,-0.3011 0.61715,-0.8154 z M 44.43679,1.9367 c 0.1439,-0.251 0.41891,-0.3972 0.70746,-0.3763 0.50174,0 0.9232,0.414 0.9232,1.1239 0,0.71 -0.43149,1.1239 -0.9232,1.1239 -0.28855,0.021 -0.56356,-0.1253 -0.70746,-0.3763 v 1.0286 h -0.36627 v -2.865 h 0.36627 z m 1.23178,0.7526 c 0,-0.5017 -0.25087,-0.8103 -0.61714,-0.8103 -0.32613,0 -0.6322,0.2509 -0.6322,0.8103 0,0.5595 0.30607,0.8104 0.6322,0.8104 0.37379,-0.01 0.60711,-0.3011 0.60711,-0.8154 z m -3.17101,1.1189 c -0.50174,0 -0.6899,-0.3361 -0.6899,-0.8304 V 1.5955 h 0.36377 V 2.87 c 0,0.3336 0.0577,0.6221 0.45407,0.6221 0.34621,0 0.54941,-0.2508 0.54941,-0.7074 V 1.5955 h 0.36627 V 3.7631 H 43.17491 V 3.4545 C 43.03506,3.6919 42.77232,3.8291 42.49756,3.8082 Z M 40.49812,1.869 c -0.21324,0 -0.45408,0.078 -0.45408,0.2734 0,0.1957 0.12042,0.2509 0.32864,0.2936 l 0.30606,0.06 c 0.39136,0.075 0.73757,0.2232 0.73757,0.6422 0,0.419 -0.38635,0.6698 -0.87805,0.6698 C 40.07833,3.843 39.6712,3.5126 39.61003,3.0554 h 0.38384 c 0.0315,0.2738 0.2779,0.4709 0.55191,0.4415 0.27596,0 0.50174,-0.1204 0.50174,-0.3211 0,-0.2007 -0.20571,-0.3085 -0.43902,-0.3562 l -0.32111,-0.065 c -0.29352,-0.06 -0.61464,-0.1982 -0.61464,-0.5996 0,-0.4014 0.38634,-0.6021 0.86551,-0.6021 0.41867,-0.036 0.79341,0.2592 0.85547,0.6748 H 41.0124 C 40.961,1.9922 40.73692,1.8359 40.49812,1.869 Z M 37.99944,1.0537 v 0.5418 h 0.40892 V 1.8891 H 37.99944 V 3.171 c 0,0.2233 0.0176,0.281 0.22579,0.281 h 0.18313 v 0.3111 h -0.26341 c -0.41394,0 -0.50174,-0.09 -0.50174,-0.5419 V 1.8891 H 37.30202 V 1.5955 h 0.32864 V 1.0537 Z M 36.75763,2.318 c -0.0568,-0.2614 -0.29207,-0.445 -0.55944,-0.4365 -0.32363,0 -0.62216,0.2509 -0.62216,0.7953 0,0.5444 0.30104,0.8103 0.62216,0.8103 0.26995,0.01 0.50949,-0.1718 0.57449,-0.434 h 0.37882 c -0.10043,0.4486 -0.5038,0.7637 -0.96335,0.7526 -0.61965,0 -1.00348,-0.4691 -1.00348,-1.1264 0,-0.6573 0.40641,-1.1214 1.04362,-1.1214 0.44623,-0.01 0.83091,0.3122 0.90314,0.7526 z m -2.8499,1.1691 c 0.25362,0.024 0.49324,-0.1203 0.58955,-0.3562 h 0.3738 c -0.12383,0.425 -0.52661,0.7068 -0.96836,0.6773 -0.68237,0 -1.05868,-0.5017 -1.05868,-1.1264 -0.0233,-0.2908 0.0768,-0.578 0.27585,-0.7913 0.19901,-0.2133 0.47856,-0.3331 0.77028,-0.3301 0.65979,0 1.05617,0.5544 1.00349,1.2368 h -1.65324 c -0.007,0.1811 0.0605,0.3571 0.18649,0.4873 0.12597,0.1302 0.29964,0.2034 0.48082,0.2026 z M 34.51735,2.4836 C 34.49625,2.1479 34.2178,1.8864 33.88139,1.8864 c -0.3364,0 -0.61486,0.2615 -0.63596,0.5972 z M 32.44767,1.5955 v 2.2579 c 0,0.449 -0.0928,0.5945 -0.50175,0.5945 h -0.18564 v -0.306 h 0.10035 c 0.18815,0 0.22327,-0.055 0.22327,-0.281 V 1.5955 Z m 0,-0.3085 H 32.08139 V 0.8454 h 0.36628 z m -1.79624,2.5212 c -0.50174,0 -1.03359,-0.3412 -1.03359,-1.1239 0,-0.7827 0.53185,-1.1239 1.03359,-1.1239 0.50174,0 1.03609,0.3412 1.03609,1.1239 0,0.7827 -0.53184,1.1239 -1.03609,1.1239 z m 0.64724,-1.1239 c 0,-0.5745 -0.31609,-0.8028 -0.64724,-0.8028 -0.33115,0 -0.64474,0.2133 -0.64474,0.8028 0,0.5896 0.3161,0.8028 0.64474,0.8028 0.32864,0 0.64724,-0.2484 0.64724,-0.8028 z M 29.25408,1.9618 c -0.33617,0 -0.50175,0.1882 -0.50175,0.6623 v 1.139 H 28.38606 V 1.5955 H 28.7423 V 1.9744 C 28.84902,1.7341 29.08908,1.581 29.35192,1.5855 h 0.10787 v 0.3889 c -0.0753,-0.01 -0.14551,-0.013 -0.20571,-0.013 z m -2.91262,-0.025 c 0.1439,-0.251 0.41891,-0.3972 0.70746,-0.3763 0.50174,0 0.9232,0.414 0.9232,1.1239 0,0.71 -0.42899,1.1239 -0.9232,1.1239 C 26.76037,3.8293 26.48536,3.683 26.34146,3.432 V 4.4606 H 25.9777 v -2.865 h 0.36376 z m 1.23429,0.7526 c 0,-0.5017 -0.25087,-0.8103 -0.61965,-0.8103 -0.32363,0 -0.62969,0.2509 -0.62969,0.8103 0,0.5595 0.30606,0.8104 0.62969,0.8104 0.38885,-0.01 0.62467,-0.3011 0.62467,-0.8154 z"
       id="path1339" />
    <path
       d="m 85.71763,8.8859 c 1.07623,0 1.46509,0.6949 1.46509,1.7134 v 2.8173 H 86.4301 v -2.594 c 0,-0.6849 -0.1154,-1.282 -0.9784,-1.282 -0.72752,0 -1.17407,0.5018 -1.17407,1.4576 v 2.4184 H 83.52501 V 8.9611 h 0.75262 v 0.6698 c 0.30154,-0.4995 0.85803,-0.7875 1.44,-0.745 z m -5.13032,4.6361 c -1.03609,0 -2.13742,-0.7025 -2.13742,-2.3181 0,-1.6156 1.10133,-2.318 2.13742,-2.318 1.0361,0 2.13492,0.7049 2.13492,2.318 0,1.6131 -1.10133,2.3181 -2.13492,2.3181 z m 1.33213,-2.3181 c 0,-1.1841 -0.65477,-1.6557 -1.33213,-1.6557 -0.67735,0 -1.33463,0.439 -1.33463,1.6557 0,1.2167 0.65477,1.6558 1.33463,1.6558 0.67986,0 1.33213,-0.5118 1.33213,-1.6558 z m -4.26983,-2.88 H 76.897 V 7.4132 h 0.75261 z m 0,5.0927 H 76.897 V 8.9611 h 0.75261 z M 75.33157,7.8422 V 8.9611 H 76.177 v 0.6046 h -0.84543 v 2.6417 c 0,0.4641 0.0351,0.5795 0.46411,0.5795 H 76.177 v 0.6297 h -0.5469 c -0.85296,0 -1.05115,-0.1907 -1.05115,-1.1189 V 9.5657 H 73.87651 V 8.9611 h 0.70244 V 7.8422 Z m -2.67931,2.8324 v -0.1079 c 0,-0.8103 -0.45658,-1.0838 -1.00348,-1.0838 -0.61965,0 -0.98342,0.3387 -1.01854,0.8856 h -0.7777 c 0.0753,-0.9608 0.91819,-1.5052 1.78871,-1.5052 1.22676,0 1.78119,0.587 1.77115,1.8364 v 1.0285 c -0.0187,0.5628 0.02,1.1259 0.1154,1.6809 h -0.75261 c -0.0328,-0.2034 -0.0521,-0.4087 -0.0577,-0.6147 -0.27345,0.4566 -0.73756,0.72 -1.5253,0.72 -0.8354,0 -1.53031,-0.4616 -1.53031,-1.2819 -0.0226,-1.0437 1.16153,-1.3497 2.99038,-1.5579 z m -2.17756,1.5478 c 0,0.424 0.32363,0.705 0.86049,0.705 0.70495,0 1.37477,-0.3236 1.37477,-1.3748 v -0.281 c -1.36473,0.1405 -2.23526,0.3387 -2.23526,0.9508 z M 68.85407,7.4132 v 6.0034 h -0.75261 v -0.6723 c -0.29923,0.5144 -0.86359,0.8156 -1.45756,0.7777 -1.01854,0 -1.90411,-0.843 -1.90411,-2.3181 0,-1.4751 0.88557,-2.318 1.90411,-2.318 0.59397,-0.038 1.15833,0.2632 1.45756,0.7777 V 7.4057 Z m -3.29393,3.7907 c 0,1.0612 0.50174,1.6733 1.27442,1.6733 0.66983,0 1.29951,-0.5017 1.29951,-1.6733 0,-1.1716 -0.62968,-1.6708 -1.29951,-1.6708 -0.77017,0 -1.27442,0.6121 -1.27442,1.6708 z m -3.03303,-2.318 c 1.07874,0 1.46759,0.6949 1.46759,1.7134 v 2.8173 h -0.75261 v -2.594 c 0,-0.6849 -0.1154,-1.282 -0.97589,-1.282 -0.73003,0 -1.17659,0.5018 -1.17659,1.4576 v 2.4184 H 60.337 V 8.9611 h 0.75261 v 0.6698 c 0.30113,-0.4987 0.8564,-0.7865 1.4375,-0.745 z m -5.39624,4.6361 c -1.03359,0 -1.42244,-0.695 -1.42244,-1.7135 V 8.9611 h 0.75261 v 2.6241 c 0,0.6874 0.1154,1.2845 0.93575,1.2845 0.71248,0 1.13394,-0.5018 1.13394,-1.4576 v -2.451 h 0.75261 v 4.4555 h -0.75261 v -0.6397 c -0.28735,0.4939 -0.82964,0.7826 -1.39986,0.7451 z m -4.31498,0 c -1.03359,0 -2.13492,-0.7025 -2.13492,-2.3181 0,-1.6156 1.10133,-2.318 2.13492,-2.318 1.03359,0 2.13742,0.7049 2.13742,2.318 0,1.6131 -1.10132,2.3181 -2.13742,2.3181 z m 1.33463,-2.3181 c 0,-1.1841 -0.65477,-1.6557 -1.33463,-1.6557 -0.67986,0 -1.33213,0.439 -1.33213,1.6557 0,1.2167 0.65477,1.6558 1.33213,1.6558 0.67735,0 1.33463,-0.5118 1.33463,-1.6558 z M 50.02369,7.4132 h 0.4014 v 0.6297 h -0.3738 c -0.39638,0 -0.46411,0.09 -0.46411,0.5545 v 0.3637 h 0.83791 v 0.6046 h -0.83791 v 3.8509 H 48.83456 V 9.5657 H 48.2124 V 8.9611 h 0.62216 V 8.6375 c -0.0125,-0.9257 0.17812,-1.2243 1.18913,-1.2243 z m -6.81366,3.1786 H 43.0846 V 9.9044 h 0.10035 c 1.04362,0 1.59805,-0.2885 1.59805,-1.0035 0,-0.6447 -0.52934,-0.9759 -1.16906,-0.9759 -0.32983,-0.026 -0.65604,0.084 -0.90288,0.3039 -0.24685,0.2203 -0.39287,0.532 -0.40416,0.8627 h -0.7777 c 0.0903,-1.0587 0.84292,-1.7963 2.1023,-1.7963 1.04362,0 1.94676,0.414 1.94676,1.5228 6.7e-4,0.6242 -0.39093,1.1815 -0.9784,1.3924 0.89561,0.2809 1.14397,0.8755 1.14397,1.5052 0,1.2092 -1.02857,1.7962 -2.17003,1.7962 -1.40739,0 -2.05464,-0.8755 -2.13743,-1.879 h 0.78021 c 0.0828,0.7376 0.51931,1.2543 1.36474,1.2543 0.79526,0 1.35721,-0.4139 1.35721,-1.159 0,-0.8554 -0.77017,-1.1364 -1.7285,-1.1364 z M 37.56042,9.6636 c 0.29923,-0.5145 0.86359,-0.8157 1.45756,-0.7777 1.01853,0 1.90411,0.8529 1.90411,2.318 0,1.4651 -0.88558,2.3181 -1.90411,2.3181 -0.59397,0.038 -1.15833,-0.2633 -1.45756,-0.7777 v 0.6723 H 36.8078 V 7.4132 h 0.75262 z m 2.54132,1.5403 c 0,-1.0587 -0.50174,-1.6708 -1.27442,-1.6708 -0.66983,0 -1.29952,0.5017 -1.29952,1.6708 0,1.1691 0.62969,1.6733 1.29952,1.6733 0.77017,0 1.27442,-0.6121 1.27442,-1.6733 z m -6.12627,1.6558 c 0.52293,0.048 1.01639,-0.2496 1.21672,-0.7351 h 0.7777 c -0.20571,0.7702 -0.91066,1.3974 -1.99442,1.3974 -1.40739,0 -2.18509,-1.0035 -2.18509,-2.3256 0,-1.4074 0.94328,-2.3105 2.16,-2.3105 1.35721,0 2.17756,1.1439 2.07722,2.5513 h -3.41436 c -0.015,0.3712 0.12171,0.7326 0.37867,1.0009 0.25696,0.2683 0.61205,0.4205 0.98356,0.4216 z M 35.22982,10.79 c -0.0653,-0.6732 -0.63081,-1.187 -1.30715,-1.1876 -0.67634,-7e-4 -1.2428,0.512 -1.30943,1.1851 z m -6.16641,-1.8289 0.88558,3.294 0.85296,-3.294 h 0.8078 l -1.28195,4.4555 h -0.68738 l -0.98593,-3.5875 -0.9508,3.5875 H 27.01882 L 25.73435,8.9611 h 0.81032 l 0.85296,3.294 0.88808,-3.294 z"
       id="path1341" />
    <path
       d="m 76.44042,22.6386 v -4.4555 h 0.75261 v 0.6699 c 0.27032,-0.482 0.78738,-0.7725 1.33965,-0.7527 0.67986,0 1.08627,0.2986 1.28446,0.7878 0.3231,-0.5147 0.89818,-0.8157 1.50523,-0.7878 1.03609,0 1.44,0.6975 1.44,1.716 v 2.8148 h -0.75262 v -2.584 c 0,-0.6874 -0.13296,-1.2845 -0.9508,-1.2845 -0.64725,0 -1.07874,0.5018 -1.07874,1.4576 v 2.4184 h -0.75262 v -2.5915 c 0,-0.6874 -0.13296,-1.2845 -0.9508,-1.2845 -0.64725,0 -1.07624,0.5018 -1.07624,1.4576 v 2.4184 z m -1.75359,-2.742 v -0.1079 c 0,-0.8103 -0.45659,-1.0838 -1.00349,-1.0838 -0.61965,0 -0.98592,0.3387 -1.01853,0.8856 h -0.7777 c 0.0753,-0.9608 0.91818,-1.5052 1.78871,-1.5052 1.22425,0 1.77867,0.587 1.77115,1.8389 v 1.026 c -0.0187,0.5628 0.02,1.126 0.1154,1.6809 h -0.75262 c -0.0314,-0.2027 -0.0507,-0.4071 -0.0577,-0.6121 -0.27345,0.454 -0.73505,0.72 -1.52278,0.72 -0.8354,0 -1.53283,-0.4642 -1.53283,-1.2845 -0.0251,-1.0436 1.15903,-1.3497 2.99039,-1.5579 z m -2.18509,1.5504 c 0,0.4214 0.32111,0.7024 0.86049,0.7024 0.70495,0 1.37477,-0.3236 1.37477,-1.3748 v -0.2809 c -1.35972,0.1404 -2.23526,0.3286 -2.23526,0.9533 z m -1.54787,-2.5087 c -0.69492,0 -1.04363,0.3888 -1.04363,1.3647 v 2.3356 h -0.75261 v -4.4555 h 0.73505 v 0.7777 c 0.21876,-0.4954 0.71289,-0.8116 1.25436,-0.8028 0.0743,0 0.14893,0 0.22327,0 v 0.8028 c -0.13833,-0.015 -0.27733,-0.022 -0.41644,-0.023 z m -2.84739,-0.7552 v 3.8584 c 0,0.9107 -0.16558,1.2845 -0.42146,1.5655 -0.40569,0.4072 -0.96653,0.6209 -1.54035,0.587 -1.00349,0 -1.68837,-0.4641 -1.83136,-1.3647 h 0.80529 c 0.0978,0.3963 0.33868,0.7024 1.03359,0.7024 0.33689,0.025 0.66824,-0.096 0.91067,-0.3311 0.16557,-0.1731 0.29101,-0.3814 0.29101,-0.986 v -0.4214 c -0.28342,0.5096 -0.83566,0.8096 -1.41743,0.7701 -0.98341,0 -1.88655,-0.7952 -1.88655,-2.2277 0,-1.4325 0.90314,-2.2277 1.88655,-2.2277 0.58397,-0.038 1.13677,0.2667 1.41743,0.7802 v -0.705 z m -3.23624,2.1525 c 0,1.0185 0.5193,1.5905 1.25436,1.5905 0.67233,0 1.25435,-0.4566 1.25435,-1.5905 0,-1.1339 -0.58703,-1.5805 -1.25435,-1.5805 -0.73506,0 -1.25436,0.562 -1.25436,1.5805 z m -3.49212,2.4109 c -1.0361,0 -2.13742,-0.705 -2.13742,-2.3181 0,-1.6131 1.10132,-2.3205 2.13742,-2.3205 1.03609,0 2.13491,0.7049 2.13491,2.3205 0,1.6156 -1.10132,2.3181 -2.13491,2.3181 z m 1.33212,-2.3181 c 0,-1.1841 -0.65477,-1.6582 -1.33212,-1.6582 -0.67736,0 -1.33464,0.439 -1.33464,1.6582 0,1.2193 0.65478,1.6558 1.33464,1.6558 0.67986,0 1.33965,-0.5093 1.33965,-1.6558 z m -4.17198,-1.4901 c -0.69492,0 -1.04363,0.3888 -1.04363,1.3647 v 2.3356 h -0.75261 v -4.4555 h 0.73756 v 0.7777 c 0.21823,-0.4958 0.7127,-0.8123 1.25436,-0.8028 0.0743,0 0.14893,0 0.22327,0 v 0.8028 c -0.13915,-0.015 -0.279,-0.023 -0.41895,-0.023 z m -5.95568,-0.05 c 0.29899,-0.515 0.86318,-0.817 1.45756,-0.7802 1.01853,0 1.90411,0.8529 1.90411,2.3205 0,1.4676 -0.88558,2.3181 -1.90411,2.3181 -0.59463,0.038 -1.15942,-0.2643 -1.45756,-0.7802 v 2.1173 h -0.75262 v -5.9005 h 0.75262 z m 2.54383,1.5403 c 0,-1.0611 -0.50174,-1.6733 -1.27693,-1.6733 -0.66983,0 -1.29952,0.5018 -1.29952,1.6733 0,1.1716 0.62969,1.6708 1.29952,1.6708 0.77017,0 1.27693,-0.6121 1.27693,-1.6708 z m -8.07303,-1.6808 c -0.43903,0 -0.93575,0.1555 -0.93575,0.5619 0,0.3563 0.25087,0.5219 0.67986,0.6046 l 0.62969,0.123 c 0.81031,0.158 1.52278,0.4641 1.52278,1.3271 0,0.863 -0.79526,1.3823 -1.81379,1.3823 -1.16655,0 -1.82885,-0.7702 -1.91164,-1.5479 h 0.79526 c 0.0694,0.5603 0.57185,0.9638 1.13394,0.9107 0.56947,0 1.03359,-0.2509 1.03359,-0.6623 0,-0.4115 -0.42147,-0.6397 -0.90314,-0.7376 l -0.6623,-0.133 c -0.60209,-0.1254 -1.25436,-0.4064 -1.25436,-1.2342 0,-0.7853 0.79527,-1.2418 1.78119,-1.2418 0.98592,0 1.61561,0.5393 1.7561,1.3823 H 48.11707 C 47.98913,18.9535 47.57519,18.7478 47.05338,18.7478 Z M 43.9777,17.0594 v 1.1164 h 0.84543 v 0.6046 H 43.9777 v 2.6417 c 0,0.4641 0.0326,0.5795 0.46411,0.5795 h 0.38132 v 0.6297 h -0.54689 c -0.85297,0 -1.05115,-0.1907 -1.05115,-1.1189 v -2.7245 h -0.70495 v -0.6046 h 0.70495 v -1.1239 z m -3.40934,1.0487 c 1.07624,0 1.46509,0.6974 1.46509,1.7159 v 2.8148 h -0.75261 v -2.5915 c 0,-0.6874 -0.11541,-1.2844 -0.9784,-1.2844 -0.72753,0 -1.17408,0.5017 -1.17408,1.4575 v 2.4184 h -0.75261 v -4.4555 h 0.75261 v 0.6699 c 0.30154,-0.4996 0.85804,-0.7875 1.44,-0.7451 z m -3.94118,1.7887 v -0.1079 c 0,-0.8103 -0.45659,-1.0838 -1.00349,-1.0838 -0.61965,0 -0.98341,0.3387 -1.01853,0.8856 h -0.77771 c 0.0753,-0.9608 0.91819,-1.5052 1.78872,-1.5052 1.22425,0 1.78118,0.587 1.77115,1.8389 v 1.026 c -0.0187,0.5628 0.02,1.126 0.1154,1.6809 H 36.7501 c -0.0324,-0.2027 -0.0525,-0.4071 -0.0602,-0.6121 -0.27094,0.454 -0.73505,0.72 -1.52278,0.72 -0.8354,0 -1.53032,-0.4642 -1.53032,-1.2845 -0.0201,-1.0436 1.15401,-1.3497 2.99039,-1.5579 z m -2.17756,1.5504 c 0,0.4214 0.32362,0.7024 0.86048,0.7024 0.70495,0 1.37478,-0.3236 1.37478,-1.3748 v -0.2809 c -1.37478,0.1404 -2.24279,0.3286 -2.24279,0.9533 z m -1.56293,-2.5087 c -0.69491,0 -1.04362,0.3888 -1.04362,1.3647 v 2.3356 h -0.75262 v -4.4555 h 0.73505 v 0.7777 c 0.2193,-0.4949 0.71308,-0.8109 1.25436,-0.8027 0.0743,0 0.14893,0 0.22327,0 V 18.961 C 33.16481,18.946 33.0258,18.939 32.88669,18.938 Z M 30.0393,18.1833 v 3.8584 c 0,0.9107 -0.16557,1.2845 -0.42146,1.5655 -0.40569,0.4072 -0.96652,0.621 -1.54035,0.587 -1.00348,0 -1.68836,-0.4641 -1.82885,-1.3647 h 0.80279 c 0.0978,0.3963 0.33867,0.7024 1.03359,0.7024 0.33689,0.025 0.66823,-0.096 0.91066,-0.3311 0.16557,-0.1731 0.29101,-0.3814 0.29101,-0.986 v -0.4214 c -0.28302,0.5087 -0.83402,0.8086 -1.41491,0.7701 -0.98593,0 -1.88906,-0.7952 -1.88906,-2.2277 0,-1.4325 0.90313,-2.2277 1.88906,-2.2277 0.58308,-0.037 1.13465,0.2676 1.41491,0.7802 v -0.705 z m -3.23624,2.1525 c 0,1.0185 0.52182,1.5905 1.25436,1.5905 0.67233,0 1.25436,-0.4566 1.25436,-1.5905 0,-1.1339 -0.58704,-1.5805 -1.25436,-1.5805 -0.73254,0 -1.25436,0.562 -1.25436,1.5805 z"
       id="path1343" />
  </g>
</svg>
