<svg width="70" height="70" viewBox="0 0 70 70" fill="none" xmlns="http://www.w3.org/2000/svg">
<path d="M35 70C54.33 70 70 54.33 70 35C70 15.67 54.33 0 35 0C15.67 0 0 15.67 0 35C0 54.33 15.67 70 35 70Z" fill="#10352B"/>
<path d="M35.2917 51.6253C44.6345 51.6253 52.2083 44.0515 52.2083 34.7087C52.2083 25.3658 44.6345 17.792 35.2917 17.792C25.9488 17.792 18.375 25.3658 18.375 34.7087C18.375 44.0515 25.9488 51.6253 35.2917 51.6253Z" stroke="white" stroke-width="2.91667"/>
<path d="M19.8332 44.3334L17.6329 52.1302C17.4211 52.8808 18.1118 53.5742 18.8633 53.3652L27.0082 51.1001L27.2524 49.6895C27.3803 48.9502 26.6788 48.3386 25.9638 48.5661L21.1165 50.1084L22.0166 46.8496C22.3947 45.4807 21.2436 44.1675 19.8332 44.3334V44.3334Z" fill="white"/>
<path d="M21 50.1668C21 50.1085 23.0417 43.3418 23.0417 43.3418L27.9417 47.9501L21 50.1668Z" fill="#10352B"/>
<path d="M27.981 26.3276C27.3854 26.7409 26.8776 27.2681 26.4871 27.8789C26.0966 28.4897 25.8311 29.1719 25.706 29.8859C25.4143 32.1609 26.8143 34.4942 26.8143 34.4942C28.2345 36.6071 29.9205 38.5284 31.831 40.2109C33.5022 41.5333 35.3996 42.5414 37.431 43.1859C38.6159 43.659 39.9121 43.7805 41.1643 43.5359C42.2742 43.2312 43.2562 42.5766 43.9643 41.6692C44.1302 41.2565 44.2477 40.8258 44.3143 40.3859C44.3811 39.9999 44.3811 39.6053 44.3143 39.2192C44.256 38.8109 40.056 36.8859 39.6477 37.0026C39.2393 37.1192 38.8893 37.8776 38.4226 38.5192C37.9559 39.1609 37.781 39.4526 37.3143 39.4526C36.8477 39.4526 34.8059 38.6359 32.8809 36.8859C31.7814 35.9325 30.9221 34.7335 30.3727 33.3859C30.3727 33.3859 30.7227 32.9776 31.1893 32.3359C31.5525 31.938 31.8128 31.4574 31.9476 30.9359C31.9476 30.6442 30.3143 26.5026 29.906 26.3276C29.2674 26.2378 28.6195 26.2378 27.981 26.3276Z" fill="white"/>
</svg>
